<?xml version="1.0" standalone="no"?>
<!DOCTYPE svg PUBLIC "-//W3C//DTD SVG 1.1//EN" "http://www.w3.org/Graphics/SVG/1.1/DTD/svg11.dtd" >
<svg xmlns="http://www.w3.org/2000/svg" xmlns:xlink="http://www.w3.org/1999/xlink" version="1.1">
<metadata>
Created by FontForge 20170731 at Tue Oct 10 09:44:45 2023
 By Aleksey,,,
Copyright (c) Olivier Gourvat - Mostardesign Studio, 2014. All rights reserved. |DCNT
</metadata>
<defs>
<font id="FilsonPro-Light" horiz-adv-x="1392" >
  <font-face 
    font-family="Filson Pro Light"
    font-weight="300"
    font-stretch="normal"
    units-per-em="2048"
    panose-1="2 0 0 0 0 0 0 0 0 0"
    ascent="1481"
    descent="-567"
    x-height="1016"
    cap-height="1434"
    bbox="-457 -512 2568 2032"
    underline-thickness="102"
    underline-position="-307"
    unicode-range="U+000D-FB04"
  />
<missing-glyph horiz-adv-x="1378" 
d="M205 0v1436h969v-1436h-969zM582 526h123q0 40 4 55.5t20 26.5q7 4 30 18.5t39 24.5t41.5 29t43.5 36.5t39 42.5t34 50t22 57t9 66q0 120 -90.5 193t-224.5 73q-78 0 -138.5 -21.5t-94.5 -56t-51 -72.5t-17 -77q0 -53 18 -94h129q-16 36 -16 90q0 52 44 84t118 32
q87 0 135.5 -40.5t48.5 -110.5v-4q0 -68 -41 -115t-137 -106q-63 -36 -75.5 -64t-12.5 -117zM545 295q0 -43 28.5 -71.5t69.5 -28.5q43 0 72.5 28.5t29.5 71.5q0 41 -29.5 70.5t-72.5 29.5q-41 0 -69.5 -29.5t-28.5 -70.5z" />
    <glyph glyph-name="f_f" unicode="ff" horiz-adv-x="1376" 
d="M801 1346l-78 -52q-12 58 -60.5 91.5t-125.5 33.5q-40 0 -75.5 -15t-67 -47.5t-50 -93.5t-18.5 -145v-102h594v94q0 89 18 159t47 113t69.5 71t82 39t88.5 11q132 0 205 -67t73 -174q0 -11 -2 -17q0 -18 -8 -37h-86q8 16 8 47q0 75 -50.5 119.5t-139.5 44.5
q-40 0 -75.5 -15t-67 -47.5t-50 -93.5t-18.5 -145v-102h305v-78h-305v-938h-94v938h-594v-938h-95v938h-178v78h178v94q0 111 26.5 191t72 122t96.5 61t111 19q102 0 170 -42.5t94 -114.5z" />
    <glyph glyph-name="fi" unicode="fi" horiz-adv-x="1167" 
d="M231 938h-178v78h178v117q0 88 23.5 155t60 106.5t88.5 64.5t102 33.5t107 8.5q111 0 202.5 -53t125.5 -170l-90 -25q-24 85 -90 124.5t-148 39.5q-286 0 -286 -284v-117h657v-1016h-94v938h-563v-938h-95v938z" />
    <glyph glyph-name="fl" unicode="fl" horiz-adv-x="1150" 
d="M231 938h-178v78h178v117q0 88 23.5 155t60 106.5t88.5 64.5t102 33.5t107 8.5q218 0 355 -67v-1434h-95v1380q-110 37 -260 37q-286 0 -286 -284v-117h305v-78h-305v-938h-95v938z" />
    <glyph glyph-name="f_f_i" unicode="ffi" horiz-adv-x="1855" 
d="M854 1405l-53 -68q-42 39 -99 59.5t-108 20.5q-268 0 -268 -284v-117h594v117q0 88 23.5 155t60 106.5t88 64.5t101.5 33.5t107 8.5q111 0 202.5 -53t125.5 -170l-90 -25q-24 85 -90 124.5t-148 39.5q-286 0 -286 -284v-117h657v-1016h-94v938h-563v-938h-94v938h-594
v-938h-95v938h-178v78h178v117q0 368 363 368q66 0 138.5 -25.5t121.5 -70.5z" />
    <glyph glyph-name="f_f_l" unicode="ffl" horiz-adv-x="1839" 
d="M1014 1016h305v-78h-305v-938h-94v938h-594v-938h-95v938h-178v78h178v117q0 368 363 368q66 0 138.5 -25.5t121.5 -70.5l-53 -68q-42 39 -99 59.5t-108 20.5q-268 0 -268 -284v-117h594v117q0 88 23.5 155t60 106.5t88 64.5t101.5 33.5t107 8.5q218 0 355 -67v-1434h-94
v1380q-110 37 -261 37q-286 0 -286 -284v-117z" />
    <glyph glyph-name="f_f_j" unicode="ffj" horiz-adv-x="1914" 
d="M854 1405l-53 -68q-42 39 -99 59.5t-108 20.5q-268 0 -268 -284v-117h594v117q0 88 23.5 155t60 106.5t88 64.5t101.5 33.5t107 8.5q111 0 202.5 -53t125.5 -170l-90 -25q-24 85 -90 124.5t-148 39.5q-286 0 -286 -284v-117h717v-1180q0 -91 -24 -156t-66 -98.5
t-88.5 -48t-102.5 -14.5q-124 0 -192 67t-68 174q0 17 2 23q4 31 12 47h88q-10 -23 -10 -61q0 -71 45 -118.5t121 -47.5q188 0 188 237v1098h-622v-938h-94v938h-594v-938h-95v938h-178v78h178v117q0 368 363 368q66 0 138.5 -25.5t121.5 -70.5z" />
    <glyph glyph-name="f_j" unicode="fj" horiz-adv-x="1226" 
d="M231 938h-178v78h178v117q0 88 23.5 155t60 106.5t88.5 64.5t102 33.5t107 8.5q111 0 202.5 -53t125.5 -170l-90 -25q-24 85 -90 124.5t-148 39.5q-286 0 -286 -284v-117h716v-1180q0 -74 -16 -130.5t-42.5 -91t-64 -56.5t-75.5 -30.5t-82 -8.5q-124 0 -192 67t-68 174
q0 17 2 23q4 31 12 47h88q-10 -23 -10 -61q0 -71 45 -118.5t121 -47.5q188 0 188 237v1098h-622v-938h-95v938z" />
    <glyph glyph-name=".notdef" horiz-adv-x="1378" 
d="M205 0v1436h969v-1436h-969zM582 526h123q0 40 4 55.5t20 26.5q7 4 30 18.5t39 24.5t41.5 29t43.5 36.5t39 42.5t34 50t22 57t9 66q0 120 -90.5 193t-224.5 73q-78 0 -138.5 -21.5t-94.5 -56t-51 -72.5t-17 -77q0 -53 18 -94h129q-16 36 -16 90q0 52 44 84t118 32
q87 0 135.5 -40.5t48.5 -110.5v-4q0 -68 -41 -115t-137 -106q-63 -36 -75.5 -64t-12.5 -117zM545 295q0 -43 28.5 -71.5t69.5 -28.5q43 0 72.5 28.5t29.5 71.5q0 41 -29.5 70.5t-72.5 29.5q-41 0 -69.5 -29.5t-28.5 -70.5z" />
    <glyph glyph-name=".null" horiz-adv-x="0" 
 />
    <glyph glyph-name="nonmarkingreturn" horiz-adv-x="682" 
 />
    <glyph glyph-name="NULL" horiz-adv-x="0" 
 />
    <glyph glyph-name="NULL" horiz-adv-x="0" 
 />
    <glyph glyph-name="CR" unicode="&#xd;" horiz-adv-x="512" 
 />
    <glyph glyph-name="space" unicode=" " horiz-adv-x="573" 
 />
    <glyph glyph-name="exclam" unicode="!" horiz-adv-x="450" 
d="M172 1434h107v-179l-23 -841h-61l-23 843v177zM145 59q0 35 22.5 58.5t57.5 23.5t59.5 -23.5t24.5 -58.5t-24.5 -58.5t-59.5 -23.5t-57.5 23.5t-22.5 58.5z" />
    <glyph glyph-name="quotedbl" unicode="&#x22;" horiz-adv-x="770" 
d="M248 1481l-6 -551h-78l-6 551h90zM612 1481l-6 -551h-78l-6 551h90z" />
    <glyph glyph-name="numbersign" unicode="#" horiz-adv-x="1509" 
d="M1133 1108h299l-21 -78h-299l-154 -584h299l-20 -77h-299l-98 -369h-86l100 369h-389l-98 -369h-84l98 369h-303l20 77h303l154 584h-301l20 78h301l89 326h84l-89 -326h390l88 326h84zM639 1030l-154 -584h389l154 584h-389z" />
    <glyph glyph-name="dollar" unicode="$" horiz-adv-x="1073" 
d="M575 -158h-71v195q-157 7 -268.5 87t-155.5 189l88 25q34 -82 121.5 -143.5t214.5 -71.5v571l-66 23q-74 26 -129 56t-88 60t-53.5 65t-27.5 67t-7 69q0 151 106 243.5t265 100.5v203h71v-201q140 -10 236.5 -83t126.5 -187l-82 -25q-25 89 -99.5 145t-181.5 62v-526
q50 -19 69.5 -24t29.5 -9q136 -41 220.5 -132.5t84.5 -213.5q0 -139 -112 -241t-292 -109v-195zM645 649l-70 23v-549q141 7 224.5 82.5t83.5 181.5q0 97 -71.5 165t-166.5 97zM229 1042q0 -162 217 -233q8 -5 29 -10t29 -8v503q-118 -8 -196.5 -75t-78.5 -177z" />
    <glyph glyph-name="percent" unicode="%" horiz-adv-x="1759" 
d="M78 1126q0 141 92 235.5t231 94.5t232.5 -94.5t93.5 -235.5q0 -136 -94 -231.5t-232 -95.5t-230.5 95.5t-92.5 231.5zM426 0l799 1434h92l-801 -1434h-90zM156 1126q0 -105 70.5 -178.5t174.5 -73.5q105 0 175.5 73.5t70.5 178.5q0 109 -70.5 182.5t-175.5 73.5
q-104 0 -174.5 -73.5t-70.5 -182.5zM1034 305q0 140 92.5 235t231.5 95t231 -95t92 -235q0 -138 -92.5 -233t-230.5 -95t-231 95t-93 233zM1112 305q0 -106 71 -180t175 -74q105 0 175.5 73.5t70.5 180.5q0 109 -70 181.5t-176 72.5q-105 0 -175.5 -73t-70.5 -181z" />
    <glyph glyph-name="ampersand" unicode="&#x26;" horiz-adv-x="1624" 
d="M973 311l-381 441q-62 -22 -118 -49t-110.5 -64.5t-93.5 -79.5t-63.5 -95t-24.5 -110q0 -88 54.5 -157t138.5 -103.5t180 -34.5q122 0 218 61t200 191zM1153 104l-125 144l-24 -35q-192 -236 -455 -236q-118 0 -221.5 42t-172.5 128.5t-69 200.5q0 69 27 132.5t69 111
t104 91.5t121 74.5t130 59.5q-109 102 -162 182.5t-53 171.5q0 61 23 111t58.5 81.5t81.5 53t89.5 30.5t84.5 9q152 0 245 -83t93 -195q0 -107 -95.5 -215.5t-229.5 -169.5l352 -404l219 291h105l-267 -356l144 -164q51 -51 92.5 -75t103.5 -24q95 0 146 41l37 -71
q-67 -54 -181 -54q-63 0 -114 18.5t-81 41.5t-75 67zM616 850q123 59 205 148.5t82 175.5q0 81 -67.5 140.5t-180.5 59.5q-39 0 -78.5 -11.5t-76 -35t-59.5 -65.5t-23 -97q0 -78 48 -147t150 -168z" />
    <glyph glyph-name="quotesingle" unicode="'" horiz-adv-x="405" 
d="M248 1481l-6 -551h-78l-6 551h90z" />
    <glyph glyph-name="parenleft" unicode="(" horiz-adv-x="571" 
d="M102 573q0 147 29 288t70 242.5t96.5 196t97.5 148t84 98.5l64 -41q-344 -420 -344 -934q0 -512 344 -931l-64 -39q-42 45 -84 98t-97.5 147.5t-96.5 196t-70 242.5t-29 288z" />
    <glyph glyph-name="parenright" unicode=")" horiz-adv-x="571" 
d="M469 573q0 -147 -29 -288t-70 -242.5t-96.5 -196t-97.5 -147.5t-84 -98l-63 39q40 46 78.5 98.5t89 144t87.5 188.5t63 230t26 270q0 139 -26 272.5t-63 231t-87.5 189t-89 144t-78.5 97.5l63 41q42 -45 84 -98.5t97.5 -148t96.5 -196t70 -242.5t29 -288z" />
    <glyph glyph-name="asterisk" unicode="*" horiz-adv-x="897" 
d="M449 1081l-177 -241l-65 47l188 229l-282 92l26 78l277 -108l-8 303h81l-8 -303l277 108l26 -78l-282 -90l192 -227l-63 -49z" />
    <glyph glyph-name="plus" unicode="+" horiz-adv-x="1105" 
d="M594 160h-84v411h-410v84h410v412h84v-412h412v-84h-412v-411z" />
    <glyph glyph-name="comma" unicode="," horiz-adv-x="495" 
d="M137 -250l-24 43q70 37 113.5 102t43.5 144q0 2 -4 22q-17 -10 -39 -10q-29 0 -47 20t-18 50q0 33 20.5 54.5t59.5 21.5q50 0 73 -45.5t23 -100.5q0 -30 -8 -65t-27.5 -79.5t-62.5 -86.5t-103 -70z" />
    <glyph glyph-name="hyphen" unicode="-" horiz-adv-x="915" 
d="M150 569v86h616v-86h-616z" />
    <glyph glyph-name="period" unicode="." horiz-adv-x="458" 
d="M147 59q0 35 23.5 58.5t58.5 23.5t58.5 -23.5t23.5 -58.5t-23.5 -58.5t-58.5 -23.5t-58.5 23.5t-23.5 58.5z" />
    <glyph glyph-name="slash" unicode="/" horiz-adv-x="1007" 
d="M848 1505h94l-784 -1591h-92z" />
    <glyph glyph-name="zero" unicode="0" horiz-adv-x="1445" 
d="M1327 719q0 -205 -71.5 -372.5t-211 -268.5t-321.5 -101q-138 0 -252.5 58.5t-190.5 159.5t-117.5 236t-41.5 288q0 154 41.5 288t117.5 234t190.5 157.5t252.5 57.5q110 0 206.5 -37t168.5 -104.5t124 -159t78.5 -202.5t26.5 -234zM1231 719q0 181 -60 328t-177 235
t-271 88q-153 0 -269.5 -88t-176.5 -235t-60 -328q0 -180 59.5 -328t176.5 -238t270 -90q154 0 271 90t177 238t60 328z" />
    <glyph glyph-name="one" unicode="1" horiz-adv-x="698" 
d="M66 1143l-23 84l434 207h51v-1434h-94v1313z" />
    <glyph glyph-name="two" unicode="2" horiz-adv-x="1214" 
d="M797 571l-559 -499q141 10 333 10h551v-82h-1005l-11 72q105 94 312 281.5t313 281.5q110 96 170 190t60 213q0 157 -105 244.5t-285 87.5q-92 0 -162 -21.5t-110.5 -59t-62 -78.5t-27.5 -89h-98q0 58 27 114.5t80 107t145.5 81.5t209.5 31q222 0 354 -109.5t132 -304.5
q0 -75 -19 -141t-58 -124.5t-81 -104.5t-104 -101z" />
    <glyph glyph-name="three" unicode="3" horiz-adv-x="1208" 
d="M539 63q220 0 341 109t121 272q0 161 -115 256t-286 95q-158 0 -231 -54l-47 64l569 545h-758v84h916v-58l-539 -510l2 -4q58 10 100 10q136 0 245 -49.5t175 -148t66 -230.5q0 -98 -36.5 -182.5t-105 -148t-176 -100t-241.5 -36.5q-144 0 -260.5 36t-184.5 98l58 63
q144 -111 387 -111z" />
    <glyph glyph-name="four" unicode="4" horiz-adv-x="1374" 
d="M184 500h699v768zM883 416h-832v61l869 957h57v-934h336v-84h-336v-416h-94v416z" />
    <glyph glyph-name="five" unicode="5" horiz-adv-x="1208" 
d="M121 111l57 65q60 -49 178 -81t226 -32q107 0 192 32t137.5 86.5t79.5 124.5t27 149q0 75 -25.5 142.5t-75 122.5t-131.5 87.5t-186 32.5q-96 0 -205.5 -31.5t-169.5 -75.5l-73 35l45 666h807v-84h-721l-37 -523q167 99 362 99q123 0 221.5 -39.5t159.5 -106.5t93 -150
t32 -175q0 -99 -34.5 -185t-99.5 -152t-167.5 -103.5t-230.5 -37.5q-132 0 -259 38.5t-202 95.5z" />
    <glyph glyph-name="six" unicode="6" horiz-adv-x="1267" 
d="M223 641h4q39 86 117 148t166 90t178 28q129 0 240.5 -56.5t181.5 -165.5t70 -249q0 -203 -142 -331t-360 -128q-173 0 -299.5 88t-191 245.5t-64.5 367.5q0 163 40 304.5t113.5 247t186.5 166t252 60.5q106 0 196.5 -32t139.5 -81q-34 -34 -66 -59q-43 38 -114.5 62
t-153.5 24q-154 0 -268 -94t-171 -250.5t-57 -353.5q0 -25 2 -31zM252 406q27 -139 142 -241t284 -102q171 0 288 104.5t117 270.5t-120 274.5t-281 108.5q-65 0 -131.5 -18t-126 -54t-103.5 -85t-63.5 -116.5t-5.5 -141.5z" />
    <glyph glyph-name="seven" unicode="7" horiz-adv-x="1069" 
d="M61 1350v84h988v-76l-762 -1358h-109l766 1350h-883z" />
    <glyph glyph-name="eight" unicode="8" horiz-adv-x="1345" 
d="M672 63q203 0 333 97t130 246q0 135 -122.5 222t-340.5 87q-222 0 -341.5 -88.5t-119.5 -225.5q0 -146 129.5 -242t331.5 -96zM672 -23q-244 0 -400.5 121t-156.5 303q0 126 82 222.5t233 138.5q-120 42 -185 127t-65 192q0 161 138 268t354 107q218 0 355.5 -106.5
t137.5 -266.5q0 -106 -67.5 -192.5t-188.5 -128.5q154 -41 238 -135.5t84 -220.5q0 -122 -71 -220t-199 -153.5t-289 -55.5zM672 1370q-176 0 -286 -81.5t-110 -207.5q0 -51 22.5 -101t64 -92.5t109.5 -68.5t151 -26h96q82 0 150 26t110.5 68.5t66 93t23.5 102.5
q0 124 -110 205.5t-287 81.5z" />
    <glyph glyph-name="nine" unicode="9" horiz-adv-x="1267" 
d="M1044 793h-4q-39 -86 -116.5 -148t-165.5 -90.5t-178 -28.5q-96 0 -185 34t-157 94t-109 149.5t-41 193.5q0 203 142 331t360 128q261 0 408 -190.5t147 -509.5q0 -163 -40 -304.5t-113.5 -247.5t-186.5 -166.5t-252 -60.5q-106 0 -196.5 32t-139.5 81q38 38 66 60
q43 -38 114.5 -62.5t153.5 -24.5q154 0 268 94.5t171 251t57 353.5q0 22 -3 31zM1016 1028q-27 140 -142 241t-284 101q-171 0 -288.5 -105t-117.5 -270q0 -166 120.5 -274.5t281.5 -108.5q64 0 131 18.5t126.5 55t103.5 85.5t63.5 116t5.5 141z" />
    <glyph glyph-name="colon" unicode=":" horiz-adv-x="462" 
d="M150 59q0 35 23 58.5t58 23.5t58.5 -23.5t23.5 -58.5t-23.5 -58.5t-58.5 -23.5t-58 23.5t-23 58.5zM150 956q0 35 23 58.5t58 23.5t58.5 -23.5t23.5 -58.5t-23.5 -58.5t-58.5 -23.5t-58 23.5t-23 58.5z" />
    <glyph glyph-name="semicolon" unicode=";" horiz-adv-x="520" 
d="M162 -250l-25 43q70 37 114 102t44 144q0 2 -4 22q-17 -10 -39 -10q-29 0 -47.5 20t-18.5 50q0 33 20.5 54.5t59.5 21.5q50 0 73 -45.5t23 -100.5q0 -30 -7.5 -64.5t-27 -79.5t-62.5 -87t-103 -70zM184 956q0 35 23.5 58.5t58.5 23.5t58.5 -23.5t23.5 -58.5t-23.5 -58.5
t-58.5 -23.5t-58.5 23.5t-23.5 58.5z" />
    <glyph glyph-name="less" unicode="&#x3c;" horiz-adv-x="1253" 
d="M96 504v98l1006 379v-88l-924 -340l924 -340v-88z" />
    <glyph glyph-name="equal" unicode="=" horiz-adv-x="1224" 
d="M1065 334h-905v84h905v-84zM1065 905h-905v84h905v-84z" />
    <glyph glyph-name="greater" unicode="&#x3e;" horiz-adv-x="1253" 
d="M1157 602v-98l-1005 -379v88l923 340l-923 340v88z" />
    <glyph glyph-name="question" unicode="?" horiz-adv-x="1048" 
d="M504 414h-90v92q0 60 21 93.5t100 80.5q41 25 63.5 40t62.5 43.5t63.5 50t53.5 54.5t46.5 63.5t28 69t11.5 78.5q0 130 -102.5 210.5t-257.5 80.5q-165 0 -248.5 -68.5t-83.5 -160.5q0 -23 6 -70h-88q-10 39 -10 78q0 52 23.5 103t71.5 98t134.5 76.5t198.5 29.5
q194 0 325.5 -104.5t131.5 -272.5q0 -39 -9 -77t-21.5 -68.5t-37 -63.5t-42.5 -55t-52.5 -51.5t-52 -44t-56.5 -40.5t-51 -33t-49 -30q-57 -35 -73.5 -71t-16.5 -92v-39zM377 59q0 35 22.5 58.5t57.5 23.5t59.5 -23.5t24.5 -58.5t-24.5 -58.5t-59.5 -23.5t-57.5 23.5
t-22.5 58.5z" />
    <glyph glyph-name="at" unicode="@" horiz-adv-x="2174" 
d="M1395 258q-54 -110 -150 -167.5t-221 -57.5q-198 0 -317 129.5t-119 320.5q0 124 51.5 225.5t152 163.5t232.5 62q125 0 219 -57.5t148 -167.5v198h86v-717q0 -88 45.5 -131t119.5 -43q150 0 240 136t90 411q0 182 -64.5 338t-179 267.5t-279.5 175t-359 63.5
q-192 0 -360 -71t-286.5 -194t-187 -294t-68.5 -365q0 -193 63 -361.5t175 -291.5t274.5 -193.5t352.5 -70.5q237 0 413 72q5 -12 19 -36t18 -32q-191 -80 -450 -80q-278 0 -495 129.5t-334.5 355t-117.5 508.5q0 211 74.5 396.5t204 318t313 209t392.5 76.5q213 0 393 -68
t305 -188.5t195.5 -291.5t70.5 -372q0 -162 -30.5 -282t-87 -191.5t-130 -106t-166.5 -34.5q-63 0 -108 16t-71 42t-41.5 68t-20 83.5t-4.5 99.5zM1389 483q0 162 -100 266.5t-259 104.5q-162 0 -258 -106.5t-96 -264.5q0 -157 96 -263.5t258 -106.5q159 0 259 104t100 266z
" />
    <glyph glyph-name="A" unicode="A" horiz-adv-x="1349" 
d="M297 406h754l-377 935zM1083 322h-819l-129 -322h-102l579 1434h123l582 -1434h-103z" />
    <glyph glyph-name="B" unicode="B" horiz-adv-x="1335" 
d="M1153 1081q0 -128 -75 -221t-228 -133q182 -29 280.5 -130t98.5 -245q0 -163 -125 -257.5t-324 -94.5h-557v1434h488q124 0 222 -37.5t159 -119t61 -196.5zM676 680h-357v-598h461q154 0 251 73.5t97 200.5q0 139 -118 231.5t-334 92.5zM319 762h308q213 0 320.5 90
t107.5 225q0 132 -99 202.5t-245 70.5h-392v-588z" />
    <glyph glyph-name="C" unicode="C" horiz-adv-x="1425" 
d="M106 717q0 150 53.5 284t150.5 235t245 160.5t326 59.5q144 0 255 -38.5t212 -110.5l-39 -78q-185 139 -428 139q-155 0 -283.5 -52t-213 -141.5t-131 -207.5t-46.5 -250t46.5 -250t131 -207.5t213 -141.5t283.5 -52q246 0 428 137l39 -78q-99 -73 -210 -110.5
t-257 -37.5q-178 0 -326 59.5t-245 161t-150.5 235.5t-53.5 284z" />
    <glyph glyph-name="D" unicode="D" horiz-adv-x="1480" 
d="M319 84h302q127 0 233.5 32.5t182 90t128 137t78 174t25.5 199.5t-25.5 199.5t-78 174t-128 137t-182 90t-233.5 32.5h-302v-1266zM621 0h-398v1434h398q183 0 327.5 -56t235 -154.5t137.5 -227.5t47 -279t-47 -279t-137.5 -227.5t-235 -154.5t-327.5 -56z" />
    <glyph glyph-name="E" unicode="E" horiz-adv-x="1200" 
d="M1090 82v-82h-867v1434h867v-84h-771v-607h674v-84h-674v-577h771z" />
    <glyph glyph-name="F" unicode="F" horiz-adv-x="1173" 
d="M319 0h-96v1434h864v-84h-768v-607h672v-84h-672v-659z" />
    <glyph glyph-name="G" unicode="G" horiz-adv-x="1515" 
d="M840 1368q-123 0 -238.5 -50.5t-202.5 -136t-139.5 -207.5t-52.5 -257q0 -130 48 -248.5t133 -207.5t211.5 -142t274.5 -53q257 0 422 129v393h-428v86h521v-516q-200 -181 -517 -181q-218 0 -394.5 101t-274 270t-97.5 369q0 204 103 375t271.5 267.5t359.5 96.5
q155 0 278 -29t232 -102l-41 -78q-111 75 -218 98t-251 23z" />
    <glyph glyph-name="H" unicode="H" horiz-adv-x="1466" 
d="M1147 639h-828v-639h-96v1434h96v-711h828v711h96v-1434h-96v639z" />
    <glyph glyph-name="I" unicode="I" horiz-adv-x="542" 
d="M319 1434v-1434h-96v1434h96z" />
    <glyph glyph-name="J" unicode="J" horiz-adv-x="1372" 
d="M1178 1434v-783q0 -328 -148.5 -501t-425.5 -173q-109 0 -198 27.5t-149.5 75t-102 112.5t-60 138.5t-18.5 154.5q0 89 30 150h99q-16 -32 -24.5 -75t-8.5 -71q0 -84 26 -158.5t76.5 -134.5t135.5 -95t194 -35q229 0 353 151.5t124 433.5v783h97z" />
    <glyph glyph-name="K" unicode="K" horiz-adv-x="1239" 
d="M319 694l609 740h112l-630 -772l237 -283q45 -52 66 -76t63.5 -68.5t70.5 -67.5t65.5 -49.5t72 -38t68.5 -11.5t81 12t83 41q17 -29 45 -74q-44 -34 -108.5 -52t-115.5 -18q-40 0 -82 13.5t-76 31t-75.5 52t-67.5 58.5t-66 69.5t-56.5 66.5t-53.5 66l-242 293v-627h-96
v1434h96v-740z" />
    <glyph glyph-name="L" unicode="L" horiz-adv-x="1036" 
d="M1012 82v-82h-789v1434h96v-1352h693z" />
    <glyph glyph-name="M" unicode="M" horiz-adv-x="1998" 
d="M952 18l-575 1280l-119 -1298h-98l133 1434h123l583 -1297l582 1297h125l131 -1434h-98l-119 1298l-578 -1280h-90z" />
    <glyph glyph-name="N" unicode="N" horiz-adv-x="1550" 
d="M1249 0l-930 1264v-1264h-96v1434h80l928 -1262v1262h96v-1434h-78z" />
    <glyph glyph-name="O" unicode="O" horiz-adv-x="1699" 
d="M106 717q0 201 100 371t271 269t373 99q151 0 288.5 -58.5t237 -157.5t158.5 -236t59 -287t-59 -287t-158.5 -236.5t-237 -158t-288.5 -58.5t-289 58.5t-237.5 158t-158.5 236.5t-59 287zM207 717q0 -177 86.5 -327t234.5 -237t322 -87t322 87t234.5 237t86.5 327
t-86.5 327t-234.5 237t-322 87t-322 -87t-234.5 -237t-86.5 -327z" />
    <glyph glyph-name="P" unicode="P" horiz-adv-x="1257" 
d="M319 0h-96v1434h543q185 0 296.5 -125.5t111.5 -304.5q0 -178 -111 -299t-297 -121h-447v-584zM319 666h435q146 0 232.5 96.5t86.5 241.5q0 147 -86 246.5t-233 99.5h-435v-684z" />
    <glyph glyph-name="Q" unicode="Q" horiz-adv-x="1699" 
d="M207 717q0 -132 51.5 -253t138 -208t205 -138.5t248.5 -51.5q174 0 322.5 87t235.5 237t87 327t-87 327t-235.5 237t-322.5 87q-130 0 -248.5 -51.5t-205 -138.5t-138 -208t-51.5 -253zM922 -16q14 -42 29 -76t43 -76.5t61.5 -70.5t85 -48t112.5 -20q93 0 181 47l36 -74
q-95 -55 -215 -55q-103 0 -181 34t-127 102t-67.5 105t-44.5 108q-6 14 -8 20q-197 5 -362.5 104.5t-262 267.5t-96.5 365q0 201 100 371t271 269t373 99q152 0 290 -58.5t237.5 -157.5t158.5 -236t59 -287q0 -143 -52.5 -273t-142.5 -226.5t-214.5 -159t-263.5 -74.5z" />
    <glyph glyph-name="R" unicode="R" horiz-adv-x="1378" 
d="M317 0h-96v1434h574q185 0 296 -125.5t111 -304.5q0 -171 -98 -288.5t-270 -129.5q3 -57 16.5 -122t42 -137t67 -129t97.5 -94.5t129 -37.5q87 0 149 45q6 -10 12.5 -21.5t14 -25.5t12.5 -23q-39 -31 -92 -47.5t-100 -16.5q-93 0 -169.5 45t-124 112.5t-81.5 153
t-48.5 158.5t-17.5 138h-424v-584zM317 666h465q146 0 233 96.5t87 241.5q0 147 -86.5 246.5t-233.5 99.5h-465v-684z" />
    <glyph glyph-name="S" unicode="S" horiz-adv-x="1169" 
d="M590 1368q-145 0 -244.5 -77t-99.5 -206q0 -37 9 -68.5t33 -67t74 -67t123 -55.5l250 -82q142 -44 239 -145t97 -233q0 -166 -132.5 -278t-348.5 -112q-189 0 -323.5 88t-182.5 214l96 26q36 -96 144.5 -167.5t263.5 -71.5q176 0 279.5 85.5t103.5 210.5q0 110 -78 184.5
t-188 108.5l-250 82q-310 97 -310 344q0 114 62 201t162 130.5t221 43.5q169 0 285.5 -81t152.5 -214l-90 -28q-26 107 -120 171t-228 64z" />
    <glyph glyph-name="T" unicode="T" horiz-adv-x="1220" 
d="M31 1434h1159v-84h-531v-1350h-96v1350h-532v84z" />
    <glyph glyph-name="U" unicode="U" horiz-adv-x="1499" 
d="M1202 1434h96v-918q0 -130 -43.5 -234t-119 -169.5t-173.5 -100.5t-210 -35q-113 0 -212 35t-174.5 100.5t-119 169.5t-43.5 234v918h96v-918q0 -110 36 -197.5t99 -141.5t144 -82.5t174 -28.5q94 0 174.5 28t142.5 82.5t97.5 142t35.5 197.5v918z" />
    <glyph glyph-name="V" unicode="V" horiz-adv-x="1273" 
d="M688 0h-102l-525 1434h103l473 -1305l473 1305h102z" />
    <glyph glyph-name="W" unicode="W" horiz-adv-x="2033" 
d="M1061 1386l389 -1239l416 1287h98l-463 -1434h-96l-389 1235l-387 -1235h-99l-460 1434h98l414 -1287l389 1239h90z" />
    <glyph glyph-name="X" unicode="X" horiz-adv-x="1341" 
d="M670 662l-537 -662h-117l594 741l-555 693h115l500 -617l497 617h115l-553 -693l594 -741h-117z" />
    <glyph glyph-name="Y" unicode="Y" horiz-adv-x="1284" 
d="M594 0v596l-537 838h113l471 -748l475 748h111l-537 -838v-596h-96z" />
    <glyph glyph-name="Z" unicode="Z" horiz-adv-x="1263" 
d="M1206 82v-82h-1153v78l977 1272h-924v84h1051v-80l-981 -1272h1030z" />
    <glyph glyph-name="bracketleft" unicode="[" horiz-adv-x="557" 
d="M162 -383v1899h352v-78h-262v-1743h262v-78h-352z" />
    <glyph glyph-name="backslash" unicode="\" horiz-adv-x="1007" 
d="M942 -86h-92l-784 1591h94z" />
    <glyph glyph-name="bracketright" unicode="]" horiz-adv-x="557" 
d="M395 1516v-1899h-352v78h262v1743h-262v78h352z" />
    <glyph glyph-name="asciicircum" unicode="^" horiz-adv-x="978" 
d="M862 821h-86l-287 574l-286 -574h-86l332 660h81z" />
    <glyph glyph-name="underscore" unicode="_" horiz-adv-x="1433" 
d="M0 -272v86h1434v-86h-1434z" />
    <glyph glyph-name="grave" unicode="`" horiz-adv-x="860" 
d="M266 1481h111l188 -307h-80z" />
    <glyph glyph-name="a" unicode="a" horiz-adv-x="1327" 
d="M1057 0v256q-57 -127 -174 -203t-267 -76q-152 0 -272 71t-185 192.5t-65 269.5q0 145 63 264.5t183.5 191.5t277.5 72q151 0 267.5 -75t171.5 -201v254h94v-1016h-94zM621 61q189 0 313.5 129.5t124.5 319.5q0 188 -123 316t-318 128q-193 0 -310.5 -127t-117.5 -317
q0 -192 120 -320.5t311 -128.5z" />
    <glyph glyph-name="b" unicode="b" horiz-adv-x="1327" 
d="M270 256v-256h-94v1481h94v-719q55 126 171.5 201t267.5 75q157 0 277.5 -72t183.5 -191.5t63 -264.5q0 -148 -65 -269.5t-185 -192.5t-272 -71q-150 0 -267 76t-174 203zM707 61q191 0 310.5 128.5t119.5 320.5q0 190 -117.5 317t-310.5 127q-195 0 -318 -128t-123 -316
q0 -190 125 -319.5t314 -129.5z" />
    <glyph glyph-name="c" unicode="c" horiz-adv-x="1095" 
d="M92 504q0 112 38.5 209t110.5 169.5t182 114t245 41.5q194 0 352 -114l-47 -68q-130 98 -303 98q-219 0 -348 -125.5t-134 -320.5q5 -195 134.5 -321t347.5 -126q165 0 303 99l47 -68q-159 -115 -352 -115q-134 0 -243 41t-180.5 112.5t-111 167t-41.5 206.5z" />
    <glyph glyph-name="d" unicode="d" horiz-adv-x="1327" 
d="M1057 0v256q-57 -127 -174 -203t-267 -76q-152 0 -272 71t-185 192.5t-65 269.5q0 145 63 264.5t183.5 191.5t277.5 72q151 0 267.5 -75t171.5 -201v719h94v-1481h-94zM621 61q189 0 313.5 129.5t124.5 319.5q0 188 -123 316t-318 128q-193 0 -310.5 -127t-117.5 -317
q0 -192 120 -320.5t311 -128.5z" />
    <glyph glyph-name="e" unicode="e" horiz-adv-x="1214" 
d="M1024 201q9 -12 28.5 -29.5t28.5 -28.5q-158 -166 -419 -166q-127 0 -234.5 42t-180.5 114t-114 168t-41 203q0 146 70 268.5t196 194t281 71.5q77 0 147.5 -18t134 -57.5t110.5 -97t75.5 -142t30.5 -186.5h-947q-2 -14 -2 -39q0 -186 131.5 -311.5t342.5 -125.5
q215 0 362 140zM639 954q-163 0 -282 -93.5t-156 -248.5h837q-12 88 -50 155.5t-94 107.5t-120 59.5t-135 19.5z" />
    <glyph glyph-name="f" unicode="f" horiz-adv-x="688" 
d="M727 1255q0 75 -50.5 119.5t-139.5 44.5q-40 0 -75.5 -15t-67 -47.5t-50 -93.5t-18.5 -145v-102h305v-78h-305v-938h-95v938h-178v78h178v94q0 111 26.5 191t72 122t96.5 61t111 19q132 0 205 -67t73 -174q0 -11 -2 -17q0 -18 -8 -37h-86q8 16 8 47z" />
    <glyph glyph-name="g" unicode="g" horiz-adv-x="1325" 
d="M1057 23v233q-57 -127 -174 -203t-267 -76q-152 0 -272 71t-185 192.5t-65 269.5q0 145 63 264.5t183.5 191.5t277.5 72q151 0 267.5 -75t171.5 -201v254h94v-1000q0 -229 -145 -363t-375 -134q-250 0 -432 131q8 13 41 78q160 -125 391 -125q191 0 308.5 115t117.5 305z
M621 61q189 0 313.5 129.5t124.5 319.5q0 188 -123 316t-318 128q-193 0 -310.5 -127t-117.5 -317q0 -192 120 -320.5t311 -128.5z" />
    <glyph glyph-name="h" unicode="h" horiz-adv-x="1226" 
d="M975 0v588q0 83 -20.5 148.5t-53 105.5t-77 66t-88.5 36t-91 10q-36 0 -78 -9.5t-96 -38.5t-96.5 -74.5t-72.5 -125.5t-32 -182v-524h-94v1481h94v-701q34 90 101 150.5t135.5 84t138.5 23.5q67 0 125.5 -13t114.5 -45.5t96 -82.5t64 -129t24 -180v-588h-94z" />
    <glyph glyph-name="i" unicode="i" horiz-adv-x="462" 
d="M279 1016v-1016h-95v1016h95zM156 1374q0 37 20.5 59.5t52.5 22.5t53 -22.5t21 -59.5t-21 -59.5t-53 -22.5t-52.5 22.5t-20.5 59.5z" />
    <glyph glyph-name="j" unicode="j" horiz-adv-x="536" 
d="M258 -160v1176h94v-1180q0 -74 -16 -130.5t-42.5 -91t-64 -56.5t-75.5 -30.5t-82 -8.5q-124 0 -192 67t-68 174q0 17 2 23q4 31 12 47h88q-10 -23 -10 -61q0 -71 45 -118.5t121 -47.5q188 0 188 237zM231 1374q0 37 21 59.5t53 22.5t53 -22.5t21 -59.5t-21 -59.5
t-53 -22.5t-53 22.5t-21 59.5z" />
    <glyph glyph-name="k" unicode="k" horiz-adv-x="1038" 
d="M268 563l463 453h117l-477 -475l262 -308q39 -45 60 -67t54 -50.5t64.5 -40.5t65.5 -12q77 0 129 41l36 -69q-68 -58 -172 -58q-43 0 -86 16t-71.5 34.5t-65 54t-50 51.5t-42.5 51l-287 342v-526h-94v1481h94v-918z" />
    <glyph glyph-name="l" unicode="l" horiz-adv-x="462" 
d="M279 1481v-1481h-95v1481h95z" />
    <glyph glyph-name="m" unicode="m" horiz-adv-x="1955" 
d="M940 0v584q0 104 -27 179t-75 115t-102.5 58t-119.5 18q-40 0 -83 -12t-90 -43t-84 -77.5t-62 -123.5t-27 -174v-524h-94v1016h94v-228q34 86 97.5 144.5t129 82t130.5 23.5q58 0 111 -12t107.5 -40.5t97.5 -85t67 -136.5q27 76 72.5 132t98.5 85.5t103.5 43t99.5 13.5
q69 0 127.5 -13t112.5 -45.5t91.5 -83t60 -130t22.5 -182.5v-584h-94v584q0 104 -27 179t-75 115t-102.5 58t-119.5 18q-39 0 -80.5 -11t-89 -41.5t-84.5 -76t-63 -122t-29 -173.5v-530h-94z" />
    <glyph glyph-name="n" unicode="n" horiz-adv-x="1224" 
d="M973 0v584q0 104 -28.5 179t-78.5 115t-106 58t-121 18q-40 0 -84.5 -11.5t-95.5 -43t-91.5 -78t-68 -124t-29.5 -173.5v-524h-94v1016h94v-236q26 68 70.5 120t97 81t104 43t101.5 14q67 0 126 -13.5t115 -46.5t95.5 -83.5t63.5 -130t24 -180.5v-584h-94z" />
    <glyph glyph-name="o" unicode="o" horiz-adv-x="1253" 
d="M92 506q0 144 72 266.5t195 194t266 71.5q145 0 268.5 -72t195.5 -194.5t72 -265.5q0 -142 -72 -264t-195.5 -193.5t-268.5 -71.5q-107 0 -205.5 41.5t-170.5 112t-114.5 169t-42.5 206.5zM188 506q0 -184 129 -314.5t308 -130.5q182 0 311 130.5t129 314.5
q0 185 -129.5 316.5t-310.5 131.5q-179 0 -308 -132t-129 -316z" />
    <glyph glyph-name="p" unicode="p" horiz-adv-x="1327" 
d="M270 1016v-256q56 127 173.5 202.5t267.5 75.5q152 0 272 -71t185 -192t65 -269q0 -145 -63 -265t-183.5 -192t-277.5 -72q-151 0 -267.5 75.5t-171.5 201.5v-713h-94v1475h94zM707 954q-189 0 -314 -129t-125 -319q0 -123 54.5 -224t156 -161t230.5 -60
q193 0 310.5 127.5t117.5 317.5q0 192 -119.5 320t-310.5 128z" />
    <glyph glyph-name="q" unicode="q" horiz-adv-x="1325" 
d="M1057 760v256h94v-1475h-94v713q-55 -126 -171.5 -201.5t-267.5 -75.5q-157 0 -277.5 72t-183.5 192t-63 265q0 148 65 269t185 192t272 71q150 0 267.5 -75.5t173.5 -202.5zM621 954q-191 0 -311 -128t-120 -320q0 -190 117.5 -317.5t310.5 -127.5q129 0 230.5 60
t156 161t54.5 224q0 190 -124.5 319t-313.5 129z" />
    <glyph glyph-name="r" unicode="r" horiz-adv-x="688" 
d="M270 1016v-268q79 290 336 290q43 0 74 -8v-94q-35 12 -78 12q-84 0 -147.5 -41.5t-102.5 -117.5t-59.5 -175.5t-22.5 -222.5v-391h-94v1016h94z" />
    <glyph glyph-name="s" unicode="s" horiz-adv-x="858" 
d="M82 188l88 25q29 -71 98.5 -108t165.5 -37q100 0 171 52.5t71 139.5q0 129 -164 184l-152 48q-241 67 -241 266q0 111 85.5 195.5t233.5 84.5q96 0 177.5 -50t115.5 -142l-86 -25q-28 65 -84 96t-123 31q-103 0 -163 -57t-60 -133q0 -40 14 -70.5t40.5 -51t52.5 -33
t63 -25.5l154 -48q119 -37 176 -108t57 -162q0 -126 -99.5 -204.5t-238.5 -78.5q-125 0 -219.5 56t-132.5 155z" />
    <glyph glyph-name="t" unicode="t" horiz-adv-x="782" 
d="M307 938v-631q0 -246 187 -246q78 0 127 46t49 118q0 37 -11 62h89q10 -27 10 -47q2 -6 2 -23q0 -106 -71 -173t-195 -67q-281 0 -281 334v627h-182v78h182l23 327h71v-327h336v-78h-336z" />
    <glyph glyph-name="u" unicode="u" horiz-adv-x="1226" 
d="M252 1016v-584q0 -84 19.5 -149.5t51 -106.5t76 -67.5t90.5 -37t97 -10.5q40 0 84.5 12t96 43t92 77.5t68 124.5t29.5 174v524h95v-1016h-95v233q-34 -89 -101 -149t-135.5 -83.5t-137.5 -23.5q-67 0 -126 13.5t-115 46.5t-95.5 84t-63.5 130.5t-24 180.5v584h94z" />
    <glyph glyph-name="v" unicode="v" horiz-adv-x="1040" 
d="M983 1016l-412 -1016h-102l-412 1016h101l362 -910l363 910h100z" />
    <glyph glyph-name="w" unicode="w" horiz-adv-x="1697" 
d="M508 119l297 858h88l295 -858l352 897h98l-401 -1016h-92l-297 846l-295 -846h-92l-402 1016h99z" />
    <glyph glyph-name="x" unicode="x" horiz-adv-x="1095" 
d="M958 0l-409 481l-412 -481h-117l465 539l-409 477h114l359 -418l358 418h113l-410 -477l465 -539h-117z" />
    <glyph glyph-name="y" unicode="y" horiz-adv-x="1083" 
d="M547 94l375 922h108l-618 -1475h-99l181 443l-443 1032h107z" />
    <glyph glyph-name="z" unicode="z" horiz-adv-x="1110" 
d="M1049 0h-994v72l817 864h-761v80h890v-72l-819 -864h867v-80z" />
    <glyph glyph-name="braceleft" unicode="{" horiz-adv-x="557" 
d="M260 565q56 -29 80.5 -61t24.5 -94q0 -21 -3 -43.5t-11.5 -53t-14.5 -50.5t-21 -64t-22 -66q-64 -186 -64 -276q0 -87 43.5 -129.5t116.5 -42.5q43 0 84 8v-72q-47 -12 -90 -12q-104 0 -176 59t-72 174q0 122 78 334q2 6 11 32.5t12.5 37.5t11.5 35t11.5 39t8 35.5
t6.5 37t2 31.5q0 28 -5.5 44.5t-22 26t-29.5 12.5t-48 8.5t-56 10.5v78q20 4 48 9t41.5 7.5t30 8.5t24 15t12.5 24.5t5 38.5q0 17 -3.5 39.5t-7 38.5t-12.5 46t-12.5 40.5t-15 44.5t-12.5 38q-78 212 -78 334q0 116 72 175t176 59q40 0 90 -13v-71q-41 8 -84 8
q-73 0 -116.5 -42.5t-43.5 -129.5q0 -91 64 -277q8 -23 22 -66t20.5 -63.5t15 -50.5t11.5 -52.5t3 -43.5q0 -62 -24.5 -94.5t-80.5 -61.5z" />
    <glyph glyph-name="bar" unicode="|" horiz-adv-x="407" 
d="M162 -459v2026h84v-2026h-84z" />
    <glyph glyph-name="braceright" unicode="}" horiz-adv-x="557" 
d="M297 565q-56 29 -80 61.5t-24 94.5q0 21 3 43t11.5 53t14 49.5t21 64.5t21.5 66q64 186 64 277q0 87 -43.5 129.5t-116.5 42.5q-43 0 -84 -8v71q50 13 90 13q104 0 176 -59t72 -175q0 -122 -78 -334q-1 -4 -12.5 -38t-15 -44.5t-12.5 -40.5t-12.5 -46t-7 -38.5
t-3.5 -39.5q0 -23 5 -38.5t12.5 -24.5t24 -15t30 -8.5t41.5 -7.5t48 -9v-78q-21 -5 -56 -10.5t-48 -8.5t-29.5 -12.5t-22 -26t-5.5 -44.5q0 -15 2 -31.5t6.5 -37t8 -35.5t11.5 -39t11.5 -35t12.5 -37.5t11 -32.5q78 -212 78 -334q0 -115 -72 -174t-176 -59q-44 0 -90 12v72
q41 -8 84 -8q73 0 116.5 42.5t43.5 129.5q0 90 -64 276q-6 18 -21.5 65.5t-21 65t-14 49.5t-11.5 54t-3 43q0 62 24 94t80 61z" />
    <glyph glyph-name="asciitilde" unicode="~" horiz-adv-x="1308" 
d="M1092 721l59 -51q-40 -82 -108.5 -130t-157.5 -48q-60 0 -127.5 33t-118 72t-115 72t-118.5 33q-69 0 -119.5 -39.5t-69.5 -105.5l-59 45q25 84 87.5 136.5t160.5 52.5q49 0 102.5 -21.5t99.5 -52.5t91 -62.5t93 -53t89 -21.5q139 0 211 141z" />
    <glyph glyph-name="uni00A0" unicode="&#xa0;" horiz-adv-x="573" 
 />
    <glyph glyph-name="exclamdown" unicode="&#xa1;" horiz-adv-x="423" 
d="M264 -428h-106v176l22 844h62l22 -842v-178zM131 946q0 35 22.5 58.5t57.5 23.5t59.5 -23.5t24.5 -58.5t-24.5 -58.5t-59.5 -23.5t-57.5 23.5t-22.5 58.5z" />
    <glyph glyph-name="cent" unicode="&#xa2;" horiz-adv-x="1153" 
d="M109 504q0 112 38.5 209t111 169.5t184 114t249.5 41.5l37 193h74l-39 -199q159 -28 272 -108l-47 -68q-109 78 -239 94l-168 -880q50 -9 104 -9q165 0 303 99l47 -68q-159 -115 -352 -115q-48 0 -119 11l-39 -209h-75l43 223q-180 48 -280 183.5t-105 318.5zM205 508
q5 -151 84.5 -263t220.5 -159l166 868q-214 -4 -340 -129.5t-131 -316.5z" />
    <glyph glyph-name="sterling" unicode="&#xa3;" horiz-adv-x="1263" 
d="M1165 0h-1085v82q52 0 100.5 9.5t95.5 33t82 59t56.5 92t21.5 127.5q0 75 -18 152h-273v68h252l-37 104q-15 42 -38 102.5t-31.5 85t-19 59t-14 58t-3.5 49.5q0 169 130.5 272t324.5 103q102 0 182 -28.5t125.5 -74.5t68.5 -98t23 -106h-98q0 87 -76.5 153t-220.5 66
q-159 0 -259 -77.5t-100 -209.5q0 -47 16 -98.5t55.5 -155.5t70.5 -204h399v-68h-381q21 -76 21 -152q0 -227 -189 -321v-6q47 6 139 6h680v-82z" />
    <glyph glyph-name="currency" unicode="&#xa4;" horiz-adv-x="1050" 
d="M526 385q114 0 193.5 81t79.5 198t-79.5 197.5t-193.5 80.5q-111 0 -190.5 -81t-79.5 -197t79.5 -197.5t190.5 -81.5zM526 309q-115 0 -217 76l-100 -104l-62 59l101 104q-76 102 -76 220q0 112 70 208l-95 101l62 59l92 -96q101 82 225 82q127 0 228 -82l92 96l59 -59
l-94 -101q70 -91 70 -208q0 -125 -74 -220l98 -104l-59 -59l-103 104q-95 -76 -217 -76z" />
    <glyph glyph-name="yen" unicode="&#xa5;" horiz-adv-x="1318" 
d="M1114 289h-405v-289h-97v289h-403v84h403v162h-403v83h389l-522 816h112l471 -748l476 748h110l-522 -816h391v-83h-405v-162h405v-84z" />
    <glyph glyph-name="brokenbar" unicode="&#xa6;" horiz-adv-x="432" 
d="M174 -459v850h84v-850h-84zM174 717v852h84v-852h-84z" />
    <glyph glyph-name="section" unicode="&#xa7;" horiz-adv-x="1167" 
d="M1044 -66q0 -137 -130 -218t-328 -81q-289 13 -457 111l45 70q141 -82 414 -95q162 0 261 55.5t99 157.5q0 63 -67.5 127t-218.5 117l-238 80q-132 48 -206.5 130.5t-74.5 184.5q0 95 70.5 171.5t187.5 119.5q-278 122 -278 295q0 137 130 217t327 80q293 -12 458 -108
l-45 -70q-139 81 -415 94q-160 0 -259.5 -56t-99.5 -157q0 -63 68.5 -128t218.5 -118l237 -79q132 -48 206.5 -130t74.5 -184q0 -96 -71 -174.5t-189 -120.5q280 -123 280 -291zM240 573q0 -73 58 -136.5t157 -100.5l200 -70q122 24 197.5 99t75.5 155q0 73 -58 137t-157 99
l-201 69q-124 -25 -198 -97.5t-74 -154.5z" />
    <glyph glyph-name="dieresis" unicode="&#xa8;" horiz-adv-x="1110" 
d="M266 1319q0 32 21.5 55t52.5 23q32 0 54 -23t22 -55q0 -31 -22 -52.5t-54 -21.5q-31 0 -52.5 21.5t-21.5 52.5zM694 1319q0 32 21.5 55t52.5 23q32 0 54 -23t22 -55q0 -31 -22 -52.5t-54 -21.5q-31 0 -52.5 21.5t-21.5 52.5z" />
    <glyph glyph-name="copyright" unicode="&#xa9;" horiz-adv-x="1685" 
d="M115 717q0 151 56.5 288t153 236t231.5 157t286 58q121 0 233 -37t201 -105.5t156 -159t103 -203.5t36 -234q0 -202 -96 -372t-264 -269t-369 -99t-368.5 99t-263 269t-95.5 372zM186 717q0 -182 86.5 -336.5t237.5 -245t332 -90.5t332.5 90.5t238 245t86.5 336.5
t-86.5 336.5t-238 245t-332.5 90.5t-332 -90.5t-237.5 -245t-86.5 -336.5zM868 401q116 0 211 72l33 -59q-114 -82 -244 -82q-181 0 -290 108t-109 267t109 267.5t290 108.5q130 0 244 -82l-33 -55q-95 68 -211 68q-150 0 -235.5 -89.5t-85.5 -215.5t86 -217t235 -91z" />
    <glyph glyph-name="ordfeminine" unicode="&#xaa;" horiz-adv-x="1048" 
d="M160 1104q0 150 92.5 250t247.5 100q93 0 165.5 -42t114.5 -118v144h78v-672h-78v143q-42 -73 -116 -115t-164 -42q-152 0 -246 100t-94 252zM240 1104q0 -121 73 -201t195 -80q118 0 195 78.5t77 200.5q0 120 -76.5 200t-199.5 80t-193.5 -79.5t-70.5 -198.5zM190 494
v67h660v-67h-660z" />
    <glyph glyph-name="guillemotleft" unicode="&#xab;" horiz-adv-x="1058" 
d="M104 600l355 410l61 -47l-315 -363l315 -362l-61 -50zM514 600l354 410l62 -47l-316 -363l316 -362l-62 -50z" />
    <glyph glyph-name="logicalnot" unicode="&#xac;" horiz-adv-x="1269" 
d="M160 819v88h944l-2 -469h-84v381h-858z" />
    <glyph glyph-name="uni00AD" unicode="&#xad;" horiz-adv-x="1179" 
d="M168 672v88h838v-88h-838z" />
    <glyph glyph-name="registered" unicode="&#xae;" horiz-adv-x="1685" 
d="M115 717q0 201 95.5 371t263 269t368.5 99t369 -99t264 -269t96 -371q0 -202 -96 -372t-264 -269t-369 -99t-368.5 99t-263 269t-95.5 372zM186 717q0 -184 86 -338.5t237 -244t333 -89.5q136 0 258 53t209.5 143t138.5 214t51 262q0 183 -86.5 336.5t-238 243
t-332.5 89.5q-182 0 -333 -89.5t-237 -243t-86 -336.5zM1018 354l-170 289h-168v-289h-72v727h277q99 0 155 -63.5t56 -159.5q0 -81 -43.5 -137.5t-122.5 -73.5l178 -293h-90zM680 707h199q66 0 104.5 43t38.5 108q0 68 -38.5 114t-104.5 46h-199v-311z" />
    <glyph glyph-name="macron" unicode="&#xaf;" horiz-adv-x="1030" 
d="M266 1374h498v-78h-498v78z" />
    <glyph glyph-name="degree" unicode="&#xb0;" horiz-adv-x="849" 
d="M104 1155q0 139 92.5 232.5t227.5 93.5q136 0 228.5 -93.5t92.5 -232.5q0 -134 -93 -227.5t-228 -93.5t-227.5 93.5t-92.5 227.5zM184 1155q0 -104 69 -176t171 -72q103 0 172.5 72t69.5 176q0 106 -69 179t-173 73q-102 0 -171 -73t-69 -179z" />
    <glyph glyph-name="plusminus" unicode="&#xb1;" horiz-adv-x="1273" 
d="M678 467h-84v346h-410v84h410v344h84v-344h412v-84h-412v-346zM1090 223h-906v82h906v-82z" />
    <glyph glyph-name="twosuperior" unicode="&#xb2;" horiz-adv-x="657" 
d="M434 1182l-239 -203q17 0 47 1t45 1h311v-70h-522q-4 32 -4 54l311 266q106 95 106 190q0 71 -46.5 108.5t-129.5 37.5q-79 0 -118.5 -35.5t-44.5 -85.5h-80q5 76 67 133t178 57q115 0 182.5 -59t67.5 -158q0 -122 -131 -237z" />
    <glyph glyph-name="threesuperior" unicode="&#xb3;" horiz-adv-x="653" 
d="M59 971l45 53q35 -29 87 -46t104 -17q100 0 155.5 48t55.5 121q0 76 -53.5 121t-133.5 45q-69 0 -114 -28l-31 49l268 248h-360v63h477v-39l-248 -235h15q112 0 184 -61.5t72 -164.5t-75.5 -169t-211.5 -66q-146 0 -236 78z" />
    <glyph glyph-name="acute" unicode="&#xb4;" horiz-adv-x="860" 
d="M455 1481h110l-221 -307h-78z" />
    <glyph glyph-name="mu" unicode="&#xb5;" horiz-adv-x="1208" 
d="M252 1016v-584q0 -84 19.5 -149.5t51 -106.5t76 -67.5t90.5 -37t97 -10.5q40 0 84.5 12t96 43t92 77.5t68 124.5t29.5 174v524h95v-1016h-95v233q-34 -89 -101 -149t-135.5 -83.5t-137.5 -23.5q-221 0 -330 136v-404h-94v1307h94z" />
    <glyph glyph-name="paragraph" unicode="&#xb6;" horiz-adv-x="1224" 
d="M381 1448h309v-10q-43 -31 -63.5 -72.5t-20.5 -110.5v-1542h-82v1118h-143q-129 0 -218 90.5t-89 219.5q0 127 89.5 217t217.5 90zM825 1235v-1522h-82v1520q0 111 47.5 172t159.5 61q97 0 151 -49t54 -125q0 -16 -2 -22q0 -26 -8 -47h-78q6 23 6 63q0 48 -32 76.5
t-91 28.5q-125 0 -125 -156z" />
    <glyph glyph-name="periodcentered" unicode="&#xb7;" horiz-adv-x="462" 
d="M150 553q0 36 22 59t57 23t59.5 -23.5t24.5 -58.5t-24.5 -58.5t-59.5 -23.5t-57 23t-22 59z" />
    <glyph glyph-name="cedilla" unicode="&#xb8;" horiz-adv-x="933" 
d="M514 4v16h64q57 -35 92.5 -82.5t46 -84t10.5 -72.5q0 -112 -77.5 -175t-178.5 -63t-173 62t-93 157l57 31q18 -75 75.5 -124.5t131.5 -49.5q72 0 127 47t55 127q0 52 -32 109t-105 102z" />
    <glyph glyph-name="onesuperior" unicode="&#xb9;" horiz-adv-x="395" 
d="M47 1458l-16 64l223 106h43v-717h-78v625z" />
    <glyph glyph-name="ordmasculine" unicode="&#xba;" horiz-adv-x="1028" 
d="M160 1100q0 145 103 248.5t249 103.5t250 -105t104 -247q0 -146 -103 -248t-251 -102q-147 0 -249.5 101.5t-102.5 248.5zM238 1100q0 -116 80.5 -197.5t193.5 -81.5q112 0 194 81.5t82 197.5q0 115 -82.5 197.5t-193.5 82.5q-113 0 -193.5 -82.5t-80.5 -197.5zM184 494
v67h660v-67h-660z" />
    <glyph glyph-name="guillemotright" unicode="&#xbb;" horiz-adv-x="1058" 
d="M600 1010l354 -410l-354 -412l-61 50l315 362l-315 363zM190 1010l355 -410l-355 -412l-61 50l315 362l-315 363z" />
    <glyph glyph-name="onequarter" unicode="&#xbc;" horiz-adv-x="1654" 
d="M1393 1507l-1127 -1591h-94l1126 1591h95zM92 1264l-16 63l223 107h43v-721h-78v628zM1036 260h305v332zM1341 195h-401v45l428 477h49v-457h160v-65h-160v-195h-76v195z" />
    <glyph glyph-name="onehalf" unicode="&#xbd;" horiz-adv-x="1714" 
d="M1382 1507l-1126 -1591h-94l1126 1591h94zM92 1264l-16 63l223 107h43v-721h-78v628zM1466 274l-239 -206q17 0 47 1t45 1h311v-70h-522q-4 32 -4 53l311 271q107 96 107 190q0 71 -46.5 108t-129.5 37q-79 0 -119 -35t-45 -85h-80q5 76 67.5 133t178.5 57q115 0 182 -59
t67 -158q0 -123 -131 -238z" />
    <glyph glyph-name="threequarters" unicode="&#xbe;" horiz-adv-x="1812" 
d="M1552 1507l-1126 -1591h-94l1126 1591h94zM1196 260h305v332zM1501 195h-401v45l428 477h49v-457h160v-65h-160v-195h-76v195zM92 776l45 53q35 -29 87 -46t104 -17q100 0 155.5 48.5t55.5 121.5q0 76 -53.5 121t-133.5 45q-68 0 -114 -29l-31 49l268 248h-360v64h477
v-39l-248 -236h14q112 0 184 -61t72 -164t-75 -169.5t-211 -66.5q-146 0 -236 78z" />
    <glyph glyph-name="questiondown" unicode="&#xbf;" horiz-adv-x="1030" 
d="M535 592h90v-92q0 -60 -21 -93.5t-100 -80.5q-41 -25 -64 -40t-62.5 -43.5t-63.5 -50.5t-54 -55t-46.5 -63.5t-28 -69t-11.5 -78.5q0 -130 103 -210.5t258 -80.5q165 0 248 68.5t83 161.5q0 23 -6 69h88q10 -39 10 -77q0 -41 -13.5 -82t-46 -82t-80.5 -72.5t-122.5 -51.5
t-165.5 -20q-193 0 -324.5 104.5t-131.5 272.5q0 83 32.5 155t99.5 133t107 90t117 76q9 6 14 9q57 35 74 71.5t17 92.5v39zM662 946q0 -35 -22.5 -58.5t-57.5 -23.5t-59.5 23.5t-24.5 58.5t24.5 58.5t59.5 23.5t57.5 -23.5t22.5 -58.5z" />
    <glyph glyph-name="Agrave" unicode="&#xc0;" horiz-adv-x="1349" 
d="M297 406h754l-377 935zM1083 322h-819l-129 -322h-102l579 1434h123l582 -1434h-103zM467 1851h108l170 -284h-77z" />
    <glyph glyph-name="Aacute" unicode="&#xc1;" horiz-adv-x="1349" 
d="M297 406h754l-377 935zM1083 322h-819l-129 -322h-102l579 1434h123l582 -1434h-103zM774 1851h107l-201 -284h-78z" />
    <glyph glyph-name="Acircumflex" unicode="&#xc2;" horiz-adv-x="1349" 
d="M297 406h754l-377 935zM1083 322h-819l-129 -322h-102l579 1434h123l582 -1434h-103zM623 1851h106l213 -284h-76q-145 170 -192 223l-191 -223h-73z" />
    <glyph glyph-name="Atilde" unicode="&#xc3;" horiz-adv-x="1349" 
d="M297 406h754l-377 935zM1083 322h-819l-129 -322h-102l579 1434h123l582 -1434h-103zM811 1620q-47 0 -134.5 44t-133.5 44q-35 0 -53 -19.5t-44 -78.5l-49 12q29 92 60.5 127t83.5 35q47 0 137.5 -45t130.5 -45q35 0 52.5 18t43.5 76l49 -10q-29 -92 -60 -125t-83 -33z
" />
    <glyph glyph-name="Adieresis" unicode="&#xc4;" horiz-adv-x="1349" 
d="M297 406h754l-377 935zM1083 322h-819l-129 -322h-102l579 1434h123l582 -1434h-103zM387 1690q0 31 21.5 53t52.5 22q32 0 54 -22t22 -53t-22 -53.5t-54 -22.5q-31 0 -52.5 22.5t-21.5 53.5zM815 1690q0 31 21.5 53t52.5 22q32 0 54 -22t22 -53t-22 -53.5t-54 -22.5
q-31 0 -52.5 22.5t-21.5 53.5z" />
    <glyph glyph-name="Aring" unicode="&#xc5;" horiz-adv-x="1349" 
d="M297 406h754l-377 935zM1083 322h-819l-129 -322h-102l579 1434h123l582 -1434h-103zM487 1726q0 76 54.5 124t134.5 48t134 -48t54 -124t-54 -123t-134 -47t-134.5 47t-54.5 123zM547 1726q0 -53 36.5 -85.5t92.5 -32.5q55 0 91 32.5t36 85.5t-36 86t-91 33
q-56 0 -92.5 -33t-36.5 -86z" />
    <glyph glyph-name="AE" unicode="&#xc6;" horiz-adv-x="1845" 
d="M528 731h383v619h-18zM1008 82h727v-82h-824v649h-430l-385 -649h-106l850 1434h895v-84h-727v-619h637v-84h-637v-565z" />
    <glyph glyph-name="Ccedilla" unicode="&#xc7;" horiz-adv-x="1427" 
d="M109 717q0 150 53.5 284t150.5 235t244.5 160.5t325.5 59.5q144 0 255 -38.5t212 -110.5l-39 -78q-185 139 -428 139q-155 0 -283.5 -52t-213 -141.5t-131 -207.5t-46.5 -250t46.5 -250t131 -207.5t213 -141.5t283.5 -52q246 0 428 137l39 -78q-91 -70 -194 -107
t-238 -41q92 -85 92 -196q0 -112 -77.5 -175t-178.5 -63t-173.5 62t-93.5 157l58 31q18 -75 75.5 -124.5t131.5 -49.5q72 0 127 47t55 127q0 104 -100 187q-168 8 -306 70t-229 162t-140.5 229.5t-49.5 275.5z" />
    <glyph glyph-name="Egrave" unicode="&#xc8;" horiz-adv-x="1200" 
d="M1090 82v-82h-867v1434h867v-84h-771v-607h674v-84h-674v-577h771zM434 1851h109l170 -284h-78z" />
    <glyph glyph-name="Eacute" unicode="&#xc9;" horiz-adv-x="1200" 
d="M1090 82v-82h-867v1434h867v-84h-771v-607h674v-84h-674v-577h771zM727 1851h107l-201 -284h-78z" />
    <glyph glyph-name="Ecircumflex" unicode="&#xca;" horiz-adv-x="1200" 
d="M1090 82v-82h-867v1434h867v-84h-771v-607h674v-84h-674v-577h771zM586 1851h106l213 -284h-76l-192 223l-191 -223h-73z" />
    <glyph glyph-name="Edieresis" unicode="&#xcb;" horiz-adv-x="1200" 
d="M1090 82v-82h-867v1434h867v-84h-771v-607h674v-84h-674v-577h771zM330 1690q0 31 21 53t52 22q32 0 54 -22t22 -53t-22 -53.5t-54 -22.5q-30 0 -51.5 22.5t-21.5 53.5zM758 1690q0 31 21 53t52 22q32 0 54 -22t22 -53t-22 -53.5t-54 -22.5q-30 0 -51.5 22.5t-21.5 53.5z
" />
    <glyph glyph-name="Igrave" unicode="&#xcc;" horiz-adv-x="542" 
d="M319 1434v-1434h-96v1434h96zM61 1851h109l170 -284h-78z" />
    <glyph glyph-name="Iacute" unicode="&#xcd;" horiz-adv-x="542" 
d="M319 1434v-1434h-96v1434h96zM373 1851h106l-200 -284h-78z" />
    <glyph glyph-name="Icircumflex" unicode="&#xce;" horiz-adv-x="542" 
d="M319 1434v-1434h-96v1434h96zM217 1851h107l213 -284h-76l-193 223l-190 -223h-74z" />
    <glyph glyph-name="Idieresis" unicode="&#xcf;" horiz-adv-x="542" 
d="M319 1434v-1434h-96v1434h96zM-18 1690q0 31 21 53t52 22q32 0 54 -22t22 -53t-22 -53.5t-54 -22.5q-30 0 -51.5 22.5t-21.5 53.5zM410 1690q0 31 21 53t52 22q32 0 54 -22t22 -53t-22 -53.5t-54 -22.5q-30 0 -51.5 22.5t-21.5 53.5z" />
    <glyph glyph-name="Eth" unicode="&#xd0;" horiz-adv-x="1480" 
d="M621 0h-398v659h-170v76h170v699h398q183 0 327.5 -56t235 -154.5t137.5 -227.5t47 -279t-47 -279t-137.5 -227.5t-235 -154.5t-327.5 -56zM319 84h302q127 0 233.5 32.5t182 90t128 137t78 174t25.5 199.5t-25.5 199.5t-78 174t-128 137t-182 90t-233.5 32.5h-302v-615
h396v-76h-396v-575z" />
    <glyph glyph-name="Ntilde" unicode="&#xd1;" horiz-adv-x="1550" 
d="M1249 0l-930 1264v-1264h-96v1434h80l928 -1262v1262h96v-1434h-78zM907 1620q-47 0 -134.5 44t-133.5 44q-35 0 -52 -19t-44 -79l-49 12q29 93 60 127.5t83 34.5q47 0 137.5 -45t130.5 -45q35 0 52.5 18t43.5 76l50 -10q-29 -91 -60.5 -124.5t-83.5 -33.5z" />
    <glyph glyph-name="Ograve" unicode="&#xd2;" horiz-adv-x="1699" 
d="M106 717q0 201 100 371t271 269t373 99q151 0 288.5 -58.5t237 -157.5t158.5 -236t59 -287t-59 -287t-158.5 -236.5t-237 -158t-288.5 -58.5t-289 58.5t-237.5 158t-158.5 236.5t-59 287zM207 717q0 -177 86.5 -327t234.5 -237t322 -87t322 87t234.5 237t86.5 327
t-86.5 327t-234.5 237t-322 87t-322 -87t-234.5 -237t-86.5 -327zM582 1851h108l170 -284h-78z" />
    <glyph glyph-name="Oacute" unicode="&#xd3;" horiz-adv-x="1699" 
d="M106 717q0 201 100 371t271 269t373 99q151 0 288.5 -58.5t237 -157.5t158.5 -236t59 -287t-59 -287t-158.5 -236.5t-237 -158t-288.5 -58.5t-289 58.5t-237.5 158t-158.5 236.5t-59 287zM207 717q0 -177 86.5 -327t234.5 -237t322 -87t322 87t234.5 237t86.5 327
t-86.5 327t-234.5 237t-322 87t-322 -87t-234.5 -237t-86.5 -327zM936 1851h106l-200 -284h-78z" />
    <glyph glyph-name="Ocircumflex" unicode="&#xd4;" horiz-adv-x="1699" 
d="M106 717q0 201 100 371t271 269t373 99q151 0 288.5 -58.5t237 -157.5t158.5 -236t59 -287t-59 -287t-158.5 -236.5t-237 -158t-288.5 -58.5t-289 58.5t-237.5 158t-158.5 236.5t-59 287zM207 717q0 -177 86.5 -327t234.5 -237t322 -87t322 87t234.5 237t86.5 327
t-86.5 327t-234.5 237t-322 87t-322 -87t-234.5 -237t-86.5 -327zM797 1851h106l213 -284h-76l-192 223l-191 -223h-73z" />
    <glyph glyph-name="Otilde" unicode="&#xd5;" horiz-adv-x="1699" 
d="M106 717q0 201 100 371t271 269t373 99q151 0 288.5 -58.5t237 -157.5t158.5 -236t59 -287t-59 -287t-158.5 -236.5t-237 -158t-288.5 -58.5t-289 58.5t-237.5 158t-158.5 236.5t-59 287zM207 717q0 -177 86.5 -327t234.5 -237t322 -87t322 87t234.5 237t86.5 327
t-86.5 327t-234.5 237t-322 87t-322 -87t-234.5 -237t-86.5 -327zM985 1620q-47 0 -134.5 44t-133.5 44q-35 0 -52 -19t-44 -79l-50 12q29 92 60.5 127t83.5 35q47 0 137.5 -45t130.5 -45q35 0 52.5 18t43.5 76l49 -10q-29 -92 -60 -125t-83 -33z" />
    <glyph glyph-name="Odieresis" unicode="&#xd6;" horiz-adv-x="1699" 
d="M106 717q0 201 100 371t271 269t373 99q151 0 288.5 -58.5t237 -157.5t158.5 -236t59 -287t-59 -287t-158.5 -236.5t-237 -158t-288.5 -58.5t-289 58.5t-237.5 158t-158.5 236.5t-59 287zM207 717q0 -177 86.5 -327t234.5 -237t322 -87t322 87t234.5 237t86.5 327
t-86.5 327t-234.5 237t-322 87t-322 -87t-234.5 -237t-86.5 -327zM561 1690q0 31 21.5 53t52.5 22q32 0 54 -22t22 -53t-22 -53.5t-54 -22.5q-31 0 -52.5 22.5t-21.5 53.5zM989 1690q0 31 21.5 53t52.5 22q32 0 54 -22t22 -53t-22 -53.5t-54 -22.5q-31 0 -52.5 22.5
t-21.5 53.5z" />
    <glyph glyph-name="multiply" unicode="&#xd7;" horiz-adv-x="1011" 
d="M870 309l-59 -61l-305 307l-305 -307l-60 61l305 305l-305 306l60 59l305 -305l303 305l61 -59l-305 -306z" />
    <glyph glyph-name="Oslash" unicode="&#xd8;" horiz-adv-x="1697" 
d="M106 717q0 201 100 371t271 269t373 99q201 0 379 -104l108 161l68 -47l-107 -161q138 -105 216.5 -258t78.5 -330q0 -150 -59 -287t-158.5 -236.5t-237 -158t-288.5 -58.5q-195 0 -373 99l-100 -152l-66 47l101 150q-143 105 -224.5 259.5t-81.5 336.5zM207 717
q0 -157 67.5 -292.5t186.5 -227.5l717 1079q-155 92 -328 92q-174 0 -322 -87t-234.5 -237t-86.5 -327zM1493 717q0 152 -65.5 285.5t-180.5 226.5l-719 -1077q150 -86 322 -86q174 0 322 87t234.5 237t86.5 327z" />
    <glyph glyph-name="Ugrave" unicode="&#xd9;" horiz-adv-x="1499" 
d="M1202 1434h96v-918q0 -130 -43.5 -234t-119 -169.5t-173.5 -100.5t-210 -35q-113 0 -212 35t-174.5 100.5t-119 169.5t-43.5 234v918h96v-918q0 -110 36 -197.5t99 -141.5t144 -82.5t174 -28.5q94 0 174.5 28t142.5 82.5t97.5 142t35.5 197.5v918zM541 1851h108l170 -284
h-78z" />
    <glyph glyph-name="Uacute" unicode="&#xda;" horiz-adv-x="1499" 
d="M1202 1434h96v-918q0 -130 -43.5 -234t-119 -169.5t-173.5 -100.5t-210 -35q-113 0 -212 35t-174.5 100.5t-119 169.5t-43.5 234v918h96v-918q0 -110 36 -197.5t99 -141.5t144 -82.5t174 -28.5q94 0 174.5 28t142.5 82.5t97.5 142t35.5 197.5v918zM838 1851h106
l-201 -284h-77z" />
    <glyph glyph-name="Ucircumflex" unicode="&#xdb;" horiz-adv-x="1499" 
d="M1202 1434h96v-918q0 -130 -43.5 -234t-119 -169.5t-173.5 -100.5t-210 -35q-113 0 -212 35t-174.5 100.5t-119 169.5t-43.5 234v918h96v-918q0 -110 36 -197.5t99 -141.5t144 -82.5t174 -28.5q94 0 174.5 28t142.5 82.5t97.5 142t35.5 197.5v918zM696 1851h107l213 -284
h-76l-192 223l-191 -223h-74z" />
    <glyph glyph-name="Udieresis" unicode="&#xdc;" horiz-adv-x="1499" 
d="M1202 1434h96v-918q0 -130 -43.5 -234t-119 -169.5t-173.5 -100.5t-210 -35q-113 0 -212 35t-174.5 100.5t-119 169.5t-43.5 234v918h96v-918q0 -110 36 -197.5t99 -141.5t144 -82.5t174 -28.5q94 0 174.5 28t142.5 82.5t97.5 142t35.5 197.5v918zM461 1690q0 31 21.5 53
t52.5 22q32 0 53.5 -22t21.5 -53t-21.5 -53.5t-53.5 -22.5q-31 0 -52.5 22.5t-21.5 53.5zM889 1690q0 31 21.5 53t52.5 22q32 0 53.5 -22t21.5 -53t-21.5 -53.5t-53.5 -22.5q-31 0 -52.5 22.5t-21.5 53.5z" />
    <glyph glyph-name="Yacute" unicode="&#xdd;" horiz-adv-x="1284" 
d="M594 0v596l-537 838h113l471 -748l475 748h111l-537 -838v-596h-96zM743 1851h107l-201 -284h-78z" />
    <glyph glyph-name="Thorn" unicode="&#xde;" horiz-adv-x="1165" 
d="M756 352h-437v-352h-96v1434h96v-344h445q138 0 232 -110.5t94 -260.5q0 -148 -93.5 -257.5t-240.5 -109.5zM764 1006h-445v-570h437q102 0 167.5 84t65.5 199q0 116 -64.5 201.5t-160.5 85.5z" />
    <glyph glyph-name="germandbls" unicode="&#xdf;" horiz-adv-x="1185" 
d="M561 1409q-140 0 -214.5 -84t-74.5 -240v-1085h-96v1085q0 198 99.5 303t285.5 105q176 0 280.5 -89t104.5 -251q0 -116 -70 -206.5t-206 -127.5q195 -25 310.5 -146t115.5 -294q0 -163 -121.5 -271t-310.5 -108h-107q-3 14 -7 41t-7 41h121q142 0 238.5 86.5t96.5 210.5
q0 159 -123 268t-329 121l-25 90q157 11 242.5 95.5t85.5 193.5q0 126 -78.5 194t-210.5 68z" />
    <glyph glyph-name="agrave" unicode="&#xe0;" horiz-adv-x="1327" 
d="M1057 0v256q-57 -127 -174 -203t-267 -76q-152 0 -272 71t-185 192.5t-65 269.5q0 145 63 264.5t183.5 191.5t277.5 72q151 0 267.5 -75t171.5 -201v254h94v-1016h-94zM621 61q189 0 313.5 129.5t124.5 319.5q0 188 -123 316t-318 128q-193 0 -310.5 -127t-117.5 -317
q0 -192 120 -320.5t311 -128.5zM399 1481h111l188 -307h-80z" />
    <glyph glyph-name="aacute" unicode="&#xe1;" horiz-adv-x="1327" 
d="M1057 0v256q-57 -127 -174 -203t-267 -76q-152 0 -272 71t-185 192.5t-65 269.5q0 145 63 264.5t183.5 191.5t277.5 72q151 0 267.5 -75t171.5 -201v254h94v-1016h-94zM621 61q189 0 313.5 129.5t124.5 319.5q0 188 -123 316t-318 128q-193 0 -310.5 -127t-117.5 -317
q0 -192 120 -320.5t311 -128.5zM745 1481h111l-221 -307h-78z" />
    <glyph glyph-name="acircumflex" unicode="&#xe2;" horiz-adv-x="1327" 
d="M1057 0v256q-57 -127 -174 -203t-267 -76q-152 0 -272 71t-185 192.5t-65 269.5q0 145 63 264.5t183.5 191.5t277.5 72q151 0 267.5 -75t171.5 -201v254h94v-1016h-94zM621 61q189 0 313.5 129.5t124.5 319.5q0 188 -123 316t-318 128q-193 0 -310.5 -127t-117.5 -317
q0 -192 120 -320.5t311 -128.5zM557 1481h109l229 -307h-74l-211 243l-209 -243h-73z" />
    <glyph glyph-name="atilde" unicode="&#xe3;" horiz-adv-x="1327" 
d="M1057 0v256q-57 -127 -174 -203t-267 -76q-152 0 -272 71t-185 192.5t-65 269.5q0 145 63 264.5t183.5 191.5t277.5 72q151 0 267.5 -75t171.5 -201v254h94v-1016h-94zM621 61q189 0 313.5 129.5t124.5 319.5q0 188 -123 316t-318 128q-193 0 -310.5 -127t-117.5 -317
q0 -192 120 -320.5t311 -128.5zM727 1260q-47 0 -134.5 45t-133.5 45q-35 0 -52.5 -20t-44.5 -79l-49 11q28 94 59.5 127.5t84.5 33.5q47 0 137.5 -44t130.5 -44q35 0 52 18.5t44 76.5l49 -11q-28 -94 -59 -126.5t-84 -32.5z" />
    <glyph glyph-name="adieresis" unicode="&#xe4;" horiz-adv-x="1327" 
d="M1057 0v256q-57 -127 -174 -203t-267 -76q-152 0 -272 71t-185 192.5t-65 269.5q0 145 63 264.5t183.5 191.5t277.5 72q151 0 267.5 -75t171.5 -201v254h94v-1016h-94zM621 61q189 0 313.5 129.5t124.5 319.5q0 188 -123 316t-318 128q-193 0 -310.5 -127t-117.5 -317
q0 -192 120 -320.5t311 -128.5zM301 1319q0 32 21.5 55t52.5 23q32 0 54 -23t22 -55q0 -31 -22 -52.5t-54 -21.5q-31 0 -52.5 21.5t-21.5 52.5zM729 1319q0 32 21.5 55t52.5 23q32 0 54 -23t22 -55q0 -31 -22 -52.5t-54 -21.5q-31 0 -52.5 21.5t-21.5 52.5z" />
    <glyph glyph-name="aring" unicode="&#xe5;" horiz-adv-x="1327" 
d="M1057 0v256q-57 -127 -174 -203t-267 -76q-152 0 -272 71t-185 192.5t-65 269.5q0 145 63 264.5t183.5 191.5t277.5 72q151 0 267.5 -75t171.5 -201v254h94v-1016h-94zM621 61q189 0 313.5 129.5t124.5 319.5q0 188 -123 316t-318 128q-193 0 -310.5 -127t-117.5 -317
q0 -192 120 -320.5t311 -128.5zM422 1362q0 78 55 133t133 55q77 0 133 -56t56 -132q0 -78 -55.5 -133t-133.5 -55t-133 55t-55 133zM481 1362q0 -56 36.5 -92.5t92.5 -36.5q54 0 90.5 37t36.5 92q0 54 -36.5 90.5t-90.5 36.5q-55 0 -92 -36.5t-37 -90.5z" />
    <glyph glyph-name="ae" unicode="&#xe6;" horiz-adv-x="1968" 
d="M874 461q-90 30 -197 45.5t-177 15.5q-171 0 -249.5 -66t-78.5 -165q0 -106 91 -168t224 -62q71 0 145 23t150 79t125 138q-2 7 -11 37.5t-11.5 41t-6 34.5t-4.5 47zM1399 954q-163 0 -279 -93.5t-153 -248.5h827q-12 88 -49.5 155.5t-92 107.5t-118.5 59.5t-135 19.5z
M874 537v75q0 340 -333 340q-208 0 -348 -108q-7 13 -19.5 37.5t-19.5 36.5q72 57 175 88.5t218 31.5q98 0 171.5 -23.5t116.5 -65.5t67 -86.5t38 -100.5q62 127 182 201.5t277 74.5q98 0 183.5 -29.5t154.5 -88.5t110 -157t45 -226h-931q0 -99 28.5 -183.5t83.5 -150.5
t144.5 -104t203.5 -38q212 0 359 140l55 -58q-156 -166 -414 -166q-163 0 -284 66t-189 182q-91 -131 -214.5 -189.5t-260.5 -58.5q-75 0 -145.5 20.5t-127 58.5t-90.5 98.5t-34 134.5q0 134 101.5 223.5t293.5 89.5q210 0 403 -65z" />
    <glyph glyph-name="ccedilla" unicode="&#xe7;" horiz-adv-x="1095" 
d="M92 504q0 112 38.5 209t110.5 169.5t182 114t245 41.5q194 0 352 -114l-47 -68q-130 98 -303 98q-219 0 -348 -125.5t-134 -320.5q5 -195 134.5 -321t347.5 -126q165 0 303 99l47 -68q-130 -94 -295 -110q94 -84 94 -201q0 -112 -77.5 -175t-178.5 -63t-173 62t-93 157
l57 31q18 -75 75.5 -124.5t131.5 -49.5q72 0 127 47t55 127q0 101 -100 184q-169 5 -294.5 76.5t-189.5 188t-67 262.5z" />
    <glyph glyph-name="egrave" unicode="&#xe8;" horiz-adv-x="1214" 
d="M1024 201q9 -12 28.5 -29.5t28.5 -28.5q-158 -166 -419 -166q-127 0 -234.5 42t-180.5 114t-114 168t-41 203q0 146 70 268.5t196 194t281 71.5q77 0 147.5 -18t134 -57.5t110.5 -97t75.5 -142t30.5 -186.5h-947q-2 -14 -2 -39q0 -186 131.5 -311.5t342.5 -125.5
q215 0 362 140zM639 954q-163 0 -282 -93.5t-156 -248.5h837q-12 88 -50 155.5t-94 107.5t-120 59.5t-135 19.5zM381 1481h111l188 -307h-80z" />
    <glyph glyph-name="eacute" unicode="&#xe9;" horiz-adv-x="1214" 
d="M1024 201q9 -12 28.5 -29.5t28.5 -28.5q-158 -166 -419 -166q-127 0 -234.5 42t-180.5 114t-114 168t-41 203q0 146 70 268.5t196 194t281 71.5q77 0 147.5 -18t134 -57.5t110.5 -97t75.5 -142t30.5 -186.5h-947q-2 -14 -2 -39q0 -186 131.5 -311.5t342.5 -125.5
q215 0 362 140zM639 954q-163 0 -282 -93.5t-156 -248.5h837q-12 88 -50 155.5t-94 107.5t-120 59.5t-135 19.5zM733 1481h111l-221 -307h-78z" />
    <glyph glyph-name="ecircumflex" unicode="&#xea;" horiz-adv-x="1214" 
d="M1024 201q9 -12 28.5 -29.5t28.5 -28.5q-158 -166 -419 -166q-127 0 -234.5 42t-180.5 114t-114 168t-41 203q0 146 70 268.5t196 194t281 71.5q77 0 147.5 -18t134 -57.5t110.5 -97t75.5 -142t30.5 -186.5h-947q-2 -14 -2 -39q0 -186 131.5 -311.5t342.5 -125.5
q215 0 362 140zM639 954q-163 0 -282 -93.5t-156 -248.5h837q-12 88 -50 155.5t-94 107.5t-120 59.5t-135 19.5zM555 1481h109l229 -307h-74l-211 243l-209 -243h-73z" />
    <glyph glyph-name="edieresis" unicode="&#xeb;" horiz-adv-x="1214" 
d="M1024 201q9 -12 28.5 -29.5t28.5 -28.5q-158 -166 -419 -166q-127 0 -234.5 42t-180.5 114t-114 168t-41 203q0 146 70 268.5t196 194t281 71.5q77 0 147.5 -18t134 -57.5t110.5 -97t75.5 -142t30.5 -186.5h-947q-2 -14 -2 -39q0 -186 131.5 -311.5t342.5 -125.5
q215 0 362 140zM639 954q-163 0 -282 -93.5t-156 -248.5h837q-12 88 -50 155.5t-94 107.5t-120 59.5t-135 19.5zM322 1319q0 32 21 55t52 23q32 0 54 -23t22 -55q0 -31 -22 -52.5t-54 -21.5q-31 0 -52 21.5t-21 52.5zM750 1319q0 32 21 55t52 23q32 0 54 -23t22 -55
q0 -31 -22 -52.5t-54 -21.5q-31 0 -52 21.5t-21 52.5z" />
    <glyph glyph-name="igrave" unicode="&#xec;" horiz-adv-x="462" 
d="M279 1016v-1016h-95v1016h95zM0 1481h111l188 -307h-80z" />
    <glyph glyph-name="iacute" unicode="&#xed;" horiz-adv-x="462" 
d="M279 1016v-1016h-95v1016h95zM352 1481h111l-221 -307h-78z" />
    <glyph glyph-name="icircumflex" unicode="&#xee;" horiz-adv-x="462" 
d="M279 1016v-1016h-95v1016h95zM166 1481h108l230 -307h-74l-211 243l-209 -243h-73z" />
    <glyph glyph-name="idieresis" unicode="&#xef;" horiz-adv-x="462" 
d="M279 1016v-1016h-95v1016h95zM-68 1319q0 32 21.5 55t52.5 23q32 0 54 -23t22 -55q0 -31 -22 -52.5t-54 -21.5q-31 0 -52.5 21.5t-21.5 52.5zM360 1319q0 32 21.5 55t52.5 23q32 0 54 -23t22 -55q0 -31 -22 -52.5t-54 -21.5q-31 0 -52.5 21.5t-21.5 52.5z" />
    <glyph glyph-name="eth" unicode="&#xf0;" horiz-adv-x="1257" 
d="M662 1270l-295 -125l-31 59l272 115q-53 52 -172 141l68 58q126 -94 192 -160l250 106l33 -59l-231 -98q178 -183 295.5 -397.5t117.5 -407.5q0 -111 -43 -209.5t-115 -167t-170 -108.5t-204 -40q-146 0 -269.5 70t-195.5 191.5t-72 265.5q0 145 70.5 266.5t191 191.5
t262.5 70q87 0 175 -32t151 -95q-109 199 -280 365zM188 506q0 -185 129 -315t308 -130q187 0 313.5 128t126.5 315q-8 189 -129 317.5t-307 128.5q-184 0 -312.5 -129.5t-128.5 -314.5z" />
    <glyph glyph-name="ntilde" unicode="&#xf1;" horiz-adv-x="1224" 
d="M973 0v584q0 104 -28.5 179t-78.5 115t-106 58t-121 18q-40 0 -84.5 -11.5t-95.5 -43t-91.5 -78t-68 -124t-29.5 -173.5v-524h-94v1016h94v-236q26 68 70.5 120t97 81t104 43t101.5 14q67 0 126 -13.5t115 -46.5t95.5 -83.5t63.5 -130t24 -180.5v-584h-94zM745 1260
q-47 0 -134.5 45t-133.5 45q-34 0 -51.5 -19.5t-44.5 -79.5l-49 11q28 94 59 127.5t84 33.5q47 0 137.5 -44t130.5 -44q35 0 53 19t44 76l49 -11q-28 -94 -59.5 -126.5t-84.5 -32.5z" />
    <glyph glyph-name="ograve" unicode="&#xf2;" horiz-adv-x="1253" 
d="M92 506q0 144 72 266.5t195 194t266 71.5q145 0 268.5 -72t195.5 -194.5t72 -265.5q0 -142 -72 -264t-195.5 -193.5t-268.5 -71.5q-107 0 -205.5 41.5t-170.5 112t-114.5 169t-42.5 206.5zM188 506q0 -184 129 -314.5t308 -130.5q182 0 311 130.5t129 314.5
q0 185 -129.5 316.5t-310.5 131.5q-179 0 -308 -132t-129 -316zM346 1481h111l188 -307h-80z" />
    <glyph glyph-name="oacute" unicode="&#xf3;" horiz-adv-x="1253" 
d="M92 506q0 144 72 266.5t195 194t266 71.5q145 0 268.5 -72t195.5 -194.5t72 -265.5q0 -142 -72 -264t-195.5 -193.5t-268.5 -71.5q-107 0 -205.5 41.5t-170.5 112t-114.5 169t-42.5 206.5zM188 506q0 -184 129 -314.5t308 -130.5q182 0 311 130.5t129 314.5
q0 185 -129.5 316.5t-310.5 131.5q-179 0 -308 -132t-129 -316zM739 1481h111l-221 -307h-78z" />
    <glyph glyph-name="ocircumflex" unicode="&#xf4;" horiz-adv-x="1253" 
d="M92 506q0 144 72 266.5t195 194t266 71.5q145 0 268.5 -72t195.5 -194.5t72 -265.5q0 -142 -72 -264t-195.5 -193.5t-268.5 -71.5q-107 0 -205.5 41.5t-170.5 112t-114.5 169t-42.5 206.5zM188 506q0 -184 129 -314.5t308 -130.5q182 0 311 130.5t129 314.5
q0 185 -129.5 316.5t-310.5 131.5q-179 0 -308 -132t-129 -316zM571 1481h109l229 -307h-73l-211 243l-209 -243h-74z" />
    <glyph glyph-name="otilde" unicode="&#xf5;" horiz-adv-x="1253" 
d="M92 506q0 144 72 266.5t195 194t266 71.5q145 0 268.5 -72t195.5 -194.5t72 -265.5q0 -142 -72 -264t-195.5 -193.5t-268.5 -71.5q-107 0 -205.5 41.5t-170.5 112t-114.5 169t-42.5 206.5zM188 506q0 -184 129 -314.5t308 -130.5q182 0 311 130.5t129 314.5
q0 185 -129.5 316.5t-310.5 131.5q-179 0 -308 -132t-129 -316zM762 1260q-47 0 -134.5 45t-133.5 45q-34 0 -52 -20t-45 -79l-49 11q28 94 59.5 127.5t84.5 33.5q47 0 137.5 -44t130.5 -44q35 0 52 18.5t44 76.5l49 -11q-28 -94 -59 -126.5t-84 -32.5z" />
    <glyph glyph-name="odieresis" unicode="&#xf6;" horiz-adv-x="1253" 
d="M92 506q0 144 72 266.5t195 194t266 71.5q145 0 268.5 -72t195.5 -194.5t72 -265.5q0 -142 -72 -264t-195.5 -193.5t-268.5 -71.5q-107 0 -205.5 41.5t-170.5 112t-114.5 169t-42.5 206.5zM188 506q0 -184 129 -314.5t308 -130.5q182 0 311 130.5t129 314.5
q0 185 -129.5 316.5t-310.5 131.5q-179 0 -308 -132t-129 -316zM338 1319q0 32 21.5 55t52.5 23q32 0 53.5 -22.5t21.5 -55.5q0 -31 -21.5 -52.5t-53.5 -21.5q-31 0 -52.5 21.5t-21.5 52.5zM766 1319q0 32 21.5 55t52.5 23q32 0 53.5 -22.5t21.5 -55.5q0 -31 -21.5 -52.5
t-53.5 -21.5q-31 0 -52.5 21.5t-21.5 52.5z" />
    <glyph glyph-name="divide" unicode="&#xf7;" horiz-adv-x="1320" 
d="M580 215q0 36 22 59t57 23t59.5 -23.5t24.5 -58.5t-24.5 -58.5t-59.5 -23.5t-57 23t-22 59zM580 1020q0 36 22 59t57 23t59.5 -23.5t24.5 -58.5t-24.5 -58.5t-59.5 -23.5t-57 23t-22 59zM158 569v86h1005v-86h-1005z" />
    <glyph glyph-name="oslash" unicode="&#xf8;" horiz-adv-x="1253" 
d="M92 506q0 144 72 266.5t195 194t266 71.5q148 0 280 -82l96 134l58 -48l-94 -127q92 -75 144 -181.5t52 -227.5q0 -142 -72 -264t-195.5 -193.5t-268.5 -71.5q-154 0 -283 80l-92 -127l-57 47l90 123q-89 73 -140 179t-51 227zM1065 506q0 98 -40.5 185.5t-111.5 150.5
l-520 -713q109 -68 232 -68q182 0 311 130.5t129 314.5zM188 506q0 -98 39.5 -184.5t108.5 -147.5l518 713q-107 67 -229 67q-179 0 -308 -132t-129 -316z" />
    <glyph glyph-name="ugrave" unicode="&#xf9;" horiz-adv-x="1226" 
d="M252 1016v-584q0 -84 19.5 -149.5t51 -106.5t76 -67.5t90.5 -37t97 -10.5q40 0 84.5 12t96 43t92 77.5t68 124.5t29.5 174v524h95v-1016h-95v233q-34 -89 -101 -149t-135.5 -83.5t-137.5 -23.5q-67 0 -126 13.5t-115 46.5t-95.5 84t-63.5 130.5t-24 180.5v584h94z
M362 1481h111l189 -307h-80z" />
    <glyph glyph-name="uacute" unicode="&#xfa;" horiz-adv-x="1226" 
d="M252 1016v-584q0 -84 19.5 -149.5t51 -106.5t76 -67.5t90.5 -37t97 -10.5q40 0 84.5 12t96 43t92 77.5t68 124.5t29.5 174v524h95v-1016h-95v233q-34 -89 -101 -149t-135.5 -83.5t-137.5 -23.5q-67 0 -126 13.5t-115 46.5t-95.5 84t-63.5 130.5t-24 180.5v584h94z
M713 1481h110l-221 -307h-78z" />
    <glyph glyph-name="ucircumflex" unicode="&#xfb;" horiz-adv-x="1226" 
d="M252 1016v-584q0 -84 19.5 -149.5t51 -106.5t76 -67.5t90.5 -37t97 -10.5q40 0 84.5 12t96 43t92 77.5t68 124.5t29.5 174v524h95v-1016h-95v233q-34 -89 -101 -149t-135.5 -83.5t-137.5 -23.5q-67 0 -126 13.5t-115 46.5t-95.5 84t-63.5 130.5t-24 180.5v584h94z
M561 1481h109l229 -307h-74l-211 243l-208 -243h-74z" />
    <glyph glyph-name="udieresis" unicode="&#xfc;" horiz-adv-x="1226" 
d="M252 1016v-584q0 -84 19.5 -149.5t51 -106.5t76 -67.5t90.5 -37t97 -10.5q40 0 84.5 12t96 43t92 77.5t68 124.5t29.5 174v524h95v-1016h-95v233q-34 -89 -101 -149t-135.5 -83.5t-137.5 -23.5q-67 0 -126 13.5t-115 46.5t-95.5 84t-63.5 130.5t-24 180.5v584h94z
M328 1319q0 32 21 55t52 23q32 0 54 -23t22 -55q0 -31 -22 -52.5t-54 -21.5q-31 0 -52 21.5t-21 52.5zM756 1319q0 32 21 55t52 23q32 0 54 -23t22 -55q0 -31 -22 -52.5t-54 -21.5q-31 0 -52 21.5t-21 52.5z" />
    <glyph glyph-name="yacute" unicode="&#xfd;" horiz-adv-x="1083" 
d="M547 94l375 922h108l-618 -1475h-99l181 443l-443 1032h107zM633 1481h110l-221 -307h-78z" />
    <glyph glyph-name="thorn" unicode="&#xfe;" horiz-adv-x="1327" 
d="M270 256v-715h-94v1940h94v-719q55 126 171.5 201t267.5 75q157 0 277.5 -72t183.5 -191.5t63 -264.5q0 -148 -65 -269.5t-185 -192.5t-272 -71q-150 0 -267 76t-174 203zM707 61q191 0 310.5 128.5t119.5 320.5q0 190 -117.5 317t-310.5 127q-195 0 -318 -128t-123 -316
q0 -190 125 -319.5t314 -129.5z" />
    <glyph glyph-name="ydieresis" unicode="&#xff;" horiz-adv-x="1083" 
d="M547 94l375 922h108l-618 -1475h-99l181 443l-443 1032h107zM246 1319q0 32 21 55t52 23q32 0 54 -23t22 -55q0 -31 -22 -52.5t-54 -21.5q-31 0 -52 21.5t-21 52.5zM674 1319q0 32 21.5 55t52.5 23q32 0 53.5 -22.5t21.5 -55.5q0 -31 -21.5 -52.5t-53.5 -21.5
q-31 0 -52.5 21.5t-21.5 52.5z" />
    <glyph glyph-name="Amacron" unicode="&#x100;" horiz-adv-x="1349" 
d="M297 406h754l-377 935zM1083 322h-819l-129 -322h-102l579 1434h123l582 -1434h-103zM426 1724h498v-77h-498v77z" />
    <glyph glyph-name="amacron" unicode="&#x101;" horiz-adv-x="1327" 
d="M1057 0v256q-57 -127 -174 -203t-267 -76q-152 0 -272 71t-185 192.5t-65 269.5q0 145 63 264.5t183.5 191.5t277.5 72q151 0 267.5 -75t171.5 -201v254h94v-1016h-94zM621 61q189 0 313.5 129.5t124.5 319.5q0 188 -123 316t-318 128q-193 0 -310.5 -127t-117.5 -317
q0 -192 120 -320.5t311 -128.5zM362 1374h498v-78h-498v78z" />
    <glyph glyph-name="Abreve" unicode="&#x102;" horiz-adv-x="1349" 
d="M297 406h754l-377 935zM1083 322h-819l-129 -322h-102l579 1434h123l582 -1434h-103zM872 1839l64 -6q-11 -119 -82 -190.5t-180 -71.5q-106 0 -177 72t-81 190l63 6q13 -87 64 -143t133 -56t132.5 56t63.5 143z" />
    <glyph glyph-name="abreve" unicode="&#x103;" horiz-adv-x="1327" 
d="M1057 0v256q-57 -127 -174 -203t-267 -76q-152 0 -272 71t-185 192.5t-65 269.5q0 145 63 264.5t183.5 191.5t277.5 72q151 0 267.5 -75t171.5 -201v254h94v-1016h-94zM621 61q189 0 313.5 129.5t124.5 319.5q0 188 -123 316t-318 128q-193 0 -310.5 -127t-117.5 -317
q0 -192 120 -320.5t311 -128.5zM864 1464l66 -6q-12 -127 -83.5 -198.5t-182.5 -71.5q-110 0 -181.5 72t-81.5 198l66 6q11 -89 63 -144.5t136 -55.5q83 0 134 55t64 145z" />
    <glyph glyph-name="Aogonek" unicode="&#x104;" horiz-adv-x="1347" 
d="M1081 322h-819l-129 -322h-102l579 1434h123l582 -1434q-91 -18 -141 -80t-50 -131q0 -78 54.5 -124t128.5 -46q73 0 130 49.5t76 124.5l58 -31q-21 -95 -93 -157t-173 -62q-65 0 -122.5 25t-96.5 81t-39 132q0 62 37.5 128.5t121.5 106.5zM295 406h754l-377 935z" />
    <glyph glyph-name="aogonek" unicode="&#x105;" horiz-adv-x="1327" 
d="M1151 23l-37 -23q-131 -83 -131 -207q0 -80 55 -127t127 -47q74 0 131.5 49.5t75.5 124.5l58 -31q-21 -95 -93.5 -157t-173.5 -62t-178.5 63t-77.5 175q0 57 34 121.5t116 117.5v236q-57 -127 -174 -203t-267 -76q-152 0 -272 71t-185 192.5t-65 269.5q0 145 63 264.5
t183.5 191.5t277.5 72q151 0 267.5 -75t171.5 -201v254h94v-993zM621 61q189 0 313.5 129.5t124.5 319.5q0 188 -123 316t-318 128q-193 0 -310.5 -127t-117.5 -317q0 -192 120 -320.5t311 -128.5z" />
    <glyph glyph-name="Cacute" unicode="&#x106;" horiz-adv-x="1425" 
d="M106 717q0 150 53.5 284t150.5 235t245 160.5t326 59.5q144 0 255 -38.5t212 -110.5l-39 -78q-185 139 -428 139q-155 0 -283.5 -52t-213 -141.5t-131 -207.5t-46.5 -250t46.5 -250t131 -207.5t213 -141.5t283.5 -52q246 0 428 137l39 -78q-99 -73 -210 -110.5
t-257 -37.5q-178 0 -326 59.5t-245 161t-150.5 235.5t-53.5 284zM942 1851h107l-201 -284h-78z" />
    <glyph glyph-name="cacute" unicode="&#x107;" horiz-adv-x="1095" 
d="M92 504q0 112 38.5 209t110.5 169.5t182 114t245 41.5q194 0 352 -114l-47 -68q-130 98 -303 98q-219 0 -348 -125.5t-134 -320.5q5 -195 134.5 -321t347.5 -126q165 0 303 99l47 -68q-159 -115 -352 -115q-134 0 -243 41t-180.5 112.5t-111 167t-41.5 206.5zM725 1481
h111l-222 -307h-77z" />
    <glyph glyph-name="Ccircumflex" unicode="&#x108;" horiz-adv-x="1425" 
d="M106 717q0 150 53.5 284t150.5 235t245 160.5t326 59.5q144 0 255 -38.5t212 -110.5l-39 -78q-185 139 -428 139q-155 0 -283.5 -52t-213 -141.5t-131 -207.5t-46.5 -250t46.5 -250t131 -207.5t213 -141.5t283.5 -52q246 0 428 137l39 -78q-99 -73 -210 -110.5
t-257 -37.5q-178 0 -326 59.5t-245 161t-150.5 235.5t-53.5 284zM752 1851h106l213 -284h-76l-192 223l-191 -223h-73z" />
    <glyph glyph-name="ccircumflex" unicode="&#x109;" horiz-adv-x="1095" 
d="M92 504q0 112 38.5 209t110.5 169.5t182 114t245 41.5q194 0 352 -114l-47 -68q-130 98 -303 98q-219 0 -348 -125.5t-134 -320.5q5 -195 134.5 -321t347.5 -126q165 0 303 99l47 -68q-159 -115 -352 -115q-134 0 -243 41t-180.5 112.5t-111 167t-41.5 206.5zM549 1481
h108l230 -307h-74l-211 243l-209 -243h-74z" />
    <glyph glyph-name="Cdotaccent" unicode="&#x10a;" horiz-adv-x="1425" 
d="M106 717q0 150 53.5 284t150.5 235t245 160.5t326 59.5q144 0 255 -38.5t212 -110.5l-39 -78q-185 139 -428 139q-155 0 -283.5 -52t-213 -141.5t-131 -207.5t-46.5 -250t46.5 -250t131 -207.5t213 -141.5t283.5 -52q246 0 428 137l39 -78q-99 -73 -210 -110.5
t-257 -37.5q-178 0 -326 59.5t-245 161t-150.5 235.5t-53.5 284zM743 1702q0 37 20 58.5t52 21.5q33 0 53.5 -22t20.5 -58q0 -35 -21 -57.5t-53 -22.5t-52 22.5t-20 57.5z" />
    <glyph glyph-name="cdotaccent" unicode="&#x10b;" horiz-adv-x="1095" 
d="M92 504q0 112 38.5 209t110.5 169.5t182 114t245 41.5q194 0 352 -114l-47 -68q-130 98 -303 98q-219 0 -348 -125.5t-134 -320.5q5 -195 134.5 -321t347.5 -126q165 0 303 99l47 -68q-159 -115 -352 -115q-134 0 -243 41t-180.5 112.5t-111 167t-41.5 206.5zM547 1309
q0 37 21 60.5t53 23.5t52.5 -23.5t20.5 -60.5q0 -36 -20 -58t-53 -22t-53.5 22t-20.5 58z" />
    <glyph glyph-name="Ccaron" unicode="&#x10c;" horiz-adv-x="1425" 
d="M106 717q0 150 53.5 284t150.5 235t245 160.5t326 59.5q144 0 255 -38.5t212 -110.5l-39 -78q-185 139 -428 139q-155 0 -283.5 -52t-213 -141.5t-131 -207.5t-46.5 -250t46.5 -250t131 -207.5t213 -141.5t283.5 -52q246 0 428 137l39 -78q-99 -73 -210 -110.5
t-257 -37.5q-178 0 -326 59.5t-245 161t-150.5 235.5t-53.5 284zM877 1567h-107l-213 284h74l190 -225l193 225h76z" />
    <glyph glyph-name="ccaron" unicode="&#x10d;" horiz-adv-x="1095" 
d="M92 504q0 112 38.5 209t110.5 169.5t182 114t245 41.5q194 0 352 -114l-47 -68q-130 98 -303 98q-219 0 -348 -125.5t-134 -320.5q5 -195 134.5 -321t347.5 -126q165 0 303 99l47 -68q-159 -115 -352 -115q-134 0 -243 41t-180.5 112.5t-111 167t-41.5 206.5zM659 1174
h-108l-229 307h73l209 -244l211 244h74z" />
    <glyph glyph-name="Dcaron" unicode="&#x10e;" horiz-adv-x="1480" 
d="M680 1567h-107l-213 284h74l191 -225l192 225h76zM319 84h302q127 0 233.5 32.5t182 90t128 137t78 174t25.5 199.5t-25.5 199.5t-78 174t-128 137t-182 90t-233.5 32.5h-302v-1266zM621 0h-398v1434h398q183 0 327.5 -56t235 -154.5t137.5 -227.5t47 -279t-47 -279
t-137.5 -227.5t-235 -154.5t-327.5 -56z" />
    <glyph glyph-name="dcaron" unicode="&#x10f;" horiz-adv-x="1333" 
d="M1057 0v256q-57 -127 -174 -203t-267 -76q-152 0 -272 71t-185 192.5t-65 269.5q0 145 63 264.5t183.5 191.5t277.5 72q151 0 267.5 -75t171.5 -201v719h94v-1481h-94zM621 61q189 0 313.5 129.5t124.5 319.5q0 188 -123 316t-318 128q-193 0 -310.5 -127t-117.5 -317
q0 -192 120 -320.5t311 -128.5zM1380 1329q-18 -6 -34 -6q-30 0 -50 16t-20 50q0 30 20 49.5t54 19.5q48 0 72 -34t24 -81q0 -61 -32 -122t-101 -107l-27 37q37 30 66.5 73t29.5 83q0 3 -1 11t-1 11z" />
    <glyph glyph-name="Dcroat" unicode="&#x110;" horiz-adv-x="1480" 
d="M621 0h-398v659h-170v76h170v699h398q183 0 327.5 -56t235 -154.5t137.5 -227.5t47 -279t-47 -279t-137.5 -227.5t-235 -154.5t-327.5 -56zM319 84h302q127 0 233.5 32.5t182 90t128 137t78 174t25.5 199.5t-25.5 199.5t-78 174t-128 137t-182 90t-233.5 32.5h-302v-615
h396v-76h-396v-575z" />
    <glyph glyph-name="dcroat" unicode="&#x111;" horiz-adv-x="1327" 
d="M1057 0v256q-57 -127 -174 -203t-267 -76q-152 0 -272 71t-185 192.5t-65 269.5q0 145 63 264.5t183.5 191.5t277.5 72q151 0 267.5 -75t171.5 -201v455h-344v61h344v203h94v-203h160v-61h-160v-1217h-94zM621 61q189 0 313.5 129.5t124.5 319.5q0 188 -123 316t-318 128
q-193 0 -310.5 -127t-117.5 -317q0 -192 120 -320.5t311 -128.5z" />
    <glyph glyph-name="Emacron" unicode="&#x112;" horiz-adv-x="1200" 
d="M1090 82v-82h-867v1434h867v-84h-771v-607h674v-84h-674v-577h771zM371 1724h497v-77h-497v77z" />
    <glyph glyph-name="emacron" unicode="&#x113;" horiz-adv-x="1214" 
d="M1024 201q9 -12 28.5 -29.5t28.5 -28.5q-158 -166 -419 -166q-127 0 -234.5 42t-180.5 114t-114 168t-41 203q0 146 70 268.5t196 194t281 71.5q77 0 147.5 -18t134 -57.5t110.5 -97t75.5 -142t30.5 -186.5h-947q-2 -14 -2 -39q0 -186 131.5 -311.5t342.5 -125.5
q215 0 362 140zM639 954q-163 0 -282 -93.5t-156 -248.5h837q-12 88 -50 155.5t-94 107.5t-120 59.5t-135 19.5zM360 1374h498v-78h-498v78z" />
    <glyph glyph-name="Ebreve" unicode="&#x114;" horiz-adv-x="1200" 
d="M1090 82v-82h-867v1434h867v-84h-771v-607h674v-84h-674v-577h771zM858 1839l64 -6q-11 -119 -82.5 -190.5t-180.5 -71.5q-106 0 -177 72t-81 190l64 6q13 -87 64 -143t133 -56t132.5 56t63.5 143z" />
    <glyph glyph-name="ebreve" unicode="&#x115;" horiz-adv-x="1214" 
d="M1024 201q9 -12 28.5 -29.5t28.5 -28.5q-158 -166 -419 -166q-127 0 -234.5 42t-180.5 114t-114 168t-41 203q0 146 70 268.5t196 194t281 71.5q77 0 147.5 -18t134 -57.5t110.5 -97t75.5 -142t30.5 -186.5h-947q-2 -14 -2 -39q0 -186 131.5 -311.5t342.5 -125.5
q215 0 362 140zM639 954q-163 0 -282 -93.5t-156 -248.5h837q-12 88 -50 155.5t-94 107.5t-120 59.5t-135 19.5zM809 1464l65 -6q-12 -127 -83.5 -198.5t-182.5 -71.5q-110 0 -181 72t-81 198l66 6q11 -90 62.5 -145t135.5 -55q83 0 134.5 55t64.5 145z" />
    <glyph glyph-name="Edotaccent" unicode="&#x116;" horiz-adv-x="1200" 
d="M1090 82v-82h-867v1434h867v-84h-771v-607h674v-84h-674v-577h771zM547 1702q0 37 19.5 58.5t51.5 21.5q33 0 53.5 -22t20.5 -58q0 -35 -21 -57.5t-53 -22.5t-51.5 22t-19.5 58z" />
    <glyph glyph-name="edotaccent" unicode="&#x117;" horiz-adv-x="1214" 
d="M1024 201q9 -12 28.5 -29.5t28.5 -28.5q-158 -166 -419 -166q-127 0 -234.5 42t-180.5 114t-114 168t-41 203q0 146 70 268.5t196 194t281 71.5q77 0 147.5 -18t134 -57.5t110.5 -97t75.5 -142t30.5 -186.5h-947q-2 -14 -2 -39q0 -186 131.5 -311.5t342.5 -125.5
q215 0 362 140zM639 954q-163 0 -282 -93.5t-156 -248.5h837q-12 88 -50 155.5t-94 107.5t-120 59.5t-135 19.5zM537 1309q0 37 20.5 60.5t52.5 23.5t53 -23.5t21 -60.5q0 -36 -20.5 -58t-53.5 -22t-53 22t-20 58z" />
    <glyph glyph-name="Eogonek" unicode="&#x118;" horiz-adv-x="1200" 
d="M1090 82v-82h-359q-131 -83 -131 -207q0 -80 55 -127t127 -47q74 0 131.5 49.5t75.5 124.5l58 -31q-21 -95 -93.5 -157t-173.5 -62t-178.5 63t-77.5 175q0 53 27 111.5t92 107.5h-420v1434h867v-84h-771v-607h674v-84h-674v-577h771z" />
    <glyph glyph-name="eogonek" unicode="&#x119;" horiz-adv-x="1214" 
d="M1137 537h-949q0 -3 -1 -10.5t-1 -10.5q0 -124 55.5 -226.5t165 -165.5t252.5 -63q218 0 365 140q8 -12 27.5 -29.5t27.5 -28.5q-107 -82 -205 -133q-80 -41 -117.5 -100t-37.5 -117q0 -72 55.5 -123t126.5 -51q74 0 131.5 49.5t75.5 124.5l57 -31q-21 -95 -93 -157
t-173 -62t-178.5 63t-77.5 175q0 117 96 203q-47 -7 -80 -7q-126 0 -233 41.5t-180 113t-113.5 167.5t-40.5 203q0 109 41 208t112.5 171t173 114.5t216.5 42.5q99 0 186 -30.5t157.5 -89.5t112.5 -157t46 -224zM637 954q-158 0 -280 -93.5t-158 -248.5h839
q-28 172 -139.5 257t-261.5 85z" />
    <glyph glyph-name="Ecaron" unicode="&#x11a;" horiz-adv-x="1200" 
d="M1090 82v-82h-867v1434h867v-84h-771v-607h674v-84h-674v-577h771zM702 1567h-106l-213 284h74l190 -225l193 225h75z" />
    <glyph glyph-name="ecaron" unicode="&#x11b;" horiz-adv-x="1214" 
d="M1024 201q9 -12 28.5 -29.5t28.5 -28.5q-158 -166 -419 -166q-127 0 -234.5 42t-180.5 114t-114 168t-41 203q0 146 70 268.5t196 194t281 71.5q77 0 147.5 -18t134 -57.5t110.5 -97t75.5 -142t30.5 -186.5h-947q-2 -14 -2 -39q0 -186 131.5 -311.5t342.5 -125.5
q215 0 362 140zM639 954q-163 0 -282 -93.5t-156 -248.5h837q-12 88 -50 155.5t-94 107.5t-120 59.5t-135 19.5zM664 1174h-109l-229 307h73l209 -244l211 244h74z" />
    <glyph glyph-name="Gcircumflex" unicode="&#x11c;" horiz-adv-x="1515" 
d="M840 1368q-123 0 -238.5 -50.5t-202.5 -136t-139.5 -207.5t-52.5 -257q0 -130 48 -248.5t133 -207.5t211.5 -142t274.5 -53q257 0 422 129v393h-428v86h521v-516q-200 -181 -517 -181q-218 0 -394.5 101t-274 270t-97.5 369q0 204 103 375t271.5 267.5t359.5 96.5
q155 0 278 -29t232 -102l-41 -78q-111 75 -218 98t-251 23zM750 1851h106l213 -284h-76l-192 223l-191 -223h-73z" />
    <glyph glyph-name="gcircumflex" unicode="&#x11d;" horiz-adv-x="1325" 
d="M1057 23v233q-57 -127 -174 -203t-267 -76q-152 0 -272 71t-185 192.5t-65 269.5q0 145 63 264.5t183.5 191.5t277.5 72q151 0 267.5 -75t171.5 -201v254h94v-1000q0 -229 -145 -363t-375 -134q-250 0 -432 131q8 13 41 78q160 -125 391 -125q191 0 308.5 115t117.5 305z
M621 61q189 0 313.5 129.5t124.5 319.5q0 188 -123 316t-318 128q-193 0 -310.5 -127t-117.5 -317q0 -192 120 -320.5t311 -128.5zM563 1481h109l229 -307h-74l-211 243l-208 -243h-74z" />
    <glyph glyph-name="Gbreve" unicode="&#x11e;" horiz-adv-x="1515" 
d="M840 1368q-123 0 -238.5 -50.5t-202.5 -136t-139.5 -207.5t-52.5 -257q0 -130 48 -248.5t133 -207.5t211.5 -142t274.5 -53q257 0 422 129v393h-428v86h521v-516q-200 -181 -517 -181q-218 0 -394.5 101t-274 270t-97.5 369q0 204 103 375t271.5 267.5t359.5 96.5
q155 0 278 -29t232 -102l-41 -78q-111 75 -218 98t-251 23zM1020 1839l63 -6q-11 -119 -82 -190.5t-180 -71.5q-106 0 -177 72t-81 190l64 6q13 -87 63.5 -143t132.5 -56t133 56t64 143z" />
    <glyph glyph-name="gbreve" unicode="&#x11f;" horiz-adv-x="1325" 
d="M1057 23v233q-57 -127 -174 -203t-267 -76q-152 0 -272 71t-185 192.5t-65 269.5q0 145 63 264.5t183.5 191.5t277.5 72q151 0 267.5 -75t171.5 -201v254h94v-1000q0 -229 -145 -363t-375 -134q-250 0 -432 131q8 13 41 78q160 -125 391 -125q191 0 308.5 115t117.5 305z
M621 61q189 0 313.5 129.5t124.5 319.5q0 188 -123 316t-318 128q-193 0 -310.5 -127t-117.5 -317q0 -192 120 -320.5t311 -128.5zM856 1464l66 -6q-12 -126 -84 -198t-183 -72q-110 0 -181 72t-81 198l66 6q11 -90 62.5 -145t135.5 -55q83 0 134.5 55t64.5 145z" />
    <glyph glyph-name="Gdotaccent" unicode="&#x120;" horiz-adv-x="1515" 
d="M840 1368q-123 0 -238.5 -50.5t-202.5 -136t-139.5 -207.5t-52.5 -257q0 -130 48 -248.5t133 -207.5t211.5 -142t274.5 -53q257 0 422 129v393h-428v86h521v-516q-200 -181 -517 -181q-218 0 -394.5 101t-274 270t-97.5 369q0 204 103 375t271.5 267.5t359.5 96.5
q155 0 278 -29t232 -102l-41 -78q-111 75 -218 98t-251 23zM745 1702q0 37 20 58.5t52 21.5q33 0 53.5 -22t20.5 -58q0 -35 -21 -57.5t-53 -22.5t-52 22.5t-20 57.5z" />
    <glyph glyph-name="gdotaccent" unicode="&#x121;" horiz-adv-x="1325" 
d="M1057 23v233q-57 -127 -174 -203t-267 -76q-152 0 -272 71t-185 192.5t-65 269.5q0 145 63 264.5t183.5 191.5t277.5 72q151 0 267.5 -75t171.5 -201v254h94v-1000q0 -229 -145 -363t-375 -134q-250 0 -432 131q8 13 41 78q160 -125 391 -125q191 0 308.5 115t117.5 305z
M621 61q189 0 313.5 129.5t124.5 319.5q0 188 -123 316t-318 128q-193 0 -310.5 -127t-117.5 -317q0 -192 120 -320.5t311 -128.5zM549 1309q0 37 21 60.5t53 23.5t52.5 -23.5t20.5 -60.5q0 -36 -20 -58t-53 -22t-53.5 22t-20.5 58z" />
    <glyph glyph-name="Gcommaaccent" unicode="&#x122;" horiz-adv-x="1515" 
d="M840 1368q-123 0 -238.5 -50.5t-202.5 -136t-139.5 -207.5t-52.5 -257q0 -130 48 -248.5t133 -207.5t211.5 -142t274.5 -53q257 0 422 129v393h-428v86h521v-516q-200 -181 -517 -181q-218 0 -394.5 101t-274 270t-97.5 369q0 204 103 375t271.5 267.5t359.5 96.5
q155 0 278 -29t232 -102l-41 -78q-111 75 -218 98t-251 23zM897 -256q-18 -6 -35 -6q-30 0 -49.5 15.5t-19.5 49.5q0 30 19.5 50t53.5 20q48 0 72.5 -34t24.5 -81q0 -61 -32.5 -122t-101.5 -107l-26 37q37 30 66.5 72.5t29.5 82.5q0 3 -1 11.5t-1 11.5z" />
    <glyph glyph-name="gcommaaccent" unicode="&#x123;" horiz-adv-x="1325" 
d="M1057 23v233q-57 -127 -174 -203t-267 -76q-152 0 -272 71t-185 192.5t-65 269.5q0 145 63 264.5t183.5 191.5t277.5 72q151 0 267.5 -75t171.5 -201v254h94v-1000q0 -229 -145 -363t-375 -134q-250 0 -432 131q8 13 41 78q160 -125 391 -125q191 0 308.5 115t117.5 305z
M621 61q189 0 313.5 129.5t124.5 319.5q0 188 -123 316t-318 128q-193 0 -310.5 -127t-117.5 -317q0 -192 120 -320.5t311 -128.5zM573 1303q18 6 35 6q30 0 50 -16t20 -50q0 -30 -20 -49.5t-54 -19.5q-48 0 -72 33.5t-24 80.5q0 61 32 122.5t101 107.5l27 -37
q-37 -30 -67 -73t-30 -83q0 -3 1 -11t1 -11z" />
    <glyph glyph-name="Hcircumflex" unicode="&#x124;" horiz-adv-x="1466" 
d="M1147 639h-828v-639h-96v1434h96v-711h828v711h96v-1434h-96v639zM680 1851h106l213 -284h-75l-193 223l-190 -223h-74z" />
    <glyph glyph-name="hcircumflex" unicode="&#x125;" horiz-adv-x="1226" 
d="M975 0v588q0 83 -20.5 148.5t-53 105.5t-77 66t-88.5 36t-91 10q-36 0 -78 -9.5t-96 -38.5t-96.5 -74.5t-72.5 -125.5t-32 -182v-524h-94v1481h94v-701q34 90 101 150.5t135.5 84t138.5 23.5q67 0 125.5 -13t114.5 -45.5t96 -82.5t64 -129t24 -180v-588h-94zM174 1851
h107l213 -284h-76l-193 223l-190 -223h-74z" />
    <glyph glyph-name="Hbar" unicode="&#x126;" horiz-adv-x="1466" 
d="M1147 639h-828v-639h-96v1001h-143v70h143v363h96v-363h828v363h96v-363h143v-70h-143v-1001h-96v639zM319 723h828v278h-828v-278z" />
    <glyph glyph-name="hbar" unicode="&#x127;" horiz-adv-x="1226" 
d="M975 0v588q0 83 -20.5 148.5t-53 105.5t-77 66t-88.5 36t-91 10q-36 0 -78 -9.5t-96 -38.5t-96.5 -74.5t-72.5 -125.5t-32 -182v-524h-94v1219h-149v59h149v203h94v-203h340v-59h-340v-439q34 90 101 150.5t135.5 84t138.5 23.5q67 0 125.5 -13t114.5 -45.5t96 -82.5
t64 -129t24 -180v-588h-94z" />
    <glyph glyph-name="Itilde" unicode="&#x128;" horiz-adv-x="542" 
d="M319 1434v-1434h-96v1434h96zM406 1620q-47 0 -135 44t-134 44q-35 0 -52 -19t-44 -79l-49 12q29 93 60 127.5t83 34.5q47 0 137.5 -45t130.5 -45q35 0 53 18.5t44 75.5l49 -10q-29 -92 -60 -125t-83 -33z" />
    <glyph glyph-name="itilde" unicode="&#x129;" horiz-adv-x="462" 
d="M279 1016v-1016h-95v1016h95zM356 1260q-47 0 -134.5 45t-133.5 45q-34 0 -51.5 -19.5t-44.5 -79.5l-49 11q28 94 59 127.5t84 33.5q47 0 137.5 -44t130.5 -44q35 0 53 19t44 76l49 -11q-28 -94 -59.5 -126.5t-84.5 -32.5z" />
    <glyph glyph-name="Imacron" unicode="&#x12a;" horiz-adv-x="542" 
d="M319 1434v-1434h-96v1434h96zM20 1724h498v-77h-498v77z" />
    <glyph glyph-name="imacron" unicode="&#x12b;" horiz-adv-x="462" 
d="M279 1016v-1016h-95v1016h95zM-29 1374h498v-78h-498v78z" />
    <glyph glyph-name="Ibreve" unicode="&#x12c;" horiz-adv-x="542" 
d="M319 1434v-1434h-96v1434h96zM467 1839l63 -6q-11 -119 -82 -190.5t-180 -71.5q-106 0 -177 72t-81 190l64 6q13 -87 63.5 -143t132.5 -56t133 56t64 143z" />
    <glyph glyph-name="ibreve" unicode="&#x12d;" horiz-adv-x="462" 
d="M279 1016v-1016h-95v1016h95zM420 1464l65 -6q-12 -127 -83.5 -198.5t-182.5 -71.5q-110 0 -181 72t-81 198l66 6q11 -90 62.5 -145t135.5 -55q83 0 134.5 55t64.5 145z" />
    <glyph glyph-name="Iogonek" unicode="&#x12e;" horiz-adv-x="542" 
d="M319 1434v-1409l-38 -25q-131 -83 -131 -207q0 -80 55 -127t127 -47q74 0 131.5 49.5t75.5 124.5l57 -31q-21 -95 -93 -157t-173 -62t-178.5 63t-77.5 175q0 57 33.5 121.5t115.5 117.5v1414h96z" />
    <glyph glyph-name="iogonek" unicode="&#x12f;" horiz-adv-x="460" 
d="M279 1016v-993l-37 -23q-71 -43 -101 -99t-30 -108q0 -80 55 -127t127 -47q74 0 131.5 49.5t75.5 124.5l57 -31q-21 -95 -93 -157t-173 -62t-178.5 63t-77.5 175q0 57 33.5 121.5t115.5 117.5v996h95zM156 1374q0 37 20.5 59.5t52.5 22.5t53 -22.5t21 -59.5t-21 -59.5
t-53 -22.5t-52.5 22.5t-20.5 59.5z" />
    <glyph glyph-name="Idotaccent" unicode="&#x130;" horiz-adv-x="542" 
d="M319 1434v-1434h-96v1434h96zM197 1702q0 37 19.5 58.5t51.5 21.5q33 0 53.5 -22t20.5 -58q0 -35 -21 -57.5t-53 -22.5t-51.5 22t-19.5 58z" />
    <glyph glyph-name="dotlessi" unicode="&#x131;" horiz-adv-x="462" 
d="M279 1016v-1016h-95v1016h95z" />
    <glyph glyph-name="IJ" unicode="&#x132;" horiz-adv-x="1914" 
d="M319 1434v-1434h-96v1434h96zM1720 1434v-783q0 -328 -148 -501t-425 -173q-135 0 -239 41.5t-166 114t-93 161.5t-31 191q0 87 31 150h99q-16 -32 -24.5 -75t-8.5 -71q0 -84 26 -158.5t76.5 -134.5t135.5 -95t194 -35q229 0 353 151.5t124 433.5v783h96z" />
    <glyph glyph-name="ij" unicode="&#x133;" horiz-adv-x="999" 
d="M279 1016v-1016h-95v1016h95zM156 1374q0 37 20.5 59.5t52.5 22.5t53 -22.5t21 -59.5t-21 -59.5t-53 -22.5t-52.5 22.5t-20.5 59.5zM721 -160v1176h94v-1180q0 -74 -16 -130.5t-42.5 -91t-64 -56.5t-75.5 -30.5t-82 -8.5q-124 0 -192.5 67.5t-68.5 173.5q0 17 2 23
q4 28 13 47h88q-10 -23 -10 -61q0 -71 44.5 -118.5t120.5 -47.5q189 0 189 237zM694 1374q0 37 21 59.5t53 22.5t53 -22.5t21 -59.5t-21 -59.5t-53 -22.5t-53 22.5t-21 59.5z" />
    <glyph glyph-name="Jcircumflex" unicode="&#x134;" horiz-adv-x="1372" 
d="M1178 1434v-783q0 -328 -148.5 -501t-425.5 -173q-109 0 -198 27.5t-149.5 75t-102 112.5t-60 138.5t-18.5 154.5q0 89 30 150h99q-16 -32 -24.5 -75t-8.5 -71q0 -84 26 -158.5t76.5 -134.5t135.5 -95t194 -35q229 0 353 151.5t124 433.5v783h97zM1075 1851h107l213 -284
h-76l-193 223l-190 -223h-74z" />
    <glyph glyph-name="jcircumflex" unicode="&#x135;" horiz-adv-x="536" 
d="M258 -160v1176h94v-1180q0 -74 -16 -130.5t-42.5 -91t-64 -56.5t-75.5 -30.5t-82 -8.5q-124 0 -192 67t-68 174q0 17 2 23q4 31 12 47h88q-10 -23 -10 -61q0 -71 45 -118.5t121 -47.5q188 0 188 237zM250 1481h108l230 -307h-74l-211 243l-209 -243h-74z" />
    <glyph glyph-name="Kcommaaccent" unicode="&#x136;" horiz-adv-x="1239" 
d="M649 -256q-18 -6 -35 -6q-30 0 -49.5 15.5t-19.5 49.5q0 30 19.5 50t53.5 20q48 0 72.5 -34t24.5 -81q0 -61 -32 -122t-101 -107l-27 37q37 30 66.5 72.5t29.5 82.5q0 3 -1 11.5t-1 11.5zM319 694l609 740h112l-630 -772l237 -283q45 -52 66 -76t63.5 -68.5t70.5 -67.5
t65.5 -49.5t72 -38t68.5 -11.5t81 12t83 41q17 -29 45 -74q-44 -34 -108.5 -52t-115.5 -18q-40 0 -82 13.5t-76 31t-75.5 52t-67.5 58.5t-66 69.5t-56.5 66.5t-53.5 66l-242 293v-627h-96v1434h96v-740z" />
    <glyph glyph-name="kcommaaccent" unicode="&#x137;" horiz-adv-x="1038" 
d="M268 563l463 453h117l-477 -475l262 -308q39 -45 60 -67t54 -50.5t64.5 -40.5t65.5 -12q77 0 129 41l36 -69q-68 -58 -172 -58q-43 0 -86 16t-71.5 34.5t-65 54t-50 51.5t-42.5 51l-287 342v-526h-94v1481h94v-918zM516 -256q-18 -6 -35 -6q-30 0 -49.5 15.5t-19.5 49.5
q0 30 19.5 50t53.5 20q48 0 72.5 -34t24.5 -81q0 -61 -32 -122t-101 -107l-27 37q37 30 66.5 72.5t29.5 82.5q0 3 -1 11.5t-1 11.5z" />
    <glyph glyph-name="kgreenlandic" unicode="&#x138;" horiz-adv-x="1009" 
d="M268 526l498 490h117l-527 -524l297 -310q29 -31 43.5 -45.5t41 -36.5t50.5 -31.5t50 -9.5q65 0 125 43l41 -67q-37 -31 -87 -44.5t-90 -13.5q-24 0 -46.5 4.5t-45.5 17.5t-37 21t-39 32t-33 31.5t-36 38.5t-33 36l-289 301v-459h-94v1016h94v-490z" />
    <glyph glyph-name="Lacute" unicode="&#x139;" horiz-adv-x="1036" 
d="M1012 82v-82h-789v1434h96v-1352h693zM395 1851h107l-201 -284h-78z" />
    <glyph glyph-name="lacute" unicode="&#x13a;" horiz-adv-x="462" 
d="M279 1481v-1481h-95v1481h95zM336 1851h106l-200 -284h-78z" />
    <glyph glyph-name="Lcommaaccent" unicode="&#x13b;" horiz-adv-x="1036" 
d="M1012 82v-82h-789v1434h96v-1352h693zM633 -256q-18 -6 -35 -6q-30 0 -50 15.5t-20 49.5q0 30 20 50t54 20q48 0 72 -34t24 -81q0 -61 -32 -122t-101 -107l-26 37q37 30 66.5 72.5t29.5 82.5q0 3 -1 11.5t-1 11.5z" />
    <glyph glyph-name="lcommaaccent" unicode="&#x13c;" horiz-adv-x="462" 
d="M279 1481v-1481h-95v1481h95zM252 -256q-18 -6 -35 -6q-30 0 -50 15.5t-20 49.5q0 30 20 50t54 20q48 0 72 -34t24 -81q0 -61 -32 -122t-101 -107l-26 37q37 30 66.5 72.5t29.5 82.5q0 3 -1 11.5t-1 11.5z" />
    <glyph glyph-name="Lcaron" unicode="&#x13d;" horiz-adv-x="1040" 
d="M1012 82v-82h-789v1434h96v-1352h693zM776 1329q-18 -6 -35 -6q-29 0 -49 16t-20 50q0 30 19.5 49.5t53.5 19.5q48 0 72.5 -34t24.5 -81q0 -61 -32 -122t-101 -107l-27 37q37 30 66.5 73t29.5 83q0 3 -1 11t-1 11z" />
    <glyph glyph-name="lcaron" unicode="&#x13e;" horiz-adv-x="460" 
d="M279 1481v-1481h-95v1481h95zM508 1329q-18 -6 -35 -6q-30 0 -50 16t-20 50q0 30 20 49.5t54 19.5q48 0 72 -34t24 -81q0 -61 -32 -122t-101 -107l-26 37q37 30 66.5 73t29.5 83q0 3 -1 11t-1 11z" />
    <glyph glyph-name="Ldot" unicode="&#x13f;" horiz-adv-x="1056" 
d="M1012 82v-82h-789v1434h96v-1352h693zM678 553q0 35 22.5 58.5t57.5 23.5t59.5 -23.5t24.5 -58.5t-24.5 -58.5t-59.5 -23.5t-57.5 23.5t-22.5 58.5z" />
    <glyph glyph-name="ldot" unicode="&#x140;" horiz-adv-x="563" 
d="M279 1481v-1481h-95v1481h95zM438 553q0 35 22.5 58.5t57.5 23.5t59.5 -23.5t24.5 -58.5t-24.5 -58.5t-59.5 -23.5t-57.5 23.5t-22.5 58.5z" />
    <glyph glyph-name="Lslash" unicode="&#x141;" horiz-adv-x="1046" 
d="M330 735l344 150v-74q-140 -62 -344 -149v-580h692v-82h-789v618l-208 -90v74l208 90v742h97v-699z" />
    <glyph glyph-name="lslash" unicode="&#x142;" horiz-adv-x="559" 
d="M313 1481v-762l228 98v-74l-228 -98v-645h-94v604l-184 -80v76l184 78v803h94z" />
    <glyph glyph-name="Nacute" unicode="&#x143;" horiz-adv-x="1550" 
d="M1249 0l-930 1264v-1264h-96v1434h80l928 -1262v1262h96v-1434h-78zM874 1851h107l-201 -284h-78z" />
    <glyph glyph-name="nacute" unicode="&#x144;" horiz-adv-x="1224" 
d="M973 0v584q0 104 -28.5 179t-78.5 115t-106 58t-121 18q-40 0 -84.5 -11.5t-95.5 -43t-91.5 -78t-68 -124t-29.5 -173.5v-524h-94v1016h94v-236q26 68 70.5 120t97 81t104 43t101.5 14q67 0 126 -13.5t115 -46.5t95.5 -83.5t63.5 -130t24 -180.5v-584h-94zM727 1481h111
l-222 -307h-77z" />
    <glyph glyph-name="Ncommaaccent" unicode="&#x145;" horiz-adv-x="1550" 
d="M1249 0l-930 1264v-1264h-96v1434h80l928 -1262v1262h96v-1434h-78zM791 -256q-18 -6 -35 -6q-30 0 -50 15.5t-20 49.5q0 30 20 50t54 20q48 0 72 -34t24 -81q0 -61 -32 -122t-101 -107l-27 37q38 30 67.5 72.5t29.5 82.5q0 3 -1 11.5t-1 11.5z" />
    <glyph glyph-name="ncommaaccent" unicode="&#x146;" horiz-adv-x="1224" 
d="M973 0v584q0 104 -28.5 179t-78.5 115t-106 58t-121 18q-40 0 -84.5 -11.5t-95.5 -43t-91.5 -78t-68 -124t-29.5 -173.5v-524h-94v1016h94v-236q26 68 70.5 120t97 81t104 43t101.5 14q67 0 126 -13.5t115 -46.5t95.5 -83.5t63.5 -130t24 -180.5v-584h-94zM629 -256
q-18 -6 -35 -6q-30 0 -50 15.5t-20 49.5q0 30 20 50t54 20q48 0 72 -34t24 -81q0 -61 -32 -122t-101 -107l-26 37q37 30 66.5 72.5t29.5 82.5q0 3 -1 11.5t-1 11.5z" />
    <glyph glyph-name="Ncaron" unicode="&#x147;" horiz-adv-x="1550" 
d="M1249 0l-930 1264v-1264h-96v1434h80l928 -1262v1262h96v-1434h-78zM815 1567h-106l-213 284h73l191 -225l192 225h76z" />
    <glyph glyph-name="ncaron" unicode="&#x148;" horiz-adv-x="1224" 
d="M973 0v584q0 104 -28.5 179t-78.5 115t-106 58t-121 18q-40 0 -84.5 -11.5t-95.5 -43t-91.5 -78t-68 -124t-29.5 -173.5v-524h-94v1016h94v-236q26 68 70.5 120t97 81t104 43t101.5 14q67 0 126 -13.5t115 -46.5t95.5 -83.5t63.5 -130t24 -180.5v-584h-94zM664 1174h-109
l-229 307h73l209 -244l211 244h74z" />
    <glyph glyph-name="napostrophe" unicode="&#x149;" horiz-adv-x="1290" 
d="M1071 0v584q0 104 -28.5 179t-78.5 115t-106 58t-121 18q-40 0 -84.5 -11.5t-95.5 -43t-91 -78t-67.5 -124t-29.5 -173.5v-524h-95v1016h95v-236q26 68 70.5 120t96.5 81t103.5 43t101.5 14q67 0 126 -13.5t115 -46.5t95.5 -83.5t63.5 -130t24 -180.5v-584h-94zM160 1327
q-18 -6 -35 -6q-30 0 -50 15.5t-20 49.5q0 30 20 50t54 20q48 0 72 -34t24 -81q0 -61 -32 -122t-101 -107l-26 37q37 30 66.5 73t29.5 83q0 3 -1 11t-1 11z" />
    <glyph glyph-name="Eng" unicode="&#x14a;" horiz-adv-x="1548" 
d="M1159 207l-842 1046v-1253h-96v1434h66l944 -1168v1168h96v-1196q0 -354 -134.5 -531t-404.5 -188l-4 88q191 11 302 126.5t137 336.5q0 62 -64 137z" />
    <glyph glyph-name="eng" unicode="&#x14b;" horiz-adv-x="1222" 
d="M971 78v506q0 104 -28.5 179t-78 115t-105.5 58t-122 18q-40 0 -84.5 -11.5t-95.5 -43t-91.5 -78t-68 -124t-29.5 -173.5v-524h-94v1016h94v-236q26 68 70.5 120t97 81t104 43t101.5 14q67 0 126 -13.5t115 -46.5t95.5 -83.5t63.5 -130t24 -180.5v-496
q0 -273 -112 -415.5t-320 -153.5q0 9 -2 43t-2 43q167 8 254.5 127.5t87.5 345.5z" />
    <glyph glyph-name="Omacron" unicode="&#x14c;" horiz-adv-x="1699" 
d="M106 717q0 201 100 371t271 269t373 99q151 0 288.5 -58.5t237 -157.5t158.5 -236t59 -287t-59 -287t-158.5 -236.5t-237 -158t-288.5 -58.5t-289 58.5t-237.5 158t-158.5 236.5t-59 287zM207 717q0 -177 86.5 -327t234.5 -237t322 -87t322 87t234.5 237t86.5 327
t-86.5 327t-234.5 237t-322 87t-322 -87t-234.5 -237t-86.5 -327zM600 1724h498v-77h-498v77z" />
    <glyph glyph-name="omacron" unicode="&#x14d;" horiz-adv-x="1253" 
d="M92 506q0 144 72 266.5t195 194t266 71.5q145 0 268.5 -72t195.5 -194.5t72 -265.5q0 -142 -72 -264t-195.5 -193.5t-268.5 -71.5q-107 0 -205.5 41.5t-170.5 112t-114.5 169t-42.5 206.5zM188 506q0 -184 129 -314.5t308 -130.5q182 0 311 130.5t129 314.5
q0 185 -129.5 316.5t-310.5 131.5q-179 0 -308 -132t-129 -316zM377 1374h497v-78h-497v78z" />
    <glyph glyph-name="Obreve" unicode="&#x14e;" horiz-adv-x="1699" 
d="M106 717q0 201 100 371t271 269t373 99q151 0 288.5 -58.5t237 -157.5t158.5 -236t59 -287t-59 -287t-158.5 -236.5t-237 -158t-288.5 -58.5t-289 58.5t-237.5 158t-158.5 236.5t-59 287zM207 717q0 -177 86.5 -327t234.5 -237t322 -87t322 87t234.5 237t86.5 327
t-86.5 327t-234.5 237t-322 87t-322 -87t-234.5 -237t-86.5 -327zM1049 1839l63 -6q-11 -119 -82 -190.5t-180 -71.5q-106 0 -177 72t-81 190l63 6q13 -87 64 -143t133 -56t133 56t64 143z" />
    <glyph glyph-name="obreve" unicode="&#x14f;" horiz-adv-x="1253" 
d="M92 506q0 144 72 266.5t195 194t266 71.5q145 0 268.5 -72t195.5 -194.5t72 -265.5q0 -142 -72 -264t-195.5 -193.5t-268.5 -71.5q-107 0 -205.5 41.5t-170.5 112t-114.5 169t-42.5 206.5zM188 506q0 -184 129 -314.5t308 -130.5q182 0 311 130.5t129 314.5
q0 185 -129.5 316.5t-310.5 131.5q-179 0 -308 -132t-129 -316zM825 1464l66 -6q-12 -127 -83.5 -198.5t-182.5 -71.5q-110 0 -181.5 72t-81.5 198l66 6q11 -89 63 -144.5t136 -55.5q83 0 134 55t64 145z" />
    <glyph glyph-name="Ohungarumlaut" unicode="&#x150;" horiz-adv-x="1699" 
d="M106 717q0 201 100 371t271 269t373 99q151 0 288.5 -58.5t237 -157.5t158.5 -236t59 -287t-59 -287t-158.5 -236.5t-237 -158t-288.5 -58.5t-289 58.5t-237.5 158t-158.5 236.5t-59 287zM207 717q0 -177 86.5 -327t234.5 -237t322 -87t322 87t234.5 237t86.5 327
t-86.5 327t-234.5 237t-322 87t-322 -87t-234.5 -237t-86.5 -327zM805 1851h100l-192 -284h-80zM1098 1851h100l-192 -284h-82z" />
    <glyph glyph-name="ohungarumlaut" unicode="&#x151;" horiz-adv-x="1253" 
d="M92 506q0 144 72 266.5t195 194t266 71.5q145 0 268.5 -72t195.5 -194.5t72 -265.5q0 -142 -72 -264t-195.5 -193.5t-268.5 -71.5q-107 0 -205.5 41.5t-170.5 112t-114.5 169t-42.5 206.5zM188 506q0 -184 129 -314.5t308 -130.5q182 0 311 130.5t129 314.5
q0 185 -129.5 316.5t-310.5 131.5q-179 0 -308 -132t-129 -316zM588 1481h100l-209 -307h-80zM881 1481h100l-211 -307h-78z" />
    <glyph glyph-name="OE" unicode="&#x152;" horiz-adv-x="2037" 
d="M848 82h217v1268h-217q-175 0 -321.5 -81t-232 -225t-85.5 -321q0 -178 85.5 -325.5t232 -231.5t321.5 -84zM1927 0h-1079q-152 0 -288.5 56t-235.5 151.5t-157 230t-58 285.5q0 201 99 364.5t268 255t372 91.5h1079v-84h-766v-605h668v-83h-668v-580h766v-82z" />
    <glyph glyph-name="oe" unicode="&#x153;" horiz-adv-x="2009" 
d="M1823 201l55 -58q-156 -166 -420 -166q-285 0 -430 195q-73 -92 -177.5 -143.5t-227.5 -51.5q-108 0 -206.5 41.5t-170 112t-114 168.5t-42.5 207q0 143 71.5 265.5t194.5 194.5t267 72q121 0 225 -52.5t178 -145.5q70 94 174 146t236 52q78 0 149 -18.5t133.5 -58.5
t109 -98t74.5 -141.5t31 -184.5h-921v-23q0 -125 49.5 -226t153 -164t245.5 -63q216 0 363 140zM186 504q0 -184 129 -313.5t308 -129.5q108 0 199.5 49.5t152.5 137.5q-60 117 -60 254q0 141 60 258q-58 89 -151 141.5t-201 52.5q-88 0 -168.5 -36t-139.5 -96.5t-94 -143.5
t-35 -174zM1436 954q-157 0 -267.5 -91.5t-148.5 -250.5h817q-12 88 -50.5 155.5t-94 107.5t-120.5 59.5t-136 19.5z" />
    <glyph glyph-name="Racute" unicode="&#x154;" horiz-adv-x="1378" 
d="M317 0h-96v1434h574q185 0 296 -125.5t111 -304.5q0 -171 -98 -288.5t-270 -129.5q3 -57 16.5 -122t42 -137t67 -129t97.5 -94.5t129 -37.5q87 0 149 45q6 -10 12.5 -21.5t14 -25.5t12.5 -23q-39 -31 -92 -47.5t-100 -16.5q-93 0 -169.5 45t-124 112.5t-81.5 153
t-48.5 158.5t-17.5 138h-424v-584zM317 666h465q148 0 234 96t86 242q0 147 -86.5 246.5t-233.5 99.5h-465v-684zM731 1851h107l-201 -284h-78z" />
    <glyph glyph-name="racute" unicode="&#x155;" horiz-adv-x="688" 
d="M270 1016v-268q79 290 336 290q43 0 74 -8v-94q-35 12 -78 12q-84 0 -147.5 -41.5t-102.5 -117.5t-59.5 -175.5t-22.5 -222.5v-391h-94v1016h94zM352 1481h111l-221 -307h-78z" />
    <glyph glyph-name="Rcommaaccent" unicode="&#x156;" horiz-adv-x="1378" 
d="M317 0h-96v1434h574q185 0 296 -125.5t111 -304.5q0 -171 -98 -288.5t-270 -129.5q3 -57 16.5 -122t42 -137t67 -129t97.5 -94.5t129 -37.5q87 0 149 45q6 -10 12.5 -21.5t14 -25.5t12.5 -23q-39 -31 -92 -47.5t-100 -16.5q-93 0 -169.5 45t-124 112.5t-81.5 153
t-48.5 158.5t-17.5 138h-424v-584zM317 666h465q148 0 234 96t86 242q0 147 -86.5 246.5t-233.5 99.5h-465v-684zM664 -256q-18 -6 -35 -6q-30 0 -50 15.5t-20 49.5q0 30 20 50t54 20q48 0 72 -34t24 -81q0 -61 -32 -122t-101 -107l-27 37q38 30 67.5 72.5t29.5 82.5
q0 3 -1 11.5t-1 11.5z" />
    <glyph glyph-name="rcommaaccent" unicode="&#x157;" horiz-adv-x="688" 
d="M270 1016v-268q79 290 336 290q43 0 74 -8v-94q-35 12 -78 12q-84 0 -147.5 -41.5t-102.5 -117.5t-59.5 -175.5t-22.5 -222.5v-391h-94v1016h94zM262 -256q-18 -6 -35 -6q-30 0 -49.5 15.5t-19.5 49.5q0 30 19.5 50t53.5 20q48 0 72.5 -34t24.5 -81q0 -61 -32 -122
t-101 -107l-27 37q37 30 66.5 72.5t29.5 82.5q0 3 -1 11.5t-1 11.5z" />
    <glyph glyph-name="Rcaron" unicode="&#x158;" horiz-adv-x="1378" 
d="M317 0h-96v1434h574q185 0 296 -125.5t111 -304.5q0 -171 -98 -288.5t-270 -129.5q3 -57 16.5 -122t42 -137t67 -129t97.5 -94.5t129 -37.5q87 0 149 45q6 -10 12.5 -21.5t14 -25.5t12.5 -23q-39 -31 -92 -47.5t-100 -16.5q-93 0 -169.5 45t-124 112.5t-81.5 153
t-48.5 158.5t-17.5 138h-424v-584zM317 666h465q148 0 234 96t86 242q0 147 -86.5 246.5t-233.5 99.5h-465v-684zM680 1567h-107l-213 284h74l191 -225l192 225h76z" />
    <glyph glyph-name="rcaron" unicode="&#x159;" horiz-adv-x="688" 
d="M270 1016v-268q79 290 336 290q43 0 74 -8v-94q-35 12 -78 12q-84 0 -147.5 -41.5t-102.5 -117.5t-59.5 -175.5t-22.5 -222.5v-391h-94v1016h94zM408 1174h-109l-229 307h73l209 -244l211 244h74z" />
    <glyph glyph-name="Sacute" unicode="&#x15a;" horiz-adv-x="1169" 
d="M657 1851h107l-201 -284h-78zM590 1368q-145 0 -244.5 -77t-99.5 -206q0 -37 9 -68.5t33 -67t74 -67t123 -55.5l250 -82q142 -44 239 -145t97 -233q0 -166 -132.5 -278t-348.5 -112q-189 0 -323.5 88t-182.5 214l96 26q36 -96 144.5 -167.5t263.5 -71.5q176 0 279.5 85.5
t103.5 210.5q0 110 -78 184.5t-188 108.5l-250 82q-310 97 -310 344q0 114 62 201t162 130.5t221 43.5q169 0 285.5 -81t152.5 -214l-90 -28q-26 107 -120 171t-228 64z" />
    <glyph glyph-name="sacute" unicode="&#x15b;" horiz-adv-x="858" 
d="M82 188l88 25q29 -71 98.5 -108t165.5 -37q100 0 171 52.5t71 139.5q0 129 -164 184l-152 48q-241 67 -241 266q0 111 85.5 195.5t233.5 84.5q96 0 177.5 -50t115.5 -142l-86 -25q-28 65 -84 96t-123 31q-103 0 -163 -57t-60 -133q0 -40 14 -70.5t40.5 -51t52.5 -33
t63 -25.5l154 -48q119 -37 176 -108t57 -162q0 -126 -99.5 -204.5t-238.5 -78.5q-125 0 -219.5 56t-132.5 155zM535 1481h110l-221 -307h-78z" />
    <glyph glyph-name="Scircumflex" unicode="&#x15c;" horiz-adv-x="1169" 
d="M526 1851h107l213 -284h-76l-192 223l-191 -223h-74zM590 1368q-145 0 -244.5 -77t-99.5 -206q0 -37 9 -68.5t33 -67t74 -67t123 -55.5l250 -82q142 -44 239 -145t97 -233q0 -166 -132.5 -278t-348.5 -112q-189 0 -323.5 88t-182.5 214l96 26q36 -96 144.5 -167.5
t263.5 -71.5q176 0 279.5 85.5t103.5 210.5q0 110 -78 184.5t-188 108.5l-250 82q-310 97 -310 344q0 114 62 201t162 130.5t221 43.5q169 0 285.5 -81t152.5 -214l-90 -28q-26 107 -120 171t-228 64z" />
    <glyph glyph-name="scircumflex" unicode="&#x15d;" horiz-adv-x="858" 
d="M82 188l88 25q29 -71 98.5 -108t165.5 -37q100 0 171 52.5t71 139.5q0 129 -164 184l-152 48q-241 67 -241 266q0 111 85.5 195.5t233.5 84.5q96 0 177.5 -50t115.5 -142l-86 -25q-28 65 -84 96t-123 31q-103 0 -163 -57t-60 -133q0 -40 14 -70.5t40.5 -51t52.5 -33
t63 -25.5l154 -48q119 -37 176 -108t57 -162q0 -126 -99.5 -204.5t-238.5 -78.5q-125 0 -219.5 56t-132.5 155zM371 1481h108l230 -307h-74l-211 243l-209 -243h-74z" />
    <glyph glyph-name="Scedilla" unicode="&#x15e;" horiz-adv-x="1169" 
d="M590 1368q-145 0 -244.5 -77t-99.5 -206q0 -37 9 -68.5t33 -67t74 -67t123 -55.5l250 -82q142 -44 239 -145t97 -233q0 -141 -99.5 -245.5t-269.5 -133.5q103 -90 103 -207q0 -112 -77.5 -175t-178.5 -63t-173 62t-93 157l57 31q18 -75 75.5 -124.5t131.5 -49.5
q72 0 127 47t55 127q0 104 -100 187q-2 0 -5.5 -1t-11.5 -1.5t-22 -0.5q-189 0 -323.5 88t-182.5 214l96 26q36 -96 144.5 -167.5t263.5 -71.5q176 0 279.5 85.5t103.5 210.5q0 110 -78 184.5t-188 108.5l-250 82q-310 97 -310 344q0 114 62 201t162 130.5t221 43.5
q169 0 285.5 -81t152.5 -214l-90 -28q-26 107 -120 171t-228 64z" />
    <glyph glyph-name="scedilla" unicode="&#x15f;" horiz-adv-x="858" 
d="M82 188l88 25q29 -71 98.5 -108t165.5 -37q100 0 171 52.5t71 139.5q0 129 -164 184l-152 48q-241 67 -241 266q0 111 85.5 195.5t233.5 84.5q96 0 177.5 -50t115.5 -142l-86 -25q-28 65 -84 96t-123 31q-103 0 -163 -57t-60 -133q0 -40 14 -70.5t40.5 -51t52.5 -33
t63 -25.5l154 -48q119 -37 176 -108t57 -162q0 -106 -68.5 -177t-177.5 -95q59 -40 84 -97.5t25 -109.5q0 -112 -77.5 -175t-178.5 -63t-173 62t-93 157l57 31q18 -75 75.5 -124.5t131.5 -49.5q72 0 127 47t55 127q0 96 -106 184h-19q-125 0 -219.5 56t-132.5 155z" />
    <glyph glyph-name="Scaron" unicode="&#x160;" horiz-adv-x="1169" 
d="M633 1567h-107l-213 284h74l191 -225l192 225h76zM590 1368q-145 0 -244.5 -77t-99.5 -206q0 -37 9 -68.5t33 -67t74 -67t123 -55.5l250 -82q142 -44 239 -145t97 -233q0 -166 -132.5 -278t-348.5 -112q-189 0 -323.5 88t-182.5 214l96 26q36 -96 144.5 -167.5
t263.5 -71.5q176 0 279.5 85.5t103.5 210.5q0 110 -78 184.5t-188 108.5l-250 82q-310 97 -310 344q0 114 62 201t162 130.5t221 43.5q169 0 285.5 -81t152.5 -214l-90 -28q-26 107 -120 171t-228 64z" />
    <glyph glyph-name="scaron" unicode="&#x161;" horiz-adv-x="858" 
d="M82 188l88 25q29 -71 98.5 -108t165.5 -37q100 0 171 52.5t71 139.5q0 129 -164 184l-152 48q-241 67 -241 266q0 111 85.5 195.5t233.5 84.5q96 0 177.5 -50t115.5 -142l-86 -25q-28 65 -84 96t-123 31q-103 0 -163 -57t-60 -133q0 -40 14 -70.5t40.5 -51t52.5 -33
t63 -25.5l154 -48q119 -37 176 -108t57 -162q0 -126 -99.5 -204.5t-238.5 -78.5q-125 0 -219.5 56t-132.5 155zM479 1174h-108l-230 307h74l209 -244l211 244h74z" />
    <glyph glyph-name="Tcommaaccent" unicode="&#x162;" horiz-adv-x="1220" 
d="M31 1434h1159v-84h-531v-1350h-96v1350h-532v84zM629 -256q-18 -6 -35 -6q-30 0 -50 15.5t-20 49.5q0 30 20 50t54 20q48 0 72 -34t24 -81q0 -61 -32 -122t-101 -107l-26 37q37 30 66.5 72.5t29.5 82.5q0 3 -1 11.5t-1 11.5z" />
    <glyph glyph-name="tcommaaccent" unicode="&#x163;" horiz-adv-x="782" 
d="M518 -256q-18 -6 -35 -6q-30 0 -49.5 15.5t-19.5 49.5q0 30 19.5 50t53.5 20q48 0 72.5 -34t24.5 -81q0 -61 -32 -122t-101 -107l-27 37q37 30 66.5 72.5t29.5 82.5q0 3 -1 11.5t-1 11.5zM307 938v-631q0 -246 187 -246q78 0 127 46t49 118q0 37 -11 62h89q10 -27 10 -47
q2 -6 2 -23q0 -106 -71 -173t-195 -67q-281 0 -281 334v627h-182v78h182l23 327h71v-327h336v-78h-336z" />
    <glyph glyph-name="Tcaron" unicode="&#x164;" horiz-adv-x="1220" 
d="M31 1434h1159v-84h-531v-1350h-96v1350h-532v84zM664 1567h-107l-213 284h74l190 -225l193 225h76z" />
    <glyph glyph-name="tcaron" unicode="&#x165;" horiz-adv-x="782" 
d="M641 1419q-18 -6 -35 -6q-29 0 -49 16t-20 50q0 30 19.5 49.5t53.5 19.5q48 0 72.5 -33.5t24.5 -80.5q0 -61 -32.5 -122.5t-101.5 -107.5l-26 37q37 30 66.5 73t29.5 83q0 3 -1 11t-1 11zM307 938v-631q0 -246 187 -246q78 0 127 46t49 118q0 37 -11 62h89q10 -27 10 -47
q2 -6 2 -23q0 -106 -71 -173t-195 -67q-281 0 -281 334v627h-182v78h182l23 327h71v-327h336v-78h-336z" />
    <glyph glyph-name="Tbar" unicode="&#x166;" horiz-adv-x="1253" 
d="M47 1434h1159v-84h-530v-510h317v-74h-317v-766h-96v766h-320v74h320v510h-533v84z" />
    <glyph glyph-name="tbar" unicode="&#x167;" horiz-adv-x="784" 
d="M309 938v-334h252v-65h-252v-232q0 -246 187 -246q78 0 127 46t49 118q0 39 -10 62h88q10 -27 10 -47q2 -6 2 -23q0 -106 -71 -173t-195 -67q-281 0 -281 334v228h-147v65h147v334h-182v78h182l23 327h71v-327h336v-78h-336z" />
    <glyph glyph-name="Utilde" unicode="&#x168;" horiz-adv-x="1499" 
d="M1202 1434h96v-918q0 -130 -43.5 -234t-119 -169.5t-173.5 -100.5t-210 -35q-113 0 -212 35t-174.5 100.5t-119 169.5t-43.5 234v918h96v-918q0 -110 36 -197.5t99 -141.5t144 -82.5t174 -28.5q94 0 174.5 28t142.5 82.5t97.5 142t35.5 197.5v918zM885 1620
q-47 0 -135 44t-134 44q-35 0 -52 -19t-44 -79l-49 12q29 93 60 127.5t83 34.5q47 0 138 -45t131 -45q35 0 52.5 18t43.5 76l49 -10q-29 -92 -60 -125t-83 -33z" />
    <glyph glyph-name="utilde" unicode="&#x169;" horiz-adv-x="1226" 
d="M252 1016v-584q0 -84 19.5 -149.5t51 -106.5t76 -67.5t90.5 -37t97 -10.5q40 0 84.5 12t96 43t92 77.5t68 124.5t29.5 174v524h95v-1016h-95v233q-34 -89 -101 -149t-135.5 -83.5t-137.5 -23.5q-67 0 -126 13.5t-115 46.5t-95.5 84t-63.5 130.5t-24 180.5v584h94z
M752 1260q-47 0 -135 45t-134 45q-34 0 -51.5 -19.5t-44.5 -79.5l-49 11q28 94 59 127.5t84 33.5q47 0 138 -44t131 -44q35 0 52 18.5t44 76.5l49 -11q-28 -94 -59 -126.5t-84 -32.5z" />
    <glyph glyph-name="Umacron" unicode="&#x16a;" horiz-adv-x="1499" 
d="M1202 1434h96v-918q0 -130 -43.5 -234t-119 -169.5t-173.5 -100.5t-210 -35q-113 0 -212 35t-174.5 100.5t-119 169.5t-43.5 234v918h96v-918q0 -110 36 -197.5t99 -141.5t144 -82.5t174 -28.5q94 0 174.5 28t142.5 82.5t97.5 142t35.5 197.5v918zM502 1724h497v-77h-497
v77z" />
    <glyph glyph-name="umacron" unicode="&#x16b;" horiz-adv-x="1226" 
d="M252 1016v-584q0 -84 19.5 -149.5t51 -106.5t76 -67.5t90.5 -37t97 -10.5q40 0 84.5 12t96 43t92 77.5t68 124.5t29.5 174v524h95v-1016h-95v233q-34 -89 -101 -149t-135.5 -83.5t-137.5 -23.5q-67 0 -126 13.5t-115 46.5t-95.5 84t-63.5 130.5t-24 180.5v584h94z
M367 1374h497v-78h-497v78z" />
    <glyph glyph-name="Ubreve" unicode="&#x16c;" horiz-adv-x="1499" 
d="M1202 1434h96v-918q0 -130 -43.5 -234t-119 -169.5t-173.5 -100.5t-210 -35q-113 0 -212 35t-174.5 100.5t-119 169.5t-43.5 234v918h96v-918q0 -110 36 -197.5t99 -141.5t144 -82.5t174 -28.5q94 0 174.5 28t142.5 82.5t97.5 142t35.5 197.5v918zM948 1839l64 -6
q-11 -119 -82 -190.5t-180 -71.5q-106 0 -177 72t-81 190l63 6q13 -87 64 -143t133 -56t132.5 56t63.5 143z" />
    <glyph glyph-name="ubreve" unicode="&#x16d;" horiz-adv-x="1226" 
d="M252 1016v-584q0 -84 19.5 -149.5t51 -106.5t76 -67.5t90.5 -37t97 -10.5q40 0 84.5 12t96 43t92 77.5t68 124.5t29.5 174v524h95v-1016h-95v233q-34 -89 -101 -149t-135.5 -83.5t-137.5 -23.5q-67 0 -126 13.5t-115 46.5t-95.5 84t-63.5 130.5t-24 180.5v584h94z
M815 1464l66 -6q-12 -126 -84 -198t-183 -72q-110 0 -181 72t-81 198l66 6q11 -90 62.5 -145t135.5 -55q83 0 134.5 55t64.5 145z" />
    <glyph glyph-name="Uring" unicode="&#x16e;" horiz-adv-x="1499" 
d="M1202 1434h96v-918q0 -130 -43.5 -234t-119 -169.5t-173.5 -100.5t-210 -35q-113 0 -212 35t-174.5 100.5t-119 169.5t-43.5 234v918h96v-918q0 -110 36 -197.5t99 -141.5t144 -82.5t174 -28.5q94 0 174.5 28t142.5 82.5t97.5 142t35.5 197.5v918zM567 1726
q0 76 54.5 124t134.5 48t134 -48t54 -124t-54 -123t-134 -47t-134.5 47t-54.5 123zM627 1726q0 -53 36.5 -85.5t92.5 -32.5q55 0 91 32.5t36 85.5t-36 86t-91 33q-56 0 -92.5 -33t-36.5 -86z" />
    <glyph glyph-name="uring" unicode="&#x16f;" horiz-adv-x="1226" 
d="M252 1016v-584q0 -84 19.5 -149.5t51 -106.5t76 -67.5t90.5 -37t97 -10.5q40 0 84.5 12t96 43t92 77.5t68 124.5t29.5 174v524h95v-1016h-95v233q-34 -89 -101 -149t-135.5 -83.5t-137.5 -23.5q-67 0 -126 13.5t-115 46.5t-95.5 84t-63.5 130.5t-24 180.5v584h94z
M428 1362q0 78 55 133t133 55q77 0 133 -56t56 -132q0 -78 -55.5 -133t-133.5 -55t-133 55t-55 133zM487 1362q0 -56 36.5 -92.5t92.5 -36.5q54 0 90.5 37t36.5 92q0 54 -36.5 90.5t-90.5 36.5q-55 0 -92 -36.5t-37 -90.5z" />
    <glyph glyph-name="Uhungarumlaut" unicode="&#x170;" horiz-adv-x="1499" 
d="M1202 1434h96v-918q0 -130 -43.5 -234t-119 -169.5t-173.5 -100.5t-210 -35q-113 0 -212 35t-174.5 100.5t-119 169.5t-43.5 234v918h96v-918q0 -110 36 -197.5t99 -141.5t144 -82.5t174 -28.5q94 0 174.5 28t142.5 82.5t97.5 142t35.5 197.5v918zM696 1851h101
l-193 -284h-80zM989 1851h101l-193 -284h-82z" />
    <glyph glyph-name="uhungarumlaut" unicode="&#x171;" horiz-adv-x="1226" 
d="M252 1016v-584q0 -84 19.5 -149.5t51 -106.5t76 -67.5t90.5 -37t97 -10.5q40 0 84.5 12t96 43t92 77.5t68 124.5t29.5 174v524h95v-1016h-95v233q-34 -89 -101 -149t-135.5 -83.5t-137.5 -23.5q-67 0 -126 13.5t-115 46.5t-95.5 84t-63.5 130.5t-24 180.5v584h94z
M553 1481h100l-209 -307h-79zM846 1481h100l-211 -307h-78z" />
    <glyph glyph-name="Uogonek" unicode="&#x172;" horiz-adv-x="1499" 
d="M1202 1434h96v-918q0 -123 -40 -223.5t-109.5 -166t-160 -103t-195.5 -43.5q-101 -80 -101 -187q0 -80 55 -127t127 -47q74 0 131.5 49.5t75.5 124.5l58 -31q-21 -95 -93.5 -157t-173.5 -62t-178.5 63t-77.5 175q0 116 93 199q-106 6 -197 43.5t-160.5 103t-109 166
t-39.5 223.5v918h96v-918q0 -110 36 -197.5t99 -141.5t144 -82.5t174 -28.5q94 0 174.5 28t142.5 82.5t97.5 142t35.5 197.5v918z" />
    <glyph glyph-name="uogonek" unicode="&#x173;" horiz-adv-x="1224" 
d="M252 1016v-584q0 -84 19.5 -149.5t51 -106.5t76 -67.5t90.5 -37t97 -10.5q40 0 84.5 12t96 43t92 77.5t68 124.5t29.5 174v524h95v-993l-37 -23q-131 -83 -131 -207q0 -80 55 -127t127 -47q74 0 131.5 49.5t75.5 124.5l57 -31q-21 -95 -93 -157t-173 -62t-178.5 63
t-77.5 175q0 57 33.5 121.5t115.5 117.5v213q-34 -89 -101 -149t-135.5 -83.5t-137.5 -23.5q-67 0 -126 13.5t-115 46.5t-95.5 84t-63.5 130.5t-24 180.5v584h94z" />
    <glyph glyph-name="Wcircumflex" unicode="&#x174;" horiz-adv-x="2033" 
d="M1061 1386l389 -1239l416 1287h98l-463 -1434h-96l-389 1235l-387 -1235h-99l-460 1434h98l414 -1287l389 1239h90zM963 1851h106l213 -284h-76l-192 223l-191 -223h-73z" />
    <glyph glyph-name="wcircumflex" unicode="&#x175;" horiz-adv-x="1697" 
d="M508 119l297 858h88l295 -858l352 897h98l-401 -1016h-92l-297 846l-295 -846h-92l-402 1016h99zM793 1481h108l229 -307h-73l-211 243l-209 -243h-74z" />
    <glyph glyph-name="Ycircumflex" unicode="&#x176;" horiz-adv-x="1284" 
d="M594 0v596l-537 838h113l471 -748l475 748h111l-537 -838v-596h-96zM590 1851h106l213 -284h-75l-193 223l-190 -223h-74z" />
    <glyph glyph-name="ycircumflex" unicode="&#x177;" horiz-adv-x="1083" 
d="M547 94l375 922h108l-618 -1475h-99l181 443l-443 1032h107zM481 1481h109l229 -307h-74l-210 243l-209 -243h-74z" />
    <glyph glyph-name="Ydieresis" unicode="&#x178;" horiz-adv-x="1284" 
d="M594 0v596l-537 838h113l471 -748l475 748h111l-537 -838v-596h-96zM354 1690q0 31 21.5 53t52.5 22q32 0 54 -22t22 -53t-22 -53.5t-54 -22.5q-31 0 -52.5 22.5t-21.5 53.5zM782 1690q0 31 21.5 53t52.5 22q32 0 54 -22t22 -53t-22 -53.5t-54 -22.5q-31 0 -52.5 22.5
t-21.5 53.5z" />
    <glyph glyph-name="Zacute" unicode="&#x179;" horiz-adv-x="1263" 
d="M1206 82v-82h-1153v78l977 1272h-924v84h1051v-80l-981 -1272h1030zM713 1851h106l-201 -284h-77z" />
    <glyph glyph-name="zacute" unicode="&#x17a;" horiz-adv-x="1110" 
d="M1049 0h-994v72l817 864h-761v80h890v-72l-819 -864h867v-80zM625 1481h110l-221 -307h-78z" />
    <glyph glyph-name="Zdotaccent" unicode="&#x17b;" horiz-adv-x="1263" 
d="M1206 82v-82h-1153v78l977 1272h-924v84h1051v-80l-981 -1272h1030zM561 1702q0 37 20 58.5t52 21.5q33 0 53.5 -22t20.5 -58q0 -35 -21 -57.5t-53 -22.5t-52 22.5t-20 57.5z" />
    <glyph glyph-name="zdotaccent" unicode="&#x17c;" horiz-adv-x="1110" 
d="M1049 0h-994v72l817 864h-761v80h890v-72l-819 -864h867v-80zM483 1309q0 37 21 60.5t53 23.5t53 -23.5t21 -60.5q0 -36 -20.5 -58t-53.5 -22t-53.5 22t-20.5 58z" />
    <glyph glyph-name="Zcaron" unicode="&#x17d;" horiz-adv-x="1263" 
d="M1206 82v-82h-1153v78l977 1272h-924v84h1051v-80l-981 -1272h1030zM639 1567h-107l-213 284h74l191 -225l192 225h76z" />
    <glyph glyph-name="zcaron" unicode="&#x17e;" horiz-adv-x="1110" 
d="M1049 0h-994v72l817 864h-761v80h890v-72l-819 -864h867v-80zM610 1174h-108l-230 307h74l209 -244l211 244h74z" />
    <glyph glyph-name="longs" unicode="&#x17f;" horiz-adv-x="542" 
d="M727 1255q0 75 -50.5 119.5t-139.5 44.5q-40 0 -75.5 -15t-67 -47.5t-50 -93.5t-18.5 -145v-1118h-95v938h-178v78h178v94q0 111 26.5 191t72 122t96.5 61t111 19q132 0 205 -67t73 -174q0 -11 -2 -17q0 -18 -8 -37h-86q8 16 8 47z" />
    <glyph glyph-name="florin" unicode="&#x192;" horiz-adv-x="821" 
d="M391 713v-799q0 -96 -21.5 -168.5t-54.5 -114.5t-80 -68t-90.5 -35t-93.5 -9q-81 0 -131 32l37 68q38 -16 94 -16q36 0 68 7t65.5 27t57 52.5t38.5 87.5t15 127v809h-180v78h180v270q0 96 21 168.5t54 114.5t79.5 68t90.5 35t95 9q82 0 131 -29l-39 -71q-35 16 -92 16
q-47 0 -86.5 -12.5t-77 -43.5t-59 -93.5t-21.5 -151.5v-280h309v-78h-309z" />
    <glyph glyph-name="Aringacute" unicode="&#x1fa;" horiz-adv-x="1349" 
d="M297 406h754l-377 935zM1083 322h-819l-129 -322h-102l579 1434h123l582 -1434h-103zM483 1720q0 70 45 112t117 50l84 150h105l-113 -154q63 -14 101 -54.5t38 -103.5q0 -75 -53.5 -118t-134.5 -43t-135 43t-54 118zM543 1720q0 -52 36 -81t93 -29q56 0 91.5 29t35.5 81
t-35.5 81.5t-91.5 29.5q-57 0 -93 -29t-36 -82z" />
    <glyph glyph-name="aringacute" unicode="&#x1fb;" horiz-adv-x="1325" 
d="M1055 0v256q-57 -127 -174 -203t-267 -76q-152 0 -272 71t-185 192.5t-65 269.5q0 145 63 264.5t183.5 191.5t277.5 72q151 0 267.5 -75t171.5 -201v254h94v-1016h-94zM618 61q189 0 314 129.5t125 319.5q0 188 -123 316t-318 128q-193 0 -310.5 -127t-117.5 -317
q0 -192 119.5 -320.5t310.5 -128.5zM446 1341q0 70 45.5 116t116.5 54l84 150h105l-113 -154q62 -14 100.5 -58t38.5 -108q0 -76 -54 -123t-134 -47t-134.5 47t-54.5 123zM506 1341q0 -53 36.5 -85.5t92.5 -32.5q55 0 91 32.5t36 85.5t-36 86t-91 33q-56 0 -92.5 -33
t-36.5 -86z" />
    <glyph glyph-name="AEacute" unicode="&#x1fc;" horiz-adv-x="1845" 
d="M1108 1851h106l-200 -284h-78zM528 731h383v619h-18zM1008 82h727v-82h-824v649h-430l-385 -649h-106l850 1434h895v-84h-727v-619h637v-84h-637v-565z" />
    <glyph glyph-name="aeacute" unicode="&#x1fd;" horiz-adv-x="1968" 
d="M1118 1481h111l-221 -307h-78zM874 461q-90 30 -197 45.5t-177 15.5q-171 0 -249.5 -66t-78.5 -165q0 -106 91 -168t224 -62q71 0 145 23t150 79t125 138q-2 7 -11 37.5t-11.5 41t-6 34.5t-4.5 47zM1399 954q-163 0 -279 -93.5t-153 -248.5h827q-12 88 -49.5 155.5
t-92 107.5t-118.5 59.5t-135 19.5zM874 537v75q0 340 -333 340q-208 0 -348 -108q-7 13 -19.5 37.5t-19.5 36.5q72 57 175 88.5t218 31.5q98 0 171.5 -23.5t116.5 -65.5t67 -86.5t38 -100.5q62 127 182 201.5t277 74.5q98 0 183.5 -29.5t154.5 -88.5t110 -157t45 -226h-931
q0 -99 28.5 -183.5t83.5 -150.5t144.5 -104t203.5 -38q212 0 359 140l55 -58q-156 -166 -414 -166q-163 0 -284 66t-189 182q-91 -131 -214.5 -189.5t-260.5 -58.5q-75 0 -145.5 20.5t-127 58.5t-90.5 98.5t-34 134.5q0 134 101.5 223.5t293.5 89.5q210 0 403 -65z" />
    <glyph glyph-name="Oslashacute" unicode="&#x1fe;" horiz-adv-x="1697" 
d="M106 717q0 201 100 371t271 269t373 99q201 0 379 -104l108 161l68 -47l-107 -161q138 -105 216.5 -258t78.5 -330q0 -150 -59 -287t-158.5 -236.5t-237 -158t-288.5 -58.5q-195 0 -373 99l-100 -152l-66 47l101 150q-143 105 -224.5 259.5t-81.5 336.5zM207 717
q0 -157 67.5 -292.5t186.5 -227.5l717 1079q-155 92 -328 92q-174 0 -322 -87t-234.5 -237t-86.5 -327zM1493 717q0 152 -65.5 285.5t-180.5 226.5l-719 -1077q150 -86 322 -86q174 0 322 87t234.5 237t86.5 327zM942 1851h107l-201 -284h-78z" />
    <glyph glyph-name="oslashacute" unicode="&#x1ff;" horiz-adv-x="1253" 
d="M748 1481h110l-221 -307h-78zM92 506q0 144 72 266.5t195 194t266 71.5q148 0 280 -82l96 134l58 -48l-94 -127q92 -75 144 -181.5t52 -227.5q0 -142 -72 -264t-195.5 -193.5t-268.5 -71.5q-154 0 -283 80l-92 -127l-57 47l90 123q-89 73 -140 179t-51 227zM1065 506
q0 98 -40.5 185.5t-111.5 150.5l-520 -713q109 -68 232 -68q182 0 311 130.5t129 314.5zM188 506q0 -98 39.5 -184.5t108.5 -147.5l518 713q-107 67 -229 67q-179 0 -308 -132t-129 -316z" />
    <glyph glyph-name="Scommaaccent" unicode="&#x218;" horiz-adv-x="1169" 
d="M633 -256q-18 -6 -35 -6q-30 0 -50 15.5t-20 49.5q0 30 20 50t54 20q48 0 72 -34t24 -81q0 -61 -32 -122t-101 -107l-26 37q37 30 66.5 72.5t29.5 82.5q0 3 -1 11.5t-1 11.5zM590 1368q-145 0 -244.5 -77t-99.5 -206q0 -37 9 -68.5t33 -67t74 -67t123 -55.5l250 -82
q142 -44 239 -145t97 -233q0 -166 -132.5 -278t-348.5 -112q-189 0 -323.5 88t-182.5 214l96 26q36 -96 144.5 -167.5t263.5 -71.5q176 0 279.5 85.5t103.5 210.5q0 110 -78 184.5t-188 108.5l-250 82q-310 97 -310 344q0 114 62 201t162 130.5t221 43.5q169 0 285.5 -81
t152.5 -214l-90 -28q-26 107 -120 171t-228 64z" />
    <glyph glyph-name="scommaaccent" unicode="&#x219;" horiz-adv-x="858" 
d="M469 -256q-18 -6 -35 -6q-30 0 -49.5 15.5t-19.5 49.5q0 30 19.5 50t53.5 20q48 0 72.5 -34t24.5 -81q0 -61 -32.5 -122t-101.5 -107l-26 37q37 30 66.5 72.5t29.5 82.5q0 3 -1 11.5t-1 11.5zM82 188l88 25q29 -71 98.5 -108t165.5 -37q100 0 171 52.5t71 139.5
q0 129 -164 184l-152 48q-241 67 -241 266q0 111 85.5 195.5t233.5 84.5q96 0 177.5 -50t115.5 -142l-86 -25q-28 65 -84 96t-123 31q-103 0 -163 -57t-60 -133q0 -40 14 -70.5t40.5 -51t52.5 -33t63 -25.5l154 -48q119 -37 176 -108t57 -162q0 -126 -99.5 -204.5
t-238.5 -78.5q-125 0 -219.5 56t-132.5 155z" />
    <glyph glyph-name="uni021A" unicode="&#x21a;" horiz-adv-x="1220" 
d="M31 1434h1159v-84h-531v-1350h-2q65 -49 92 -107.5t27 -111.5q0 -112 -77.5 -175t-178.5 -63t-173 62t-93 157l57 31q18 -75 75.5 -124.5t131.5 -49.5q72 0 127 47t55 127q0 51 -31 106t-100 101h-6v1350h-532v84z" />
    <glyph glyph-name="uni021B" unicode="&#x21b;" horiz-adv-x="782" 
d="M307 938v-631q0 -246 187 -246q78 0 127 46t49 118q0 37 -11 62h89q10 -27 10 -47q2 -6 2 -23q0 -96 -59 -160.5t-166 -76.5q94 -84 94 -199q0 -112 -77.5 -175t-178.5 -63t-173.5 62t-93.5 157l58 31q18 -75 75.5 -124.5t131.5 -49.5q72 0 127 47t55 127q0 107 -102 187
q-49 4 -89.5 22.5t-75 55t-54 101t-19.5 152.5v627h-182v78h182l23 327h71v-327h336v-78h-336z" />
    <glyph glyph-name="circumflex" unicode="&#x2c6;" horiz-adv-x="1107" 
d="M500 1481h108l230 -307h-74l-211 243l-209 -243h-74z" />
    <glyph glyph-name="caron" unicode="&#x2c7;" horiz-adv-x="1099" 
d="M604 1174h-108l-230 307h74l209 -244l211 244h74z" />
    <glyph glyph-name="uni02C9" unicode="&#x2c9;" horiz-adv-x="1030" 
d="M266 1374h498v-78h-498v78z" />
    <glyph glyph-name="breve" unicode="&#x2d8;" horiz-adv-x="1021" 
d="M709 1464l65 -6q-12 -127 -83.5 -198.5t-182.5 -71.5q-110 0 -181 72t-81 198l65 6q11 -89 63 -144.5t136 -55.5q83 0 134.5 55t64.5 145z" />
    <glyph glyph-name="dotaccent" unicode="&#x2d9;" horiz-adv-x="630" 
d="M242 1309q0 37 20.5 60.5t52.5 23.5t53 -23.5t21 -60.5q0 -36 -20.5 -58t-53.5 -22t-53 22t-20 58z" />
    <glyph glyph-name="ring" unicode="&#x2da;" horiz-adv-x="847" 
d="M236 1362q0 78 55 133t133 55q76 0 132 -56t56 -132q0 -78 -55 -133t-133 -55t-133 55t-55 133zM295 1362q0 -56 36.5 -92.5t92.5 -36.5q54 0 90.5 37t36.5 92q0 54 -36.5 90.5t-90.5 36.5q-55 0 -92 -36.5t-37 -90.5z" />
    <glyph glyph-name="ogonek" unicode="&#x2db;" horiz-adv-x="933" 
d="M418 20v-16q-73 -45 -105 -102t-32 -109q0 -80 55 -127t127 -47q74 0 131.5 49.5t75.5 124.5l57 -31q-21 -95 -93 -157t-173 -62t-178.5 63t-77.5 175q0 57 33.5 121.5t115.5 117.5h64z" />
    <glyph glyph-name="tilde" unicode="&#x2dc;" horiz-adv-x="1046" 
d="M657 1260q-47 0 -134.5 45t-133.5 45q-34 0 -51.5 -19.5t-44.5 -79.5l-49 11q28 94 59 127.5t84 33.5q47 0 137.5 -44t130.5 -44q35 0 53 19t44 76l49 -11q-28 -94 -59.5 -126.5t-84.5 -32.5z" />
    <glyph glyph-name="hungarumlaut" unicode="&#x2dd;" horiz-adv-x="1077" 
d="M436 1481h101l-209 -307h-80zM729 1481h100l-211 -307h-77z" />
    <glyph glyph-name="uni0394" unicode="&#x394;" horiz-adv-x="1464" 
d="M1247 82l-506 1257h-16l-504 -1257h1026zM662 1434h143l573 -1434h-1290z" />
    <glyph glyph-name="uni03A9" unicode="&#x3a9;" horiz-adv-x="1652" 
d="M825 1372q-179 0 -319.5 -84.5t-215.5 -227t-75 -315.5q0 -205 134.5 -398t324.5 -267v-80h-531v82h369q-166 100 -280.5 290.5t-114.5 383.5q0 192 87 351t250 254t371 95q156 0 290 -55.5t225.5 -150t143.5 -223t52 -271.5q0 -190 -115.5 -382.5t-281.5 -291.5h372v-82
h-534v80q123 48 229 154t169 242.5t63 268.5q0 173 -75.5 315.5t-216.5 227t-321 84.5z" />
    <glyph glyph-name="uni03BC" unicode="&#x3bc;" horiz-adv-x="1245" 
d="M270 1016v-584q0 -84 19.5 -149.5t51 -106.5t76 -67.5t90.5 -37t97 -10.5q40 0 85 12t96 43t92 77.5t68.5 124.5t29.5 174v524h94v-1016h-94v233q-34 -89 -101 -149t-136 -83.5t-138 -23.5q-221 0 -330 136v-404h-94v1307h94z" />
    <glyph glyph-name="pi" unicode="&#x3c0;" horiz-adv-x="1370" 
d="M862 932v-594q0 -279 197 -279q71 0 124.5 47t53.5 117q0 26 -8 47h84q4 -11 8 -37q2 -6 2 -16q0 -106 -70 -173t-194 -67q-291 0 -291 351v604h-436v-932h-94v932h-193v84h1083v-84h-266z" />
    <glyph glyph-name="Wgrave" unicode="&#x1e80;" horiz-adv-x="2033" 
d="M1061 1386l389 -1239l416 1287h98l-463 -1434h-96l-389 1235l-387 -1235h-99l-460 1434h98l414 -1287l389 1239h90zM805 1851h108l170 -284h-77z" />
    <glyph glyph-name="wgrave" unicode="&#x1e81;" horiz-adv-x="1697" 
d="M508 119l297 858h88l295 -858l352 897h98l-401 -1016h-92l-297 846l-295 -846h-92l-402 1016h99zM614 1481h111l188 -307h-79z" />
    <glyph glyph-name="Wacute" unicode="&#x1e82;" horiz-adv-x="2033" 
d="M1061 1386l389 -1239l416 1287h98l-463 -1434h-96l-389 1235l-387 -1235h-99l-460 1434h98l414 -1287l389 1239h90zM1126 1851h107l-201 -284h-78z" />
    <glyph glyph-name="wacute" unicode="&#x1e83;" horiz-adv-x="1697" 
d="M508 119l297 858h88l295 -858l352 897h98l-401 -1016h-92l-297 846l-295 -846h-92l-402 1016h99zM971 1481h110l-221 -307h-78z" />
    <glyph glyph-name="Wdieresis" unicode="&#x1e84;" horiz-adv-x="2033" 
d="M1061 1386l389 -1239l416 1287h98l-463 -1434h-96l-389 1235l-387 -1235h-99l-460 1434h98l414 -1287l389 1239h90zM727 1690q0 31 21.5 53t52.5 22q32 0 54 -22t22 -53t-22 -53.5t-54 -22.5q-31 0 -52.5 22.5t-21.5 53.5zM1155 1690q0 31 21.5 53t52.5 22q32 0 54 -22
t22 -53t-22 -53.5t-54 -22.5q-31 0 -52.5 22.5t-21.5 53.5z" />
    <glyph glyph-name="wdieresis" unicode="&#x1e85;" horiz-adv-x="1697" 
d="M508 119l297 858h88l295 -858l352 897h98l-401 -1016h-92l-297 846l-295 -846h-92l-402 1016h99zM557 1319q0 32 21.5 55t52.5 23q32 0 54 -23t22 -55q0 -31 -22 -52.5t-54 -21.5q-31 0 -52.5 21.5t-21.5 52.5zM985 1319q0 32 21.5 55t52.5 23q32 0 54 -23t22 -55
q0 -31 -22 -52.5t-54 -21.5q-31 0 -52.5 21.5t-21.5 52.5z" />
    <glyph glyph-name="Ygrave" unicode="&#x1ef2;" horiz-adv-x="1284" 
d="M594 0v596l-537 838h113l471 -748l475 748h111l-537 -838v-596h-96zM428 1851h109l170 -284h-78z" />
    <glyph glyph-name="ygrave" unicode="&#x1ef3;" horiz-adv-x="1083" 
d="M547 94l375 922h108l-618 -1475h-99l181 443l-443 1032h107zM307 1481h111l188 -307h-80z" />
    <glyph glyph-name="thinspace" unicode="&#x2009;" horiz-adv-x="34" 
 />
    <glyph glyph-name="endash" unicode="&#x2013;" horiz-adv-x="1114" 
d="M141 580v86h832v-86h-832z" />
    <glyph glyph-name="emdash" unicode="&#x2014;" horiz-adv-x="1624" 
d="M141 580v86h1340v-86h-1340z" />
    <glyph glyph-name="quoteleft" unicode="&#x2018;" horiz-adv-x="428" 
d="M266 1481l29 -43q-47 -37 -77 -92t-30 -113q0 -4 5 -29q17 10 38 10q29 0 47.5 -19.5t18.5 -49.5q0 -33 -20.5 -54.5t-59.5 -21.5q-50 0 -73 45t-23 100q0 38 10 79t44.5 95.5t90.5 92.5z" />
    <glyph glyph-name="quoteright" unicode="&#x2019;" horiz-adv-x="417" 
d="M166 1069l-29 43q47 37 77 92t30 113q0 9 -4 29q-18 -11 -39 -11q-29 0 -47.5 20t-18.5 50q0 33 20.5 54.5t59.5 21.5q50 0 73 -45.5t23 -100.5q0 -63 -32 -138t-113 -128z" />
    <glyph glyph-name="quotesinglbase" unicode="&#x201a;" horiz-adv-x="499" 
d="M193 -201l-29 43q46 37 76 92t30 113q0 9 -4 29q-17 -10 -39 -10q-29 0 -47 19.5t-18 49.5q0 33 20.5 54.5t59.5 21.5q50 0 73 -45t23 -100q0 -63 -32 -138.5t-113 -128.5z" />
    <glyph glyph-name="quotedblleft" unicode="&#x201c;" horiz-adv-x="739" 
d="M578 1481l28 -43q-46 -37 -76 -92t-30 -113q0 -9 4 -29q17 10 39 10q29 0 47 -19.5t18 -49.5q0 -33 -20.5 -54.5t-59.5 -21.5q-50 0 -73 45t-23 100q0 62 33 137.5t113 129.5zM266 1481l29 -43q-47 -37 -77 -92t-30 -113q0 -4 5 -29q17 10 38 10q29 0 47.5 -19.5
t18.5 -49.5q0 -33 -20.5 -54.5t-59.5 -21.5q-50 0 -73 45t-23 100q0 38 10 79t44.5 95.5t90.5 92.5z" />
    <glyph glyph-name="quotedblright" unicode="&#x201d;" horiz-adv-x="729" 
d="M166 1069l-29 43q47 37 77 92t30 113q0 9 -4 29q-18 -11 -39 -11q-29 0 -47.5 20t-18.5 50q0 33 20.5 54.5t59.5 21.5q50 0 73 -45.5t23 -100.5q0 -63 -32 -138t-113 -128zM477 1069l-28 43q46 37 76 92t30 113q0 9 -4 29q-18 -11 -39 -11q-29 0 -47.5 20t-18.5 50
q0 33 20.5 54.5t59.5 21.5q50 0 73.5 -45.5t23.5 -100.5q0 -63 -32.5 -138t-113.5 -128z" />
    <glyph glyph-name="quotedblbase" unicode="&#x201e;" horiz-adv-x="813" 
d="M195 -201l-29 43q46 37 76 92t30 113q0 9 -4 29q-17 -10 -39 -10q-29 0 -47 19.5t-18 49.5q0 33 20.5 54.5t59.5 21.5q50 0 73 -45t23 -100q0 -63 -32 -138.5t-113 -128.5zM506 -201l-29 43q47 37 77 92t30 113q0 9 -4 29q-17 -10 -39 -10q-29 0 -47.5 19.5t-18.5 49.5
q0 33 20.5 54.5t59.5 21.5q50 0 73 -45t23 -100q0 -63 -32 -138.5t-113 -128.5z" />
    <glyph glyph-name="dagger" unicode="&#x2020;" horiz-adv-x="1044" 
d="M563 956v-1306h-82v1306h-411v78h411v533h82v-533h412v-78h-412z" />
    <glyph glyph-name="daggerdbl" unicode="&#x2021;" horiz-adv-x="1101" 
d="M1004 276h-412v-626h-82v626h-412v78h412v602h-412v78h412v533h82v-533h412v-78h-412v-602h412v-78z" />
    <glyph glyph-name="bullet" unicode="&#x2022;" horiz-adv-x="800" 
d="M188 492q0 86 62 147t149 61t150 -61t63 -147t-63.5 -148.5t-149.5 -62.5q-87 0 -149 61t-62 150z" />
    <glyph glyph-name="ellipsis" unicode="&#x2026;" horiz-adv-x="1466" 
d="M147 59q0 35 23.5 58.5t58.5 23.5t58.5 -23.5t23.5 -58.5t-23.5 -58.5t-58.5 -23.5t-58.5 23.5t-23.5 58.5zM651 59q0 35 23.5 58.5t58.5 23.5t58.5 -23.5t23.5 -58.5t-23.5 -58.5t-58.5 -23.5t-58.5 23.5t-23.5 58.5zM1157 59q0 35 22.5 58.5t57.5 23.5t58.5 -23.5
t23.5 -58.5t-23.5 -58.5t-58.5 -23.5t-57.5 23.5t-22.5 58.5z" />
    <glyph glyph-name="perthousand" unicode="&#x2030;" horiz-adv-x="2635" 
d="M78 1126q0 141 92 235.5t231 94.5t232.5 -94.5t93.5 -235.5q0 -136 -94 -231.5t-232 -95.5t-230.5 95.5t-92.5 231.5zM156 1126q0 -105 70.5 -178.5t174.5 -73.5q105 0 175.5 73.5t70.5 178.5q0 109 -70.5 182.5t-175.5 73.5q-104 0 -174.5 -73.5t-70.5 -182.5zM1034 305
q0 140 92.5 235t231.5 95t231 -95t92 -235q0 -138 -92.5 -233t-230.5 -95t-231 95t-93 233zM1112 305q0 -106 71 -180t175 -74q105 0 175.5 73.5t70.5 180.5q0 109 -70 181.5t-176 72.5q-105 0 -175.5 -73t-70.5 -181zM1911 305q0 140 92 235t231 95t232.5 -95t93.5 -235
q0 -137 -93.5 -232.5t-232.5 -95.5q-138 0 -230.5 95t-92.5 233zM1989 305q0 -106 70.5 -180t174.5 -74q105 0 175.5 73.5t70.5 180.5q0 109 -70 181.5t-176 72.5q-104 0 -174.5 -72.5t-70.5 -181.5zM426 0l799 1434h92l-801 -1434h-90z" />
    <glyph glyph-name="guilsinglleft" unicode="&#x2039;" horiz-adv-x="649" 
d="M104 600l355 410l61 -47l-315 -363l315 -362l-61 -50z" />
    <glyph glyph-name="guilsinglright" unicode="&#x203a;" horiz-adv-x="649" 
d="M190 1010l355 -410l-355 -412l-61 50l315 362l-315 363z" />
    <glyph glyph-name="fraction" unicode="&#x2044;" horiz-adv-x="307" 
d="M764 1507l-1126 -1591h-95l1127 1591h94z" />
    <glyph glyph-name="zerosuperior" unicode="&#x2070;" horiz-adv-x="763" 
d="M692 1270q0 -160 -85 -268.5t-226 -108.5q-138 0 -223.5 109t-85.5 268q0 156 85.5 263t223.5 107q141 0 226 -106.5t85 -263.5zM614 1270q0 131 -63 217t-170 86q-105 0 -167 -86t-62 -217q0 -133 62.5 -219t166.5 -86q108 0 170.5 85.5t62.5 219.5z" />
    <glyph glyph-name="foursuperior" unicode="&#x2074;" horiz-adv-x="714" 
d="M131 1167h305v336zM436 1102h-401v45l428 481h49v-461h160v-65h-160v-191h-76v191z" />
    <glyph glyph-name="fivesuperior" unicode="&#x2075;" horiz-adv-x="645" 
d="M313 956q99 0 149 50.5t50 128.5q0 75 -47 127.5t-143 52.5q-91 0 -181 -51l-53 22l23 342h419v-63h-352l-16 -228q84 41 166 41q123 0 191.5 -71.5t68.5 -171.5q0 -107 -72.5 -176.5t-204.5 -69.5q-61 0 -126 21t-115 57l45 53q41 -29 95.5 -46.5t102.5 -17.5z" />
    <glyph glyph-name="sixsuperior" unicode="&#x2076;" horiz-adv-x="675" 
d="M373 1579q-95 0 -159 -90t-69 -223q35 55 97 80.5t127 25.5q101 0 176.5 -68t75.5 -174q0 -103 -75.5 -169t-187.5 -66q-134 0 -210 96.5t-76 257.5q0 169 82 282.5t219 113.5q58 0 108.5 -20t77.5 -50l-45 -43q-21 19 -61 33t-80 14zM162 1118q11 -62 64.5 -108.5
t133.5 -46.5q79 0 131 46.5t52 123.5q0 81 -53.5 127.5t-129.5 46.5q-85 0 -149.5 -54t-48.5 -135z" />
    <glyph glyph-name="sevensuperior" unicode="&#x2077;" horiz-adv-x="579" 
d="M47 1565v63h508v-49l-371 -668h-84l367 654h-420z" />
    <glyph glyph-name="eightsuperior" unicode="&#x2078;" horiz-adv-x="716" 
d="M358 963q92 0 150.5 43.5t58.5 107.5q0 65 -56.5 106.5t-156.5 41.5q-97 0 -152 -40.5t-55 -105.5q0 -66 59 -109.5t152 -43.5zM358 1579q-80 0 -129 -35t-49 -94q0 -58 45 -93.5t129 -35.5q89 0 137 37t48 94q0 56 -49 91.5t-132 35.5zM358 897q-126 0 -207 62.5
t-81 158.5q0 60 35 107t104 69q-53 26 -80 67.5t-27 90.5q0 85 72 139t184 54q114 0 185 -55t71 -138q0 -46 -29 -90t-79 -68q67 -25 104 -71.5t37 -106.5q0 -93 -81.5 -156t-207.5 -63z" />
    <glyph glyph-name="ninesuperior" unicode="&#x2079;" horiz-adv-x="675" 
d="M303 961q96 0 158 88t67 223q-33 -53 -95 -80t-128 -27q-98 0 -174 68.5t-76 173.5q0 103 75 169t187 66q135 0 211 -96t76 -256q0 -110 -35.5 -199.5t-105.5 -143.5t-162 -54q-114 0 -188 74l51 41q21 -20 60 -33.5t79 -13.5zM520 1389q0 76 -62.5 132t-142.5 56
q-79 0 -130.5 -47.5t-51.5 -124.5q0 -79 53 -125.5t129 -46.5q74 0 139.5 44t65.5 112z" />
    <glyph glyph-name="parenleftsuperior" unicode="&#x207d;" horiz-adv-x="401" 
d="M86 1245q0 88 21 171t55.5 146t63 103t57.5 72l47 -31q-166 -217 -166 -461q0 -80 17.5 -156.5t46 -135.5t53 -98t49.5 -69l-49 -28q-28 28 -58 70.5t-62.5 104.5t-53.5 144.5t-21 167.5z" />
    <glyph glyph-name="parenrightsuperior" unicode="&#x207e;" horiz-adv-x="401" 
d="M315 1245q0 -86 -20.5 -168.5t-52.5 -144.5t-61.5 -104t-57.5 -70l-51 28q26 29 52 69t53.5 98.5t45 135t17.5 156.5t-17 156t-45.5 135t-53.5 98.5t-52 71.5l49 31q28 -28 57.5 -70.5t62.5 -104.5t53.5 -146t20.5 -171z" />
    <glyph glyph-name="zeroinferior" unicode="&#x2080;" horiz-adv-x="763" 
d="M692 90q0 -160 -85 -268.5t-226 -108.5q-138 0 -223.5 109t-85.5 268q0 156 85.5 263.5t223.5 107.5q141 0 226 -107t85 -264zM614 90q0 131 -63 217t-170 86q-105 0 -167 -86t-62 -217q0 -133 62.5 -219t166.5 -86q108 0 170.5 85.5t62.5 219.5z" />
    <glyph glyph-name="oneinferior" unicode="&#x2081;" horiz-adv-x="395" 
d="M47 279l-16 63l223 107h43v-719h-78v626z" />
    <glyph glyph-name="twoinferior" unicode="&#x2082;" horiz-adv-x="657" 
d="M434 2l-239 -205q17 0 47 1t45 1h311v-69h-522q-4 32 -4 53l311 268q106 95 106 191q0 71 -46.5 108t-129.5 37q-79 0 -118.5 -35.5t-44.5 -85.5h-80q5 76 67 133.5t178 57.5q115 0 182.5 -59t67.5 -158q0 -123 -131 -238z" />
    <glyph glyph-name="threeinferior" unicode="&#x2083;" horiz-adv-x="651" 
d="M57 -209l45 53q35 -29 87 -46t104 -17q100 0 155.5 48.5t55.5 121.5q0 76 -53.5 121t-133.5 45q-68 0 -114 -29l-31 49l268 248h-360v64h477v-39l-248 -236h15q112 0 184 -61t72 -164t-75.5 -169.5t-211.5 -66.5q-146 0 -236 78z" />
    <glyph glyph-name="fourinferior" unicode="&#x2084;" horiz-adv-x="716" 
d="M133 -12h305v336zM438 -78h-401v45l428 482h49v-461h160v-66h-160v-192h-76v192z" />
    <glyph glyph-name="fiveinferior" unicode="&#x2085;" horiz-adv-x="645" 
d="M313 -223q99 0 149 50.5t50 127.5q0 75 -47 127.5t-143 52.5q-91 0 -181 -51l-53 22l23 343h419v-64h-352l-16 -227q84 41 166 41q122 0 191 -71.5t69 -172.5q0 -107 -72.5 -176.5t-204.5 -69.5q-61 0 -126 21t-115 57l45 53q41 -29 95.5 -46t102.5 -17z" />
    <glyph glyph-name="sixinferior" unicode="&#x2086;" horiz-adv-x="677" 
d="M375 395q-95 0 -159 -90t-69 -223q35 55 97 80.5t127 25.5q101 0 176.5 -67.5t75.5 -173.5q0 -103 -75.5 -169.5t-187.5 -66.5q-134 0 -210 97t-76 258q0 169 82 282t219 113q58 0 108.5 -20t77.5 -50l-45 -43q-21 19 -61 33t-80 14zM164 -66q11 -62 64.5 -108.5
t133.5 -46.5q79 0 131 46.5t52 123.5q0 81 -53.5 127.5t-129.5 46.5q-85 0 -149.5 -54t-48.5 -135z" />
    <glyph glyph-name="seveninferior" unicode="&#x2087;" horiz-adv-x="573" 
d="M43 385v64h508v-50l-371 -669h-84l367 655h-420z" />
    <glyph glyph-name="eightinferior" unicode="&#x2088;" horiz-adv-x="716" 
d="M358 -219q92 0 150.5 43.5t58.5 107.5q0 65 -56.5 106.5t-156.5 41.5q-97 0 -152 -40.5t-55 -105.5q0 -66 59 -109.5t152 -43.5zM358 397q-80 0 -129 -35t-49 -94q0 -58 45 -93.5t129 -35.5q89 0 137 37t48 94q0 56 -49 91.5t-132 35.5zM358 -285q-125 0 -206.5 63
t-81.5 159q0 60 35 107t104 69q-53 26 -80 67t-27 90q0 85 72 139t184 54q114 0 185 -55t71 -138q0 -46 -29 -89.5t-79 -67.5q67 -25 104 -72t37 -107q0 -93 -81.5 -156t-207.5 -63z" />
    <glyph glyph-name="nineinferior" unicode="&#x2089;" horiz-adv-x="677" 
d="M303 -221q96 0 158 88t67 223q-33 -53 -95 -79.5t-128 -26.5q-98 0 -174 68t-76 173q0 103 75 169.5t187 66.5q135 0 211 -96t76 -256q0 -170 -82.5 -284t-220.5 -114q-114 0 -188 74l51 41q21 -20 60 -33.5t79 -13.5zM520 207q0 76 -62.5 132t-142.5 56
q-79 0 -130.5 -47.5t-51.5 -124.5q0 -79 53 -125.5t129 -46.5q74 0 139.5 44t65.5 112z" />
    <glyph glyph-name="parenleftinferior" unicode="&#x208d;" horiz-adv-x="401" 
d="M86 66q0 88 21 171t55.5 146t63 102.5t57.5 71.5l47 -31q-166 -217 -166 -460q0 -81 17.5 -158t46 -135.5t52.5 -96.5t50 -69l-49 -29q-28 28 -58 70.5t-62.5 104.5t-53.5 145t-21 168z" />
    <glyph glyph-name="parenrightinferior" unicode="&#x208e;" horiz-adv-x="401" 
d="M315 66q0 -86 -20.5 -169t-52.5 -144.5t-61.5 -104t-57.5 -70.5l-51 29q36 39 70.5 95.5t66 157.5t31.5 206q0 80 -17 156t-45.5 134.5t-53.5 98t-52 71.5l49 31q28 -28 57.5 -70t62.5 -104.5t53.5 -146t20.5 -170.5z" />
    <glyph glyph-name="lira" unicode="&#x20a4;" horiz-adv-x="1261" 
d="M358 1081q0 -18 1.5 -34.5t6.5 -38t8.5 -35.5t15 -45.5t17 -47t22.5 -60.5t26 -68h444v-68h-418q28 -74 43 -152h375v-65h-362q0 -12 1 -32.5t1 -31.5q0 -227 -189 -321v-6q47 6 131 6h688v-82h-1085v82q72 0 133 17t112.5 53t81 100t29.5 151q0 41 -2 64h-288v65h276
q-32 117 -45 152h-231v68h204q-13 35 -32 86t-27.5 74.5t-19 55.5t-14 55.5t-3.5 47.5q0 177 127.5 281t327.5 104q102 0 182 -28.5t125.5 -74.5t68.5 -98t23 -106h-98q0 87 -76.5 153t-220.5 66q-159 0 -259 -77.5t-100 -209.5z" />
    <glyph glyph-name="rupee" unicode="&#x20a8;" horiz-adv-x="1310" 
d="M143 1038v74h772q-30 109 -109 173.5t-196 64.5h-467v84h1035v-74h-316q119 -88 156 -248h160v-74h-150q2 -14 2 -34q0 -171 -98 -288.5t-270 -129.5q3 -57 16.5 -122t42 -137t67 -129t97.5 -94.5t129 -37.5q87 0 149 45q6 -10 12.5 -21.5t14 -25.5t12.5 -23
q-39 -31 -92 -47.5t-100 -16.5q-93 0 -169.5 45t-124 112.5t-81.5 153t-48.5 158.5t-17.5 138h-426v82h467q146 0 233 96.5t87 241.5q0 20 -2 34h-785z" />
    <glyph glyph-name="uni20A9" unicode="&#x20a9;" horiz-adv-x="2164" 
d="M115 834v77h188l-168 523h98l168 -523h486l149 475h90l150 -475h487l168 523h99l-168 -523h188v-77h-215l-66 -203h281v-78h-305l-178 -553h-97l-174 553h-430l-172 -553h-98l-178 553h-303v78h278l-65 203h-213zM1300 834l64 -203h307l66 203h-437zM426 834l66 -203h307
l63 203h-436zM954 834l-63 -203h381l-64 203h-254zM1389 553l127 -406l131 406h-258zM516 553l131 -406l127 406h-258zM1081 1235l-102 -324h205z" />
    <glyph glyph-name="afii57636" unicode="&#x20aa;" horiz-adv-x="1417" 
d="M250 1010v-1010h-92v1102h356q188 0 305 -117.5t117 -292.5v-319h-92v319q0 135 -91 226.5t-239 91.5h-264zM1167 92v1010h93v-1102h-357q-188 0 -305 117.5t-117 292.5v319h92v-319q0 -135 91 -226.5t239 -91.5h264z" />
    <glyph glyph-name="Euro" unicode="&#x20ac;" horiz-adv-x="1343" 
d="M1165 102q3 -13 7.5 -41t7.5 -41q-108 -43 -219 -43q-277 0 -447.5 149.5t-216.5 399.5h-209v74h199q-4 70 -4 105q0 65 2 96h-197v73h207q19 126 67.5 229t128.5 183.5t200.5 125t271.5 44.5q165 0 292 -65q-7 -13 -17 -39t-17 -39q-108 55 -260 55
q-242 0 -385.5 -135.5t-182.5 -358.5h707l-21 -73h-694q-4 -21 -4 -94q0 -37 4 -107h639l-20 -74h-605q38 -206 185.5 -333t380.5 -127q112 0 200 36z" />
    <glyph glyph-name="uni2113" unicode="&#x2113;" horiz-adv-x="935" 
d="M854 1118q0 -192 -66.5 -363.5t-187 -288.5t-272.5 -149q16 -148 72 -202t155 -54q90 0 136 41.5t46 120.5q15 0 43 1t43 1q0 -4 1 -12t1 -12q0 -98 -70 -161t-200 -63q-64 0 -113.5 14t-95.5 48t-75.5 101.5t-39.5 164.5q-105 0 -168 23v69q79 -30 168 -18v739
q0 87 24.5 153t59 101t82 56.5t84 27.5t74.5 6q27 0 52 -3t56.5 -12t57 -23.5t51 -41t43 -61.5t28.5 -87t11 -116zM764 1118q0 64 -14 112.5t-35 75.5t-50 44t-54.5 22.5t-53.5 5.5q-29 0 -56.5 -5.5t-60 -22.5t-56.5 -44t-40 -75.5t-16 -112.5v-719q101 26 185.5 102
t138 178t83 216t29.5 223z" />
    <glyph glyph-name="afii61352" unicode="&#x2116;" horiz-adv-x="2324" 
d="M1581 1147q0 132 91.5 220.5t223.5 88.5t223 -88.5t91 -220.5q0 -131 -91 -218t-223 -87t-223.5 87t-91.5 218zM1589 610v70h613v-70h-613zM1196 0l-930 1264v-1264h-96v1434h80l930 -1262v1262h96v-1434h-80zM1655 1147q0 -104 69 -171t172 -67q105 0 173.5 67t68.5 171
t-69 173t-173 69q-103 0 -172 -69t-69 -173z" />
    <glyph glyph-name="uni2117" unicode="&#x2117;" horiz-adv-x="1685" 
d="M115 717q0 201 95.5 371t263 269t368.5 99t369 -99t264 -269t96 -371q0 -202 -96 -372t-264 -269t-369 -99t-368.5 99t-263 269t-95.5 372zM186 717q0 -184 86 -338.5t237 -244t333 -89.5q136 0 258 53t209.5 143t138.5 214t51 262q0 183 -86.5 336.5t-238 243
t-332.5 89.5q-182 0 -333 -89.5t-237 -243t-86 -336.5zM1141 838q0 -94 -57.5 -154.5t-153.5 -60.5h-205v-289h-74v729h279q99 0 155 -64t56 -161zM725 686h199q64 0 103.5 44t39.5 108q0 68 -39.5 113.5t-103.5 45.5h-199v-311z" />
    <glyph glyph-name="trademark" unicode="&#x2122;" horiz-adv-x="1732" 
d="M80 1434h606v-64h-268v-647h-70v647h-268v64zM1569 723h-70l-55 592l-268 -584h-62l-268 584l-55 -592h-70l65 711h78l281 -605l278 605h80z" />
    <glyph glyph-name="Omega" unicode="&#x2126;" horiz-adv-x="1665" 
d="M831 1372q-179 0 -319.5 -84.5t-215.5 -227t-75 -315.5q0 -205 134.5 -398t324.5 -267v-80h-530v82h368q-166 100 -280.5 290.5t-114.5 383.5q0 192 87 351t250 254t371 95q156 0 290 -55.5t225.5 -150t143.5 -223t52 -271.5q0 -190 -115.5 -382.5t-281.5 -291.5h373v-82
h-535v80q123 48 229 154t169 242.5t63 268.5q0 173 -75.5 315.5t-216.5 227t-321 84.5z" />
    <glyph glyph-name="estimated" unicode="&#x212e;" horiz-adv-x="1343" 
d="M1245 578h-878v-396q138 -129 311 -129q67 0 124 14.5t99 36.5t81.5 58t66.5 70t59 81l63 -39q-42 -67 -86 -116t-103 -89.5t-135.5 -61.5t-168.5 -21q-163 0 -291 81.5t-196 216.5t-68 296q0 164 66.5 298t196.5 215t300 81q128 0 234.5 -48t177 -129.5t109 -189.5
t38.5 -229zM999 645v334q-60 55 -143.5 91t-169.5 36q-195 0 -319 -127v-334h632z" />
    <glyph glyph-name="arrowleft" unicode="&#x2190;" horiz-adv-x="1343" 
d="M1090 551v-78h-783l281 -323l-62 -50l-354 412l354 410l62 -48l-281 -323h783z" />
    <glyph glyph-name="arrowup" unicode="&#x2191;" horiz-adv-x="1157" 
d="M616 57h-77v783l-324 -281l-47 62l410 354l411 -354l-49 -62l-324 281v-783z" />
    <glyph glyph-name="arrowright" unicode="&#x2192;" horiz-adv-x="1343" 
d="M254 473v78h782l-280 323l61 48l354 -410l-354 -412l-61 50l280 323h-782z" />
    <glyph glyph-name="arrowdown" unicode="&#x2193;" horiz-adv-x="1157" 
d="M539 975h77v-782l324 280l49 -61l-411 -355l-410 355l47 61l324 -280v782z" />
    <glyph glyph-name="partialdiff" unicode="&#x2202;" horiz-adv-x="1327" 
d="M598 1337l-33 76q114 43 232 43q117 0 205 -39.5t141 -110.5t79.5 -164t26.5 -206q0 -125 -26 -246q-67 -333 -251 -523t-454 -190q-194 0 -308 101t-114 264q0 124 53 230.5t138.5 176t192 109t214.5 39.5q139 0 259.5 -71.5t152.5 -190.5h6q43 122 43 283
q0 212 -94 334t-283 122q-92 0 -180 -37zM686 809q-72 0 -142.5 -20t-133 -59.5t-111 -93t-76.5 -126.5t-28 -154q0 -135 94.5 -215t245.5 -80q117 0 226 53t191.5 155t114.5 233q0 60 -25 112t-65 87t-90.5 60t-101.5 36.5t-99 11.5z" />
    <glyph glyph-name="Delta" unicode="&#x2206;" horiz-adv-x="1421" 
d="M1225 82l-506 1257h-17l-503 -1257h1026zM639 1434h143l574 -1434h-1290z" />
    <glyph glyph-name="product" unicode="&#x220f;" horiz-adv-x="1452" 
d="M1169 1350v-1698h-94v1698h-696v-1698h-94v1698h-205v84h1290v-84h-201z" />
    <glyph glyph-name="summation" unicode="&#x2211;" horiz-adv-x="1136" 
d="M78 -285l551 826l-529 827v66h895v-84h-780v-2l518 -809l-536 -805h862v-82h-981v63z" />
    <glyph glyph-name="minus" unicode="&#x2212;" horiz-adv-x="1255" 
d="M160 569v86h936v-86h-936z" />
    <glyph glyph-name="uni2219" unicode="&#x2219;" horiz-adv-x="483" 
d="M160 670q0 35 23.5 58.5t58.5 23.5t58.5 -23.5t23.5 -58.5t-23.5 -58.5t-58.5 -23.5t-58.5 23.5t-23.5 58.5z" />
    <glyph glyph-name="radical" unicode="&#x221a;" horiz-adv-x="1087" 
d="M18 719l230 106l311 -880l59 248l326 1374h82l-420 -1762h-84l-325 914l-150 -70z" />
    <glyph glyph-name="infinity" unicode="&#x221e;" horiz-adv-x="1759" 
d="M215 604q0 -109 68.5 -173t171.5 -64q122 0 243 118l121 117q-11 11 -43 43.5t-43 43t-38 36.5t-39.5 35t-36.5 27.5t-40 25t-38 16t-43 12.5t-43 3q-104 0 -172 -64t-68 -176zM879 547l-121 -117q-76 -74 -150 -109.5t-162 -35.5q-135 0 -227 87t-92 232q0 148 92 235
t227 87q97 0 171 -40t167 -132l97 -92q9 9 27 26q125 123 183 164q105 74 222 74q139 0 229 -86.5t90 -235.5q0 -146 -90.5 -232.5t-228.5 -86.5q-89 0 -160.5 35t-148.5 110l-123 117h-2zM1544 604q0 112 -68 176t-171 64q-23 0 -44 -3t-42.5 -12t-37.5 -16t-39.5 -24.5
t-36.5 -27t-39.5 -35t-38 -36.5t-43 -43t-44.5 -45l119 -117q118 -118 246 -118q103 0 171 64t68 173z" />
    <glyph glyph-name="integral" unicode="&#x222b;" horiz-adv-x="956" 
d="M526 1210v-1327q0 -107 -28 -182t-76.5 -113t-100.5 -53.5t-114 -15.5q-44 0 -106 16.5t-103 46.5q24 60 33 76q78 -51 190 -51q86 0 146.5 62.5t60.5 205.5v1327q0 86 19.5 152.5t51 105.5t75 64t85.5 34t89 9q43 0 104.5 -17t105.5 -47l-32 -76q-83 50 -193 50
q-40 0 -74.5 -13t-65.5 -42t-49 -83.5t-18 -128.5z" />
    <glyph glyph-name="approxequal" unicode="&#x2248;" horiz-adv-x="1243" 
d="M1044 952l37 -67q-90 -86 -219 -86q-59 0 -129 21.5t-124 47t-121.5 47t-122.5 21.5q-99 0 -164 -76l-39 62q75 100 200 100q58 0 128.5 -21.5t126 -47t123.5 -47t122 -21.5q104 0 182 67zM1044 449l37 -66q-92 -88 -219 -88q-59 0 -129.5 21.5t-125 47t-122.5 47
t-123 21.5q-96 0 -161 -76l-41 62q75 100 200 100q60 0 131 -21.5t126.5 -47t123 -47t119.5 -21.5q104 0 184 68z" />
    <glyph glyph-name="notequal" unicode="&#x2260;" horiz-adv-x="1200" 
d="M1053 905h-283l-260 -487h543v-84h-586l-152 -285l-67 39l131 246h-232v84h277l260 487h-537v84h582l158 297l65 -39l-137 -258h238v-84z" />
    <glyph glyph-name="lessequal" unicode="&#x2264;" horiz-adv-x="1366" 
d="M166 735v101l1005 366v-90l-915 -328l915 -325v-90zM172 137v78h1002v-78h-1002z" />
    <glyph glyph-name="greaterequal" unicode="&#x2265;" horiz-adv-x="1366" 
d="M1200 836v-101l-1005 -366v90l915 325l-915 328v90zM1194 215v-78h-1001v78h1001z" />
    <glyph glyph-name="lozenge" unicode="&#x25ca;" horiz-adv-x="1122" 
d="M541 1434h45l454 -719l-454 -715h-45l-459 715zM934 717l-371 594l-377 -594l377 -594z" />
    <glyph glyph-name="commaaccent" unicode="&#xf6c3;" horiz-adv-x="538" 
d="M289 -256q-18 -6 -35 -6q-30 0 -50 15.5t-20 49.5q0 30 20 50t54 20q48 0 72 -34t24 -81q0 -61 -32 -122t-101 -107l-26 37q37 30 66.5 72.5t29.5 82.5q0 3 -1 11.5t-1 11.5z" />
    <glyph glyph-name="rupiah" unicode="&#xf6dd;" horiz-adv-x="2650" 
d="M268 0h-96v1434h573q185 0 296.5 -125.5t111.5 -304.5q0 -171 -98.5 -288.5t-270.5 -129.5q4 -73 26 -156.5t62 -168t109.5 -140t155.5 -55.5q87 0 149 45q6 -10 12.5 -21.5t14 -25.5t12.5 -23q-39 -31 -92 -47.5t-100 -16.5q-93 0 -169.5 45t-124 112.5t-81.5 153
t-48.5 158.5t-17.5 138h-424v-584zM268 666h465q146 0 233 96.5t87 241.5q0 147 -86.5 246.5t-233.5 99.5h-465v-684zM1606 1016v-256q57 127 173.5 202.5t266.5 75.5q152 0 272 -71t185 -192t65 -269q0 -145 -63 -265t-183.5 -192t-277.5 -72q-151 0 -267 75.5t-171 201.5
v-713h-95v1475h95zM2042 954q-189 0 -313.5 -129t-124.5 -319q0 -188 123 -316.5t317 -128.5q193 0 310.5 127.5t117.5 317.5q0 192 -119.5 320t-310.5 128z" />
    <glyph glyph-name="centinferior" unicode="&#xf6df;" horiz-adv-x="618" 
d="M287 -285h-56l19 113q-85 29 -134.5 97.5t-49.5 156.5q0 110 75 188t201 82l18 101h58l-19 -101q80 -14 152 -63l-31 -56q-54 41 -129 54q-12 -70 -38.5 -203t-39.5 -203q114 -18 203 45l37 -49q-116 -82 -250 -61zM141 82q0 -61 32.5 -111t88.5 -73l70 389
q-87 -7 -139 -64.5t-52 -140.5z" />
    <glyph glyph-name="centsuperior" unicode="&#xf6e0;" horiz-adv-x="618" 
d="M287 901h-56l19 113q-85 29 -134.5 97.5t-49.5 156.5q0 110 75 188t201 82l18 100h58l-19 -100q80 -14 152 -63l-31 -56q-54 41 -129 54q-12 -69 -38.5 -202.5t-39.5 -203.5q114 -18 203 45l37 -49q-117 -83 -250 -62zM141 1268q0 -62 33 -112t88 -73l70 390
q-87 -7 -139 -64.5t-52 -140.5z" />
    <glyph glyph-name="commainferior" unicode="&#xf6e1;" horiz-adv-x="329" 
d="M133 -403l-22 30q67 56 67 129v15q-20 -4 -24 -4q-23 0 -36.5 13t-13.5 36q0 25 14 40t42 15q37 0 52 -31t15 -69q0 -107 -94 -174z" />
    <glyph glyph-name="commasuperior" unicode="&#xf6e2;" horiz-adv-x="329" 
d="M133 776l-22 31q67 56 67 129v14q-20 -4 -24 -4q-23 0 -36.5 13t-13.5 36q0 25 14 40.5t42 15.5q25 0 41 -18t21 -39t5 -44q0 -107 -94 -174z" />
    <glyph glyph-name="dollarinferior" unicode="&#xf6e3;" horiz-adv-x="602" 
d="M330 -356h-51v92q-84 4 -143.5 49t-84.5 111l74 20q15 -42 56 -74.5t98 -38.5v260l-41 17q-87 33 -121.5 74t-34.5 96q0 77 57.5 127.5t139.5 56.5v90h51v-90q72 -6 122 -48t68 -105q-57 -21 -65 -25q-12 47 -45 76t-80 35v-240l45 -16q69 -26 116.5 -75t47.5 -112
q0 -76 -56.5 -129t-152.5 -59v-92zM463 -78q-1 41 -31 70.5t-72 44.5l-30 10v-244q61 6 97 40t36 79zM160 252q0 -31 19.5 -54t68.5 -42l31 -13v226q-51 -6 -85 -37.5t-34 -79.5z" />
    <glyph glyph-name="dollarsuperior" unicode="&#xf6e4;" horiz-adv-x="602" 
d="M330 827h-51v93q-84 4 -143.5 49t-84.5 110l74 21q15 -42 56 -74.5t98 -38.5v260l-41 17q-87 33 -121.5 74t-34.5 96q0 77 57.5 127.5t139.5 56.5v90h51v-90q72 -6 122 -48.5t68 -105.5q-5 -2 -16 -5.5t-23 -8t-26 -10.5q-25 97 -125 110v-239l45 -17q69 -26 116.5 -74.5
t47.5 -111.5q0 -76 -56.5 -129t-152.5 -59v-93zM463 1106q-1 41 -31 70.5t-72 44.5l-30 10v-244q61 6 97 40t36 79zM160 1436q0 -31 19.5 -54.5t68.5 -42.5l31 -12v225q-52 -6 -85.5 -37t-33.5 -79z" />
    <glyph glyph-name="hypheninferior" unicode="&#xf6e5;" horiz-adv-x="561" 
d="M100 49v68h361v-68h-361z" />
    <glyph glyph-name="hyphensuperior" unicode="&#xf6e6;" horiz-adv-x="561" 
d="M100 1229v67h361v-67h-361z" />
    <glyph glyph-name="periodinferior" unicode="&#xf6e7;" horiz-adv-x="319" 
d="M160 -283q-25 0 -40.5 15t-15.5 41q0 23 15.5 37t40.5 14q55 0 55 -51q0 -56 -55 -56z" />
    <glyph glyph-name="periodsuperior" unicode="&#xf6e8;" horiz-adv-x="319" 
d="M160 899q-25 0 -40.5 14.5t-15.5 40.5q0 23 15.5 37.5t40.5 14.5q55 0 55 -52q0 -55 -55 -55z" />
    <glyph glyph-name="apple" unicode="&#xf8ff;" horiz-adv-x="1423" 
d="M907 311h154q0 80 -24.5 143.5t-66 104t-90 65t-104.5 33.5q68 180 152 338l30 -399h154l-53 684h-150q-133 -245 -192 -416q-57 166 -193 416h-149l-53 -684h153l31 399q58 -108 151 -333q-59 -6 -111.5 -30t-97 -65t-70.5 -107.5t-26 -148.5h156q0 73 32 124t76 72
t93 21q77 0 137.5 -55t60.5 -162zM205 0v1413h1028v-1413h-1028zM297 168v-80h16v55l19 -55h14l21 57v-57h16v80h-25l-18 -55l-18 55h-25zM428 170q-18 0 -28.5 -12t-10.5 -31q0 -18 10.5 -29.5t28.5 -11.5t29.5 11.5t11.5 29.5q0 19 -11 31t-30 12zM428 100q-20 0 -20 27
q0 29 20 29q23 0 23 -29q0 -27 -23 -27zM485 115h-16q0 -29 35 -29q33 0 33 27q0 15 -23 22q-24 8 -25 12q0 9 13 9q14 0 14 -13h19q0 27 -33 27q-12 0 -21.5 -7t-9.5 -18q0 -19 27 -22q22 -6 22 -12q0 -11 -16 -11q-19 0 -19 15zM559 154v-66h19v66h24v14h-67v-14h24z
M618 168l-30 -80h18l6 18h29l6 -18h19l-29 80h-19zM637 119h-21l11 28zM668 168v-80h18v31h16q15 0 15 -15q0 -14 2 -16h18q-4 12 -4 18q0 17 -12 19v2q14 3 14 18q0 23 -24 23h-43zM686 131v23h19q12 0 12 -11q0 -12 -12 -12h-19zM743 168v-80h35q37 0 37 41q0 39 -37 39
h-35zM762 102v52h12q23 0 23 -27q0 -25 -21 -25h-14zM821 168v-80h62v14h-45v21h39v14h-39v17h43v14h-60zM901 115h-18q0 -29 35 -29q32 0 32 27q0 16 -22 22q-24 8 -25 12q0 9 12 9q14 0 17 -13h16q0 27 -33 27q-11 0 -20.5 -7t-9.5 -18q0 -19 26 -22q23 -7 23 -12
q0 -11 -16 -11q-17 0 -17 15zM956 168v-80h17v80h-17zM1040 96l2 -8h13v43h-35v-12h18q-3 -19 -18 -19q-23 0 -23 27q0 29 23 29q13 0 16 -15h17q-3 29 -33 29q-20 0 -30.5 -12t-10.5 -31q0 -18 10.5 -29.5t30.5 -11.5q10 0 20 10zM1063 168v-80h16v53l33 -53h18v80h-16v-53
l-35 53h-16z" />
    <glyph glyph-name="Euro.dnom" horiz-adv-x="712" 
d="M532 260h-294q21 -96 88 -151.5t174 -55.5q48 0 108 25l17 -66q-56 -26 -125 -26q-143 0 -229.5 73.5t-110.5 200.5h-109v51h101q-3 40 0 80h-101v51h107q22 132 106 211.5t234 79.5q85 0 164 -39l-29 -59q-67 33 -133 33q-219 0 -262 -226h344l-15 -51h-338
q-3 -40 0 -80h318q-3 -8 -8 -26t-7 -25z" />
    <glyph glyph-name="Euro.numr" horiz-adv-x="716" 
d="M537 969h-295q21 -96 88 -151.5t174 -55.5q51 0 108 24l17 -65q-59 -27 -125 -27q-143 0 -229.5 73.5t-110.5 201.5h-109v51h101q-3 40 0 80h-101v51h107q22 132 106 211.5t234 79.5q85 0 164 -39l-29 -60q-67 33 -133 33q-219 0 -262 -225h344l-15 -51h-338
q-3 -40 0 -80h318q-3 -8 -7 -25.5t-7 -25.5z" />
    <glyph glyph-name="Euroinferior" horiz-adv-x="718" 
d="M537 -12h-295q21 -96 88 -151.5t174 -55.5q51 0 108 24l17 -65q-58 -27 -125 -27q-143 0 -229.5 73.5t-110.5 201.5h-109v51h101q-3 40 0 80h-101v51h107q22 132 106 211.5t234 79.5q85 0 164 -39l-29 -60q-67 33 -133 33q-219 0 -262 -225h344l-15 -51h-338
q-3 -40 0 -80h318q-3 -8 -7 -25.5t-7 -25.5z" />
    <glyph glyph-name="Eurosuperior" horiz-adv-x="712" 
d="M532 1169h-294q21 -95 88 -150.5t174 -55.5q51 0 108 24l17 -65q-59 -27 -125 -27q-143 0 -229.5 73.5t-110.5 200.5h-109v52h101q-3 40 0 79h-101v52h107q22 132 106 211t234 79q87 0 164 -38l-29 -60q-67 33 -133 33q-219 0 -262 -225h344l-15 -52h-338q-3 -39 0 -79
h318q-3 -8 -8 -26.5t-7 -25.5z" />
    <glyph glyph-name="a.alt" horiz-adv-x="1128" 
d="M877 0v188q-66 -98 -183 -154.5t-243 -56.5q-100 0 -184.5 35t-137.5 106.5t-53 166.5q0 134 101.5 223.5t293.5 89.5q205 0 401 -66v80q0 75 -17.5 135t-55.5 107t-104.5 72.5t-157.5 25.5q-204 0 -344 -108q-7 13 -19.5 37.5t-19.5 36.5q152 120 393 120
q79 0 143.5 -16t108 -41.5t76 -62.5t50.5 -74.5t29 -82.5t14 -80.5t3 -74.5v-606h-94zM500 518q-171 0 -249.5 -65t-78.5 -164q0 -105 81.5 -166.5t203.5 -61.5q118 0 235.5 61t184.5 165v170q-91 31 -197 46t-180 15z" />
    <glyph glyph-name="aacute.alt" horiz-adv-x="1128" 
d="M688 1481h111l-221 -307h-78zM877 0v188q-66 -98 -183 -154.5t-243 -56.5q-100 0 -184.5 35t-137.5 106.5t-53 166.5q0 134 101.5 223.5t293.5 89.5q205 0 401 -66v80q0 75 -17.5 135t-55.5 107t-104.5 72.5t-157.5 25.5q-204 0 -344 -108q-7 13 -19.5 37.5t-19.5 36.5
q152 120 393 120q79 0 143.5 -16t108 -41.5t76 -62.5t50.5 -74.5t29 -82.5t14 -80.5t3 -74.5v-606h-94zM500 518q-171 0 -249.5 -65t-78.5 -164q0 -105 81.5 -166.5t203.5 -61.5q118 0 235.5 61t184.5 165v170q-91 31 -197 46t-180 15z" />
    <glyph glyph-name="abreve.alt" horiz-adv-x="1128" 
d="M760 1464l65 -6q-12 -127 -83.5 -198.5t-182.5 -71.5q-110 0 -181 72t-81 198l65 6q11 -89 63 -144.5t136 -55.5q83 0 134.5 55t64.5 145zM877 0v188q-66 -98 -183 -154.5t-243 -56.5q-100 0 -184.5 35t-137.5 106.5t-53 166.5q0 134 101.5 223.5t293.5 89.5
q205 0 401 -66v80q0 75 -17.5 135t-55.5 107t-104.5 72.5t-157.5 25.5q-204 0 -344 -108q-7 13 -19.5 37.5t-19.5 36.5q152 120 393 120q79 0 143.5 -16t108 -41.5t76 -62.5t50.5 -74.5t29 -82.5t14 -80.5t3 -74.5v-606h-94zM500 518q-171 0 -249.5 -65t-78.5 -164
q0 -105 81.5 -166.5t203.5 -61.5q118 0 235.5 61t184.5 165v170q-91 31 -197 46t-180 15z" />
    <glyph glyph-name="acircumflex.alt" horiz-adv-x="1130" 
d="M485 1481h109l229 -307h-73l-211 243l-209 -243h-74zM877 0v188q-66 -98 -183 -154.5t-243 -56.5q-100 0 -184.5 35t-137.5 106.5t-53 166.5q0 134 101.5 223.5t293.5 89.5q205 0 401 -66v80q0 75 -17.5 135t-55.5 107t-104.5 72.5t-157.5 25.5q-204 0 -344 -108
q-7 13 -19.5 37.5t-19.5 36.5q152 120 393 120q79 0 143.5 -16t108 -41.5t76 -62.5t50.5 -74.5t29 -82.5t14 -80.5t3 -74.5v-606h-94zM500 518q-171 0 -249.5 -65t-78.5 -164q0 -105 81.5 -166.5t203.5 -61.5q118 0 235.5 61t184.5 165v170q-91 31 -197 46t-180 15z" />
    <glyph glyph-name="acute.case" horiz-adv-x="675" 
d="M371 1851h106l-201 -284h-77z" />
    <glyph glyph-name="adieresis.alt" horiz-adv-x="1130" 
d="M250 1319q0 32 21.5 55t52.5 23q32 0 53.5 -22.5t21.5 -55.5q0 -31 -21.5 -52.5t-53.5 -21.5q-31 0 -52.5 21.5t-21.5 52.5zM678 1319q0 32 21.5 55t52.5 23q32 0 53.5 -22.5t21.5 -55.5q0 -31 -21.5 -52.5t-53.5 -21.5q-31 0 -52.5 21.5t-21.5 52.5zM877 0v188
q-66 -98 -183 -154.5t-243 -56.5q-100 0 -184.5 35t-137.5 106.5t-53 166.5q0 134 101.5 223.5t293.5 89.5q205 0 401 -66v80q0 75 -17.5 135t-55.5 107t-104.5 72.5t-157.5 25.5q-204 0 -344 -108q-7 13 -19.5 37.5t-19.5 36.5q152 120 393 120q79 0 143.5 -16t108 -41.5
t76 -62.5t50.5 -74.5t29 -82.5t14 -80.5t3 -74.5v-606h-94zM500 518q-171 0 -249.5 -65t-78.5 -164q0 -105 81.5 -166.5t203.5 -61.5q118 0 235.5 61t184.5 165v170q-91 31 -197 46t-180 15z" />
    <glyph glyph-name="agrave.alt" horiz-adv-x="1128" 
d="M313 1481h111l188 -307h-80zM877 0v188q-66 -98 -183 -154.5t-243 -56.5q-100 0 -184.5 35t-137.5 106.5t-53 166.5q0 134 101.5 223.5t293.5 89.5q205 0 401 -66v80q0 75 -17.5 135t-55.5 107t-104.5 72.5t-157.5 25.5q-204 0 -344 -108q-7 13 -19.5 37.5t-19.5 36.5
q152 120 393 120q79 0 143.5 -16t108 -41.5t76 -62.5t50.5 -74.5t29 -82.5t14 -80.5t3 -74.5v-606h-94zM500 518q-171 0 -249.5 -65t-78.5 -164q0 -105 81.5 -166.5t203.5 -61.5q118 0 235.5 61t184.5 165v170q-91 31 -197 46t-180 15z" />
    <glyph glyph-name="amacron.alt" horiz-adv-x="1130" 
d="M291 1374h497v-78h-497v78zM877 0v188q-66 -98 -183 -154.5t-243 -56.5q-100 0 -184.5 35t-137.5 106.5t-53 166.5q0 134 101.5 223.5t293.5 89.5q205 0 401 -66v80q0 75 -17.5 135t-55.5 107t-104.5 72.5t-157.5 25.5q-204 0 -344 -108q-7 13 -19.5 37.5t-19.5 36.5
q152 120 393 120q79 0 143.5 -16t108 -41.5t76 -62.5t50.5 -74.5t29 -82.5t14 -80.5t3 -74.5v-606h-94zM500 518q-171 0 -249.5 -65t-78.5 -164q0 -105 81.5 -166.5t203.5 -61.5q118 0 235.5 61t184.5 165v170q-91 31 -197 46t-180 15z" />
    <glyph glyph-name="aogonek.alt" horiz-adv-x="1128" 
d="M971 23l-37 -23q-131 -83 -131 -207q0 -80 55 -127t127 -47q74 0 131.5 49.5t75.5 124.5l57 -31q-21 -95 -93 -157t-173 -62t-178.5 63t-77.5 175q0 57 34 121.5t116 117.5v168q-66 -98 -183 -154.5t-243 -56.5q-100 0 -184.5 35t-137.5 106.5t-53 166.5
q0 134 101.5 223.5t293.5 89.5q205 0 401 -66v80q0 75 -17.5 135t-55.5 107t-104.5 72.5t-157.5 25.5q-204 0 -344 -108q-7 13 -19.5 37.5t-19.5 36.5q152 120 393 120q79 0 143.5 -16t108 -41.5t76 -62.5t50.5 -74.5t29 -82.5t14 -80.5t3 -74.5v-583zM500 518
q-171 0 -249.5 -65t-78.5 -164q0 -105 81.5 -166.5t203.5 -61.5q118 0 235.5 61t184.5 165v170q-91 31 -197 46t-180 15z" />
    <glyph glyph-name="aring.alt" horiz-adv-x="1130" 
d="M367 1362q0 78 55 133t133 55q77 0 132.5 -56t55.5 -132q0 -78 -55 -133t-133 -55t-133 55t-55 133zM426 1362q0 -56 37 -92.5t92 -36.5q54 0 90.5 37t36.5 92q0 54 -36.5 90.5t-90.5 36.5q-55 0 -92 -36.5t-37 -90.5zM877 0v188q-66 -98 -183 -154.5t-243 -56.5
q-100 0 -184.5 35t-137.5 106.5t-53 166.5q0 134 101.5 223.5t293.5 89.5q205 0 401 -66v80q0 75 -17.5 135t-55.5 107t-104.5 72.5t-157.5 25.5q-204 0 -344 -108q-7 13 -19.5 37.5t-19.5 36.5q152 120 393 120q79 0 143.5 -16t108 -41.5t76 -62.5t50.5 -74.5t29 -82.5
t14 -80.5t3 -74.5v-606h-94zM500 518q-171 0 -249.5 -65t-78.5 -164q0 -105 81.5 -166.5t203.5 -61.5q118 0 235.5 61t184.5 165v170q-91 31 -197 46t-180 15z" />
    <glyph glyph-name="aringacute.alt" horiz-adv-x="1128" 
d="M340 1341q0 70 45.5 116t116.5 54l84 150h104l-112 -154q62 -14 100.5 -58t38.5 -108q0 -76 -54.5 -123t-134.5 -47t-134 47t-54 123zM399 1341q0 -53 36.5 -85.5t92.5 -32.5q55 0 91 32.5t36 85.5t-36 86t-91 33q-56 0 -92.5 -33t-36.5 -86zM877 0v188
q-66 -98 -183 -154.5t-243 -56.5q-100 0 -184.5 35t-137.5 106.5t-53 166.5q0 134 101.5 223.5t293.5 89.5q205 0 401 -66v80q0 75 -17.5 135t-55.5 107t-104.5 72.5t-157.5 25.5q-204 0 -344 -108q-7 13 -19.5 37.5t-19.5 36.5q152 120 393 120q79 0 143.5 -16t108 -41.5
t76 -62.5t50.5 -74.5t29 -82.5t14 -80.5t3 -74.5v-606h-94zM500 518q-171 0 -249.5 -65t-78.5 -164q0 -105 81.5 -166.5t203.5 -61.5q118 0 235.5 61t184.5 165v170q-91 31 -197 46t-180 15z" />
    <glyph glyph-name="at.case" horiz-adv-x="2172" 
d="M1395 489q-54 -110 -150 -167.5t-221 -57.5q-132 0 -232.5 62t-152 163.5t-51.5 225.5q0 191 119 320.5t317 129.5q125 0 219 -57.5t148 -167.5v199h86v-717q0 -88 45.5 -131t119.5 -43q150 0 240 136t90 411q0 182 -64.5 338t-179 267t-279.5 174.5t-359 63.5
q-192 0 -360 -71t-286.5 -193.5t-187 -293.5t-68.5 -365q0 -258 107.5 -466.5t306 -330t451.5 -121.5q237 0 413 72q5 -12 19 -36t18 -32q-191 -80 -450 -80q-209 0 -386.5 75.5t-300 207.5t-191.5 315.5t-69 395.5q0 282 127 510.5t352.5 358.5t504.5 130
q284 0 503.5 -116.5t340 -325.5t120.5 -477q0 -162 -30.5 -282t-87 -192t-130.5 -106.5t-166 -34.5q-63 0 -108 16t-71 42t-41.5 68t-20 83.5t-4.5 99.5zM1389 715q0 162 -100 266t-259 104q-162 0 -258 -106t-96 -264q0 -157 96 -264t258 -107q159 0 259 104.5t100 266.5z
" />
    <glyph glyph-name="atilde.alt" horiz-adv-x="1130" 
d="M664 1260q-47 0 -135 45t-134 45q-34 0 -51.5 -19.5t-44.5 -79.5l-49 11q28 94 59 127.5t84 33.5q47 0 138 -44t131 -44q35 0 52 18.5t44 76.5l49 -11q-28 -94 -59 -126.5t-84 -32.5zM877 0v188q-66 -98 -183 -154.5t-243 -56.5q-100 0 -184.5 35t-137.5 106.5t-53 166.5
q0 134 101.5 223.5t293.5 89.5q205 0 401 -66v80q0 75 -17.5 135t-55.5 107t-104.5 72.5t-157.5 25.5q-204 0 -344 -108q-7 13 -19.5 37.5t-19.5 36.5q152 120 393 120q79 0 143.5 -16t108 -41.5t76 -62.5t50.5 -74.5t29 -82.5t14 -80.5t3 -74.5v-606h-94zM500 518
q-171 0 -249.5 -65t-78.5 -164q0 -105 81.5 -166.5t203.5 -61.5q118 0 235.5 61t184.5 165v170q-91 31 -197 46t-180 15z" />
    <glyph glyph-name="bitcoin" horiz-adv-x="1239" 
d="M602 1581v-219h33q122 0 219 -35t157 -109.5t60 -179.5q0 -117 -74.5 -203.5t-224.5 -121.5q181 -24 278 -117.5t97 -226.5q0 -150 -123 -237t-319 -87h-103v-186h-72v186h-141v-186h-72v186h-163v1317h163v219h72v-219h141v219h72zM600 670h-352v-541h457
q153 0 248.5 65t95.5 179q0 128 -118 212.5t-331 84.5zM248 745h305q209 0 315.5 82t106.5 207q0 62 -27.5 110t-75.5 76.5t-107.5 43t-129.5 14.5h-387v-533z" />
    <glyph glyph-name="braceleft.case" horiz-adv-x="587" 
d="M272 715q56 -29 80.5 -61.5t24.5 -94.5q0 -21 -3 -43.5t-11.5 -52.5t-15 -50.5t-20.5 -63.5t-22 -66q-63 -183 -63 -277q0 -87 43 -129.5t116 -42.5q43 0 84 8v-71q-50 -13 -90 -13q-104 0 -176 59t-72 175q0 122 78 334q1 3 15.5 44.5t19 56t13.5 47t12.5 55.5t3.5 44
q0 28 -5.5 44.5t-22.5 26t-30 13t-48 9t-56 10.5v78q22 5 56.5 10.5t47.5 9t30 12.5t22.5 25.5t5.5 44.5q0 17 -3.5 39t-7.5 40t-12 45.5t-13 41.5t-15 44t-13 38q-78 212 -78 334q0 115 72 174t176 59q43 0 90 -12v-72q-41 8 -84 8q-73 0 -116 -42.5t-43 -129.5
q0 -93 63 -276q7 -22 22 -66t21 -64t14.5 -50.5t11.5 -53t3 -43.5q0 -62 -24.5 -94t-80.5 -61z" />
    <glyph glyph-name="braceright.case" horiz-adv-x="587" 
d="M315 717q-56 29 -80 61t-24 94q0 21 3 43.5t11.5 53t14.5 50.5t21 64t22 66q63 183 63 276q0 87 -43.5 129.5t-116.5 42.5q-43 0 -84 -8v72q46 12 91 12q104 0 175.5 -58.5t71.5 -174.5q0 -122 -78 -334q-2 -6 -11 -32.5t-12.5 -37.5t-11.5 -35t-11.5 -39t-8 -35.5
t-6.5 -37t-2 -31.5q0 -28 5.5 -44.5t22.5 -25.5t30 -12.5t47.5 -9t56.5 -10.5v-78q-21 -5 -56 -10.5t-48 -9t-30 -13t-22.5 -26t-5.5 -44.5q0 -17 3.5 -39.5t7 -38.5t12.5 -46t12.5 -40.5t15 -44.5t12.5 -38q78 -212 78 -334q0 -116 -71.5 -175t-175.5 -59q-41 0 -91 13v71
q41 -8 84 -8q73 0 116.5 42.5t43.5 129.5q0 94 -63 277q-8 23 -22 66t-20.5 63.5t-15 50.5t-11.5 52.5t-3 43.5q0 62 24 94.5t80 61.5z" />
    <glyph glyph-name="bracketleft.case" horiz-adv-x="593" 
d="M170 -231v1898h352v-78h-262v-1743h262v-77h-352z" />
    <glyph glyph-name="bracketright.case" horiz-adv-x="593" 
d="M424 1667v-1898h-352v77h262v1743h-262v78h352z" />
    <glyph glyph-name="breve.case" horiz-adv-x="919" 
d="M655 1839l64 -6q-11 -119 -82 -190.5t-180 -71.5q-106 0 -177 72t-81 190l63 6q13 -87 64 -143t133 -56t132.5 56t63.5 143z" />
    <glyph glyph-name="bullet.case" horiz-adv-x="792" 
d="M184 719q0 86 62.5 147.5t148.5 61.5q87 0 150 -61.5t63 -147.5t-63.5 -148.5t-149.5 -62.5q-87 0 -149 61t-62 150z" />
    <glyph glyph-name="caron.case" horiz-adv-x="929" 
d="M518 1567h-106l-213 284h73l191 -225l192 225h76z" />
    <glyph glyph-name="cedilla.case" horiz-adv-x="921" 
d="M514 4v16h64q57 -35 92.5 -82.5t46 -84t10.5 -72.5q0 -112 -77.5 -175t-178.5 -63t-173 62t-93 157l57 31q18 -75 75.5 -124.5t131.5 -49.5q72 0 127 47t55 127q0 52 -32 109t-105 102z" />
    <glyph glyph-name="cent.case" horiz-adv-x="1146" 
d="M109 727q0 112 38.5 209t111 170t184 114.5t249.5 41.5l37 192h74l-39 -199q159 -28 272 -108l-47 -68q-111 79 -239 95l-168 -881q44 -8 104 -8q167 0 303 98l47 -68q-158 -114 -352 -114q-54 0 -119 10l-39 -209h-75l43 223q-180 48 -280 183.5t-105 318.5zM205 731
q5 -151 84.5 -263t220.5 -159l166 869q-108 -2 -196 -37.5t-147.5 -95.5t-92.5 -140.5t-35 -173.5z" />
    <glyph glyph-name="cent.dnom" horiz-adv-x="616" 
d="M287 -12h-56l19 112q-85 29 -134.5 97.5t-49.5 156.5q0 110 75 188.5t201 82.5l18 100h58l-19 -100q78 -13 152 -64l-31 -55q-52 40 -129 53q-12 -70 -38.5 -203t-39.5 -202q114 -18 203 45l37 -49q-117 -83 -250 -62zM141 354q0 -61 32.5 -111t88.5 -73l70 389
q-87 -7 -139 -64.5t-52 -140.5z" />
    <glyph glyph-name="cent.numr" horiz-adv-x="616" 
d="M287 700h-56l19 113q-85 29 -134.5 97.5t-49.5 156.5q0 110 75 188t201 82l18 101h58l-19 -101q80 -14 152 -63l-31 -55q-52 40 -129 53q-12 -70 -38.5 -203t-39.5 -203q114 -18 203 45l37 -49q-116 -82 -250 -61zM141 1067q0 -61 32.5 -111t88.5 -73l70 389
q-87 -7 -139 -64.5t-52 -140.5z" />
    <glyph glyph-name="circumflex.case" horiz-adv-x="929" 
d="M412 1851h106l213 -284h-76l-192 223l-191 -223h-73z" />
    <glyph glyph-name="comma.dnom" horiz-adv-x="325" 
d="M131 -131l-22 31q67 56 67 129v14q-20 -4 -24 -4q-23 0 -36.5 13t-13.5 36q0 25 14 40t42 15q37 0 52 -31t15 -69q0 -107 -94 -174z" />
    <glyph glyph-name="comma.numr" horiz-adv-x="325" 
d="M131 582l-22 30q67 56 67 129v15q-20 -4 -24 -4q-23 0 -36.5 13t-13.5 36q0 25 14 40t42 15q37 0 52 -31t15 -69q0 -107 -94 -174z" />
    <glyph glyph-name="commaaccent.case" horiz-adv-x="538" 
d="M289 -256q-18 -6 -35 -6q-30 0 -50 15.5t-20 49.5q0 30 20 50t54 20q48 0 72 -34t24 -81q0 -61 -32 -122t-101 -107l-26 37q37 30 66.5 72.5t29.5 82.5q0 3 -1 11.5t-1 11.5z" />
    <glyph glyph-name="dieresis.case" horiz-adv-x="1060" 
d="M242 1690q0 31 21 53t52 22q32 0 54 -22t22 -53t-22 -53.5t-54 -22.5q-30 0 -51.5 22.5t-21.5 53.5zM670 1690q0 31 21 53t52 22q32 0 54 -22t22 -53t-22 -53.5t-54 -22.5q-30 0 -51.5 22.5t-21.5 53.5z" />
    <glyph glyph-name="dollar.dnom" horiz-adv-x="602" 
d="M330 -84h-51v92q-84 4 -143.5 49t-84.5 111l74 20q15 -41 56 -73.5t98 -38.5v260l-41 16q-87 33 -121.5 74t-34.5 96q0 77 58 128t139 57v90h51v-90q72 -6 122 -48.5t68 -105.5q-57 -21 -65 -25q-12 47 -45 76t-80 35v-240l45 -16q69 -26 116.5 -74.5t47.5 -111.5
q0 -76 -56.5 -129.5t-152.5 -59.5v-92zM463 195q-3 77 -103 114l-30 10v-243q61 6 97 40t36 79zM160 524q0 -31 19.5 -54t68.5 -42l31 -12v225q-51 -6 -85 -37.5t-34 -79.5z" />
    <glyph glyph-name="dollar.numr" horiz-adv-x="602" 
d="M330 629h-51v92q-84 4 -143.5 49t-84.5 111l74 20q15 -42 56 -74.5t98 -38.5v261l-41 16q-87 33 -121.5 74t-34.5 96q0 77 57.5 127.5t139.5 56.5v90h51v-90q72 -6 122 -48t68 -105q-57 -21 -65 -25q-12 47 -45 76t-80 35v-240l45 -16q69 -26 116.5 -75t47.5 -112
q0 -76 -56.5 -129t-152.5 -59v-92zM463 907q-1 41 -31 70.5t-72 44.5l-30 10v-244q61 6 97 40t36 79zM160 1237q0 -31 19.5 -54t68.5 -42l31 -13v226q-51 -6 -85 -37.5t-34 -79.5z" />
    <glyph glyph-name="dotaccent.case" horiz-adv-x="555" 
d="M205 1702q0 37 19.5 58.5t51.5 21.5q33 0 53.5 -22t20.5 -58q0 -35 -21 -57.5t-53 -22.5t-51.5 22t-19.5 58z" />
    <glyph glyph-name="eight.dnom" horiz-adv-x="716" 
d="M358 51q92 0 150.5 44t58.5 108q0 65 -56.5 106t-156.5 41q-97 0 -152 -40t-55 -105q0 -67 59 -110.5t152 -43.5zM358 668q-80 0 -129 -35t-49 -94q0 -58 45 -93.5t129 -35.5q89 0 137 37t48 94q0 56 -49 91.5t-132 35.5zM358 -14q-126 0 -207 62.5t-81 158.5
q0 60 35 107t104 69q-53 26 -80 67.5t-27 90.5q0 85 71.5 138.5t184.5 53.5q114 0 185 -54.5t71 -137.5q0 -46 -29 -90t-79 -68q67 -25 104 -71.5t37 -106.5q0 -93 -81.5 -156t-207.5 -63z" />
    <glyph glyph-name="eight.numr" horiz-adv-x="716" 
d="M358 764q92 0 150.5 43.5t58.5 107.5q0 65 -56.5 106.5t-156.5 41.5q-97 0 -152 -40t-55 -105q0 -67 59 -110.5t152 -43.5zM358 1380q-80 0 -129 -35t-49 -94q0 -58 45 -93.5t129 -35.5q89 0 137 37t48 94q0 56 -49 91.5t-132 35.5zM358 698q-125 0 -206.5 63t-81.5 159
q0 60 35 107t104 69q-53 26 -80 67t-27 90q0 85 72 139t184 54q114 0 185 -55t71 -138q0 -45 -29 -89t-79 -68q67 -25 104 -71.5t37 -106.5q0 -93 -81.5 -156.5t-207.5 -63.5z" />
    <glyph glyph-name="eight.oldstyle" horiz-adv-x="1347" 
d="M674 61q202 0 331.5 88t129.5 222q0 123 -121 202.5t-342 79.5h-6q-216 0 -334.5 -80.5t-118.5 -203.5q0 -135 129.5 -221.5t331.5 -86.5zM674 -23q-244 0 -400.5 110.5t-156.5 277.5q0 115 82 203.5t233 129.5q-120 40 -186 119.5t-66 175.5q0 149 138.5 245.5
t355.5 96.5q218 0 354.5 -96.5t136.5 -245.5q0 -95 -67.5 -174.5t-188.5 -120.5q154 -38 238 -125t84 -204q0 -169 -156.5 -280.5t-400.5 -111.5zM674 1251q-178 0 -288 -72t-110 -186q0 -115 103 -190.5t291 -75.5t293.5 75.5t105.5 190.5t-108.5 186.5t-286.5 71.5z" />
    <glyph glyph-name="eight.taboldstyle" 
d="M696 61q202 0 331.5 88t129.5 222q0 123 -121 202.5t-342 79.5h-6q-216 0 -334 -80.5t-118 -203.5q0 -135 129 -221.5t331 -86.5zM696 -23q-244 0 -400.5 110.5t-156.5 277.5q0 115 82.5 203.5t233.5 129.5q-120 40 -186 119.5t-66 175.5q0 149 138 245.5t355 96.5
q218 0 355 -96.5t137 -245.5q0 -95 -67.5 -174.5t-188.5 -120.5q154 -38 237.5 -125t83.5 -204q0 -169 -156.5 -280.5t-400.5 -111.5zM696 1251q-178 0 -287.5 -72t-109.5 -186q0 -115 102.5 -190.5t290.5 -75.5t294 75.5t106 190.5t-109 186.5t-287 71.5z" />
    <glyph glyph-name="eight.tnum" 
d="M694 63q203 0 333 97t130 246q0 135 -122.5 222t-340.5 87q-222 0 -341.5 -88.5t-119.5 -225.5q0 -146 129.5 -242t331.5 -96zM694 -23q-244 0 -400.5 121t-156.5 303q0 125 82.5 222t233.5 139q-120 42 -185 127t-65 192q0 161 137.5 268t353.5 107q219 0 356.5 -106.5
t137.5 -266.5q0 -106 -67.5 -192.5t-188.5 -128.5q153 -41 237 -135.5t84 -220.5q0 -122 -71 -220t-199 -153.5t-289 -55.5zM694 1370q-175 0 -285 -81.5t-110 -207.5q0 -51 22 -101t63.5 -92.5t109.5 -68.5t151 -26h96q82 0 150 26t111 68.5t66.5 93t23.5 102.5
q0 124 -110.5 205.5t-287.5 81.5z" />
    <glyph glyph-name="emdash.case" horiz-adv-x="1656" 
d="M160 674v86h1339v-86h-1339z" />
    <glyph glyph-name="endash.case" horiz-adv-x="1148" 
d="M160 674v86h831v-86h-831z" />
    <glyph glyph-name="exclamdown.case" horiz-adv-x="477" 
d="M291 0h-107v176l23 844h61l23 -842v-178zM158 1374q0 35 22.5 58.5t57.5 23.5t59.5 -23.5t24.5 -58.5t-24.5 -58.5t-59.5 -23.5t-57.5 23.5t-22.5 58.5z" />
    <glyph glyph-name="five.dnom" horiz-adv-x="645" 
d="M313 49q99 0 149 50.5t50 127.5q0 75 -47 128t-143 53q-89 0 -181 -52l-53 23l23 338h419v-64h-352l-16 -223q84 41 166 41q122 0 191 -71.5t69 -172.5q0 -107 -72.5 -176t-204.5 -69q-61 0 -126 21t-115 56l45 54q41 -29 95.5 -46.5t102.5 -17.5z" />
    <glyph glyph-name="five.numr" horiz-adv-x="645" 
d="M313 762q99 0 149 50.5t50 127.5q0 75 -47 127.5t-143 52.5q-91 0 -181 -51l-53 23l23 342h419v-64h-352l-16 -227q84 41 166 41q122 0 191 -71.5t69 -172.5q0 -107 -72.5 -176.5t-204.5 -69.5q-61 0 -126 21t-115 57l45 53q41 -29 95.5 -46t102.5 -17z" />
    <glyph glyph-name="five.oldstyle" horiz-adv-x="1177" 
d="M567 -236q206 0 319 102t113 253q0 69 -25 131t-73 112t-129 79.5t-184 29.5q-97 0 -202.5 -26.5t-170.5 -75.5l-76 39l45 608h799v-84h-715l-37 -471q184 94 365 94q119 0 215.5 -35.5t158 -96.5t94 -139.5t32.5 -166.5t-33.5 -166t-97 -138.5t-164.5 -96t-228 -35.5
q-140 0 -264 37t-200 94l57 65q76 -53 185 -83t216 -30z" />
    <glyph glyph-name="five.taboldstyle" 
d="M676 -236q206 0 319 102t113 253q0 69 -25 131t-73.5 112t-129.5 79.5t-184 29.5q-97 0 -202 -26.5t-170 -75.5l-76 39l45 608h799v-84h-715l-37 -471q184 94 365 94q119 0 215.5 -35.5t157.5 -96.5t93.5 -139.5t32.5 -166.5t-33.5 -166t-96.5 -138.5t-164 -96
t-228 -35.5q-140 0 -264.5 37t-200.5 94l57 65q76 -53 185.5 -83t216.5 -30z" />
    <glyph glyph-name="five.tnum" 
d="M213 111l57 65q60 -49 178 -81t226 -32q107 0 192 32t137.5 86.5t79.5 124.5t27 149q0 75 -25.5 142.5t-75 122.5t-131.5 87.5t-186 32.5q-96 0 -205.5 -31.5t-169.5 -75.5l-73 35l45 666h807v-84h-721l-37 -523q167 99 362 99q123 0 221.5 -39.5t159.5 -106.5t93 -150
t32 -175q0 -99 -34.5 -185t-99.5 -152t-167.5 -103.5t-230.5 -37.5q-132 0 -259 38.5t-202 95.5z" />
    <glyph glyph-name="florin.dnom" horiz-adv-x="544" 
d="M307 344v-381q0 -61 -16 -103t-44.5 -62.5t-57 -29t-62.5 -8.5q-38 0 -78 19l29 57q24 -12 47 -12q44 0 74 31.5t30 105.5v383h-86v53h86v129q0 61 16.5 103t45 62.5t57.5 29t64 8.5q42 0 75 -20l-28 -52q-22 11 -43 11q-45 0 -77 -32.5t-32 -105.5v-133h152v-53h-152z
" />
    <glyph glyph-name="florin.numr" horiz-adv-x="544" 
d="M307 1057v-381q0 -61 -16 -103t-44.5 -62.5t-57 -29t-62.5 -8.5q-38 0 -78 19l29 57q24 -12 47 -12q44 0 74 31.5t30 105.5v383h-86v53h86v129q0 61 16.5 103t45 62.5t57.5 29t64 8.5q40 0 75 -21l-28 -51q-20 10 -43 10q-45 0 -77 -32t-32 -105v-133h152v-53h-152z" />
    <glyph glyph-name="florininferior" horiz-adv-x="544" 
d="M307 72v-381q0 -61 -16 -103t-44.5 -62.5t-57 -29t-62.5 -8.5q-41 0 -78 18l29 58q26 -13 47 -13q44 0 74 31.5t30 106.5v383h-86v53h86v129q0 61 16.5 103t45 62.5t57.5 29t64 8.5q40 0 75 -21l-28 -51q-20 10 -43 10q-45 0 -77 -32t-32 -105v-133h152v-53h-152z" />
    <glyph glyph-name="florinsuperior" horiz-adv-x="544" 
d="M307 1251v-381q0 -49 -11.5 -86t-29 -58.5t-42 -35t-47.5 -18t-50 -4.5q-41 0 -78 18l29 57q24 -12 47 -12q44 0 74 31.5t30 105.5v383h-86v54h86v129q0 202 183 202q42 0 75 -20l-28 -51q-20 10 -43 10q-45 0 -77 -32t-32 -105v-133h152v-54h-152z" />
    <glyph glyph-name="four.dnom" horiz-adv-x="710" 
d="M131 260h305v332zM436 195h-401v45l428 477h49v-457h160v-65h-160v-195h-76v195z" />
    <glyph glyph-name="four.numr" horiz-adv-x="710" 
d="M131 973h305v336zM436 907h-401v45l428 482h49v-461h160v-66h-160v-190h-76v190z" />
    <glyph glyph-name="four.oldstyle" horiz-adv-x="1355" 
d="M184 170h680v688zM864 84h-807v66l844 866h57v-846h324v-86h-324v-397h-94v397z" />
    <glyph glyph-name="four.taboldstyle" 
d="M203 170h680v688zM883 84h-807v66l844 866h57v-846h323v-86h-323v-397h-94v397z" />
    <glyph glyph-name="four.tnum" 
d="M193 500h698v768zM891 416h-832v61l869 957h57v-934h336v-84h-336v-416h-94v416z" />
    <glyph glyph-name="g.alt" horiz-adv-x="1153" 
d="M922 659q0 126 -104.5 209.5t-248.5 83.5q-146 0 -251 -83.5t-105 -209.5q0 -127 103.5 -209.5t252.5 -82.5q147 0 250 82.5t103 209.5zM569 -397q201 0 318 56t117 153q0 27 -10.5 53t-35.5 52.5t-76 43t-122 16.5l-348 9q-104 0 -158 34q-125 -77 -125 -190
q0 -50 26.5 -89.5t70 -65t102 -42t118.5 -23.5t123 -7zM952 852q66 -89 66 -195q0 -109 -63.5 -195.5t-165.5 -132.5t-222 -46q-124 0 -229 51q-105 -52 -105 -133q0 -34 13 -58t29.5 -37t46.5 -21t48.5 -10.5t51.5 -4.5l369 -9q72 0 128.5 -17.5t89.5 -43.5t54.5 -60.5
t29 -65t7.5 -60.5q0 -131 -138.5 -213t-388.5 -82q-78 0 -151 9t-145 31t-125 55t-86 86t-33 120q0 139 151 243q-41 55 -41 130q0 108 123 184q-149 113 -149 282q0 110 64.5 198t166 133.5t217.5 45.5q98 0 185 -32t149 -89q42 5 77.5 39.5t35.5 94.5q0 23 -8 36h90
q10 -38 10 -57q0 -68 -45 -114.5t-107 -61.5z" />
    <glyph glyph-name="gbreve.alt" horiz-adv-x="1153" 
d="M922 659q0 126 -104.5 209.5t-248.5 83.5q-146 0 -251 -83.5t-105 -209.5q0 -127 103.5 -209.5t252.5 -82.5q147 0 250 82.5t103 209.5zM569 -397q201 0 318 56t117 153q0 27 -10.5 53t-35.5 52.5t-76 43t-122 16.5l-348 9q-104 0 -158 34q-125 -77 -125 -190
q0 -50 26.5 -89.5t70 -65t102 -42t118.5 -23.5t123 -7zM952 852q66 -89 66 -195q0 -109 -63.5 -195.5t-165.5 -132.5t-222 -46q-124 0 -229 51q-105 -52 -105 -133q0 -34 13 -58t29.5 -37t46.5 -21t48.5 -10.5t51.5 -4.5l369 -9q72 0 128.5 -17.5t89.5 -43.5t54.5 -60.5
t29 -65t7.5 -60.5q0 -131 -138.5 -213t-388.5 -82q-78 0 -151 9t-145 31t-125 55t-86 86t-33 120q0 139 151 243q-41 55 -41 130q0 108 123 184q-149 113 -149 282q0 110 64.5 198t166 133.5t217.5 45.5q98 0 185 -32t149 -89q42 5 77.5 39.5t35.5 94.5q0 23 -8 36h90
q10 -38 10 -57q0 -68 -45 -114.5t-107 -61.5zM760 1464l65 -6q-12 -127 -83.5 -198.5t-182.5 -71.5q-110 0 -181 72t-81 198l65 6q11 -89 63 -144.5t136 -55.5q83 0 134.5 55t64.5 145z" />
    <glyph glyph-name="gcircumflex.alt" horiz-adv-x="1153" 
d="M516 1481h109l229 -307h-74l-211 243l-209 -243h-73zM922 659q0 126 -104.5 209.5t-248.5 83.5q-146 0 -251 -83.5t-105 -209.5q0 -127 103.5 -209.5t252.5 -82.5q147 0 250 82.5t103 209.5zM569 -397q201 0 318 56t117 153q0 27 -10.5 53t-35.5 52.5t-76 43t-122 16.5
l-348 9q-104 0 -158 34q-125 -77 -125 -190q0 -50 26.5 -89.5t70 -65t102 -42t118.5 -23.5t123 -7zM952 852q66 -89 66 -195q0 -109 -63.5 -195.5t-165.5 -132.5t-222 -46q-124 0 -229 51q-105 -52 -105 -133q0 -34 13 -58t29.5 -37t46.5 -21t48.5 -10.5t51.5 -4.5l369 -9
q72 0 128.5 -17.5t89.5 -43.5t54.5 -60.5t29 -65t7.5 -60.5q0 -131 -138.5 -213t-388.5 -82q-78 0 -151 9t-145 31t-125 55t-86 86t-33 120q0 139 151 243q-41 55 -41 130q0 108 123 184q-149 113 -149 282q0 110 64.5 198t166 133.5t217.5 45.5q98 0 185 -32t149 -89
q42 5 77.5 39.5t35.5 94.5q0 23 -8 36h90q10 -38 10 -57q0 -68 -45 -114.5t-107 -61.5z" />
    <glyph glyph-name="gcommaaccent.alt" horiz-adv-x="1153" 
d="M526 1303q18 6 35 6q30 0 50 -16t20 -50q0 -30 -20 -49.5t-54 -19.5q-48 0 -72 33.5t-24 80.5q0 61 32 122.5t101 107.5l27 -37q-37 -30 -67 -73t-30 -83q0 -3 1 -11t1 -11zM922 659q0 126 -104.5 209.5t-248.5 83.5q-146 0 -251 -83.5t-105 -209.5q0 -127 103.5 -209.5
t252.5 -82.5q147 0 250 82.5t103 209.5zM569 -397q201 0 318 56t117 153q0 27 -10.5 53t-35.5 52.5t-76 43t-122 16.5l-348 9q-104 0 -158 34q-125 -77 -125 -190q0 -50 26.5 -89.5t70 -65t102 -42t118.5 -23.5t123 -7zM952 852q66 -89 66 -195q0 -109 -63.5 -195.5
t-165.5 -132.5t-222 -46q-124 0 -229 51q-105 -52 -105 -133q0 -34 13 -58t29.5 -37t46.5 -21t48.5 -10.5t51.5 -4.5l369 -9q72 0 128.5 -17.5t89.5 -43.5t54.5 -60.5t29 -65t7.5 -60.5q0 -131 -138.5 -213t-388.5 -82q-78 0 -151 9t-145 31t-125 55t-86 86t-33 120
q0 139 151 243q-41 55 -41 130q0 108 123 184q-149 113 -149 282q0 110 64.5 198t166 133.5t217.5 45.5q98 0 185 -32t149 -89q42 5 77.5 39.5t35.5 94.5q0 23 -8 36h90q10 -38 10 -57q0 -68 -45 -114.5t-107 -61.5z" />
    <glyph glyph-name="gdotaccent.alt" horiz-adv-x="1153" 
d="M502 1309q0 37 20.5 60.5t52.5 23.5t53 -23.5t21 -60.5q0 -36 -20.5 -58t-53.5 -22t-53 22t-20 58zM922 659q0 126 -104.5 209.5t-248.5 83.5q-146 0 -251 -83.5t-105 -209.5q0 -127 103.5 -209.5t252.5 -82.5q147 0 250 82.5t103 209.5zM569 -397q201 0 318 56t117 153
q0 27 -10.5 53t-35.5 52.5t-76 43t-122 16.5l-348 9q-104 0 -158 34q-125 -77 -125 -190q0 -50 26.5 -89.5t70 -65t102 -42t118.5 -23.5t123 -7zM952 852q66 -89 66 -195q0 -109 -63.5 -195.5t-165.5 -132.5t-222 -46q-124 0 -229 51q-105 -52 -105 -133q0 -34 13 -58
t29.5 -37t46.5 -21t48.5 -10.5t51.5 -4.5l369 -9q72 0 128.5 -17.5t89.5 -43.5t54.5 -60.5t29 -65t7.5 -60.5q0 -131 -138.5 -213t-388.5 -82q-78 0 -151 9t-145 31t-125 55t-86 86t-33 120q0 139 151 243q-41 55 -41 130q0 108 123 184q-149 113 -149 282q0 110 64.5 198
t166 133.5t217.5 45.5q98 0 185 -32t149 -89q42 5 77.5 39.5t35.5 94.5q0 23 -8 36h90q10 -38 10 -57q0 -68 -45 -114.5t-107 -61.5z" />
    <glyph glyph-name="grave.case" horiz-adv-x="675" 
d="M199 1851h108l170 -284h-78z" />
    <glyph glyph-name="guillemotleft.case" horiz-adv-x="1087" 
d="M119 717l354 409l62 -47l-316 -362l316 -363l-62 -49zM528 717l355 409l61 -47l-315 -362l315 -363l-61 -49z" />
    <glyph glyph-name="guillemotright.case" horiz-adv-x="1087" 
d="M614 1126l355 -409l-355 -412l-61 49l315 363l-315 362zM205 1126l354 -409l-354 -412l-62 49l316 363l-316 362z" />
    <glyph glyph-name="guilsinglleft.case" horiz-adv-x="677" 
d="M119 717l354 409l62 -47l-316 -362l316 -363l-62 -49z" />
    <glyph glyph-name="guilsinglright.case" horiz-adv-x="677" 
d="M205 1126l354 -409l-354 -412l-62 49l316 363l-316 362z" />
    <glyph glyph-name="hungarumlaut.case" horiz-adv-x="964" 
d="M371 1851h100l-192 -284h-80zM664 1851h100l-193 -284h-82z" />
    <glyph glyph-name="hyphen.case" horiz-adv-x="935" 
d="M160 674v86h616v-86h-616z" />
    <glyph glyph-name="hyphen.dnom" horiz-adv-x="561" 
d="M100 322v67h361v-67h-361z" />
    <glyph glyph-name="hyphen.numr" horiz-adv-x="561" 
d="M100 1034v68h361v-68h-361z" />
    <glyph glyph-name="macron.case" horiz-adv-x="894" 
d="M199 1724h497v-77h-497v77z" />
    <glyph glyph-name="nine.dnom" horiz-adv-x="675" 
d="M303 51q96 0 158 88t67 223q-33 -53 -95 -79.5t-128 -26.5q-98 0 -174 68.5t-76 173.5q0 103 75 169t187 66q135 0 211 -96t76 -256q0 -110 -35.5 -199.5t-105.5 -143.5t-162 -54q-115 0 -188 73l51 41q21 -20 60 -33.5t79 -13.5zM520 479q0 76 -62.5 132.5t-142.5 56.5
q-79 0 -130.5 -47.5t-51.5 -124.5q0 -79 53 -125.5t129 -46.5q74 0 139.5 43.5t65.5 111.5z" />
    <glyph glyph-name="nine.numr" horiz-adv-x="675" 
d="M303 760q96 0 158 88t67 223q-33 -53 -95 -79.5t-128 -26.5q-98 0 -174 68t-76 173q0 103 75 169.5t187 66.5q135 0 211 -96t76 -256q0 -170 -82.5 -284t-220.5 -114q-114 0 -188 74l51 41q21 -20 60 -33.5t79 -13.5zM520 1188q0 76 -62.5 132t-142.5 56
q-79 0 -130.5 -47.5t-51.5 -124.5q0 -79 53 -125.5t129 -46.5q74 0 139.5 44t65.5 112z" />
    <glyph glyph-name="nine.oldstyle" horiz-adv-x="1245" 
d="M567 182q-127 0 -238 51.5t-181 151.5t-70 227q0 189 142.5 307.5t361.5 118.5q261 0 407 -174.5t146 -468.5q0 -202 -67.5 -362t-204 -256t-322.5 -96q-105 0 -197 29t-141 73l65 59q41 -35 115 -56.5t156 -21.5q156 0 272 88t172.5 229.5t56.5 313.5q0 22 -1 29t-1 12
q-60 -118 -191.5 -186t-279.5 -68zM569 266q58 0 122.5 14.5t127.5 46t110 75t69 107t6 136.5q-13 57 -46 110.5t-84.5 98.5t-127.5 72.5t-164 27.5q-173 0 -290.5 -95.5t-117.5 -246.5q0 -79 34 -145.5t90.5 -109.5t126.5 -67t144 -24z" />
    <glyph glyph-name="nine.taboldstyle" 
d="M641 182q-127 0 -238 51.5t-181 151.5t-70 227q0 189 142 307.5t361 118.5q261 0 407 -174.5t146 -468.5q0 -202 -67.5 -362t-204 -256t-322.5 -96q-105 0 -197 29t-141 73l66 59q41 -35 114.5 -56.5t155.5 -21.5q118 0 214.5 51t158.5 138t95.5 200.5t33.5 241.5
q0 22 -1 29t-1 12q-60 -118 -191.5 -186t-279.5 -68zM643 266q58 0 122.5 14.5t127 46t109.5 75t69 107t6 136.5q-13 57 -46 110.5t-84.5 98.5t-127.5 72.5t-164 27.5q-173 0 -290 -95.5t-117 -246.5q0 -79 34 -145.5t90.5 -109.5t126.5 -67t144 -24z" />
    <glyph glyph-name="nine.tnum" 
d="M1108 793h-4q-39 -86 -117 -148t-166 -90.5t-178 -28.5q-96 0 -185 34t-157 94t-108.5 149.5t-40.5 193.5q0 204 142 331.5t359 127.5q261 0 408 -190.5t147 -509.5q0 -163 -40 -304.5t-113.5 -247.5t-186.5 -166.5t-252 -60.5q-106 0 -196 32t-139 81q42 42 65 60
q43 -38 114.5 -62.5t153.5 -24.5q154 0 268 94.5t171 251t57 353.5q0 25 -2 31zM1079 1028q-27 140 -142 241t-284 101q-171 0 -288 -104.5t-117 -270.5t120 -274.5t281 -108.5q64 0 131 18.5t126.5 55t103.5 85.5t63.5 116t5.5 141z" />
    <glyph glyph-name="ogonek.case" horiz-adv-x="921" 
d="M418 20v-16q-73 -45 -105 -102t-32 -109q0 -80 55 -127t127 -47q74 0 131.5 49.5t75.5 124.5l57 -31q-21 -95 -93 -157t-173 -62t-178.5 63t-77.5 175q0 57 33.5 121.5t115.5 117.5h64z" />
    <glyph glyph-name="one.dnom" horiz-adv-x="395" 
d="M47 547l-16 63l223 107h43v-717h-78v625z" />
    <glyph glyph-name="one.numr" horiz-adv-x="395" 
d="M47 1264l-16 63l223 107h43v-721h-78v628z" />
    <glyph glyph-name="one.oldstyle" horiz-adv-x="1017" 
d="M137 727l-22 84l444 205h51v-934h359v-82h-832v82h379v815z" />
    <glyph glyph-name="one.taboldstyle" 
d="M324 727l-23 84l444 205h52v-934h358v-82h-831v82h378v815z" />
    <glyph glyph-name="one.tnum" 
d="M799 1434v-1352h348v-82h-819v82h374v1231l-366 -172l-23 86l435 207h51z" />
    <glyph glyph-name="parenleft.case" horiz-adv-x="608" 
d="M115 719q0 147 29 288t70 242.5t96.5 196t97.5 148t84 98.5l63 -41q-344 -420 -344 -934q0 -513 344 -932l-63 -39q-42 45 -84 98.5t-97.5 148t-96.5 196t-70 242.5t-29 288z" />
    <glyph glyph-name="parenleft.dnom" horiz-adv-x="399" 
d="M86 338q0 88 21 171t55.5 146t63 102.5t57.5 71.5l47 -30q-166 -217 -166 -461q0 -252 166 -459l-49 -29q-28 28 -58 70.5t-62.5 104.5t-53.5 145t-21 168z" />
    <glyph glyph-name="parenleft.numr" horiz-adv-x="397" 
d="M84 1051q0 88 21 171t55.5 146t63 102.5t57.5 71.5l47 -31q-166 -217 -166 -460q0 -80 17.5 -156.5t46 -135.5t53 -98t49.5 -69l-49 -29q-28 28 -58 70.5t-62.5 104.5t-53.5 145t-21 168z" />
    <glyph glyph-name="parenright.case" horiz-adv-x="608" 
d="M494 719q0 -147 -29 -288t-70 -242.5t-96.5 -196t-97.5 -148t-84 -98.5l-64 39q40 46 78.5 98.5t89 144t87.5 188.5t63 230.5t26 270.5q0 139 -26 272.5t-63 231t-87.5 189t-89 144t-78.5 97.5l64 41q42 -45 84 -98.5t97.5 -148t96.5 -196t70 -242.5t29 -288z" />
    <glyph glyph-name="parenright.dnom" horiz-adv-x="399" 
d="M313 338q0 -86 -20.5 -169t-52.5 -144.5t-61.5 -104t-57.5 -70.5l-51 29q60 67 114 188t54 271q0 80 -17 156t-45.5 135t-53.5 98.5t-52 71.5l49 30q28 -28 57.5 -70t62.5 -104.5t53.5 -146t20.5 -170.5z" />
    <glyph glyph-name="parenright.numr" horiz-adv-x="399" 
d="M313 1051q0 -86 -20.5 -169t-52.5 -144.5t-61.5 -104t-57.5 -70.5l-51 29q26 29 52 69t53.5 98.5t45 135t17.5 156.5t-17 156t-45.5 134.5t-53.5 98t-52 71.5l49 31q28 -28 57.5 -70t62.5 -104.5t53.5 -146t20.5 -170.5z" />
    <glyph glyph-name="period.dnom" horiz-adv-x="317" 
d="M158 -14q-25 0 -40.5 14.5t-15.5 40.5q0 23 15.5 37t40.5 14q55 0 55 -51q0 -55 -55 -55z" />
    <glyph glyph-name="period.numr" horiz-adv-x="317" 
d="M158 698q-25 0 -40.5 15t-15.5 41q0 23 15.5 37t40.5 14q55 0 55 -51q0 -56 -55 -56z" />
    <glyph glyph-name="periodcentered.case" horiz-adv-x="483" 
d="M160 717q0 35 22.5 58.5t57.5 23.5t59.5 -23.5t24.5 -58.5t-24.5 -58.5t-59.5 -23.5t-57.5 23.5t-22.5 58.5z" />
    <glyph glyph-name="questiondown.case" horiz-adv-x="1046" 
d="M543 1042h90v-92q0 -60 -21 -93.5t-100 -80.5q-58 -36 -90 -57.5t-85 -64.5t-81.5 -79.5t-51 -89.5t-22.5 -108q0 -130 103 -210.5t258 -80.5q165 0 248 68t83 161q0 23 -6 70h88q11 -43 11 -78q0 -41 -13.5 -81.5t-46 -82t-80.5 -73t-122.5 -51t-165.5 -19.5
q-194 0 -325.5 104.5t-131.5 272.5q0 67 25.5 130t59.5 107t89 90t91.5 70t90.5 57l15 9q57 35 73.5 71.5t16.5 92.5v38zM670 1397q0 -35 -22.5 -58.5t-57.5 -23.5t-59.5 23.5t-24.5 58.5t24.5 58.5t59.5 23.5t57.5 -23.5t22.5 -58.5z" />
    <glyph glyph-name="ring.case" horiz-adv-x="774" 
d="M199 1726q0 76 54 124t134 48t134 -48t54 -124t-54 -123t-134 -47t-134 47t-54 123zM258 1726q0 -53 36.5 -85.5t92.5 -32.5q55 0 91 32.5t36 85.5t-36 86t-91 33q-56 0 -92.5 -33t-36.5 -86z" />
    <glyph glyph-name="seven.dnom" horiz-adv-x="573" 
d="M43 653v64h508v-49l-371 -668h-84l367 653h-420z" />
    <glyph glyph-name="seven.numr" horiz-adv-x="571" 
d="M43 1370v64h508v-50l-371 -667h-84l367 653h-420z" />
    <glyph glyph-name="seven.oldstyle" horiz-adv-x="1056" 
d="M49 932v84h989v-74l-741 -1255h-109l746 1245h-885z" />
    <glyph glyph-name="seven.taboldstyle" 
d="M217 932v84h989v-74l-741 -1255h-109l746 1245h-885z" />
    <glyph glyph-name="seven.tnum" 
d="M223 1350v84h987v-76l-761 -1358h-109l766 1350h-883z" />
    <glyph glyph-name="six.dnom" horiz-adv-x="675" 
d="M373 668q-95 0 -159 -90.5t-69 -223.5q35 55 97 81t127 26q101 0 176.5 -68t75.5 -174q0 -103 -75.5 -169t-187.5 -66q-134 0 -210 96.5t-76 257.5q0 169 82 282t219 113q58 0 108.5 -19.5t77.5 -49.5l-45 -43q-21 19 -61 33t-80 14zM162 207q11 -62 64.5 -109t133.5 -47
q79 0 131 46.5t52 123.5q0 81 -53.5 127.5t-129.5 46.5q-85 0 -149.5 -53.5t-48.5 -134.5z" />
    <glyph glyph-name="six.numr" horiz-adv-x="675" 
d="M373 1376q-95 0 -159 -90t-69 -223q35 55 97 80.5t127 25.5q101 0 176.5 -67.5t75.5 -173.5q0 -103 -75.5 -169.5t-187.5 -66.5q-134 0 -210 97t-76 258q0 169 82 282t219 113q58 0 108.5 -20t77.5 -50l-45 -43q-21 19 -61 33t-80 14zM162 915q11 -62 64.5 -108.5
t133.5 -46.5q79 0 131 46.5t52 123.5q0 81 -53.5 127.5t-129.5 46.5q-85 0 -149.5 -54t-48.5 -135z" />
    <glyph glyph-name="six.oldstyle" horiz-adv-x="1273" 
d="M690 834q127 0 238 -51.5t181.5 -152t70.5 -227.5q0 -189 -142.5 -307.5t-361.5 -118.5q-260 0 -406.5 175t-146.5 469q0 202 67.5 362t204 256t322.5 96q105 0 197 -29t141 -73l-66 -59q-41 35 -114.5 56t-155.5 21q-95 0 -176.5 -33t-140.5 -91.5t-101 -137.5
t-63 -172.5t-21 -195.5q0 -22 1 -29t1 -12q58 117 191 185.5t280 68.5zM688 750q-59 0 -123.5 -14.5t-126.5 -46t-109 -75t-68.5 -107t-6.5 -136.5q13 -57 46 -110.5t84.5 -99t127.5 -73t164 -27.5q173 0 290 95.5t117 246.5q0 105 -58.5 186t-147.5 121t-189 40z" />
    <glyph glyph-name="six.taboldstyle" 
d="M750 834q127 0 238 -51.5t181 -152t70 -227.5q0 -189 -142.5 -307.5t-361.5 -118.5q-260 0 -406.5 175t-146.5 469q0 202 67.5 362t204 256t322.5 96q105 0 197 -29t141 -73l-65 -59q-41 35 -115 56t-156 21q-95 0 -176.5 -33t-140.5 -91.5t-101 -137.5t-63 -172.5
t-21 -195.5q0 -22 1.5 -29t1.5 -12q58 117 191 185.5t280 68.5zM748 750q-59 0 -123.5 -14.5t-127 -46t-109 -75t-68.5 -107t-7 -136.5q13 -57 46 -110.5t84.5 -99t127.5 -73t164 -27.5q173 0 290.5 95.5t117.5 246.5q0 105 -58.5 186t-147.5 121t-189 40z" />
    <glyph glyph-name="six.tnum" 
d="M285 641h4q39 86 117 148t166 90t178 28q129 0 240.5 -56.5t181 -165.5t69.5 -249q0 -203 -142 -331t-360 -128q-173 0 -299.5 88t-191 245.5t-64.5 367.5q0 163 40 304.5t113.5 247t186.5 166t252 60.5q106 0 196.5 -32t139.5 -81q-37 -37 -65 -59q-43 38 -115 62
t-154 24q-154 0 -268 -94t-170.5 -250.5t-56.5 -353.5q0 -25 2 -31zM313 406q27 -139 142 -241t284 -102q171 0 288.5 105t117.5 270q0 166 -120.5 274.5t-281.5 108.5q-65 0 -131.5 -18t-126 -54t-103.5 -85t-63.5 -116.5t-5.5 -141.5z" />
    <glyph glyph-name="sterling.dnom" horiz-adv-x="673" 
d="M373 666q-69 0 -112.5 -35t-43.5 -90q0 -53 43 -148l25 -69h198v-58h-182q4 -12 4 -49q0 -94 -65 -151h374v-66h-559v66q73 0 123.5 34.5t50.5 112.5q0 33 -8 57h-135v54h119q-8 26 -27 69q-41 98 -41 146q0 85 67 137.5t167 52.5q97 0 154 -48t57 -106q0 -28 -2 -38h-74
v16q0 44 -33.5 78.5t-99.5 34.5z" />
    <glyph glyph-name="sterling.numr" horiz-adv-x="677" 
d="M375 1378q-69 0 -112.5 -35t-43.5 -90q0 -52 43 -147l25 -70h198v-57h-182q4 -12 4 -49q0 -89 -65 -148h374v-65h-559v65q74 0 124 32.5t50 111.5q0 33 -8 57h-135v53h119q-10 30 -27 70q-41 98 -41 145q0 85 67 138t167 53q97 0 154 -48t57 -106q0 -29 -2 -39h-74v17
q0 44 -33.5 78t-99.5 34z" />
    <glyph glyph-name="sterlinginferior" horiz-adv-x="673" 
d="M373 393q-69 0 -112.5 -35t-43.5 -90q0 -52 43 -147l25 -70h198v-57h-182q4 -12 4 -49q0 -93 -65 -150h374v-65h-559v65q73 0 123.5 34t50.5 112q0 33 -8 57h-135v53h119q-10 30 -27 70q-41 98 -41 145q0 85 67 138t167 53q97 0 154 -48t57 -106q0 -29 -2 -39h-74v17
q0 44 -33.5 78t-99.5 34z" />
    <glyph glyph-name="sterlingsuperior" horiz-adv-x="673" 
d="M373 1573q-69 0 -112.5 -35t-43.5 -90q0 -53 43 -148l25 -69h198v-57h-182q4 -12 4 -50q0 -88 -65 -147h374v-66h-559v66q34 0 63 6.5t55 21.5t41 44.5t15 70.5q0 34 -8 58h-135v53h119q-8 26 -27 69q-41 98 -41 146q0 85 67 137.5t167 52.5q97 0 154 -47.5t57 -105.5
q0 -29 -2 -39h-74v16q0 44 -33.5 78.5t-99.5 34.5z" />
    <glyph glyph-name="three.dnom" horiz-adv-x="651" 
d="M57 63l45 54q35 -29 87.5 -46.5t103.5 -17.5q100 0 155.5 48.5t55.5 121.5q0 76 -53 119t-134 43q-68 0 -114 -29l-31 50l268 247h-360v64h477v-39l-248 -236h15q113 0 184.5 -59.5t71.5 -161.5q0 -103 -75.5 -169t-211.5 -66q-147 0 -236 77z" />
    <glyph glyph-name="three.numr" horiz-adv-x="651" 
d="M57 776l45 53q35 -29 87 -46t104 -17q100 0 155.5 48.5t55.5 121.5q0 76 -53.5 121t-133.5 45q-68 0 -114 -29l-31 49l268 248h-360v64h477v-39l-248 -236h15q112 0 184 -61t72 -164t-75.5 -169.5t-211.5 -66.5q-146 0 -236 78z" />
    <glyph glyph-name="three.oldstyle" horiz-adv-x="1187" 
d="M535 -236q213 0 336.5 100.5t123.5 246.5t-112.5 233.5t-282.5 87.5q-158 0 -233 -47l-48 61l551 486h-745v84h915v-53l-534 -463l2 -4q47 8 113 8q201 0 336 -107t135 -286q0 -90 -36.5 -167.5t-105 -136.5t-175.5 -92.5t-240 -33.5q-144 0 -261 34.5t-186 91.5
q17 17 57 68q144 -111 390 -111z" />
    <glyph glyph-name="three.taboldstyle" 
d="M637 -236q213 0 337 100.5t124 246.5t-113 233.5t-283 87.5q-158 0 -233 -47l-47 61l551 486h-746v84h916v-53l-535 -463l2 -4q47 8 113 8q201 0 336 -107t135 -286q0 -90 -36.5 -167.5t-105 -136.5t-175.5 -92.5t-240 -33.5q-144 0 -261 34.5t-186 91.5q22 22 58 68
q144 -111 389 -111z" />
    <glyph glyph-name="three.tnum" 
d="M631 63q220 0 341.5 109t121.5 272q0 161 -115 256t-287 95q-158 0 -231 -54l-47 64l569 545h-758v84h916v-58l-539 -510l2 -4q58 10 101 10q135 0 244 -49.5t175 -148t66 -230.5q0 -98 -36.5 -182.5t-105 -148t-176 -100t-241.5 -36.5q-144 0 -260.5 36t-184.5 98l58 63
q144 -111 387 -111z" />
    <glyph glyph-name="tilde.case" horiz-adv-x="946" 
d="M608 1620q-47 0 -134.5 44t-133.5 44q-35 0 -52 -19t-44 -79l-49 12q29 93 60 127.5t83 34.5q47 0 137.5 -45t130.5 -45q35 0 52.5 18t43.5 76l50 -10q-29 -91 -60.5 -124.5t-83.5 -33.5z" />
    <glyph glyph-name="two.dnom" horiz-adv-x="655" 
d="M432 274l-239 -206q17 0 47 1t45 1h311v-70h-522q-4 32 -4 53l311 271q106 95 106 190q0 71 -46.5 108t-129.5 37q-79 0 -119 -35t-45 -85h-79q5 76 67 133t178 57q115 0 182.5 -59t67.5 -158q0 -123 -131 -238z" />
    <glyph glyph-name="two.numr" horiz-adv-x="655" 
d="M432 987l-239 -207q17 0 47 1t45 1h311v-69h-522q-4 32 -4 53l311 270q106 95 106 191q0 71 -46.5 108t-129.5 37q-79 0 -119 -35.5t-45 -85.5h-79q5 76 67 133.5t178 57.5q115 0 182.5 -59t67.5 -158q0 -123 -131 -238z" />
    <glyph glyph-name="two.oldstyle" horiz-adv-x="1236" 
d="M514 82h619v-82h-1012l-4 70l602 358q147 88 211.5 157t64.5 156q0 102 -108.5 157.5t-282.5 55.5q-177 0 -270.5 -48.5t-108.5 -121.5h-96q6 47 34 89t81 80.5t146.5 61.5t215.5 23q212 0 349 -78t137 -215q0 -116 -82 -207t-258 -190l-461 -270q49 4 223 4z" />
    <glyph glyph-name="two.taboldstyle" 
d="M592 82h618v-82h-1011l-4 70l602 358q147 88 211.5 157t64.5 156q0 102 -108.5 157.5t-282.5 55.5q-177 0 -270.5 -48.5t-108.5 -121.5h-96q6 47 34 89t81 80.5t146.5 61.5t215.5 23q212 0 348.5 -78t136.5 -215q0 -116 -82 -207t-258 -190l-460 -270q49 4 223 4z" />
    <glyph glyph-name="two.tnum" 
d="M887 571l-559 -499q141 10 334 10h550v-82h-1005l-10 72q105 94 312 281.5t312 281.5q110 96 170 190t60 213q0 157 -104.5 244.5t-284.5 87.5q-92 0 -162.5 -21.5t-110.5 -59t-62 -79t-28 -88.5h-98q0 58 27 114.5t80.5 107t146 81.5t209.5 31q222 0 353.5 -109.5
t131.5 -304.5q0 -75 -19 -141t-58 -124.5t-81 -104.5t-104 -101z" />
    <glyph glyph-name="uni02C9.case" horiz-adv-x="894" 
d="M199 1724h497v-77h-497v77z" />
    <glyph glyph-name="y.alt" horiz-adv-x="1081" 
d="M545 94l375 922h108l-381 -907q-76 -176 -118 -250q-192 -339 -470 -340q-107 0 -206 61q7 13 17 39t17 39q92 -53 172 -53q252 0 435 383l-445 1028h107z" />
    <glyph glyph-name="yacute.alt" horiz-adv-x="1081" 
d="M545 94l375 922h108l-381 -907q-76 -176 -118 -250q-192 -339 -470 -340q-107 0 -206 61q7 13 17 39t17 39q92 -53 172 -53q252 0 435 383l-445 1028h107zM641 1481h111l-222 -307h-77z" />
    <glyph glyph-name="ycircumflex.alt" horiz-adv-x="1081" 
d="M545 94l375 922h108l-381 -907q-76 -176 -118 -250q-192 -339 -470 -340q-107 0 -206 61q7 13 17 39t17 39q92 -53 172 -53q252 0 435 383l-445 1028h107zM475 1481h109l229 -307h-74l-211 243l-209 -243h-73z" />
    <glyph glyph-name="ydieresis.alt" horiz-adv-x="1081" 
d="M545 94l375 922h108l-381 -907q-76 -176 -118 -250q-192 -339 -470 -340q-107 0 -206 61q7 13 17 39t17 39q92 -53 172 -53q252 0 435 383l-445 1028h107zM240 1319q0 32 21 55t52 23q32 0 54 -23t22 -55q0 -31 -22 -52.5t-54 -21.5q-31 0 -52 21.5t-21 52.5zM668 1319
q0 32 21 55t52 23q32 0 54 -23t22 -55q0 -31 -22 -52.5t-54 -21.5q-31 0 -52 21.5t-21 52.5z" />
    <glyph glyph-name="yen.dnom" horiz-adv-x="716" 
d="M319 0v131h-198v49h198v68h-198v51h194l-272 418h90l225 -355l226 355h90l-273 -418h195v-51h-199v-68h199v-49h-199v-131h-78z" />
    <glyph glyph-name="yen.numr" horiz-adv-x="716" 
d="M319 717v131h-198v49h198v64h-198v51h194l-272 422h90l225 -359l226 359h90l-273 -422h195v-51h-199v-64h199v-49h-199v-131h-78z" />
    <glyph glyph-name="yeninferior" horiz-adv-x="712" 
d="M317 -270v131h-198v49h198v63h-198v52h194l-272 424h90l225 -361l226 361h90l-273 -424h195v-52h-199v-63h199v-49h-199v-131h-78z" />
    <glyph glyph-name="yensuperior" horiz-adv-x="712" 
d="M317 911v131h-198v50h198v63h-198v51h194l-272 422h90l225 -358l226 358h90l-273 -422h195v-51h-199v-63h199v-50h-199v-131h-78z" />
    <glyph glyph-name="ygrave.alt" horiz-adv-x="1081" 
d="M545 94l375 922h108l-381 -907q-76 -176 -118 -250q-192 -339 -470 -340q-107 0 -206 61q7 13 17 39t17 39q92 -53 172 -53q252 0 435 383l-445 1028h107zM295 1481h111l188 -307h-80z" />
    <glyph glyph-name="zero.dnom" horiz-adv-x="761" 
d="M692 362q0 -160 -85 -268t-226 -108q-138 0 -223.5 108.5t-85.5 267.5q0 156 85.5 263.5t223.5 107.5q141 0 226 -107t85 -264zM614 362q0 131 -63 217.5t-170 86.5q-105 0 -167 -86.5t-62 -217.5q0 -133 62.5 -219t166.5 -86q108 0 170.5 85.5t62.5 219.5z" />
    <glyph glyph-name="zero.numr" horiz-adv-x="763" 
d="M692 1071q0 -160 -85 -268.5t-226 -108.5q-138 0 -223.5 109t-85.5 268q0 156 85.5 263.5t223.5 107.5q141 0 226 -107t85 -264zM614 1071q0 131 -63 217t-170 86q-105 0 -167 -86t-62 -217q0 -133 62.5 -219t166.5 -86q108 0 170.5 85.5t62.5 219.5z" />
    <glyph glyph-name="zero.oldstyle" horiz-adv-x="1419" 
d="M1307 510q0 -110 -42.5 -207t-118.5 -169.5t-190 -114.5t-249 -42t-248 42t-188 114.5t-116.5 169.5t-41.5 207q0 108 41.5 204t116.5 168t188 114t248 42t249 -42t190 -113.5t118.5 -168t42.5 -204.5zM1210 510q0 92 -35.5 173t-99 141t-159 95t-209.5 35
q-227 0 -362.5 -127t-135.5 -317q0 -92 34.5 -174t97.5 -143t157.5 -96.5t208.5 -35.5q227 0 365 129.5t138 319.5z" />
    <glyph glyph-name="zero.taboldstyle" 
d="M1294 510q0 -110 -42.5 -207t-118.5 -169.5t-190 -114.5t-249 -42t-248 42t-188 114.5t-116.5 169.5t-41.5 207q0 108 41.5 204t116.5 168t188 114t248 42t249 -42t190 -113.5t118.5 -168t42.5 -204.5zM1198 510q0 92 -35.5 173t-99.5 141t-159.5 95t-209.5 35
q-227 0 -362 -127t-135 -317q0 -124 58.5 -225t173 -162.5t265.5 -61.5q227 0 365.5 129.5t138.5 319.5z" />
    <glyph glyph-name="zero.tnum" 
d="M1300 719q0 -205 -71.5 -372.5t-211 -268.5t-321.5 -101q-138 0 -252.5 58.5t-190.5 159.5t-117.5 236t-41.5 288q0 154 41.5 288t117.5 234t190.5 157.5t252.5 57.5q110 0 206.5 -37t168.5 -104.5t124 -159t78.5 -202.5t26.5 -234zM1204 719q0 181 -60 328t-177 235
t-271 88q-153 0 -269.5 -88t-176.5 -235t-60 -328q0 -180 59.5 -328t176.5 -238t270 -90q154 0 271 90t177 238t60 328z" />
    </font>
</defs>
</svg>
