<?xml version="1.0" standalone="no"?>
<!DOCTYPE svg PUBLIC "-//W3C//DTD SVG 1.1//EN" "http://www.w3.org/Graphics/SVG/1.1/DTD/svg11.dtd" >
<svg xmlns="http://www.w3.org/2000/svg" xmlns:xlink="http://www.w3.org/1999/xlink" version="1.1">
<metadata>
Created by FontForge 20170731 at Tue Oct 10 09:44:47 2023
 By Aleksey,,,
Copyright (c) Olivier Gourvat - Mostardesign Studio, 2014. All rights reserved. |DCNT
</metadata>
<defs>
<font id="FilsonPro-Thin" horiz-adv-x="1222" >
  <font-face 
    font-family="Filson Pro Thin"
    font-weight="250"
    font-stretch="normal"
    units-per-em="2048"
    panose-1="2 0 0 0 0 0 0 0 0 0"
    ascent="1481"
    descent="-567"
    x-height="1014"
    cap-height="1434"
    bbox="-434 -524 2527 2005"
    underline-thickness="102"
    underline-position="-307"
    unicode-range="U+000D-FB04"
  />
<missing-glyph horiz-adv-x="1378" 
d="M205 0v1436h969v-1436h-969zM582 526h123q0 40 4 55.5t20 26.5q7 4 30 18.5t39 24.5t41.5 29t43.5 36.5t39 42.5t34 50t22 57t9 66q0 120 -90.5 193t-224.5 73q-78 0 -138.5 -21.5t-94.5 -56t-51 -72.5t-17 -77q0 -53 18 -94h129q-16 36 -16 90q0 52 44 84t118 32
q87 0 135.5 -40.5t48.5 -110.5v-4q0 -68 -41 -115t-137 -106q-63 -36 -75.5 -64t-12.5 -117zM545 295q0 -43 28.5 -71.5t69.5 -28.5q43 0 72.5 28.5t29.5 71.5q0 41 -29.5 70.5t-72.5 29.5q-41 0 -69.5 -29.5t-28.5 -70.5z" />
    <glyph glyph-name="f_f" unicode="ff" horiz-adv-x="1310" 
d="M770 1368l-39 -29q-21 55 -74 87t-133 32q-47 0 -88 -17t-77 -54.5t-57 -107.5t-21 -165v-100h606v100q0 87 17 155.5t45 111.5t67 71.5t79 39.5t85 11q126 0 196 -65.5t70 -167.5q0 -11 -2 -17q0 -15 -8 -34h-50q6 8 9 32q2 6 2 19q0 82 -57 135t-160 53q-47 0 -88 -17
t-77.5 -54.5t-57.5 -107.5t-21 -165v-100h319v-45h-319v-969h-49v969h-606v-969h-50v969h-186v45h186v100q0 87 17 155.5t45 111.5t67 71.5t79 39.5t85 11q94 0 156.5 -36t89.5 -99z" />
    <glyph glyph-name="fi" unicode="fi" horiz-adv-x="1101" 
d="M231 969h-186v45h186v141q0 81 20 143t52 100t77 62.5t90.5 33.5t96.5 9q64 0 120.5 -17.5t107 -65t73.5 -120.5l-47 -14q-18 60 -61.5 99.5t-91.5 54t-101 14.5q-44 0 -82.5 -8t-77 -29t-65.5 -53.5t-44 -86t-17 -122.5v-141h628v-1014h-49v969h-579v-969h-50v969z" />
    <glyph glyph-name="fl" unicode="fl" horiz-adv-x="1089" 
d="M231 969h-186v45h186v141q0 81 20 143t52 100t77 62.5t90.5 33.5t96.5 9q160 0 330 -61v-1442h-49v1403q-54 23 -131 37t-150 14q-44 0 -82.5 -8t-77 -29t-65.5 -53.5t-44 -86t-17 -122.5v-141h290v-45h-290v-969h-50v969z" />
    <glyph glyph-name="f_f_i" unicode="ffi" horiz-adv-x="1757" 
d="M813 1395l-43 -27q-75 86 -209 86q-56 0 -102.5 -14t-88 -45.5t-65.5 -93t-24 -146.5v-141h606v141q0 81 20 143t52 100t77 62.5t90.5 33.5t96.5 9q64 0 120.5 -17.5t107 -65t73.5 -120.5l-47 -14q-18 60 -61.5 99.5t-91.5 54t-101 14.5q-56 0 -103.5 -14t-90.5 -45.5
t-68 -93t-25 -146.5v-141h629v-1014h-49v969h-580v-969h-49v969h-606v-969h-50v969h-186v45h186v141q0 81 19.5 143t50.5 100t75 62.5t89 33.5t96 9q167 0 252 -108z" />
    <glyph glyph-name="f_f_l" unicode="ffl" horiz-adv-x="1744" 
d="M1503 0v1403q-118 51 -280 51q-56 0 -103.5 -14t-90.5 -45.5t-68 -93t-25 -146.5v-141h291v-45h-291v-969h-49v969h-606v-969h-50v969h-186v45h186v141q0 81 19.5 143t50.5 100t75 62.5t89 33.5t96 9q167 0 252 -108l-43 -27q-75 86 -209 86q-56 0 -102.5 -14t-88 -45.5
t-65.5 -93t-24 -146.5v-141h606v141q0 81 20 143t52 100t77 62.5t90.5 33.5t96.5 9q159 0 329 -61v-1442h-49z" />
    <glyph glyph-name="f_f_j" unicode="ffj" horiz-adv-x="1820" 
d="M813 1395l-43 -27q-75 86 -209 86q-56 0 -102.5 -14t-88 -45.5t-65.5 -93t-24 -146.5v-141h606v141q0 81 20 143t52 100t77 62.5t90.5 33.5t96.5 9q64 0 120.5 -17.5t107 -65t73.5 -120.5l-47 -14q-18 60 -61.5 99.5t-91.5 54t-101 14.5q-56 0 -103.5 -14t-90.5 -45.5
t-68 -93t-25 -146.5v-141h692v-1166q0 -81 -16 -141.5t-40.5 -96t-61 -56.5t-70.5 -28t-76 -7q-113 0 -176.5 65.5t-63.5 167.5q0 11 2 17q0 13 9 34h47l-6 -32q-2 -6 -2 -19q0 -82 50.5 -135t139.5 -53q43 0 77.5 11t67.5 39.5t51.5 88t18.5 145.5v1121h-643v-969h-49v969
h-606v-969h-50v969h-186v45h186v141q0 81 19.5 143t50.5 100t75 62.5t89 33.5t96 9q167 0 252 -108z" />
    <glyph glyph-name="f_j" unicode="fj" horiz-adv-x="1165" 
d="M231 969h-186v45h186v141q0 81 20 143t52 100t77 62.5t90.5 33.5t96.5 9q64 0 120.5 -17.5t107 -65t73.5 -120.5l-47 -14q-18 60 -61.5 99.5t-91.5 54t-101 14.5q-44 0 -82.5 -8t-77 -29t-65.5 -53.5t-44 -86t-17 -122.5v-141h692v-1166q0 -81 -16 -141.5t-40.5 -96
t-61 -56.5t-70.5 -28t-76 -7q-113 0 -176.5 65.5t-63.5 167.5q0 11 2 17q0 15 8 34h47l-6 -32q-2 -6 -2 -19q0 -82 50.5 -135t140.5 -53q43 0 77.5 11t67.5 39.5t51.5 88t18.5 145.5v1121h-643v-969h-50v969z" />
    <glyph glyph-name=".notdef" horiz-adv-x="1378" 
d="M205 0v1436h969v-1436h-969zM582 526h123q0 40 4 55.5t20 26.5q7 4 30 18.5t39 24.5t41.5 29t43.5 36.5t39 42.5t34 50t22 57t9 66q0 120 -90.5 193t-224.5 73q-78 0 -138.5 -21.5t-94.5 -56t-51 -72.5t-17 -77q0 -53 18 -94h129q-16 36 -16 90q0 52 44 84t118 32
q87 0 135.5 -40.5t48.5 -110.5v-4q0 -68 -41 -115t-137 -106q-63 -36 -75.5 -64t-12.5 -117zM545 295q0 -43 28.5 -71.5t69.5 -28.5q43 0 72.5 28.5t29.5 71.5q0 41 -29.5 70.5t-72.5 29.5q-41 0 -69.5 -29.5t-28.5 -70.5z" />
    <glyph glyph-name=".null" horiz-adv-x="0" 
 />
    <glyph glyph-name="nonmarkingreturn" horiz-adv-x="682" 
 />
    <glyph glyph-name="NULL" horiz-adv-x="0" 
 />
    <glyph glyph-name="NULL" horiz-adv-x="0" 
 />
    <glyph glyph-name="CR" unicode="&#xd;" horiz-adv-x="512" 
 />
    <glyph glyph-name="space" unicode=" " horiz-adv-x="585" 
 />
    <glyph glyph-name="exclam" unicode="!" horiz-adv-x="411" 
d="M231 1174l-12 -773h-26l-13 773v260h51v-260zM154 31q0 23 14 38t37 15t38 -15t15 -38t-15 -38.5t-38 -15.5t-37 15t-14 39z" />
    <glyph glyph-name="quotedbl" unicode="&#x22;" horiz-adv-x="710" 
d="M164 1481h45v-541h-45v541zM502 1481h45v-541h-45v541z" />
    <glyph glyph-name="numbersign" unicode="#" horiz-adv-x="1488" 
d="M1108 1098h303l-12 -45h-303l-170 -627h303l-12 -45h-304l-104 -381h-45l104 381h-440l-104 -381h-45l104 381h-305l12 45h305l170 627h-305l12 45h306l92 336h45l-92 -336h440l92 336h45zM610 1053l-170 -627h441l170 627h-441z" />
    <glyph glyph-name="dollar" unicode="$" horiz-adv-x="1056" 
d="M504 1378v189h49v-187q138 -4 236 -74t129 -180l-48 -12q-25 93 -110.5 153t-206.5 64v-575l111 -35q54 -17 103.5 -45.5t93.5 -69.5t70.5 -98.5t26.5 -122.5q0 -139 -110.5 -239.5t-294.5 -104.5v-188h-49v188q-153 7 -262 80t-158 174l49 16q41 -87 137 -151.5
t234 -71.5v631l-94 31q-275 86 -275 301q0 145 104.5 232t264.5 95zM907 385q0 57 -23 106t-61.5 84t-82.5 59.5t-93 39.5l-94 31v-617q160 4 257 91t97 206zM186 1053q0 -186 240 -256l78 -25v559q-135 -8 -226.5 -83t-91.5 -195z" />
    <glyph glyph-name="percent" unicode="%" horiz-adv-x="1730" 
d="M78 1141q0 135 88 225t219 90q132 0 220.5 -90t88.5 -225q0 -130 -89 -222t-220 -92q-129 0 -218 92t-89 222zM422 0l801 1434h47l-801 -1434h-47zM121 1141q0 -111 76.5 -191t187.5 -80q113 0 189.5 79.5t76.5 191.5q0 117 -76 194.5t-190 77.5q-113 0 -188.5 -77.5
t-75.5 -194.5zM1036 291q0 135 88 225t219 90q132 0 221 -90t89 -225q0 -130 -89.5 -222t-220.5 -92q-129 0 -218 92t-89 222zM1079 291q0 -111 76.5 -191t187.5 -80q113 0 190 79.5t77 191.5q0 117 -76.5 194.5t-190.5 77.5q-113 0 -188.5 -77.5t-75.5 -194.5z" />
    <glyph glyph-name="ampersand" unicode="&#x26;" horiz-adv-x="1619" 
d="M133 350q0 -153 121 -238t303 -85q106 0 221 69.5t193 179.5l26 37l-405 469q-87 -34 -162 -75t-145 -94.5t-111 -121.5t-41 -141zM1575 57l22 -43q-52 -37 -161 -37q-45 0 -81 8.5t-69 30t-51.5 37t-54.5 49.5l-152 174l-12 -18q-86 -125 -213.5 -203t-245.5 -78
q-132 0 -238.5 42.5t-171.5 128.5t-65 202q0 79 42.5 153.5t114 133t151.5 103t169 77.5q-60 60 -88 90t-69.5 81.5t-59.5 95.5t-18 87q0 64 25 115.5t62.5 82.5t85.5 51.5t90 28t81 7.5q128 0 217.5 -81t89.5 -187q0 -101 -101.5 -213.5t-234.5 -171.5l385 -445l229 299h64
l-258 -338l160 -186q42 -39 63.5 -56.5t63 -34.5t90.5 -17q91 0 139 32zM924 1188q0 88 -74.5 154.5t-181.5 66.5q-42 0 -88 -11.5t-94.5 -36.5t-79.5 -74.5t-31 -115.5q0 -17 4 -35t9 -33t16.5 -34.5t19 -32.5t25.5 -34t27 -32t31 -34t31 -32l34 -34l32 -32
q129 57 224.5 157t95.5 193z" />
    <glyph glyph-name="quotesingle" unicode="'" horiz-adv-x="372" 
d="M164 1481h45v-541h-45v541z" />
    <glyph glyph-name="parenleft" unicode="(" horiz-adv-x="540" 
d="M106 569q0 147 29 288t70 242.5t96.5 195.5t97 147t84.5 98l37 -24q-40 -41 -80.5 -94t-93.5 -144t-92 -191t-66.5 -237.5t-27.5 -280.5t27.5 -280.5t66.5 -237t92 -190.5t93.5 -143.5t80.5 -94.5l-37 -24q-43 45 -84.5 97.5t-97.5 147t-96.5 195.5t-69.5 242t-29 288z
" />
    <glyph glyph-name="parenright" unicode=")" horiz-adv-x="538" 
d="M434 569q0 -147 -29 -288t-69.5 -242t-96.5 -195.5t-97.5 -147t-84.5 -97.5l-37 24q40 42 81 94.5t93.5 143.5t92 190.5t67 237t27.5 280.5t-27.5 280.5t-67 237.5t-92 191t-93.5 143.5t-81 94.5l37 24q43 -45 84.5 -98t97 -147t96.5 -195.5t70 -242.5t29 -288z" />
    <glyph glyph-name="asterisk" unicode="*" horiz-adv-x="880" 
d="M756 1235l-283 -96l197 -228l-37 -30l-193 239l-184 -243l-39 30l193 232l-285 96l16 49l281 -110l-6 307h49l-6 -307l280 110z" />
    <glyph glyph-name="plus" unicode="+" horiz-adv-x="1105" 
d="M530 631v420h45v-420h420v-45h-420v-420h-45v420h-419v45h419z" />
    <glyph glyph-name="comma" unicode="," horiz-adv-x="485" 
d="M276 33q0 25 -6 37q-9 -9 -32 -9t-37.5 15.5t-14.5 38.5t15.5 37t40.5 14q38 0 56.5 -39.5t18.5 -93.5q0 -15 -1.5 -31t-11.5 -51t-27 -66t-53 -67t-85 -62l-18 29q43 23 75 55.5t46.5 60t23 59.5t9.5 45.5t1 27.5z" />
    <glyph glyph-name="hyphen" unicode="-" horiz-adv-x="870" 
d="M152 631h567v-45h-567v45z" />
    <glyph glyph-name="period" unicode="." horiz-adv-x="409" 
d="M154 31q0 23 14 38t37 15t38 -15t15 -38t-15 -38.5t-38 -15.5t-37 15t-14 39z" />
    <glyph glyph-name="slash" unicode="/" horiz-adv-x="974" 
d="M72 -90l784 1595h47l-784 -1595h-47z" />
    <glyph glyph-name="zero" unicode="0" horiz-adv-x="1439" 
d="M1317 719q0 -205 -70.5 -372.5t-208.5 -268.5t-319 -101q-180 0 -317.5 101t-208 268.5t-70.5 372.5q0 154 41.5 288.5t117 234t188.5 157t249 57.5q137 0 250.5 -57.5t189 -157t117 -234t41.5 -288.5zM1264 719q0 193 -64.5 348.5t-189.5 248.5t-291 93q-124 0 -227 -54
t-171.5 -147.5t-106.5 -219t-38 -269.5q0 -143 38 -269t106.5 -220.5t171.5 -149.5t227 -55t228 55t172.5 149.5t106.5 220.5t38 269z" />
    <glyph glyph-name="one" unicode="1" horiz-adv-x="667" 
d="M57 1184l-10 49l416 201h31v-1434h-52v1366z" />
    <glyph glyph-name="two" unicode="2" horiz-adv-x="1198" 
d="M113 0l-4 47l636 574q117 106 179.5 205t62.5 227q0 174 -113.5 265t-314.5 91q-96 0 -170 -21t-118 -58.5t-69 -80t-34 -92.5h-53q0 54 28 106.5t81 96t141 70t196 26.5q220 0 349.5 -104t129.5 -297q0 -138 -65.5 -246.5t-194.5 -222.5l-596 -535h924v-51h-995z" />
    <glyph glyph-name="three" unicode="3" horiz-adv-x="1193" 
d="M598 815q-166 0 -244 -49l-24 41l610 579h-803v48h897v-27l-583 -557l2 -6q67 20 153 20q136 0 244 -51t171.5 -149.5t63.5 -229.5q0 -96 -36 -178.5t-104 -145t-175 -98t-240 -35.5q-134 0 -245.5 32.5t-175.5 88.5l30 35q60 -50 165 -79t226 -29q239 0 370.5 115
t131.5 294q0 177 -123.5 279t-310.5 102z" />
    <glyph glyph-name="four" unicode="4" horiz-adv-x="1372" 
d="M135 475h780v862zM915 428h-862v33l883 973h31v-959h344v-47h-344v-428h-52v428z" />
    <glyph glyph-name="five" unicode="5" horiz-adv-x="1193" 
d="M201 764l-2 2l-41 20l45 648h782v-48h-737l-39 -565q193 94 383 94q127 0 226 -39.5t159 -106.5t90.5 -149.5t30.5 -175.5q0 -95 -32.5 -178.5t-95 -148.5t-162.5 -102.5t-226 -37.5q-124 0 -249.5 35t-201.5 86l31 37q68 -49 185 -79.5t231 -30.5t204.5 34t146.5 92.5
t85.5 133.5t29.5 161q0 83 -27.5 157t-80.5 134t-142 95.5t-202 35.5q-188 0 -387 -102v-2h-4z" />
    <glyph glyph-name="six" unicode="6" horiz-adv-x="1255" 
d="M178 680q0 -51 2 -76h8q34 89 116.5 157.5t177.5 102t186 33.5q132 0 244.5 -56t182.5 -162.5t70 -240.5q0 -138 -66.5 -244t-177.5 -161.5t-247 -55.5q-261 0 -405 190t-144 513q0 218 68 392.5t202 279t314 104.5q97 0 182 -26t129 -66l-37 -33q-100 78 -274 78
q-163 0 -285.5 -99t-184 -263t-61.5 -367zM205 477q0 -52 12 -92q50 -170 168 -265t289 -95q185 0 311.5 113.5t126.5 299.5q0 120 -62.5 214t-163.5 143t-218 49q-59 0 -123 -16.5t-124.5 -49t-108.5 -75.5t-77.5 -102.5t-29.5 -123.5z" />
    <glyph glyph-name="seven" unicode="7" horiz-adv-x="1048" 
d="M1032 1386l-782 -1386h-60l785 1386h-914v48h971v-48z" />
    <glyph glyph-name="eight" unicode="8" horiz-adv-x="1345" 
d="M1159 1094q0 -113 -70 -202.5t-202 -131.5q166 -41 253 -135t87 -226q0 -184 -156 -304t-399 -120t-399 119.5t-156 300.5q0 129 85.5 227t248.5 140q-130 42 -198.5 130t-68.5 200q0 159 136.5 261.5t351.5 102.5q217 0 352 -102.5t135 -259.5zM672 731q-101 0 -140 -6
q-179 -30 -270.5 -117t-91.5 -213q0 -161 141 -266.5t361 -105.5t361 106.5t141 269.5q0 128 -95 211.5t-278 112.5q-57 8 -129 8zM537 784q47 -6 135 -6q82 0 129 6q145 28 225 113t80 197q0 137 -120.5 226t-313.5 89q-192 0 -313 -88.5t-121 -228.5q0 -110 77.5 -195
t221.5 -113z" />
    <glyph glyph-name="nine" unicode="9" horiz-adv-x="1255" 
d="M1077 754q0 50 -2 75h-8q-34 -89 -116 -157.5t-177 -101.5t-186 -33q-132 0 -245 56t-183 162t-70 240q0 139 67 245t178 161t247 55q261 0 404.5 -189.5t143.5 -512.5q0 -218 -67.5 -392.5t-202 -279.5t-313.5 -105q-96 0 -181 26.5t-130 66.5l36 32q98 -77 275 -77
q163 0 285 99t183.5 262.5t61.5 367.5zM1051 956q0 50 -13 93q-50 170 -167.5 265t-288.5 95q-185 0 -312 -114t-127 -300q0 -120 63 -214t163.5 -142.5t218.5 -48.5q74 0 154.5 26.5t150 72.5t114 116.5t44.5 150.5z" />
    <glyph glyph-name="colon" unicode=":" horiz-adv-x="407" 
d="M152 31q0 23 14 38t37 15t38 -15t15 -38t-15 -38.5t-38 -15.5t-37 15t-14 39zM152 983q0 23 14 38t37 15t38 -15t15 -38t-15 -38t-38 -15t-37 15t-14 38z" />
    <glyph glyph-name="semicolon" unicode=";" horiz-adv-x="493" 
d="M205 983q0 23 14 38t37 15t38 -15t15 -38t-15 -38t-38 -15t-37 15t-14 38zM291 33q0 25 -6 37q-9 -9 -33 -9q-23 0 -37 15t-14 39q0 23 15 37t40 14q38 0 57 -39.5t19 -93.5q0 -15 -1.5 -31t-11.5 -51t-27 -66t-53 -67t-85 -62l-19 29q53 28 88.5 68t48 80t16 61t3.5 39z
" />
    <glyph glyph-name="less" unicode="&#x3c;" horiz-adv-x="1296" 
d="M1128 901l-976 -350l976 -350v-51l-1022 368v66l1022 368v-51z" />
    <glyph glyph-name="equal" unicode="=" horiz-adv-x="1208" 
d="M162 383h885v-45h-885v45zM162 967h885v-45h-885v45z" />
    <glyph glyph-name="greater" unicode="&#x3e;" horiz-adv-x="1296" 
d="M1145 551l-977 350v51l1022 -368v-66l-1022 -368v51z" />
    <glyph glyph-name="question" unicode="?" horiz-adv-x="1034" 
d="M475 401h-51v86q0 35 2 50.5t12.5 38t34.5 42t68 46.5q39 23 61.5 36.5t65 43t69.5 53t61 59.5t53.5 70t33.5 77.5t14 88.5q0 143 -115 230t-282 87q-78 0 -142.5 -16t-105.5 -41t-69 -58t-40 -65t-12 -64q0 -40 6 -71h-49q-8 41 -8 71q0 38 13.5 77t45.5 78t78.5 68.5
t120 48.5t162.5 19q188 0 318 -100.5t130 -263.5q0 -44 -10 -85.5t-31.5 -79t-43 -68t-56.5 -62.5t-59.5 -53t-65.5 -48t-60 -38.5l-57 -34.5q-34 -20 -53 -35.5t-27.5 -33t-10 -29.5t-1.5 -38v-86zM397 31q0 23 14.5 38t37.5 15t38 -15t15 -38t-15 -38.5t-38 -15.5
t-37.5 15.5t-14.5 38.5z" />
    <glyph glyph-name="at" unicode="@" horiz-adv-x="2193" 
d="M606 479q0 122 50.5 222t151 161.5t234.5 61.5q138 0 237.5 -65.5t147.5 -180.5v217h52v-717q0 -99 51.5 -145.5t136.5 -46.5q162 0 258 141.5t96 433.5q0 189 -67 352.5t-187 279.5t-292 182.5t-375 66.5q-201 0 -376.5 -73.5t-299.5 -201t-195 -306t-71 -382.5
q0 -273 112 -491t318.5 -343.5t472.5 -125.5q252 0 416 67l12 -22q9 -12 10 -15q-192 -73 -438 -73q-280 0 -498 130.5t-336 358.5t-118 514q0 213 75 399.5t205.5 319.5t315 210t395.5 77q286 0 507.5 -117.5t342.5 -327.5t121 -479q0 -162 -29.5 -282t-85 -191.5
t-128.5 -106t-165 -34.5q-135 0 -188 77.5t-48 213.5v30q-50 -116 -147.5 -177.5t-232.5 -61.5q-131 0 -233 61.5t-155 163.5t-53 225zM659 479q0 -170 107 -286.5t281 -116.5q167 0 273.5 108.5t106.5 288.5q0 178 -106.5 291t-278.5 113q-175 0 -279 -115t-104 -283z" />
    <glyph glyph-name="A" unicode="A" horiz-adv-x="1335" 
d="M94 0h-57l594 1434h74l593 -1434h-59l-137 334h-871zM668 1386l-418 -1005h831z" />
    <glyph glyph-name="B" unicode="B" horiz-adv-x="1331" 
d="M1143 1090q0 -129 -81 -226t-237 -137q188 -32 291 -136t103 -249q0 -160 -121.5 -251t-315.5 -91h-551v1434h480q87 0 163.5 -21t137.5 -61.5t96 -108t35 -153.5zM678 698h-395v-651h499q170 0 276.5 79.5t106.5 217.5q0 154 -128.5 254t-358.5 100zM711 1386h-428v-641
h344q117 0 207.5 28t145.5 76.5t82.5 109.5t27.5 131q0 74 -30.5 132t-83.5 93t-120 53t-145 18z" />
    <glyph glyph-name="C" unicode="C" horiz-adv-x="1435" 
d="M887 25q140 0 244 36t196 107l23 -45q-100 -72 -209 -109t-254 -37q-178 0 -325.5 59.5t-244.5 161t-150.5 235.5t-53.5 284t53.5 284t150.5 235t244.5 160.5t325.5 59.5q145 0 253.5 -37.5t209.5 -109.5l-23 -43q-92 71 -196 107t-244 36q-165 0 -303 -55.5t-228.5 -150
t-140 -220t-49.5 -266.5t49.5 -266.5t140 -220t228.5 -150t303 -55.5z" />
    <glyph glyph-name="D" unicode="D" horiz-adv-x="1472" 
d="M659 0h-428v1434h428q192 0 353 -96.5t253.5 -261t92.5 -359.5q0 -196 -92.5 -360.5t-253.5 -260.5t-353 -96zM283 47h376q133 0 252.5 53t206 142.5t137 213.5t50.5 261q0 136 -50.5 260t-137 213.5t-206 142.5t-252.5 53h-376v-1339z" />
    <glyph glyph-name="E" unicode="E" horiz-adv-x="1200" 
d="M1079 0h-848v1434h848v-48h-796v-661h696v-47h-696v-631h796v-47z" />
    <glyph glyph-name="F" unicode="F" horiz-adv-x="1167" 
d="M283 0h-52v1434h848v-48h-796v-661h696v-47h-696v-678z" />
    <glyph glyph-name="G" unicode="G" horiz-adv-x="1517" 
d="M1333 170v434h-438v51h489v-505q-201 -173 -507 -173q-165 0 -309 59.5t-243.5 160.5t-156.5 237t-57 285q0 153 61.5 291.5t162.5 235t233 153.5t270 57q159 0 279 -24.5t224 -94.5l-22 -43q-100 68 -214.5 91.5t-266.5 23.5q-129 0 -251.5 -53t-215.5 -143.5
t-150 -220.5t-57 -273q0 -140 53 -267t146 -221.5t227 -150t287 -55.5q280 0 456 145z" />
    <glyph glyph-name="H" unicode="H" horiz-adv-x="1460" 
d="M1229 0h-51v657h-895v-657h-52v1434h52v-729h895v729h51v-1434z" />
    <glyph glyph-name="I" unicode="I" horiz-adv-x="514" 
d="M283 1434v-1434h-52v1434h52z" />
    <glyph glyph-name="J" unicode="J" horiz-adv-x="1374" 
d="M131 483q0 -94 28 -175t83.5 -145t148 -101t211.5 -37q247 0 381.5 162t134.5 466v781h53v-781q0 -328 -148.5 -502t-420.5 -174q-107 0 -195 27t-148.5 73.5t-101.5 111t-60 138t-19 156.5q0 80 26 138h58q-31 -63 -31 -138z" />
    <glyph glyph-name="K" unicode="K" horiz-adv-x="1214" 
d="M283 680l651 754h67l-675 -785l272 -299q124 -152 230 -235.5t206 -83.5q33 0 83.5 13.5t84.5 39.5l31 -43q-41 -30 -101.5 -47t-97.5 -17q-62 0 -123 24.5t-121.5 74.5t-113.5 105t-119 134l-274 308v-623h-52v1434h52v-754z" />
    <glyph glyph-name="L" unicode="L" horiz-adv-x="1017" 
d="M991 0h-760v1434h52v-1387h708v-47z" />
    <glyph glyph-name="M" unicode="M" horiz-adv-x="2015" 
d="M1038 18h-63l-625 1354l-127 -1372h-53l131 1434h80l627 -1360l626 1360h80l131 -1434h-53l-127 1372z" />
    <glyph glyph-name="N" unicode="N" horiz-adv-x="1556" 
d="M1274 0l-991 1352v-1352h-52v1434h52l991 -1350v1350h51v-1434h-51z" />
    <glyph glyph-name="O" unicode="O" horiz-adv-x="1708" 
d="M111 717q0 150 59 287t158.5 236t237 157.5t288.5 58.5t288.5 -58.5t237 -157.5t158.5 -236t59 -287t-59 -287t-158.5 -236.5t-237 -158t-288.5 -58.5t-288.5 58.5t-237 158t-158.5 236.5t-59 287zM164 717q0 -188 93 -347.5t251.5 -252t345.5 -92.5q188 0 347 92.5
t251 251.5t92 348t-92 348t-251 251.5t-347 92.5q-187 0 -345.5 -92.5t-251.5 -252t-93 -347.5z" />
    <glyph glyph-name="P" unicode="P" horiz-adv-x="1249" 
d="M762 602h-479v-602h-52v1434h531q122 0 214 -59t137.5 -153.5t45.5 -207.5q0 -173 -109 -292.5t-288 -119.5zM283 649h479q104 0 183.5 50t120 132.5t40.5 182.5t-40 183.5t-119.5 136t-184.5 52.5h-479v-737z" />
    <glyph glyph-name="Q" unicode="Q" horiz-adv-x="1708" 
d="M164 717q0 -188 93 -347.5t251.5 -252t345.5 -92.5q188 0 347 92.5t251 251.5t92 348t-92 348t-251 251.5t-347 92.5q-187 0 -345.5 -92.5t-251.5 -252t-93 -347.5zM901 -20q15 -41 26.5 -68.5t31.5 -65t39.5 -62.5t49.5 -52t63.5 -43t79.5 -26.5t99 -10.5q69 0 148 39
l22 -41q-87 -43 -170 -43q-70 0 -127 12.5t-99 41.5t-70 53t-55 72.5t-37.5 71.5t-32.5 77q-1 1 -1 2l-16 40q-150 0 -287.5 58.5t-236.5 158t-158 236.5t-59 287t59 287t158.5 236t237 157.5t288.5 58.5t288.5 -58.5t237 -157.5t158.5 -236t59 -287q0 -144 -54.5 -276.5
t-148 -230.5t-222 -160t-271.5 -70z" />
    <glyph glyph-name="R" unicode="R" horiz-adv-x="1368" 
d="M1337 68l27 -41q-73 -50 -168 -50q-76 0 -141.5 32t-111 86t-80 119t-55.5 137.5t-32 134t-14 116.5h-479v-602h-52v1434h566q122 0 214 -59t137.5 -153.5t45.5 -207.5q0 -111 -45.5 -203t-133.5 -149t-204 -60q3 -62 16.5 -131.5t43 -150.5t71 -144.5t108 -106
t146.5 -42.5q84 0 141 41zM283 649h514q104 0 183.5 50t120 132.5t40.5 182.5t-40 183.5t-119.5 136t-184.5 52.5h-514v-737z" />
    <glyph glyph-name="S" unicode="S" horiz-adv-x="1161" 
d="M586 1409q-161 0 -272 -85.5t-111 -229.5q0 -199 264 -285l264 -84q61 -20 116 -51.5t103.5 -76t77.5 -107.5t29 -134q0 -74 -32.5 -142.5t-91 -121t-148.5 -84t-197 -31.5q-181 0 -310.5 81.5t-185.5 195.5l53 18q47 -101 161.5 -174t281.5 -73q189 0 302.5 97.5
t113.5 233.5q0 118 -86.5 203.5t-202.5 118.5l-264 84q-74 24 -129 55t-87 63t-52 70t-26.5 71t-6.5 71q0 111 61.5 195t160 126.5t216.5 42.5q159 0 273.5 -76t150.5 -200l-49 -17q-27 108 -129.5 177t-247.5 69z" />
    <glyph glyph-name="T" unicode="T" horiz-adv-x="1216" 
d="M29 1434h1159v-48h-555v-1386h-51v1386h-553v48z" />
    <glyph glyph-name="U" unicode="U" horiz-adv-x="1501" 
d="M1241 1434h51v-924q0 -128 -43.5 -231t-118.5 -168t-171.5 -99.5t-206.5 -34.5q-112 0 -209.5 34.5t-172.5 99.5t-118 168t-43 231v924h51v-924q0 -156 68 -267.5t177.5 -164.5t246.5 -53q100 0 188 31t155.5 90t106.5 153t39 211v924z" />
    <glyph glyph-name="V" unicode="V" horiz-adv-x="1253" 
d="M653 0h-55l-535 1434h58l506 -1358l506 1358h57z" />
    <glyph glyph-name="W" unicode="W" horiz-adv-x="2039" 
d="M76 1434h53l444 -1368l418 1320h56l417 -1320l447 1368h53l-469 -1434h-63l-412 1303l-412 -1303h-65z" />
    <glyph glyph-name="X" unicode="X" horiz-adv-x="1306" 
d="M94 0h-67l594 735l-566 699h68l530 -656l529 656h67l-563 -699l594 -735h-68l-559 692z" />
    <glyph glyph-name="Y" unicode="Y" horiz-adv-x="1243" 
d="M647 600v-600h-51v600l-533 834h64l496 -781l495 781h64z" />
    <glyph glyph-name="Z" unicode="Z" horiz-adv-x="1243" 
d="M1141 1434v-48l-1024 -1339h1073v-47h-1139v47l1024 1339h-971v48h1037z" />
    <glyph glyph-name="bracketleft" unicode="[" horiz-adv-x="503" 
d="M164 1516h303v-46h-252v-1800h252v-45h-303v1891z" />
    <glyph glyph-name="backslash" unicode="\" horiz-adv-x="974" 
d="M119 1505l784 -1595h-47l-784 1595h47z" />
    <glyph glyph-name="bracketright" unicode="]" horiz-adv-x="503" 
d="M37 1516h303v-1891h-303v45h252v1800h-252v46z" />
    <glyph glyph-name="asciicircum" unicode="^" horiz-adv-x="946" 
d="M500 1481l321 -635h-45l-303 598l-303 -598h-45l321 635h54z" />
    <glyph glyph-name="underscore" unicode="_" horiz-adv-x="1429" 
d="M0 -221h1430v-45h-1430v45z" />
    <glyph glyph-name="grave" unicode="`" horiz-adv-x="788" 
d="M266 1481h64l192 -307h-39z" />
    <glyph glyph-name="a" unicode="a" horiz-adv-x="1329" 
d="M100 508q0 146 59 264.5t178 191t279 72.5q175 0 299.5 -86.5t180.5 -232.5v297h49v-1014h-49v295q-56 -149 -180.5 -233.5t-294.5 -84.5q-233 0 -377 152t-144 379zM152 508q0 -135 56 -245t164 -175t249 -65q206 0 341.5 135t135.5 350q0 135 -59 244.5t-170 174
t-253 64.5q-108 0 -197 -38.5t-147 -104.5t-89 -153t-31 -187z" />
    <glyph glyph-name="b" unicode="b" horiz-adv-x="1329" 
d="M233 1481v-762q56 149 181 233t295 84q236 0 378 -150t142 -378q0 -149 -62 -269t-181.5 -191t-276.5 -71q-170 0 -295 84.5t-181 233.5v-295h-49v1481h49zM231 508q0 -214 136 -349.5t342 -135.5q141 0 249 65t164 175t56 245q0 209 -128.5 346t-340.5 137
q-206 0 -342 -134.5t-136 -348.5z" />
    <glyph glyph-name="c" unicode="c" horiz-adv-x="1105" 
d="M98 506q0 111 38.5 207.5t110.5 168.5t182 113t245 41q72 0 165 -25t181 -85l-27 -39q-145 104 -319 104q-122 0 -221.5 -37.5t-164 -103.5t-100.5 -154t-38 -190q4 -102 39.5 -189t99.5 -153t163 -103.5t222 -37.5q174 0 319 104l27 -39q-88 -60 -181.5 -85.5
t-164.5 -25.5q-136 0 -244.5 41t-179.5 113t-109.5 167.5t-42.5 207.5z" />
    <glyph glyph-name="d" unicode="d" horiz-adv-x="1329" 
d="M1096 719v762h49v-1481h-49v295q-56 -149 -180.5 -233.5t-294.5 -84.5q-233 0 -377 152t-144 379q0 148 63.5 268t183 190t274.5 70q170 0 294.5 -84t180.5 -233zM1098 508q0 214 -135.5 348.5t-341.5 134.5q-212 0 -340.5 -137t-128.5 -346q0 -135 56 -245t164 -175
t249 -65q206 0 341.5 135t135.5 350z" />
    <glyph glyph-name="e" unicode="e" horiz-adv-x="1212" 
d="M1036 168l33 -35q-159 -156 -407 -156q-124 0 -231 42t-179 113.5t-113 168t-41 203.5q0 108 41 205.5t112 169.5t172.5 114.5t217.5 42.5q96 0 179.5 -28.5t151.5 -84.5t110 -150t48 -216h-978q-2 -18 -2 -55q0 -98 37 -185.5t102.5 -152.5t162.5 -103t210 -38
q229 0 374 145zM641 991q-187 0 -318 -112.5t-165 -280.5h919q-10 98 -49 174.5t-99 123.5t-133 71t-155 24z" />
    <glyph glyph-name="f" unicode="f" horiz-adv-x="655" 
d="M741 1270q0 82 -57 135t-160 53q-47 0 -88 -17t-77 -54.5t-57 -107.5t-21 -165v-100h319v-45h-319v-969h-50v969h-186v45h186v100q0 87 17 155.5t45 111.5t67 71.5t79 39.5t85 11q126 0 196.5 -65.5t70.5 -167.5q0 -8 -3 -17q0 -15 -8 -34h-49q4 7 8 32q2 6 2 19z" />
    <glyph glyph-name="g" unicode="g" horiz-adv-x="1327" 
d="M205 -358l22 43q93 -68 190 -94.5t216 -26.5q206 0 334.5 128t128.5 331v272q-56 -149 -180.5 -233.5t-294.5 -84.5q-233 0 -377 152t-144 379q0 146 59 264.5t178 191t279 72.5q175 0 299.5 -86.5t180.5 -232.5v297h49v-991q0 -225 -140.5 -364.5t-371.5 -139.5
q-125 0 -227.5 27.5t-200.5 95.5zM152 508q0 -135 56 -245t164 -175t249 -65q206 0 341.5 135t135.5 350q0 135 -59 244.5t-170 174t-253 64.5q-108 0 -197 -38.5t-147 -104.5t-89 -153t-31 -187z" />
    <glyph glyph-name="h" unicode="h" 
d="M233 547v-547h-49v1481h49v-715q29 73 79 128t106 84.5t107 43.5t96 14q66 0 125 -12t117.5 -43.5t100 -80.5t67.5 -129t26 -183v-588h-49v588q0 93 -23 165t-60 116t-89 72.5t-104 39t-111 10.5q-42 0 -88.5 -12.5t-100 -45t-95.5 -80.5t-71.5 -127.5t-32.5 -178.5z" />
    <glyph glyph-name="i" unicode="i" horiz-adv-x="434" 
d="M242 1014h-49v-1014h49v1014zM168 1384q0 58 47 58t47 -58q0 -57 -47 -57t-47 57z" />
    <glyph glyph-name="j" unicode="j" horiz-adv-x="507" 
d="M315 1014v-1166q0 -81 -16 -141.5t-40.5 -96t-61 -56.5t-70.5 -28t-76 -7q-113 0 -176 65.5t-63 167.5q0 11 2 17q0 15 8 34h47q-4 -7 -8 -32v-19q0 -82 50.5 -135t139.5 -53q43 0 77.5 11t67.5 39.5t51.5 88t18.5 145.5v1166h49zM244 1384q0 58 47 58t47 -58
q0 -57 -47 -57t-47 57z" />
    <glyph glyph-name="k" unicode="k" horiz-adv-x="1015" 
d="M991 70l23 -43q-65 -50 -150 -50q-32 0 -65.5 11.5t-58.5 25.5t-57.5 41t-48.5 42.5t-46.5 47t-36.5 37.5l-320 344v-526h-49v1481h49v-930l510 463h72l-522 -477l301 -326q40 -42 59.5 -61.5t61 -55t78.5 -51.5t73 -16q78 0 127 43z" />
    <glyph glyph-name="l" unicode="l" horiz-adv-x="434" 
d="M193 0v1481h49v-1481h-49z" />
    <glyph glyph-name="m" unicode="m" horiz-adv-x="1984" 
d="M1819 588v-588h-50v588q0 116 -31.5 198t-86.5 125t-117 61.5t-137 18.5q-42 0 -87 -12.5t-95.5 -45t-90.5 -80.5t-67.5 -127.5t-30.5 -178.5v-547h-49v588q0 116 -31.5 198t-87 125t-117.5 61.5t-137 18.5q-42 0 -87 -12.5t-95.5 -45t-90.5 -80.5t-67.5 -127.5
t-30.5 -178.5v-547h-49v1014h49v-238q29 70 76.5 123t100 81.5t101.5 42t93 13.5q70 0 131 -14.5t118 -47t98.5 -93t60.5 -144.5q26 81 73.5 142.5t103 93.5t108 47.5t100.5 15.5q66 0 123.5 -12t114 -43t96 -80t64 -129t24.5 -184z" />
    <glyph glyph-name="n" unicode="n" 
d="M233 547v-547h-49v1014h49v-248q29 73 79 128t106 84.5t107 43.5t96 14q66 0 125 -12t117.5 -43.5t100 -80.5t67.5 -129t26 -183v-588h-49v588q0 93 -23 165t-60 116t-89 72.5t-104 39t-111 10.5q-42 0 -88.5 -12.5t-100 -45t-95.5 -80.5t-71.5 -127.5t-32.5 -178.5z" />
    <glyph glyph-name="o" unicode="o" horiz-adv-x="1257" 
d="M96 504q0 107 42.5 205.5t114 170t170 114t204.5 42.5q145 0 268 -72.5t194.5 -195.5t71.5 -264q0 -143 -71.5 -264.5t-194.5 -192t-268 -70.5q-143 0 -265 70t-194 191.5t-72 265.5zM147 504q0 -200 141.5 -340.5t338.5 -140.5q130 0 241 64t176.5 175t65.5 242
q0 97 -38.5 187t-103.5 155.5t-154.5 105t-186.5 39.5q-129 0 -239.5 -66t-175.5 -178t-65 -243z" />
    <glyph glyph-name="p" unicode="p" horiz-adv-x="1329" 
d="M1229 506q0 -109 -35 -204.5t-99 -168t-162.5 -114.5t-219.5 -42q-175 0 -299.5 87t-180.5 233v-756h-49v1473h49v-295q56 149 181 233t295 84q236 0 378 -151t142 -379zM1178 506q0 135 -56 245t-164 175t-249 65q-206 0 -342 -135.5t-136 -349.5q0 -206 134.5 -344.5
t347.5 -138.5q109 0 197.5 38.5t146.5 104.5t89.5 153.5t31.5 186.5z" />
    <glyph glyph-name="q" unicode="q" horiz-adv-x="1327" 
d="M100 506q0 227 144 378.5t377 151.5q170 0 294.5 -84t180.5 -233v295h49v-1473h-49v756q-56 -146 -180.5 -233t-299.5 -87q-121 0 -219.5 42t-162.5 114.5t-99 168t-35 204.5zM152 506q0 -100 31 -187t89 -153t147 -104.5t197 -38.5q142 0 253 64.5t170 174t59 244.5
q0 215 -135.5 350t-341.5 135q-141 0 -249 -65t-164 -175t-56 -245z" />
    <glyph glyph-name="r" unicode="r" horiz-adv-x="661" 
d="M233 1014v-285q87 307 363 307q31 0 63 -4v-49q-32 4 -63 4q-350 0 -363 -594v-393h-49v1014h49z" />
    <glyph glyph-name="s" unicode="s" horiz-adv-x="825" 
d="M686 864l-43 -16q-29 65 -90.5 104t-128.5 39q-115 0 -183.5 -70t-68.5 -157q0 -82 54 -132.5t134 -74.5l158 -47q221 -69 221 -258q0 -123 -93 -199t-226 -76q-119 0 -205.5 49.5t-128.5 137.5l45 18q36 -74 111.5 -116.5t177.5 -42.5q110 0 190 64t80 165
q0 157 -186 215h2l-160 47q-44 13 -81.5 33t-70.5 49.5t-52 72.5t-19 95q0 49 20 96.5t56.5 87t95 64t129.5 24.5q84 0 156 -44.5t106 -127.5z" />
    <glyph glyph-name="t" unicode="t" horiz-adv-x="749" 
d="M670 262h47q4 -9 8 -35q2 -6 2 -16q0 -101 -67 -167.5t-181 -66.5q-41 0 -75.5 7t-71 28.5t-61 56.5t-40.5 96t-16 142v662h-186v45h186l14 342h35v-342h342v-45h-342v-662q0 -86 18.5 -145.5t51.5 -88t67.5 -39.5t77.5 -11q90 0 144.5 53.5t54.5 134.5v20q-6 28 -8 31z
" />
    <glyph glyph-name="u" unicode="u" 
d="M989 467v547h49v-1014h-49v248q-24 -59 -61.5 -106.5t-78.5 -77.5t-86.5 -50.5t-85.5 -28.5t-75 -8q-66 0 -125 12.5t-117.5 44t-100 81t-67.5 129.5t-26 182v588h49v-588q0 -93 23 -165t60 -116t89 -72.5t104 -39t111 -10.5q41 0 88 12.5t100.5 45t96 80.5t71.5 127.5
t31 178.5z" />
    <glyph glyph-name="v" unicode="v" horiz-adv-x="1009" 
d="M61 1014h54l389 -955l391 955h53l-418 -1014h-51z" />
    <glyph glyph-name="w" unicode="w" horiz-adv-x="1701" 
d="M61 1014h54l385 -948l325 905h52l323 -905l387 948h53l-413 -1014h-53l-324 899l-322 -899h-53z" />
    <glyph glyph-name="x" unicode="x" horiz-adv-x="1056" 
d="M86 0h-66l476 545l-408 469h66l374 -430l375 430h66l-408 -469l475 -545h-65l-443 508z" />
    <glyph glyph-name="y" unicode="y" horiz-adv-x="1056" 
d="M506 -33l-451 1047h56l421 -989l412 989h55l-620 -1473h-49z" />
    <glyph glyph-name="z" unicode="z" horiz-adv-x="1095" 
d="M1036 47v-47h-983v51l871 916h-813v47h876v-49l-874 -918h923z" />
    <glyph glyph-name="braceleft" unicode="{" horiz-adv-x="507" 
d="M127 604l47 4q53 5 79 26.5t26 74.5q0 18 -4 42t-8 43t-13.5 49t-14 43.5t-15.5 45t-13 35.5q-76 218 -76 344q0 106 65.5 160.5t159.5 54.5q37 0 66 -10v-46q-21 9 -66 9q-77 0 -125.5 -45.5t-48.5 -137.5q0 -57 72 -297t72 -290q0 -114 -94 -140q94 -26 94 -137
q0 -43 -14 -95t-46 -148q-3 -9 -5.5 -15.5t-4.5 -13.5q-74 -226 -74 -316q0 -92 48.5 -137t125.5 -45q47 0 66 8v-45q-29 -10 -66 -10q-94 0 -159.5 54.5t-65.5 160.5q0 126 76 344q2 4 13 35.5t15.5 45t14 43.5t13.5 49t8 43t4 42q0 53 -26 74t-79 26l-47 5v67z" />
    <glyph glyph-name="bar" unicode="|" horiz-adv-x="376" 
d="M213 -459h-49v2028h49v-2028z" />
    <glyph glyph-name="braceright" unicode="}" horiz-adv-x="507" 
d="M334 608l47 -4v-67l-47 -5q-53 -5 -79 -26t-26 -74q0 -18 4 -42t8 -43t13.5 -49t14 -43.5t15.5 -45t13 -35.5q76 -224 76 -344q0 -106 -66 -160.5t-160 -54.5q-36 0 -65 10v45q19 -8 65 -8q77 0 126 45t49 137q0 90 -74 316q-57 171 -65 220q-5 28 -5 52q0 111 94 137
q-94 26 -94 140q0 50 72 290t72 297q0 92 -49 137.5t-126 45.5q-44 0 -65 -9v46q29 10 65 10q94 0 160 -54.5t66 -160.5q0 -120 -76 -344q-2 -4 -13 -35.5t-15.5 -45t-14 -43.5t-13.5 -49t-8 -43t-4 -42q0 -53 26 -74.5t79 -26.5z" />
    <glyph glyph-name="asciitilde" unicode="~" horiz-adv-x="1314" 
d="M399 733q-77 0 -125 -39t-67 -104q0 3 -21 6l-22 6q25 80 83.5 128t151.5 48q58 0 128 -35t124.5 -76.5t121.5 -76.5t120 -35q141 0 221 139l21 -10l18 -12q-93 -162 -260 -162q-50 0 -104 23t-101.5 56t-94.5 65.5t-98 55.5t-96 23z" />
    <glyph glyph-name="uni00A0" unicode="&#xa0;" horiz-adv-x="585" 
 />
    <glyph glyph-name="exclamdown" unicode="&#xa1;" horiz-adv-x="382" 
d="M217 -172l-12 772h-27l-12 -772v-260h51v260zM139 971q0 23 14 38t37 15t38.5 -15t15.5 -38t-15.5 -38t-38.5 -15t-37 15t-14 38z" />
    <glyph glyph-name="cent" unicode="&#xa2;" horiz-adv-x="1153" 
d="M518 -221h-57l43 221q-184 48 -286 184.5t-107 321.5q0 111 38.5 207.5t110 168.5t181.5 113t245 41h19l38 193h58l-39 -199q147 -19 270 -104l-26 -39q-116 81 -252 100l-187 -954q65 -10 119 -10q175 0 320 104l26 -39q-88 -60 -181.5 -85.5t-164.5 -25.5
q-54 0 -129 11zM162 506q5 -168 95.5 -291.5t254.5 -169.5l184 946h-10q-122 0 -221.5 -37.5t-164 -103.5t-100.5 -154t-38 -190z" />
    <glyph glyph-name="sterling" unicode="&#xa3;" horiz-adv-x="1247" 
d="M156 539v45h266q-19 68 -33 100q-23 63 -57 149.5t-44.5 115.5t-20 69t-9.5 76q0 110 60.5 193t161 126t225.5 43q96 0 171 -27t118 -71t65 -93t22 -98h-55q0 42 -18.5 83t-55 77.5t-100.5 59t-147 22.5q-169 0 -281.5 -85.5t-112.5 -229.5q0 -33 9 -71t20 -67.5
t43 -111.5t55 -144q24 -65 37 -116h406v-45h-396q17 -83 17 -144q0 -120 -48 -205t-157 -143v-8q76 8 156 8h692v-47h-1065v47h24q48 0 94 10.5t92 36t81 63.5t56.5 98.5t21.5 135.5q0 61 -17 148h-276z" />
    <glyph glyph-name="currency" unicode="&#xa4;" horiz-adv-x="1036" 
d="M518 362q124 0 209.5 87.5t85.5 212.5t-85.5 212t-209.5 87q-122 0 -208.5 -87.5t-86.5 -211.5t86.5 -212t208.5 -88zM518 317q-131 0 -227 84l-98 -104l-35 33l98 106q-82 101 -82 226q0 120 76 215l-92 100l35 33l90 -97q103 93 235 93q133 0 236 -93l90 97l35 -33
l-93 -100q76 -95 76 -215q0 -125 -82 -226l99 -106l-35 -33l-99 104q-96 -84 -227 -84z" />
    <glyph glyph-name="yen" unicode="&#xa5;" horiz-adv-x="1273" 
d="M662 537h417v-45h-417v-189h417v-45h-417v-258h-52v258h-415v45h415v189h-415v45h415v63l-532 834h63l496 -781l496 781h63l-534 -834v-63z" />
    <glyph glyph-name="brokenbar" unicode="&#xa6;" horiz-adv-x="405" 
d="M227 719h-49v850h49v-850zM227 -459h-49v850h49v-850z" />
    <glyph glyph-name="section" unicode="&#xa7;" horiz-adv-x="1118" 
d="M1006 514q-7 -117 -105 -199t-260 -112q103 -36 175.5 -79t108 -84.5t49 -77t11.5 -68.5q-3 -83 -63.5 -146.5t-160 -95.5t-218.5 -27q-230 10 -371 78l25 41q129 -62 348 -72q160 -5 271.5 57t115.5 167q0 28 -13 57.5t-44.5 65.5t-98 73t-160.5 68l-247 92
q-259 104 -256 315q7 117 104 199t258 113q-103 36 -175.5 79t-107 84.5t-48.5 77t-11 68.5q3 83 63.5 146.5t160 95t218.5 26.5q230 -10 371 -78l-24 -41q-129 62 -349 72q-105 3 -191.5 -23t-139.5 -78t-56 -122q0 -152 316 -264l248 -93q264 -106 256 -315zM733 784
l-186 68q-167 -25 -271 -103t-110 -186q-4 -92 56.5 -159t162.5 -107l184 -70q169 26 273 104.5t110 186.5q4 92 -56.5 159t-162.5 107z" />
    <glyph glyph-name="dieresis" unicode="&#xa8;" horiz-adv-x="1060" 
d="M266 1317q0 23 14 38t37 15t38.5 -15t15.5 -38t-15.5 -38t-38.5 -15t-37 15t-14 38zM690 1317q0 23 14 38t37 15t38.5 -15t15.5 -38t-15.5 -38t-38.5 -15t-37 15t-14 38z" />
    <glyph glyph-name="copyright" unicode="&#xa9;" horiz-adv-x="1693" 
d="M117 717q0 121 36 234t103 203.5t156 159t201 105.5t233 37q151 0 286.5 -58t233 -157t154.5 -236t57 -288q0 -202 -96.5 -372t-265 -269t-369.5 -99t-369 99t-264 269t-96 372zM166 717q0 -190 89.5 -349.5t246 -252t344.5 -92.5q142 0 268.5 54.5t217 147.5
t143.5 221.5t53 270.5t-53 270.5t-143.5 221.5t-217 147.5t-268.5 54.5q-188 0 -344.5 -92.5t-246 -252t-89.5 -349.5zM872 371q131 0 222 75l16 -36q-103 -80 -238 -80q-179 0 -285 108t-106 267q0 158 106 265t285 107q133 0 238 -78l-16 -34q-89 73 -222 73
q-160 0 -255 -96t-95 -237q0 -142 94.5 -238t255.5 -96z" />
    <glyph glyph-name="ordfeminine" unicode="&#xaa;" horiz-adv-x="1036" 
d="M164 1106q0 150 91.5 250t250.5 100q107 0 186 -50t119 -134v168h45v-670h-45v166q-42 -84 -121.5 -133t-181.5 -49q-155 0 -249.5 100t-94.5 252zM211 1106q0 -133 81.5 -221t215.5 -88q131 0 218 86.5t87 222.5q0 131 -85.5 219t-221.5 88t-215.5 -88t-79.5 -219z
M201 514v45h647v-45h-647z" />
    <glyph glyph-name="guillemotleft" unicode="&#xab;" horiz-adv-x="1024" 
d="M109 596l342 393l36 -28l-317 -365l317 -365l-36 -28zM506 596l342 393l37 -28l-318 -365l318 -365l-37 -28z" />
    <glyph glyph-name="logicalnot" unicode="&#xac;" horiz-adv-x="1255" 
d="M170 844v47h924v-438h-45v391h-879z" />
    <glyph glyph-name="uni00AD" unicode="&#xad;" horiz-adv-x="1183" 
d="M176 700v48h830v-48h-830z" />
    <glyph glyph-name="registered" unicode="&#xae;" horiz-adv-x="1693" 
d="M913 653l187 -299h-37l-186 297h-224v-297h-41v725h271q94 0 148 -62.5t54 -154.5q0 -82 -46 -140.5t-126 -68.5zM653 690h230q73 0 117 50t44 122q0 74 -44 125t-117 51h-230v-348zM117 717q0 121 36 234t103 203.5t156 159t201 105.5t233 37q151 0 286.5 -58t233 -157
t154.5 -236t57 -288q0 -202 -96.5 -372t-265 -269t-369.5 -99t-369 99t-264 269t-96 372zM166 717q0 -190 89.5 -349.5t246 -252t344.5 -92.5q142 0 268.5 54.5t217 147.5t143.5 221.5t53 270.5t-53 270.5t-143.5 221.5t-217 147.5t-268.5 54.5q-188 0 -344.5 -92.5
t-246 -252t-89.5 -349.5z" />
    <glyph glyph-name="macron" unicode="&#xaf;" horiz-adv-x="999" 
d="M266 1368h467v-45h-467v45z" />
    <glyph glyph-name="degree" unicode="&#xb0;" horiz-adv-x="833" 
d="M109 1165q0 135 88 225.5t219 90.5q132 0 220.5 -90.5t88.5 -225.5q0 -130 -89 -221.5t-220 -91.5q-130 0 -218.5 91.5t-88.5 221.5zM156 1165q0 -111 74.5 -188.5t185.5 -77.5q114 0 188 77t74 189q0 117 -73.5 193t-188.5 76q-113 0 -186.5 -76t-73.5 -193z" />
    <glyph glyph-name="plusminus" unicode="&#xb1;" horiz-adv-x="1302" 
d="M629 877v358h45v-358h420v-46h-420v-358h-45v358h-420v46h420zM209 297h885v-45h-885v45z" />
    <glyph glyph-name="twosuperior" unicode="&#xb2;" horiz-adv-x="641" 
d="M72 932v33l313 272q119 99 119 213q0 79 -54 122.5t-151 43.5q-87 0 -132 -36.5t-54 -90.5h-41q5 67 64.5 116.5t164.5 49.5q111 0 178.5 -55t67.5 -152q0 -123 -133 -236l-279 -241h443v-39h-506z" />
    <glyph glyph-name="threesuperior" unicode="&#xb3;" horiz-adv-x="638" 
d="M315 1323q-72 0 -120 -27q-10 10 -17 31l293 277h-389v38h459v-22l-273 -260q21 4 51 4q107 0 176.5 -60.5t69.5 -162.5t-73.5 -167t-208.5 -65q-64 0 -123 18t-94 48l22 29q34 -24 87 -40t108 -16q116 0 177.5 54.5t61.5 138.5q0 88 -57.5 135t-149.5 47z" />
    <glyph glyph-name="acute" unicode="&#xb4;" horiz-adv-x="788" 
d="M459 1481h63l-217 -307h-39z" />
    <glyph glyph-name="mu" unicode="&#xb5;" horiz-adv-x="1193" 
d="M209 184v-471h-49v686v615h49v-613q3 -88 27 -155.5t61 -109t88 -67.5t102 -36t109 -10q41 0 88 12.5t100.5 45t96 80.5t71.5 127.5t31 178.5v547h49v-1014h-49v248q-24 -59 -61.5 -106.5t-78.5 -77.5t-86.5 -50.5t-85.5 -28.5t-75 -8q-127 0 -230.5 48.5t-156.5 158.5z
" />
    <glyph glyph-name="paragraph" unicode="&#xb6;" horiz-adv-x="1173" 
d="M535 862h-166q-124 0 -209.5 86.5t-85.5 210.5q0 122 85.5 209.5t209.5 87.5h272q-52 -58 -55 -147v-1596h-51v1149zM784 1298v-1585h-51v1585q0 84 53.5 129.5t133.5 45.5q89 0 136.5 -43.5t47.5 -112.5v-19q-5 -35 -8 -43h-49l6 39v23q0 49 -34.5 78.5t-98.5 29.5
q-59 0 -97.5 -32t-38.5 -95z" />
    <glyph glyph-name="periodcentered" unicode="&#xb7;" horiz-adv-x="407" 
d="M152 547q0 23 14 38t37 15t38 -15t15 -38t-15 -38t-38 -15t-37 15t-14 38z" />
    <glyph glyph-name="cedilla" unicode="&#xb8;" horiz-adv-x="933" 
d="M547 16h31q83 -48 117 -112.5t34 -120.5q0 -112 -77 -177t-179 -65t-174.5 62t-93.5 157l45 25q14 -84 76.5 -141.5t146.5 -57.5t146.5 53.5t62.5 143.5q0 136 -135 217v16z" />
    <glyph glyph-name="onesuperior" unicode="&#xb9;" horiz-adv-x="370" 
d="M41 1501l-6 37l211 102h22v-708h-41v653z" />
    <glyph glyph-name="ordmasculine" unicode="&#xba;" horiz-adv-x="1032" 
d="M164 1104q0 144 103.5 248t246.5 104q146 0 250 -105t104 -247q0 -146 -103 -248t-251 -102q-144 0 -247 101.5t-103 248.5zM209 1104q0 -128 90 -217.5t215 -89.5q128 0 218.5 90t90.5 217q0 125 -91 217t-218 92q-125 0 -215 -91t-90 -218zM195 514v45h647v-45h-647z
" />
    <glyph glyph-name="guillemotright" unicode="&#xbb;" horiz-adv-x="1024" 
d="M573 989l342 -393l-342 -393l-36 28l317 365l-317 365zM176 989l342 -393l-342 -393l-37 28l318 365l-318 365z" />
    <glyph glyph-name="onequarter" unicode="&#xbc;" horiz-adv-x="1593" 
d="M96 1294l-6 37l211 103h23v-709h-41v653zM944 238h365v397zM1309 197h-424v26l438 488h27v-473h168v-41h-168v-197h-41v197zM1298 1509l-1130 -1595h-47l1128 1595h49z" />
    <glyph glyph-name="onehalf" unicode="&#xbd;" horiz-adv-x="1667" 
d="M90 1294l-6 37l211 103h22v-709h-41v653zM1292 1509l-1130 -1595h-47l1128 1595h49zM1081 0v33l314 272q118 98 118 213q0 79 -53.5 122.5t-150.5 43.5q-87 0 -132.5 -36.5t-54.5 -90.5h-41q5 67 65 116.5t165 49.5q111 0 178 -55t67 -152q0 -122 -133 -235l-278 -242
h442v-39h-506z" />
    <glyph glyph-name="threequarters" unicode="&#xbe;" horiz-adv-x="1822" 
d="M1174 238h364v397zM1538 197h-424v26l438 488h27v-473h168v-41h-168v-197h-41v197zM1528 1509l-1131 -1595h-47l1129 1595h49zM350 1116q-75 0 -121 -26q-9 9 -16 30l293 277h-389v39h458v-23l-272 -260q21 4 51 4q107 0 176.5 -60.5t69.5 -162.5t-74 -167t-209 -65
q-64 0 -123 18t-94 48l23 29q34 -24 86.5 -40t107.5 -16q116 0 178 54.5t62 138.5q0 88 -57.5 135t-149.5 47z" />
    <glyph glyph-name="questiondown" unicode="&#xbf;" horiz-adv-x="1017" 
d="M551 600h51v-90q0 -34 -2 -49.5t-12.5 -38t-35 -42t-67.5 -46.5q-39 -23 -61.5 -36.5t-65 -43t-69.5 -53t-61 -59.5t-53.5 -70t-33.5 -77.5t-14 -88.5q0 -96 54.5 -169.5t144.5 -111t198 -37.5q78 0 142.5 16t105.5 41t69 58t40 65t12 64q0 41 -6 72h49q8 -41 8 -72
q0 -38 -13.5 -77t-45.5 -78t-78.5 -68.5t-120 -48.5t-162.5 -19q-188 0 -318 101t-130 264q0 44 10 85.5t31.5 79t43 68t56.5 62.5t59.5 53t65.5 48t60 38.5l57 34.5q64 38 78 63t14 72v90zM629 971q0 -23 -14 -38t-37 -15t-38.5 15t-15.5 38t15.5 38t38.5 15t37 -15t14 -38
z" />
    <glyph glyph-name="Agrave" unicode="&#xc0;" horiz-adv-x="1335" 
d="M37 0h57l137 334h871l137 -334h59l-593 1434h-74zM250 381l418 1005l413 -1005h-831zM475 1851h64l176 -284h-39z" />
    <glyph glyph-name="Aacute" unicode="&#xc1;" horiz-adv-x="1335" 
d="M37 0h57l137 334h871l137 -334h59l-593 1434h-74zM250 381l418 1005l413 -1005h-831zM795 1851h63l-201 -284h-39z" />
    <glyph glyph-name="Acircumflex" unicode="&#xc2;" horiz-adv-x="1335" 
d="M37 0h57l137 334h871l137 -334h59l-593 1434h-74zM250 381l418 1005l413 -1005h-831zM467 1567h-41l209 284h63l209 -284h-41l-200 245z" />
    <glyph glyph-name="Atilde" unicode="&#xc3;" horiz-adv-x="1335" 
d="M37 0h57l137 334h871l137 -334h59l-593 1434h-74zM250 381l418 1005l413 -1005h-831zM803 1624q-50 0 -136.5 46t-136.5 46q-34 0 -50.5 -18t-45.5 -78l-31 4q25 82 53 110.5t74 28.5q50 0 140 -46t133 -46q35 0 51.5 17t44.5 75l31 -4q-25 -81 -53 -108t-74 -27z" />
    <glyph glyph-name="Adieresis" unicode="&#xc4;" horiz-adv-x="1335" 
d="M37 0h57l137 334h871l137 -334h59l-593 1434h-74zM250 381l418 1005l413 -1005h-831zM403 1688q0 23 14.5 38t37.5 15t38 -15t15 -38t-15 -38.5t-38 -15.5t-37.5 15.5t-14.5 38.5zM827 1688q0 23 14.5 38t37.5 15t38 -15t15 -38t-15 -38.5t-38 -15.5t-37.5 15.5
t-14.5 38.5z" />
    <glyph glyph-name="Aring" unicode="&#xc5;" horiz-adv-x="1335" 
d="M37 0h57l137 334h871l137 -334h59l-593 1434h-74zM250 381l418 1005l413 -1005h-831zM489 1722q0 70 51.5 113t125.5 43t125 -43t51 -113t-51 -112.5t-125 -42.5t-125.5 42.5t-51.5 112.5zM530 1722q0 -55 38.5 -87.5t97.5 -32.5t97 32t38 88t-38 88.5t-97 32.5
t-97.5 -32.5t-38.5 -88.5z" />
    <glyph glyph-name="AE" unicode="&#xc6;" horiz-adv-x="1857" 
d="M901 1386l-407 -667h444v667h-37zM-8 0l882 1434h867v-48h-752v-667h651v-47h-651v-625h752v-47h-803v672h-473l-416 -672h-57z" />
    <glyph glyph-name="Ccedilla" unicode="&#xc7;" horiz-adv-x="1435" 
d="M893 -23q96 -79 96 -194q0 -112 -77 -177t-179 -65t-174.5 62t-93.5 157l45 25q14 -84 76.5 -141.5t146.5 -57.5t146.5 53.5t62.5 143.5q0 119 -104 197q-134 7 -250.5 48.5t-202.5 110t-148 158.5t-93 197t-31 223q0 150 53.5 284t150.5 235t244.5 160.5t325.5 59.5
q145 0 253.5 -37.5t209.5 -109.5l-23 -43q-92 71 -196 107t-244 36q-165 0 -303 -55.5t-228.5 -150t-140 -220t-49.5 -266.5t49.5 -266.5t140 -220t228.5 -150t303 -55.5q140 0 244 36t196 107l23 -45q-99 -71 -207 -108t-250 -38z" />
    <glyph glyph-name="Egrave" unicode="&#xc8;" horiz-adv-x="1200" 
d="M1079 0h-848v1434h848v-48h-796v-661h696v-47h-696v-631h796v-47zM451 1851h63l176 -284h-39z" />
    <glyph glyph-name="Eacute" unicode="&#xc9;" horiz-adv-x="1200" 
d="M1079 0h-848v1434h848v-48h-796v-661h696v-47h-696v-631h796v-47zM772 1851h64l-201 -284h-39z" />
    <glyph glyph-name="Ecircumflex" unicode="&#xca;" horiz-adv-x="1200" 
d="M1079 0h-848v1434h848v-48h-796v-661h696v-47h-696v-631h796v-47zM457 1567h-41l209 284h63l209 -284h-41l-201 245z" />
    <glyph glyph-name="Edieresis" unicode="&#xcb;" horiz-adv-x="1200" 
d="M1079 0h-848v1434h848v-48h-796v-661h696v-47h-696v-631h796v-47zM369 1688q0 23 14 38t37 15t38 -15t15 -38t-15 -38.5t-38 -15.5t-37 15t-14 39zM793 1688q0 23 14 38t37 15t38 -15t15 -38t-15 -38.5t-38 -15.5t-37 15t-14 39z" />
    <glyph glyph-name="Igrave" unicode="&#xcc;" horiz-adv-x="514" 
d="M283 0v1434h-52v-1434h52zM66 1851h63l176 -284h-39z" />
    <glyph glyph-name="Iacute" unicode="&#xcd;" horiz-adv-x="514" 
d="M283 0v1434h-52v-1434h52zM387 1851h64l-201 -284h-39z" />
    <glyph glyph-name="Icircumflex" unicode="&#xce;" horiz-adv-x="514" 
d="M283 0v1434h-52v-1434h52zM57 1567h-41l209 284h64l209 -284h-41l-201 245z" />
    <glyph glyph-name="Idieresis" unicode="&#xcf;" horiz-adv-x="514" 
d="M283 0v1434h-52v-1434h52zM-6 1688q0 23 14 38t37 15t38 -15t15 -38t-15 -38.5t-38 -15.5t-37 15t-14 39zM418 1688q0 23 14 38t37 15t38 -15t15 -38t-15 -38.5t-38 -15.5t-37 15t-14 39z" />
    <glyph glyph-name="Eth" unicode="&#xd0;" horiz-adv-x="1474" 
d="M233 668h-170v47h170v719h429q192 0 353 -96.5t253 -261t92 -359.5q0 -146 -54.5 -279t-147.5 -229t-222.5 -152.5t-273.5 -56.5h-429v668zM285 668v-621h377q177 0 325.5 89.5t234 243.5t85.5 337q0 136 -50.5 260t-136.5 213.5t-205.5 142.5t-252.5 53h-377v-671h424
v-47h-424z" />
    <glyph glyph-name="Ntilde" unicode="&#xd1;" horiz-adv-x="1556" 
d="M283 1352l991 -1352h51v1434h-51v-1350l-991 1350h-52v-1434h52v1352zM913 1624q-50 0 -136 46t-136 46q-34 0 -50.5 -18t-45.5 -78l-31 4q25 82 53 110.5t74 28.5q50 0 139.5 -46t132.5 -46q35 0 52 17.5t45 74.5l30 -4q-25 -81 -53 -108t-74 -27z" />
    <glyph glyph-name="Ograve" unicode="&#xd2;" horiz-adv-x="1708" 
d="M111 717q0 150 59 287t158.5 236t237 157.5t288.5 58.5t288.5 -58.5t237 -157.5t158.5 -236t59 -287t-59 -287t-158.5 -236.5t-237 -158t-288.5 -58.5t-288.5 58.5t-237 158t-158.5 236.5t-59 287zM164 717q0 -188 93 -347.5t251.5 -252t345.5 -92.5q188 0 347 92.5
t251 251.5t92 348t-92 348t-251 251.5t-347 92.5q-187 0 -345.5 -92.5t-251.5 -252t-93 -347.5zM625 1851h63l176 -284h-39z" />
    <glyph glyph-name="Oacute" unicode="&#xd3;" horiz-adv-x="1708" 
d="M111 717q0 150 59 287t158.5 236t237 157.5t288.5 58.5t288.5 -58.5t237 -157.5t158.5 -236t59 -287t-59 -287t-158.5 -236.5t-237 -158t-288.5 -58.5t-288.5 58.5t-237 158t-158.5 236.5t-59 287zM164 717q0 -188 93 -347.5t251.5 -252t345.5 -92.5q188 0 347 92.5
t251 251.5t92 348t-92 348t-251 251.5t-347 92.5q-187 0 -345.5 -92.5t-251.5 -252t-93 -347.5zM1020 1851h63l-200 -284h-39z" />
    <glyph glyph-name="Ocircumflex" unicode="&#xd4;" horiz-adv-x="1708" 
d="M111 717q0 150 59 287t158.5 236t237 157.5t288.5 58.5t288.5 -58.5t237 -157.5t158.5 -236t59 -287t-59 -287t-158.5 -236.5t-237 -158t-288.5 -58.5t-288.5 58.5t-237 158t-158.5 236.5t-59 287zM164 717q0 -188 93 -347.5t251.5 -252t345.5 -92.5q188 0 347 92.5
t251 251.5t92 348t-92 348t-251 251.5t-347 92.5q-187 0 -345.5 -92.5t-251.5 -252t-93 -347.5zM653 1567h-41l209 284h64l209 -284h-41l-201 245z" />
    <glyph glyph-name="Otilde" unicode="&#xd5;" horiz-adv-x="1708" 
d="M111 717q0 150 59 287t158.5 236t237 157.5t288.5 58.5t288.5 -58.5t237 -157.5t158.5 -236t59 -287t-59 -287t-158.5 -236.5t-237 -158t-288.5 -58.5t-288.5 58.5t-237 158t-158.5 236.5t-59 287zM164 717q0 -188 93 -347.5t251.5 -252t345.5 -92.5q188 0 347 92.5
t251 251.5t92 348t-92 348t-251 251.5t-347 92.5q-187 0 -345.5 -92.5t-251.5 -252t-93 -347.5zM989 1624q-50 0 -136 46t-136 46q-34 0 -50.5 -18t-45.5 -78l-31 4q25 82 53 110.5t74 28.5q50 0 139.5 -46t132.5 -46q35 0 51.5 17t44.5 75l31 -4q-25 -81 -53 -108t-74 -27z
" />
    <glyph glyph-name="Odieresis" unicode="&#xd6;" horiz-adv-x="1708" 
d="M111 717q0 150 59 287t158.5 236t237 157.5t288.5 58.5t288.5 -58.5t237 -157.5t158.5 -236t59 -287t-59 -287t-158.5 -236.5t-237 -158t-288.5 -58.5t-288.5 58.5t-237 158t-158.5 236.5t-59 287zM164 717q0 -188 93 -347.5t251.5 -252t345.5 -92.5q188 0 347 92.5
t251 251.5t92 348t-92 348t-251 251.5t-347 92.5q-187 0 -345.5 -92.5t-251.5 -252t-93 -347.5zM590 1688q0 23 14 38t37 15t38 -15t15 -38t-15 -38.5t-38 -15.5t-37 15t-14 39zM1014 1688q0 23 14 38t37 15t38 -15t15 -38t-15 -38.5t-38 -15.5t-37 15t-14 39z" />
    <glyph glyph-name="multiply" unicode="&#xd7;" horiz-adv-x="995" 
d="M465 608l-311 312l32 32l312 -311l311 311l33 -32l-312 -312l312 -311l-33 -33l-311 311l-312 -311l-32 33z" />
    <glyph glyph-name="Oslash" unicode="&#xd8;" horiz-adv-x="1705" 
d="M1253 1280l-761 -1153q164 -102 362 -102q188 0 347 92.5t251 251.5t92 348q0 170 -77.5 317.5t-213.5 245.5zM453 154l761 1153q-168 102 -360 102q-187 0 -345.5 -92.5t-251.5 -252t-93 -347.5q0 -169 77.5 -316.5t211.5 -246.5zM465 86l-105 -158l-38 29l104 158
q-146 102 -230.5 259.5t-84.5 342.5q0 150 59 287t158.5 236t237 157.5t288.5 58.5q204 0 387 -108l109 163l39 -28l-109 -162q149 -105 233 -261.5t84 -342.5q0 -150 -59 -287t-158.5 -236.5t-237 -158t-288.5 -58.5q-215 0 -389 109z" />
    <glyph glyph-name="Ugrave" unicode="&#xd9;" horiz-adv-x="1501" 
d="M1241 1434h51v-924q0 -128 -43.5 -231t-118.5 -168t-171.5 -99.5t-206.5 -34.5q-112 0 -209.5 34.5t-172.5 99.5t-118 168t-43 231v924h51v-924q0 -156 68 -267.5t177.5 -164.5t246.5 -53q100 0 188 31t155.5 90t106.5 153t39 211v924zM526 1851h64l176 -284h-39z" />
    <glyph glyph-name="Uacute" unicode="&#xda;" horiz-adv-x="1501" 
d="M1241 1434h51v-924q0 -128 -43.5 -231t-118.5 -168t-171.5 -99.5t-206.5 -34.5q-112 0 -209.5 34.5t-172.5 99.5t-118 168t-43 231v924h51v-924q0 -156 68 -267.5t177.5 -164.5t246.5 -53q100 0 188 31t155.5 90t106.5 153t39 211v924zM872 1851h64l-201 -284h-39z" />
    <glyph glyph-name="Ucircumflex" unicode="&#xdb;" horiz-adv-x="1501" 
d="M1241 1434h51v-924q0 -128 -43.5 -231t-118.5 -168t-171.5 -99.5t-206.5 -34.5q-112 0 -209.5 34.5t-172.5 99.5t-118 168t-43 231v924h51v-924q0 -156 68 -267.5t177.5 -164.5t246.5 -53q100 0 188 31t155.5 90t106.5 153t39 211v924zM551 1567h-41l209 284h63l209 -284
h-41l-200 245z" />
    <glyph glyph-name="Udieresis" unicode="&#xdc;" horiz-adv-x="1501" 
d="M1241 1434h51v-924q0 -128 -43.5 -231t-118.5 -168t-171.5 -99.5t-206.5 -34.5q-112 0 -209.5 34.5t-172.5 99.5t-118 168t-43 231v924h51v-924q0 -156 68 -267.5t177.5 -164.5t246.5 -53q100 0 188 31t155.5 90t106.5 153t39 211v924zM485 1688q0 23 14.5 38t37.5 15
t38 -15t15 -38t-15 -38.5t-38 -15.5t-37.5 15.5t-14.5 38.5zM909 1688q0 23 14.5 38t37.5 15t38 -15t15 -38t-15 -38.5t-38 -15.5t-37.5 15.5t-14.5 38.5z" />
    <glyph glyph-name="Yacute" unicode="&#xdd;" horiz-adv-x="1243" 
d="M647 0v600l535 834h-64l-495 -781l-496 781h-64l533 -834v-600h51zM745 1851h64l-201 -284h-39z" />
    <glyph glyph-name="Thorn" unicode="&#xde;" horiz-adv-x="1288" 
d="M899 369h-616v-369h-52v1434h52v-369h624q127 0 211 -103t84 -245q0 -141 -85 -244.5t-218 -103.5zM283 416h616q112 0 181 89t69 212t-68.5 212t-173.5 89h-624v-602z" />
    <glyph glyph-name="germandbls" unicode="&#xdf;" horiz-adv-x="1171" 
d="M1077 383q0 -157 -121 -270t-299 -113h-102v47h102q156 0 261.5 99t105.5 237q0 166 -124 278.5t-335 129.5l-18 59q102 13 176.5 62t109.5 114t35 137q0 134 -86 208.5t-229 74.5q-154 0 -235.5 -91t-81.5 -259v-1096h-52v1096q0 192 94.5 294.5t274.5 102.5
q167 0 267.5 -87.5t99.5 -242.5q0 -112 -73 -206t-208 -134q203 -29 320.5 -148t117.5 -292z" />
    <glyph glyph-name="agrave" unicode="&#xe0;" horiz-adv-x="1329" 
d="M100 508q0 -227 144 -379t377 -152q170 0 294.5 84.5t180.5 233.5v-295h49v1014h-49v-297q-56 146 -180.5 232.5t-299.5 86.5q-160 0 -279 -72.5t-178 -191t-59 -264.5zM152 508q0 100 31 187t89 153t147 104.5t197 38.5q142 0 253 -64.5t170 -174t59 -244.5
q0 -215 -135.5 -350t-341.5 -135q-141 0 -249 65t-164 175t-56 245zM403 1481h64l192 -307h-38z" />
    <glyph glyph-name="aacute" unicode="&#xe1;" horiz-adv-x="1329" 
d="M100 508q0 -227 144 -379t377 -152q170 0 294.5 84.5t180.5 233.5v-295h49v1014h-49v-297q-56 146 -180.5 232.5t-299.5 86.5q-160 0 -279 -72.5t-178 -191t-59 -264.5zM152 508q0 100 31 187t89 153t147 104.5t197 38.5q142 0 253 -64.5t170 -174t59 -244.5
q0 -215 -135.5 -350t-341.5 -135q-141 0 -249 65t-164 175t-56 245zM760 1481h63l-217 -307h-39z" />
    <glyph glyph-name="acircumflex" unicode="&#xe2;" horiz-adv-x="1329" 
d="M100 508q0 -227 144 -379t377 -152q170 0 294.5 84.5t180.5 233.5v-295h49v1014h-49v-297q-56 146 -180.5 232.5t-299.5 86.5q-160 0 -279 -72.5t-178 -191t-59 -264.5zM152 508q0 100 31 187t89 153t147 104.5t197 38.5q142 0 253 -64.5t170 -174t59 -244.5
q0 -215 -135.5 -350t-341.5 -135q-141 0 -249 65t-164 175t-56 245zM573 1481h64l225 -307h-39l-219 268l-217 -268h-39z" />
    <glyph glyph-name="atilde" unicode="&#xe3;" horiz-adv-x="1329" 
d="M100 508q0 -227 144 -379t377 -152q170 0 294.5 84.5t180.5 233.5v-295h49v1014h-49v-297q-56 146 -180.5 232.5t-299.5 86.5q-160 0 -279 -72.5t-178 -191t-59 -264.5zM152 508q0 100 31 187t89 153t147 104.5t197 38.5q142 0 253 -64.5t170 -174t59 -244.5
q0 -215 -135.5 -350t-341.5 -135q-141 0 -249 65t-164 175t-56 245zM768 1278q-50 0 -136 46t-136 46q-34 0 -51 -18.5t-46 -77.5l-30 4q25 82 53 110.5t74 28.5q50 0 139.5 -46t132.5 -46q35 0 51.5 17t44.5 75l31 -4q-25 -81 -53 -108t-74 -27z" />
    <glyph glyph-name="adieresis" unicode="&#xe4;" horiz-adv-x="1329" 
d="M100 508q0 -227 144 -379t377 -152q170 0 294.5 84.5t180.5 233.5v-295h49v1014h-49v-297q-56 146 -180.5 232.5t-299.5 86.5q-160 0 -279 -72.5t-178 -191t-59 -264.5zM152 508q0 100 31 187t89 153t147 104.5t197 38.5q142 0 253 -64.5t170 -174t59 -244.5
q0 -215 -135.5 -350t-341.5 -135q-141 0 -249 65t-164 175t-56 245zM393 1317q0 23 14 38t37 15t38.5 -15t15.5 -38t-15.5 -38t-38.5 -15t-37 15t-14 38zM817 1317q0 23 14 38t37 15t38.5 -15t15.5 -38t-15.5 -38t-38.5 -15t-37 15t-14 38z" />
    <glyph glyph-name="aring" unicode="&#xe5;" horiz-adv-x="1329" 
d="M100 508q0 -227 144 -379t377 -152q170 0 294.5 84.5t180.5 233.5v-295h49v1014h-49v-297q-56 146 -180.5 232.5t-299.5 86.5q-160 0 -279 -72.5t-178 -191t-59 -264.5zM152 508q0 100 31 187t89 153t147 104.5t197 38.5q142 0 253 -64.5t170 -174t59 -244.5
q0 -215 -135.5 -350t-341.5 -135q-141 0 -249 65t-164 175t-56 245zM436 1350q0 72 52 124t124 52t124 -52t52 -124t-52 -124t-124 -52t-124 52t-52 124zM477 1350q0 -57 39 -96.5t96 -39.5t96.5 39.5t39.5 96.5t-39.5 96t-96.5 39t-96 -39t-39 -96z" />
    <glyph glyph-name="ae" unicode="&#xe6;" horiz-adv-x="1990" 
d="M942 719q57 145 182 231t297 86q96 0 179.5 -28.5t152 -84.5t110.5 -150t48 -216h-959q-2 -18 -2 -55q0 -132 57.5 -240t171 -173.5t263.5 -65.5q230 0 375 145l32 -35q-159 -156 -407 -156q-163 0 -283 67.5t-188 186.5q-194 -254 -498 -254q-98 0 -185.5 33t-147.5 104
t-60 167q0 126 102 212.5t295 86.5q101 0 222.5 -18.5t201.5 -43.5v92q0 379 -356 379q-216 0 -363 -108l-22 43q70 51 170.5 81.5t214.5 30.5q347 0 397 -317zM1421 991q-185 0 -306 -111t-157 -282h900q-10 98 -49 174.5t-99 123.5t-133.5 71t-155.5 24zM903 475
q-186 57 -420 57q-177 0 -263.5 -70.5t-86.5 -178.5q0 -83 53 -143.5t129.5 -87.5t163.5 -27q121 0 256 64t215 185q-44 90 -47 201z" />
    <glyph glyph-name="ccedilla" unicode="&#xe7;" horiz-adv-x="1105" 
d="M707 -20q98 -83 98 -197q0 -112 -77 -177t-179 -65t-174.5 62t-93.5 157l45 25q14 -84 76.5 -141.5t146.5 -57.5t146.5 53.5t62.5 143.5q0 115 -103 194q-130 2 -235 44.5t-173.5 114.5t-106.5 166t-42 204q0 111 38.5 207.5t110.5 168.5t182 113t245 41q72 0 165 -25
t181 -85l-27 -39q-145 104 -319 104q-122 0 -221.5 -37.5t-164 -103.5t-100.5 -154t-38 -190q4 -102 39.5 -189t99.5 -153t163 -103.5t222 -37.5q174 0 319 104l27 -39q-136 -95 -313 -108z" />
    <glyph glyph-name="egrave" unicode="&#xe8;" horiz-adv-x="1212" 
d="M1036 168l33 -35q-159 -156 -407 -156q-125 0 -231.5 42t-178.5 113t-113 167t-41 203q0 109 41 207.5t112.5 170.5t172.5 114t215 42q97 0 182 -29t152.5 -85.5t109 -150t47.5 -214.5h-978q-2 -18 -2 -55q0 -98 37 -185.5t102.5 -152.5t162.5 -103t210 -38
q229 0 374 145zM639 991q-183 0 -315.5 -111.5t-165.5 -281.5h919q-10 98 -49.5 174.5t-99.5 123.5t-133.5 71t-155.5 24zM403 1481h64l192 -307h-38z" />
    <glyph glyph-name="eacute" unicode="&#xe9;" horiz-adv-x="1212" 
d="M1036 168l33 -35q-159 -156 -407 -156q-125 0 -231.5 42t-178.5 113t-113 167t-41 203q0 109 41 207.5t112.5 170.5t172.5 114t215 42q97 0 182 -29t152.5 -85.5t109 -150t47.5 -214.5h-978q-2 -18 -2 -55q0 -98 37 -185.5t102.5 -152.5t162.5 -103t210 -38
q229 0 374 145zM639 991q-183 0 -315.5 -111.5t-165.5 -281.5h919q-10 98 -49.5 174.5t-99.5 123.5t-133.5 71t-155.5 24zM748 1481h63l-217 -307h-39z" />
    <glyph glyph-name="ecircumflex" unicode="&#xea;" horiz-adv-x="1212" 
d="M1036 168l33 -35q-159 -156 -407 -156q-125 0 -231.5 42t-178.5 113t-113 167t-41 203q0 109 41 207.5t112.5 170.5t172.5 114t215 42q97 0 182 -29t152.5 -85.5t109 -150t47.5 -214.5h-978q-2 -18 -2 -55q0 -98 37 -185.5t102.5 -152.5t162.5 -103t210 -38
q229 0 374 145zM639 991q-183 0 -315.5 -111.5t-165.5 -281.5h919q-10 98 -49.5 174.5t-99.5 123.5t-133.5 71t-155.5 24zM578 1481h63l225 -307h-39l-219 268l-217 -268h-39z" />
    <glyph glyph-name="edieresis" unicode="&#xeb;" horiz-adv-x="1212" 
d="M1036 168l33 -35q-159 -156 -407 -156q-124 0 -231 42t-179 113.5t-113 168t-41 203.5q0 108 41 205.5t112 169.5t172.5 114.5t217.5 42.5q96 0 179.5 -28.5t151.5 -84.5t110 -150t48 -216h-978q-2 -18 -2 -55q0 -98 37 -185.5t102.5 -152.5t162.5 -103t210 -38
q229 0 374 145zM641 991q-187 0 -318 -112.5t-165 -280.5h919q-10 98 -49 174.5t-99 123.5t-133 71t-155 24zM344 1317q0 23 14 38t37 15t38.5 -15t15.5 -38t-15.5 -38t-38.5 -15t-37 15t-14 38zM768 1317q0 23 14 38t37 15t38 -15t15 -38t-15 -38t-38 -15t-37 15t-14 38z
" />
    <glyph glyph-name="igrave" unicode="&#xec;" horiz-adv-x="434" 
d="M242 1014h-49v-1014h49v1014zM-4 1481h63l193 -307h-39z" />
    <glyph glyph-name="iacute" unicode="&#xed;" horiz-adv-x="434" 
d="M242 1014h-49v-1014h49v1014zM375 1481h63l-217 -307h-39z" />
    <glyph glyph-name="icircumflex" unicode="&#xee;" horiz-adv-x="434" 
d="M242 1014h-49v-1014h49v1014zM182 1481h64l225 -307h-39l-219 268l-217 -268h-39z" />
    <glyph glyph-name="idieresis" unicode="&#xef;" horiz-adv-x="434" 
d="M242 1014h-49v-1014h49v1014zM-47 1317q0 23 14 38t37 15t38 -15t15 -38t-15 -38t-38 -15t-37 15t-14 38zM377 1317q0 23 14 38t37 15t38 -15t15 -38t-15 -38t-38 -15t-37 15t-14 38z" />
    <glyph glyph-name="eth" unicode="&#xf0;" horiz-adv-x="1263" 
d="M983 1432l-248 -105q181 -184 304.5 -406.5t123.5 -416.5q0 -143 -71.5 -264.5t-194.5 -192t-268 -70.5q-143 0 -265 70t-194 191.5t-72 265.5q0 107 42.5 205.5t114 170t170 114t204.5 42.5q107 0 203 -41t169 -114q-115 224 -315 424l-315 -134l-25 39l305 129
q-74 72 -178 150l31 39q101 -75 196 -166l258 108zM150 504q0 -200 141 -340.5t338 -140.5q128 0 239.5 64t177.5 174.5t66 238.5q-8 135 -69 246t-169.5 178t-244.5 67q-129 0 -239.5 -66t-175 -178t-64.5 -243z" />
    <glyph glyph-name="ntilde" unicode="&#xf1;" 
d="M233 0v547q3 99 32.5 178.5t71.5 127.5t95.5 80.5t100 45t88.5 12.5q59 0 111 -10.5t104 -39t89 -72.5t60 -116t23 -165v-588h49v588q0 103 -26 183t-67.5 129t-100 80.5t-117.5 43.5t-125 12q-45 0 -96 -14t-107 -43.5t-106 -84.5t-79 -128v248h-49v-1014h49zM745 1278
q-50 0 -136 46t-136 46q-34 0 -50.5 -18t-45.5 -78l-31 4q25 82 53 110.5t74 28.5q50 0 139.5 -46t132.5 -46q35 0 52 17.5t45 74.5l30 -4q-25 -81 -53 -108t-74 -27z" />
    <glyph glyph-name="ograve" unicode="&#xf2;" horiz-adv-x="1257" 
d="M96 504q0 107 42.5 205.5t114 170t170 114t204.5 42.5q145 0 268 -72.5t194.5 -195.5t71.5 -264q0 -143 -71.5 -264.5t-194.5 -192t-268 -70.5q-143 0 -265 70t-194 191.5t-72 265.5zM147 504q0 -200 141.5 -340.5t338.5 -140.5q130 0 241 64t176.5 175t65.5 242
q0 97 -38.5 187t-103.5 155.5t-154.5 105t-186.5 39.5q-129 0 -239.5 -66t-175.5 -178t-65 -243zM391 1481h64l192 -307h-39z" />
    <glyph glyph-name="oacute" unicode="&#xf3;" horiz-adv-x="1257" 
d="M96 504q0 107 42.5 205.5t114 170t170 114t204.5 42.5q145 0 268 -72.5t194.5 -195.5t71.5 -264q0 -143 -71.5 -264.5t-194.5 -192t-268 -70.5q-143 0 -265 70t-194 191.5t-72 265.5zM147 504q0 -200 141.5 -340.5t338.5 -140.5q130 0 241 64t176.5 175t65.5 242
q0 97 -38.5 187t-103.5 155.5t-154.5 105t-186.5 39.5q-129 0 -239.5 -66t-175.5 -178t-65 -243zM748 1481h63l-217 -307h-39z" />
    <glyph glyph-name="ocircumflex" unicode="&#xf4;" horiz-adv-x="1257" 
d="M96 504q0 107 42.5 205.5t114 170t170 114t204.5 42.5q145 0 268 -72.5t194.5 -195.5t71.5 -264q0 -143 -71.5 -264.5t-194.5 -192t-268 -70.5q-143 0 -265 70t-194 191.5t-72 265.5zM147 504q0 -200 141.5 -340.5t338.5 -140.5q130 0 241 64t176.5 175t65.5 242
q0 97 -38.5 187t-103.5 155.5t-154.5 105t-186.5 39.5q-129 0 -239.5 -66t-175.5 -178t-65 -243zM596 1481h63l226 -307h-39l-219 268l-217 -268h-39z" />
    <glyph glyph-name="otilde" unicode="&#xf5;" horiz-adv-x="1257" 
d="M96 504q0 107 42.5 205.5t114 170t170 114t204.5 42.5q145 0 268 -72.5t194.5 -195.5t71.5 -264q0 -143 -71.5 -264.5t-194.5 -192t-268 -70.5q-143 0 -265 70t-194 191.5t-72 265.5zM147 504q0 -200 141.5 -340.5t338.5 -140.5q130 0 241 64t176.5 175t65.5 242
q0 97 -38.5 187t-103.5 155.5t-154.5 105t-186.5 39.5q-129 0 -239.5 -66t-175.5 -178t-65 -243zM764 1278q-50 0 -136 46t-136 46q-34 0 -51 -18.5t-46 -77.5l-30 4q25 82 53 110.5t74 28.5q50 0 139.5 -46t132.5 -46q35 0 51.5 17t44.5 75l31 -4q-25 -81 -53 -108t-74 -27
z" />
    <glyph glyph-name="odieresis" unicode="&#xf6;" horiz-adv-x="1257" 
d="M96 504q0 107 42.5 205.5t114 170t170 114t204.5 42.5q145 0 268 -72.5t194.5 -195.5t71.5 -264q0 -143 -71.5 -264.5t-194.5 -192t-268 -70.5q-143 0 -265 70t-194 191.5t-72 265.5zM147 504q0 -200 141.5 -340.5t338.5 -140.5q130 0 241 64t176.5 175t65.5 242
q0 97 -38.5 187t-103.5 155.5t-154.5 105t-186.5 39.5q-129 0 -239.5 -66t-175.5 -178t-65 -243zM365 1317q0 23 14 38t37 15t38 -15t15 -38t-15 -38t-38 -15t-37 15t-14 38zM788 1317q0 23 14.5 38t37.5 15t38 -15t15 -38t-15 -38t-38 -15t-37.5 15t-14.5 38z" />
    <glyph glyph-name="divide" unicode="&#xf7;" horiz-adv-x="1308" 
d="M1147 631h-983v-45h983v45zM604 207q0 23 14 38t37 15t38.5 -15t15.5 -38t-15.5 -38t-38.5 -15t-37 15t-14 38zM604 1020q0 23 14 38t37 15t38.5 -15t15.5 -38t-15.5 -38t-38.5 -15t-37 15t-14 38z" />
    <glyph glyph-name="oslash" unicode="&#xf8;" horiz-adv-x="1259" 
d="M915 893l-534 -801q112 -69 248 -69q130 0 241 64t176.5 175t65.5 242q0 117 -52.5 218.5t-144.5 170.5zM342 119l532 801q-109 71 -245 71q-129 0 -239.5 -66t-175 -178t-64.5 -243q0 -119 51 -218t141 -167zM354 51l-84 -127l-39 29l84 125q-101 74 -159 185t-58 241
q0 107 42.5 205.5t114 170t170 114t204.5 42.5q145 0 272 -78l92 140l39 -29l-92 -137q104 -74 163.5 -186.5t59.5 -241.5q0 -143 -71.5 -264.5t-194.5 -192t-268 -70.5q-149 0 -275 74z" />
    <glyph glyph-name="ugrave" unicode="&#xf9;" 
d="M989 1014v-547q-2 -99 -31 -178.5t-71.5 -127.5t-96 -80.5t-100.5 -45t-88 -12.5q-59 0 -111 10.5t-104 39t-89 72.5t-60 116t-23 165v588h-49v-588q0 -102 26 -182t67.5 -129.5t100 -81t117.5 -44t125 -12.5q35 0 75 8t85.5 28.5t86.5 50.5t78.5 77.5t61.5 106.5v-248
h49v1014h-49zM399 1481h64l192 -307h-39z" />
    <glyph glyph-name="uacute" unicode="&#xfa;" 
d="M989 1014v-547q-2 -99 -31 -178.5t-71.5 -127.5t-96 -80.5t-100.5 -45t-88 -12.5q-59 0 -111 10.5t-104 39t-89 72.5t-60 116t-23 165v588h-49v-588q0 -102 26 -182t67.5 -129.5t100 -81t117.5 -44t125 -12.5q35 0 75 8t85.5 28.5t86.5 50.5t78.5 77.5t61.5 106.5v-248
h49v1014h-49zM700 1481h64l-217 -307h-39z" />
    <glyph glyph-name="ucircumflex" unicode="&#xfb;" 
d="M989 1014v-547q-2 -99 -31 -178.5t-71.5 -127.5t-96 -80.5t-100.5 -45t-88 -12.5q-59 0 -111 10.5t-104 39t-89 72.5t-60 116t-23 165v588h-49v-588q0 -102 26 -182t67.5 -129.5t100 -81t117.5 -44t125 -12.5q35 0 75 8t85.5 28.5t86.5 50.5t78.5 77.5t61.5 106.5v-248
h49v1014h-49zM571 1481h64l225 -307h-39l-219 268l-217 -268h-39z" />
    <glyph glyph-name="udieresis" unicode="&#xfc;" 
d="M989 1014v-547q-2 -99 -31 -178.5t-71.5 -127.5t-96 -80.5t-100.5 -45t-88 -12.5q-59 0 -111 10.5t-104 39t-89 72.5t-60 116t-23 165v588h-49v-588q0 -102 26 -182t67.5 -129.5t100 -81t117.5 -44t125 -12.5q35 0 75 8t85.5 28.5t86.5 50.5t78.5 77.5t61.5 106.5v-248
h49v1014h-49zM348 1317q0 23 14 38t37 15t38.5 -15t15.5 -38t-15.5 -38t-38.5 -15t-37 15t-14 38zM772 1317q0 23 14 38t37 15t38.5 -15t15.5 -38t-15.5 -38t-38.5 -15t-37 15t-14 38z" />
    <glyph glyph-name="yacute" unicode="&#xfd;" horiz-adv-x="1056" 
d="M55 1014l451 -1047l-176 -426h49l620 1473h-55l-412 -989l-421 989h-56zM643 1481h64l-218 -307h-38z" />
    <glyph glyph-name="thorn" unicode="&#xfe;" horiz-adv-x="1329" 
d="M1229 508q0 -149 -62 -269t-181.5 -191t-276.5 -71q-170 0 -295 84.5t-181 233.5v-754h-49v1940h49v-764q56 146 180.5 232.5t299.5 86.5q160 0 279 -72.5t178 -191t59 -264.5zM1178 508q0 99 -31.5 186.5t-89.5 153.5t-146.5 104.5t-197.5 38.5q-213 0 -347.5 -138.5
t-134.5 -344.5q0 -214 136 -349.5t342 -135.5q141 0 249 65t164 175t56 245z" />
    <glyph glyph-name="ydieresis" unicode="&#xff;" horiz-adv-x="1056" 
d="M55 1014l451 -1047l-176 -426h49l620 1473h-55l-412 -989l-421 989h-56zM248 1317q0 23 14 38t37 15t38 -15t15 -38t-15 -38t-38 -15t-37 15t-14 38zM672 1317q0 23 14 38t37 15t38 -15t15 -38t-15 -38t-38 -15t-37 15t-14 38z" />
    <glyph glyph-name="Amacron" unicode="&#x100;" horiz-adv-x="1335" 
d="M94 0h-57l594 1434h74l593 -1434h-59l-137 334h-871zM668 1386l-418 -1005h831zM434 1710h467v-45h-467v45z" />
    <glyph glyph-name="amacron" unicode="&#x101;" horiz-adv-x="1329" 
d="M422 1368h467v-45h-467v45zM100 508q0 146 59 264.5t178 191t279 72.5q175 0 299.5 -86.5t180.5 -232.5v297h49v-1014h-49v295q-56 -149 -180.5 -233.5t-294.5 -84.5q-233 0 -377 152t-144 379zM152 508q0 -135 56 -245t164 -175t249 -65q206 0 341.5 135t135.5 350
q0 135 -59 244.5t-170 174t-253 64.5q-108 0 -197 -38.5t-147 -104.5t-89 -153t-31 -187z" />
    <glyph glyph-name="Abreve" unicode="&#x102;" horiz-adv-x="1335" 
d="M37 0h57l137 334h871l137 -334h59l-593 1434h-74zM250 381l418 1005l413 -1005h-831zM666 1573q-112 0 -178.5 72t-77.5 186l39 4q14 -88 70 -152.5t149 -64.5q91 0 147 64.5t70 152.5l39 -4q-11 -114 -78 -186t-180 -72z" />
    <glyph glyph-name="abreve" unicode="&#x103;" horiz-adv-x="1329" 
d="M629 1196q-112 0 -178.5 72t-77.5 186l39 4q14 -88 70 -152.5t149 -64.5q91 0 147 64.5t70 152.5l39 -4q-11 -114 -78 -186t-180 -72zM100 508q0 -227 144 -379t377 -152q170 0 294.5 84.5t180.5 233.5v-295h49v1014h-49v-297q-56 146 -180.5 232.5t-299.5 86.5
q-160 0 -279 -72.5t-178 -191t-59 -264.5zM152 508q0 100 31 187t89 153t147 104.5t197 38.5q142 0 253 -64.5t170 -174t59 -244.5q0 -215 -135.5 -350t-341.5 -135q-141 0 -249 65t-164 175t-56 245z" />
    <glyph glyph-name="Aogonek" unicode="&#x104;" horiz-adv-x="1333" 
d="M94 0h-57l594 1434h74l587 -1418l-28 -16q-136 -82 -136 -217q0 -90 62.5 -143.5t146.5 -53.5t147 57.5t77 141.5l45 -25q-21 -95 -94 -157t-175 -62t-179 65t-77 177q0 24 6.5 51t22 59t47.5 65t76 58l-131 318h-871zM668 1386l-418 -1005h831z" />
    <glyph glyph-name="aogonek" unicode="&#x105;" horiz-adv-x="1329" 
d="M100 508q0 146 59 264.5t178 191t279 72.5q175 0 299.5 -86.5t180.5 -232.5v297h49v-1004l-19 -10q-135 -81 -135 -217q0 -90 62.5 -143.5t146.5 -53.5t146.5 57.5t76.5 141.5l45 -25q-21 -95 -93.5 -157t-174.5 -62t-179 65t-77 177q0 24 6.5 51t22 59t47.5 65t76 58
v279q-56 -149 -180.5 -233.5t-294.5 -84.5q-233 0 -377 152t-144 379zM152 508q0 -135 56 -245t164 -175t249 -65q206 0 341.5 135t135.5 350q0 135 -59 244.5t-170 174t-253 64.5q-108 0 -197 -38.5t-147 -104.5t-89 -153t-31 -187z" />
    <glyph glyph-name="Cacute" unicode="&#x106;" horiz-adv-x="1435" 
d="M887 25q140 0 244 36t196 107l23 -45q-100 -72 -209 -109t-254 -37q-178 0 -325.5 59.5t-244.5 161t-150.5 235.5t-53.5 284t53.5 284t150.5 235t244.5 160.5t325.5 59.5q145 0 253.5 -37.5t209.5 -109.5l-23 -43q-92 71 -196 107t-244 36q-165 0 -303 -55.5t-228.5 -150
t-140 -220t-49.5 -266.5t49.5 -266.5t140 -220t228.5 -150t303 -55.5zM958 1851h64l-201 -284h-39z" />
    <glyph glyph-name="cacute" unicode="&#x107;" horiz-adv-x="1105" 
d="M98 506q0 111 38.5 207.5t110.5 168.5t182 113t245 41q72 0 165 -25t181 -85l-27 -39q-145 104 -319 104q-122 0 -221.5 -37.5t-164 -103.5t-100.5 -154t-38 -190q4 -102 39.5 -189t99.5 -153t163 -103.5t222 -37.5q174 0 319 104l27 -39q-88 -60 -181.5 -85.5
t-164.5 -25.5q-136 0 -244.5 41t-179.5 113t-109.5 167.5t-42.5 207.5zM770 1481h64l-218 -307h-38z" />
    <glyph glyph-name="Ccircumflex" unicode="&#x108;" horiz-adv-x="1435" 
d="M887 25q140 0 244 36t196 107l23 -45q-100 -72 -209 -109t-254 -37q-178 0 -325.5 59.5t-244.5 161t-150.5 235.5t-53.5 284t53.5 284t150.5 235t244.5 160.5t325.5 59.5q145 0 253.5 -37.5t209.5 -109.5l-23 -43q-92 71 -196 107t-244 36q-165 0 -303 -55.5t-228.5 -150
t-140 -220t-49.5 -266.5t49.5 -266.5t140 -220t228.5 -150t303 -55.5zM631 1567h-41l209 284h63l209 -284h-41l-201 245z" />
    <glyph glyph-name="ccircumflex" unicode="&#x109;" horiz-adv-x="1105" 
d="M98 506q0 111 38.5 207.5t110.5 168.5t182 113t245 41q72 0 165 -25t181 -85l-27 -39q-145 104 -319 104q-122 0 -221.5 -37.5t-164 -103.5t-100.5 -154t-38 -190q4 -102 39.5 -189t99.5 -153t163 -103.5t222 -37.5q174 0 319 104l27 -39q-88 -60 -181.5 -85.5
t-164.5 -25.5q-136 0 -244.5 41t-179.5 113t-109.5 167.5t-42.5 207.5zM592 1481h63l226 -307h-39l-219 268l-217 -268h-39z" />
    <glyph glyph-name="Cdotaccent" unicode="&#x10a;" horiz-adv-x="1435" 
d="M887 25q140 0 244 36t196 107l23 -45q-100 -72 -209 -109t-254 -37q-178 0 -325.5 59.5t-244.5 161t-150.5 235.5t-53.5 284t53.5 284t150.5 235t244.5 160.5t325.5 59.5q145 0 253.5 -37.5t209.5 -109.5l-23 -43q-92 71 -196 107t-244 36q-165 0 -303 -55.5t-228.5 -150
t-140 -220t-49.5 -266.5t49.5 -266.5t140 -220t228.5 -150t303 -55.5zM809 1704q0 57 47 57t47 -57t-47 -57t-47 57z" />
    <glyph glyph-name="cdotaccent" unicode="&#x10b;" horiz-adv-x="1105" 
d="M98 506q0 111 38.5 207.5t110.5 168.5t182 113t245 41q72 0 165 -25t181 -85l-27 -39q-145 104 -319 104q-122 0 -221.5 -37.5t-164 -103.5t-100.5 -154t-38 -190q4 -102 39.5 -189t99.5 -153t163 -103.5t222 -37.5q174 0 319 104l27 -39q-88 -60 -181.5 -85.5
t-164.5 -25.5q-136 0 -244.5 41t-179.5 113t-109.5 167.5t-42.5 207.5zM578 1307q0 57 47 57t47 -57q0 -58 -47 -58t-47 58z" />
    <glyph glyph-name="Ccaron" unicode="&#x10c;" horiz-adv-x="1435" 
d="M887 25q140 0 244 36t196 107l23 -45q-100 -72 -209 -109t-254 -37q-178 0 -325.5 59.5t-244.5 161t-150.5 235.5t-53.5 284t53.5 284t150.5 235t244.5 160.5t325.5 59.5q145 0 253.5 -37.5t209.5 -109.5l-23 -43q-92 71 -196 107t-244 36q-165 0 -303 -55.5t-228.5 -150
t-140 -220t-49.5 -266.5t49.5 -266.5t140 -220t228.5 -150t303 -55.5zM602 1851h41l199 -245l200 245h41l-209 -284h-63z" />
    <glyph glyph-name="ccaron" unicode="&#x10d;" horiz-adv-x="1105" 
d="M98 506q0 111 38.5 207.5t110.5 168.5t182 113t245 41q72 0 165 -25t181 -85l-27 -39q-145 104 -319 104q-122 0 -221.5 -37.5t-164 -103.5t-100.5 -154t-38 -190q4 -102 39.5 -189t99.5 -153t163 -103.5t222 -37.5q174 0 319 104l27 -39q-88 -60 -181.5 -85.5
t-164.5 -25.5q-136 0 -244.5 41t-179.5 113t-109.5 167.5t-42.5 207.5zM643 1174h-63l-226 307h39l217 -269l219 269h39z" />
    <glyph glyph-name="Dcaron" unicode="&#x10e;" horiz-adv-x="1472" 
d="M231 0h428q192 0 353 96t253.5 260.5t92.5 360.5q0 195 -92.5 359.5t-253.5 261t-353 96.5h-428v-1434zM659 47h-376v1339h376q133 0 252.5 -53t206 -142.5t137 -213.5t50.5 -260q0 -137 -50.5 -261t-137 -213.5t-206 -142.5t-252.5 -53zM434 1851h41l199 -245l200 245
h41l-208 -284h-64z" />
    <glyph glyph-name="dcaron" unicode="&#x10f;" horiz-adv-x="1337" 
d="M1096 719v762h49v-1481h-49v295q-56 -149 -180.5 -233.5t-294.5 -84.5q-233 0 -377 152t-144 379q0 148 63.5 268t183 190t274.5 70q170 0 294.5 -84t180.5 -233zM1098 508q0 214 -135.5 348.5t-341.5 134.5q-212 0 -340.5 -137t-128.5 -346q0 -135 56 -245t164 -175
t249 -65q206 0 341.5 135t135.5 350zM1319 1092l-25 26q72 76 72 182q0 25 -6 37q-8 -8 -33 -8q-23 0 -37 15t-14 38t15 37.5t40 14.5q38 0 57 -40t19 -94q0 -114 -88 -208z" />
    <glyph glyph-name="Dcroat" unicode="&#x110;" horiz-adv-x="1474" 
d="M233 668h-170v47h170v719h429q192 0 353 -96.5t253 -261t92 -359.5q0 -146 -54.5 -279t-147.5 -229t-222.5 -152.5t-273.5 -56.5h-429v668zM285 668v-621h377q177 0 325.5 89.5t234 243.5t85.5 337q0 136 -50.5 260t-136.5 213.5t-205.5 142.5t-252.5 53h-377v-671h424
v-47h-424z" />
    <glyph glyph-name="dcroat" unicode="&#x111;" horiz-adv-x="1329" 
d="M1096 1245h-394v41h394v195h49v-195h162v-41h-162v-1245h-49v295q-56 -149 -180.5 -233.5t-294.5 -84.5q-233 0 -377 152t-144 379q0 148 63.5 268t183 190t274.5 70q170 0 294.5 -84t180.5 -233v526zM1098 508q0 214 -135.5 348.5t-341.5 134.5q-212 0 -340.5 -137
t-128.5 -346q0 -135 56 -245t164 -175t249 -65q206 0 341.5 135t135.5 350z" />
    <glyph glyph-name="Emacron" unicode="&#x112;" horiz-adv-x="1200" 
d="M1079 0h-848v1434h848v-48h-796v-661h696v-47h-696v-631h796v-47zM393 1710h467v-45h-467v45z" />
    <glyph glyph-name="emacron" unicode="&#x113;" horiz-adv-x="1212" 
d="M1036 168l33 -35q-159 -156 -407 -156q-125 0 -231.5 42t-178.5 113t-113 167t-41 203q0 109 41 207.5t112.5 170.5t172.5 114t215 42q97 0 182 -29t152.5 -85.5t109 -150t47.5 -214.5h-978q-2 -18 -2 -55q0 -98 37 -185.5t102.5 -152.5t162.5 -103t210 -38
q229 0 374 145zM639 991q-183 0 -315.5 -111.5t-165.5 -281.5h919q-10 98 -49.5 174.5t-99.5 123.5t-133.5 71t-155.5 24zM375 1368h467v-45h-467v45z" />
    <glyph glyph-name="Ebreve" unicode="&#x114;" horiz-adv-x="1200" 
d="M1079 0h-848v1434h848v-48h-796v-661h696v-47h-696v-631h796v-47zM637 1573q-112 0 -178.5 72t-77.5 186l39 4q14 -88 70 -152.5t149 -64.5q91 0 147 64.5t70 152.5l39 -4q-11 -114 -78 -186t-180 -72z" />
    <glyph glyph-name="ebreve" unicode="&#x115;" horiz-adv-x="1212" 
d="M1036 168l33 -35q-159 -156 -407 -156q-125 0 -231.5 42t-178.5 113t-113 167t-41 203q0 109 41 207.5t112.5 170.5t172.5 114t215 42q97 0 182 -29t152.5 -85.5t109 -150t47.5 -214.5h-978q-2 -18 -2 -55q0 -98 37 -185.5t102.5 -152.5t162.5 -103t210 -38
q229 0 374 145zM639 991q-183 0 -315.5 -111.5t-165.5 -281.5h919q-10 98 -49.5 174.5t-99.5 123.5t-133.5 71t-155.5 24zM625 1196q-112 0 -178.5 72t-77.5 186l39 4q14 -88 70 -152.5t149 -64.5q91 0 147 64.5t70 152.5l39 -4q-11 -114 -78 -186t-180 -72z" />
    <glyph glyph-name="Edotaccent" unicode="&#x116;" horiz-adv-x="1200" 
d="M1079 0h-848v1434h848v-48h-796v-661h696v-47h-696v-631h796v-47zM567 1704q0 57 47 57q48 0 48 -57t-48 -57q-47 0 -47 57z" />
    <glyph glyph-name="edotaccent" unicode="&#x117;" horiz-adv-x="1212" 
d="M1036 168l33 -35q-159 -156 -407 -156q-124 0 -231 42t-179 113.5t-113 168t-41 203.5q0 108 41 205.5t112 169.5t172.5 114.5t217.5 42.5q96 0 179.5 -28.5t151.5 -84.5t110 -150t48 -216h-978q-2 -18 -2 -55q0 -98 37 -185.5t102.5 -152.5t162.5 -103t210 -38
q229 0 374 145zM641 991q-187 0 -318 -112.5t-165 -280.5h919q-10 98 -49 174.5t-99 123.5t-133 71t-155 24zM561 1307q0 57 47 57t47 -57q0 -58 -47 -58t-47 58z" />
    <glyph glyph-name="Eogonek" unicode="&#x118;" horiz-adv-x="1200" 
d="M1079 0h-282q-135 -81 -135 -217q0 -90 62 -143.5t146 -53.5t147 57.5t77 141.5l45 -25q-21 -95 -94 -157t-175 -62t-179 65t-77 177q0 50 31.5 114t99.5 103h-514v1434h848v-48h-796v-661h696v-47h-696v-631h796v-47z" />
    <glyph glyph-name="eogonek" unicode="&#x119;" horiz-adv-x="1212" 
d="M639 991q-183 0 -315.5 -111.5t-165.5 -281.5h919q-10 98 -49.5 174.5t-99.5 123.5t-133.5 71t-155.5 24zM780 -41q-82 -77 -82 -176q0 -90 62.5 -143.5t146.5 -53.5t146.5 57.5t76.5 141.5l46 -25q-21 -95 -94 -157t-175 -62t-179 65t-77 177q0 47 23 101t80 100
q-54 -7 -92 -7q-125 0 -231.5 42t-178.5 113t-113 167t-41 203q0 109 41 207.5t112.5 170.5t172.5 114t215 42q97 0 182 -29t152.5 -85.5t109 -150t47.5 -214.5h-978q-2 -18 -2 -55q0 -98 37 -185.5t102.5 -152.5t162.5 -103t210 -38q229 0 374 145l33 -35
q-80 -77 -190 -119q-4 -2 -21 -8.5t-22.5 -9t-17.5 -9t-20.5 -13t-17.5 -15.5z" />
    <glyph glyph-name="Ecaron" unicode="&#x11a;" horiz-adv-x="1200" 
d="M1079 0h-848v1434h848v-48h-796v-661h696v-47h-696v-631h796v-47zM399 1851h41l199 -245l201 245h41l-209 -284h-64z" />
    <glyph glyph-name="ecaron" unicode="&#x11b;" horiz-adv-x="1212" 
d="M1036 168l33 -35q-159 -156 -407 -156q-125 0 -231.5 42t-178.5 113t-113 167t-41 203q0 109 41 207.5t112.5 170.5t172.5 114t215 42q97 0 182 -29t152.5 -85.5t109 -150t47.5 -214.5h-978q-2 -18 -2 -55q0 -98 37 -185.5t102.5 -152.5t162.5 -103t210 -38
q229 0 374 145zM639 991q-183 0 -315.5 -111.5t-165.5 -281.5h919q-10 98 -49.5 174.5t-99.5 123.5t-133.5 71t-155.5 24zM641 1174h-63l-226 307h39l217 -269l219 269h39z" />
    <glyph glyph-name="Gcircumflex" unicode="&#x11c;" horiz-adv-x="1517" 
d="M1333 604v-434q-176 -145 -456 -145q-153 0 -287 55.5t-227 150t-146 221.5t-53 267q0 143 57 273t150 220.5t215.5 143.5t251.5 53q152 0 266.5 -23.5t214.5 -91.5l22 43q-104 70 -224 94.5t-279 24.5q-138 0 -270 -57t-233 -153.5t-162.5 -235t-61.5 -291.5
q0 -149 57 -285t156.5 -237t243.5 -160.5t309 -59.5q306 0 507 173v505h-489v-51h438zM621 1567h-41l208 284h64l209 -284h-41l-201 245z" />
    <glyph glyph-name="gcircumflex" unicode="&#x11d;" horiz-adv-x="1327" 
d="M227 -315l-22 -43q98 -68 200.5 -95.5t227.5 -27.5q231 0 371.5 139.5t140.5 364.5v991h-49v-297q-56 146 -180.5 232.5t-299.5 86.5q-160 0 -279 -72.5t-178 -191t-59 -264.5q0 -227 144 -379t377 -152q170 0 294.5 84.5t180.5 233.5v-272q0 -203 -128.5 -331
t-334.5 -128q-119 0 -216 26.5t-190 94.5zM152 508q0 100 31 187t89 153t147 104.5t197 38.5q142 0 253 -64.5t170 -174t59 -244.5q0 -215 -135.5 -350t-341.5 -135q-141 0 -249 65t-164 175t-56 245zM631 1481h63l226 -307h-39l-219 268l-218 -268h-38z" />
    <glyph glyph-name="Gbreve" unicode="&#x11e;" horiz-adv-x="1517" 
d="M1333 604v-434q-176 -145 -456 -145q-153 0 -287 55.5t-227 150t-146 221.5t-53 267q0 143 57 273t150 220.5t215.5 143.5t251.5 53q152 0 266.5 -23.5t214.5 -91.5l22 43q-104 70 -224 94.5t-279 24.5q-138 0 -270 -57t-233 -153.5t-162.5 -235t-61.5 -291.5
q0 -149 57 -285t156.5 -237t243.5 -160.5t309 -59.5q306 0 507 173v505h-489v-51h438zM817 1573q-112 0 -178.5 72t-77.5 186l39 4q14 -88 70 -152.5t149 -64.5q91 0 147 64.5t70 152.5l39 -4q-11 -114 -78 -186t-180 -72z" />
    <glyph glyph-name="gbreve" unicode="&#x11f;" horiz-adv-x="1327" 
d="M227 -315l-22 -43q98 -68 200.5 -95.5t227.5 -27.5q231 0 371.5 139.5t140.5 364.5v991h-49v-297q-56 146 -180.5 232.5t-299.5 86.5q-160 0 -279 -72.5t-178 -191t-59 -264.5q0 -227 144 -379t377 -152q170 0 294.5 84.5t180.5 233.5v-272q0 -203 -128.5 -331
t-334.5 -128q-119 0 -216 26.5t-190 94.5zM152 508q0 100 31 187t89 153t147 104.5t197 38.5q142 0 253 -64.5t170 -174t59 -244.5q0 -215 -135.5 -350t-341.5 -135q-141 0 -249 65t-164 175t-56 245zM662 1196q-112 0 -178.5 72t-77.5 186l38 4q14 -88 70.5 -152.5
t149.5 -64.5q91 0 147 64.5t70 152.5l39 -4q-11 -114 -78 -186t-180 -72z" />
    <glyph glyph-name="Gdotaccent" unicode="&#x120;" horiz-adv-x="1517" 
d="M1333 604v-434q-176 -145 -456 -145q-153 0 -287 55.5t-227 150t-146 221.5t-53 267q0 143 57 273t150 220.5t215.5 143.5t251.5 53q152 0 266.5 -23.5t214.5 -91.5l22 43q-104 70 -224 94.5t-279 24.5q-138 0 -270 -57t-233 -153.5t-162.5 -235t-61.5 -291.5
q0 -149 57 -285t156.5 -237t243.5 -160.5t309 -59.5q306 0 507 173v505h-489v-51h438zM745 1704q0 57 48 57q47 0 47 -57t-47 -57q-48 0 -48 57z" />
    <glyph glyph-name="gdotaccent" unicode="&#x121;" horiz-adv-x="1327" 
d="M227 -315l-22 -43q98 -68 200.5 -95.5t227.5 -27.5q231 0 371.5 139.5t140.5 364.5v991h-49v-297q-56 146 -180.5 232.5t-299.5 86.5q-160 0 -279 -72.5t-178 -191t-59 -264.5q0 -227 144 -379t377 -152q170 0 294.5 84.5t180.5 233.5v-272q0 -203 -128.5 -331
t-334.5 -128q-119 0 -216 26.5t-190 94.5zM152 508q0 100 31 187t89 153t147 104.5t197 38.5q142 0 253 -64.5t170 -174t59 -244.5q0 -215 -135.5 -350t-341.5 -135q-141 0 -249 65t-164 175t-56 245zM616 1307q0 57 48 57q47 0 47 -57q0 -58 -47 -58q-48 0 -48 58z" />
    <glyph glyph-name="Gcommaaccent" unicode="&#x122;" horiz-adv-x="1517" 
d="M1333 170v434h-438v51h489v-505q-201 -173 -507 -173q-165 0 -309 59.5t-243.5 160.5t-156.5 237t-57 285q0 153 61.5 291.5t162.5 235t233 153.5t270 57q159 0 279 -24.5t224 -94.5l-22 -43q-100 68 -214.5 91.5t-266.5 23.5q-129 0 -251.5 -53t-215.5 -143.5
t-150 -220.5t-57 -273q0 -140 53 -267t146 -221.5t227 -150t287 -55.5q280 0 456 145zM840 -469l-25 27q72 76 72 182q0 25 -6 37q-8 -8 -33 -8q-23 0 -37 15t-14 38t15 37t40 14q38 0 57 -39.5t19 -93.5q0 -115 -88 -209z" />
    <glyph glyph-name="gcommaaccent" unicode="&#x123;" horiz-adv-x="1327" 
d="M227 -315l-22 -43q98 -68 200.5 -95.5t227.5 -27.5q231 0 371.5 139.5t140.5 364.5v991h-49v-297q-56 146 -180.5 232.5t-299.5 86.5q-160 0 -279 -72.5t-178 -191t-59 -264.5q0 -227 144 -379t377 -152q170 0 294.5 84.5t180.5 233.5v-272q0 -203 -128.5 -331
t-334.5 -128q-119 0 -216 26.5t-190 94.5zM152 508q0 100 31 187t89 153t147 104.5t197 38.5q142 0 253 -64.5t170 -174t59 -244.5q0 -215 -135.5 -350t-341.5 -135q-141 0 -249 65t-164 175t-56 245zM614 1516l25 -27q-72 -76 -72 -182q0 -25 6 -37q8 8 33 8q23 0 37 -15
t14 -38t-15 -37t-40 -14q-38 0 -57 39.5t-19 93.5q0 115 88 209z" />
    <glyph glyph-name="Hcircumflex" unicode="&#x124;" horiz-adv-x="1460" 
d="M1229 0h-51v657h-895v-657h-52v1434h52v-729h895v729h51v-1434zM530 1567h-41l209 284h64l209 -284h-41l-201 245z" />
    <glyph glyph-name="hcircumflex" unicode="&#x125;" 
d="M233 0v547q3 99 32.5 178.5t71.5 127.5t95.5 80.5t100 45t88.5 12.5q59 0 111 -10.5t104 -39t89 -72.5t60 -116t23 -165v-588h49v588q0 103 -26 183t-67.5 129t-100 80.5t-117.5 43.5t-125 12q-45 0 -96 -14t-107 -43.5t-106 -84.5t-79 -128v715h-49v-1481h49zM10 1567
h-41l209 284h64l209 -284h-41l-201 245z" />
    <glyph glyph-name="Hbar" unicode="&#x126;" horiz-adv-x="1460" 
d="M1178 705v309h-895v-309h895zM1372 1014h-143v-1014h-51v657h-895v-657h-52v1014h-143v45h143v375h52v-375h895v375h51v-375h143v-45z" />
    <glyph glyph-name="hbar" unicode="&#x127;" 
d="M233 1286h381v-41h-381v-479q29 73 79 128t106 84.5t107 43.5t96 14q66 0 125 -12t117.5 -43.5t100 -80.5t67.5 -129t26 -183v-588h-49v588q0 93 -23 165t-60 116t-89 72.5t-104 39t-111 10.5q-42 0 -88.5 -12.5t-100 -45t-95.5 -80.5t-71.5 -127.5t-32.5 -178.5v-547
h-49v1245h-157v41h157v195h49v-195z" />
    <glyph glyph-name="Itilde" unicode="&#x128;" horiz-adv-x="514" 
d="M283 0v1434h-52v-1434h52zM393 1624q-50 0 -136 46t-136 46q-34 0 -50.5 -18t-45.5 -78l-31 4q25 82 53 110.5t74 28.5q50 0 139.5 -46t132.5 -46q35 0 51.5 17t44.5 75l31 -4q-25 -81 -53 -108t-74 -27z" />
    <glyph glyph-name="itilde" unicode="&#x129;" horiz-adv-x="434" 
d="M242 1014h-49v-1014h49v1014zM354 1278q-50 0 -136 46t-136 46q-34 0 -50.5 -18t-45.5 -78l-31 4q25 82 53 110.5t74 28.5q50 0 139.5 -46t132.5 -46q35 0 52 17.5t45 74.5l30 -4q-25 -81 -53 -108t-74 -27z" />
    <glyph glyph-name="Imacron" unicode="&#x12a;" horiz-adv-x="514" 
d="M283 1434v-1434h-52v1434h52zM23 1710h466v-45h-466v45z" />
    <glyph glyph-name="imacron" unicode="&#x12b;" horiz-adv-x="434" 
d="M193 1014h49v-1014h-49v1014zM-16 1368h467v-45h-467v45z" />
    <glyph glyph-name="Ibreve" unicode="&#x12c;" horiz-adv-x="514" 
d="M283 0v1434h-52v-1434h52zM256 1573q-112 0 -178.5 72t-77.5 186l39 4q14 -88 70 -152.5t149 -64.5q91 0 147 64.5t70 152.5l39 -4q-11 -114 -78 -186t-180 -72z" />
    <glyph glyph-name="ibreve" unicode="&#x12d;" horiz-adv-x="434" 
d="M242 1014h-49v-1014h49v1014zM217 1196q-112 0 -178.5 72t-77.5 186l39 4q14 -88 70 -152.5t149 -64.5q91 0 147 64.5t70 152.5l39 -4q-11 -114 -78 -186t-180 -72z" />
    <glyph glyph-name="Iogonek" unicode="&#x12e;" horiz-adv-x="516" 
d="M285 12h-2q-154 -96 -154 -229q0 -90 62.5 -143.5t146.5 -53.5t146.5 57.5t76.5 141.5l45 -25q-21 -95 -93.5 -157t-174.5 -62t-179 65t-77 177q0 56 34 120.5t117 112.5v1418h52v-1422z" />
    <glyph glyph-name="iogonek" unicode="&#x12f;" horiz-adv-x="434" 
d="M242 1014h-49v-998q-58 -33 -94 -80t-47 -83t-11 -70q0 -112 77 -177t179 -65t174.5 62t93.5 157l-45 25q-14 -84 -76.5 -141.5t-146.5 -57.5t-146.5 53.5t-62.5 143.5q0 136 135 217l19 10v1004zM168 1384q0 58 47 58t47 -58q0 -57 -47 -57t-47 57z" />
    <glyph glyph-name="Idotaccent" unicode="&#x130;" horiz-adv-x="514" 
d="M283 0v1434h-52v-1434h52zM211 1704q0 57 47 57t47 -57t-47 -57t-47 57z" />
    <glyph glyph-name="dotlessi" unicode="&#x131;" horiz-adv-x="434" 
d="M193 1014h49v-1014h-49v1014z" />
    <glyph glyph-name="IJ" unicode="&#x132;" horiz-adv-x="1888" 
d="M283 1434v-1434h-52v1434h52zM645 483q0 -94 28 -175t83.5 -145t148 -101t211.5 -37q247 0 381.5 162t134.5 466v781h54v-781q0 -328 -149 -502t-421 -174q-107 0 -195 27t-148.5 73.5t-101.5 111t-60 138t-19 156.5q0 80 26 138h58q-31 -63 -31 -138z" />
    <glyph glyph-name="ij" unicode="&#x133;" horiz-adv-x="942" 
d="M193 1014h49v-1014h-49v1014zM168 1384q0 58 47 58t47 -58q0 -57 -47 -57t-47 57zM750 1014v-1166q0 -100 -23 -169t-64 -102t-83 -45.5t-95 -12.5q-113 0 -176 65.5t-63 167.5q0 11 2 17q0 15 8 34h47l-6 -32q-2 -6 -2 -19q0 -82 50.5 -135t139.5 -53q43 0 77.5 11
t67.5 39.5t51.5 88t18.5 145.5v1166h50zM678 1384q0 58 47 58t47 -58q0 -57 -47 -57t-47 57z" />
    <glyph glyph-name="Jcircumflex" unicode="&#x134;" horiz-adv-x="1374" 
d="M131 483q0 75 31 138h-58q-26 -58 -26 -138q0 -83 19 -156.5t60 -138t101.5 -111t148.5 -73.5t195 -27q272 0 420.5 174t148.5 502v781h-53v-781q0 -304 -134.5 -466t-381.5 -162q-119 0 -211.5 37t-148 101t-83.5 145t-28 175zM944 1567h-41l209 284h64l208 -284h-41
l-200 245z" />
    <glyph glyph-name="jcircumflex" unicode="&#x135;" horiz-adv-x="507" 
d="M315 1014v-1166q0 -81 -16 -141.5t-40.5 -96t-61 -56.5t-70.5 -28t-76 -7q-113 0 -176 65.5t-63 167.5q0 11 2 17q0 15 8 34h47q-4 -7 -8 -32v-19q0 -82 50.5 -135t139.5 -53q43 0 77.5 11t67.5 39.5t51.5 88t18.5 145.5v1166h49zM258 1481h64l225 -307h-39l-219 268
l-217 -268h-39z" />
    <glyph glyph-name="Kcommaaccent" unicode="&#x136;" horiz-adv-x="1214" 
d="M283 680l651 754h67l-675 -785l272 -299q124 -152 230 -235.5t206 -83.5q33 0 83.5 13.5t84.5 39.5l31 -43q-41 -30 -101.5 -47t-97.5 -17q-62 0 -123 24.5t-121.5 74.5t-113.5 105t-119 134l-274 308v-623h-52v1434h52v-754zM594 -469l-25 27q72 76 72 182q0 25 -6 37
q-8 -8 -33 -8q-23 0 -37 15t-14 38t15 37t40 14q38 0 57 -39.5t19 -93.5q0 -115 -88 -209z" />
    <glyph glyph-name="kcommaaccent" unicode="&#x137;" horiz-adv-x="1015" 
d="M991 70l23 -43q-65 -50 -150 -50q-32 0 -65.5 11.5t-58.5 25.5t-57.5 41t-48.5 42.5t-46.5 47t-36.5 37.5l-320 344v-526h-49v1481h49v-930l510 463h72l-522 -477l301 -326q40 -42 59.5 -61.5t61 -55t78.5 -51.5t73 -16q78 0 127 43zM492 -469l-25 27q72 76 72 182
q0 23 -7 37q-8 -8 -32 -8q-23 0 -37 15t-14 38t15 37t40 14q38 0 57 -39.5t19 -93.5q0 -115 -88 -209z" />
    <glyph glyph-name="kgreenlandic" unicode="&#x138;" horiz-adv-x="972" 
d="M274 483l326 -325l22 -22l24.5 -24.5t23 -22t26 -22t25.5 -17t28 -15t27.5 -8.5t30.5 -4q26 0 63 10.5t64 29.5l29 -38q-33 -24 -81 -36t-83 -12q-25 0 -51.5 9t-45.5 19.5t-46.5 33.5t-40 35t-40 40.5t-34.5 35.5l-308 307v-457h-51v1014h51v-500l535 500h68z" />
    <glyph glyph-name="Lacute" unicode="&#x139;" horiz-adv-x="1017" 
d="M991 0h-760v1434h52v-1387h708v-47zM397 1851h64l-201 -284h-39z" />
    <glyph glyph-name="lacute" unicode="&#x13a;" horiz-adv-x="434" 
d="M193 1481v-1481h49v1481h-49zM356 1851h64l-201 -284h-39z" />
    <glyph glyph-name="Lcommaaccent" unicode="&#x13b;" horiz-adv-x="1017" 
d="M991 0h-760v1434h52v-1387h708v-47zM610 -469l-24 27q71 75 71 182q0 25 -6 37q-8 -8 -33 -8q-23 0 -37 15t-14 38t15.5 37t40.5 14q38 0 56.5 -39.5t18.5 -93.5q0 -115 -88 -209z" />
    <glyph glyph-name="lcommaaccent" unicode="&#x13c;" horiz-adv-x="434" 
d="M193 0v1481h49v-1481h-49zM195 -469l-25 27q72 76 72 182q0 25 -6 37q-8 -8 -33 -8q-23 0 -37 15t-14 38t15 37t40 14q38 0 57 -39.5t19 -93.5q0 -115 -88 -209z" />
    <glyph glyph-name="Lcaron" unicode="&#x13d;" horiz-adv-x="1019" 
d="M991 0h-760v1434h52v-1387h708v-47zM690 1092l-24 26q71 75 71 182q0 25 -6 37q-8 -8 -33 -8q-23 0 -37 15t-14 38t15 37.5t40 14.5q38 0 57 -40t19 -94q0 -114 -88 -208z" />
    <glyph glyph-name="lcaron" unicode="&#x13e;" horiz-adv-x="434" 
d="M193 0v1481h49v-1481h-49zM416 1092l-25 26q72 76 72 182q0 25 -6 37q-8 -8 -33 -8q-23 0 -37 15t-14 38t15 37.5t40 14.5q38 0 57 -40t19 -94q0 -114 -88 -208z" />
    <glyph glyph-name="Ldot" unicode="&#x13f;" horiz-adv-x="1046" 
d="M991 0h-760v1434h52v-1387h708v-47zM711 686q0 23 14 38t37 15t38 -15t15 -38t-15 -38t-38 -15t-37 15t-14 38z" />
    <glyph glyph-name="ldot" unicode="&#x140;" horiz-adv-x="501" 
d="M193 0v1481h49v-1481h-49zM422 686q0 23 14 38t37 15t38 -15t15 -38t-15 -38t-38 -15t-37 15t-14 38z" />
    <glyph glyph-name="Lslash" unicode="&#x141;" horiz-adv-x="1030" 
d="M647 813l-352 -154v-612h709v-47h-760v637l-221 -96v49l221 96v748h51v-725l352 153v-49z" />
    <glyph glyph-name="lslash" unicode="&#x142;" horiz-adv-x="530" 
d="M225 641l-196 -88v49l196 88v791h49v-770l238 100v-49l-238 -100v-662h-49v641z" />
    <glyph glyph-name="Nacute" unicode="&#x143;" horiz-adv-x="1556" 
d="M283 1352l991 -1352h51v1434h-51v-1350l-991 1350h-52v-1434h52v1352zM932 1851h63l-200 -284h-39z" />
    <glyph glyph-name="nacute" unicode="&#x144;" 
d="M233 0v547q3 99 32.5 178.5t71.5 127.5t95.5 80.5t100 45t88.5 12.5q59 0 111 -10.5t104 -39t89 -72.5t60 -116t23 -165v-588h49v588q0 103 -26 183t-67.5 129t-100 80.5t-117.5 43.5t-125 12q-45 0 -96 -14t-107 -43.5t-106 -84.5t-79 -128v248h-49v-1014h49zM754 1481
h63l-217 -307h-39z" />
    <glyph glyph-name="Ncommaaccent" unicode="&#x145;" horiz-adv-x="1556" 
d="M1274 0l-991 1352v-1352h-52v1434h52l991 -1350v1350h51v-1434h-51zM756 -469l-25 27q72 76 72 182q0 25 -6 37q-8 -8 -33 -8q-23 0 -37 15t-14 38t15 37t40 14q38 0 57 -39.5t19 -93.5q0 -115 -88 -209z" />
    <glyph glyph-name="ncommaaccent" unicode="&#x146;" 
d="M233 547v-547h-49v1014h49v-248q29 73 79 128t106 84.5t107 43.5t96 14q66 0 125 -12t117.5 -43.5t100 -80.5t67.5 -129t26 -183v-588h-49v588q0 93 -23 165t-60 116t-89 72.5t-104 39t-111 10.5q-42 0 -88.5 -12.5t-100 -45t-95.5 -80.5t-71.5 -127.5t-32.5 -178.5z
M588 -469l-25 27q72 76 72 182q0 25 -6 37q-8 -8 -33 -8q-23 0 -37 15t-14 38t15 37t40 14q38 0 57 -39.5t19 -93.5q0 -115 -88 -209z" />
    <glyph glyph-name="Ncaron" unicode="&#x147;" horiz-adv-x="1556" 
d="M283 1352l991 -1352h51v1434h-51v-1350l-991 1350h-52v-1434h52v1352zM547 1851h41l198 -245l201 245h41l-209 -284h-63z" />
    <glyph glyph-name="ncaron" unicode="&#x148;" 
d="M233 0v547q3 99 32.5 178.5t71.5 127.5t95.5 80.5t100 45t88.5 12.5q59 0 111 -10.5t104 -39t89 -72.5t60 -116t23 -165v-588h49v588q0 103 -26 183t-67.5 129t-100 80.5t-117.5 43.5t-125 12q-45 0 -96 -14t-107 -43.5t-106 -84.5t-79 -128v248h-49v-1014h49zM641 1174
h-63l-226 307h39l217 -269l219 269h39z" />
    <glyph glyph-name="napostrophe" unicode="&#x149;" horiz-adv-x="1255" 
d="M301 0v547q3 99 32 178.5t71.5 127.5t95.5 80.5t99.5 45t88.5 12.5q59 0 111 -10.5t104 -39t89 -72.5t60 -116t23 -165v-588h49v588q0 103 -26 183t-67.5 129t-100 80.5t-117.5 43.5t-125 12q-45 0 -96 -14t-106.5 -43.5t-105.5 -84.5t-79 -128v248h-49v-1014h49z
M106 1092l-24 26q72 76 72 182q0 23 -7 37q-8 -8 -32 -8q-23 0 -37.5 15t-14.5 38t15.5 37.5t40.5 14.5q38 0 57 -40t19 -94q0 -20 -3.5 -44.5t-25.5 -73.5t-60 -90z" />
    <glyph glyph-name="Eng" unicode="&#x14a;" horiz-adv-x="1554" 
d="M1192 213l-911 1124v-1337h-52v1434h31l1012 -1239v65v1174h51v-1174q14 -707 -520 -743l-4 47q408 28 465 506q0 63 -72 143z" />
    <glyph glyph-name="eng" unicode="&#x14b;" horiz-adv-x="1220" 
d="M672 -481l-4 47q336 21 336 500v522q0 93 -22.5 165t-59.5 116t-88.5 72.5t-103.5 39t-112 10.5q-42 0 -88.5 -12.5t-99.5 -45t-95.5 -80.5t-71.5 -127.5t-32 -178.5v-547h-49v1014h49v-248q29 73 79 128t105.5 84.5t106.5 43.5t96 14q66 0 125 -12t117.5 -43.5
t100.5 -80.5t68 -129t26 -183v-522q0 -523 -383 -547z" />
    <glyph glyph-name="Omacron" unicode="&#x14c;" horiz-adv-x="1708" 
d="M111 717q0 150 59 287t158.5 236t237 157.5t288.5 58.5t288.5 -58.5t237 -157.5t158.5 -236t59 -287t-59 -287t-158.5 -236.5t-237 -158t-288.5 -58.5t-288.5 58.5t-237 158t-158.5 236.5t-59 287zM164 717q0 -188 93 -347.5t251.5 -252t345.5 -92.5q188 0 347 92.5
t251 251.5t92 348t-92 348t-251 251.5t-347 92.5q-187 0 -345.5 -92.5t-251.5 -252t-93 -347.5zM621 1710h466v-45h-466v45z" />
    <glyph glyph-name="omacron" unicode="&#x14d;" horiz-adv-x="1257" 
d="M96 504q0 107 42.5 205.5t114 170t170 114t204.5 42.5q145 0 268 -72.5t194.5 -195.5t71.5 -264q0 -143 -71.5 -264.5t-194.5 -192t-268 -70.5q-143 0 -265 70t-194 191.5t-72 265.5zM147 504q0 -200 141.5 -340.5t338.5 -140.5q130 0 241 64t176.5 175t65.5 242
q0 97 -38.5 187t-103.5 155.5t-154.5 105t-186.5 39.5q-129 0 -239.5 -66t-175.5 -178t-65 -243zM395 1368h467v-45h-467v45z" />
    <glyph glyph-name="Obreve" unicode="&#x14e;" horiz-adv-x="1708" 
d="M111 717q0 150 59 287t158.5 236t237 157.5t288.5 58.5t288.5 -58.5t237 -157.5t158.5 -236t59 -287t-59 -287t-158.5 -236.5t-237 -158t-288.5 -58.5t-288.5 58.5t-237 158t-158.5 236.5t-59 287zM164 717q0 -188 93 -347.5t251.5 -252t345.5 -92.5q188 0 347 92.5
t251 251.5t92 348t-92 348t-251 251.5t-347 92.5q-187 0 -345.5 -92.5t-251.5 -252t-93 -347.5zM852 1573q-112 0 -178.5 72t-77.5 186l39 4q14 -88 70 -152.5t149 -64.5q91 0 147 64.5t70 152.5l39 -4q-11 -114 -78 -186t-180 -72z" />
    <glyph glyph-name="obreve" unicode="&#x14f;" horiz-adv-x="1257" 
d="M96 504q0 107 42.5 205.5t114 170t170 114t204.5 42.5q145 0 268 -72.5t194.5 -195.5t71.5 -264q0 -143 -71.5 -264.5t-194.5 -192t-268 -70.5q-143 0 -265 70t-194 191.5t-72 265.5zM147 504q0 -200 141.5 -340.5t338.5 -140.5q130 0 241 64t176.5 175t65.5 242
q0 97 -38.5 187t-103.5 155.5t-154.5 105t-186.5 39.5q-129 0 -239.5 -66t-175.5 -178t-65 -243zM627 1196q-112 0 -178.5 72t-77.5 186l39 4q14 -88 70 -152.5t149 -64.5q91 0 147 64.5t70 152.5l39 -4q-11 -114 -78 -186t-180 -72z" />
    <glyph glyph-name="Ohungarumlaut" unicode="&#x150;" horiz-adv-x="1708" 
d="M111 717q0 150 59 287t158.5 236t237 157.5t288.5 58.5t288.5 -58.5t237 -157.5t158.5 -236t59 -287t-59 -287t-158.5 -236.5t-237 -158t-288.5 -58.5t-288.5 58.5t-237 158t-158.5 236.5t-59 287zM164 717q0 -188 93 -347.5t251.5 -252t345.5 -92.5q188 0 347 92.5
t251 251.5t92 348t-92 348t-251 251.5t-347 92.5q-187 0 -345.5 -92.5t-251.5 -252t-93 -347.5zM1012 1567h-41l178 284h63zM737 1567h-41l178 284h64z" />
    <glyph glyph-name="ohungarumlaut" unicode="&#x151;" horiz-adv-x="1257" 
d="M96 504q0 107 42.5 205.5t114 170t170 114t204.5 42.5q145 0 268 -72.5t194.5 -195.5t71.5 -264q0 -143 -71.5 -264.5t-194.5 -192t-268 -70.5q-143 0 -265 70t-194 191.5t-72 265.5zM147 504q0 -200 141.5 -340.5t338.5 -140.5q130 0 241 64t176.5 175t65.5 242
q0 97 -38.5 187t-103.5 155.5t-154.5 105t-186.5 39.5q-129 0 -239.5 -66t-175.5 -178t-65 -243zM629 1481h63l-217 -307h-39zM903 1481h64l-217 -307h-39z" />
    <glyph glyph-name="OE" unicode="&#x152;" horiz-adv-x="2062" 
d="M1942 0h-1086q-203 0 -373 93t-270 258t-100 366t100 366t270 258t373 93h1086v-48h-797v-661h696v-47h-696v-631h797v-47zM166 717q0 -140 55 -265t147.5 -213.5t220 -140t267.5 -51.5h238v1339h-238q-187 0 -345.5 -87t-251.5 -241t-93 -341z" />
    <glyph glyph-name="oe" unicode="&#x153;" horiz-adv-x="2058" 
d="M1884 168l33 -35q-159 -156 -408 -156q-154 0 -268 59t-184 165q-73 -105 -185 -164.5t-245 -59.5q-143 0 -265 70t-194 191.5t-72 265.5q0 107 42.5 205.5t114 170t170 114t204.5 42.5q132 0 243 -61t185 -168q70 108 180 168.5t252 60.5q97 0 182 -29t152.5 -85.5
t109 -150t47.5 -214.5h-956q-2 -18 -2 -55q0 -99 33.5 -185.5t94.5 -152t154.5 -103.5t206.5 -38q230 0 375 145zM147 504q0 -200 141.5 -340.5t338.5 -140.5q127 0 232 60t169 165q-59 115 -59 254q0 143 59 258q-63 106 -168.5 168.5t-232.5 62.5q-129 0 -239.5 -66
t-175.5 -178t-65 -243zM1487 991q-181 0 -303.5 -110t-155.5 -283h897q-10 98 -49.5 174.5t-99.5 123.5t-133.5 71t-155.5 24z" />
    <glyph glyph-name="Racute" unicode="&#x154;" horiz-adv-x="1368" 
d="M1364 27l-27 41q-57 -41 -141 -41q-80 0 -146.5 42.5t-108 106t-71 144.5t-43 150.5t-16.5 131.5q116 3 204 60t133.5 149t45.5 203q0 113 -45.5 207.5t-137.5 153.5t-214 59h-566v-1434h52v602h479q3 -55 14 -116.5t32 -134t55.5 -137.5t80 -119t111 -86t141.5 -32
q95 0 168 50zM797 649h-514v737h514q105 0 184.5 -52.5t119.5 -136t40 -183.5t-40.5 -182.5t-120 -132.5t-183.5 -50zM756 1851h63l-201 -284h-38z" />
    <glyph glyph-name="racute" unicode="&#x155;" horiz-adv-x="661" 
d="M233 729v285h-49v-1014h49v393q13 594 363 594q31 0 63 -4v49q-32 4 -63 4q-276 0 -363 -307zM367 1481h63l-217 -307h-39z" />
    <glyph glyph-name="Rcommaaccent" unicode="&#x156;" horiz-adv-x="1368" 
d="M1337 68l27 -41q-73 -50 -168 -50q-76 0 -141.5 32t-111 86t-80 119t-55.5 137.5t-32 134t-14 116.5h-479v-602h-52v1434h566q122 0 214 -59t137.5 -153.5t45.5 -207.5q0 -111 -45.5 -203t-133.5 -149t-204 -60q3 -62 16.5 -131.5t43 -150.5t71 -144.5t108 -106
t146.5 -42.5q84 0 141 41zM283 649h514q104 0 183.5 50t120 132.5t40.5 182.5t-40 183.5t-119.5 136t-184.5 52.5h-514v-737zM629 -469l-25 27q72 76 72 182q0 25 -6 37q-8 -8 -33 -8q-23 0 -37 15t-14 38t15 37t40 14q38 0 57 -39.5t19 -93.5q0 -115 -88 -209z" />
    <glyph glyph-name="rcommaaccent" unicode="&#x157;" horiz-adv-x="661" 
d="M233 1014v-285q87 307 363 307q31 0 63 -4v-49q-32 4 -63 4q-350 0 -363 -594v-393h-49v1014h49zM195 -469l-25 27q72 76 72 182q0 25 -6 37q-8 -8 -33 -8q-23 0 -37 15t-14 38t15 37t40 14q38 0 57 -39.5t19 -93.5q0 -115 -88 -209z" />
    <glyph glyph-name="Rcaron" unicode="&#x158;" horiz-adv-x="1368" 
d="M1364 27l-27 41q-57 -41 -141 -41q-80 0 -146.5 42.5t-108 106t-71 144.5t-43 150.5t-16.5 131.5q116 3 204 60t133.5 149t45.5 203q0 113 -45.5 207.5t-137.5 153.5t-214 59h-566v-1434h52v602h479q3 -55 14 -116.5t32 -134t55.5 -137.5t80 -119t111 -86t141.5 -32
q95 0 168 50zM797 649h-514v737h514q105 0 184.5 -52.5t119.5 -136t40 -183.5t-40.5 -182.5t-120 -132.5t-183.5 -50zM410 1851h41l198 -245l201 245h41l-209 -284h-64z" />
    <glyph glyph-name="rcaron" unicode="&#x159;" horiz-adv-x="661" 
d="M233 729v285h-49v-1014h49v393q13 594 363 594q31 0 63 -4v49q-32 4 -63 4q-276 0 -363 -307zM383 1174h-64l-225 307h39l217 -269l219 269h39z" />
    <glyph glyph-name="Sacute" unicode="&#x15a;" horiz-adv-x="1161" 
d="M586 1409q145 0 247.5 -69t129.5 -177l49 17q-36 124 -150.5 200t-273.5 76q-118 0 -216.5 -42.5t-160 -126.5t-61.5 -195q0 -38 6.5 -71t26.5 -71t52 -70t87 -63t129 -55l264 -84q116 -33 202.5 -118.5t86.5 -203.5q0 -136 -113.5 -233.5t-302.5 -97.5q-167 0 -281.5 73
t-161.5 174l-53 -18q56 -114 185.5 -195.5t310.5 -81.5q107 0 197 31.5t148.5 84t91 121t32.5 142.5q0 71 -29 134t-77.5 107.5t-103.5 76t-116 51.5l-264 84q-264 86 -264 285q0 144 111 229.5t272 85.5zM713 1851h63l-201 -284h-38z" />
    <glyph glyph-name="sacute" unicode="&#x15b;" horiz-adv-x="825" 
d="M643 848l43 16q-34 83 -106 127.5t-156 44.5q-71 0 -129.5 -24.5t-95 -64t-56.5 -87t-20 -96.5q0 -52 19 -95t52 -72.5t70.5 -49.5t81.5 -33l160 -47h-2q186 -58 186 -215q0 -101 -80 -165t-190 -64q-102 0 -177.5 42.5t-111.5 116.5l-45 -18q42 -88 128.5 -137.5
t205.5 -49.5q133 0 226 76t93 199q0 189 -221 258l-158 47q-80 24 -134 74.5t-54 132.5q0 87 68.5 157t183.5 70q67 0 128.5 -39t90.5 -104zM532 1481h64l-217 -307h-39z" />
    <glyph glyph-name="Scircumflex" unicode="&#x15c;" horiz-adv-x="1161" 
d="M586 1409q145 0 247.5 -69t129.5 -177l49 17q-36 124 -150.5 200t-273.5 76q-118 0 -216.5 -42.5t-160 -126.5t-61.5 -195q0 -38 6.5 -71t26.5 -71t52 -70t87 -63t129 -55l264 -84q116 -33 202.5 -118.5t86.5 -203.5q0 -136 -113.5 -233.5t-302.5 -97.5q-167 0 -281.5 73
t-161.5 174l-53 -18q56 -114 185.5 -195.5t310.5 -81.5q107 0 197 31.5t148.5 84t91 121t32.5 142.5q0 71 -29 134t-77.5 107.5t-103.5 76t-116 51.5l-264 84q-264 86 -264 285q0 144 111 229.5t272 85.5zM375 1567h-41l209 284h63l209 -284h-41l-201 245z" />
    <glyph glyph-name="scircumflex" unicode="&#x15d;" horiz-adv-x="825" 
d="M643 848l43 16q-34 83 -106 127.5t-156 44.5q-71 0 -129.5 -24.5t-95 -64t-56.5 -87t-20 -96.5q0 -52 19 -95t52 -72.5t70.5 -49.5t81.5 -33l160 -47h-2q186 -58 186 -215q0 -101 -80 -165t-190 -64q-102 0 -177.5 42.5t-111.5 116.5l-45 -18q42 -88 128.5 -137.5
t205.5 -49.5q133 0 226 76t93 199q0 189 -221 258l-158 47q-80 24 -134 74.5t-54 132.5q0 87 68.5 157t183.5 70q67 0 128.5 -39t90.5 -104zM373 1481h63l226 -307h-39l-220 268l-217 -268h-39z" />
    <glyph glyph-name="Scedilla" unicode="&#x15e;" horiz-adv-x="1161" 
d="M586 1409q-161 0 -272 -85.5t-111 -229.5q0 -199 264 -285l264 -84q61 -20 116 -51.5t103.5 -76t77.5 -107.5t29 -134q0 -131 -93 -233t-255 -133q59 -46 83.5 -102t24.5 -105q0 -112 -77 -177t-179 -65t-174.5 62t-93.5 157l45 25q14 -84 76.5 -141.5t146.5 -57.5
t146.5 53.5t62.5 143.5q0 122 -108 199q-58 -5 -74 -5q-181 0 -310.5 81.5t-185.5 195.5l53 18q47 -101 161.5 -174t281.5 -73q189 0 302.5 97.5t113.5 233.5q0 118 -86.5 203.5t-202.5 118.5l-264 84q-74 24 -129 55t-87 63t-52 70t-26.5 71t-6.5 71q0 111 61.5 195
t160 126.5t216.5 42.5q159 0 273.5 -76t150.5 -200l-49 -17q-27 108 -129.5 177t-247.5 69z" />
    <glyph glyph-name="scedilla" unicode="&#x15f;" horiz-adv-x="827" 
d="M686 864l-43 -16q-29 65 -90.5 104t-128.5 39q-115 0 -183.5 -70t-68.5 -157q0 -82 54 -132.5t134 -74.5l158 -47q221 -69 221 -258q0 -102 -67.5 -173.5t-171.5 -92.5q57 -46 80.5 -101t23.5 -102q0 -112 -77 -177t-179 -65t-174.5 62t-93.5 157l45 25
q14 -84 76.5 -141.5t146.5 -57.5t146.5 53.5t62.5 143.5q0 119 -104 197q-7 0 -18 -1.5t-15 -1.5q-119 0 -205.5 49.5t-128.5 137.5l45 18q36 -74 111.5 -116.5t177.5 -42.5q110 0 190 64t80 165q0 157 -186 215h2l-160 47q-44 13 -81.5 33t-70.5 49.5t-52 72.5t-19 95
q0 49 20 96.5t56.5 87t95 64t129.5 24.5q84 0 156 -44.5t106 -127.5z" />
    <glyph glyph-name="Scaron" unicode="&#x160;" horiz-adv-x="1161" 
d="M586 1409q145 0 247.5 -69t129.5 -177l49 17q-36 124 -150.5 200t-273.5 76q-118 0 -216.5 -42.5t-160 -126.5t-61.5 -195q0 -38 6.5 -71t26.5 -71t52 -70t87 -63t129 -55l264 -84q116 -33 202.5 -118.5t86.5 -203.5q0 -136 -113.5 -233.5t-302.5 -97.5q-167 0 -281.5 73
t-161.5 174l-53 -18q56 -114 185.5 -195.5t310.5 -81.5q107 0 197 31.5t148.5 84t91 121t32.5 142.5q0 71 -29 134t-77.5 107.5t-103.5 76t-116 51.5l-264 84q-264 86 -264 285q0 144 111 229.5t272 85.5zM340 1851h41l199 -245l200 245h41l-209 -284h-63z" />
    <glyph glyph-name="scaron" unicode="&#x161;" horiz-adv-x="825" 
d="M643 848l43 16q-34 83 -106 127.5t-156 44.5q-71 0 -129.5 -24.5t-95 -64t-56.5 -87t-20 -96.5q0 -52 19 -95t52 -72.5t70.5 -49.5t81.5 -33l160 -47h-2q186 -58 186 -215q0 -101 -80 -165t-190 -64q-102 0 -177.5 42.5t-111.5 116.5l-45 -18q42 -88 128.5 -137.5
t205.5 -49.5q133 0 226 76t93 199q0 189 -221 258l-158 47q-80 24 -134 74.5t-54 132.5q0 87 68.5 157t183.5 70q67 0 128.5 -39t90.5 -104zM436 1174h-63l-226 307h39l217 -269l220 269h39z" />
    <glyph glyph-name="Tcommaaccent" unicode="&#x162;" horiz-adv-x="1216" 
d="M29 1434h1159v-48h-555v-1386h-51v1386h-553v48zM586 -469l-25 27q72 76 72 182q0 25 -6 37q-8 -8 -33 -8q-23 0 -37 15t-14 38t15 37t40 14q38 0 57 -39.5t19 -93.5q0 -115 -88 -209z" />
    <glyph glyph-name="tcommaaccent" unicode="&#x163;" horiz-adv-x="749" 
d="M670 262h47q4 -9 8 -35q2 -6 2 -16q0 -101 -67 -167.5t-181 -66.5q-41 0 -75.5 7t-71 28.5t-61 56.5t-40.5 96t-16 142v662h-186v45h186l14 342h35v-342h342v-45h-342v-662q0 -86 18.5 -145.5t51.5 -88t67.5 -39.5t77.5 -11q90 0 144.5 53.5t54.5 134.5v20q-6 28 -8 31z
M457 -469l-25 27q72 76 72 182q0 25 -6 37q-8 -8 -33 -8q-23 0 -37 15t-14 38t15 37t40 14q38 0 57 -39.5t19 -93.5q0 -115 -88 -209z" />
    <glyph glyph-name="Tcaron" unicode="&#x164;" horiz-adv-x="1216" 
d="M29 1434h1159v-48h-555v-1386h-51v1386h-553v48zM367 1851h41l198 -245l201 245h41l-209 -284h-64z" />
    <glyph glyph-name="tcaron" unicode="&#x165;" horiz-adv-x="749" 
d="M670 262h47q4 -9 8 -35q2 -6 2 -16q0 -101 -67 -167.5t-181 -66.5q-41 0 -75.5 7t-71 28.5t-61 56.5t-40.5 96t-16 142v662h-186v45h186l14 342h35v-342h342v-45h-342v-662q0 -86 18.5 -145.5t51.5 -88t67.5 -39.5t77.5 -11q90 0 144.5 53.5t54.5 134.5v20q-6 28 -8 31z
M618 1225l-24 26q72 76 72 183q0 22 -7 36q-8 -8 -32 -8q-23 0 -37.5 15.5t-14.5 38.5t15.5 37t40.5 14q38 0 57 -39.5t19 -93.5q0 -20 -3.5 -45t-25.5 -74t-60 -90z" />
    <glyph glyph-name="Tbar" unicode="&#x166;" horiz-adv-x="1249" 
d="M598 0v782h-319v45h319v559h-553v48h1159v-48h-555v-559h322v-45h-322v-782h-51z" />
    <glyph glyph-name="tbar" unicode="&#x167;" horiz-adv-x="751" 
d="M518 559h-252v-252q0 -86 18.5 -145.5t51.5 -88t67.5 -39.5t77.5 -11q90 0 144.5 53.5t54.5 134.5v20q-6 28 -8 31h47q4 -9 8 -35q2 -6 2 -16q0 -101 -67 -167.5t-181 -66.5q-41 0 -75.5 7t-71 28.5t-61 56.5t-40.5 96t-16 142v252h-149v41h149v369h-186v45h186l14 342
h35v-342h342v-45h-342v-369h252v-41z" />
    <glyph glyph-name="Utilde" unicode="&#x168;" horiz-adv-x="1501" 
d="M1241 1434h51v-924q0 -128 -43.5 -231t-118.5 -168t-171.5 -99.5t-206.5 -34.5q-112 0 -209.5 34.5t-172.5 99.5t-118 168t-43 231v924h51v-924q0 -156 68 -267.5t177.5 -164.5t246.5 -53q100 0 188 31t155.5 90t106.5 153t39 211v924zM887 1624q-50 0 -136.5 46
t-136.5 46q-34 0 -50.5 -18t-45.5 -78l-31 4q25 82 53 110.5t74 28.5q50 0 140 -46t133 -46q35 0 51.5 17t44.5 75l31 -4q-25 -81 -53 -108t-74 -27z" />
    <glyph glyph-name="utilde" unicode="&#x169;" 
d="M989 1014v-547q-2 -99 -31 -178.5t-71.5 -127.5t-96 -80.5t-100.5 -45t-88 -12.5q-59 0 -111 10.5t-104 39t-89 72.5t-60 116t-23 165v588h-49v-588q0 -102 26 -182t67.5 -129.5t100 -81t117.5 -44t125 -12.5q35 0 75 8t85.5 28.5t86.5 50.5t78.5 77.5t61.5 106.5v-248
h49v1014h-49zM748 1278q-50 0 -136.5 46t-136.5 46q-34 0 -50.5 -18t-45.5 -78l-31 4q25 82 53 110.5t74 28.5q50 0 140 -46t133 -46q35 0 51.5 17t44.5 75l30 -4q-25 -82 -52.5 -108.5t-73.5 -26.5z" />
    <glyph glyph-name="Umacron" unicode="&#x16a;" horiz-adv-x="1501" 
d="M1241 1434h51v-924q0 -128 -43.5 -231t-118.5 -168t-171.5 -99.5t-206.5 -34.5q-112 0 -209.5 34.5t-172.5 99.5t-118 168t-43 231v924h51v-924q0 -156 68 -267.5t177.5 -164.5t246.5 -53q100 0 188 31t155.5 90t106.5 153t39 211v924zM516 1710h467v-45h-467v45z" />
    <glyph glyph-name="umacron" unicode="&#x16b;" 
d="M989 467v547h49v-1014h-49v248q-24 -59 -61.5 -106.5t-78.5 -77.5t-86.5 -50.5t-85.5 -28.5t-75 -8q-66 0 -125 12.5t-117.5 44t-100 81t-67.5 129.5t-26 182v588h49v-588q0 -93 23 -165t60 -116t89 -72.5t104 -39t111 -10.5q41 0 88 12.5t100.5 45t96 80.5t71.5 127.5
t31 178.5zM379 1368h467v-45h-467v45z" />
    <glyph glyph-name="Ubreve" unicode="&#x16c;" horiz-adv-x="1501" 
d="M1241 1434h51v-924q0 -128 -43.5 -231t-118.5 -168t-171.5 -99.5t-206.5 -34.5q-112 0 -209.5 34.5t-172.5 99.5t-118 168t-43 231v924h51v-924q0 -156 68 -267.5t177.5 -164.5t246.5 -53q100 0 188 31t155.5 90t106.5 153t39 211v924zM750 1573q-112 0 -178.5 72
t-77.5 186l38 4q14 -88 70.5 -152.5t149.5 -64.5q91 0 147 64.5t70 152.5l39 -4q-11 -114 -78 -186t-180 -72z" />
    <glyph glyph-name="ubreve" unicode="&#x16d;" 
d="M989 1014v-547q-2 -99 -31 -178.5t-71.5 -127.5t-96 -80.5t-100.5 -45t-88 -12.5q-59 0 -111 10.5t-104 39t-89 72.5t-60 116t-23 165v588h-49v-588q0 -102 26 -182t67.5 -129.5t100 -81t117.5 -44t125 -12.5q35 0 75 8t85.5 28.5t86.5 50.5t78.5 77.5t61.5 106.5v-248
h49v1014h-49zM610 1196q-112 0 -178.5 72t-77.5 186l39 4q14 -88 70 -152.5t149 -64.5q91 0 147 64.5t70 152.5l39 -4q-11 -114 -78 -186t-180 -72z" />
    <glyph glyph-name="Uring" unicode="&#x16e;" horiz-adv-x="1501" 
d="M1241 1434h51v-924q0 -128 -43.5 -231t-118.5 -168t-171.5 -99.5t-206.5 -34.5q-112 0 -209.5 34.5t-172.5 99.5t-118 168t-43 231v924h51v-924q0 -156 68 -267.5t177.5 -164.5t246.5 -53q100 0 188 31t155.5 90t106.5 153t39 211v924zM578 1722q0 70 51 113t125 43
t125 -43t51 -113t-51 -112.5t-125 -42.5t-125 42.5t-51 112.5zM618 1722q0 -55 38.5 -87.5t97.5 -32.5t97 32t38 88t-38 88.5t-97 32.5t-97.5 -32.5t-38.5 -88.5z" />
    <glyph glyph-name="uring" unicode="&#x16f;" 
d="M989 1014v-547q-2 -99 -31 -178.5t-71.5 -127.5t-96 -80.5t-100.5 -45t-88 -12.5q-59 0 -111 10.5t-104 39t-89 72.5t-60 116t-23 165v588h-49v-588q0 -102 26 -182t67.5 -129.5t100 -81t117.5 -44t125 -12.5q35 0 75 8t85.5 28.5t86.5 50.5t78.5 77.5t61.5 106.5v-248
h49v1014h-49zM436 1350q0 72 52 124t124 52t124 -52t52 -124t-52 -124t-124 -52t-124 52t-52 124zM477 1350q0 -57 39 -96.5t96 -39.5t96.5 39.5t39.5 96.5t-39.5 96t-96.5 39t-96 -39t-39 -96z" />
    <glyph glyph-name="Uhungarumlaut" unicode="&#x170;" horiz-adv-x="1501" 
d="M1241 1434h51v-924q0 -128 -43.5 -231t-118.5 -168t-171.5 -99.5t-206.5 -34.5q-112 0 -209.5 34.5t-172.5 99.5t-118 168t-43 231v924h51v-924q0 -156 68 -267.5t177.5 -164.5t246.5 -53q100 0 188 31t155.5 90t106.5 153t39 211v924zM870 1567h-41l179 284h63z
M596 1567h-41l178 284h64z" />
    <glyph glyph-name="uhungarumlaut" unicode="&#x171;" 
d="M989 1014v-547q-2 -99 -31 -178.5t-71.5 -127.5t-96 -80.5t-100.5 -45t-88 -12.5q-59 0 -111 10.5t-104 39t-89 72.5t-60 116t-23 165v588h-49v-588q0 -102 26 -182t67.5 -129.5t100 -81t117.5 -44t125 -12.5q35 0 75 8t85.5 28.5t86.5 50.5t78.5 77.5t61.5 106.5v-248
h49v1014h-49zM600 1481h64l-218 -307h-38zM874 1481h64l-217 -307h-39z" />
    <glyph glyph-name="Uogonek" unicode="&#x172;" horiz-adv-x="1501" 
d="M791 -20q-103 -77 -103 -197q0 -90 62.5 -143.5t146.5 -53.5t146.5 57.5t76.5 141.5l45 -25q-21 -95 -93.5 -157t-174.5 -62t-179 65t-77 177t94 194q-109 2 -203.5 37.5t-167 100.5t-114 166.5t-41.5 228.5v924h51v-924q0 -156 68 -267.5t177.5 -164.5t246.5 -53
q100 0 188 31t155.5 90t106.5 153t39 211v924h51v-924q0 -123 -39.5 -222.5t-109 -164t-159 -101t-193.5 -42.5z" />
    <glyph glyph-name="uogonek" unicode="&#x173;" 
d="M1038 1014v-1002q-153 -95 -153 -229q0 -90 62.5 -143.5t146.5 -53.5t146.5 57.5t76.5 141.5l45 -25q-21 -95 -93.5 -157t-174.5 -62t-179 65t-77 177q0 56 34 120.5t117 112.5v232q-24 -59 -61.5 -106.5t-78.5 -77.5t-86.5 -50.5t-85.5 -28.5t-75 -8q-66 0 -125 12.5
t-117.5 44t-100 81t-67.5 129.5t-26 182v588h49v-588q0 -93 23 -165t60 -116t89 -72.5t104 -39t111 -10.5q41 0 88 12.5t100.5 45t96 80.5t71.5 127.5t31 178.5v547h49z" />
    <glyph glyph-name="Wcircumflex" unicode="&#x174;" horiz-adv-x="2039" 
d="M129 1434h-53l467 -1434h65l412 1303l412 -1303h63l469 1434h-53l-447 -1368l-417 1320h-56l-418 -1320zM819 1567h-41l209 284h64l209 -284h-41l-201 245z" />
    <glyph glyph-name="wcircumflex" unicode="&#x175;" horiz-adv-x="1701" 
d="M115 1014h-54l414 -1014h53l322 899l324 -899h53l413 1014h-53l-387 -948l-323 905h-52l-325 -905zM819 1481h64l225 -307h-39l-219 268l-217 -268h-39z" />
    <glyph glyph-name="Ycircumflex" unicode="&#x176;" horiz-adv-x="1243" 
d="M647 0v600l535 834h-64l-495 -781l-496 781h-64l533 -834v-600h51zM422 1567h-41l209 284h63l209 -284h-41l-200 245z" />
    <glyph glyph-name="ycircumflex" unicode="&#x177;" horiz-adv-x="1056" 
d="M55 1014l451 -1047l-176 -426h49l620 1473h-55l-412 -989l-421 989h-56zM481 1481h64l225 -307h-39l-219 268l-217 -268h-39z" />
    <glyph glyph-name="Ydieresis" unicode="&#x178;" horiz-adv-x="1243" 
d="M647 0v600l535 834h-64l-495 -781l-496 781h-64l533 -834v-600h51zM358 1688q0 23 14.5 38t37.5 15t38 -15t15 -38t-15 -38.5t-38 -15.5t-37.5 15.5t-14.5 38.5zM782 1688q0 23 14.5 38t37.5 15t38 -15t15 -38t-15 -38.5t-38 -15.5t-37.5 15.5t-14.5 38.5z" />
    <glyph glyph-name="Zacute" unicode="&#x179;" horiz-adv-x="1243" 
d="M1141 1386v48h-1037v-48h971l-1024 -1339v-47h1139v47h-1073zM725 1851h63l-200 -284h-39z" />
    <glyph glyph-name="zacute" unicode="&#x17a;" horiz-adv-x="1095" 
d="M1036 47v-47h-983v51l871 916h-813v47h876v-49l-874 -918h923zM674 1481h63l-217 -307h-39z" />
    <glyph glyph-name="Zdotaccent" unicode="&#x17b;" horiz-adv-x="1243" 
d="M1141 1386v48h-1037v-48h971l-1024 -1339v-47h1139v47h-1073zM573 1704q0 57 48 57q47 0 47 -57t-47 -57q-48 0 -48 57z" />
    <glyph glyph-name="zdotaccent" unicode="&#x17c;" horiz-adv-x="1095" 
d="M1036 47v-47h-983v51l871 916h-813v47h876v-49l-874 -918h923zM498 1307q0 57 47 57t47 -57q0 -58 -47 -58t-47 58z" />
    <glyph glyph-name="Zcaron" unicode="&#x17d;" horiz-adv-x="1243" 
d="M1141 1386v48h-1037v-48h971l-1024 -1339v-47h1139v47h-1073zM360 1851h41l199 -245l201 245h41l-209 -284h-64z" />
    <glyph glyph-name="zcaron" unicode="&#x17e;" horiz-adv-x="1095" 
d="M1036 47v-47h-983v51l871 916h-813v47h876v-49l-874 -918h923zM575 1174h-63l-225 307h39l217 -269l219 269h39z" />
    <glyph glyph-name="longs" unicode="&#x17f;" horiz-adv-x="505" 
d="M741 1270q0 82 -57 135t-160 53q-47 0 -88 -17t-77 -54.5t-57 -107.5t-21 -165v-1114h-50v969h-186v45h186v100q0 87 17 155.5t45 111.5t67 71.5t79 39.5t85 11q126 0 196.5 -65.5t70.5 -167.5q0 -8 -3 -17q0 -15 -8 -34h-49q4 7 8 32q2 6 2 19z" />
    <glyph glyph-name="florin" unicode="&#x192;" horiz-adv-x="802" 
d="M352 733v-821q0 -96 -21.5 -168.5t-54 -114.5t-79 -67.5t-88.5 -34t-91 -8.5q-61 0 -108 20l24 41q35 -14 84 -14q41 0 77 7.5t75.5 30.5t67 59.5t45.5 100.5t18 148v821h-186v45h186v285q0 96 21.5 168.5t54 114.5t79 67.5t88.5 34t91 8.5q61 0 108 -20l-24 -41
q-35 14 -84 14q-41 0 -77 -7.5t-75.5 -30.5t-67 -59.5t-45.5 -100.5t-18 -148v-285h326v-45h-326z" />
    <glyph glyph-name="Aringacute" unicode="&#x1fa;" horiz-adv-x="1335" 
d="M37 0h57l137 334h871l137 -334h59l-593 1434h-74zM250 381l418 1005l413 -1005h-831zM737 2005h64l-107 -141q68 -11 109 -48t41 -100q0 -69 -50.5 -109t-125.5 -40t-125.5 40t-50.5 109q0 65 45.5 105t115.5 45zM532 1716q0 -55 38 -83.5t98 -28.5t97.5 28.5t37.5 83.5
t-37.5 84t-97.5 29t-98 -29t-38 -84z" />
    <glyph glyph-name="aringacute" unicode="&#x1fb;" horiz-adv-x="1329" 
d="M100 508q0 -227 144 -379t377 -152q170 0 294.5 84.5t180.5 233.5v-295h49v1014h-49v-297q-56 146 -180.5 232.5t-299.5 86.5q-160 0 -279 -72.5t-178 -191t-59 -264.5zM152 508q0 100 31 187t89 153t147 104.5t197 38.5q142 0 253 -64.5t170 -174t59 -244.5
q0 -215 -135.5 -350t-341.5 -135q-141 0 -249 65t-164 175t-56 245zM727 1632h64l-107 -141q66 -11 108 -52.5t42 -105.5q0 -70 -51.5 -114.5t-125.5 -44.5t-125 44.5t-51 114.5q0 66 46.5 110.5t115.5 49.5zM522 1333q0 -55 38 -87t97 -32t97.5 32t38.5 87t-38.5 87
t-97.5 32t-97 -32t-38 -87z" />
    <glyph glyph-name="AEacute" unicode="&#x1fc;" horiz-adv-x="1857" 
d="M901 1386l-407 -667h444v667h-37zM-8 0l882 1434h867v-48h-752v-667h651v-47h-651v-625h752v-47h-803v672h-473l-416 -672h-57zM1147 1851h63l-200 -284h-39z" />
    <glyph glyph-name="aeacute" unicode="&#x1fd;" horiz-adv-x="1990" 
d="M1155 1481h64l-218 -307h-38zM942 719q-50 317 -397 317q-114 0 -214.5 -30.5t-170.5 -81.5l22 -43q147 108 363 108q356 0 356 -379v-92q-80 25 -201.5 43.5t-222.5 18.5q-193 0 -295 -86.5t-102 -212.5q0 -96 60 -167t147.5 -104t185.5 -33q304 0 498 254
q68 -119 188 -186.5t283 -67.5q248 0 407 156l-32 35q-145 -145 -375 -145q-150 0 -263.5 65.5t-171 173.5t-57.5 240q0 37 2 55h959q-6 122 -48 216t-110.5 150t-152 84.5t-179.5 28.5q-172 0 -297 -86t-182 -231zM1421 991q82 0 155.5 -24t133.5 -71t99 -123.5t49 -174.5
h-900q36 171 157 282t306 111zM903 475q3 -111 47 -201q-80 -121 -215 -185t-256 -64q-87 0 -163.5 27t-129.5 87.5t-53 143.5q0 108 86.5 178.5t263.5 70.5q234 0 420 -57z" />
    <glyph glyph-name="Oslashacute" unicode="&#x1fe;" horiz-adv-x="1705" 
d="M492 127l761 1153q136 -98 213.5 -245.5t77.5 -317.5q0 -189 -92 -348t-251 -251.5t-347 -92.5q-198 0 -362 102zM1214 1307l-761 -1153q-134 99 -211.5 246.5t-77.5 316.5q0 188 93 347.5t251.5 252t345.5 92.5q192 0 360 -102zM360 -72l105 158q174 -109 389 -109
q151 0 288.5 58.5t237 158t158.5 236.5t59 287q0 186 -84 342.5t-233 261.5l109 162l-39 28l-109 -163q-183 108 -387 108q-151 0 -288.5 -58.5t-237 -157.5t-158.5 -236t-59 -287q0 -185 84.5 -342.5t230.5 -259.5l-104 -158zM971 1851h63l-200 -284h-39z" />
    <glyph glyph-name="oslashacute" unicode="&#x1ff;" horiz-adv-x="1257" 
d="M821 1481h64l-217 -307h-39zM379 92l534 801q92 -69 144.5 -170.5t52.5 -218.5q0 -131 -65.5 -242t-176.5 -175t-241 -64q-136 0 -248 69zM872 920l-532 -801q-90 68 -141.5 167t-51.5 218q0 131 65 243t175.5 178t239.5 66q136 0 245 -71zM268 -76l84 127
q126 -74 275 -74q145 0 268 70.5t194.5 192t71.5 264.5q0 129 -59.5 241.5t-163.5 186.5l92 137l-39 29l-92 -140q-127 78 -272 78q-106 0 -204.5 -42.5t-170 -114t-114 -170t-42.5 -205.5q0 -130 58 -241t159 -185l-84 -125z" />
    <glyph glyph-name="Scommaaccent" unicode="&#x218;" horiz-adv-x="1161" 
d="M586 1409q-161 0 -272 -85.5t-111 -229.5q0 -199 264 -285l264 -84q61 -20 116 -51.5t103.5 -76t77.5 -107.5t29 -134q0 -74 -32.5 -142.5t-91 -121t-148.5 -84t-197 -31.5q-181 0 -310.5 81.5t-185.5 195.5l53 18q47 -101 161.5 -174t281.5 -73q189 0 302.5 97.5
t113.5 233.5q0 118 -86.5 203.5t-202.5 118.5l-264 84q-74 24 -129 55t-87 63t-52 70t-26.5 71t-6.5 71q0 111 61.5 195t160 126.5t216.5 42.5q159 0 273.5 -76t150.5 -200l-49 -17q-27 108 -129.5 177t-247.5 69zM588 -469l-25 27q72 76 72 182q0 25 -6 37q-8 -8 -33 -8
q-23 0 -37 15t-14 38t15 37t40 14q38 0 57 -39.5t19 -93.5q0 -115 -88 -209z" />
    <glyph glyph-name="scommaaccent" unicode="&#x219;" horiz-adv-x="825" 
d="M686 864l-43 -16q-29 65 -90.5 104t-128.5 39q-115 0 -183.5 -70t-68.5 -157q0 -82 54 -132.5t134 -74.5l158 -47q221 -69 221 -258q0 -123 -93 -199t-226 -76q-119 0 -205.5 49.5t-128.5 137.5l45 18q36 -74 111.5 -116.5t177.5 -42.5q110 0 190 64t80 165
q0 157 -186 215h2l-160 47q-44 13 -81.5 33t-70.5 49.5t-52 72.5t-19 95q0 49 20 96.5t56.5 87t95 64t129.5 24.5q84 0 156 -44.5t106 -127.5zM414 -465l-25 27q72 76 72 182q0 25 -6 37q-8 -8 -33 -8q-23 0 -37 15t-14 38t15 37t40 14q38 0 57 -39.5t19 -93.5
q0 -115 -88 -209z" />
    <glyph glyph-name="uni021A" unicode="&#x21a;" horiz-adv-x="1216" 
d="M633 1386v-1382q72 -44 101.5 -106t29.5 -115q0 -112 -77 -177t-179 -65t-174.5 62t-93.5 157l45 25q14 -84 76.5 -141.5t146.5 -57.5t146.5 53.5t62.5 143.5q0 136 -135 217v1386h-553v48h1159v-48h-555z" />
    <glyph glyph-name="uni021B" unicode="&#x21b;" horiz-adv-x="749" 
d="M489 -23q97 -80 97 -194q0 -112 -77 -177t-179 -65t-175 62t-94 157l45 25q14 -84 77 -141.5t147 -57.5t146.5 53.5t62.5 143.5q0 119 -107 199q-217 20 -217 325v662h-186v45h186l14 342h35v-342h342v-45h-342v-662q0 -86 18.5 -145.5t51.5 -88t67.5 -39.5t77.5 -11
q90 0 144.5 53.5t54.5 134.5v20q-6 28 -8 31h47q4 -9 8 -35q2 -6 2 -16q0 -100 -63.5 -165t-174.5 -69z" />
    <glyph glyph-name="circumflex" unicode="&#x2c6;" horiz-adv-x="1046" 
d="M492 1481h63l225 -307h-39l-219 268l-217 -268h-39z" />
    <glyph glyph-name="caron" unicode="&#x2c7;" horiz-adv-x="1046" 
d="M555 1174h-63l-226 307h39l217 -269l219 269h39z" />
    <glyph glyph-name="uni02C9" unicode="&#x2c9;" horiz-adv-x="999" 
d="M266 1368h467v-45h-467v45z" />
    <glyph glyph-name="breve" unicode="&#x2d8;" horiz-adv-x="1044" 
d="M520 1196q-112 0 -178.5 72t-77.5 186l39 4q14 -88 70 -152.5t149 -64.5q91 0 147 64.5t70 152.5l39 -4q-11 -114 -78 -186t-180 -72z" />
    <glyph glyph-name="dotaccent" unicode="&#x2d9;" horiz-adv-x="643" 
d="M274 1307q0 57 48 57q47 0 47 -57q0 -58 -47 -58q-48 0 -48 58z" />
    <glyph glyph-name="ring" unicode="&#x2da;" horiz-adv-x="884" 
d="M266 1350q0 72 52 124t124 52t124 -52t52 -124t-52 -124t-124 -52t-124 52t-52 124zM307 1350q0 -57 39 -96.5t96 -39.5t96.5 39.5t39.5 96.5t-39.5 96t-96.5 39t-96 -39t-39 -96z" />
    <glyph glyph-name="ogonek" unicode="&#x2db;" horiz-adv-x="933" 
d="M356 16h31v-16q-135 -81 -135 -217q0 -90 62.5 -143.5t146.5 -53.5t146.5 57.5t76.5 141.5l45 -25q-21 -95 -93.5 -157t-174.5 -62t-179 65t-77 177q0 56 34 120.5t117 112.5z" />
    <glyph glyph-name="tilde" unicode="&#x2dc;" horiz-adv-x="1058" 
d="M666 1278q-50 0 -136.5 46t-136.5 46q-34 0 -50.5 -18t-45.5 -78l-31 4q25 82 53 110.5t74 28.5q50 0 140 -46t133 -46q35 0 51.5 17t44.5 75l31 -4q-25 -81 -53 -108t-74 -27z" />
    <glyph glyph-name="hungarumlaut" unicode="&#x2dd;" horiz-adv-x="1062" 
d="M459 1481h63l-217 -307h-39zM733 1481h64l-217 -307h-39z" />
    <glyph glyph-name="uni0394" unicode="&#x394;" horiz-adv-x="1439" 
d="M86 0l602 1434h84l576 -1434h-1262zM723 1386l-561 -1339h1112l-537 1339h-14z" />
    <glyph glyph-name="uni03A9" unicode="&#x3a9;" horiz-adv-x="1650" 
d="M825 1409q-143 0 -266.5 -51.5t-207.5 -139.5t-131.5 -207.5t-47.5 -252.5q0 -135 68.5 -283t180.5 -265.5t236 -172.5v-37h-510v47h398q-176 107 -301 313.5t-125 397.5q0 143 51.5 271t142 222.5t223.5 149.5t289 55t289 -55t224 -149.5t142.5 -222.5t51.5 -271
q0 -192 -125 -398.5t-303 -312.5h399v-47h-510v37q125 54 237.5 172.5t180.5 266.5t68 282q0 179 -81 327t-231.5 236t-341.5 88z" />
    <glyph glyph-name="uni03BC" unicode="&#x3bc;" horiz-adv-x="1241" 
d="M233 184v-471h-49v686v615h49v-613q3 -88 27.5 -155.5t61.5 -109t88 -67.5t102 -36t109 -10q41 0 88 12.5t100.5 45t96 80.5t71.5 127.5t31 178.5v547h49v-1014h-49v248q-24 -59 -61.5 -106.5t-78.5 -77.5t-86.5 -50.5t-85.5 -28.5t-75 -8q-127 0 -231 48.5t-157 158.5z
" />
    <glyph glyph-name="pi" unicode="&#x3c0;" horiz-adv-x="1353" 
d="M842 967v-660q0 -87 18 -146t50.5 -87.5t66.5 -39.5t78 -11q90 0 144 53.5t54 134.5v20q-6 28 -8 31h47q4 -9 8 -35q3 -9 3 -16q0 -101 -67 -167.5t-181 -66.5q-41 0 -75.5 7t-71 28.5t-61 56.5t-40.5 96t-16 142v660h-502v-967h-51v967h-199v47h1081v-47h-278z" />
    <glyph glyph-name="Wgrave" unicode="&#x1e80;" horiz-adv-x="2039" 
d="M129 1434h-53l467 -1434h65l412 1303l412 -1303h63l469 1434h-53l-447 -1368l-417 1320h-56l-418 -1320zM827 1851h64l176 -284h-39z" />
    <glyph glyph-name="wgrave" unicode="&#x1e81;" horiz-adv-x="1701" 
d="M115 1014h-54l414 -1014h53l322 899l324 -899h53l413 1014h-53l-387 -948l-323 905h-52l-325 -905zM651 1481h64l192 -307h-39z" />
    <glyph glyph-name="Wacute" unicode="&#x1e82;" horiz-adv-x="2039" 
d="M129 1434h-53l467 -1434h65l412 1303l412 -1303h63l469 1434h-53l-447 -1368l-417 1320h-56l-418 -1320zM1145 1851h63l-200 -284h-39z" />
    <glyph glyph-name="wacute" unicode="&#x1e83;" horiz-adv-x="1701" 
d="M115 1014h-54l414 -1014h53l322 899l324 -899h53l413 1014h-53l-387 -948l-323 905h-52l-325 -905zM987 1481h64l-217 -307h-39z" />
    <glyph glyph-name="Wdieresis" unicode="&#x1e84;" horiz-adv-x="2039" 
d="M129 1434h-53l467 -1434h65l412 1303l412 -1303h63l469 1434h-53l-447 -1368l-417 1320h-56l-418 -1320zM756 1688q0 23 14 38t37 15t38 -15t15 -38t-15 -38.5t-38 -15.5t-37 15t-14 39zM1180 1688q0 23 14 38t37 15t38 -15t15 -38t-15 -38.5t-38 -15.5t-37 15t-14 39z
" />
    <glyph glyph-name="wdieresis" unicode="&#x1e85;" horiz-adv-x="1701" 
d="M115 1014h-54l414 -1014h53l322 899l324 -899h53l413 1014h-53l-387 -948l-323 905h-52l-325 -905zM586 1317q0 23 14 38t37 15t38 -15t15 -38t-15 -38t-38 -15t-37 15t-14 38zM1010 1317q0 23 14 38t37 15t38 -15t15 -38t-15 -38t-38 -15t-37 15t-14 38z" />
    <glyph glyph-name="Ygrave" unicode="&#x1ef2;" horiz-adv-x="1243" 
d="M647 0v600l535 834h-64l-495 -781l-496 781h-64l533 -834v-600h51zM426 1851h63l177 -284h-39z" />
    <glyph glyph-name="ygrave" unicode="&#x1ef3;" horiz-adv-x="1056" 
d="M55 1014l451 -1047l-176 -426h49l620 1473h-55l-412 -989l-421 989h-56zM326 1481h63l193 -307h-39z" />
    <glyph glyph-name="thinspace" unicode="&#x2009;" horiz-adv-x="34" 
 />
    <glyph glyph-name="endash" unicode="&#x2013;" horiz-adv-x="1085" 
d="M139 645h807v-45h-807v45z" />
    <glyph glyph-name="emdash" unicode="&#x2014;" horiz-adv-x="1609" 
d="M139 645h1331v-45h-1331v45z" />
    <glyph glyph-name="quoteleft" unicode="&#x2018;" horiz-adv-x="425" 
d="M170 1204q0 -25 6 -37q9 9 33 9q23 0 37 -15t14 -39q0 -23 -15 -37t-40 -14q-38 0 -57 39.5t-19 93.5q0 15 1.5 31t11.5 51t27 66t53 67t85 62l19 -29q-43 -23 -75 -55.5t-47 -59.5t-23.5 -59t-9.5 -46t-1 -28z" />
    <glyph glyph-name="quoteright" unicode="&#x2019;" horiz-adv-x="428" 
d="M279 1348q0 22 -7 36q-8 -8 -32 -8q-23 0 -37.5 15.5t-14.5 38.5t15.5 37t40.5 14q38 0 56.5 -39.5t18.5 -93.5q0 -15 -1.5 -31t-11.5 -51t-27 -66t-53 -67t-85 -62l-18 29q53 28 88.5 68t48 80t16 61t3.5 39z" />
    <glyph glyph-name="quotesinglbase" unicode="&#x201a;" horiz-adv-x="487" 
d="M276 35q0 25 -6 37q-9 -9 -32 -9t-37.5 15.5t-14.5 38.5t15.5 37t40.5 14q38 0 56.5 -39.5t18.5 -93.5q0 -15 -1.5 -31t-11.5 -51t-27 -66t-53 -67t-85 -62l-18 29q43 23 75 55.5t46.5 60t23 59.5t9.5 45.5t1 27.5z" />
    <glyph glyph-name="quotedblleft" unicode="&#x201c;" horiz-adv-x="727" 
d="M471 1204q0 -25 6 -37q9 9 33 9q23 0 37 -15t14 -39q0 -23 -15 -37t-40 -14q-38 0 -57 39.5t-19 93.5q0 15 1.5 31t11.5 51t27 66t53 67t85 62l19 -29q-43 -23 -75 -55.5t-47 -59.5t-23.5 -59t-9.5 -46t-1 -28zM168 1204q0 -25 6 -37q9 9 33 9q23 0 37 -15t14 -39
q0 -23 -15 -37t-40 -14q-38 0 -57 39.5t-19 93.5q0 15 1.5 31t11.5 51t27 66t53 67t85 62l19 -29q-43 -23 -75 -55.5t-47 -59.5t-23.5 -59t-9.5 -46t-1 -28z" />
    <glyph glyph-name="quotedblright" unicode="&#x201d;" horiz-adv-x="731" 
d="M279 1348q0 22 -7 36q-8 -8 -32 -8q-23 0 -37.5 15.5t-14.5 38.5t15.5 37t40.5 14q38 0 56.5 -39.5t18.5 -93.5q0 -15 -1.5 -31t-11.5 -51t-27 -66t-53 -67t-85 -62l-18 29q53 28 88.5 68t48 80t16 61t3.5 39zM582 1348q0 22 -7 36q-8 -8 -32 -8q-23 0 -37 15t-14 39
q0 23 15 37t40 14q38 0 57 -39.5t19 -93.5q0 -20 -4.5 -44t-19 -68t-55 -88.5t-100.5 -76.5l-18 29q53 28 88.5 68t48 80t16 61t3.5 39z" />
    <glyph glyph-name="quotedblbase" unicode="&#x201e;" horiz-adv-x="788" 
d="M276 35q0 25 -6 37q-9 -9 -32 -9t-37.5 15.5t-14.5 38.5t15.5 37t40.5 14q38 0 56.5 -39.5t18.5 -93.5q0 -15 -1.5 -31t-11.5 -51t-27 -66t-53 -67t-85 -62l-18 29q43 23 75 55.5t46.5 60t23 59.5t9.5 45.5t1 27.5zM580 35q0 23 -7 37q-9 -9 -32 -9t-37.5 15.5
t-14.5 38.5t15.5 37t40.5 14q38 0 57 -39.5t19 -93.5q0 -20 -4.5 -44t-19 -68t-55 -88.5t-100.5 -76.5l-18 29q53 28 88.5 68t48 80t16 61t3.5 39z" />
    <glyph glyph-name="dagger" unicode="&#x2020;" horiz-adv-x="1026" 
d="M537 977v-1352h-45v1352h-420v45h420v545h45v-545h419v-45h-419z" />
    <glyph glyph-name="daggerdbl" unicode="&#x2021;" horiz-adv-x="1091" 
d="M987 264h-420v-639h-45v639h-420v45h420v668h-420v45h420v545h45v-545h420v-45h-420v-668h420v-45z" />
    <glyph glyph-name="bullet" unicode="&#x2022;" horiz-adv-x="790" 
d="M199 483q0 80 57.5 137.5t136.5 57.5q80 0 139.5 -58t59.5 -137t-59.5 -136.5t-139.5 -57.5t-137 56.5t-57 137.5z" />
    <glyph glyph-name="ellipsis" unicode="&#x2026;" horiz-adv-x="1363" 
d="M154 31q0 23 14 38t37 15t38 -15t15 -38t-15 -38.5t-38 -15.5t-37 15t-14 39zM631 31q0 23 14 38t37 15t38 -15t15 -38t-15 -38.5t-38 -15.5t-37 15t-14 39zM1108 31q0 23 14 38t37 15t38 -15t15 -38t-15 -38.5t-38 -15.5t-37 15t-14 39z" />
    <glyph glyph-name="perthousand" unicode="&#x2030;" horiz-adv-x="2603" 
d="M78 1141q0 135 88 225t219 90q132 0 220.5 -90t88.5 -225q0 -130 -89 -222t-220 -92q-129 0 -218 92t-89 222zM422 0l801 1434h47l-801 -1434h-47zM121 1141q0 -111 76.5 -191t187.5 -80q113 0 189.5 79.5t76.5 191.5q0 117 -76 194.5t-190 77.5q-113 0 -188.5 -77.5
t-75.5 -194.5zM1036 291q0 135 88 225t219 90q132 0 221 -90t89 -225q0 -130 -89.5 -222t-220.5 -92q-129 0 -218 92t-89 222zM1079 291q0 -111 76.5 -191t187.5 -80q113 0 190 79.5t77 191.5q0 117 -76.5 194.5t-190.5 77.5q-113 0 -188.5 -77.5t-75.5 -194.5zM1911 291
q0 135 88 225t219 90q132 0 220.5 -90t88.5 -225q0 -130 -89 -222t-220 -92q-129 0 -218 92t-89 222zM1954 291q0 -111 76.5 -191t187.5 -80q113 0 189.5 79.5t76.5 191.5q0 117 -76 194.5t-190 77.5q-113 0 -188.5 -77.5t-75.5 -194.5z" />
    <glyph glyph-name="guilsinglleft" unicode="&#x2039;" horiz-adv-x="626" 
d="M109 596l342 393l36 -28l-317 -365l317 -365l-36 -28z" />
    <glyph glyph-name="guilsinglright" unicode="&#x203a;" horiz-adv-x="626" 
d="M176 989l342 -393l-342 -393l-37 28l318 365l-318 365z" />
    <glyph glyph-name="fraction" unicode="&#x2044;" horiz-adv-x="307" 
d="M743 1509l-1130 -1595h-47l1128 1595h49z" />
    <glyph glyph-name="zerosuperior" unicode="&#x2070;" horiz-adv-x="749" 
d="M676 1284q0 -160 -83 -267.5t-220 -107.5q-136 0 -217.5 107.5t-81.5 267.5q0 157 81.5 264t217.5 107q137 0 220 -107t83 -264zM633 1284q0 140 -70.5 236t-189.5 96q-118 0 -187 -95.5t-69 -236.5q0 -144 69 -240t187 -96q120 0 190 96t70 240z" />
    <glyph glyph-name="foursuperior" unicode="&#x2074;" horiz-adv-x="710" 
d="M94 1169h365v398zM459 1128h-424v27l438 487h27v-473h168v-41h-168v-196h-41v196z" />
    <glyph glyph-name="fivesuperior" unicode="&#x2075;" horiz-adv-x="630" 
d="M121 1303l-31 8l23 331h401v-38h-364l-19 -258q88 43 180 43q126 0 193 -71t67 -171t-69.5 -169t-194.5 -69q-59 0 -123.5 19t-107.5 47l22 31q38 -24 96.5 -41t110.5 -17q109 0 166 57t57 142q0 86 -54.5 145.5t-162.5 59.5q-100 0 -190 -49z" />
    <glyph glyph-name="sixsuperior" unicode="&#x2076;" horiz-adv-x="663" 
d="M119 1255v-8q33 62 101 94.5t136 32.5q99 0 174.5 -65.5t75.5 -169.5q0 -102 -73.5 -166t-180.5 -64q-131 0 -203.5 95t-72.5 256q0 169 79 282t212 113q51 0 96.5 -16.5t73.5 -41.5l-29 -24q-21 18 -62 30.5t-81 12.5q-114 0 -180 -101.5t-66 -259.5zM127 1163
q0 -21 6 -45q20 -67 78.5 -119.5t144.5 -52.5q88 0 147.5 54.5t59.5 140.5q0 88 -62 141t-145 53q-80 0 -154.5 -49t-74.5 -123z" />
    <glyph glyph-name="sevensuperior" unicode="&#x2077;" horiz-adv-x="559" 
d="M539 1610l-392 -678h-43l388 670h-447v40h494v-32z" />
    <glyph glyph-name="eightsuperior" unicode="&#x2078;" horiz-adv-x="710" 
d="M604 1468q0 -52 -28.5 -96t-86.5 -69q70 -25 109 -71.5t39 -107.5q0 -93 -79.5 -154t-203.5 -61q-123 0 -201.5 60.5t-78.5 156.5q0 60 35.5 107.5t107.5 71.5q-53 26 -82 69.5t-29 93.5q0 82 70 134.5t180 52.5q109 0 178.5 -53.5t69.5 -133.5zM348 1284
q-108 0 -169.5 -44.5t-61.5 -117.5q0 -76 66 -125t171 -49t172.5 49.5t67.5 122.5t-67.5 118.5t-178.5 45.5zM150 1466q0 -65 52.5 -106t147.5 -41q100 0 155.5 42t55.5 107q0 67 -55.5 107.5t-151.5 40.5q-92 0 -148 -41t-56 -109z" />
    <glyph glyph-name="ninesuperior" unicode="&#x2079;" horiz-adv-x="661" 
d="M543 1309v8q-33 -62 -101.5 -94.5t-136.5 -32.5q-99 0 -174.5 65.5t-75.5 169.5q0 102 73.5 166t180.5 64q132 0 204.5 -94.5t72.5 -255.5q0 -169 -79 -282.5t-212 -113.5q-51 0 -96.5 16.5t-73.5 41.5l29 24q21 -18 62 -30.5t81 -12.5q114 0 180 101.5t66 259.5z
M535 1401q0 17 -7 45q-20 67 -78.5 119.5t-144.5 52.5q-88 0 -147.5 -54.5t-59.5 -140.5q0 -88 62 -141t145 -53q52 0 104 20t89 61t37 91z" />
    <glyph glyph-name="parenleftsuperior" unicode="&#x207d;" horiz-adv-x="385" 
d="M92 1264q0 271 193 487q7 -3 15 -10t15 -10q-28 -31 -54.5 -69t-57.5 -97t-49.5 -138t-18.5 -163t19 -162.5t50 -138t57 -97.5t54 -69l-32 -19q-29 32 -56 71.5t-60.5 102t-54 144.5t-20.5 168z" />
    <glyph glyph-name="parenrightsuperior" unicode="&#x207e;" horiz-adv-x="385" 
d="M293 1264q0 -86 -20.5 -168t-54 -144.5t-60.5 -102t-56 -71.5l-32 19q28 31 54 69t57 97.5t50 138t19 162.5t-18.5 163t-49.5 138t-57.5 97t-54.5 69q7 3 15 10t15 10q193 -216 193 -487z" />
    <glyph glyph-name="zeroinferior" unicode="&#x2080;" horiz-adv-x="751" 
d="M678 88q0 -160 -83 -267.5t-220 -107.5q-136 0 -217.5 107.5t-81.5 267.5q0 157 81.5 264t217.5 107q137 0 220 -107t83 -264zM635 88q0 140 -70.5 236t-189.5 96q-118 0 -187 -95.5t-69 -236.5q0 -144 69 -240t187 -96q120 0 190 96t70 240z" />
    <glyph glyph-name="oneinferior" unicode="&#x2081;" horiz-adv-x="370" 
d="M41 305l-6 37l211 102h22v-708h-41v653z" />
    <glyph glyph-name="twoinferior" unicode="&#x2082;" horiz-adv-x="638" 
d="M72 -264v33l313 272q119 99 119 213q0 79 -54 122.5t-151 43.5q-87 0 -132 -36.5t-54 -90.5h-41q5 67 64.5 116.5t164.5 49.5q111 0 178.5 -55t67.5 -152q0 -123 -133 -236l-279 -241h443v-39h-506z" />
    <glyph glyph-name="threeinferior" unicode="&#x2083;" horiz-adv-x="638" 
d="M315 127q-72 0 -120 -27q-10 10 -17 31l293 277h-389v38h459v-22l-273 -260q21 4 51 4q107 0 176.5 -60.5t69.5 -162.5t-73.5 -167t-208.5 -65q-64 0 -123 18t-94 48l22 28q33 -24 86.5 -39.5t108.5 -15.5q116 0 177.5 54.5t61.5 138.5q0 88 -57.5 135t-149.5 47z" />
    <glyph glyph-name="fourinferior" unicode="&#x2084;" horiz-adv-x="710" 
d="M94 -27h365v398zM459 -68h-424v27l438 487h27v-473h168v-41h-168v-196h-41v196z" />
    <glyph glyph-name="fiveinferior" unicode="&#x2085;" horiz-adv-x="630" 
d="M121 106l-31 9l23 331h401v-38h-364l-19 -258q88 43 180 43q126 0 193 -71t67 -171t-69.5 -169t-194.5 -69q-59 0 -123.5 19t-107.5 47l22 31q38 -24 96.5 -41t110.5 -17q109 0 166 57t57 142q0 86 -54.5 145.5t-162.5 59.5q-98 0 -190 -50z" />
    <glyph glyph-name="sixinferior" unicode="&#x2086;" horiz-adv-x="663" 
d="M119 59v-8q33 62 101 94.5t136 32.5q99 0 174.5 -65.5t75.5 -169.5q0 -102 -73.5 -166t-180.5 -64q-131 0 -203.5 94.5t-72.5 255.5q0 169 79 282.5t212 113.5q51 0 96.5 -16.5t73.5 -41.5l-29 -24q-21 18 -62 30.5t-81 12.5q-114 0 -180 -101.5t-66 -259.5zM127 -33
q0 -21 6 -45q20 -67 78.5 -119.5t144.5 -52.5q88 0 147.5 54.5t59.5 140.5q0 88 -62 141t-145 53q-80 0 -154.5 -49t-74.5 -123z" />
    <glyph glyph-name="seveninferior" unicode="&#x2087;" horiz-adv-x="559" 
d="M539 414l-392 -678h-43l388 670h-447v40h494v-32z" />
    <glyph glyph-name="eightinferior" unicode="&#x2088;" horiz-adv-x="710" 
d="M604 272q0 -52 -29 -96.5t-86 -69.5q70 -25 109 -71t39 -107q0 -93 -79.5 -154t-203.5 -61q-123 0 -201.5 60.5t-78.5 156.5q0 60 35.5 107.5t107.5 71.5q-53 26 -82 69.5t-29 93.5q0 82 70 134.5t180 52.5q109 0 178.5 -53.5t69.5 -133.5zM348 88q-108 0 -169.5 -44.5
t-61.5 -117.5q0 -76 66 -125t171 -49t172.5 49.5t67.5 122.5t-67.5 118.5t-178.5 45.5zM150 270q0 -65 52.5 -106t147.5 -41q100 0 155.5 42t55.5 107q0 67 -55.5 107.5t-151.5 40.5q-92 0 -148 -41t-56 -109z" />
    <glyph glyph-name="nineinferior" unicode="&#x2089;" horiz-adv-x="661" 
d="M543 113v8q-33 -62 -101.5 -94.5t-136.5 -32.5q-99 0 -174.5 65.5t-75.5 169.5q0 102 73.5 166t180.5 64q132 0 204.5 -94.5t72.5 -255.5q0 -169 -79 -282.5t-212 -113.5q-51 0 -96.5 16.5t-73.5 41.5l29 24q21 -18 62 -30.5t81 -12.5q114 0 180 101.5t66 259.5zM535 205
q0 17 -7 45q-20 67 -78.5 119.5t-144.5 52.5q-88 0 -147.5 -54.5t-59.5 -140.5q0 -88 62 -141t145 -53q52 0 104 20t89 61t37 91z" />
    <glyph glyph-name="parenleftinferior" unicode="&#x208d;" horiz-adv-x="385" 
d="M92 68q0 271 193 487q7 -3 15 -10t15 -10q-28 -31 -54.5 -69t-57.5 -97t-49.5 -138t-18.5 -163t19 -162.5t50 -138t57 -97t54 -69.5l-32 -19q-29 32 -56 71.5t-60.5 102t-54 144.5t-20.5 168z" />
    <glyph glyph-name="parenrightinferior" unicode="&#x208e;" horiz-adv-x="385" 
d="M293 68q0 -86 -20.5 -168t-54 -144.5t-60.5 -102t-56 -71.5l-32 19q28 32 54 69.5t57 97t50 138t19 162.5t-18.5 163t-49.5 138t-57.5 97t-54.5 69q7 3 15 10t15 10q193 -216 193 -487z" />
    <glyph glyph-name="lira" unicode="&#x20a4;" horiz-adv-x="1243" 
d="M158 674v45h219q-13 33 -37 94t-31.5 80t-21 56.5t-17 55t-7 42t-3.5 47.5q0 110 60.5 193t161 126t225.5 43q96 0 171 -27t118 -71t65 -93t22 -98h-55q0 42 -18.5 83t-55 77.5t-100.5 59t-147 22.5q-169 0 -281.5 -85.5t-112.5 -229.5q0 -33 9 -70.5t18 -64t40.5 -107
t51.5 -133.5h451v-45h-432q29 -79 43 -162h389v-45h-383q4 -50 4 -72q0 -120 -48 -205t-157 -143v-8q76 8 156 8h692v-47h-1065v47h24q48 0 94 10.5t92 36t81 63.5t56.5 98.5t21.5 135.5q0 8 -5 76h-288v45h280q-14 83 -43 162h-237z" />
    <glyph glyph-name="rupee" unicode="&#x20a8;" horiz-adv-x="1370" 
d="M1042 1036h-878v47h874q-21 127 -105.5 213t-215.5 90h-553v48h555h510v-48h-336q170 -95 199 -303h137v-47h-131v-22q0 -111 -45.5 -203t-133.5 -149t-204 -60q3 -62 16.5 -131.5t43 -150.5t71 -144.5t108 -106t146.5 -42.5q84 0 141 41l27 -41q-73 -50 -168 -50
q-76 0 -141.5 32t-111 86t-80 119t-55.5 137.5t-32 134t-14 116.5h-502v47h536q104 0 183.5 50t120 132.5t40.5 182.5q0 3 -1 10.5t-1 11.5z" />
    <glyph glyph-name="uni20A9" unicode="&#x20a9;" horiz-adv-x="2177" 
d="M1882 979h184v-45h-198l-92 -279h290v-45h-305l-198 -610h-64l-192 610h-439l-192 -610h-66l-198 610h-297v45h282l-92 279h-190v45h176l-148 455h54l147 -455h586l129 407h55l129 -407h586l149 455h54zM1257 934l89 -279h378l91 279h-558zM358 934l91 -279h378l88 279
h-557zM1360 610l172 -544l178 544h-350zM463 610l178 -544l172 544h-350zM971 934l-88 -279h409l-88 279h-233zM1087 1303l-102 -324h205z" />
    <glyph glyph-name="afii57636" unicode="&#x20aa;" horiz-adv-x="1404" 
d="M211 1053v-1053h-49v1102h313q188 0 305 -117.5t117 -292.5v-319h-49v319q0 155 -104 258t-269 103h-264zM1194 49v1053h49v-1102h-313q-188 0 -305 117.5t-117 292.5v319h49v-319q0 -155 104 -258t269 -103h264z" />
    <glyph glyph-name="Euro" unicode="&#x20ac;" horiz-adv-x="1335" 
d="M299 537h-213v45h207q-6 58 -6 118q0 89 4 115h-203v45h209q19 129 67 234.5t127 188t200 128t274 45.5q158 0 272 -53l-23 -43q-103 49 -253 49q-136 0 -245 -41.5t-182.5 -117t-119 -173t-64.5 -217.5h725l-12 -45h-717q-6 -55 -6 -115t6 -118h655l-12 -45h-635
q19 -110 67 -202.5t122.5 -162t181 -108.5t233.5 -39q107 0 183 36l22 -43q-83 -41 -207 -41q-270 0 -442.5 153t-214.5 407z" />
    <glyph glyph-name="uni2113" unicode="&#x2113;" horiz-adv-x="927" 
d="M68 334v39q67 -19 133 -19q27 0 41 2v766q0 85 23.5 148.5t57 98t79 55t80.5 26.5t71 6q26 0 49.5 -3t53 -11.5t54.5 -23t49 -40.5t41 -60t27.5 -84t10.5 -112q0 -194 -68 -367.5t-194 -292t-283 -147.5v-32q0 -76 24.5 -129.5t65.5 -80t82.5 -37.5t87.5 -11
q102 0 154.5 45t52.5 120l51 3q0 -97 -65 -156.5t-193 -59.5q-43 0 -82.5 7.5t-82.5 28t-74 53.5t-51.5 89t-20.5 128v26h-23q-91 0 -151 25zM293 1122v-760q39 9 57 17q5 1 12 4t9 4q188 84 301.5 283t113.5 452q0 73 -16.5 127t-40 84t-57 48t-61 23t-58.5 5
q-30 0 -59.5 -5t-67.5 -23t-66 -47.5t-47.5 -84.5t-19.5 -127z" />
    <glyph glyph-name="afii61352" unicode="&#x2116;" horiz-adv-x="2371" 
d="M1620 1147q0 134 91.5 221.5t225.5 87.5q132 0 224 -88t92 -221q0 -132 -91.5 -217.5t-224.5 -85.5q-134 0 -225.5 85.5t-91.5 217.5zM1630 627v45h611v-45h-611zM225 1352l992 -1352h51v1434h-51v-1350l-992 1350h-51v-1434h51v1352zM1665 1147q0 -114 78 -187t194 -73
q117 0 194 73t77 187q0 116 -77.5 191t-193.5 75q-115 0 -193.5 -75t-78.5 -191z" />
    <glyph glyph-name="uni2117" unicode="&#x2117;" horiz-adv-x="1693" 
d="M934 631h-229v-297h-41v725h270q95 0 149 -62.5t54 -154.5q0 -90 -54 -150.5t-149 -60.5zM705 670h229q73 0 117.5 50t44.5 122q0 74 -44.5 125t-117.5 51h-229v-348zM117 717q0 121 36 234t103 203.5t156 159t201 105.5t233 37q151 0 286.5 -58t233 -157t154.5 -236
t57 -288q0 -202 -96.5 -372t-265 -269t-369.5 -99t-369 99t-264 269t-96 372zM166 717q0 -190 89.5 -349.5t246 -252t344.5 -92.5q142 0 268.5 54.5t217 147.5t143.5 221.5t53 270.5t-53 270.5t-143.5 221.5t-217 147.5t-268.5 54.5q-188 0 -344.5 -92.5t-246 -252
t-89.5 -349.5z" />
    <glyph glyph-name="trademark" unicode="&#x2122;" horiz-adv-x="1708" 
d="M1137 743h-43l-297 621l-62 -629h-43l66 699h53l305 -633l303 633h54l65 -699h-43l-61 629zM78 1434h590v-39h-273v-660h-43v660h-274v39z" />
    <glyph glyph-name="Omega" unicode="&#x2126;" horiz-adv-x="1658" 
d="M829 1409q-143 0 -266.5 -51.5t-207.5 -139.5t-131.5 -207.5t-47.5 -252.5q0 -135 68.5 -283t181 -265.5t236.5 -172.5v-37h-510v47h397q-176 107 -301 313.5t-125 397.5q0 143 51.5 271t142 222.5t223.5 149.5t289 55t289 -55t224 -149.5t142.5 -222.5t51.5 -271
q0 -192 -125 -398.5t-303 -312.5h399v-47h-510v37q125 54 237.5 172.5t180.5 266.5t68 282q0 179 -81 327t-231.5 236t-341.5 88z" />
    <glyph glyph-name="estimated" unicode="&#x212e;" horiz-adv-x="1351" 
d="M1249 578h-878v-396q138 -129 311 -129q67 0 124 14.5t99 36.5t81.5 58t66.5 70t59 81l64 -39q-57 -90 -118.5 -150t-157.5 -99t-218 -39q-163 0 -291 81.5t-196 216.5t-68 296q0 164 66.5 298t196.5 215t300 81q128 0 234.5 -48t177 -129.5t109 -189.5t38.5 -229z
M1004 645v334q-60 55 -144 91t-170 36q-195 0 -319 -127v-334h633z" />
    <glyph glyph-name="arrowleft" unicode="&#x2190;" horiz-adv-x="1325" 
d="M1047 489h-777l295 -339l-37 -29l-342 393l342 393l37 -28l-299 -344h781v-46z" />
    <glyph glyph-name="arrowup" unicode="&#x2191;" horiz-adv-x="1150" 
d="M600 864v-776h-45v780l-344 -299l-29 37l393 342l394 -342l-29 -37z" />
    <glyph glyph-name="arrowright" unicode="&#x2192;" horiz-adv-x="1325" 
d="M1055 489h-776v46h780l-299 344l37 28l342 -393l-342 -393l-37 29z" />
    <glyph glyph-name="arrowdown" unicode="&#x2193;" horiz-adv-x="1155" 
d="M602 948v-776l340 295l29 -37l-393 -342l-394 342l29 37l344 -299v780h45z" />
    <glyph glyph-name="partialdiff" unicode="&#x2202;" horiz-adv-x="1320" 
d="M608 1380l-24 39q106 37 223 37q109 0 193.5 -39t137 -109.5t79.5 -167.5t24.5 -213.5t-31.5 -246.5q-75 -323 -263.5 -513t-448.5 -190q-208 0 -319.5 127t-63.5 334q29 133 123.5 240t221 163t257.5 56q90 0 177.5 -33.5t154 -102t79.5 -157.5h9q9 25 20 76
q28 121 30.5 230.5t-21.5 200.5t-71.5 157.5t-124 103.5t-175.5 37q-95 0 -187 -29zM1083 477q18 80 -10.5 151t-86.5 117t-132 72.5t-149 26.5q-119 0 -231 -49t-195.5 -143t-110.5 -214q-23 -95 -6.5 -171.5t63.5 -130t120.5 -82.5t164.5 -29q170 0 308.5 94.5
t232.5 265.5q19 36 32 92z" />
    <glyph glyph-name="Delta" unicode="&#x2206;" horiz-adv-x="1394" 
d="M66 0l602 1434h84l575 -1434h-1261zM702 1386l-561 -1339h1112l-536 1339h-15z" />
    <glyph glyph-name="product" unicode="&#x220f;" horiz-adv-x="1435" 
d="M1153 1386v-1761h-51v1761h-764v-1761h-51v1761h-207v48h1276v-48h-203z" />
    <glyph glyph-name="summation" unicode="&#x2211;" horiz-adv-x="1116" 
d="M162 1386l545 -860l-564 -854h895v-47h-962v37l571 866l-549 867v39h875v-48h-811z" />
    <glyph glyph-name="minus" unicode="&#x2212;" horiz-adv-x="1208" 
d="M162 631h885v-45h-885v45z" />
    <glyph glyph-name="uni2219" unicode="&#x2219;" horiz-adv-x="428" 
d="M162 715q0 23 14 38t37 15t38 -15t15 -38t-15 -38t-38 -15t-37 15t-14 38z" />
    <glyph glyph-name="radical" unicode="&#x221a;" horiz-adv-x="1069" 
d="M557 -121l401 1688h46l-420 -1766h-49l-338 944l-154 -71l-18 49l196 90z" />
    <glyph glyph-name="infinity" unicode="&#x221e;" horiz-adv-x="1757" 
d="M1012 436l-133 129l-134 -129q-143 -143 -305 -143q-131 0 -219 85t-88 224t88 224t219 85q162 0 305 -143l134 -133l133 133q143 143 305 143q131 0 219 -85t88 -224t-88 -224t-219 -85q-162 0 -305 143zM913 600l134 -131q135 -129 270 -129q108 0 182 72t74 190
q0 120 -74 191t-182 71q-139 0 -268 -129zM711 469l133 131l-135 135q-129 129 -269 129q-108 0 -182 -71t-74 -191q0 -118 74 -190t182 -72q136 0 271 129z" />
    <glyph glyph-name="integral" unicode="&#x222b;" horiz-adv-x="923" 
d="M436 272v947q0 83 18.5 146t47.5 100.5t70 61t81 32t86 8.5q42 0 96.5 -12.5t92.5 -36.5l-27 -39q-62 41 -162 41q-38 0 -71.5 -7t-67.5 -27.5t-58 -53t-39.5 -87t-15.5 -126.5v-947v-405q0 -83 -18.5 -146t-47.5 -100.5t-70 -61t-81 -32t-86 -8.5q-42 0 -96 12.5
t-92 36.5l27 39q62 -41 161 -41q38 0 71.5 7t67.5 27.5t58 53t39.5 87t15.5 126.5v405z" />
    <glyph glyph-name="approxequal" unicode="&#x2248;" 
d="M1028 926l27 -37q-91 -68 -205 -68q-61 0 -131.5 23t-124.5 50t-123 50t-127 23q-84 0 -147 -72l-35 29q75 88 182 88q61 0 131.5 -23t124.5 -50t123 -50t127 -23q93 0 178 60zM1028 420l27 -37q-91 -68 -205 -68q-61 0 -131.5 23t-124.5 50t-123 50t-127 23
q-84 0 -147 -72l-35 29q75 88 182 88q61 0 131.5 -23t124.5 -50t123 -50t127 -23q93 0 178 60z" />
    <glyph glyph-name="notequal" unicode="&#x2260;" horiz-adv-x="1193" 
d="M453 338l-152 -287l-39 25l137 262h-245v45h270l285 539h-555v45h579l164 309l39 -25l-152 -284h254v-45h-276l-287 -539h563v-45h-585z" />
    <glyph glyph-name="lessequal" unicode="&#x2264;" horiz-adv-x="1409" 
d="M1198 1122l-977 -350l977 -350v-51l-1022 368v66l1022 369v-52zM186 213h1012v-45h-1012v45z" />
    <glyph glyph-name="greaterequal" unicode="&#x2265;" horiz-adv-x="1409" 
d="M1188 772l-977 350v52l1022 -369v-66l-1022 -368v51zM211 213h1012v-45h-1012v45z" />
    <glyph glyph-name="lozenge" unicode="&#x25ca;" horiz-adv-x="1122" 
d="M541 1434h41l454 -719l-454 -715h-41l-457 715zM979 715l-418 657l-420 -657l420 -656zM1038 717v-2h-2z" />
    <glyph glyph-name="commaaccent" unicode="&#xf6c3;" horiz-adv-x="622" 
d="M289 -469l-25 27q72 76 72 182q0 25 -6 37q-8 -8 -33 -8q-23 0 -37 15t-14 38t15 37t40 14q38 0 57 -39.5t19 -93.5q0 -115 -88 -209z" />
    <glyph glyph-name="rupiah" unicode="&#xf6dd;" horiz-adv-x="2603" 
d="M1280 68l27 -41q-73 -50 -168 -50q-76 0 -141.5 32t-111 86t-80 119t-55.5 137.5t-32 134t-14 116.5h-480v-602h-51v1434h565q122 0 214 -59t138 -153.5t46 -207.5q0 -111 -45.5 -203t-133.5 -149t-204 -60q3 -62 16.5 -131.5t43 -150.5t71 -144.5t108 -106t146.5 -42.5
q84 0 141 41zM225 649h514q104 0 183.5 50t120 132.5t40.5 182.5t-40 183.5t-119.5 136t-184.5 52.5h-514v-737zM2519 506q0 -109 -35 -204.5t-99 -168t-162.5 -114.5t-219.5 -42q-175 0 -299 87t-180 233v-756h-49v1473h49v-295q56 149 180.5 233t294.5 84q236 0 378 -151
t142 -379zM2468 506q0 135 -56 245t-164 175t-249 65q-206 0 -341.5 -135t-135.5 -350q0 -206 134 -344.5t347 -138.5q109 0 197.5 38.5t146.5 104.5t89.5 153.5t31.5 186.5z" />
    <glyph glyph-name="centinferior" unicode="&#xf6df;" horiz-adv-x="612" 
d="M266 -283h-39l21 113q-85 29 -131.5 96.5t-48.5 155.5q0 115 77 191.5t203 76.5h2l21 96h41l-21 -98q83 -12 150 -59l-23 -29q-55 37 -133 49l-90 -452q12 -4 59 -4q89 0 164 51l23 -29q-89 -61 -191 -61q-36 0 -63 6zM109 82q2 -75 40.5 -133t106.5 -82l88 444
q-107 -4 -168.5 -68t-66.5 -161z" />
    <glyph glyph-name="centsuperior" unicode="&#xf6e0;" horiz-adv-x="612" 
d="M266 913h-39l21 113q-85 29 -131.5 96.5t-48.5 155.5q0 115 77 191.5t203 76.5h2l21 96h41l-21 -98q83 -12 150 -59l-23 -29q-55 37 -133 49l-90 -452q12 -4 59 -4q89 0 164 51l23 -29q-89 -61 -191 -61q-36 0 -63 6zM109 1278q2 -75 40.5 -133t106.5 -82l88 444
q-107 -4 -168.5 -68t-66.5 -161z" />
    <glyph glyph-name="commainferior" unicode="&#xf6e1;" horiz-adv-x="290" 
d="M129 -446l-16 18q51 59 51 133q0 11 -4 27q-6 -6 -25 -6q-17 0 -27 10.5t-10 27.5t11 27t30 10q27 0 40.5 -28t13.5 -68q0 -87 -64 -151z" />
    <glyph glyph-name="commasuperior" unicode="&#xf6e2;" horiz-adv-x="292" 
d="M131 756l-16 18q51 59 51 133q0 11 -4 27q-6 -6 -25 -6q-17 0 -27 11t-10 28t11 27t30 10q27 0 40.5 -28.5t13.5 -68.5q0 -87 -64 -151z" />
    <glyph glyph-name="dollarinferior" unicode="&#xf6e3;" horiz-adv-x="575" 
d="M272 428v92h35v-92q66 -4 115 -43t67 -96l-36 -13q-12 45 -52 76t-94 35v-274l47 -15q63 -20 109.5 -65.5t46.5 -108.5q0 -71 -55 -122.5t-148 -55.5v-96h-35v96q-82 4 -137 42.5t-80 96.5l41 13q20 -44 65 -76.5t111 -36.5v297l-47 16q-143 48 -143 156q0 73 55 121
t135 53zM467 -76q0 87 -123 135l-37 13v-287q73 4 116.5 43.5t43.5 95.5zM125 256q0 -81 113 -121l34 -12v266q-63 -5 -105 -41t-42 -92z" />
    <glyph glyph-name="dollarsuperior" unicode="&#xf6e4;" horiz-adv-x="575" 
d="M272 1624v92h35v-92q66 -4 115 -43t67 -96l-36 -12q-12 45 -52 75.5t-94 34.5v-274l47 -15q63 -20 109.5 -65.5t46.5 -108.5q0 -71 -55 -122.5t-148 -55.5v-96h-35v96q-82 4 -137 42.5t-80 96.5l41 13q20 -44 65 -76.5t111 -36.5v297l-47 16q-143 48 -143 156
q0 73 55 121t135 53zM467 1120q0 87 -123 135l-37 13v-287q73 4 116.5 43.5t43.5 95.5zM125 1452q0 -81 113 -121l34 -12v266q-63 -5 -105 -41t-42 -92z" />
    <glyph glyph-name="hypheninferior" unicode="&#xf6e5;" horiz-adv-x="540" 
d="M102 123h336v-39h-336v39z" />
    <glyph glyph-name="hyphensuperior" unicode="&#xf6e6;" horiz-adv-x="540" 
d="M102 1319h336v-39h-336v39z" />
    <glyph glyph-name="periodinferior" unicode="&#xf6e7;" horiz-adv-x="288" 
d="M143 -287q-34 0 -34 39t34 39q37 0 37 -39t-37 -39z" />
    <glyph glyph-name="periodsuperior" unicode="&#xf6e8;" horiz-adv-x="288" 
d="M143 909q-34 0 -34 39t34 39q37 0 37 -39t-37 -39z" />
    <glyph glyph-name="apple" unicode="&#xf8ff;" horiz-adv-x="1417" 
d="M897 311h154q0 80 -24.5 143.5t-66 104t-90 65t-104.5 33.5q68 180 152 338l30 -399h154l-53 684h-150q-133 -245 -192 -416q-57 166 -193 416h-149l-54 -684h154l31 399q58 -108 151 -333q-59 -6 -111.5 -30t-97 -65t-70.5 -107.5t-26 -148.5h156q0 73 31.5 124t75.5 72
t93 21q77 0 138 -55.5t61 -161.5zM195 0v1413h1028v-1413h-1028zM287 168v-80h16v55l19 -55h14l20 57v-57h17v80h-25l-18 -55l-19 55h-24zM418 170q-18 0 -28.5 -12t-10.5 -31q0 -18 10.5 -29.5t28.5 -11.5t29.5 11.5t11.5 29.5q0 19 -11 31t-30 12zM418 100q-21 0 -21 27
q0 11 5.5 20t15.5 9q22 0 22 -29q0 -27 -22 -27zM475 115h-16q0 -29 35 -29q32 0 32 27q0 16 -22 22q-24 8 -25 12q0 9 13 9q14 0 14 -13h18q0 27 -32 27q-12 0 -21.5 -7t-9.5 -18q0 -19 26 -22q23 -7 23 -12q0 -11 -16 -11q-19 0 -19 15zM549 154v-66h18v66h25v14h-68v-14
h25zM608 168l-30 -80h18l6 18h29l6 -18h18l-28 80h-19zM627 119h-21l10 28zM657 168v-80h19v31h16q15 0 15 -15q0 -14 2 -16h18q-4 12 -4 18q0 17 -12 19v2q14 3 14 18q0 23 -25 23h-43zM676 131v23h18q13 0 13 -11q0 -12 -13 -12h-18zM733 168v-80h35q37 0 37 41
q0 39 -37 39h-35zM752 102v52h12q22 0 22 -27q0 -25 -20 -25h-14zM811 168v-80h61v14h-45v21h39v14h-39v17h43v14h-59zM891 115h-19q0 -29 35 -29q33 0 33 27q0 16 -22 22q-24 8 -25 12q0 9 12 9q14 0 17 -13h16q0 27 -33 27q-12 0 -21.5 -7t-9.5 -18q0 -19 27 -22
q23 -7 23 -12q0 -11 -17 -11q-16 0 -16 15zM946 168v-80h17v80h-17zM1030 96l2 -8h12v43h-34v-12h18q-3 -19 -18 -19q-23 0 -23 27q0 29 23 29q13 0 16 -15h16q-3 29 -32 29q-20 0 -30.5 -12t-10.5 -31q0 -18 10.5 -29.5t30.5 -11.5q10 0 20 10zM1053 168v-80h16v53l33 -53
h18v80h-16v-53l-35 53h-16z" />
    <glyph glyph-name="Euro.dnom" horiz-adv-x="700" 
d="M162 252h-107v37h99q-4 25 0 102h-99v37h105q22 133 105.5 214t230.5 81q79 0 147 -31l-22 -37q-76 29 -125 29q-127 0 -199 -69t-94 -187h358l-10 -37h-354q-4 -76 0 -102h327l-10 -37h-309q21 -108 96 -172t195 -64q34 0 92 23l20 -39q-58 -23 -114 -23
q-136 0 -222 74.5t-110 200.5z" />
    <glyph glyph-name="Euro.numr" horiz-adv-x="702" 
d="M164 977h-107v37h99q-4 26 0 102h-99v37h105q22 133 105.5 214t230.5 81q79 0 147 -31l-22 -37q-76 29 -125 29q-127 0 -199 -69t-94 -187h358l-10 -37h-354q-4 -76 0 -102h327l-10 -37h-309q21 -108 96 -172t195 -64q34 0 92 23l20 -39q-58 -23 -114 -23
q-136 0 -222 74.5t-110 200.5z" />
    <glyph glyph-name="Euroinferior" horiz-adv-x="702" 
d="M164 -12h-107v37h99q-4 25 0 102h-99v37h105q22 133 105.5 214t230.5 81q79 0 147 -31l-22 -37q-76 29 -125 29q-127 0 -199 -69t-94 -187h358l-10 -37h-354q-4 -76 0 -102h327l-10 -37h-309q21 -108 96 -172t195 -64q34 0 92 23l20 -39q-58 -23 -114 -23
q-136 0 -222 74.5t-110 200.5z" />
    <glyph glyph-name="Eurosuperior" horiz-adv-x="702" 
d="M164 1184h-107v37h99q-4 25 0 102h-99v37h105q22 133 105.5 214t230.5 81q79 0 147 -31l-22 -37q-76 29 -125 29q-127 0 -199 -69t-94 -187h358l-10 -37h-354q-4 -77 0 -102h327l-10 -37h-309q21 -108 96 -172t195 -64q34 0 92 23l20 -39q-58 -23 -114 -23
q-136 0 -222 74.5t-110 200.5z" />
    <glyph glyph-name="a.alt" horiz-adv-x="1118" 
d="M901 270v205q-88 25 -206 41t-212 16q-177 0 -263.5 -70.5t-86.5 -178.5q0 -83 53 -143.5t129.5 -87.5t163.5 -27q113 0 232.5 65.5t189.5 179.5zM901 0v199q-83 -112 -194.5 -167t-233.5 -55q-98 0 -185.5 33t-147.5 104t-60 167q0 126 102 212.5t295 86.5
q101 0 222.5 -18.5t201.5 -43.5v92q0 379 -356 379q-216 0 -363 -108l-22 43q70 51 170.5 81.5t214.5 30.5q405 0 405 -426v-610h-49z" />
    <glyph glyph-name="aacute.alt" horiz-adv-x="1118" 
d="M684 1481h64l-218 -307h-38zM901 475v-205q-70 -114 -189.5 -179.5t-232.5 -65.5q-87 0 -163.5 27t-129.5 87.5t-53 143.5q0 108 86.5 178.5t263.5 70.5q94 0 212 -16t206 -41zM901 199v-199h49v610q0 426 -405 426q-114 0 -214.5 -30.5t-170.5 -81.5l22 -43
q147 108 363 108q356 0 356 -379v-92q-80 25 -201.5 43.5t-222.5 18.5q-193 0 -295 -86.5t-102 -212.5q0 -96 60 -167t147.5 -104t185.5 -33q122 0 233.5 55t194.5 167z" />
    <glyph glyph-name="abreve.alt" horiz-adv-x="1118" 
d="M553 1196q-112 0 -178.5 72t-77.5 186l39 4q14 -88 70 -152.5t149 -64.5q91 0 147 64.5t70 152.5l39 -4q-11 -114 -78 -186t-180 -72zM901 475v-205q-70 -114 -189.5 -179.5t-232.5 -65.5q-87 0 -163.5 27t-129.5 87.5t-53 143.5q0 108 86.5 178.5t263.5 70.5
q94 0 212 -16t206 -41zM901 199v-199h49v610q0 426 -405 426q-114 0 -214.5 -30.5t-170.5 -81.5l22 -43q147 108 363 108q356 0 356 -379v-92q-80 25 -201.5 43.5t-222.5 18.5q-193 0 -295 -86.5t-102 -212.5q0 -96 60 -167t147.5 -104t185.5 -33q122 0 233.5 55t194.5 167z
" />
    <glyph glyph-name="acircumflex.alt" horiz-adv-x="1118" 
d="M498 1481h63l225 -307h-38l-220 268l-217 -268h-39zM901 475v-205q-70 -114 -189.5 -179.5t-232.5 -65.5q-87 0 -163.5 27t-129.5 87.5t-53 143.5q0 108 86.5 178.5t263.5 70.5q94 0 212 -16t206 -41zM901 199v-199h49v610q0 426 -405 426q-114 0 -214.5 -30.5
t-170.5 -81.5l22 -43q147 108 363 108q356 0 356 -379v-92q-80 25 -201.5 43.5t-222.5 18.5q-193 0 -295 -86.5t-102 -212.5q0 -96 60 -167t147.5 -104t185.5 -33q122 0 233.5 55t194.5 167z" />
    <glyph glyph-name="acute.case" horiz-adv-x="649" 
d="M381 1851h63l-200 -284h-39z" />
    <glyph glyph-name="adieresis.alt" horiz-adv-x="1116" 
d="M285 1317q0 23 14 38t37 15t38 -15t15 -38t-15 -38t-38 -15t-37 15t-14 38zM709 1317q0 23 14 38t37 15t38 -15t15 -38t-15 -38t-38 -15t-37 15t-14 38zM899 475v-205q-70 -114 -189.5 -179.5t-232.5 -65.5q-87 0 -163.5 27t-129.5 87.5t-53 143.5q0 108 86.5 178.5
t263.5 70.5q94 0 212 -16t206 -41zM899 199v-199h49v610q0 426 -405 426q-114 0 -214.5 -30.5t-170.5 -81.5l22 -43q147 108 363 108q356 0 356 -379v-92q-80 25 -201.5 43.5t-222.5 18.5q-193 0 -295 -86.5t-102 -212.5q0 -96 60 -167t147.5 -104t185.5 -33q122 0 233.5 55
t194.5 167z" />
    <glyph glyph-name="agrave.alt" horiz-adv-x="1118" 
d="M328 1481h63l193 -307h-39zM901 475v-205q-70 -114 -189.5 -179.5t-232.5 -65.5q-87 0 -163.5 27t-129.5 87.5t-53 143.5q0 108 86.5 178.5t263.5 70.5q94 0 212 -16t206 -41zM901 199v-199h49v610q0 426 -405 426q-114 0 -214.5 -30.5t-170.5 -81.5l22 -43
q147 108 363 108q356 0 356 -379v-92q-80 25 -201.5 43.5t-222.5 18.5q-193 0 -295 -86.5t-102 -212.5q0 -96 60 -167t147.5 -104t185.5 -33q122 0 233.5 55t194.5 167z" />
    <glyph glyph-name="amacron.alt" horiz-adv-x="1118" 
d="M311 1368h467v-45h-467v45zM901 270v205q-88 25 -206 41t-212 16q-177 0 -263.5 -70.5t-86.5 -178.5q0 -83 53 -143.5t129.5 -87.5t163.5 -27q113 0 232.5 65.5t189.5 179.5zM901 0v199q-83 -112 -194.5 -167t-233.5 -55q-98 0 -185.5 33t-147.5 104t-60 167
q0 126 102 212.5t295 86.5q101 0 222.5 -18.5t201.5 -43.5v92q0 379 -356 379q-216 0 -363 -108l-22 43q70 51 170.5 81.5t214.5 30.5q405 0 405 -426v-610h-49z" />
    <glyph glyph-name="aogonek.alt" horiz-adv-x="1118" 
d="M901 16v183q-83 -112 -194.5 -167t-233.5 -55q-98 0 -185.5 33t-147.5 104t-60 167q0 126 102 212.5t295 86.5q101 0 222.5 -18.5t201.5 -43.5v92q0 379 -356 379q-216 0 -363 -108l-22 43q70 51 170.5 81.5t214.5 30.5q405 0 405 -426v-610q-153 -66 -153 -217
q0 -90 62.5 -143.5t146.5 -53.5t146.5 57.5t76.5 141.5l45 -25q-21 -95 -93.5 -157t-174.5 -62t-179 65t-77 177q0 56 34 120.5t117 112.5zM901 270v205q-88 25 -206 41t-212 16q-177 0 -263.5 -70.5t-86.5 -178.5q0 -83 53 -143.5t129.5 -87.5t163.5 -27q113 0 232.5 65.5
t189.5 179.5z" />
    <glyph glyph-name="aring.alt" horiz-adv-x="1118" 
d="M360 1350q0 72 52.5 124t124.5 52t124 -52t52 -124t-52 -124t-124 -52t-124.5 52t-52.5 124zM401 1350q0 -57 39.5 -96.5t96.5 -39.5t96 39.5t39 96.5t-39 96t-96 39t-96.5 -39t-39.5 -96zM901 475v-205q-70 -114 -189.5 -179.5t-232.5 -65.5q-87 0 -163.5 27
t-129.5 87.5t-53 143.5q0 108 86.5 178.5t263.5 70.5q94 0 212 -16t206 -41zM901 199v-199h49v610q0 426 -405 426q-114 0 -214.5 -30.5t-170.5 -81.5l22 -43q147 108 363 108q356 0 356 -379v-92q-80 25 -201.5 43.5t-222.5 18.5q-193 0 -295 -86.5t-102 -212.5
q0 -96 60 -167t147.5 -104t185.5 -33q122 0 233.5 55t194.5 167z" />
    <glyph glyph-name="aringacute.alt" horiz-adv-x="1118" 
d="M651 1632h64l-107 -141q66 -11 108 -52.5t42 -105.5q0 -70 -51 -114.5t-125 -44.5t-125 44.5t-51 114.5q0 66 46 110.5t115 49.5zM446 1333q0 -55 38.5 -87t97.5 -32t97 32t38 87t-38 87t-97 32t-97.5 -32t-38.5 -87zM901 475v-205q-70 -114 -189.5 -179.5t-232.5 -65.5
q-87 0 -163.5 27t-129.5 87.5t-53 143.5q0 108 86.5 178.5t263.5 70.5q94 0 212 -16t206 -41zM901 199v-199h49v610q0 426 -405 426q-114 0 -214.5 -30.5t-170.5 -81.5l22 -43q147 108 363 108q356 0 356 -379v-92q-80 25 -201.5 43.5t-222.5 18.5q-193 0 -295 -86.5
t-102 -212.5q0 -96 60 -167t147.5 -104t185.5 -33q122 0 233.5 55t194.5 167z" />
    <glyph glyph-name="at.case" horiz-adv-x="2152" 
d="M608 719q0 122 50.5 221.5t151 161t234.5 61.5q138 0 238 -65t148 -180v217h51v-717q0 -99 51.5 -146t136.5 -47q162 0 258 142t96 434q0 253 -115 453t-325.5 313.5t-480.5 113.5q-268 0 -484 -125t-337 -345t-121 -492q0 -273 112 -491.5t318.5 -344t472.5 -125.5
q250 0 416 68l12 -23q10 -13 10 -14q-195 -74 -438 -74q-210 0 -389 76.5t-302 209.5t-192 318.5t-69 399.5q0 170 48 325t137 278t210 213.5t274 139.5t322 49q215 0 396 -68t307.5 -189.5t197 -293t70.5 -372.5q0 -162 -29.5 -282t-85 -192t-128.5 -106.5t-165 -34.5
q-135 0 -187.5 77.5t-47.5 213.5v31q-50 -116 -148 -178t-233 -62q-197 0 -319 130.5t-122 320.5zM662 719q0 -171 106.5 -287.5t280.5 -116.5q167 0 274 109t107 289q0 178 -107 290.5t-279 112.5q-175 0 -278.5 -114.5t-103.5 -282.5z" />
    <glyph glyph-name="atilde.alt" horiz-adv-x="1118" 
d="M692 1278q-50 0 -136 46t-136 46q-34 0 -50.5 -18t-45.5 -78l-31 4q25 82 53 110.5t74 28.5q50 0 139.5 -46t132.5 -46q35 0 51.5 17t44.5 75l31 -4q-25 -81 -53 -108t-74 -27zM901 475v-205q-70 -114 -189.5 -179.5t-232.5 -65.5q-87 0 -163.5 27t-129.5 87.5t-53 143.5
q0 108 86.5 178.5t263.5 70.5q94 0 212 -16t206 -41zM901 199v-199h49v610q0 426 -405 426q-114 0 -214.5 -30.5t-170.5 -81.5l22 -43q147 108 363 108q356 0 356 -379v-92q-80 25 -201.5 43.5t-222.5 18.5q-193 0 -295 -86.5t-102 -212.5q0 -96 60 -167t147.5 -104
t185.5 -33q122 0 233.5 55t194.5 167z" />
    <glyph glyph-name="bitcoin" horiz-adv-x="1253" 
d="M612 1567v-195h33q119 0 214.5 -32t157.5 -105t62 -178q0 -120 -80.5 -209t-236.5 -123q188 -30 290.5 -125.5t102.5 -228.5q0 -145 -121.5 -229.5t-314.5 -84.5h-107v-204h-49v204h-119v-204h-49v204h-229v1315h229v195h49v-195h119v195h49zM612 696h-395v-592h502
q170 0 276.5 71.5t106.5 197.5q0 139 -130 231t-360 92zM645 1325h-428v-582h344q230 0 347.5 89t117.5 225q0 90 -53.5 152t-137 89t-190.5 27z" />
    <glyph glyph-name="braceleft.case" horiz-adv-x="540" 
d="M139 754l47 4q53 5 79 26t26 74q0 18 -4 42t-8 43t-13.5 49t-14 43.5t-15.5 45t-13 35.5q-76 218 -76 344q0 106 66 160.5t160 54.5q36 0 65 -10v-45q-19 8 -65 8q-77 0 -125.5 -45t-48.5 -137q0 -57 71.5 -297.5t71.5 -290.5q0 -113 -94 -139q94 -26 94 -137
q0 -32 -10.5 -78.5t-20 -75.5t-39.5 -119q-73 -223 -73 -315t48.5 -137t125.5 -45q46 0 65 8v-45q-32 -11 -65 -11q-94 0 -160 55t-66 161q0 126 76 344q2 4 13 35.5t15.5 45t14 43.5t13.5 49t8 43t4 42q0 53 -26 74t-79 26l-47 4v68z" />
    <glyph glyph-name="braceright.case" horiz-adv-x="540" 
d="M354 758l47 -4v-68l-47 -4q-53 -5 -78.5 -26t-25.5 -74q0 -16 2 -34t7.5 -40t9.5 -37.5t12.5 -42t12 -37t13 -37.5t10.5 -30q76 -224 76 -344q0 -106 -65.5 -161t-159.5 -55q-34 0 -66 11v45q19 -8 66 -8q77 0 125.5 45t48.5 137q0 89 -74 315q-28 83 -38.5 117.5
t-20.5 79t-10 76.5q0 111 94 137q-94 26 -94 139q0 50 71.5 290.5t71.5 297.5q0 92 -48.5 137t-125.5 45q-47 0 -66 -8v45q29 10 66 10q94 0 159.5 -54.5t65.5 -160.5q0 -120 -76 -344q-1 -3 -10.5 -30t-13 -37.5t-12 -37t-12.5 -42t-9.5 -37.5t-7.5 -40t-2 -34
q0 -53 25.5 -74t78.5 -26z" />
    <glyph glyph-name="bracketleft.case" horiz-adv-x="544" 
d="M174 1663h303v-45h-252v-1800h252v-45h-303v1890z" />
    <glyph glyph-name="bracketright.case" horiz-adv-x="544" 
d="M68 1663h303v-1890h-303v45h251v1800h-251v45z" />
    <glyph glyph-name="breve.case" horiz-adv-x="923" 
d="M461 1573q-112 0 -178.5 72t-77.5 186l39 4q14 -88 70 -152.5t149 -64.5q91 0 147 64.5t70 152.5l39 -4q-11 -114 -78 -186t-180 -72z" />
    <glyph glyph-name="bullet.case" horiz-adv-x="780" 
d="M195 719q0 79 57.5 136.5t136.5 57.5q80 0 139.5 -57.5t59.5 -136.5t-59.5 -137t-139.5 -58t-137 57t-57 138z" />
    <glyph glyph-name="caron.case" horiz-adv-x="890" 
d="M205 1851h41l198 -245l201 245h41l-209 -284h-63z" />
    <glyph glyph-name="cedilla.case" horiz-adv-x="933" 
d="M547 16h31q83 -48 117 -112.5t34 -120.5q0 -112 -77 -177t-179 -65t-174.5 62t-93.5 157l45 25q14 -84 76.5 -141.5t146.5 -57.5t146.5 53.5t62.5 143.5q0 136 -135 217v16z" />
    <glyph glyph-name="cent.case" horiz-adv-x="1155" 
d="M520 0h-57l43 215q-184 48 -286 184.5t-107 321.5q0 111 38.5 207.5t110 168.5t181.5 113t245 41h19l38 183h58l-39 -189q147 -19 270 -104l-26 -39q-116 81 -252 100l-187 -954q65 -10 119 -10q175 0 320 104l26 -39q-88 -60 -181 -85t-165 -25q-61 0 -129 10zM164 721
q5 -168 95.5 -291.5t254.5 -169.5l184 946h-10q-122 0 -221.5 -37.5t-164 -103.5t-100.5 -154t-38 -190z" />
    <glyph glyph-name="cent.dnom" horiz-adv-x="612" 
d="M266 -18h-39l21 112q-85 29 -131.5 96.5t-48.5 155.5q0 115 77 191.5t203 76.5h2l21 97h41l-21 -99q83 -12 150 -59l-23 -29q-55 37 -133 49l-90 -452q12 -4 59 -4q89 0 164 51l23 -29q-89 -61 -191 -61q-36 0 -63 6zM109 346q2 -75 40.5 -133t106.5 -82l88 444
q-107 -4 -168.5 -68t-66.5 -161z" />
    <glyph glyph-name="cent.numr" horiz-adv-x="612" 
d="M266 707h-39l21 112q-85 29 -131.5 96.5t-48.5 155.5q0 115 77 191.5t203 76.5h2l21 97h41l-21 -99q83 -12 150 -59l-23 -29q-55 37 -133 49l-90 -452q12 -4 59 -4q89 0 164 51l23 -29q-89 -61 -191 -61q-36 0 -63 6zM109 1071q2 -75 40.5 -133t106.5 -82l88 444
q-107 -4 -168.5 -68t-66.5 -161z" />
    <glyph glyph-name="circumflex.case" horiz-adv-x="890" 
d="M246 1567h-41l209 284h63l209 -284h-41l-201 245z" />
    <glyph glyph-name="comma.dnom" horiz-adv-x="294" 
d="M131 -164l-16 19q51 59 51 133q0 10 -4 26q-6 -6 -25 -6q-17 0 -27 11t-10 28t11 27t30 10q27 0 40.5 -28t13.5 -68q0 -88 -64 -152z" />
    <glyph glyph-name="comma.numr" horiz-adv-x="309" 
d="M139 604l-16 19q51 59 51 133q0 10 -4 26q-6 -6 -25 -6q-17 0 -26.5 10.5t-9.5 28.5q0 17 11 27t30 10q27 0 40 -28t13 -68q0 -88 -64 -152z" />
    <glyph glyph-name="commaaccent.case" horiz-adv-x="622" 
d="M289 -469l-25 27q72 76 72 182q0 25 -6 37q-8 -8 -33 -8q-23 0 -37 15t-14 38t15 37t40 14q38 0 57 -39.5t19 -93.5q0 -115 -88 -209z" />
    <glyph glyph-name="dieresis.case" horiz-adv-x="1060" 
d="M266 1688q0 23 14 38t37 15t38.5 -15t15.5 -38t-15.5 -38.5t-38.5 -15.5t-37 15t-14 39zM690 1688q0 23 14 38t37 15t38.5 -15t15.5 -38t-15.5 -38.5t-38.5 -15.5t-37 15t-14 39z" />
    <glyph glyph-name="dollar.dnom" horiz-adv-x="575" 
d="M272 692v92h35v-92q66 -4 115 -43t67 -96l-36 -12q-12 45 -52 75.5t-94 34.5v-274l47 -15q63 -20 109.5 -65.5t46.5 -108.5q0 -71 -55 -122.5t-148 -55.5v-96h-35v96q-82 4 -137 43t-80 97l41 12q20 -44 65 -76.5t111 -36.5v297l-47 16q-143 48 -143 156q0 73 55 121
t135 53zM467 188q0 88 -123 136l-37 12v-287q73 4 116.5 43.5t43.5 95.5zM125 520q0 -81 113 -121l34 -12v266q-63 -5 -105 -41t-42 -92z" />
    <glyph glyph-name="dollar.numr" horiz-adv-x="575" 
d="M272 1417v92h35v-92q66 -4 115 -43t67 -96l-36 -12q-12 45 -52 75.5t-94 34.5v-274l47 -15q63 -20 109.5 -65.5t46.5 -108.5q0 -71 -55 -122.5t-148 -55.5v-96h-35v96q-82 4 -137 42.5t-80 96.5l41 13q20 -44 65 -76.5t111 -36.5v297l-47 16q-143 48 -143 156
q0 73 55 121t135 53zM467 913q0 88 -123 136l-37 12v-287q73 4 116.5 43.5t43.5 95.5zM125 1245q0 -81 113 -121l34 -12v266q-63 -5 -105 -41t-42 -92z" />
    <glyph glyph-name="dotaccent.case" horiz-adv-x="520" 
d="M213 1704q0 57 47 57t47 -57t-47 -57t-47 57z" />
    <glyph glyph-name="eight.dnom" horiz-adv-x="710" 
d="M604 537q0 -52 -29 -96.5t-86 -69.5q70 -25 109 -71t39 -107q0 -93 -79.5 -154.5t-203.5 -61.5q-123 0 -201.5 60.5t-78.5 157.5q0 60 35.5 107t107.5 71q-53 26 -82 70t-29 94q0 82 70 134t180 52q109 0 178.5 -53t69.5 -133zM348 352q-108 0 -169.5 -44.5t-61.5 -117.5
q0 -76 66 -125t171 -49t172.5 49.5t67.5 122.5t-67.5 118.5t-178.5 45.5zM150 535q0 -65 52.5 -106.5t147.5 -41.5q100 0 155.5 42.5t55.5 107.5q0 67 -55.5 107t-151.5 40q-92 0 -148 -41t-56 -108z" />
    <glyph glyph-name="eight.numr" horiz-adv-x="710" 
d="M604 1262q0 -52 -29 -96.5t-86 -69.5q70 -25 109 -71t39 -107q0 -93 -79.5 -154.5t-203.5 -61.5q-123 0 -201.5 60.5t-78.5 157.5q0 60 35.5 107t107.5 71q-53 26 -82 70t-29 94q0 82 70 134t180 52q109 0 178.5 -53t69.5 -133zM348 1077q-108 0 -169.5 -44.5
t-61.5 -117.5q0 -76 66 -125t171 -49t172.5 49.5t67.5 122.5t-67.5 118.5t-178.5 45.5zM150 1260q0 -65 52.5 -106.5t147.5 -41.5q100 0 155.5 42.5t55.5 107.5q0 67 -55.5 107t-151.5 40q-92 0 -148 -41t-56 -108z" />
    <glyph glyph-name="eight.oldstyle" horiz-adv-x="1345" 
d="M1159 1012q0 -103 -70.5 -186.5t-201.5 -123.5q166 -36 253 -122t87 -209q0 -171 -156 -282.5t-399 -111.5q-240 0 -396.5 111.5t-156.5 278.5q0 120 85 209t249 129q-130 40 -199.5 122t-69.5 183q0 148 137 243t353 95q215 0 350 -95.5t135 -240.5zM666 678
q-236 0 -365 -88.5t-129 -222.5q0 -149 140.5 -245.5t359.5 -96.5q220 0 361 97t141 247q0 137 -130.5 223t-377.5 86zM670 719q205 0 320.5 82.5t115.5 210.5t-120 208t-314 80t-314 -80t-120 -208t113 -210.5t319 -82.5z" />
    <glyph glyph-name="eight.taboldstyle" horiz-adv-x="1392" 
d="M1184 1012q0 -103 -70.5 -186.5t-202.5 -123.5q166 -36 253 -122t87 -209q0 -171 -156 -282.5t-399 -111.5q-240 0 -396.5 111.5t-156.5 278.5q0 120 85 209t249 129q-130 40 -199 122t-69 183q0 148 136.5 243t352.5 95q215 0 350.5 -96t135.5 -240zM690 678
q-236 0 -364.5 -88.5t-128.5 -222.5q0 -150 140 -246t359 -96q220 0 361 97t141 247q0 137 -130.5 223t-377.5 86zM694 719q205 0 320.5 82.5t115.5 210.5t-120 208t-314 80t-314 -80t-120 -208t113 -210.5t319 -82.5z" />
    <glyph glyph-name="eight.tnum" horiz-adv-x="1392" 
d="M1184 1094q0 -113 -70.5 -202.5t-202.5 -131.5q166 -41 253 -135t87 -226q0 -184 -156 -304t-399 -120t-399 119.5t-156 300.5q0 129 85.5 227t248.5 140q-130 42 -198 130t-68 200q0 159 136.5 261.5t350.5 102.5q217 0 352.5 -102.5t135.5 -259.5zM696 731
q-100 0 -139 -6q-179 -30 -270.5 -117t-91.5 -213q0 -161 140.5 -266.5t360.5 -105.5t361 106.5t141 269.5q0 128 -95 211.5t-278 112.5q-57 8 -129 8zM561 784q47 -6 135 -6q82 0 129 6q145 28 225 113t80 197q0 137 -120.5 226t-313.5 89q-192 0 -313 -88.5t-121 -228.5
q0 -110 77.5 -195t221.5 -113z" />
    <glyph glyph-name="emdash.case" horiz-adv-x="1642" 
d="M154 737h1331v-45h-1331v45z" />
    <glyph glyph-name="endash.case" horiz-adv-x="1114" 
d="M154 737h807v-45h-807v45z" />
    <glyph glyph-name="exclamdown.case" horiz-adv-x="444" 
d="M248 260l-12 772h-27l-12 -772v-260h51v260zM170 1403q0 23 14 38t37 15t38 -15t15 -38t-15 -38t-38 -15t-37 15t-14 38z" />
    <glyph glyph-name="five.dnom" horiz-adv-x="630" 
d="M121 371l-31 8l23 332h401v-39h-364l-19 -258q88 43 180 43q126 0 193 -71t67 -171t-69.5 -169t-194.5 -69q-59 0 -123.5 19t-107.5 47l22 31q38 -24 96.5 -41t110.5 -17q109 0 166 57t57 142q0 86 -54.5 145.5t-162.5 59.5q-100 0 -190 -49z" />
    <glyph glyph-name="five.numr" horiz-adv-x="632" 
d="M123 1096l-31 8l23 332h401v-39h-364l-19 -258q88 43 180 43q126 0 193 -71t67 -171t-69.5 -169t-194.5 -69q-59 0 -123.5 19t-107.5 47l22 31q38 -24 96.5 -41t110.5 -17q109 0 166 56.5t57 142.5t-54.5 145.5t-162.5 59.5q-100 0 -190 -49z" />
    <glyph glyph-name="five.oldstyle" horiz-adv-x="1165" 
d="M186 393l-2 2l-41 21l45 598h781v-47h-736l-38 -521q200 91 383 91q127 0 225.5 -37t158 -99.5t89.5 -139.5t30 -163q0 -88 -32.5 -165t-95 -137t-162 -95t-224.5 -35t-250.5 32.5t-199.5 80.5l30 37q69 -45 186.5 -74t229.5 -29q223 0 344 110.5t121 276.5
q0 77 -27.5 145t-80.5 123.5t-141 88t-201 32.5q-192 0 -388 -94z" />
    <glyph glyph-name="five.taboldstyle" horiz-adv-x="1392" 
d="M301 393l-2 2l-41 21l45 598h780v-47h-735l-39 -521q200 91 383 91q127 0 226 -37t158 -99.5t89.5 -139.5t30.5 -163q0 -88 -32.5 -165t-95 -137t-162 -95t-224.5 -35t-251 32.5t-200 80.5l31 37q69 -45 186.5 -74t229.5 -29q223 0 344 110.5t121 276.5q0 77 -27.5 145
t-81 123.5t-141.5 88t-201 32.5q-191 0 -387 -94z" />
    <glyph glyph-name="five.tnum" horiz-adv-x="1392" 
d="M299 764l-2 2l-41 20l45 648h782v-48h-737l-39 -565q193 94 383 94q127 0 226 -39.5t159 -106.5t90.5 -149.5t30.5 -175.5q0 -95 -32.5 -178.5t-95 -148.5t-162.5 -102.5t-226 -37.5q-124 0 -249.5 35t-201.5 86l31 37q68 -49 185 -79.5t231 -30.5t204.5 34t147 92.5
t86 133.5t29.5 161q0 83 -27.5 157t-81 134t-142.5 95.5t-202 35.5q-188 0 -387 -102v-2h-4z" />
    <glyph glyph-name="florin.dnom" horiz-adv-x="540" 
d="M285 350v-395q0 -201 -172 -201q-31 0 -64 13l19 36q23 -10 45 -10q131 0 131 162v395h-90v37h90v135q0 60 16 102t43 62t55 28.5t60 8.5q31 0 63 -14l-22 -33q-19 8 -41 8q-24 0 -45 -6.5t-42 -22.5t-33.5 -50t-12.5 -83v-135h161v-37h-161z" />
    <glyph glyph-name="florin.numr" horiz-adv-x="542" 
d="M287 1075v-395q0 -201 -172 -201q-31 0 -64 13l19 36q23 -10 45 -10q131 0 131 162v395h-90v37h90v135q0 60 16 102t43 62t55 28.5t60 8.5q31 0 63 -14l-22 -33q-19 8 -41 8q-24 0 -45 -6.5t-42 -22.5t-33.5 -50t-12.5 -83v-135h162v-37h-162z" />
    <glyph glyph-name="florininferior" horiz-adv-x="538" 
d="M283 86v-395q0 -201 -172 -201q-34 0 -64 12l19 37q23 -10 45 -10q131 0 131 162v395h-90v37h90v135q0 60 16 102t43 62t55 28.5t60 8.5q28 0 63 -15l-22 -32q-19 8 -41 8q-24 0 -45 -6.5t-42 -22.5t-33.5 -50t-12.5 -83v-135h161v-37h-161z" />
    <glyph glyph-name="florinsuperior" horiz-adv-x="538" 
d="M283 1282v-395q0 -201 -172 -201q-34 0 -64 12l19 37q23 -10 45 -10q131 0 131 162v395h-90v37h90v135q0 60 16 102t43 62t55 28.5t60 8.5q28 0 63 -15l-22 -32q-19 8 -41 8q-24 0 -45 -6.5t-42 -22.5t-33.5 -50t-12.5 -83v-135h161v-37h-161z" />
    <glyph glyph-name="four.dnom" horiz-adv-x="714" 
d="M98 238h365v397zM463 197h-424v26l438 488h27v-473h168v-41h-168v-197h-41v197z" />
    <glyph glyph-name="four.numr" horiz-adv-x="714" 
d="M98 963h365v397zM463 922h-424v26l438 488h27v-473h168v-41h-168v-197h-41v197z" />
    <glyph glyph-name="four.oldstyle" horiz-adv-x="1376" 
d="M139 141h762v777zM901 90h-844v37l865 887h30v-873h344v-51h-344v-424h-51v424z" />
    <glyph glyph-name="four.taboldstyle" horiz-adv-x="1392" 
d="M147 141h762v777zM909 90h-843v37l864 887h31v-873h344v-51h-344v-424h-52v424z" />
    <glyph glyph-name="four.tnum" horiz-adv-x="1392" 
d="M145 475h781v862zM926 428h-863v33l883 973h31v-959h344v-47h-344v-428h-51v428z" />
    <glyph glyph-name="g.alt" horiz-adv-x="1136" 
d="M328 348q-111 -51 -119 -147q0 -39 13 -67t30.5 -43t47.5 -24.5t51.5 -12.5t56.5 -5l368 -8q73 0 129.5 -17t89 -42.5t53.5 -59t28 -63t7 -58.5q0 -129 -137.5 -205.5t-382.5 -76.5q-95 0 -183.5 17t-166.5 51t-125 95t-47 140q0 138 154 250q-37 43 -37 125
q0 107 123 180q-75 52 -117.5 127t-42.5 160q0 154 129.5 262t312.5 108q102 0 190.5 -36t149.5 -99q46 9 89.5 46t43.5 91q0 37 -6 43h51q6 -24 6 -45q0 -66 -45.5 -111t-103.5 -63q68 -89 68 -196q0 -101 -59.5 -186.5t-161.5 -135t-222 -49.5q-122 0 -235 55zM172 664
q0 -134 115 -229t276 -95t276 95t115 229q0 133 -115 228t-276 95t-276 -95t-115 -228zM92 -178q0 -65 42 -116t112 -80.5t150.5 -44.5t166.5 -15q219 0 344 64.5t125 170.5q0 30 -11 60t-37 62t-80 51.5t-128 19.5l-370 8q-7 1 -28.5 3t-31.5 3t-29 4t-31 6.5t-26.5 9.5
t-26.5 13q-141 -99 -141 -219z" />
    <glyph glyph-name="gbreve.alt" horiz-adv-x="1136" 
d="M571 1196q-112 0 -178.5 72t-77.5 186l39 4q14 -88 70 -152.5t149 -64.5q91 0 148 64.5t70 152.5l38 -4q-11 -114 -78 -186t-180 -72zM328 348q113 -55 235 -55q120 0 222 49.5t161.5 135t59.5 186.5q0 107 -68 196q58 18 103.5 63t45.5 111q0 21 -6 45h-51q6 -6 6 -43
q0 -54 -43.5 -91t-89.5 -46q-61 63 -149.5 99t-190.5 36q-183 0 -312.5 -108t-129.5 -262q0 -85 42.5 -160t117.5 -127q-123 -73 -123 -180q0 -82 37 -125q-154 -112 -154 -250q0 -79 47 -140t125 -95t166.5 -51t183.5 -17q245 0 382.5 76.5t137.5 205.5q0 29 -7 58.5
t-28 63t-53.5 59t-89 42.5t-129.5 17l-368 8q-35 2 -56.5 5t-51.5 12.5t-47.5 24.5t-30.5 43t-13 67q8 96 119 147zM172 664q0 133 115 228t276 95t276 -95t115 -228q0 -134 -115 -229t-276 -95t-276 95t-115 229zM92 -178q0 120 141 219q14 -9 29.5 -15t38 -10.5t32 -6
t40.5 -4.5t33 -3l370 -8q74 0 128 -19.5t80 -51.5t37 -62t11 -60q0 -106 -125 -170.5t-344 -64.5q-86 0 -166.5 15t-150.5 44.5t-112 80.5t-42 116z" />
    <glyph glyph-name="gcircumflex.alt" horiz-adv-x="1136" 
d="M549 1481h63l226 -307h-39l-219 268l-218 -268h-38zM328 348q113 -55 235 -55q120 0 222 49.5t161.5 135t59.5 186.5q0 107 -68 196q58 18 103.5 63t45.5 111q0 21 -6 45h-51q6 -6 6 -43q0 -54 -43.5 -91t-89.5 -46q-61 63 -149.5 99t-190.5 36q-183 0 -312.5 -108
t-129.5 -262q0 -85 42.5 -160t117.5 -127q-123 -73 -123 -180q0 -82 37 -125q-154 -112 -154 -250q0 -79 47 -140t125 -95t166.5 -51t183.5 -17q245 0 382.5 76.5t137.5 205.5q0 29 -7 58.5t-28 63t-53.5 59t-89 42.5t-129.5 17l-368 8q-35 2 -56.5 5t-51.5 12.5t-47.5 24.5
t-30.5 43t-13 67q8 96 119 147zM172 664q0 133 115 228t276 95t276 -95t115 -228q0 -134 -115 -229t-276 -95t-276 95t-115 229zM92 -178q0 120 141 219q14 -9 29.5 -15t38 -10.5t32 -6t40.5 -4.5t33 -3l370 -8q74 0 128 -19.5t80 -51.5t37 -62t11 -60q0 -106 -125 -170.5
t-344 -64.5q-86 0 -166.5 15t-150.5 44.5t-112 80.5t-42 116z" />
    <glyph glyph-name="gcommaaccent.alt" horiz-adv-x="1136" 
d="M328 348q113 -55 235 -55q120 0 222 49.5t161.5 135t59.5 186.5q0 107 -68 196q58 18 103.5 63t45.5 111q0 21 -6 45h-51q6 -6 6 -43q0 -54 -43.5 -91t-89.5 -46q-61 63 -149.5 99t-190.5 36q-183 0 -312.5 -108t-129.5 -262q0 -85 42.5 -160t117.5 -127
q-123 -73 -123 -180q0 -82 37 -125q-154 -112 -154 -250q0 -79 47 -140t125 -95t166.5 -51t183.5 -17q245 0 382.5 76.5t137.5 205.5q0 29 -7 58.5t-28 63t-53.5 59t-89 42.5t-129.5 17l-368 8q-35 2 -56.5 5t-51.5 12.5t-47.5 24.5t-30.5 43t-13 67q8 96 119 147zM172 664
q0 133 115 228t276 95t276 -95t115 -228q0 -134 -115 -229t-276 -95t-276 95t-115 229zM92 -178q0 120 141 219q14 -9 29.5 -15t38 -10.5t32 -6t40.5 -4.5t33 -3l370 -8q74 0 128 -19.5t80 -51.5t37 -62t11 -60q0 -106 -125 -170.5t-344 -64.5q-86 0 -166.5 15t-150.5 44.5
t-112 80.5t-42 116zM569 1516l25 -27q-72 -76 -72 -182q0 -25 6 -37q8 8 33 8q23 0 37 -15t14 -38t-15 -37t-40 -14q-38 0 -57 39.5t-19 93.5q0 115 88 209z" />
    <glyph glyph-name="gdotaccent.alt" horiz-adv-x="1136" 
d="M514 1307q0 57 47 57t47 -57q0 -58 -47 -58t-47 58zM328 348q113 -55 235 -55q120 0 222 49.5t161.5 135t59.5 186.5q0 107 -68 196q58 18 103.5 63t45.5 111q0 21 -6 45h-51q6 -6 6 -43q0 -54 -43.5 -91t-89.5 -46q-61 63 -149.5 99t-190.5 36q-183 0 -312.5 -108
t-129.5 -262q0 -85 42.5 -160t117.5 -127q-123 -73 -123 -180q0 -82 37 -125q-154 -112 -154 -250q0 -79 47 -140t125 -95t166.5 -51t183.5 -17q245 0 382.5 76.5t137.5 205.5q0 29 -7 58.5t-28 63t-53.5 59t-89 42.5t-129.5 17l-368 8q-35 2 -56.5 5t-51.5 12.5t-47.5 24.5
t-30.5 43t-13 67q8 96 119 147zM172 664q0 133 115 228t276 95t276 -95t115 -228q0 -134 -115 -229t-276 -95t-276 95t-115 229zM92 -178q0 120 141 219q14 -9 29.5 -15t38 -10.5t32 -6t40.5 -4.5t33 -3l370 -8q74 0 128 -19.5t80 -51.5t37 -62t11 -60q0 -106 -125 -170.5
t-344 -64.5q-86 0 -166.5 15t-150.5 44.5t-112 80.5t-42 116z" />
    <glyph glyph-name="grave.case" horiz-adv-x="649" 
d="M205 1851h63l176 -284h-38z" />
    <glyph glyph-name="guillemotleft.case" horiz-adv-x="1054" 
d="M123 719l342 393l37 -29l-318 -364l318 -365l-37 -28zM520 719l342 393l37 -29l-317 -364l317 -365l-37 -28z" />
    <glyph glyph-name="guillemotright.case" horiz-adv-x="1054" 
d="M590 1112l342 -393l-342 -393l-37 28l317 365l-317 364zM193 1112l342 -393l-342 -393l-37 28l317 365l-317 364z" />
    <glyph glyph-name="guilsinglleft.case" horiz-adv-x="657" 
d="M123 719l342 393l37 -29l-318 -364l318 -365l-37 -28z" />
    <glyph glyph-name="guilsinglright.case" horiz-adv-x="657" 
d="M193 1112l342 -393l-342 -393l-37 28l317 365l-317 364z" />
    <glyph glyph-name="hungarumlaut.case" horiz-adv-x="925" 
d="M520 1567h-41l178 284h64zM246 1567h-41l178 284h63z" />
    <glyph glyph-name="hyphen.case" horiz-adv-x="890" 
d="M162 741h567v-45h-567v45z" />
    <glyph glyph-name="hyphen.dnom" horiz-adv-x="540" 
d="M102 387h336v-39h-336v39z" />
    <glyph glyph-name="hyphen.numr" horiz-adv-x="540" 
d="M102 1112h336v-39h-336v39z" />
    <glyph glyph-name="macron.case" horiz-adv-x="876" 
d="M205 1710h467v-45h-467v45z" />
    <glyph glyph-name="nine.dnom" horiz-adv-x="663" 
d="M545 377v8q-33 -62 -101.5 -94.5t-136.5 -32.5q-99 0 -174.5 66t-75.5 170q0 102 73.5 165.5t180.5 63.5q132 0 204.5 -94.5t72.5 -255.5q0 -169 -79 -282.5t-212 -113.5q-51 0 -96.5 16.5t-73.5 41.5l29 24q21 -18 62 -30.5t81 -12.5q114 0 180 101.5t66 259.5zM537 469
q0 17 -7 45q-20 67 -78.5 119.5t-144.5 52.5q-88 0 -147.5 -54t-59.5 -140q0 -88 62 -141.5t145 -53.5q52 0 104 20t89 61t37 91z" />
    <glyph glyph-name="nine.numr" horiz-adv-x="661" 
d="M543 1102v8q-33 -62 -101.5 -94.5t-136.5 -32.5q-99 0 -174.5 66t-75.5 170q0 102 73.5 165.5t180.5 63.5q132 0 204.5 -94.5t72.5 -255.5q0 -169 -79 -282.5t-212 -113.5q-51 0 -96.5 16.5t-73.5 41.5l29 24q21 -18 62 -30.5t81 -12.5q114 0 180 101.5t66 259.5z
M535 1194q0 17 -7 45q-20 67 -78.5 119.5t-144.5 52.5q-88 0 -147.5 -54t-59.5 -140q0 -88 62 -141.5t145 -53.5q52 0 104 20t89 61t37 91z" />
    <glyph glyph-name="nine.oldstyle" horiz-adv-x="1236" 
d="M1069 385q0 47 -2 70h-8q-34 -82 -116.5 -145t-178 -93.5t-186.5 -30.5q-99 0 -189.5 30.5t-159.5 84.5t-110 134.5t-41 174.5q0 128 66.5 226t178 149t248.5 51q263 0 407 -175.5t144 -475.5q0 -150 -40 -280.5t-113 -228.5t-184.5 -154t-247.5 -56q-97 0 -183.5 24.5
t-130.5 61.5l37 35q44 -33 116.5 -53.5t160.5 -20.5q164 0 286.5 90.5t184 241.5t61.5 340zM1042 573q0 49 -12 86q-50 157 -168.5 243.5t-290.5 86.5q-188 0 -314 -104t-126 -275q0 -111 63 -198.5t164 -133t220 -45.5q101 0 206 40.5t181.5 121t76.5 178.5z" />
    <glyph glyph-name="nine.taboldstyle" horiz-adv-x="1392" 
d="M1147 385q0 47 -2 70h-8q-34 -82 -117 -145t-178.5 -93.5t-186.5 -30.5q-99 0 -189.5 30.5t-159 84.5t-109.5 134.5t-41 174.5q0 128 66.5 226t178 149t248.5 51q263 0 407 -175.5t144 -475.5q0 -201 -68 -363t-203 -259t-315 -97q-96 0 -182.5 24.5t-130.5 61.5l37 35
q99 -74 276 -74q164 0 287 90.5t184.5 241.5t61.5 340zM1120 573q0 49 -12 86q-50 157 -168.5 243.5t-290.5 86.5q-188 0 -314 -104t-126 -275q0 -111 62.5 -198.5t163.5 -133t220 -45.5q74 0 155 24.5t150.5 67t114.5 108.5t45 140z" />
    <glyph glyph-name="nine.tnum" horiz-adv-x="1392" 
d="M1145 754q0 50 -2 75h-8q-34 -89 -116.5 -157.5t-177.5 -101.5t-186 -33q-132 0 -244.5 56t-182.5 162t-70 240q0 139 66.5 245t177.5 161t247 55q261 0 405 -189.5t144 -512.5q0 -218 -68 -393t-202.5 -279.5t-313.5 -104.5q-96 0 -181 26.5t-130 66.5l37 32
q98 -77 274 -77q163 0 285.5 99t184 263t61.5 367zM1118 956q0 53 -12 93q-50 170 -168 265t-289 95q-185 0 -311.5 -114t-126.5 -300q0 -90 36.5 -167.5t98 -128.5t142 -80t167.5 -29q74 0 154.5 26.5t150 72.5t114 116.5t44.5 150.5z" />
    <glyph glyph-name="ogonek.case" horiz-adv-x="933" 
d="M356 16h31v-16q-135 -81 -135 -217q0 -90 62.5 -143.5t146.5 -53.5t146.5 57.5t76.5 141.5l45 -25q-21 -95 -93.5 -157t-174.5 -62t-179 65t-77 177q0 56 34 120.5t117 112.5z" />
    <glyph glyph-name="one.dnom" horiz-adv-x="370" 
d="M41 569l-6 37l211 103h22v-709h-41v653z" />
    <glyph glyph-name="one.numr" horiz-adv-x="370" 
d="M41 1294l-6 37l211 103h22v-709h-41v653z" />
    <glyph glyph-name="one.oldstyle" horiz-adv-x="980" 
d="M571 47h365v-47h-803v47h387v899l-385 -182l-10 49l416 201h30v-967z" />
    <glyph glyph-name="one.taboldstyle" horiz-adv-x="1392" 
d="M776 47h365v-47h-803v47h387v899l-385 -182l-10 49l415 201h31v-967z" />
    <glyph glyph-name="one.tnum" horiz-adv-x="1392" 
d="M782 47h346v-47h-774v47h377v1319l-385 -182l-10 49l416 201h30v-1387z" />
    <glyph glyph-name="parenleft.case" horiz-adv-x="581" 
d="M117 719q0 147 29 288t70 242.5t96.5 195.5t97 147t84.5 98l36 -25q-40 -42 -80.5 -94.5t-93.5 -143.5t-92 -190.5t-66.5 -237t-27.5 -280.5t27.5 -280.5t66.5 -237t92 -190.5t93.5 -143.5t80.5 -94.5l-36 -25q-43 45 -84.5 98t-97 147t-96.5 195.5t-70 242.5t-29 288z
" />
    <glyph glyph-name="parenleft.dnom" horiz-adv-x="385" 
d="M92 332q0 271 193 487q7 -3 15 -10t15 -10q-28 -31 -54.5 -69t-57.5 -97t-49.5 -138t-18.5 -163t19 -162.5t50 -138t57 -97.5t54 -69l-32 -19q-29 32 -56 71.5t-60.5 102t-54 144.5t-20.5 168z" />
    <glyph glyph-name="parenleft.numr" horiz-adv-x="385" 
d="M92 1057q0 271 193 487q7 -3 15 -10t15 -10q-28 -31 -54.5 -69t-57.5 -97t-49.5 -138t-18.5 -163t19 -162.5t50 -138t57 -97.5t54 -69l-32 -19q-29 32 -56 71.5t-60.5 102t-54 144.5t-20.5 168z" />
    <glyph glyph-name="parenright.case" horiz-adv-x="581" 
d="M465 719q0 -147 -29 -288t-70 -242.5t-96.5 -195.5t-97 -147t-84.5 -98l-37 25q40 42 81 94.5t93.5 143.5t92 190.5t67 237t27.5 280.5t-27.5 280.5t-67 237t-92 190.5t-93.5 143.5t-81 94.5l37 25q43 -45 84.5 -98t97 -147t96.5 -195.5t70 -242.5t29 -288z" />
    <glyph glyph-name="parenright.dnom" horiz-adv-x="385" 
d="M293 332q0 -86 -20.5 -168t-54 -144.5t-60.5 -102t-56 -71.5l-32 19q28 31 54 69t57 97.5t50 138t19 162.5t-18.5 163t-49.5 138t-57.5 97t-54.5 69q7 3 15 10t15 10q193 -216 193 -487z" />
    <glyph glyph-name="parenright.numr" horiz-adv-x="385" 
d="M293 1057q0 -86 -20.5 -168t-54 -144.5t-60.5 -102t-56 -71.5l-32 19q28 31 54 69t57 97.5t50 138t19 162.5t-18.5 163t-49.5 138t-57.5 97t-54.5 69q7 3 15 10t15 10q193 -216 193 -487z" />
    <glyph glyph-name="period.dnom" horiz-adv-x="288" 
d="M143 -23q-34 0 -34 39t34 39q37 0 37 -39t-37 -39z" />
    <glyph glyph-name="period.numr" horiz-adv-x="288" 
d="M143 702q-34 0 -34 39t34 39q37 0 37 -39t-37 -39z" />
    <glyph glyph-name="periodcentered.case" horiz-adv-x="428" 
d="M162 711q0 23 14 38t37 15t38 -15t15 -38t-15 -38.5t-38 -15.5t-37 15t-14 39z" />
    <glyph glyph-name="questiondown.case" horiz-adv-x="1032" 
d="M557 1036h51v-90q0 -35 -2 -50t-12.5 -37.5t-34.5 -42t-67 -46.5q-39 -23 -61.5 -36.5t-65.5 -43t-69.5 -53t-61 -59.5t-54 -70t-33.5 -77.5t-14 -88.5q0 -143 115 -230t282 -87q78 0 142.5 16t105.5 41t69 57.5t40 64.5t12 64q0 41 -6 72h49q8 -41 8 -72
q0 -38 -13.5 -77t-45.5 -78t-78.5 -68.5t-120 -48.5t-162.5 -19q-188 0 -318 101t-130 264q0 44 10 85.5t31.5 79t43 68t56.5 62.5t59.5 53t65.5 48t60 38.5l57 34.5q64 38 78 63t14 72v90zM635 1403q0 -23 -14 -38t-37 -15t-38.5 15t-15.5 38t15.5 38t38.5 15t37 -15
t14 -38z" />
    <glyph glyph-name="ring.case" horiz-adv-x="761" 
d="M205 1722q0 70 51 113t125 43t125 -43t51 -113t-51 -112.5t-125 -42.5t-125 42.5t-51 112.5zM246 1722q0 -56 38 -88t97 -32t97 32t38 88t-38 88.5t-97 32.5t-97 -32.5t-38 -88.5z" />
    <glyph glyph-name="seven.dnom" horiz-adv-x="555" 
d="M537 678l-392 -678h-43l387 670h-446v41h494v-33z" />
    <glyph glyph-name="seven.numr" horiz-adv-x="555" 
d="M537 1403l-392 -678h-43l387 670h-446v41h494v-33z" />
    <glyph glyph-name="seven.oldstyle" horiz-adv-x="1040" 
d="M1030 969l-786 -1303h-62l793 1301h-922v47h977v-45z" />
    <glyph glyph-name="seven.taboldstyle" horiz-adv-x="1392" 
d="M1206 969l-786 -1303h-62l793 1301h-922v47h977v-45z" />
    <glyph glyph-name="seven.tnum" horiz-adv-x="1392" 
d="M1204 1386l-782 -1386h-60l785 1386h-914v48h971v-48z" />
    <glyph glyph-name="six.dnom" horiz-adv-x="663" 
d="M119 324v-9q33 62 101 94.5t136 32.5q99 0 174.5 -65.5t75.5 -169.5q0 -102 -73.5 -166t-180.5 -64q-131 0 -203.5 95t-72.5 256q0 169 79 282t212 113q106 0 170 -57l-29 -25q-21 18 -62 30.5t-81 12.5q-114 0 -180 -101t-66 -259zM127 231q0 -21 6 -45
q20 -67 78.5 -119.5t144.5 -52.5q88 0 147.5 54.5t59.5 140.5q0 88 -62 141t-145 53q-80 0 -154.5 -49t-74.5 -123z" />
    <glyph glyph-name="six.numr" horiz-adv-x="663" 
d="M119 1049v-9q33 62 101 94.5t136 32.5q99 0 174.5 -65.5t75.5 -169.5q0 -102 -73.5 -166t-180.5 -64q-131 0 -203.5 95t-72.5 256q0 169 79 282t212 113q106 0 170 -57l-29 -25q-21 18 -62 30.5t-81 12.5q-114 0 -180 -101t-66 -259zM127 956q0 -21 6 -45
q20 -67 78.5 -119.5t144.5 -52.5q88 0 147.5 54.5t59.5 140.5q0 88 -62 141t-145 53q-80 0 -154.5 -49t-74.5 -123z" />
    <glyph glyph-name="six.oldstyle" horiz-adv-x="1265" 
d="M180 629q0 -47 2 -70h8q33 82 116.5 145t179.5 93t186 30q99 0 189.5 -30.5t159 -84.5t109.5 -134.5t41 -174.5q0 -128 -66.5 -226t-178 -149t-248.5 -51q-263 0 -407 176t-144 476q0 201 68 363t203 259t315 97q96 0 182.5 -24.5t130.5 -61.5l-37 -35q-98 73 -276 73
q-124 0 -225.5 -52t-168.5 -143t-103 -213t-36 -263zM207 440q0 -49 12 -86q50 -157 168.5 -243t290.5 -86q122 0 221.5 45t159 132t59.5 201q0 111 -62.5 198.5t-163.5 133t-220 45.5q-74 0 -155 -24.5t-150.5 -67t-114.5 -108.5t-45 -140z" />
    <glyph glyph-name="six.taboldstyle" horiz-adv-x="1392" 
d="M244 629q0 -47 2 -70h8q33 82 116.5 145t179 93t185.5 30q99 0 189.5 -30.5t159.5 -84.5t110 -134.5t41 -174.5q0 -128 -67 -226t-178.5 -149t-248.5 -51q-263 0 -407 176t-144 476q0 201 68 363t203 259t315 97q97 0 183.5 -24.5t130.5 -61.5l-37 -35q-98 73 -277 73
q-164 0 -286.5 -90t-184 -241t-61.5 -340zM270 440q0 -46 13 -86q50 -157 168 -243t290 -86q122 0 222 45t159.5 132.5t59.5 200.5q0 111 -63 198.5t-164 133t-220 45.5q-74 0 -155 -24.5t-150.5 -67t-114.5 -108.5t-45 -140z" />
    <glyph glyph-name="six.tnum" horiz-adv-x="1392" 
d="M248 680q0 -51 2 -76h8q34 89 116 157.5t177 102t186 33.5q98 0 188.5 -33.5t159 -92t109.5 -145.5t41 -188q0 -138 -67 -244t-178 -161.5t-247 -55.5q-261 0 -404.5 189.5t-143.5 513.5q0 162 39.5 303.5t113 246.5t184.5 165.5t246 60.5q97 0 182.5 -26t129.5 -66
l-37 -33q-100 78 -275 78q-163 0 -285 -99t-183.5 -262.5t-61.5 -367.5zM274 477q0 -49 13 -92q50 -170 167.5 -265t288.5 -95q121 0 220 49.5t159 144.5t60 219q0 120 -63 214t-164 143t-218 49q-59 0 -123 -16.5t-124.5 -49t-108.5 -75.5t-77.5 -102.5t-29.5 -123.5z" />
    <glyph glyph-name="sterling.dnom" horiz-adv-x="655" 
d="M88 256v39h129q-67 166 -77 217q-3 18 -3 31q0 78 63.5 129t157.5 51q93 0 145.5 -48t57.5 -110h-43q-2 45 -42.5 82t-117.5 37q-76 0 -127 -39t-51 -100q0 -36 12 -75t35 -92t33 -83h203v-45h-193q4 -32 4 -43q0 -109 -77 -168h395v-39h-539v39h19q28 0 54.5 8t51.5 25
t40 50.5t15 78.5q0 32 -6 55h-139z" />
    <glyph glyph-name="sterling.numr" horiz-adv-x="653" 
d="M88 981v39h129q-2 6 -7 18q-68 165 -72 218q-1 6 -1 12q0 78 63.5 129t157.5 51q93 0 145.5 -48t57.5 -110h-43q-2 45 -42.5 82t-117.5 37q-76 0 -127 -39t-51 -100q0 -36 12 -75t35 -92t33 -83h203v-45h-193q4 -32 4 -43q0 -109 -77 -168h395v-39h-539v39h19
q28 0 54.5 8t51.5 25t40 50.5t15 78.5q0 32 -6 55h-139z" />
    <glyph glyph-name="sterlinginferior" horiz-adv-x="655" 
d="M88 -8v39h129q-67 166 -77 217q-3 18 -3 31q0 78 63.5 129t157.5 51q93 0 145.5 -48t57.5 -110h-43q-2 45 -42.5 82t-117.5 37q-76 0 -127 -39t-51 -100q0 -36 12 -75t35 -92t33 -83h203v-45h-193q4 -32 4 -43q0 -109 -77 -168h395v-39h-539v39h19q28 0 54.5 8t51.5 25
t40 50.5t15 78.5q0 32 -6 55h-139z" />
    <glyph glyph-name="sterlingsuperior" horiz-adv-x="655" 
d="M88 1188v39h129q-2 6 -7 18q-68 165 -72 218q-1 6 -1 12q0 78 63.5 129t157.5 51q93 0 145.5 -48t57.5 -110h-43q-2 45 -42.5 82t-117.5 37q-76 0 -127 -39t-51 -100q0 -36 12 -75t35 -92t33 -83h203v-45h-193q4 -32 4 -43q0 -109 -77 -168h395v-39h-539v39h19
q28 0 54.5 8t51.5 25t40 50.5t15 78.5q0 32 -6 55h-139z" />
    <glyph glyph-name="three.dnom" horiz-adv-x="638" 
d="M315 391q-74 0 -120 -26q-11 11 -17 30l293 277h-389v39h459v-23l-273 -260q21 4 51 4q107 0 176.5 -60.5t69.5 -162.5t-73.5 -167t-208.5 -65q-64 0 -123 18t-94 48l22 29q34 -24 87 -40t108 -16q116 0 177.5 54.5t61.5 138.5q0 88 -57.5 135t-149.5 47z" />
    <glyph glyph-name="three.numr" horiz-adv-x="638" 
d="M315 1116q-74 0 -120 -26q-11 10 -17 30l293 277h-389v39h459v-23l-273 -260q21 4 51 4q107 0 176.5 -60.5t69.5 -162.5t-73.5 -167t-208.5 -65q-64 0 -123 18t-94 48l22 29q34 -24 87 -40t108 -16q116 0 177.5 54.5t61.5 138.5q0 88 -57.5 135t-149.5 47z" />
    <glyph glyph-name="three.oldstyle" horiz-adv-x="1169" 
d="M588 440q-171 0 -244 -45l-29 37l607 531h-795v51h899v-25l-584 -514l2 -6q60 18 152 18q209 0 345 -108.5t136 -290.5q0 -185 -144 -303.5t-411 -118.5q-134 0 -247.5 30t-176.5 81l31 39q60 -48 165.5 -75.5t227.5 -27.5q239 0 370.5 105.5t131.5 269.5q0 110 -59 191
t-156.5 121t-220.5 40z" />
    <glyph glyph-name="three.taboldstyle" horiz-adv-x="1392" 
d="M698 440q-170 0 -243 -45l-29 37l606 531h-794v51h899v-25l-584 -514l2 -6q60 18 152 18q209 0 345 -108.5t136 -290.5q0 -185 -144 -303.5t-411 -118.5q-134 0 -247.5 30t-176.5 81l31 39q60 -48 165.5 -75.5t227.5 -27.5q239 0 370.5 105.5t131.5 269.5
q0 110 -59.5 191t-157 121t-220.5 40z" />
    <glyph glyph-name="three.tnum" horiz-adv-x="1392" 
d="M696 815q-165 0 -243 -49l-25 41l610 579h-802v48h897v-27l-584 -557l2 -6q67 20 154 20q136 0 244 -51t171.5 -149.5t63.5 -229.5q0 -96 -36 -178.5t-104 -145t-175 -98t-240 -35.5q-134 0 -246 32.5t-176 88.5l31 35q60 -50 165 -79t226 -29q239 0 370 115t131 294
q0 177 -123.5 279t-310.5 102z" />
    <glyph glyph-name="tilde.case" horiz-adv-x="935" 
d="M604 1624q-50 0 -136 46t-136 46q-34 0 -50.5 -18t-45.5 -78l-31 4q25 82 53 110.5t74 28.5q50 0 139.5 -46t132.5 -46q35 0 51.5 17t44.5 75l31 -4q-25 -81 -53 -108t-74 -27z" />
    <glyph glyph-name="two.dnom" horiz-adv-x="638" 
d="M72 0v33l313 272q119 99 119 213q0 79 -54 122.5t-151 43.5q-87 0 -132 -36.5t-54 -90.5h-41q5 67 64.5 116.5t164.5 49.5q111 0 178.5 -55t67.5 -152q0 -122 -133 -235l-279 -242h443v-39h-506z" />
    <glyph glyph-name="two.numr" horiz-adv-x="638" 
d="M72 725v33l313 272q119 99 119 213q0 79 -54 122.5t-151 43.5q-87 0 -132 -36.5t-54 -90.5h-41q5 67 64.5 116.5t164.5 49.5q111 0 178.5 -55t67.5 -152q0 -122 -133 -235l-279 -242h443v-39h-506z" />
    <glyph glyph-name="two.oldstyle" horiz-adv-x="1234" 
d="M123 53l598 344q161 93 237 175t76 182q0 73 -57 127t-153.5 81t-219.5 27q-194 0 -294.5 -50t-123.5 -126h-51q11 43 40 80t82 70.5t142 53t205 19.5q211 0 347 -75.5t136 -206.5q0 -113 -83 -204t-259 -194l-536 -309h919v-47h-1001z" />
    <glyph glyph-name="two.taboldstyle" horiz-adv-x="1392" 
d="M201 53l598 344q161 93 237 175t76 182q0 73 -57 127t-153.5 81t-219.5 27q-194 0 -294.5 -50t-123.5 -126h-51q11 43 40 80t82 70.5t142 53t205 19.5q211 0 347 -75.5t136 -206.5q0 -113 -83 -204t-259 -194l-536 -309h919v-47h-1001z" />
    <glyph glyph-name="two.tnum" horiz-adv-x="1392" 
d="M209 0l-4 47l637 574q56 51 94 93t74.5 96t54.5 114.5t18 128.5q0 174 -113.5 265t-314.5 91q-96 0 -170 -21t-118 -58.5t-69 -80t-34 -92.5h-53q0 54 28 106.5t81 96t141 70t196 26.5q220 0 350 -104t130 -297q0 -138 -65.5 -246.5t-194.5 -222.5l-596 -535h923v-51
h-995z" />
    <glyph glyph-name="uni02C9.case" horiz-adv-x="876" 
d="M205 1710h467v-45h-467v45z" />
    <glyph glyph-name="y.alt" horiz-adv-x="1056" 
d="M506 -33l-451 1047h56l421 -989l412 989h55l-383 -916q-21 -53 -40.5 -96.5t-52.5 -106t-66.5 -111t-80 -100.5t-95 -86.5t-111 -56.5t-129.5 -22q-104 0 -191 49l23 43q88 -47 168 -47q79 0 153 36.5t131.5 99t100.5 127t80 140.5z" />
    <glyph glyph-name="yacute.alt" horiz-adv-x="1056" 
d="M55 1014l451 -1047q-37 -76 -80 -140.5t-100.5 -127t-131.5 -99t-153 -36.5q-80 0 -168 47l-23 -43q87 -49 191 -49q67 0 129.5 22t111 56.5t95 86.5t80 100.5t66.5 111t52.5 106t40.5 96.5l383 916h-55l-412 -989l-421 989h-56zM633 1481h63l-217 -307h-39z" />
    <glyph glyph-name="ycircumflex.alt" horiz-adv-x="1056" 
d="M55 1014l451 -1047q-37 -76 -80 -140.5t-100.5 -127t-131.5 -99t-153 -36.5q-80 0 -168 47l-23 -43q87 -49 191 -49q67 0 129.5 22t111 56.5t95 86.5t80 100.5t66.5 111t52.5 106t40.5 96.5l383 916h-55l-412 -989l-421 989h-56zM481 1481h64l225 -307h-39l-219 268
l-217 -268h-39z" />
    <glyph glyph-name="ydieresis.alt" horiz-adv-x="1056" 
d="M55 1014l451 -1047q-37 -76 -80 -140.5t-100.5 -127t-131.5 -99t-153 -36.5q-80 0 -168 47l-23 -43q87 -49 191 -49q67 0 129.5 22t111 56.5t95 86.5t80 100.5t66.5 111t52.5 106t40.5 96.5l383 916h-55l-412 -989l-421 989h-56zM248 1317q0 23 14 38t37 15t38 -15
t15 -38t-15 -38t-38 -15t-37 15t-14 38zM672 1317q0 23 14 38t37 15t38 -15t15 -38t-15 -38t-38 -15t-37 15t-14 38z" />
    <glyph glyph-name="yen.dnom" horiz-adv-x="661" 
d="M348 258h197v-35h-197v-71h197v-35h-197v-117h-41v117h-192v35h192v71h-192v35h192v35l-266 418h49l236 -379l243 379h52l-273 -418v-35z" />
    <glyph glyph-name="yen.numr" horiz-adv-x="665" 
d="M350 983h197v-35h-197v-71h197v-35h-197v-117h-41v117h-192v35h192v71h-192v35h192v35l-266 418h49l236 -379l243 379h52l-273 -418v-35z" />
    <glyph glyph-name="yeninferior" horiz-adv-x="667" 
d="M352 -6h197v-35h-197v-72h197v-34h-197v-117h-41v117h-192v34h192v72h-192v35h192v35l-266 417h49l236 -378l243 378h52l-273 -417v-35z" />
    <glyph glyph-name="yensuperior" horiz-adv-x="667" 
d="M352 1190h197v-35h-197v-72h197v-34h-197v-117h-41v117h-192v34h192v72h-192v35h192v35l-266 417h49l236 -378l243 378h52l-273 -417v-35z" />
    <glyph glyph-name="ygrave.alt" horiz-adv-x="1056" 
d="M55 1014l451 -1047q-37 -76 -80 -140.5t-100.5 -127t-131.5 -99t-153 -36.5q-80 0 -168 47l-23 -43q87 -49 191 -49q67 0 129.5 22t111 56.5t95 86.5t80 100.5t66.5 111t52.5 106t40.5 96.5l383 916h-55l-412 -989l-421 989h-56zM326 1481h63l193 -307h-39z" />
    <glyph glyph-name="zero.dnom" horiz-adv-x="751" 
d="M678 352q0 -160 -83 -267.5t-220 -107.5q-136 0 -217.5 107.5t-81.5 267.5q0 157 81.5 264t217.5 107q137 0 220 -107t83 -264zM635 352q0 140 -70.5 236t-189.5 96q-118 0 -187 -95.5t-69 -236.5q0 -144 69 -240t187 -96q120 0 190 96t70 240z" />
    <glyph glyph-name="zero.numr" horiz-adv-x="753" 
d="M678 1077q0 -160 -83 -267.5t-220 -107.5q-136 0 -217.5 107.5t-81.5 267.5q0 157 81.5 264t217.5 107q137 0 220 -107t83 -264zM635 1077q0 140 -70.5 236t-189.5 96q-118 0 -187 -95.5t-69 -236.5q0 -144 69 -240t187 -96q120 0 190 96t70 240z" />
    <glyph glyph-name="zero.oldstyle" horiz-adv-x="1425" 
d="M1311 508q0 -108 -42.5 -205t-118.5 -169t-190 -114.5t-249 -42.5q-136 0 -249 42.5t-188.5 115t-117 169t-41.5 204.5t41.5 204t117 168t188.5 114t249 42q135 0 249 -42t190 -113.5t118.5 -168t42.5 -204.5zM1257 508q0 99 -38.5 186.5t-107.5 153t-172.5 103.5
t-227.5 38t-227 -38t-171.5 -103.5t-106.5 -153t-38 -186.5t38 -187t106.5 -153.5t171.5 -104t227 -38.5t227.5 38.5t172.5 104t107.5 153.5t38.5 187z" />
    <glyph glyph-name="zero.taboldstyle" horiz-adv-x="1392" 
d="M1294 508q0 -108 -42.5 -205t-118.5 -169t-190 -114.5t-249 -42.5q-136 0 -249 42.5t-188.5 115t-117 169t-41.5 204.5t41.5 204t117 168t188.5 114t249 42q135 0 249 -42t190 -113.5t118.5 -168t42.5 -204.5zM1241 508q0 99 -38.5 186.5t-108 153t-173 103.5t-227.5 38
t-227 -38t-171.5 -103.5t-106 -153t-37.5 -186.5t37.5 -187t106 -153.5t171.5 -104t227 -38.5t227.5 38.5t173 104t108 153.5t38.5 187z" />
    <glyph glyph-name="zero.tnum" horiz-adv-x="1392" 
d="M1292 719q0 -205 -70.5 -372.5t-208.5 -268.5t-319 -101q-180 0 -317.5 101t-208 268.5t-70.5 372.5q0 154 41.5 288.5t117 234t188.5 157t249 57.5q137 0 250.5 -57.5t189 -157t117 -234t41.5 -288.5zM1239 719q0 193 -64.5 348.5t-189.5 248.5t-291 93
q-165 0 -289.5 -93t-188.5 -248.5t-64 -348.5q0 -192 64 -348.5t189 -251t289 -94.5q124 0 228 55t172.5 149.5t106.5 220.5t38 269z" />
    </font>
</defs>
</svg>
