<?xml version="1.0" standalone="no"?>
<!DOCTYPE svg PUBLIC "-//W3C//DTD SVG 1.1//EN" "http://www.w3.org/Graphics/SVG/1.1/DTD/svg11.dtd" >
<svg xmlns="http://www.w3.org/2000/svg" xmlns:xlink="http://www.w3.org/1999/xlink" version="1.1">
<metadata>
Created by FontForge 20170731 at Tue Oct 10 09:44:46 2023
 By Aleksey,,,
Copyright (c) Olivier Gourvat - Mostardesign Studio, 2014. All rights reserved. |DCNT
</metadata>
<defs>
<font id="FilsonPro-Medium" horiz-adv-x="1243" >
  <font-face 
    font-family="Filson Pro Medium"
    font-weight="500"
    font-stretch="normal"
    units-per-em="2048"
    panose-1="2 0 0 0 0 0 0 0 0 0"
    ascent="1481"
    descent="-567"
    x-height="1036"
    cap-height="1434"
    bbox="-502 -621 2777 2136"
    underline-thickness="102"
    underline-position="-307"
    unicode-range="U+000D-FB04"
  />
<missing-glyph horiz-adv-x="1378" 
d="M205 0v1436h969v-1436h-969zM582 526h123q0 40 4 55.5t20 26.5q7 4 30 18.5t39 24.5t41.5 29t43.5 36.5t39 42.5t34 50t22 57t9 66q0 120 -90.5 193t-224.5 73q-78 0 -138.5 -21.5t-94.5 -56t-51 -72.5t-17 -77q0 -53 18 -94h129q-16 36 -16 90q0 52 44 84t118 32
q87 0 135.5 -40.5t48.5 -110.5v-4q0 -68 -41 -115t-137 -106q-63 -36 -75.5 -64t-12.5 -117zM545 295q0 -43 28.5 -71.5t69.5 -28.5q43 0 72.5 28.5t29.5 71.5q0 41 -29.5 70.5t-72.5 29.5q-41 0 -69.5 -29.5t-28.5 -70.5z" />
    <glyph glyph-name="f_f" unicode="ff" horiz-adv-x="1581" 
d="M1260 1145v-109h251v-192h-251v-844h-256v844h-535v-844h-256v844h-154v192h154v70q0 92 21 162.5t55 113.5t82.5 70.5t97 38t104.5 10.5q134 0 213 -60.5t101 -158.5l-203 -74q-4 41 -31 62.5t-69 21.5q-50 0 -82.5 -38.5t-32.5 -108.5v-109h535v70q0 92 21 162.5
t55 113.5t82.5 70.5t97 38t104.5 10.5q158 0 238.5 -81t80.5 -203q0 -29 -10 -58h-203q7 17 7 35q0 48 -27.5 73t-75.5 25q-50 0 -82 -38t-32 -109z" />
    <glyph glyph-name="fi" unicode="fi" horiz-adv-x="1372" 
d="M59 1036h154v64q0 401 446 401q61 0 120 -14t115 -42.5t100.5 -78.5t66.5 -115l-121 -32l-121 -35q-19 53 -66 80.5t-94 27.5q-190 0 -190 -192v-64h756v-1036h-252v844h-504v-844h-256v844h-154v192z" />
    <glyph glyph-name="fl" unicode="fl" horiz-adv-x="1337" 
d="M213 844h-154v192h154v64q0 98 28.5 171t74 116.5t113.5 69.5t136 35t152 9q266 0 473 -135v-1366h-252v1241q-95 51 -238 51q-38 0 -68 -3.5t-62 -15t-53 -31t-34.5 -54t-13.5 -80.5v-72h252v-192h-252v-844h-256v844z" />
    <glyph glyph-name="f_f_i" unicode="ffi" horiz-adv-x="2162" 
d="M1004 1036v64q0 401 446 401q61 0 120 -14t115 -42.5t100 -78.5t66 -115l-120 -32l-121 -35q-19 53 -66 80.5t-94 27.5q-190 0 -190 -192v-64h755v-1036h-252v844h-503v-844h-256v844h-535v-844h-256v844h-154v192h154v70q0 395 446 395q192 0 302 -143l-160 -139
q-25 36 -64 54.5t-78 18.5q-190 0 -190 -192v-64h535z" />
    <glyph glyph-name="f_f_l" unicode="ffl" horiz-adv-x="2127" 
d="M1260 844v-844h-256v844h-535v-844h-256v844h-154v192h154v70q0 395 446 395q192 0 302 -143l-160 -139q-25 36 -64 54.5t-78 18.5q-190 0 -190 -192v-64h535v64q0 98 28.5 171t73.5 116.5t113 69.5t136 35t152 9q266 0 473 -135v-1366h-251v1241q-95 51 -238 51
q-38 0 -68 -3.5t-62 -15t-53 -31t-34.5 -54t-13.5 -80.5v-72h251v-192h-251z" />
    <glyph glyph-name="f_f_j" unicode="ffj" horiz-adv-x="2207" 
d="M1808 -172v1016h-548v-844h-256v844h-535v-844h-256v844h-154v192h154v70q0 395 446 395q192 0 302 -143l-160 -139q-25 36 -64 54.5t-78 18.5q-190 0 -190 -192v-64h535v64q0 401 446 401q61 0 120 -14t115 -42.5t100 -78.5t66 -115l-120 -32l-121 -35q-19 53 -66 80.5
t-94 27.5q-190 0 -190 -192v-64h800v-1190q0 -89 -28.5 -156t-77.5 -105.5t-108.5 -57.5t-127.5 -19q-81 0 -144.5 23.5t-102 63.5t-58.5 91t-20 109q0 53 14 84h211q-8 -23 -8 -59q0 -48 25.5 -75.5t72.5 -27.5t73.5 30.5t26.5 80.5z" />
    <glyph glyph-name="f_j" unicode="fj" horiz-adv-x="1417" 
d="M213 0v844h-154v192h154v64q0 401 446 401q61 0 120 -14t115 -42.5t100.5 -78.5t66.5 -115l-121 -32l-121 -35q-19 53 -66 80.5t-94 27.5q-190 0 -190 -192v-64h801v-1190q0 -89 -28.5 -156t-77.5 -105.5t-108.5 -57.5t-127.5 -19q-159 0 -242.5 82.5t-83.5 204.5
q0 53 14 84h211q-8 -23 -8 -59q0 -48 26 -75.5t73 -27.5t73.5 30.5t26.5 80.5v1016h-549v-844h-256z" />
    <glyph glyph-name=".notdef" horiz-adv-x="1378" 
d="M205 0v1436h969v-1436h-969zM582 526h123q0 40 4 55.5t20 26.5q7 4 30 18.5t39 24.5t41.5 29t43.5 36.5t39 42.5t34 50t22 57t9 66q0 120 -90.5 193t-224.5 73q-78 0 -138.5 -21.5t-94.5 -56t-51 -72.5t-17 -77q0 -53 18 -94h129q-16 36 -16 90q0 52 44 84t118 32
q87 0 135.5 -40.5t48.5 -110.5v-4q0 -68 -41 -115t-137 -106q-63 -36 -75.5 -64t-12.5 -117zM545 295q0 -43 28.5 -71.5t69.5 -28.5q43 0 72.5 28.5t29.5 71.5q0 41 -29.5 70.5t-72.5 29.5q-41 0 -69.5 -29.5t-28.5 -70.5z" />
    <glyph glyph-name=".null" horiz-adv-x="0" 
 />
    <glyph glyph-name="nonmarkingreturn" horiz-adv-x="682" 
 />
    <glyph glyph-name="NULL" horiz-adv-x="0" 
 />
    <glyph glyph-name="NULL" horiz-adv-x="0" 
 />
    <glyph glyph-name="CR" unicode="&#xd;" horiz-adv-x="512" 
 />
    <glyph glyph-name="space" unicode=" " horiz-adv-x="520" 
 />
    <glyph glyph-name="exclam" unicode="!" horiz-adv-x="561" 
d="M432 1434v-31l-63 -940h-176l-64 940v31h303zM111 139q0 72 49 119t123 47q73 0 122.5 -47.5t49.5 -118.5q0 -69 -50 -115.5t-122 -46.5q-73 0 -122.5 46.5t-49.5 115.5z" />
    <glyph glyph-name="quotedbl" unicode="&#x22;" horiz-adv-x="933" 
d="M367 1481l-43 -580h-168l-43 580h254zM821 1481l-43 -580h-170l-43 580h256z" />
    <glyph glyph-name="numbersign" unicode="#" horiz-adv-x="1560" 
d="M1219 1139h272l-45 -189h-272l-107 -430h274l-51 -190h-268l-84 -330h-213l84 330h-254l-84 -330h-209l82 330h-276l45 190h278l107 430h-277l51 189h277l74 295h206l-75 -295h260l69 295h213zM707 950l-107 -430h254l109 430h-256z" />
    <glyph glyph-name="dollar" unicode="$" horiz-adv-x="1126" 
d="M514 -162v195q-177 12 -298 110t-146 250q40 10 114.5 26.5t108.5 24.5q17 -78 75.5 -128t145.5 -60v362q-116 39 -195 88t-118 103t-54.5 103.5t-15.5 107.5q0 156 108 255.5t275 117.5v200h127v-204q137 -17 232.5 -94.5t136.5 -204.5l-209 -89q-46 133 -160 162v-344
l59 -20q89 -30 156.5 -74.5t106.5 -95t58 -102.5t19 -103q0 -169 -111.5 -269t-287.5 -122v-195h-127zM793 412q0 52 -36 86t-116 75v-313q70 14 111 53.5t41 98.5zM377 1020q0 -42 26.5 -77t110.5 -77v301q-63 -13 -100 -50t-37 -97z" />
    <glyph glyph-name="percent" unicode="%" horiz-adv-x="1937" 
d="M469 0l797 1434h188l-797 -1434h-188zM70 1081q0 159 110.5 267t272.5 108q163 0 272 -108t109 -267q0 -156 -109 -263t-272 -107q-162 0 -272.5 107t-110.5 263zM268 1081q0 -85 54 -139.5t131 -54.5q79 0 132.5 54.5t53.5 139.5q0 87 -53.5 143t-132.5 56
q-77 0 -131 -56.5t-54 -142.5zM1104 348q0 158 110 265.5t273 107.5q164 0 272.5 -107t108.5 -266q0 -156 -109 -263.5t-272 -107.5q-162 0 -272.5 107.5t-110.5 263.5zM1303 348q0 -85 53.5 -139.5t130.5 -54.5q79 0 132.5 54.5t53.5 139.5q0 87 -53.5 143t-132.5 56
q-76 0 -130 -56.5t-54 -142.5z" />
    <glyph glyph-name="ampersand" unicode="&#x26;" horiz-adv-x="1628" 
d="M1049 117l-35 39q-65 -86 -178.5 -132.5t-245.5 -46.5q-141 0 -256 47t-185.5 140.5t-70.5 218.5q0 81 30.5 150.5t85.5 122.5t113 91t131 72q-65 64 -105 143.5t-40 161.5q0 71 23 128.5t60.5 95t88 62.5t103 35.5t108.5 10.5q173 0 278 -96t105 -232
q0 -109 -80.5 -204.5t-200.5 -157.5l226 -254l176 246h237v-41l-270 -369l84 -92q50 -57 129 -61q42 0 88 16t78 51l86 -170q-112 -115 -264 -115q-92 0 -161 35.5t-138 104.5zM868 326l-290 331q-100 -33 -174 -102t-74 -160q0 -92 76 -151.5t188 -59.5q157 0 274 142z
M535 1112q0 -97 110 -207q178 96 178 215q0 55 -38 98.5t-105 43.5q-61 0 -103 -42t-42 -108z" />
    <glyph glyph-name="quotesingle" unicode="'" horiz-adv-x="479" 
d="M367 1481l-43 -580h-168l-43 580h254z" />
    <glyph glyph-name="parenleft" unicode="(" horiz-adv-x="665" 
d="M465 1583l160 -96q-47 -71 -89.5 -150t-94 -200t-82.5 -270.5t-31 -301.5q0 -121 22 -245.5t53.5 -220t75 -190.5t77 -153.5t69.5 -111.5l-160 -95q-40 42 -86 106t-100 164.5t-96.5 211t-71.5 253t-29 283.5q0 139 28.5 280.5t71 252t96.5 211t100 165t87 107.5z" />
    <glyph glyph-name="parenright" unicode=")" horiz-adv-x="665" 
d="M41 1487l160 96q41 -43 87 -107.5t100 -165t96.5 -211t71 -252t28.5 -280.5q0 -141 -29 -283.5t-71.5 -253t-96.5 -211t-100 -164.5t-86 -106l-160 95q36 53 69.5 111.5t77 153.5t75 190.5t53.5 220t22 245.5q0 152 -31 301.5t-82.5 270.5t-94 200t-89.5 150z" />
    <glyph glyph-name="asterisk" unicode="*" horiz-adv-x="929" 
d="M309 737l-139 105l174 215l-268 76l55 170l258 -101l-16 279h182l-16 -279l260 101l55 -168l-268 -74l176 -219l-141 -103l-152 230z" />
    <glyph glyph-name="plus" unicode="+" horiz-adv-x="1142" 
d="M680 145h-217v383h-385v207h385v381h217v-381h383v-207h-383v-383z" />
    <glyph glyph-name="comma" unicode="," horiz-adv-x="526" 
d="M133 -299l-53 92q82 28 132 97t50 135q-65 -12 -111.5 29t-46.5 98q-2 63 40 105t120 42q45 0 77.5 -20t48.5 -50.5t23 -58.5t7 -53q0 -135 -78.5 -255.5t-208.5 -160.5z" />
    <glyph glyph-name="hyphen" unicode="-" horiz-adv-x="978" 
d="M129 526v215h719v-215h-719z" />
    <glyph glyph-name="period" unicode="." horiz-adv-x="548" 
d="M102 139q0 72 49 119t123 47q73 0 122.5 -47.5t49.5 -118.5q0 -69 -50 -115.5t-122 -46.5q-73 0 -122.5 46.5t-49.5 115.5z" />
    <glyph glyph-name="slash" unicode="/" horiz-adv-x="1114" 
d="M1061 1509l-785 -1587h-223l783 1587h225z" />
    <glyph glyph-name="zero" unicode="0" horiz-adv-x="1456" 
d="M1358 717q0 -153 -44.5 -288t-125 -235t-200 -158.5t-261.5 -58.5q-190 0 -335 100.5t-219.5 267.5t-74.5 372q0 154 44 288.5t123.5 234.5t199 158t262.5 58q189 0 334 -99.5t221 -266.5t76 -373zM1104 717q0 225 -102.5 374.5t-274.5 149.5q-115 0 -201 -70.5
t-130 -188.5t-44 -265q0 -146 44 -263.5t130 -188t201 -70.5t201.5 70.5t131 188t44.5 263.5z" />
    <glyph glyph-name="one" unicode="1" horiz-adv-x="804" 
d="M88 1004l-63 202l495 228h137v-1434h-254v1135z" />
    <glyph glyph-name="two" unicode="2" horiz-adv-x="1257" 
d="M842 516l-359 -313v-4q78 10 275 10h413v-209h-1040l-29 160l572 520q196 166 196 321q0 110 -70 173t-192 63q-76 0 -131 -22t-82.5 -58t-40 -73t-12.5 -76h-252q0 55 15.5 113t54 119t95 108t148.5 77.5t205 30.5q232 0 372 -123t140 -329q0 -79 -23 -150.5t-67 -133.5
t-86 -106.5t-102 -97.5z" />
    <glyph glyph-name="three" unicode="3" horiz-adv-x="1261" 
d="M571 197q150 0 242 86t92 192q0 113 -84 186.5t-205 73.5q-117 0 -198 -53l-109 139l441 402h-619v211h985v-154l-411 -362q119 0 223.5 -57t168.5 -159t64 -225q0 -102 -40.5 -193t-115 -159t-187.5 -108t-249 -40q-324 0 -510 168l136 164q102 -68 187 -90t189 -22z
" />
    <glyph glyph-name="four" unicode="4" horiz-adv-x="1368" 
d="M344 584h416v458zM760 371h-715v159l803 904h166v-850h299v-213h-299v-371h-254v371z" />
    <glyph glyph-name="five" unicode="5" horiz-adv-x="1253" 
d="M592 197q160 0 246 82t86 206q0 47 -19 91.5t-55 82.5t-95 61t-132 23q-85 0 -170.5 -26.5t-143.5 -77.5l-174 72l45 723h893v-211h-667l-27 -363h6q58 45 137.5 69.5t155.5 24.5q141 0 256 -64.5t178.5 -172t63.5 -232.5q0 -230 -154 -369t-426 -139q-158 0 -290 44.5
t-220 123.5l133 164q81 -57 183 -84.5t190 -27.5z" />
    <glyph glyph-name="six" unicode="6" horiz-adv-x="1310" 
d="M727 1235q-150 0 -259 -131.5t-116 -347.5h4q47 92 147 140t210 48q99 0 191.5 -33.5t165 -93.5t116 -152.5t43.5 -201.5q0 -210 -152.5 -348t-390.5 -138q-181 0 -314 89t-202.5 248.5t-69.5 369.5q0 162 41 301.5t118 245t196 165.5t266 60q139 0 257 -49t191 -135
l-159 -146q-52 57 -130 83t-153 26zM680 735q-134 0 -217.5 -75.5t-83.5 -188.5q0 -116 85.5 -195t213.5 -79q124 0 209.5 75.5t85.5 192.5q0 122 -81.5 196t-211.5 74z" />
    <glyph glyph-name="seven" unicode="7" horiz-adv-x="1138" 
d="M61 1223v211h1051v-164l-684 -1270h-285l678 1223h-760z" />
    <glyph glyph-name="eight" unicode="8" horiz-adv-x="1351" 
d="M672 842h8q125 0 193.5 64t68.5 147q0 80 -73 134t-193 54t-192 -54t-72 -134q0 -84 67 -147.5t193 -63.5zM684 662h-8q-157 0 -240.5 -67.5t-83.5 -166.5t90 -166t234 -67q145 0 235 67t90 166q0 98 -83 166t-234 68zM676 -23q-255 0 -418.5 125.5t-163.5 325.5
q0 105 75.5 202t192.5 138q-91 36 -149.5 117t-58.5 168q0 178 146.5 290.5t375.5 112.5t375.5 -112.5t146.5 -290.5q0 -87 -58 -168t-149 -117q117 -41 191.5 -137.5t74.5 -202.5q0 -200 -162.5 -325.5t-418.5 -125.5z" />
    <glyph glyph-name="nine" unicode="9" horiz-adv-x="1308" 
d="M582 199q71 0 137.5 33.5t118.5 94t84 152t34 199.5h-4q-47 -93 -146.5 -141t-209.5 -48q-133 0 -249.5 56.5t-191.5 168.5t-75 257q0 210 152.5 347.5t390.5 137.5q181 0 314 -89t202 -248t69 -369q0 -162 -40.5 -301.5t-116.5 -245t-195.5 -166t-267.5 -60.5
q-139 0 -257.5 49.5t-191.5 135.5l160 145q52 -57 130 -82.5t153 -25.5zM629 698q134 0 217.5 76t83.5 189q0 116 -85.5 195t-213.5 79q-124 0 -209.5 -75.5t-85.5 -192.5q0 -122 81.5 -196.5t211.5 -74.5z" />
    <glyph glyph-name="colon" unicode=":" horiz-adv-x="606" 
d="M131 139q0 72 49 119t123 47q73 0 122.5 -47.5t49.5 -118.5q0 -69 -50 -115.5t-122 -46.5q-73 0 -122.5 46.5t-49.5 115.5zM131 893q0 72 49 119t123 47q73 0 122.5 -47.5t49.5 -118.5q0 -69 -50 -115.5t-122 -46.5q-73 0 -122.5 46.5t-49.5 115.5z" />
    <glyph glyph-name="semicolon" unicode=";" horiz-adv-x="606" 
d="M131 893q0 72 49 119t123 47q73 0 122.5 -47.5t49.5 -118.5q0 -69 -50 -115.5t-122 -46.5q-73 0 -122.5 46.5t-49.5 115.5zM174 -293l-53 92q81 28 131.5 95t50.5 133q-69 -11 -115.5 30.5t-46.5 100.5q-5 65 38 109t126 44q46 0 80 -20t50.5 -51.5t24 -60.5t7.5 -56
q0 -137 -81.5 -257t-211.5 -159z" />
    <glyph glyph-name="less" unicode="&#x3c;" horiz-adv-x="1189" 
d="M70 666l977 411h24v-223l-741 -289l741 -289v-223h-24l-977 410v203z" />
    <glyph glyph-name="equal" unicode="=" horiz-adv-x="1259" 
d="M1122 305h-985v211h985v-211zM1122 850h-985v209h985v-209z" />
    <glyph glyph-name="greater" unicode="&#x3e;" horiz-adv-x="1191" 
d="M145 1077l977 -411v-203l-977 -410h-24v223l741 289l-741 289v223h24z" />
    <glyph glyph-name="question" unicode="?" horiz-adv-x="1091" 
d="M608 463h-233q0 48 0.5 69t4.5 51.5t12 45t24 36t39 38.5t59 40q88 53 136.5 92t79 91t30.5 114v4q0 91 -63 143t-169 52q-94 0 -153.5 -44.5t-59.5 -117.5q0 -38 19 -94h-242q-15 34 -20 88q0 50 13.5 100t47.5 102.5t84.5 92t132 65t182.5 25.5q211 0 347.5 -111.5
t136.5 -297.5q0 -61 -19 -118t-50 -102.5t-78 -90.5t-94 -79t-107 -71q-60 -42 -60 -123zM322 139q0 72 49 119t121 47q73 0 123.5 -47.5t50.5 -118.5q0 -69 -51 -115.5t-123 -46.5t-121 46.5t-49 115.5z" />
    <glyph glyph-name="at" unicode="@" horiz-adv-x="2099" 
d="M1567 106q121 5 190.5 119.5t69.5 349.5q0 211 -96.5 379t-273 263.5t-402.5 95.5q-169 0 -316.5 -62.5t-252 -170.5t-164.5 -258.5t-60 -321.5q0 -228 94 -412t268 -290.5t396 -106.5q242 0 410 82l75 -148q-103 -49 -231.5 -75.5t-253.5 -26.5q-274 0 -487.5 127.5
t-329 349.5t-115.5 500q0 207 73.5 389.5t201 312t307 204.5t385.5 75q209 0 385.5 -67t299.5 -186t192 -287.5t69 -365.5q0 -165 -31.5 -286.5t-90.5 -194t-136.5 -107t-175.5 -34.5q-143 0 -206.5 65.5t-68.5 182.5q-48 -82 -139.5 -124t-191.5 -42q-189 0 -312 135
t-123 330q0 128 54.5 233t156.5 167.5t232 62.5q198 0 309 -154v133h186v-717q0 -60 29 -89.5t74 -29.5zM713 500q0 -128 77.5 -213.5t204.5 -85.5q124 0 202.5 80.5t78.5 214.5q0 132 -78.5 216.5t-206.5 84.5q-129 0 -203.5 -85t-74.5 -212z" />
    <glyph glyph-name="A" unicode="A" horiz-adv-x="1417" 
d="M289 0h-271l553 1434h273l557 -1434h-268l-109 281h-631zM948 494l-239 673l-242 -673h481z" />
    <glyph glyph-name="B" unicode="B" horiz-adv-x="1353" 
d="M1200 1053q0 -107 -66 -193t-190 -123q147 -20 235.5 -119t88.5 -227q0 -178 -136 -284.5t-358 -106.5h-590v1434h527q216 0 352.5 -102.5t136.5 -278.5zM664 625h-218v-416h328q99 0 162 51.5t63 136.5q0 46 -16 84.5t-52.5 72t-104.5 52.5t-162 19zM446 815h179
q85 0 147.5 19t96 52t48.5 70.5t15 81.5q0 88 -64 136.5t-157 48.5h-265v-408z" />
    <glyph glyph-name="C" unicode="C" horiz-adv-x="1411" 
d="M86 717q0 150 55 284t154 235t248 160.5t325 59.5q154 0 269 -42.5t225 -125.5l-105 -196q-177 131 -387 131q-158 0 -277 -68.5t-179 -182.5t-60 -255t60 -255t179 -182.5t277 -68.5q215 0 387 131l105 -199q-109 -82 -224 -124t-270 -42q-176 0 -325 59.5t-248 161
t-154 235.5t-55 284z" />
    <glyph glyph-name="D" unicode="D" horiz-adv-x="1521" 
d="M1167 717q0 138 -60.5 254t-170 184t-244.5 68h-246v-1014h246q204 0 339.5 148t135.5 360zM1436 717q0 -146 -56 -277.5t-153.5 -228.5t-236.5 -154t-298 -57h-508v1432h508q159 0 298 -56.5t236.5 -153t153.5 -228t56 -277.5z" />
    <glyph glyph-name="E" unicode="E" horiz-adv-x="1216" 
d="M1116 0h-932v1434h932v-211h-670v-416h584v-209h-584v-389h670v-209z" />
    <glyph glyph-name="F" unicode="F" horiz-adv-x="1193" 
d="M446 0h-262v1434h932v-211h-670v-416h584v-209h-584v-598z" />
    <glyph glyph-name="G" unicode="G" horiz-adv-x="1507" 
d="M856 1221q-117 0 -213.5 -42.5t-158.5 -114t-96 -162t-34 -189.5q0 -136 58.5 -248t175 -181t270.5 -69q168 0 301 74v250h-383v209h625v-562q-229 -209 -547 -209q-162 0 -306 59t-244.5 158.5t-159 235.5t-58.5 285q0 151 58 287t158 236t243 159t305 59
q155 0 278.5 -42t241.5 -130l-119 -197q-197 134 -395 134z" />
    <glyph glyph-name="H" unicode="H" horiz-adv-x="1499" 
d="M1315 0h-262v580h-607v-580h-262v1434h262v-646h607v646h262v-1434z" />
    <glyph glyph-name="I" unicode="I" horiz-adv-x="630" 
d="M446 1434v-1434h-262v1434h262z" />
    <glyph glyph-name="J" unicode="J" horiz-adv-x="1357" 
d="M1194 1434v-793q0 -327 -152.5 -495.5t-439.5 -168.5q-115 0 -209 29.5t-155.5 79t-103.5 116t-60.5 138t-18.5 147.5q0 48 15.5 109.5t40.5 97.5h243q-24 -46 -36.5 -100.5t-12.5 -89.5q0 -41 10.5 -82t33.5 -80.5t56.5 -70t84 -49.5t110.5 -19q332 0 332 438v793h262z
" />
    <glyph glyph-name="K" unicode="K" horiz-adv-x="1329" 
d="M444 647v-647h-262v1434h262v-680l465 680h273v-33l-488 -690l226 -340q80 -107 117 -138.5t96 -31.5q66 0 127 43q45 -91 94 -185q-106 -82 -262 -82q-233 0 -400 283z" />
    <glyph glyph-name="L" unicode="L" horiz-adv-x="1134" 
d="M446 209h652v-209h-914v1434h262v-1225z" />
    <glyph glyph-name="M" unicode="M" horiz-adv-x="1935" 
d="M1057 16h-178l-410 985l-86 -1001h-262l133 1434h274l441 -1055l438 1055h274l136 -1434h-263l-88 1001z" />
    <glyph glyph-name="N" unicode="N" horiz-adv-x="1538" 
d="M1157 0l-711 967v-967h-262v1434h199l709 -961v961h262v-1434h-197z" />
    <glyph glyph-name="O" unicode="O" horiz-adv-x="1667" 
d="M84 717q0 200 101.5 370.5t274 269.5t374.5 99t374.5 -99t273.5 -269.5t101 -370.5q0 -150 -60 -287t-160.5 -236.5t-239 -158t-289.5 -58.5q-202 0 -374.5 99t-274 270t-101.5 371zM350 717q0 -106 38.5 -200t104 -160t154.5 -104t187 -38q200 0 341.5 144t141.5 358
t-141.5 358t-341.5 144q-98 0 -187 -38t-154.5 -104t-104 -160t-38.5 -200z" />
    <glyph glyph-name="P" unicode="P" horiz-adv-x="1300" 
d="M446 0h-262v1434h602q139 0 242.5 -64t155 -167.5t51.5 -229.5q0 -192 -120.5 -320.5t-328.5 -128.5h-340v-524zM446 731h299q103 0 162.5 67t59.5 177q0 112 -59.5 180t-162.5 68h-299v-492z" />
    <glyph glyph-name="Q" unicode="Q" horiz-adv-x="1671" 
d="M352 717q0 -106 38.5 -200t104 -160t154.5 -104t187 -38q200 0 341.5 144t141.5 358t-141.5 358t-341.5 144q-98 0 -187 -38t-154.5 -104t-104 -160t-38.5 -200zM987 -6q25 -182 230 -182q46 0 110.5 20t104.5 49l86 -184q-133 -100 -320 -100q-105 0 -190 32.5t-140 88
t-87.5 122.5t-43.5 144q-134 18 -254 83t-208 161t-139.5 223.5t-51.5 265.5q0 200 102 370.5t275 269.5t375 99t375 -99t274.5 -269.5t101.5 -370.5q0 -173 -80.5 -327t-217 -257t-302.5 -139z" />
    <glyph glyph-name="R" unicode="R" horiz-adv-x="1423" 
d="M444 735h316q101 0 161 66.5t60 173.5q0 105 -61 173.5t-160 68.5h-316v-482zM1247 973q0 -160 -85.5 -277t-235.5 -155q11 -63 30 -118.5t49 -106.5t75 -81t100 -30q94 0 157 63l93 -180q-65 -57 -131.5 -84t-155.5 -27q-96 0 -175 42t-127.5 103.5t-83.5 140.5
t-50 142.5t-21 120.5h-242v-526h-262v1434h619q138 0 241 -64.5t154 -168t51 -228.5z" />
    <glyph glyph-name="S" unicode="S" horiz-adv-x="1198" 
d="M61 367l238 53q24 -94 103 -152.5t194 -58.5t186.5 48.5t71.5 133.5q0 123 -188 191l-185 63q-87 28 -152.5 68.5t-102.5 81.5t-60 89t-30 86.5t-7 78.5q0 122 65 216t172 142.5t238 48.5q178 0 301.5 -86.5t173.5 -241.5l-221 -92q-62 187 -254 187q-93 0 -153 -43.5
t-60 -126.5q0 -23 5 -42t21 -44.5t52.5 -49.5t91.5 -43l184 -67q100 -32 174.5 -80.5t115.5 -104t60 -111t19 -110.5q0 -133 -71 -231t-185.5 -145.5t-255.5 -47.5q-209 0 -360.5 109t-180.5 281z" />
    <glyph glyph-name="T" unicode="T" horiz-adv-x="1224" 
d="M41 1434h1143v-211h-443v-1223h-262v1223h-438v211z" />
    <glyph glyph-name="U" unicode="U" horiz-adv-x="1490" 
d="M1063 1434h262v-897q0 -134 -46.5 -242t-126.5 -176.5t-184 -105t-223 -36.5q-120 0 -224.5 36.5t-184 105.5t-125 176.5t-45.5 241.5v897h262v-897q0 -160 90.5 -247t226.5 -87q135 0 226.5 87t91.5 247v897z" />
    <glyph glyph-name="V" unicode="V" horiz-adv-x="1353" 
d="M803 0h-252q-83 241 -251 717.5t-251 716.5h273l356 -1100l356 1100h273z" />
    <glyph glyph-name="W" unicode="W" horiz-adv-x="2033" 
d="M1118 1386l293 -937l305 985h264l-448 -1434h-213l-301 973l-301 -973h-215l-449 1434h264l306 -985l295 937h200z" />
    <glyph glyph-name="X" unicode="X" horiz-adv-x="1417" 
d="M709 547l-404 -547h-303v25l557 733l-502 643v33h297l355 -476l354 476h297v-33l-502 -643l557 -733v-25h-303z" />
    <glyph glyph-name="Y" unicode="Y" horiz-adv-x="1441" 
d="M719 819l387 615h293v-27l-547 -819v-588h-262v586l-547 821v27h293z" />
    <glyph glyph-name="Z" unicode="Z" horiz-adv-x="1345" 
d="M1282 209v-209h-1223v180l826 1043h-768v211h1116v-183l-832 -1042h881z" />
    <glyph glyph-name="bracketleft" unicode="[" horiz-adv-x="743" 
d="M141 -442v1970h551v-199h-313v-1573h313v-198h-551z" />
    <glyph glyph-name="backslash" unicode="\" horiz-adv-x="1114" 
d="M838 -78l-785 1587h226l782 -1587h-223z" />
    <glyph glyph-name="bracketright" unicode="]" horiz-adv-x="743" 
d="M602 1528v-1970h-551v198h311v1573h-311v199h551z" />
    <glyph glyph-name="asciicircum" unicode="^" horiz-adv-x="1095" 
d="M1012 717h-232l-233 502q-34 -65 -234 -502h-229l371 739h188z" />
    <glyph glyph-name="underscore" unicode="_" horiz-adv-x="1458" 
d="M0 -332v213h1458v-213h-1458z" />
    <glyph glyph-name="grave" unicode="`" horiz-adv-x="1089" 
d="M264 1507h273l190 -329h-199z" />
    <glyph glyph-name="a" unicode="a" horiz-adv-x="1333" 
d="M938 1036h252v-1036h-252v156q-56 -86 -147.5 -132.5t-206.5 -46.5q-150 0 -267 73.5t-179 197t-62 274.5q0 148 60.5 269t178 194.5t271.5 73.5q108 0 199.5 -44t152.5 -132v153zM330 520q0 -143 83.5 -237.5t221.5 -94.5q134 0 221.5 86.5t87.5 235.5q0 152 -87.5 245
t-227.5 93q-138 0 -218.5 -94.5t-80.5 -233.5z" />
    <glyph glyph-name="b" unicode="b" horiz-adv-x="1331" 
d="M1255 522q0 -151 -62 -274.5t-178.5 -197t-266.5 -73.5q-116 0 -208 46.5t-147 132.5v-156h-252v1481h252v-598q61 88 152.5 132t199.5 44q154 0 271.5 -73.5t178 -194.5t60.5 -269zM1001 520q0 139 -80.5 233.5t-218.5 94.5q-140 0 -226.5 -93t-86.5 -245
q0 -149 87 -235.5t220 -86.5q138 0 221.5 94.5t83.5 237.5z" />
    <glyph glyph-name="c" unicode="c" horiz-adv-x="1101" 
d="M72 512q0 115 40 215t113.5 173.5t184 116t245.5 42.5q208 0 400 -139l-117 -181q-48 40 -109.5 63t-96 27.5t-64.5 4.5q-151 0 -246.5 -88.5t-95.5 -227.5q0 -138 95.5 -226.5t246.5 -88.5q29 0 64.5 4.5t97.5 27.5t108 62l117 -178q-190 -142 -400 -142
q-264 0 -423.5 152t-159.5 383z" />
    <glyph glyph-name="d" unicode="d" horiz-adv-x="1333" 
d="M330 520q0 -143 83.5 -237.5t221.5 -94.5q133 0 220 86.5t87 235.5q0 152 -87 245t-228 93q-138 0 -217.5 -94.5t-79.5 -233.5zM938 1481h252v-1481h-252v156q-57 -86 -149 -132.5t-207 -46.5q-149 0 -265.5 73.5t-178.5 197.5t-62 274q0 148 60 269t177 194.5t271 73.5
q226 0 354 -176v598z" />
    <glyph glyph-name="e" unicode="e" horiz-adv-x="1239" 
d="M993 317l144 -141q-177 -199 -469 -199q-136 0 -249 42.5t-188.5 115.5t-117 170.5t-41.5 208.5q0 151 72.5 275.5t203 197t291.5 72.5q108 0 203.5 -35t173 -102.5t123 -181t45.5 -257.5h-860q0 -126 97 -209.5t259 -83.5q94 0 168.5 32t144.5 95zM639 858
q-45 0 -87 -10t-84.5 -32t-77 -64t-54.5 -99h590q-27 109 -108.5 157t-178.5 48z" />
    <glyph glyph-name="f" unicode="f" horiz-adv-x="790" 
d="M469 1145v-109h252v-192h-252v-844h-256v844h-154v192h154v70q0 92 21 162.5t55 113.5t82.5 70.5t97 38t104.5 10.5q158 0 239 -81t81 -203q0 -29 -10 -58h-203q6 15 6 35q0 49 -27 73.5t-75 24.5q-50 0 -82.5 -38.5t-32.5 -108.5z" />
    <glyph glyph-name="g" unicode="g" horiz-adv-x="1331" 
d="M330 520q0 -143 83.5 -237.5t221.5 -94.5q134 0 221.5 86.5t87.5 235.5q0 152 -87.5 245t-227.5 93q-138 0 -218.5 -94.5t-80.5 -233.5zM170 -344q26 50 100 197q63 -55 154.5 -90t183.5 -35q69 0 127 16.5t104.5 51.5t72.5 95.5t26 141.5v121q-54 -82 -149 -129.5
t-205 -47.5q-150 0 -267 73.5t-179 197t-62 274.5q0 148 60.5 269t178 194.5t271.5 73.5q108 0 199.5 -44t152.5 -132v153h252v-923q0 -157 -39.5 -274.5t-113.5 -189t-173 -106.5t-225 -35q-286 0 -469 148z" />
    <glyph glyph-name="h" unicode="h" 
d="M143 0v1481h252v-619q95 197 334 197q191 0 288 -127.5t97 -358.5v-573h-252v571q0 133 -54 204t-149 71q-48 0 -93.5 -18.5t-84.5 -56t-62.5 -103t-23.5 -150.5v-518h-252z" />
    <glyph glyph-name="i" unicode="i" horiz-adv-x="546" 
d="M399 0h-252v1036h252v-1036zM111 1343q0 68 46 114t117 46q72 0 120 -46t48 -114q0 -67 -48 -112t-120 -45t-117.5 44.5t-45.5 112.5z" />
    <glyph glyph-name="j" unicode="j" horiz-adv-x="624" 
d="M225 -172v1208h252v-1190q0 -89 -28.5 -156t-77.5 -105.5t-108.5 -57.5t-127.5 -19q-81 0 -144.5 23.5t-102 63.5t-58.5 91t-20 109q0 53 14 84h211q-8 -23 -8 -59q0 -48 25.5 -75.5t72.5 -27.5t73.5 30.5t26.5 80.5zM186 1343q0 68 46.5 114t117.5 46q72 0 120 -46
t48 -114q0 -67 -48 -112t-120 -45t-118 44.5t-46 112.5z" />
    <glyph glyph-name="k" unicode="k" horiz-adv-x="1163" 
d="M393 608l326 428h278v-30l-360 -445l156 -242q45 -66 76 -90t85 -24q74 0 123 37l90 -174q-98 -91 -247 -91q-108 0 -181 50t-137 139l-209 336v-502h-252v1481h252v-873z" />
    <glyph glyph-name="l" unicode="l" horiz-adv-x="546" 
d="M399 0h-252v1481h252v-1481z" />
    <glyph glyph-name="m" unicode="m" horiz-adv-x="1878" 
d="M821 0v571q0 134 -49.5 204.5t-142.5 70.5q-95 0 -162.5 -78.5t-71.5 -237.5v-530h-252v1036h252v-174q40 95 121.5 146t183.5 51q233 0 324 -195q96 195 340 195q196 0 290.5 -126.5t94.5 -359.5v-573h-252v571q0 134 -49.5 204.5t-142.5 70.5q-95 0 -162.5 -78.5
t-71.5 -237.5v-530h-250z" />
    <glyph glyph-name="n" unicode="n" 
d="M143 0v1036h252v-174q95 197 336 197q191 0 287 -127.5t96 -358.5v-573h-252v571q0 134 -52.5 204.5t-147.5 70.5q-116 0 -191.5 -85t-75.5 -243v-518h-252z" />
    <glyph glyph-name="o" unicode="o" horiz-adv-x="1267" 
d="M72 518q0 110 46 211t122 173t179.5 114.5t213.5 42.5q149 0 279 -73t207 -198t77 -270q0 -147 -77 -272t-206.5 -197t-279.5 -72q-110 0 -213.5 42.5t-179.5 114.5t-122 173t-46 211zM326 518q0 -136 88.5 -230.5t218.5 -94.5q131 0 220 94.5t89 230.5t-89 231t-220 95
q-130 0 -218.5 -95t-88.5 -231z" />
    <glyph glyph-name="p" unicode="p" horiz-adv-x="1333" 
d="M395 -469h-252v1505h252v-155q55 86 147 132t208 46q150 0 266.5 -72.5t178.5 -196.5t62 -276q0 -110 -35.5 -207.5t-99.5 -171t-161 -116t-213 -42.5q-108 0 -200 44.5t-153 132.5v-623zM1004 516q0 143 -84 237.5t-222 94.5q-134 0 -221.5 -86.5t-87.5 -235.5
q0 -150 88 -244t228 -94q138 0 218.5 94.5t80.5 233.5z" />
    <glyph glyph-name="q" unicode="q" horiz-adv-x="1327" 
d="M1188 -469h-252v623q-129 -177 -354 -177q-154 0 -271 73.5t-177 194.5t-60 269q0 152 62 276t178.5 196.5t265.5 72.5q116 0 207.5 -46t148.5 -132v155h252v-1505zM328 516q0 -139 79.5 -233.5t217.5 -94.5q141 0 229 93.5t88 244.5q0 149 -87.5 235.5t-221.5 86.5
q-138 0 -221.5 -94.5t-83.5 -237.5z" />
    <glyph glyph-name="r" unicode="r" horiz-adv-x="786" 
d="M391 1036v-229q16 83 63.5 142.5t104 84.5t115.5 25q28 0 86 -15v-247q-56 20 -119 20q-31 0 -61 -7t-65 -29.5t-60.5 -58t-42.5 -98.5t-17 -145v-479h-252v1036h248z" />
    <glyph glyph-name="s" unicode="s" horiz-adv-x="946" 
d="M53 246l199 84q19 -74 81 -112t140 -38q64 0 110 26t46 83q0 38 -28.5 62t-84.5 48l-151 58q-74 27 -127.5 63.5t-81.5 75.5t-40 75.5t-12 73.5q0 142 107.5 228t271.5 86q53 0 103 -10.5t101.5 -35t93 -72.5t65.5 -114l-203 -73q-18 57 -63 81.5t-95 24.5
q-54 0 -94.5 -28.5t-40.5 -79.5q0 -39 28.5 -62.5t80.5 -44.5l153 -55q79 -25 134.5 -62.5t82 -80t37.5 -79.5t11 -75q0 -147 -118 -231.5t-288 -84.5q-91 0 -171.5 25t-149.5 87.5t-97 156.5z" />
    <glyph glyph-name="t" unicode="t" horiz-adv-x="894" 
d="M455 1313v-277h309v-192h-309v-543q0 -113 100 -113q47 0 74.5 29.5t27.5 77.5q0 54 -14 86h207q22 -48 22 -117q0 -122 -84 -204.5t-243 -82.5q-55 0 -102 9.5t-92.5 35t-77 65t-51 103t-19.5 146.5v508h-162v192h174l45 277h195z" />
    <glyph glyph-name="u" unicode="u" 
d="M1100 1036v-1036h-252v174q-95 -197 -334 -197q-191 0 -288 127.5t-97 358.5v573h252v-571q0 -266 201 -266q46 0 90.5 20.5t85 63.5t65.5 122t25 183v448h252z" />
    <glyph glyph-name="v" unicode="v" horiz-adv-x="1169" 
d="M1135 1036l-418 -1036h-264l-418 1036h272l277 -755l278 755h273z" />
    <glyph glyph-name="w" unicode="w" horiz-adv-x="1687" 
d="M537 342l211 666h190l213 -666l223 694h273l-373 -1036h-225l-205 653l-207 -653h-223l-373 1036h270z" />
    <glyph glyph-name="x" unicode="x" horiz-adv-x="1204" 
d="M602 369l-295 -369h-291v25l428 512l-395 479v20h291l262 -334l262 334h291v-20l-395 -479l428 -512v-25h-291z" />
    <glyph glyph-name="y" unicode="y" horiz-adv-x="1175" 
d="M596 326l270 710h283l-643 -1505h-248l211 530l-440 975h284z" />
    <glyph glyph-name="z" unicode="z" horiz-adv-x="1167" 
d="M1102 201v-201h-1041v152l641 686h-604v198h965v-151l-641 -684h680z" />
    <glyph glyph-name="braceleft" unicode="{" horiz-adv-x="716" 
d="M352 539v-13q70 -16 105 -66.5t35 -113.5q0 -60 -30 -146t-60.5 -176t-30.5 -159q0 -146 131 -146h12q55 4 141 13v-166q-157 -15 -184 -15q-67 0 -126 17.5t-107 52t-75.5 92t-27.5 131.5q0 116 78 334q59 162 59 215q0 17 -14.5 30t-40.5 21t-49 12.5t-52 8.5t-38 6
v137q11 2 37 6.5t39.5 7t35.5 7.5t33.5 10t24.5 12t18.5 15.5t5.5 19.5q0 30 -8 51q-14 63 -48.5 161t-57.5 181.5t-23 155.5q0 75 27.5 132.5t75.5 92t107 51.5t126 17q27 0 184 -15v-165q-86 12 -153 12q-131 0 -131 -146q0 -69 30.5 -159.5t60.5 -176.5t30 -145
q0 -63 -35 -114.5t-105 -67.5v-12z" />
    <glyph glyph-name="bar" unicode="|" horiz-adv-x="452" 
d="M311 -469h-170v2030h170v-2030z" />
    <glyph glyph-name="braceright" unicode="}" horiz-adv-x="718" 
d="M367 526v13v12q-70 16 -105 67.5t-35 114.5q0 47 19 112.5t41.5 120.5t41.5 124t19 124q0 146 -131 146q-68 0 -154 -12v165q157 15 185 15q67 0 126 -17t107 -51.5t75.5 -92t27.5 -132.5q0 -72 -23 -155.5t-57.5 -181.5t-48.5 -161q-9 -24 -9 -51q0 -11 5.5 -19.5
t18.5 -15.5t25 -12t34 -10t35.5 -7.5t39.5 -7t37 -6.5v-137q-9 -2 -38.5 -6t-52.5 -8.5t-49 -12.5t-40.5 -21t-14.5 -30q0 -51 60 -215q78 -218 78 -334q0 -74 -27.5 -131.5t-75.5 -92t-107 -52t-126 -17.5q-28 0 -185 15v166q82 -8 142 -13h12q131 0 131 146q0 55 -19 124
t-41.5 123.5t-41.5 120t-19 113.5q0 63 35 113.5t105 66.5z" />
    <glyph glyph-name="asciitilde" unicode="~" horiz-adv-x="1220" 
d="M993 786l111 -141q-33 -93 -108.5 -149t-172.5 -56q-48 0 -95 15t-84.5 37t-74 44t-80 37t-86.5 15q-59 0 -107.5 -30t-70.5 -89l-106 145q25 84 100 142.5t176 58.5q52 0 111 -23.5t103.5 -51t100.5 -51t103 -23.5q121 0 180 120z" />
    <glyph glyph-name="uni00A0" unicode="&#xa0;" horiz-adv-x="520" 
 />
    <glyph glyph-name="exclamdown" unicode="&#xa1;" horiz-adv-x="538" 
d="M420 -367v-30h-303v30l63 940h176zM98 897q0 69 49.5 115.5t122.5 46.5q72 0 122 -46.5t50 -115.5q0 -71 -49.5 -118.5t-122.5 -47.5q-74 0 -123 47t-49 119z" />
    <glyph glyph-name="cent" unicode="&#xa2;" horiz-adv-x="1157" 
d="M90 512q0 151 65.5 273t194.5 196.5t301 77.5l33 182h137l-35 -194q143 -24 283 -127l-117 -181q-90 71 -204 88l-115 -620q16 -6 59 -6q28 0 62 4.5t93 27.5t105 62l117 -178q-183 -140 -397 -140q-33 0 -80 7l-35 -199h-137l41 223q-177 53 -274 187.5t-97 316.5z
M342 518q0 -91 43 -161.5t119 -112.5l104 583q-122 -20 -194 -103.5t-72 -205.5z" />
    <glyph glyph-name="sterling" unicode="&#xa3;" horiz-adv-x="1304" 
d="M950 584h-327q22 -67 22 -144q0 -68 -31.5 -131.5t-95.5 -99.5v-10q98 10 252 10h449v-209h-1139v209q98 4 164.5 24t98.5 53.5t44 68t12 79.5q0 63 -24 150h-254v133h203q-30 78 -45 120.5t-29 102.5t-14 109q0 181 139 294t346 113q96 0 175.5 -24t131 -63t87 -90.5
t50.5 -104.5t15 -107h-242q0 75 -56 122.5t-157 47.5q-110 0 -173 -52.5t-63 -144.5q0 -113 86 -323h375v-133z" />
    <glyph glyph-name="currency" unicode="&#xa4;" horiz-adv-x="1101" 
d="M549 469q78 0 134 58.5t56 140.5q0 85 -55.5 142.5t-134.5 57.5q-78 0 -134.5 -58t-56.5 -142q0 -81 57 -140t134 -59zM549 287q-109 0 -191 49l-120 -117l-136 139l115 113q-53 92 -53 199q0 102 51 188l-111 111l140 139l106 -109q91 54 199 54q110 0 201 -54l106 109
l137 -139l-108 -111q49 -90 49 -188q0 -110 -53 -199l116 -113l-137 -139l-119 117q-85 -49 -192 -49z" />
    <glyph glyph-name="yen" unicode="&#xa5;" horiz-adv-x="1490" 
d="M1247 301h-370v-301h-263v301h-372v141h372v140h-372v139h282l-461 686v27h302l380 -615l381 615h301v-27l-462 -686h282v-139h-370v-140h370v-141z" />
    <glyph glyph-name="brokenbar" unicode="&#xa6;" horiz-adv-x="477" 
d="M324 715h-170v848h170v-848zM324 -469h-170v848h170v-848z" />
    <glyph glyph-name="section" unicode="&#xa7;" horiz-adv-x="1226" 
d="M84 -125l90 174q215 -164 444 -164q126 0 191 44t65 110q0 99 -196 147l-195 50q-100 27 -172 68.5t-108.5 88.5t-53 91t-16.5 89q0 82 47 152t135 117q-182 102 -182 268q0 102 66.5 182.5t174.5 122t236 41.5q112 0 232 -30t223 -85l-96 -186q-187 96 -348 96
q-107 0 -171.5 -35.5t-64.5 -99.5q0 -37 38.5 -75.5t131.5 -63.5l186 -47q189 -50 285 -130t96 -208q0 -80 -42 -158.5t-124 -126.5q170 -96 170 -258q0 -157 -136.5 -262.5t-373.5 -105.5q-173 0 -310.5 54t-221.5 140zM883 557q0 47 -29 85t-92 56l-254 62
q-133 -56 -133 -168q0 -109 135 -141l231 -60q65 20 102.5 65t39.5 101z" />
    <glyph glyph-name="dieresis" unicode="&#xa8;" horiz-adv-x="1329" 
d="M274 1343q0 63 44 105.5t110 42.5t110 -42.5t44 -105.5q0 -62 -44 -103.5t-110 -41.5t-110 41.5t-44 103.5zM748 1343q0 63 42.5 105.5t108.5 42.5t111 -42.5t45 -105.5q0 -61 -45 -103t-111 -42t-108.5 41.5t-42.5 103.5z" />
    <glyph glyph-name="copyright" unicode="&#xa9;" horiz-adv-x="1634" 
d="M94 717q0 151 56 287.5t151.5 235.5t230 157.5t285.5 58.5t285.5 -58.5t230 -157.5t151.5 -235.5t56 -287.5q0 -202 -94.5 -371.5t-261 -269t-367.5 -99.5t-367.5 99.5t-261 269t-94.5 371.5zM229 717q0 -166 77.5 -304.5t213 -219t297.5 -80.5q164 0 299.5 80.5t212 219
t76.5 304.5q0 164 -76.5 302.5t-212 220t-299.5 81.5q-162 0 -297.5 -81.5t-213 -220t-77.5 -302.5zM428 715q0 163 114.5 275t297.5 112q79 0 137.5 -24t130.5 -74l-78 -127q-88 63 -190 63q-111 0 -170.5 -66.5t-59.5 -156.5q0 -92 59 -157.5t171 -65.5q101 0 190 61
l78 -127q-71 -49 -129.5 -72.5t-138.5 -23.5q-183 0 -297.5 111.5t-114.5 271.5z" />
    <glyph glyph-name="ordfeminine" unicode="&#xaa;" horiz-adv-x="1028" 
d="M868 748h-194v102q-34 -56 -98 -85.5t-127 -29.5q-144 0 -230 102.5t-86 254.5t86.5 254t233.5 102q64 0 125 -27t96 -88v101h194v-686zM676 1090q0 82 -49 133t-127 51q-75 0 -120.5 -52.5t-45.5 -127.5q0 -80 46 -132.5t122 -52.5q75 0 122.5 48t51.5 133zM160 418v145
h696v-145h-696z" />
    <glyph glyph-name="guillemotleft" unicode="&#xab;" horiz-adv-x="1212" 
d="M580 590v45l395 452l145 -124l-303 -351l303 -346l-145 -127zM82 590v45l393 452l148 -124l-304 -351l302 -346l-146 -127z" />
    <glyph glyph-name="logicalnot" unicode="&#xac;" horiz-adv-x="1275" 
d="M111 745v216h1017v-568h-215v352h-802z" />
    <glyph glyph-name="uni00AD" unicode="&#xad;" horiz-adv-x="1103" 
d="M133 561v215h838v-215h-838z" />
    <glyph glyph-name="registered" unicode="&#xae;" horiz-adv-x="1634" 
d="M733 743h123q37 0 59.5 28.5t22.5 70.5q0 38 -23.5 73t-58.5 35h-123v-207zM1114 842q0 -79 -38 -137t-109 -82q6 -9 32 -51.5t36 -59.5t29.5 -50.5t33.5 -60.5t26 -55h-184l-137 260h-70v-260h-174v744h318q111 0 174 -72t63 -176zM94 717q0 151 56 287.5t151.5 235.5
t230 157.5t285.5 58.5t285.5 -58.5t230 -157.5t151.5 -235.5t56 -287.5q0 -202 -94.5 -371.5t-261 -269t-367.5 -99.5t-367.5 99.5t-261 269t-94.5 371.5zM229 717q0 -166 76.5 -304.5t212 -219t299.5 -80.5q162 0 297.5 80.5t213 219t77.5 304.5q0 164 -77.5 302.5
t-213 220t-297.5 81.5q-164 0 -299.5 -81.5t-212 -220t-76.5 -302.5z" />
    <glyph glyph-name="macron" unicode="&#xaf;" horiz-adv-x="1140" 
d="M266 1419h608v-184h-608v184z" />
    <glyph glyph-name="degree" unicode="&#xb0;" horiz-adv-x="864" 
d="M82 1130q0 147 101.5 249t248.5 102q148 0 249 -102t101 -249q0 -143 -101 -243.5t-249 -100.5q-147 0 -248.5 100.5t-101.5 243.5zM246 1130q0 -82 52.5 -137t133.5 -55q84 0 136.5 54.5t52.5 137.5q0 86 -52.5 142.5t-136.5 56.5q-81 0 -133.5 -57t-52.5 -142z" />
    <glyph glyph-name="plusminus" unicode="&#xb1;" horiz-adv-x="1265" 
d="M743 436h-221v295h-383v201h383v293h221v-293h381v-201h-381v-295zM1124 119h-985v198h985v-198z" />
    <glyph glyph-name="twosuperior" unicode="&#xb2;" horiz-adv-x="679" 
d="M459 1147l-146 -129q39 6 105 6h205v-129h-551l-17 92l297 260q86 71 86 146q0 46 -28 71t-76 25q-60 0 -87.5 -33t-27.5 -76h-158q0 39 14 79t44 78.5t86 62.5t129 24q121 0 191.5 -64.5t70.5 -166.5q0 -134 -137 -246z" />
    <glyph glyph-name="threesuperior" unicode="&#xb3;" horiz-adv-x="673" 
d="M313 1010q61 0 100.5 35.5t39.5 84.5q0 53 -38.5 88t-90.5 35q-56 0 -93 -20l-61 80l201 174h-297v125h518v-88l-193 -176q98 -10 156.5 -70.5t58.5 -147.5q0 -106 -82 -176.5t-221 -70.5q-80 0 -144 19t-120 69l82 102q82 -63 184 -63z" />
    <glyph glyph-name="acute" unicode="&#xb4;" horiz-adv-x="1089" 
d="M455 1507h272l-266 -329h-197z" />
    <glyph glyph-name="mu" unicode="&#xb5;" horiz-adv-x="1241" 
d="M135 -319v1355h252v-594q0 -121 53.5 -186.5t147.5 -65.5q116 0 191 85t75 243v518h252v-1036h-252v174q-95 -197 -336 -197q-68 0 -141 25v-321h-242z" />
    <glyph glyph-name="paragraph" unicode="&#xb6;" horiz-adv-x="1355" 
d="M403 1434h330v-29q-36 -28 -56 -66t-20 -106v-1524h-168v1047h-86q-141 0 -238 98.5t-97 239.5t97 240.5t238 99.5zM942 1202v-1493h-166v1501q0 117 74.5 181.5t183.5 64.5q124 0 191 -62.5t67 -160.5q0 -23 -2 -33q-2 -25 -16 -65h-158q14 39 14 75q0 42 -28 65t-66 23
q-41 0 -67.5 -24.5t-26.5 -71.5z" />
    <glyph glyph-name="periodcentered" unicode="&#xb7;" horiz-adv-x="577" 
d="M117 569q0 69 49 117.5t121 48.5t123 -48.5t51 -117.5t-51 -116t-123 -47t-121 47t-49 116z" />
    <glyph glyph-name="cedilla" unicode="&#xb8;" horiz-adv-x="931" 
d="M440 18v29h121q97 -55 140.5 -129t43.5 -141q0 -63 -26 -111.5t-67.5 -75t-86 -39t-88.5 -12.5q-106 0 -182.5 63t-110.5 162l123 60q55 -115 148 -115q48 0 79 31.5t31 81.5q0 46 -28 101.5t-97 94.5z" />
    <glyph glyph-name="onesuperior" unicode="&#xb9;" horiz-adv-x="464" 
d="M57 1370l-41 121l273 121h90v-717h-164v543z" />
    <glyph glyph-name="ordmasculine" unicode="&#xba;" horiz-adv-x="1003" 
d="M129 1087q0 147 110.5 252t260.5 105t260 -105.5t110 -251.5q0 -147 -110 -253.5t-260 -106.5q-151 0 -261 104.5t-110 255.5zM330 1085q0 -76 48.5 -128t121.5 -52q72 0 121 52.5t49 127.5q0 76 -49.5 129.5t-120.5 53.5q-73 0 -121.5 -53.5t-48.5 -129.5zM154 418v145
h696v-145h-696z" />
    <glyph glyph-name="guillemotright" unicode="&#xbb;" horiz-adv-x="1210" 
d="M633 635v-45l-395 -451l-146 127l303 346l-303 351l146 124zM1130 635v-45l-393 -451l-145 127l301 346l-303 351l147 124z" />
    <glyph glyph-name="onequarter" unicode="&#xbc;" horiz-adv-x="1714" 
d="M1499 1505l-1120 -1585h-189l1119 1585h190zM106 1192l-40 121l272 121h90v-717h-164v543zM1153 305h184v211zM1331 184h-348v86l375 447h135v-412h145v-121h-145v-184h-162v184z" />
    <glyph glyph-name="onehalf" unicode="&#xbd;" horiz-adv-x="1787" 
d="M1499 1505l-1120 -1585h-189l1119 1585h190zM106 1192l-40 121l272 121h90v-717h-164v543zM1542 252l-145 -129q39 6 104 6h205v-129h-551l-16 92l297 260q86 71 86 146q0 46 -28.5 71t-76.5 25q-60 0 -87 -33t-27 -76h-158q0 31 8 62.5t28.5 64.5t50 58.5t78 42
t107.5 16.5q121 0 191.5 -64.5t70.5 -166.5q0 -134 -137 -246z" />
    <glyph glyph-name="threequarters" unicode="&#xbe;" horiz-adv-x="1808" 
d="M1599 1505l-1120 -1585h-188l1118 1585h190zM1253 305h185v211zM1432 184h-349v86l375 447h135v-412h146v-121h-146v-184h-161v184zM342 831q61 0 100 36t39 85q0 53 -38.5 88t-90.5 35q-55 0 -92 -20l-61 80l200 174h-297v125h519v-88l-193 -177q98 -10 156.5 -70
t58.5 -147q0 -106 -82 -176.5t-221 -70.5q-80 0 -144 19t-120 69l82 102q83 -64 184 -64z" />
    <glyph glyph-name="questiondown" unicode="&#xbf;" horiz-adv-x="1073" 
d="M473 573h234q0 -47 -0.5 -68.5t-5 -52t-12.5 -46t-24 -36.5t-39.5 -38.5t-58.5 -38.5q-66 -41 -106 -70.5t-74.5 -65.5t-49.5 -75t-15 -86q0 -93 63 -146t168 -53q95 0 154 45t59 119q0 39 -18 92h241q17 -37 21 -86q0 -50 -13.5 -99.5t-47 -102t-84 -92.5t-132.5 -65.5
t-184 -25.5q-138 0 -247.5 49.5t-172.5 143t-63 215.5q0 76 27 143.5t79.5 124.5t108 101t133.5 92q59 35 59 122zM764 897q0 -72 -49 -119t-123 -47q-73 0 -122.5 47.5t-49.5 118.5q0 69 50 115.5t122 46.5q73 0 122.5 -46.5t49.5 -115.5z" />
    <glyph glyph-name="Agrave" unicode="&#xc0;" horiz-adv-x="1417" 
d="M416 1851h266l168 -301h-195zM289 0h-271l553 1434h273l557 -1434h-268l-109 281h-631zM948 494l-239 673l-242 -673h481z" />
    <glyph glyph-name="Aacute" unicode="&#xc1;" horiz-adv-x="1417" 
d="M735 1851h266l-239 -301h-197zM289 0h-271l553 1434h273l557 -1434h-268l-109 281h-631zM948 494l-239 673l-242 -673h481z" />
    <glyph glyph-name="Acircumflex" unicode="&#xc2;" horiz-adv-x="1417" 
d="M582 1851h254l215 -301h-183l-159 170l-160 -170h-182zM289 0h-271l553 1434h273l557 -1434h-268l-109 281h-631zM948 494l-239 673l-242 -673h481z" />
    <glyph glyph-name="Atilde" unicode="&#xc3;" horiz-adv-x="1417" 
d="M934 1851l121 -36q-32 -121 -78.5 -176.5t-128.5 -55.5q-57 0 -149.5 38t-120.5 38q-39 0 -59.5 -20t-45.5 -74l-121 37q32 121 78.5 176t128.5 55q57 0 149.5 -38t120.5 -38q39 0 59.5 20t45.5 74zM289 0h-271l553 1434h273l557 -1434h-268l-109 281h-631zM948 494
l-239 673l-242 -673h481z" />
    <glyph glyph-name="Adieresis" unicode="&#xc4;" horiz-adv-x="1417" 
d="M322 1692q0 63 41.5 102t107.5 39t109 -39t43 -102q0 -61 -43 -99.5t-109 -38.5t-107.5 38.5t-41.5 99.5zM795 1692q0 63 41.5 102t107.5 39t109 -39t43 -102q0 -61 -43 -99.5t-109 -38.5t-107.5 38.5t-41.5 99.5zM289 0h-271l553 1434h273l557 -1434h-268l-109 281h-631
zM948 494l-239 673l-242 -673h481z" />
    <glyph glyph-name="Aring" unicode="&#xc5;" horiz-adv-x="1417" 
d="M289 0h-271l553 1434h273l557 -1434h-268l-109 281h-631zM948 494l-239 673l-242 -673h481zM473 1745q0 96 67 155.5t167 59.5t167.5 -59.5t67.5 -155.5t-67 -153.5t-168 -57.5t-167.5 57.5t-66.5 153.5zM594 1745q0 -46 32 -73t81 -27q48 0 79 27t31 73t-31 73t-79 27
q-49 0 -81 -27t-32 -73z" />
    <glyph glyph-name="AE" unicode="&#xc6;" horiz-adv-x="1882" 
d="M-12 0l768 1434h1026v-211h-623v-439h547v-209h-547v-366h623v-209h-885v567h-334q-238 -453 -299 -567h-276zM664 774h233v418h-20z" />
    <glyph glyph-name="Ccedilla" unicode="&#xc7;" horiz-adv-x="1411" 
d="M918 -20q90 -98 90 -203q0 -51 -17.5 -93t-45.5 -68t-64.5 -44t-71.5 -25.5t-70 -7.5q-106 0 -183.5 63t-109.5 162q20 12 61 30t60 30q55 -115 150 -115q46 0 77 30.5t31 82.5q0 94 -73 162q-153 18 -279.5 83.5t-210.5 164t-130 223t-46 262.5q0 150 55 284t154 235
t248 160.5t325 59.5q154 0 269 -42.5t225 -125.5l-105 -196q-177 131 -387 131q-158 0 -277 -68.5t-179 -182.5t-60 -255t60 -255t179 -182.5t277 -68.5q215 0 387 131l105 -199q-100 -75 -205 -116t-239 -47z" />
    <glyph glyph-name="Egrave" unicode="&#xc8;" horiz-adv-x="1216" 
d="M1116 0h-932v1434h932v-211h-670v-416h584v-209h-584v-389h670v-209zM344 1851h266l168 -301h-194z" />
    <glyph glyph-name="Eacute" unicode="&#xc9;" horiz-adv-x="1216" 
d="M1116 0h-932v1434h932v-211h-670v-416h584v-209h-584v-389h670v-209zM645 1851h266l-239 -301h-197z" />
    <glyph glyph-name="Ecircumflex" unicode="&#xca;" horiz-adv-x="1216" 
d="M1116 0h-932v1434h932v-211h-670v-416h584v-209h-584v-389h670v-209zM506 1851h254l215 -301h-182l-160 170l-160 -170h-182z" />
    <glyph glyph-name="Edieresis" unicode="&#xcb;" horiz-adv-x="1216" 
d="M1116 0h-932v1434h932v-211h-670v-416h584v-209h-584v-389h670v-209zM242 1692q0 63 41.5 102t107.5 39t109 -39t43 -102q0 -61 -43 -99.5t-109 -38.5t-107.5 38.5t-41.5 99.5zM715 1692q0 63 41.5 102t107.5 39t109 -39t43 -102q0 -61 -43 -99.5t-109 -38.5t-107.5 38.5
t-41.5 99.5z" />
    <glyph glyph-name="Igrave" unicode="&#xcc;" horiz-adv-x="630" 
d="M23 1851h266l168 -301h-195zM446 1434v-1434h-262v1434h262z" />
    <glyph glyph-name="Iacute" unicode="&#xcd;" horiz-adv-x="630" 
d="M346 1851h266l-239 -301h-197zM446 1434v-1434h-262v1434h262z" />
    <glyph glyph-name="Icircumflex" unicode="&#xce;" horiz-adv-x="630" 
d="M190 1851h254l215 -301h-182l-160 170l-159 -170h-183zM446 1434v-1434h-262v1434h262z" />
    <glyph glyph-name="Idieresis" unicode="&#xcf;" horiz-adv-x="630" 
d="M-70 1692q0 63 42 102t108 39t108.5 -39t42.5 -102q0 -61 -42.5 -99.5t-108.5 -38.5t-108 38.5t-42 99.5zM403 1692q0 63 42 102t108 39t109 -39t43 -102q0 -61 -43 -99.5t-109 -38.5t-108 38.5t-42 99.5zM446 1434v-1434h-262v1434h262z" />
    <glyph glyph-name="Eth" unicode="&#xd0;" horiz-adv-x="1521" 
d="M55 621v182h129v629h508q159 0 298 -56.5t236.5 -153t153.5 -228t56 -277.5t-56 -277.5t-153.5 -228.5t-236.5 -154t-298 -57h-508v621h-129zM1167 717q0 138 -60.5 254t-170 184t-244.5 68h-246v-420h353v-182h-353v-412h246q204 0 339.5 148t135.5 360z" />
    <glyph glyph-name="Ntilde" unicode="&#xd1;" horiz-adv-x="1538" 
d="M993 1851l123 -36q-32 -121 -79 -176.5t-130 -55.5q-53 0 -147 38t-123 38q-39 0 -59.5 -20.5t-42.5 -73.5l-123 37q32 121 79 176t130 55q53 0 147 -38t123 -38q39 0 59.5 20.5t42.5 73.5zM1157 0l-711 967v-967h-262v1434h199l709 -961v961h262v-1434h-197z" />
    <glyph glyph-name="Ograve" unicode="&#xd2;" horiz-adv-x="1667" 
d="M510 1851h266l170 -301h-196zM84 717q0 200 101.5 370.5t274 269.5t374.5 99t374.5 -99t273.5 -269.5t101 -370.5q0 -150 -60 -287t-160.5 -236.5t-239 -158t-289.5 -58.5q-202 0 -374.5 99t-274 270t-101.5 371zM350 717q0 -106 38.5 -200t104 -160t154.5 -104t187 -38
q200 0 341.5 144t141.5 358t-141.5 358t-341.5 144q-98 0 -187 -38t-154.5 -104t-104 -160t-38.5 -200z" />
    <glyph glyph-name="Oacute" unicode="&#xd3;" horiz-adv-x="1667" 
d="M864 1851h266l-239 -301h-195zM84 717q0 200 101.5 370.5t274 269.5t374.5 99t374.5 -99t273.5 -269.5t101 -370.5q0 -150 -60 -287t-160.5 -236.5t-239 -158t-289.5 -58.5q-202 0 -374.5 99t-274 270t-101.5 371zM350 717q0 -106 38.5 -200t104 -160t154.5 -104t187 -38
q200 0 341.5 144t141.5 358t-141.5 358t-341.5 144q-98 0 -187 -38t-154.5 -104t-104 -160t-38.5 -200z" />
    <glyph glyph-name="Ocircumflex" unicode="&#xd4;" horiz-adv-x="1667" 
d="M705 1851h256l215 -301h-183l-159 170l-160 -170h-182zM84 717q0 200 101.5 370.5t274 269.5t374.5 99t374.5 -99t273.5 -269.5t101 -370.5q0 -150 -60 -287t-160.5 -236.5t-239 -158t-289.5 -58.5q-202 0 -374.5 99t-274 270t-101.5 371zM350 717q0 -106 38.5 -200
t104 -160t154.5 -104t187 -38q200 0 341.5 144t141.5 358t-141.5 358t-341.5 144q-98 0 -187 -38t-154.5 -104t-104 -160t-38.5 -200z" />
    <glyph glyph-name="Otilde" unicode="&#xd5;" horiz-adv-x="1667" 
d="M1063 1851l123 -36q-32 -121 -79 -176.5t-130 -55.5q-53 0 -147 38t-123 38q-39 0 -60 -20.5t-43 -73.5l-123 37q32 121 79 176t130 55q53 0 147.5 -38t123.5 -38q39 0 59.5 20.5t42.5 73.5zM84 717q0 200 101.5 370.5t274 269.5t374.5 99t374.5 -99t273.5 -269.5
t101 -370.5q0 -150 -60 -287t-160.5 -236.5t-239 -158t-289.5 -58.5q-202 0 -374.5 99t-274 270t-101.5 371zM350 717q0 -106 38.5 -200t104 -160t154.5 -104t187 -38q200 0 341.5 144t141.5 358t-141.5 358t-341.5 144q-98 0 -187 -38t-154.5 -104t-104 -160t-38.5 -200z
" />
    <glyph glyph-name="Odieresis" unicode="&#xd6;" horiz-adv-x="1667" 
d="M444 1692q0 63 43 102t109 39t109 -39t43 -102q0 -61 -43 -99.5t-109 -38.5t-109 38.5t-43 99.5zM918 1692q0 63 41.5 102t107.5 39q67 0 110.5 -39.5t43.5 -101.5q0 -61 -43.5 -99.5t-110.5 -38.5q-66 0 -107.5 38.5t-41.5 99.5zM84 717q0 200 101.5 370.5t274 269.5
t374.5 99t374.5 -99t273.5 -269.5t101 -370.5q0 -150 -60 -287t-160.5 -236.5t-239 -158t-289.5 -58.5q-202 0 -374.5 99t-274 270t-101.5 371zM350 717q0 -106 38.5 -200t104 -160t154.5 -104t187 -38q200 0 341.5 144t141.5 358t-141.5 358t-341.5 144q-98 0 -187 -38
t-154.5 -104t-104 -160t-38.5 -200z" />
    <glyph glyph-name="multiply" unicode="&#xd7;" horiz-adv-x="1091" 
d="M987 344l-153 -154l-293 293l-293 -295l-146 148l293 293l-291 291l154 153l291 -291l293 293l147 -147l-295 -291z" />
    <glyph glyph-name="Oslash" unicode="&#xd8;" horiz-adv-x="1667" 
d="M403 -98l-143 98l98 145q-127 108 -200.5 256t-73.5 316q0 200 101.5 370.5t274 269.5t374.5 99q184 0 350 -88l102 154l144 -99l-105 -153q121 -106 189.5 -248.5t68.5 -304.5q0 -150 -60 -287t-160.5 -236.5t-239 -158t-289.5 -58.5q-174 0 -328 74zM350 717
q0 -108 39.5 -202.5t108.5 -162.5l549 815q-98 52 -213 52q-98 0 -187 -38t-154.5 -104t-104 -160t-38.5 -200zM1317 717q0 200 -131 344l-543 -807q85 -39 191 -39q200 0 341.5 144t141.5 358z" />
    <glyph glyph-name="Ugrave" unicode="&#xd9;" horiz-adv-x="1490" 
d="M467 1851h266l170 -301h-196zM1063 1434h262v-897q0 -134 -46.5 -242t-126.5 -176.5t-184 -105t-223 -36.5q-120 0 -224.5 36.5t-184 105.5t-125 176.5t-45.5 241.5v897h262v-897q0 -160 90.5 -247t226.5 -87q135 0 226.5 87t91.5 247v897z" />
    <glyph glyph-name="Uacute" unicode="&#xda;" horiz-adv-x="1490" 
d="M743 1851h267l-240 -301h-197zM1063 1434h262v-897q0 -134 -46.5 -242t-126.5 -176.5t-184 -105t-223 -36.5q-120 0 -224.5 36.5t-184 105.5t-125 176.5t-45.5 241.5v897h262v-897q0 -160 90.5 -247t226.5 -87q135 0 226.5 87t91.5 247v897z" />
    <glyph glyph-name="Ucircumflex" unicode="&#xdb;" horiz-adv-x="1490" 
d="M616 1851h256l215 -301h-182l-160 170l-159 -170h-183zM1063 1434h262v-897q0 -134 -46.5 -242t-126.5 -176.5t-184 -105t-223 -36.5q-120 0 -224.5 36.5t-184 105.5t-125 176.5t-45.5 241.5v897h262v-897q0 -160 90.5 -247t226.5 -87q135 0 226.5 87t91.5 247v897z" />
    <glyph glyph-name="Udieresis" unicode="&#xdc;" horiz-adv-x="1490" 
d="M356 1692q0 63 43 102t109 39t108.5 -39t42.5 -102q0 -61 -42.5 -99.5t-108.5 -38.5t-109 38.5t-43 99.5zM829 1692q0 63 42 102t108 39q67 0 110.5 -39.5t43.5 -101.5q0 -61 -43.5 -99.5t-110.5 -38.5q-66 0 -108 38.5t-42 99.5zM1063 1434h262v-897q0 -134 -46.5 -242
t-126.5 -176.5t-184 -105t-223 -36.5q-120 0 -224.5 36.5t-184 105.5t-125 176.5t-45.5 241.5v897h262v-897q0 -160 90.5 -247t226.5 -87q135 0 226.5 87t91.5 247v897z" />
    <glyph glyph-name="Yacute" unicode="&#xdd;" horiz-adv-x="1441" 
d="M733 1851h266l-239 -301h-195zM719 819l387 615h293v-27l-547 -819v-588h-262v586l-547 821v27h293z" />
    <glyph glyph-name="Thorn" unicode="&#xde;" horiz-adv-x="1302" 
d="M444 319v-319h-260v1434h260v-320h439q154 0 257 -118.5t103 -278.5q0 -104 -45.5 -194.5t-131 -147t-192.5 -56.5h-430zM444 530h349q90 0 136 55t46 132q0 80 -42 134t-140 54h-349v-375z" />
    <glyph glyph-name="germandbls" unicode="&#xdf;" horiz-adv-x="1245" 
d="M688 0h-121q-10 52 -45 209h166q107 0 170.5 61t63.5 150q0 111 -103 191.5t-276 80.5l-43 172q151 10 223 70.5t72 152.5q0 90 -54 136.5t-149 46.5q-86 0 -140.5 -64t-54.5 -162v-1044h-254v1044q0 217 121 333t334 116t332 -104.5t119 -284.5q0 -101 -56.5 -180.5
t-163.5 -116.5q154 -25 250.5 -132.5t96.5 -260.5q0 -182 -134.5 -298t-353.5 -116z" />
    <glyph glyph-name="agrave" unicode="&#xe0;" horiz-adv-x="1331" 
d="M936 1036h252v-1036h-252v156q-56 -86 -147.5 -132.5t-206.5 -46.5q-150 0 -267 73.5t-179 197t-62 274.5q0 148 60.5 269t178 194.5t271.5 73.5q108 0 199.5 -44t152.5 -132v153zM328 520q0 -143 83.5 -237.5t221.5 -94.5q134 0 221.5 86.5t87.5 235.5q0 152 -87.5 245
t-227.5 93q-138 0 -218.5 -94.5t-80.5 -233.5zM313 1507h273l190 -329h-198z" />
    <glyph glyph-name="aacute" unicode="&#xe1;" horiz-adv-x="1333" 
d="M938 1036h252v-1036h-252v156q-56 -86 -147.5 -132.5t-206.5 -46.5q-150 0 -267 73.5t-179 197t-62 274.5q0 148 60.5 269t178 194.5t271.5 73.5q108 0 199.5 -44t152.5 -132v153zM330 520q0 -143 83.5 -237.5t221.5 -94.5q134 0 221.5 86.5t87.5 235.5q0 152 -87.5 245
t-227.5 93q-138 0 -218.5 -94.5t-80.5 -233.5zM717 1507h272l-266 -329h-197z" />
    <glyph glyph-name="acircumflex" unicode="&#xe2;" horiz-adv-x="1333" 
d="M938 1036h252v-1036h-252v156q-56 -86 -147.5 -132.5t-206.5 -46.5q-150 0 -267 73.5t-179 197t-62 274.5q0 148 60.5 269t178 194.5t271.5 73.5q108 0 199.5 -44t152.5 -132v153zM330 520q0 -143 83.5 -237.5t221.5 -94.5q134 0 221.5 86.5t87.5 235.5q0 152 -87.5 245
t-227.5 93q-138 0 -218.5 -94.5t-80.5 -233.5zM551 1507h256l229 -329h-186l-170 188l-172 -188h-184z" />
    <glyph glyph-name="atilde" unicode="&#xe3;" horiz-adv-x="1333" 
d="M938 1036h252v-1036h-252v156q-56 -86 -147.5 -132.5t-206.5 -46.5q-150 0 -267 73.5t-179 197t-62 274.5q0 148 60.5 269t178 194.5t271.5 73.5q108 0 199.5 -44t152.5 -132v153zM330 520q0 -143 83.5 -237.5t221.5 -94.5q134 0 221.5 86.5t87.5 235.5q0 152 -87.5 245
t-227.5 93q-138 0 -218.5 -94.5t-80.5 -233.5zM909 1485l121 -37q-32 -121 -78.5 -176t-128.5 -55q-57 0 -149.5 37.5t-120.5 37.5q-39 0 -59 -20t-45 -74l-121 37q32 121 78.5 176t128.5 55q57 0 149.5 -37.5t120.5 -37.5q39 0 59 20t45 74z" />
    <glyph glyph-name="adieresis" unicode="&#xe4;" horiz-adv-x="1333" 
d="M938 1036h252v-1036h-252v156q-56 -86 -147.5 -132.5t-206.5 -46.5q-150 0 -267 73.5t-179 197t-62 274.5q0 148 60.5 269t178 194.5t271.5 73.5q108 0 199.5 -44t152.5 -132v153zM330 520q0 -143 83.5 -237.5t221.5 -94.5q134 0 221.5 86.5t87.5 235.5q0 152 -87.5 245
t-227.5 93q-138 0 -218.5 -94.5t-80.5 -233.5zM264 1343q0 63 44 105.5t110 42.5t109.5 -42.5t43.5 -105.5q0 -62 -43.5 -103.5t-109.5 -41.5t-110 41.5t-44 103.5zM737 1343q0 63 43 105.5t109 42.5t110.5 -42.5t44.5 -105.5q0 -62 -44.5 -103.5t-110.5 -41.5t-109 41.5
t-43 103.5z" />
    <glyph glyph-name="aring" unicode="&#xe5;" horiz-adv-x="1333" 
d="M938 1036h252v-1036h-252v156q-56 -86 -147.5 -132.5t-206.5 -46.5q-150 0 -267 73.5t-179 197t-62 274.5q0 148 60.5 269t178 194.5t271.5 73.5q108 0 199.5 -44t152.5 -132v153zM330 520q0 -143 83.5 -237.5t221.5 -94.5q134 0 221.5 86.5t87.5 235.5q0 152 -87.5 245
t-227.5 93q-138 0 -218.5 -94.5t-80.5 -233.5zM430 1393q0 97 68 162t166 65q99 0 167 -65t68 -162q0 -96 -68 -161t-167 -65q-98 0 -166 65t-68 161zM551 1393q0 -47 33 -79t80 -32t78.5 32t31.5 79t-31.5 77.5t-78.5 30.5q-48 0 -80.5 -30.5t-32.5 -77.5z" />
    <glyph glyph-name="ae" unicode="&#xe6;" horiz-adv-x="1906" 
d="M487 643q173 0 301 -45v31q0 57 -21.5 100t-56.5 67t-75.5 36t-83.5 12q-191 0 -326 -107l-94 168q154 154 438 154q267 0 377 -168q139 168 385 168q108 0 200.5 -34.5t164.5 -103t113.5 -181t41.5 -257.5h-825q0 -127 93 -210t255 -83q91 0 155.5 31t131.5 96l143 -141
q-100 -111 -207 -155t-235 -44q-157 0 -274.5 54t-192.5 151q-148 -205 -422 -205q-112 0 -204.5 37.5t-151 116.5t-58.5 186q0 144 116 235t312 91zM1331 858q-44 0 -85 -10t-82 -32t-73.5 -64t-50.5 -99h551q-50 205 -260 205zM788 449q-133 36 -262 36
q-112 0 -162.5 -46.5t-50.5 -110.5q0 -65 51 -107.5t150 -42.5q179 0 297 146q-21 81 -23 125z" />
    <glyph glyph-name="ccedilla" unicode="&#xe7;" horiz-adv-x="1101" 
d="M72 512q0 115 40 215t113.5 173.5t184 116t245.5 42.5q208 0 400 -139l-117 -181q-48 40 -109.5 63t-96 27.5t-64.5 4.5q-151 0 -246.5 -88.5t-95.5 -227.5q0 -138 95.5 -226.5t246.5 -88.5q29 0 64.5 4.5t97.5 27.5t108 62l117 -178q-175 -130 -371 -142q96 -96 96 -202
q0 -64 -26 -112t-68 -74t-86 -38t-88 -12q-106 0 -183.5 63t-109.5 160l121 62q55 -115 149 -115q47 0 78 30t31 83q0 44 -23.5 93t-70.5 79q-200 41 -316 182.5t-116 335.5z" />
    <glyph glyph-name="egrave" unicode="&#xe8;" horiz-adv-x="1239" 
d="M993 317l144 -141q-177 -199 -469 -199q-136 0 -249 42.5t-188.5 115.5t-117 170.5t-41.5 208.5q0 151 72.5 275.5t203 197t291.5 72.5q108 0 203.5 -35t173 -102.5t123 -181t45.5 -257.5h-860q0 -126 97 -209.5t259 -83.5q94 0 168.5 32t144.5 95zM639 858
q-45 0 -87 -10t-84.5 -32t-77 -64t-54.5 -99h590q-27 109 -108.5 157t-178.5 48zM293 1507h272l191 -329h-199z" />
    <glyph glyph-name="eacute" unicode="&#xe9;" horiz-adv-x="1239" 
d="M993 317l144 -141q-177 -199 -469 -199q-136 0 -249 42.5t-188.5 115.5t-117 170.5t-41.5 208.5q0 151 72.5 275.5t203 197t291.5 72.5q108 0 203.5 -35t173 -102.5t123 -181t45.5 -257.5h-860q0 -126 97 -209.5t259 -83.5q94 0 168.5 32t144.5 95zM639 858
q-45 0 -87 -10t-84.5 -32t-77 -64t-54.5 -99h590q-27 109 -108.5 157t-178.5 48zM694 1507h273l-267 -329h-196z" />
    <glyph glyph-name="ecircumflex" unicode="&#xea;" horiz-adv-x="1239" 
d="M993 317l144 -141q-177 -199 -469 -199q-136 0 -249 42.5t-188.5 115.5t-117 170.5t-41.5 208.5q0 151 72.5 275.5t203 197t291.5 72.5q108 0 203.5 -35t173 -102.5t123 -181t45.5 -257.5h-860q0 -126 97 -209.5t259 -83.5q94 0 168.5 32t144.5 95zM639 858
q-45 0 -87 -10t-84.5 -32t-77 -64t-54.5 -99h590q-27 109 -108.5 157t-178.5 48zM494 1507h256l229 -329h-186l-170 188l-172 -188h-185z" />
    <glyph glyph-name="edieresis" unicode="&#xeb;" horiz-adv-x="1239" 
d="M993 317l144 -141q-177 -199 -469 -199q-136 0 -249 42.5t-188.5 115.5t-117 170.5t-41.5 208.5q0 151 72.5 275.5t203 197t291.5 72.5q108 0 203.5 -35t173 -102.5t123 -181t45.5 -257.5h-860q0 -126 97 -209.5t259 -83.5q94 0 168.5 32t144.5 95zM639 858
q-45 0 -87 -10t-84.5 -32t-77 -64t-54.5 -99h590q-27 109 -108.5 157t-178.5 48zM233 1343q0 63 44 105.5t110 42.5t110 -42.5t44 -105.5q0 -62 -44 -103.5t-110 -41.5t-110 41.5t-44 103.5zM707 1343q0 63 42.5 105.5t108.5 42.5t111 -42.5t45 -105.5q0 -61 -45 -103
t-111 -42t-108.5 41.5t-42.5 103.5z" />
    <glyph glyph-name="igrave" unicode="&#xec;" horiz-adv-x="546" 
d="M399 0h-252v1036h252v-1036zM-61 1507h270l190 -329h-196q-44 57 -132 165t-132 164z" />
    <glyph glyph-name="iacute" unicode="&#xed;" horiz-adv-x="546" 
d="M399 0h-252v1036h252v-1036zM338 1507h272l-264 -329h-199z" />
    <glyph glyph-name="icircumflex" unicode="&#xee;" horiz-adv-x="546" 
d="M399 0h-252v1036h252v-1036zM143 1507h254l230 -329h-185l-172 188l-170 -188h-184q40 62 117 171.5t110 157.5z" />
    <glyph glyph-name="idieresis" unicode="&#xef;" horiz-adv-x="546" 
d="M399 0h-252v1036h252v-1036zM-117 1343q0 63 43 105.5t109 42.5t109.5 -42.5t43.5 -105.5q0 -62 -43.5 -103.5t-109.5 -41.5t-109 41.5t-43 103.5zM354 1343q0 63 43 105.5t109 42.5t111 -42.5t45 -105.5q0 -61 -45 -103t-111 -42t-109 41.5t-43 103.5z" />
    <glyph glyph-name="eth" unicode="&#xf0;" horiz-adv-x="1236" 
d="M580 1157l-240 -104l-51 118l184 82q-17 17 -77 66t-77 59l191 131q73 -57 186 -159l230 100l61 -119l-190 -82q168 -176 266 -366.5t98 -380.5q0 -122 -44 -222.5t-118 -166t-170 -101t-202 -35.5q-153 0 -280 69.5t-200 190.5t-73 265q0 109 43 202t113 154t158.5 95
t180.5 34q146 0 197 -47q-74 113 -186 217zM328 502q0 -131 83.5 -220t206.5 -89q136 0 212.5 86.5t76.5 226.5q0 131 -75.5 211t-206.5 80q-133 0 -215 -82t-82 -213z" />
    <glyph glyph-name="ntilde" unicode="&#xf1;" 
d="M842 1485l121 -37q-32 -121 -78.5 -176t-128.5 -55q-57 0 -150 37.5t-121 37.5q-39 0 -59 -20t-45 -74l-121 37q32 121 78.5 176t128.5 55q57 0 149.5 -37.5t120.5 -37.5q39 0 59.5 20t45.5 74zM143 0v1036h252v-174q95 197 336 197q191 0 287 -127.5t96 -358.5v-573
h-252v571q0 134 -52.5 204.5t-147.5 70.5q-116 0 -191.5 -85t-75.5 -243v-518h-252z" />
    <glyph glyph-name="ograve" unicode="&#xf2;" horiz-adv-x="1267" 
d="M72 518q0 110 46 211t122 173t179.5 114.5t213.5 42.5q149 0 279 -73t207 -198t77 -270q0 -147 -77 -272t-206.5 -197t-279.5 -72q-110 0 -213.5 42.5t-179.5 114.5t-122 173t-46 211zM326 518q0 -136 88.5 -230.5t218.5 -94.5q131 0 220 94.5t89 230.5t-89 231t-220 95
q-130 0 -218.5 -95t-88.5 -231zM270 1507h273l190 -329h-198z" />
    <glyph glyph-name="oacute" unicode="&#xf3;" horiz-adv-x="1267" 
d="M72 518q0 110 46 211t122 173t179.5 114.5t213.5 42.5q149 0 279 -73t207 -198t77 -270q0 -147 -77 -272t-206.5 -197t-279.5 -72q-110 0 -213.5 42.5t-179.5 114.5t-122 173t-46 211zM326 518q0 -136 88.5 -230.5t218.5 -94.5q131 0 220 94.5t89 230.5t-89 231t-220 95
q-130 0 -218.5 -95t-88.5 -231zM692 1507h273l-267 -329h-196z" />
    <glyph glyph-name="ocircumflex" unicode="&#xf4;" horiz-adv-x="1267" 
d="M72 518q0 110 46 211t122 173t179.5 114.5t213.5 42.5q149 0 279 -73t207 -198t77 -270q0 -147 -77 -272t-206.5 -197t-279.5 -72q-110 0 -213.5 42.5t-179.5 114.5t-122 173t-46 211zM326 518q0 -136 88.5 -230.5t218.5 -94.5q131 0 220 94.5t89 230.5t-89 231t-220 95
q-130 0 -218.5 -95t-88.5 -231zM506 1507h256l229 -329h-186l-170 188l-172 -188h-184z" />
    <glyph glyph-name="otilde" unicode="&#xf5;" horiz-adv-x="1267" 
d="M72 518q0 110 46 211t122 173t179.5 114.5t213.5 42.5q149 0 279 -73t207 -198t77 -270q0 -147 -77 -272t-206.5 -197t-279.5 -72q-110 0 -213.5 42.5t-179.5 114.5t-122 173t-46 211zM326 518q0 -136 88.5 -230.5t218.5 -94.5q131 0 220 94.5t89 230.5t-89 231t-220 95
q-130 0 -218.5 -95t-88.5 -231zM864 1485l121 -37q-32 -121 -78.5 -176t-128.5 -55q-57 0 -149.5 37.5t-120.5 37.5q-39 0 -59.5 -20t-45.5 -74l-120 37q32 121 78 176t128 55q57 0 150 -37.5t121 -37.5q39 0 59 20t45 74z" />
    <glyph glyph-name="odieresis" unicode="&#xf6;" horiz-adv-x="1267" 
d="M72 518q0 110 46 211t122 173t179.5 114.5t213.5 42.5q149 0 279 -73t207 -198t77 -270q0 -147 -77 -272t-206.5 -197t-279.5 -72q-110 0 -213.5 42.5t-179.5 114.5t-122 173t-46 211zM326 518q0 -136 88.5 -230.5t218.5 -94.5q131 0 220 94.5t89 230.5t-89 231t-220 95
q-130 0 -218.5 -95t-88.5 -231zM244 1343q0 63 43.5 105.5t109.5 42.5t110 -42.5t44 -105.5q0 -62 -44 -103.5t-110 -41.5t-109.5 41.5t-43.5 103.5zM717 1343q0 63 42.5 105.5t108.5 42.5t111 -42.5t45 -105.5q0 -61 -45 -103t-111 -42t-108.5 41.5t-42.5 103.5z" />
    <glyph glyph-name="divide" unicode="&#xf7;" horiz-adv-x="1284" 
d="M471 229q0 69 49 113.5t123 44.5q73 0 122.5 -45t49.5 -113t-49.5 -111.5t-122.5 -43.5q-74 0 -123 43.5t-49 111.5zM471 1032q0 71 49 115.5t123 44.5q73 0 122.5 -44.5t49.5 -115.5q0 -68 -49.5 -111.5t-122.5 -43.5q-74 0 -123 43.5t-49 111.5zM100 522v213h1086v-213
h-1086z" />
    <glyph glyph-name="oslash" unicode="&#xf8;" horiz-adv-x="1265" 
d="M1157 993l-104 -119q141 -154 141 -356q0 -147 -76.5 -272t-205.5 -197t-279 -72q-166 0 -299 86l-115 -129l-113 101l111 125q-145 158 -145 358q0 110 46 211t122 173t179.5 114.5t213.5 42.5q160 0 301 -88l110 125zM324 518q0 -119 51 -180l411 465q-71 41 -153 41
q-130 0 -219.5 -95t-89.5 -231zM942 518q0 95 -49 176l-410 -461q64 -40 150 -40q131 0 220 94.5t89 230.5z" />
    <glyph glyph-name="ugrave" unicode="&#xf9;" 
d="M1100 1036v-1036h-252v174q-95 -197 -334 -197q-191 0 -288 127.5t-97 358.5v573h252v-571q0 -266 201 -266q46 0 90.5 20.5t85 63.5t65.5 122t25 183v448h252zM311 1507h273l190 -329h-196z" />
    <glyph glyph-name="uacute" unicode="&#xfa;" 
d="M1100 1036v-1036h-252v174q-95 -197 -334 -197q-191 0 -288 127.5t-97 358.5v573h252v-571q0 -266 201 -266q46 0 90.5 20.5t85 63.5t65.5 122t25 183v448h252zM680 1507h272l-266 -329h-197z" />
    <glyph glyph-name="ucircumflex" unicode="&#xfb;" 
d="M1100 1036v-1036h-252v174q-95 -197 -334 -197q-191 0 -288 127.5t-97 358.5v573h252v-571q0 -266 201 -266q46 0 90.5 20.5t85 63.5t65.5 122t25 183v448h252zM494 1507h254l229 -329h-184l-172 188l-170 -188h-187z" />
    <glyph glyph-name="udieresis" unicode="&#xfc;" 
d="M1100 1036v-1036h-252v174q-95 -197 -334 -197q-191 0 -288 127.5t-97 358.5v573h252v-571q0 -266 201 -266q46 0 90.5 20.5t85 63.5t65.5 122t25 183v448h252zM236 1343q0 63 43.5 105.5t109.5 42.5t110 -42.5t44 -105.5q0 -62 -44 -103.5t-110 -41.5t-109.5 41.5
t-43.5 103.5zM709 1343q0 63 42.5 105.5t108.5 42.5t111 -42.5t45 -105.5q0 -61 -45 -103t-111 -42t-108.5 41.5t-42.5 103.5z" />
    <glyph glyph-name="yacute" unicode="&#xfd;" horiz-adv-x="1175" 
d="M596 326l270 710h283l-643 -1505h-248l211 530l-440 975h284zM625 1507h272l-266 -329h-197z" />
    <glyph glyph-name="thorn" unicode="&#xfe;" horiz-adv-x="1333" 
d="M1257 522q0 -150 -62 -274t-178 -197.5t-265 -73.5q-115 0 -207.5 46.5t-149.5 132.5v-625h-252v1950h252v-598q128 176 355 176q116 0 212.5 -42.5t160.5 -116t99 -171t35 -207.5zM1004 520q0 139 -79.5 233.5t-217.5 94.5q-141 0 -228.5 -93t-87.5 -245
q0 -149 87 -235.5t220 -86.5q138 0 222 94.5t84 237.5z" />
    <glyph glyph-name="ydieresis" unicode="&#xff;" horiz-adv-x="1175" 
d="M596 326l270 710h283l-643 -1505h-248l211 530l-440 975h284zM195 1343q0 63 43.5 105.5t109.5 42.5t110 -42.5t44 -105.5q0 -62 -44 -103.5t-110 -41.5t-109.5 41.5t-43.5 103.5zM668 1343q0 63 42.5 105.5t108.5 42.5t111 -42.5t45 -105.5q0 -61 -45 -103t-111 -42
t-108.5 41.5t-42.5 103.5z" />
    <glyph glyph-name="Amacron" unicode="&#x100;" horiz-adv-x="1417" 
d="M406 1776h608v-185h-608v185zM289 0h-271l553 1434h273l557 -1434h-268l-109 281h-631zM948 494l-239 673l-242 -673h481z" />
    <glyph glyph-name="amacron" unicode="&#x101;" horiz-adv-x="1333" 
d="M371 1419h608v-184h-608v184zM938 1036h252v-1036h-252v156q-56 -86 -147.5 -132.5t-206.5 -46.5q-150 0 -267 73.5t-179 197t-62 274.5q0 148 60.5 269t178 194.5t271.5 73.5q108 0 199.5 -44t152.5 -132v153zM330 520q0 -143 83.5 -237.5t221.5 -94.5q134 0 221.5 86.5
t87.5 235.5q0 152 -87.5 245t-227.5 93q-138 0 -218.5 -94.5t-80.5 -233.5z" />
    <glyph glyph-name="Abreve" unicode="&#x102;" horiz-adv-x="1417" 
d="M709 1716q56 0 95.5 35.5t49.5 110.5q38 0 154 -15q-7 -65 -30 -116.5t-54.5 -82.5t-70.5 -52t-74.5 -29t-69.5 -8q-46 0 -90.5 14t-89.5 45t-77 90t-42 139q116 15 153 15q10 -75 49 -110.5t97 -35.5zM289 0h-271l553 1434h273l557 -1434h-268l-109 281h-631zM948 494
l-239 673l-242 -673h481z" />
    <glyph glyph-name="abreve" unicode="&#x103;" horiz-adv-x="1333" 
d="M659 1352q132 0 144 155l160 -16q-8 -90 -39 -154t-76.5 -96.5t-91.5 -46.5t-97 -14q-39 0 -76 8t-76.5 29.5t-70 55t-53 89.5t-29.5 129l162 16q12 -155 143 -155zM938 1036h252v-1036h-252v156q-56 -86 -147.5 -132.5t-206.5 -46.5q-150 0 -267 73.5t-179 197
t-62 274.5q0 148 60.5 269t178 194.5t271.5 73.5q108 0 199.5 -44t152.5 -132v153zM330 520q0 -143 83.5 -237.5t221.5 -94.5q134 0 221.5 86.5t87.5 235.5q0 152 -87.5 245t-227.5 93q-138 0 -218.5 -94.5t-80.5 -233.5z" />
    <glyph glyph-name="Aogonek" unicode="&#x104;" horiz-adv-x="1417" 
d="M289 0h-271l553 1434h273l557 -1434h-23q-65 0 -113.5 -19t-73.5 -49t-36.5 -59t-11.5 -57q0 -50 30 -78.5t76 -28.5q95 0 150 115q19 -12 60 -30t61 -30q-32 -99 -109.5 -162t-183.5 -63q-35 0 -70 7.5t-71.5 25.5t-64.5 44t-45.5 68t-17.5 93q0 25 7.5 53.5t25 62.5
t52.5 67t83 56l-102 265h-631zM948 494l-239 673l-242 -673h481z" />
    <glyph glyph-name="aogonek" unicode="&#x105;" horiz-adv-x="1331" 
d="M936 1036h252v-1036q-56 -3 -98.5 -18t-65.5 -34.5t-37 -45t-18 -44t-4 -36.5q0 -52 31 -82.5t77 -30.5q95 0 150 115q20 -12 60 -30.5t60 -29.5q-32 -99 -109 -162t-183 -63q-35 0 -70 7.5t-71.5 25.5t-64.5 44t-45.5 68t-17.5 93q0 23 6 48.5t21 58.5t48 67t79 61v144
q-56 -86 -147.5 -132.5t-206.5 -46.5q-150 0 -267 73.5t-179 197t-62 274.5q0 148 60.5 269t178 194.5t271.5 73.5q108 0 199.5 -44t152.5 -132v153zM328 520q0 -143 83.5 -237.5t221.5 -94.5q134 0 221.5 86.5t87.5 235.5q0 152 -87.5 245t-227.5 93q-138 0 -218.5 -94.5
t-80.5 -233.5z" />
    <glyph glyph-name="Cacute" unicode="&#x106;" horiz-adv-x="1411" 
d="M846 1851h266l-240 -301h-196zM86 717q0 150 55 284t154 235t248 160.5t325 59.5q154 0 269 -42.5t225 -125.5l-105 -196q-177 131 -387 131q-158 0 -277 -68.5t-179 -182.5t-60 -255t60 -255t179 -182.5t277 -68.5q215 0 387 131l105 -199q-109 -82 -224 -124t-270 -42
q-176 0 -325 59.5t-248 161t-154 235.5t-55 284z" />
    <glyph glyph-name="cacute" unicode="&#x107;" horiz-adv-x="1103" 
d="M672 1507h272l-264 -329h-199zM72 512q0 115 40 215t113.5 173.5t184 116t245.5 42.5q208 0 400 -139l-117 -181q-48 40 -109.5 63t-96 27.5t-64.5 4.5q-151 0 -246.5 -88.5t-95.5 -227.5q0 -138 95.5 -226.5t246.5 -88.5q29 0 64.5 4.5t97.5 27.5t108 62l117 -178
q-190 -142 -400 -142q-264 0 -423.5 152t-159.5 383z" />
    <glyph glyph-name="Ccircumflex" unicode="&#x108;" horiz-adv-x="1411" 
d="M690 1851h254l215 -301h-182l-160 170l-160 -170h-182zM86 717q0 150 55 284t154 235t248 160.5t325 59.5q154 0 269 -42.5t225 -125.5l-105 -196q-177 131 -387 131q-158 0 -277 -68.5t-179 -182.5t-60 -255t60 -255t179 -182.5t277 -68.5q215 0 387 131l105 -199
q-109 -82 -224 -124t-270 -42q-176 0 -325 59.5t-248 161t-154 235.5t-55 284z" />
    <glyph glyph-name="ccircumflex" unicode="&#x109;" horiz-adv-x="1103" 
d="M487 1507h254l230 -329h-185l-172 188l-170 -188h-186zM72 512q0 115 40 215t113.5 173.5t184 116t245.5 42.5q208 0 400 -139l-117 -181q-48 40 -109.5 63t-96 27.5t-64.5 4.5q-151 0 -246.5 -88.5t-95.5 -227.5q0 -138 95.5 -226.5t246.5 -88.5q29 0 64.5 4.5
t97.5 27.5t108 62l117 -178q-190 -142 -400 -142q-264 0 -423.5 152t-159.5 383z" />
    <glyph glyph-name="Cdotaccent" unicode="&#x10a;" horiz-adv-x="1411" 
d="M672 1698q0 63 43.5 103t111.5 40q67 0 111.5 -40.5t44.5 -102.5t-44.5 -102t-111.5 -40q-68 0 -111.5 39.5t-43.5 102.5zM86 717q0 150 55 284t154 235t248 160.5t325 59.5q154 0 269 -42.5t225 -125.5l-105 -196q-177 131 -387 131q-158 0 -277 -68.5t-179 -182.5
t-60 -255t60 -255t179 -182.5t277 -68.5q215 0 387 131l105 -199q-109 -82 -224 -124t-270 -42q-176 0 -325 59.5t-248 161t-154 235.5t-55 284z" />
    <glyph glyph-name="cdotaccent" unicode="&#x10b;" horiz-adv-x="1103" 
d="M467 1337q0 66 45 110t113 44q67 0 113 -44t46 -110q0 -63 -46.5 -106t-112.5 -43q-67 0 -112.5 43t-45.5 106zM72 512q0 115 40 215t113.5 173.5t184 116t245.5 42.5q208 0 400 -139l-117 -181q-48 40 -109.5 63t-96 27.5t-64.5 4.5q-151 0 -246.5 -88.5t-95.5 -227.5
q0 -138 95.5 -226.5t246.5 -88.5q29 0 64.5 4.5t97.5 27.5t108 62l117 -178q-190 -142 -400 -142q-264 0 -423.5 152t-159.5 383z" />
    <glyph glyph-name="Ccaron" unicode="&#x10c;" horiz-adv-x="1411" 
d="M952 1550h-256l-213 301h183l159 -170l160 170h182zM86 717q0 150 55 284t154 235t248 160.5t325 59.5q154 0 269 -42.5t225 -125.5l-105 -196q-177 131 -387 131q-158 0 -277 -68.5t-179 -182.5t-60 -255t60 -255t179 -182.5t277 -68.5q215 0 387 131l105 -199
q-109 -82 -224 -124t-270 -42q-176 0 -325 59.5t-248 161t-154 235.5t-55 284z" />
    <glyph glyph-name="ccaron" unicode="&#x10d;" horiz-adv-x="1103" 
d="M737 1178h-254l-229 329h186l170 -188l172 188h185zM72 512q0 115 40 215t113.5 173.5t184 116t245.5 42.5q208 0 400 -139l-117 -181q-48 40 -109.5 63t-96 27.5t-64.5 4.5q-151 0 -246.5 -88.5t-95.5 -227.5q0 -138 95.5 -226.5t246.5 -88.5q29 0 64.5 4.5t97.5 27.5
t108 62l117 -178q-190 -142 -400 -142q-264 0 -423.5 152t-159.5 383z" />
    <glyph glyph-name="Dcaron" unicode="&#x10e;" horiz-adv-x="1521" 
d="M786 1550h-254l-215 301h183l159 -170l160 170h182zM1167 717q0 138 -60.5 254t-170 184t-244.5 68h-246v-1014h246q204 0 339.5 148t135.5 360zM1436 717q0 -146 -56 -277.5t-153.5 -228.5t-236.5 -154t-298 -57h-508v1432h508q159 0 298 -56.5t236.5 -153t153.5 -228
t56 -277.5z" />
    <glyph glyph-name="dcaron" unicode="&#x10f;" horiz-adv-x="1433" 
d="M1346 979l-50 88q154 56 154 164q-24 -6 -43 -6q-53 0 -87 36.5t-34 88.5q0 62 39.5 101.5t106.5 39.5q43 0 76.5 -17.5t51.5 -44.5t26.5 -54.5t8.5 -51.5q0 -263 -249 -344zM328 520q0 -143 83.5 -237.5t221.5 -94.5q133 0 220 86.5t87 235.5q0 152 -87 245t-228 93
q-138 0 -217.5 -94.5t-79.5 -233.5zM936 1481h252v-1481h-252v156q-57 -86 -149 -132.5t-207 -46.5q-149 0 -265.5 73.5t-178.5 197.5t-62 274q0 148 60 269t177 194.5t271 73.5q226 0 354 -176v598z" />
    <glyph glyph-name="Dcroat" unicode="&#x110;" horiz-adv-x="1521" 
d="M55 621v182h129v629h508q159 0 298 -56.5t236.5 -153t153.5 -228t56 -277.5t-56 -277.5t-153.5 -228.5t-236.5 -154t-298 -57h-508v621h-129zM1167 717q0 138 -60.5 254t-170 184t-244.5 68h-246v-420h353v-182h-353v-412h246q204 0 339.5 148t135.5 360z" />
    <glyph glyph-name="dcroat" unicode="&#x111;" horiz-adv-x="1331" 
d="M645 1161v127h291v193h252v-193h153v-127h-153v-1161h-252v156q-57 -86 -149 -132.5t-207 -46.5q-149 0 -265.5 73.5t-178.5 197.5t-62 274q0 148 60 269t177 194.5t271 73.5q226 0 354 -176v278h-291zM328 520q0 -143 83.5 -237.5t221.5 -94.5q133 0 220 86.5t87 235.5
q0 152 -87 245t-228 93q-138 0 -217.5 -94.5t-79.5 -233.5z" />
    <glyph glyph-name="Emacron" unicode="&#x112;" horiz-adv-x="1216" 
d="M1116 0h-932v1434h932v-211h-670v-416h584v-209h-584v-389h670v-209zM332 1776h608v-185h-608v185z" />
    <glyph glyph-name="emacron" unicode="&#x113;" horiz-adv-x="1239" 
d="M993 317l144 -141q-177 -199 -469 -199q-136 0 -249 42.5t-188.5 115.5t-117 170.5t-41.5 208.5q0 151 72.5 275.5t203 197t291.5 72.5q108 0 203.5 -35t173 -102.5t123 -181t45.5 -257.5h-860q0 -126 97 -209.5t259 -83.5q94 0 168.5 32t144.5 95zM639 858
q-45 0 -87 -10t-84.5 -32t-77 -64t-54.5 -99h590q-27 109 -108.5 157t-178.5 48zM317 1419h609v-184h-609v184z" />
    <glyph glyph-name="Ebreve" unicode="&#x114;" horiz-adv-x="1216" 
d="M1116 0h-932v1434h932v-211h-670v-416h584v-209h-584v-389h670v-209zM635 1716q58 0 96.5 35t48.5 111q38 0 154 -15q-7 -65 -30 -116.5t-54.5 -82.5t-70.5 -52t-74.5 -29t-69.5 -8q-45 0 -89.5 14t-89 45t-76.5 90t-42 139q116 15 154 15q10 -75 49 -110.5t94 -35.5z
" />
    <glyph glyph-name="ebreve" unicode="&#x115;" horiz-adv-x="1239" 
d="M993 317l144 -141q-177 -199 -469 -199q-136 0 -249 42.5t-188.5 115.5t-117 170.5t-41.5 208.5q0 151 72.5 275.5t203 197t291.5 72.5q108 0 203.5 -35t173 -102.5t123 -181t45.5 -257.5h-860q0 -126 97 -209.5t259 -83.5q94 0 168.5 32t144.5 95zM639 858
q-45 0 -87 -10t-84.5 -32t-77 -64t-54.5 -99h590q-27 109 -108.5 157t-178.5 48zM623 1352q131 0 143 155l160 -16q-8 -90 -39 -154t-76 -96.5t-91 -46.5t-97 -14q-50 0 -96.5 14t-92.5 46.5t-77.5 96.5t-39.5 154l162 16q12 -155 144 -155z" />
    <glyph glyph-name="Edotaccent" unicode="&#x116;" horiz-adv-x="1216" 
d="M1116 0h-932v1434h932v-211h-670v-416h584v-209h-584v-389h670v-209zM481 1698q0 63 44 103t112 40q67 0 111.5 -40.5t44.5 -102.5t-44.5 -102t-111.5 -40q-68 0 -112 39.5t-44 102.5z" />
    <glyph glyph-name="edotaccent" unicode="&#x117;" horiz-adv-x="1239" 
d="M993 317l144 -141q-177 -199 -469 -199q-136 0 -249 42.5t-188.5 115.5t-117 170.5t-41.5 208.5q0 151 72.5 275.5t203 197t291.5 72.5q108 0 203.5 -35t173 -102.5t123 -181t45.5 -257.5h-860q0 -126 97 -209.5t259 -83.5q94 0 168.5 32t144.5 95zM639 858
q-45 0 -87 -10t-84.5 -32t-77 -64t-54.5 -99h590q-27 109 -108.5 157t-178.5 48zM465 1337q0 66 45 110t113 44q66 0 111.5 -44t45.5 -110q0 -63 -45.5 -106t-111.5 -43q-67 0 -112.5 43t-45.5 106z" />
    <glyph glyph-name="Eogonek" unicode="&#x118;" horiz-adv-x="1214" 
d="M674 0h-492v1434h932v-211h-670v-416h584v-209h-584v-389h670v-209h-156q-64 0 -113 -14t-74.5 -33.5t-41.5 -46t-20 -46t-4 -38.5q0 -53 30.5 -83t79.5 -30q93 0 148 115l122 -60q-34 -99 -110.5 -162t-181.5 -63q-35 0 -70 7.5t-71.5 25.5t-64.5 44t-45.5 68t-17.5 93
t34 115t116 108z" />
    <glyph glyph-name="eogonek" unicode="&#x119;" horiz-adv-x="1239" 
d="M709 -20q-7 0 -20.5 -1.5t-20.5 -1.5q-136 0 -249 42.5t-188.5 115.5t-117 170.5t-41.5 208.5q0 151 72.5 275.5t203 197t291.5 72.5q108 0 203.5 -35t173 -102.5t123 -181t45.5 -257.5h-860q0 -123 96 -208t256 -85q177 0 317 127l144 -141q-21 -18 -42 -34t-36 -25
t-39.5 -25t-40.5 -26q-92 -58 -135 -124t-43 -122q0 -50 31 -80.5t77 -30.5q99 0 150 115l123 -60q-33 -98 -110 -161.5t-181 -63.5q-45 0 -90 13t-86.5 39t-67.5 73.5t-26 108.5q0 114 88 207zM639 858q-45 0 -87 -10t-84.5 -32t-77 -64t-54.5 -99h590q-27 109 -108.5 157
t-178.5 48z" />
    <glyph glyph-name="Ecaron" unicode="&#x11a;" horiz-adv-x="1216" 
d="M1116 0h-932v1434h932v-211h-670v-416h584v-209h-584v-389h670v-209zM756 1550h-256l-213 301h182l160 -170l159 170h183z" />
    <glyph glyph-name="ecaron" unicode="&#x11b;" horiz-adv-x="1239" 
d="M993 317l144 -141q-177 -199 -469 -199q-136 0 -249 42.5t-188.5 115.5t-117 170.5t-41.5 208.5q0 151 72.5 275.5t203 197t291.5 72.5q108 0 203.5 -35t173 -102.5t123 -181t45.5 -257.5h-860q0 -126 97 -209.5t259 -83.5q94 0 168.5 32t144.5 95zM639 858
q-45 0 -87 -10t-84.5 -32t-77 -64t-54.5 -99h590q-27 109 -108.5 157t-178.5 48zM750 1178h-254l-230 329h187l170 -188l172 188h184z" />
    <glyph glyph-name="Gcircumflex" unicode="&#x11c;" horiz-adv-x="1507" 
d="M700 1851h254l215 -301h-182l-160 170l-159 -170h-183zM856 1221q-117 0 -213.5 -42.5t-158.5 -114t-96 -162t-34 -189.5q0 -136 58.5 -248t175 -181t270.5 -69q168 0 301 74v250h-383v209h625v-562q-229 -209 -547 -209q-162 0 -306 59t-244.5 158.5t-159 235.5
t-58.5 285q0 151 58 287t158 236t243 159t305 59q155 0 278.5 -42t241.5 -130l-119 -197q-197 134 -395 134z" />
    <glyph glyph-name="gcircumflex" unicode="&#x11d;" horiz-adv-x="1331" 
d="M518 1507h256l230 -329h-187l-170 188l-172 -188h-184zM330 520q0 -143 83.5 -237.5t221.5 -94.5q134 0 221.5 86.5t87.5 235.5q0 152 -87.5 245t-227.5 93q-138 0 -218.5 -94.5t-80.5 -233.5zM170 -344q26 50 100 197q63 -55 154.5 -90t183.5 -35q69 0 127 16.5
t104.5 51.5t72.5 95.5t26 141.5v121q-54 -82 -149 -129.5t-205 -47.5q-150 0 -267 73.5t-179 197t-62 274.5q0 148 60.5 269t178 194.5t271.5 73.5q108 0 199.5 -44t152.5 -132v153h252v-923q0 -157 -39.5 -274.5t-113.5 -189t-173 -106.5t-225 -35q-286 0 -469 148z" />
    <glyph glyph-name="Gbreve" unicode="&#x11e;" horiz-adv-x="1507" 
d="M803 1716q58 0 96.5 35t48.5 111q38 0 154 -15q-7 -65 -30 -116.5t-54.5 -82.5t-70.5 -52t-74.5 -29t-69.5 -8q-45 0 -89.5 14t-89 45t-76.5 90t-42 139q116 15 153 15q10 -75 49.5 -110.5t94.5 -35.5zM856 1221q-117 0 -213.5 -42.5t-158.5 -114t-96 -162t-34 -189.5
q0 -136 58.5 -248t175 -181t270.5 -69q168 0 301 74v250h-383v209h625v-562q-229 -209 -547 -209q-162 0 -306 59t-244.5 158.5t-159 235.5t-58.5 285q0 151 58 287t158 236t243 159t305 59q155 0 278.5 -42t241.5 -130l-119 -197q-197 134 -395 134z" />
    <glyph glyph-name="gbreve" unicode="&#x11f;" horiz-adv-x="1331" 
d="M647 1352q132 0 144 155l159 -16q-8 -90 -39 -154t-76 -96.5t-91 -46.5t-97 -14q-39 0 -76 8t-76.5 29.5t-70 55t-53 89.5t-29.5 129l162 16q12 -155 143 -155zM330 520q0 -143 83.5 -237.5t221.5 -94.5q134 0 221.5 86.5t87.5 235.5q0 152 -87.5 245t-227.5 93
q-138 0 -218.5 -94.5t-80.5 -233.5zM170 -344q26 50 100 197q63 -55 154.5 -90t183.5 -35q69 0 127 16.5t104.5 51.5t72.5 95.5t26 141.5v121q-54 -82 -149 -129.5t-205 -47.5q-150 0 -267 73.5t-179 197t-62 274.5q0 148 60.5 269t178 194.5t271.5 73.5q108 0 199.5 -44
t152.5 -132v153h252v-923q0 -157 -39.5 -274.5t-113.5 -189t-173 -106.5t-225 -35q-286 0 -469 148z" />
    <glyph glyph-name="Gdotaccent" unicode="&#x120;" horiz-adv-x="1507" 
d="M664 1698q0 63 43.5 103t111.5 40q67 0 111.5 -40.5t44.5 -102.5t-44.5 -102t-111.5 -40q-68 0 -111.5 39.5t-43.5 102.5zM856 1221q-117 0 -213.5 -42.5t-158.5 -114t-96 -162t-34 -189.5q0 -136 58.5 -248t175 -181t270.5 -69q168 0 301 74v250h-383v209h625v-562
q-229 -209 -547 -209q-162 0 -306 59t-244.5 158.5t-159 235.5t-58.5 285q0 151 58 287t158 236t243 159t305 59q155 0 278.5 -42t241.5 -130l-119 -197q-197 134 -395 134z" />
    <glyph glyph-name="gdotaccent" unicode="&#x121;" horiz-adv-x="1329" 
d="M455 1337q0 66 45 110t112 44q66 0 112 -44t46 -110q0 -63 -46 -106t-112 -43q-67 0 -112 43t-45 106zM328 520q0 -143 83.5 -237.5t221.5 -94.5q134 0 221.5 86.5t87.5 235.5q0 152 -87.5 245t-227.5 93q-138 0 -218.5 -94.5t-80.5 -233.5zM168 -344q26 50 100 197
q63 -55 154.5 -90t183.5 -35q69 0 127 16.5t104.5 51.5t72.5 95.5t26 141.5v121q-54 -82 -149 -129.5t-205 -47.5q-150 0 -267 73.5t-179 197t-62 274.5q0 148 60.5 269t178 194.5t271.5 73.5q108 0 199.5 -44t152.5 -132v153h252v-923q0 -157 -39.5 -274.5t-113.5 -189
t-173 -106.5t-225 -35q-286 0 -469 148z" />
    <glyph glyph-name="Gcommaaccent" unicode="&#x122;" horiz-adv-x="1507" 
d="M760 -621l-47 89q151 55 151 163q-69 -22 -115.5 16.5t-46.5 102.5q-2 61 38 101t108 40q43 0 76.5 -17.5t51 -44.5t26 -53.5t8.5 -51.5q0 -264 -250 -345zM856 1221q-117 0 -213.5 -42.5t-158.5 -114t-96 -162t-34 -189.5q0 -136 58.5 -248t175 -181t270.5 -69
q168 0 301 74v250h-383v209h625v-562q-229 -209 -547 -209q-162 0 -306 59t-244.5 158.5t-159 235.5t-58.5 285q0 151 58 287t158 236t243 159t305 59q155 0 278.5 -42t241.5 -130l-119 -197q-197 134 -395 134z" />
    <glyph glyph-name="gcommaaccent" unicode="&#x123;" horiz-adv-x="1331" 
d="M713 1690l49 -88q-154 -56 -154 -164q21 6 43 6q53 0 87 -36.5t34 -88.5q0 -62 -39 -101.5t-106 -39.5q-57 0 -96.5 31t-53.5 67t-14 70q0 263 250 344zM330 520q0 -143 83.5 -237.5t221.5 -94.5q134 0 221.5 86.5t87.5 235.5q0 152 -87.5 245t-227.5 93
q-138 0 -218.5 -94.5t-80.5 -233.5zM170 -344q26 50 100 197q63 -55 154.5 -90t183.5 -35q69 0 127 16.5t104.5 51.5t72.5 95.5t26 141.5v121q-54 -82 -149 -129.5t-205 -47.5q-150 0 -267 73.5t-179 197t-62 274.5q0 148 60.5 269t178 194.5t271.5 73.5q108 0 199.5 -44
t152.5 -132v153h252v-923q0 -157 -39.5 -274.5t-113.5 -189t-173 -106.5t-225 -35q-286 0 -469 148z" />
    <glyph glyph-name="Hcircumflex" unicode="&#x124;" horiz-adv-x="1499" 
d="M621 1851h256l215 -301h-183l-159 170l-160 -170h-182zM1315 0h-262v580h-607v-580h-262v1434h262v-646h607v646h262v-1434z" />
    <glyph glyph-name="hcircumflex" unicode="&#x125;" 
d="M143 0v1481h252v-619q95 197 336 197q191 0 287 -127.5t96 -358.5v-573h-252v571q0 134 -52.5 204.5t-147.5 70.5q-49 0 -95 -18.5t-85 -56t-63 -103t-24 -150.5v-518h-252zM137 1829h256l228 -273h-179l-176 142l-178 -142h-176q111 138 225 273z" />
    <glyph glyph-name="Hbar" unicode="&#x126;" horiz-adv-x="1501" 
d="M1055 973h-609v-185h609v185zM186 0v973h-145v147h145v314h260v-314h609v314h260v-314h147v-147h-147v-973h-260v580h-609v-580h-260z" />
    <glyph glyph-name="hbar" unicode="&#x127;" 
d="M-8 1161v127h151v193h252v-193h256v-127h-256v-299q95 197 336 197q191 0 287 -127.5t96 -358.5v-573h-252v571q0 134 -52.5 204.5t-147.5 70.5q-116 0 -191.5 -85t-75.5 -243v-518h-252v1161h-151z" />
    <glyph glyph-name="Itilde" unicode="&#x128;" horiz-adv-x="630" 
d="M547 1851l123 -36q-32 -121 -79 -176.5t-130 -55.5q-53 0 -147.5 38t-123.5 38q-39 0 -59.5 -20.5t-42.5 -73.5l-123 37q32 121 79 176t130 55q53 0 147 -38t123 -38q39 0 60 20.5t43 73.5zM446 1434v-1434h-262v1434h262z" />
    <glyph glyph-name="itilde" unicode="&#x129;" horiz-adv-x="546" 
d="M399 0h-252v1036h252v-1036zM500 1485l123 -37q-32 -121 -79 -176t-130 -55q-53 0 -147.5 37.5t-123.5 37.5q-39 0 -59.5 -20.5t-42.5 -73.5l-121 37q32 121 78 176t129 55q53 0 147 -37.5t123 -37.5q39 0 60 20.5t43 73.5z" />
    <glyph glyph-name="Imacron" unicode="&#x12a;" horiz-adv-x="630" 
d="M12 1776h609v-185h-609v185zM446 1434v-1434h-262v1434h262z" />
    <glyph glyph-name="imacron" unicode="&#x12b;" horiz-adv-x="546" 
d="M399 0h-252v1036h252v-1036zM-33 1419h608v-184h-608v184z" />
    <glyph glyph-name="Ibreve" unicode="&#x12c;" horiz-adv-x="630" 
d="M317 1716q56 0 96 35.5t50 110.5q37 0 153 -15q-7 -65 -30 -116.5t-54.5 -82.5t-70.5 -52t-74.5 -29t-69.5 -8q-46 0 -90.5 14t-89.5 45t-77 90t-42 139q116 15 154 15q10 -76 48.5 -111t96.5 -35zM446 1434v-1434h-262v1434h262z" />
    <glyph glyph-name="ibreve" unicode="&#x12d;" horiz-adv-x="546" 
d="M399 0h-252v1036h252v-1036zM270 1352q132 0 144 155l161 -16q-7 -73 -29.5 -129t-53 -89.5t-70 -55t-76.5 -29.5t-76 -8q-51 0 -97 14t-91 46.5t-76 96.5t-39 154l160 16q12 -155 143 -155z" />
    <glyph glyph-name="Iogonek" unicode="&#x12e;" horiz-adv-x="630" 
d="M184 16v1418h262v-1434h-10q-65 0 -113.5 -18.5t-73.5 -48.5t-36.5 -59.5t-11.5 -57.5q0 -50 30 -78.5t76 -28.5q95 0 150 115q19 -12 60 -30t61 -30q-32 -99 -109.5 -162t-183.5 -63q-35 0 -70 7.5t-71.5 25.5t-64.5 44t-45.5 68t-17.5 93q0 25 7.5 53.5t25 62.5
t52.5 67t83 56z" />
    <glyph glyph-name="iogonek" unicode="&#x12f;" horiz-adv-x="546" 
d="M399 1036v-1036q-66 0 -116.5 -18.5t-76.5 -48.5t-38 -59.5t-12 -57.5q0 -49 31 -78t77 -29q95 0 150 115q20 -12 60.5 -30t60.5 -30q-32 -99 -109.5 -162t-183.5 -63q-35 0 -70 7.5t-71.5 25.5t-64.5 44t-45.5 68t-17.5 93q0 25 8 54.5t25.5 64.5t54 68t86.5 54v1018
h252zM111 1343q0 68 46 114t117 46q72 0 120 -46t48 -114q0 -67 -48 -112t-120 -45t-117.5 44.5t-45.5 112.5z" />
    <glyph glyph-name="Idotaccent" unicode="&#x130;" horiz-adv-x="630" 
d="M162 1698q0 63 43.5 103t111.5 40q67 0 111.5 -40.5t44.5 -102.5t-44.5 -102t-111.5 -40q-68 0 -111.5 39.5t-43.5 102.5zM446 1434v-1434h-262v1434h262z" />
    <glyph glyph-name="dotlessi" unicode="&#x131;" horiz-adv-x="546" 
d="M399 0h-252v1036h252v-1036z" />
    <glyph glyph-name="IJ" unicode="&#x132;" horiz-adv-x="1988" 
d="M446 1434v-1434h-262v1434h262zM1825 1434v-793q0 -327 -152.5 -495.5t-439.5 -168.5q-115 0 -209 29.5t-155.5 79t-103.5 116t-60.5 138t-18.5 147.5q0 48 15 109.5t40 97.5h244q-24 -46 -36.5 -100.5t-12.5 -89.5q0 -41 10.5 -82t33.5 -80.5t56.5 -70t84 -49.5
t110.5 -19q332 0 332 438v793h262z" />
    <glyph glyph-name="ij" unicode="&#x133;" horiz-adv-x="1171" 
d="M399 0h-252v1036h252v-1036zM111 1343q0 68 46 114t117 46q72 0 120 -46t48 -114q0 -67 -48 -112t-120 -45t-117.5 44.5t-45.5 112.5zM772 -172v1208h252v-1190q0 -89 -28.5 -156t-77.5 -105.5t-108.5 -57.5t-127.5 -19q-159 0 -242.5 82.5t-83.5 204.5q0 51 15 84h211
q-9 -26 -9 -59q0 -48 26 -75.5t73 -27.5t73.5 30.5t26.5 80.5zM733 1343q0 68 46.5 114t117.5 46q72 0 120 -46t48 -114q0 -67 -48 -112t-120 -45t-118 44.5t-46 112.5z" />
    <glyph glyph-name="Jcircumflex" unicode="&#x134;" horiz-adv-x="1357" 
d="M930 1851h254l215 -301h-182l-160 170l-160 -170h-182zM1194 1434v-793q0 -327 -152.5 -495.5t-439.5 -168.5q-115 0 -209 29.5t-155.5 79t-103.5 116t-60.5 138t-18.5 147.5q0 48 15.5 109.5t40.5 97.5h243q-24 -46 -36.5 -100.5t-12.5 -89.5q0 -41 10.5 -82t33.5 -80.5
t56.5 -70t84 -49.5t110.5 -19q332 0 332 438v793h262z" />
    <glyph glyph-name="jcircumflex" unicode="&#x135;" horiz-adv-x="624" 
d="M225 -172v1208h252v-1190q0 -89 -28.5 -156t-77.5 -105.5t-108.5 -57.5t-127.5 -19q-81 0 -144.5 23.5t-102 63.5t-58.5 91t-20 109q0 53 14 84h211q-8 -23 -8 -59q0 -48 25.5 -75.5t72.5 -27.5t73.5 30.5t26.5 80.5zM221 1507h256l230 -329h-187l-170 188l-172 -188
h-184z" />
    <glyph glyph-name="Kcommaaccent" unicode="&#x136;" horiz-adv-x="1329" 
d="M612 -621l-49 91q154 53 154 163q-24 -6 -45 -6q-53 0 -86 35t-33 90q0 62 38.5 100.5t106.5 38.5q44 0 77.5 -17t51 -44t26.5 -54t9 -52q0 -258 -250 -345zM444 647v-647h-262v1434h262v-680l465 680h273v-33l-488 -690l226 -340q80 -107 117 -138.5t96 -31.5
q66 0 127 43q45 -91 94 -185q-106 -82 -262 -82q-233 0 -400 283z" />
    <glyph glyph-name="kcommaaccent" unicode="&#x137;" horiz-adv-x="1165" 
d="M469 -621l-47 89q151 55 151 163q-69 -22 -115 16.5t-46 102.5q-2 61 37.5 101t107.5 40q43 0 76.5 -17.5t51 -44.5t26 -53.5t8.5 -51.5q0 -264 -250 -345zM393 608l326 428h278v-30l-360 -445l156 -242q45 -66 76 -90t85 -24q74 0 123 37l90 -174q-98 -91 -247 -91
q-108 0 -181 50t-137 139l-209 336v-502h-252v1481h252v-873z" />
    <glyph glyph-name="kgreenlandic" unicode="&#x138;" horiz-adv-x="1142" 
d="M389 612l365 424h262v-47l-414 -467l189 -241q39 -46 67 -64t72 -18q51 0 119 51l86 -168q-105 -105 -250 -105q-50 0 -87.5 10t-73 37t-58 50.5t-66.5 75.5l-209 272v-422h-250v1036h248v-424z" />
    <glyph glyph-name="Lacute" unicode="&#x139;" horiz-adv-x="1134" 
d="M356 1851h267l-240 -301h-197zM446 209h652v-209h-914v1434h262v-1225z" />
    <glyph glyph-name="lacute" unicode="&#x13a;" horiz-adv-x="546" 
d="M399 0h-252v1481h252v-1481zM326 1851h266l-236 -286h-196z" />
    <glyph glyph-name="Lcommaaccent" unicode="&#x13b;" horiz-adv-x="1134" 
d="M537 -621l-48 91q152 52 152 163q-24 -6 -45 -6q-53 0 -85 35t-32 90q0 62 38 100.5t108 38.5q82 0 121.5 -54t39.5 -113q0 -259 -249 -345zM446 209h652v-209h-914v1434h262v-1225z" />
    <glyph glyph-name="lcommaaccent" unicode="&#x13c;" horiz-adv-x="546" 
d="M188 -621l-49 91q154 53 154 163q-24 -6 -45 -6q-53 0 -86 35t-33 90q0 62 38.5 100.5t106.5 38.5q44 0 77.5 -17t51 -44t26.5 -54t9 -52q0 -258 -250 -345zM399 0h-252v1481h252v-1481z" />
    <glyph glyph-name="Lcaron" unicode="&#x13d;" horiz-adv-x="1138" 
d="M774 956l-47 88q152 56 152 164q-24 -6 -43 -6q-53 0 -86 36.5t-33 88.5q0 62 37.5 101.5t107.5 39.5q57 0 96 -31t52.5 -67t13.5 -70q0 -263 -250 -344zM444 209h652v-209h-914v1434h262v-1225z" />
    <glyph glyph-name="lcaron" unicode="&#x13e;" horiz-adv-x="643" 
d="M555 979l-47 88q151 55 151 164q-24 -6 -43 -6q-53 0 -85.5 36.5t-32.5 88.5q0 62 37.5 101.5t107.5 39.5q57 0 96 -31t52.5 -67t13.5 -70q0 -263 -250 -344zM399 0h-252v1481h252v-1481z" />
    <glyph glyph-name="Ldot" unicode="&#x13f;" horiz-adv-x="1148" 
d="M618 651q0 67 48.5 113.5t119.5 46.5q72 0 121 -47t49 -113q0 -68 -49 -115t-121 -47t-120 47t-48 115zM446 209h652v-209h-914v1434h262v-1225z" />
    <glyph glyph-name="ldot" unicode="&#x140;" horiz-adv-x="768" 
d="M399 0h-252v1481h252v-1481zM492 631q0 68 48 115t119 47q72 0 121 -47t49 -115t-49 -114t-121 -46t-119.5 46t-47.5 114z" />
    <glyph glyph-name="Lslash" unicode="&#x141;" horiz-adv-x="1140" 
d="M453 209h651v-209h-914v547l-157 -70v164l157 70v723h263v-607l325 146v-164l-325 -145v-455z" />
    <glyph glyph-name="lslash" unicode="&#x142;" horiz-adv-x="665" 
d="M428 0h-252v520l-147 -67v163l147 66v799h252v-684l197 90v-164l-197 -90v-633z" />
    <glyph glyph-name="Nacute" unicode="&#x143;" horiz-adv-x="1538" 
d="M750 1851h266l-240 -301h-196zM1157 0l-711 967v-967h-262v1434h199l709 -961v961h262v-1434h-197z" />
    <glyph glyph-name="nacute" unicode="&#x144;" 
d="M657 1507h273l-264 -329h-199zM143 0v1036h252v-174q95 197 336 197q191 0 287 -127.5t96 -358.5v-573h-252v571q0 134 -52.5 204.5t-147.5 70.5q-116 0 -191.5 -85t-75.5 -243v-518h-252z" />
    <glyph glyph-name="Ncommaaccent" unicode="&#x145;" horiz-adv-x="1538" 
d="M678 -621l-47 89q151 55 151 163q-69 -22 -115 16.5t-46 102.5q-2 61 37.5 101t107.5 40q43 0 76.5 -17.5t51 -44.5t26 -53.5t8.5 -51.5q0 -264 -250 -345zM1157 0l-711 967v-967h-262v1434h199l709 -961v961h262v-1434h-197z" />
    <glyph glyph-name="ncommaaccent" unicode="&#x146;" 
d="M530 -621l-47 91q152 52 152 163q-24 -6 -45 -6q-53 0 -85 35t-32 90q0 62 37.5 100.5t107.5 38.5q82 0 122 -54t40 -113q0 -258 -250 -345zM143 0v1036h252v-174q95 197 336 197q191 0 287 -127.5t96 -358.5v-573h-252v571q0 134 -52.5 204.5t-147.5 70.5
q-116 0 -191.5 -85t-75.5 -243v-518h-252z" />
    <glyph glyph-name="Ncaron" unicode="&#x147;" horiz-adv-x="1538" 
d="M879 1550h-256l-213 301h182l160 -170l159 170h183zM1157 0l-711 967v-967h-262v1434h199l709 -961v961h262v-1434h-197z" />
    <glyph glyph-name="ncaron" unicode="&#x148;" 
d="M745 1178h-253l-230 329h187l169 -188l173 188h184zM143 0v1036h252v-174q95 197 336 197q191 0 287 -127.5t96 -358.5v-573h-252v571q0 134 -52.5 204.5t-147.5 70.5q-116 0 -191.5 -85t-75.5 -243v-518h-252z" />
    <glyph glyph-name="napostrophe" unicode="&#x149;" horiz-adv-x="1433" 
d="M96 1018l-49 90q152 52 152 164q-24 -6 -43 -6q-53 0 -86 35t-33 90q0 61 38.5 100t106.5 39q82 0 122 -54.5t40 -113.5q0 -257 -248 -344zM358 0v1036h252v-174q95 197 336 197q191 0 287 -127.5t96 -358.5v-573h-252v571q0 134 -52.5 204.5t-147.5 70.5
q-116 0 -191.5 -85t-75.5 -243v-518h-252z" />
    <glyph glyph-name="Eng" unicode="&#x14a;" horiz-adv-x="1533" 
d="M1042 176l-598 791v-967h-262v1434h199q102 -132 340 -446t369 -484v930h262v-1278q-6 -305 -155 -473.5t-437 -174.5q0 40 -1 117t-1 115q142 0 227.5 83t104.5 240v15q2 35 -48 98z" />
    <glyph glyph-name="eng" unicode="&#x14b;" horiz-adv-x="1241" 
d="M1112 573v-434v-20q0 -287 -142 -446t-417 -165v220q153 0 230 108t77 316v419q0 133 -53 204t-148 71q-116 0 -191 -85t-75 -243v-518h-252v1036h252v-174q95 197 336 197q191 0 287 -127.5t96 -358.5z" />
    <glyph glyph-name="Omacron" unicode="&#x14c;" horiz-adv-x="1667" 
d="M528 1776h609v-185h-609v185zM84 717q0 200 101.5 370.5t274 269.5t374.5 99t374.5 -99t273.5 -269.5t101 -370.5q0 -150 -60 -287t-160.5 -236.5t-239 -158t-289.5 -58.5q-202 0 -374.5 99t-274 270t-101.5 371zM350 717q0 -106 38.5 -200t104 -160t154.5 -104t187 -38
q200 0 341.5 144t141.5 358t-141.5 358t-341.5 144q-98 0 -187 -38t-154.5 -104t-104 -160t-38.5 -200z" />
    <glyph glyph-name="omacron" unicode="&#x14d;" horiz-adv-x="1267" 
d="M72 518q0 110 46 211t122 173t179.5 114.5t213.5 42.5q149 0 279 -73t207 -198t77 -270q0 -147 -77 -272t-206.5 -197t-279.5 -72q-110 0 -213.5 42.5t-179.5 114.5t-122 173t-46 211zM326 518q0 -136 88.5 -230.5t218.5 -94.5q131 0 220 94.5t89 230.5t-89 231t-220 95
q-130 0 -218.5 -95t-88.5 -231zM330 1419h608v-184h-608v184z" />
    <glyph glyph-name="Obreve" unicode="&#x14e;" horiz-adv-x="1667" 
d="M831 1716q58 0 97 35.5t49 110.5q37 0 153 -15q-7 -65 -30 -116.5t-54.5 -82.5t-70.5 -52t-74.5 -29t-69.5 -8q-45 0 -89.5 14t-88.5 45t-76 90t-42 139q116 15 153 15q10 -75 49 -110.5t94 -35.5zM84 717q0 200 101.5 370.5t274 269.5t374.5 99t374.5 -99t273.5 -269.5
t101 -370.5q0 -150 -60 -287t-160.5 -236.5t-239 -158t-289.5 -58.5q-202 0 -374.5 99t-274 270t-101.5 371zM350 717q0 -106 38.5 -200t104 -160t154.5 -104t187 -38q200 0 341.5 144t141.5 358t-141.5 358t-341.5 144q-98 0 -187 -38t-154.5 -104t-104 -160t-38.5 -200z
" />
    <glyph glyph-name="obreve" unicode="&#x14f;" horiz-adv-x="1267" 
d="M72 518q0 110 46 211t122 173t179.5 114.5t213.5 42.5q149 0 279 -73t207 -198t77 -270q0 -147 -77 -272t-206.5 -197t-279.5 -72q-110 0 -213.5 42.5t-179.5 114.5t-122 173t-46 211zM326 518q0 -136 88.5 -230.5t218.5 -94.5q131 0 220 94.5t89 230.5t-89 231t-220 95
q-130 0 -218.5 -95t-88.5 -231zM635 1352q131 0 143 155l160 -16q-8 -90 -39 -154t-76 -96.5t-91 -46.5t-97 -14q-39 0 -76 8t-76.5 29.5t-70 55t-53 89.5t-29.5 129l162 16q12 -155 143 -155z" />
    <glyph glyph-name="Ohungarumlaut" unicode="&#x150;" horiz-adv-x="1667" 
d="M733 1862h205l-193 -301h-180zM1075 1862h207l-205 -301h-184zM84 717q0 200 101.5 370.5t274 269.5t374.5 99t374.5 -99t273.5 -269.5t101 -370.5q0 -150 -60 -287t-160.5 -236.5t-239 -158t-289.5 -58.5q-202 0 -374.5 99t-274 270t-101.5 371zM350 717
q0 -106 38.5 -200t104 -160t154.5 -104t187 -38q200 0 341.5 144t141.5 358t-141.5 358t-341.5 144q-98 0 -187 -38t-154.5 -104t-104 -160t-38.5 -200z" />
    <glyph glyph-name="ohungarumlaut" unicode="&#x151;" horiz-adv-x="1267" 
d="M72 518q0 110 46 211t122 173t179.5 114.5t213.5 42.5q149 0 279 -73t207 -198t77 -270q0 -147 -77 -272t-206.5 -197t-279.5 -72q-110 0 -213.5 42.5t-179.5 114.5t-122 173t-46 211zM326 518q0 -136 88.5 -230.5t218.5 -94.5q131 0 220 94.5t89 230.5t-89 231t-220 95
q-130 0 -218.5 -95t-88.5 -231zM557 1507h205l-211 -329h-180zM899 1507h207l-223 -329h-185z" />
    <glyph glyph-name="OE" unicode="&#x152;" horiz-adv-x="1957" 
d="M821 209h131v1014h-131q-202 0 -334.5 -135t-132.5 -351q0 -143 60.5 -264t168.5 -192.5t238 -71.5zM1860 0h-1039q-153 0 -289.5 58t-233.5 157t-153.5 235t-56.5 287q0 201 96 361t263.5 248t373.5 88h1039v-211h-648v-410h560v-211h-560v-393h648v-209z" />
    <glyph glyph-name="oe" unicode="&#x153;" horiz-adv-x="1914" 
d="M1671 317l144 -141q-177 -199 -469 -199q-231 0 -381 119q-148 -119 -336 -119q-149 0 -277.5 72t-205 197t-76.5 272t76.5 272t205 197t277.5 72q190 0 338 -119q145 119 350 119q108 0 203.5 -34.5t172.5 -103t122 -181t45 -257.5h-828q0 -130 83 -211.5t243 -81.5
q94 0 168.5 32t144.5 95zM322 518q0 -136 88.5 -230.5t218.5 -94.5q110 0 200 77q-51 105 -51 244q0 133 53 248q-82 82 -202 82q-130 0 -218.5 -95t-88.5 -231zM1317 858q-207 0 -277 -205h564q-27 109 -108.5 157t-178.5 48z" />
    <glyph glyph-name="Racute" unicode="&#x154;" horiz-adv-x="1423" 
d="M674 1851h266l-240 -301h-196zM444 735h316q101 0 161 66.5t60 173.5q0 105 -61 173.5t-160 68.5h-316v-482zM1247 973q0 -160 -85.5 -277t-235.5 -155q11 -63 30 -118.5t49 -106.5t75 -81t100 -30q94 0 157 63l93 -180q-65 -57 -131.5 -84t-155.5 -27q-96 0 -175 42
t-127.5 103.5t-83.5 140.5t-50 142.5t-21 120.5h-242v-526h-262v1434h619q138 0 241 -64.5t154 -168t51 -228.5z" />
    <glyph glyph-name="racute" unicode="&#x155;" horiz-adv-x="786" 
d="M391 1036v-229q16 83 63.5 142.5t104 84.5t115.5 25q28 0 86 -15v-247q-56 20 -119 20q-31 0 -61 -7t-65 -29.5t-60.5 -58t-42.5 -98.5t-17 -145v-479h-252v1036h248zM348 1507h273l-267 -329h-196z" />
    <glyph glyph-name="Rcommaaccent" unicode="&#x156;" horiz-adv-x="1423" 
d="M614 -621l-47 91q152 52 152 163q-24 -6 -45 -6q-53 0 -85 35t-32 90q0 62 37.5 100.5t107.5 38.5q82 0 122 -54t40 -113q0 -258 -250 -345zM444 735h316q101 0 161 66.5t60 173.5q0 105 -61 173.5t-160 68.5h-316v-482zM1247 973q0 -160 -85.5 -277t-235.5 -155
q11 -63 30 -118.5t49 -106.5t75 -81t100 -30q94 0 157 63l93 -180q-65 -57 -131.5 -84t-155.5 -27q-96 0 -175 42t-127.5 103.5t-83.5 140.5t-50 142.5t-21 120.5h-242v-526h-262v1434h619q138 0 241 -64.5t154 -168t51 -228.5z" />
    <glyph glyph-name="rcommaaccent" unicode="&#x157;" horiz-adv-x="786" 
d="M188 -621l-49 89q154 56 154 163q-69 -22 -115.5 16.5t-48.5 102.5q0 62 39 101.5t106 39.5q43 0 77 -17.5t51.5 -44.5t26.5 -54t9 -51q0 -264 -250 -345zM391 1036v-229q16 83 63.5 142.5t104 84.5t115.5 25q28 0 86 -15v-247q-56 20 -119 20q-31 0 -61 -7t-65 -29.5
t-60.5 -58t-42.5 -98.5t-17 -145v-479h-252v1036h248z" />
    <glyph glyph-name="Rcaron" unicode="&#x158;" horiz-adv-x="1423" 
d="M760 1550h-256l-213 301h182l160 -170l160 170h182zM444 735h316q101 0 161 66.5t60 173.5q0 105 -61 173.5t-160 68.5h-316v-482zM1247 973q0 -160 -85.5 -277t-235.5 -155q11 -63 30 -118.5t49 -106.5t75 -81t100 -30q94 0 157 63l93 -180q-65 -57 -131.5 -84
t-155.5 -27q-96 0 -175 42t-127.5 103.5t-83.5 140.5t-50 142.5t-21 120.5h-242v-526h-262v1434h619q138 0 241 -64.5t154 -168t51 -228.5z" />
    <glyph glyph-name="rcaron" unicode="&#x159;" horiz-adv-x="786" 
d="M391 1036v-229q16 83 63.5 142.5t104 84.5t115.5 25q28 0 86 -15v-247q-56 20 -119 20q-31 0 -61 -7t-65 -29.5t-60.5 -58t-42.5 -98.5t-17 -145v-479h-252v1036h248zM516 1178h-254l-229 329h186l170 -188l172 188h184z" />
    <glyph glyph-name="Sacute" unicode="&#x15a;" horiz-adv-x="1198" 
d="M612 1851h267l-240 -301h-197zM61 367l238 53q24 -94 103 -152.5t194 -58.5t186.5 48.5t71.5 133.5q0 123 -188 191l-185 63q-87 28 -152.5 68.5t-102.5 81.5t-60 89t-30 86.5t-7 78.5q0 122 65 216t172 142.5t238 48.5q178 0 301.5 -86.5t173.5 -241.5l-221 -92
q-62 187 -254 187q-93 0 -153 -43.5t-60 -126.5q0 -23 5 -42t21 -44.5t52.5 -49.5t91.5 -43l184 -67q100 -32 174.5 -80.5t115.5 -104t60 -111t19 -110.5q0 -133 -71 -231t-185.5 -145.5t-255.5 -47.5q-209 0 -360.5 109t-180.5 281z" />
    <glyph glyph-name="sacute" unicode="&#x15b;" horiz-adv-x="946" 
d="M518 1507h273l-267 -329h-196zM53 246l199 84q19 -74 81 -112t140 -38q64 0 110 26t46 83q0 38 -28.5 62t-84.5 48l-151 58q-74 27 -127.5 63.5t-81.5 75.5t-40 75.5t-12 73.5q0 142 107.5 228t271.5 86q53 0 103 -10.5t101.5 -35t93 -72.5t65.5 -114l-203 -73
q-18 57 -63 81.5t-95 24.5q-54 0 -94.5 -28.5t-40.5 -79.5q0 -39 28.5 -62.5t80.5 -44.5l153 -55q79 -25 134.5 -62.5t82 -80t37.5 -79.5t11 -75q0 -147 -118 -231.5t-288 -84.5q-91 0 -171.5 25t-149.5 87.5t-97 156.5z" />
    <glyph glyph-name="Scircumflex" unicode="&#x15c;" horiz-adv-x="1198" 
d="M463 1851h254l215 -301h-182l-160 170l-160 -170h-182zM61 367l238 53q24 -94 103 -152.5t194 -58.5t186.5 48.5t71.5 133.5q0 123 -188 191l-185 63q-87 28 -152.5 68.5t-102.5 81.5t-60 89t-30 86.5t-7 78.5q0 122 65 216t172 142.5t238 48.5q178 0 301.5 -86.5
t173.5 -241.5l-221 -92q-62 187 -254 187q-93 0 -153 -43.5t-60 -126.5q0 -23 5 -42t21 -44.5t52.5 -49.5t91.5 -43l184 -67q100 -32 174.5 -80.5t115.5 -104t60 -111t19 -110.5q0 -133 -71 -231t-185.5 -145.5t-255.5 -47.5q-209 0 -360.5 109t-180.5 281z" />
    <glyph glyph-name="scircumflex" unicode="&#x15d;" horiz-adv-x="946" 
d="M350 1507h256l230 -329h-187l-170 188l-172 -188h-184zM53 246l199 84q19 -74 81 -112t140 -38q64 0 110 26t46 83q0 38 -28.5 62t-84.5 48l-151 58q-74 27 -127.5 63.5t-81.5 75.5t-40 75.5t-12 73.5q0 142 107.5 228t271.5 86q53 0 103 -10.5t101.5 -35t93 -72.5
t65.5 -114l-203 -73q-18 57 -63 81.5t-95 24.5q-54 0 -94.5 -28.5t-40.5 -79.5q0 -39 28.5 -62.5t80.5 -44.5l153 -55q79 -25 134.5 -62.5t82 -80t37.5 -79.5t11 -75q0 -147 -118 -231.5t-288 -84.5q-91 0 -171.5 25t-149.5 87.5t-97 156.5z" />
    <glyph glyph-name="Scedilla" unicode="&#x15e;" horiz-adv-x="1198" 
d="M547 -18h-2q-190 12 -322 118.5t-162 266.5l238 53q24 -94 103 -152.5t194 -58.5t186.5 48.5t71.5 133.5q0 123 -188 191l-185 63q-87 28 -152.5 68.5t-102.5 81.5t-60 89t-30 86.5t-7 78.5q0 122 65 216t172 142.5t238 48.5q178 0 301.5 -86.5t173.5 -241.5l-221 -92
q-62 187 -254 187q-93 0 -153 -43.5t-60 -126.5q0 -23 5 -42t21 -44.5t52.5 -49.5t91.5 -43l184 -67q100 -32 174.5 -80.5t115.5 -104t60 -111t19 -110.5q0 -171 -111 -280t-286 -135q100 -97 100 -211q0 -64 -26 -112t-68 -74t-85.5 -38t-88.5 -12q-106 0 -183.5 63
t-109.5 160l121 62q55 -115 149 -115q47 0 78 30t31 83q0 38 -21 87t-67 73z" />
    <glyph glyph-name="scedilla" unicode="&#x15f;" horiz-adv-x="946" 
d="M53 246l199 84q19 -74 81 -112t140 -38q64 0 110 26t46 83q0 38 -28.5 62t-84.5 48l-151 58q-74 27 -127.5 63.5t-81.5 75.5t-40 75.5t-12 73.5q0 142 107.5 228t271.5 86q53 0 103 -10.5t101.5 -35t93 -72.5t65.5 -114l-203 -73q-18 57 -63 81.5t-95 24.5
q-54 0 -94.5 -28.5t-40.5 -79.5q0 -39 28.5 -62.5t80.5 -44.5l153 -55q79 -25 134.5 -62.5t82 -80t37.5 -79.5t11 -75q0 -120 -79.5 -198.5t-207.5 -104.5q102 -97 102 -213q0 -63 -26 -111.5t-67.5 -75t-86 -39t-88.5 -12.5q-106 0 -182.5 63t-110.5 162l123 60
q55 -115 147 -115q49 0 80 30t31 83q0 37 -21 84.5t-65 73.5q-83 5 -154 32t-132 87t-87 147z" />
    <glyph glyph-name="Scaron" unicode="&#x160;" horiz-adv-x="1198" 
d="M715 1550h-256l-213 301h182l160 -170l160 170h182zM61 367l238 53q24 -94 103 -152.5t194 -58.5t186.5 48.5t71.5 133.5q0 123 -188 191l-185 63q-87 28 -152.5 68.5t-102.5 81.5t-60 89t-30 86.5t-7 78.5q0 122 65 216t172 142.5t238 48.5q178 0 301.5 -86.5
t173.5 -241.5l-221 -92q-62 187 -254 187q-93 0 -153 -43.5t-60 -126.5q0 -23 5 -42t21 -44.5t52.5 -49.5t91.5 -43l184 -67q100 -32 174.5 -80.5t115.5 -104t60 -111t19 -110.5q0 -133 -71 -231t-185.5 -145.5t-255.5 -47.5q-209 0 -360.5 109t-180.5 281z" />
    <glyph glyph-name="scaron" unicode="&#x161;" horiz-adv-x="946" 
d="M606 1178h-256l-227 329h184l172 -188l170 188h187zM53 246l199 84q19 -74 81 -112t140 -38q64 0 110 26t46 83q0 38 -28.5 62t-84.5 48l-151 58q-74 27 -127.5 63.5t-81.5 75.5t-40 75.5t-12 73.5q0 142 107.5 228t271.5 86q53 0 103 -10.5t101.5 -35t93 -72.5
t65.5 -114l-203 -73q-18 57 -63 81.5t-95 24.5q-54 0 -94.5 -28.5t-40.5 -79.5q0 -39 28.5 -62.5t80.5 -44.5l153 -55q79 -25 134.5 -62.5t82 -80t37.5 -79.5t11 -75q0 -147 -118 -231.5t-288 -84.5q-91 0 -171.5 25t-149.5 87.5t-97 156.5z" />
    <glyph glyph-name="Tcommaaccent" unicode="&#x162;" horiz-adv-x="1224" 
d="M518 -621l-49 89q154 56 154 163q-69 -22 -115.5 16.5t-48.5 102.5q0 62 39 101.5t106 39.5q43 0 77 -17.5t51.5 -44.5t26.5 -54t9 -51q0 -264 -250 -345zM41 1434h1143v-211h-443v-1223h-262v1223h-438v211z" />
    <glyph glyph-name="tcommaaccent" unicode="&#x163;" horiz-adv-x="894" 
d="M406 -621l-48 91q152 52 152 163q-24 -6 -45 -6q-53 0 -85 35t-32 90q0 62 38 100.5t108 38.5q82 0 121.5 -54t39.5 -113q0 -259 -249 -345zM455 1313v-277h309v-192h-309v-543q0 -113 100 -113q47 0 74.5 29.5t27.5 77.5q0 54 -14 86h207q22 -48 22 -117
q0 -122 -84 -204.5t-243 -82.5q-55 0 -102 9.5t-92.5 35t-77 65t-51 103t-19.5 146.5v508h-162v192h174l45 277h195z" />
    <glyph glyph-name="Tcaron" unicode="&#x164;" horiz-adv-x="1224" 
d="M741 1550h-254l-215 301h183l159 -170l160 170h182zM41 1434h1143v-211h-443v-1223h-262v1223h-438v211z" />
    <glyph glyph-name="tcaron" unicode="&#x165;" horiz-adv-x="894" 
d="M791 1085l-50 89q71 26 107.5 65t36.5 98q-24 -6 -43 -6q-53 0 -86 36.5t-33 88.5q0 62 37.5 101.5t107.5 39.5q43 0 76.5 -17.5t51 -44.5t26 -53.5t8.5 -51.5q0 -267 -239 -345zM455 1313v-277h309v-192h-309v-543q0 -113 100 -113q47 0 74.5 29.5t27.5 77.5
q0 54 -14 86h207q22 -48 22 -117q0 -122 -84 -204.5t-243 -82.5q-55 0 -102 9.5t-92.5 35t-77 65t-51 103t-19.5 146.5v508h-162v192h174l45 277h195z" />
    <glyph glyph-name="Tbar" unicode="&#x166;" horiz-adv-x="1253" 
d="M1038 717h-282v-717h-262v717h-283v147h283v359h-439v211h1143v-211h-442v-359h282v-147z" />
    <glyph glyph-name="tbar" unicode="&#x167;" horiz-adv-x="897" 
d="M457 1313v-277h309v-192h-309v-207h237v-135h-237v-201q0 -113 100 -113q47 0 74.5 29.5t27.5 77.5q0 54 -14 86h207q22 -48 22 -117q0 -122 -84 -204.5t-243 -82.5q-55 0 -102 9.5t-92.5 35t-77 65t-51 103t-19.5 146.5v166h-135v135h135v207h-162v192h174l45 277h195z
" />
    <glyph glyph-name="Utilde" unicode="&#x168;" horiz-adv-x="1490" 
d="M977 1851l123 -36q-32 -121 -79 -176.5t-130 -55.5q-53 0 -147 38t-123 38q-39 0 -60 -20.5t-43 -73.5l-123 37q32 121 79 176t130 55q53 0 147 -38t123 -38q39 0 60 20.5t43 73.5zM1063 1434h262v-897q0 -134 -46.5 -242t-126.5 -176.5t-184 -105t-223 -36.5
q-120 0 -224.5 36.5t-184 105.5t-125 176.5t-45.5 241.5v897h262v-897q0 -160 90.5 -247t226.5 -87q135 0 226.5 87t91.5 247v897z" />
    <glyph glyph-name="utilde" unicode="&#x169;" 
d="M1100 1036v-1036h-252v174q-95 -197 -334 -197q-191 0 -288 127.5t-97 358.5v573h252v-571q0 -266 201 -266q46 0 90.5 20.5t85 63.5t65.5 122t25 183v448h252zM766 1210q-37 0 -79 15t-72.5 33.5t-63.5 33.5t-55 15q-57 0 -72 -107l-131 14q0 4 -1 12t-1 11
q0 106 50 174t128 68q46 0 139 -46.5t127 -46.5q33 0 46 20.5t28 82.5l133 -14q0 -5 1 -14t1 -13q0 -100 -50 -169t-128 -69z" />
    <glyph glyph-name="Umacron" unicode="&#x16a;" horiz-adv-x="1490" 
d="M440 1776h609v-185h-609v185zM1063 1434h262v-897q0 -134 -46.5 -242t-126.5 -176.5t-184 -105t-223 -36.5q-120 0 -224.5 36.5t-184 105.5t-125 176.5t-45.5 241.5v897h262v-897q0 -160 90.5 -247t226.5 -87q135 0 226.5 87t91.5 247v897z" />
    <glyph glyph-name="umacron" unicode="&#x16b;" 
d="M1100 1036v-1036h-252v174q-95 -197 -334 -197q-191 0 -288 127.5t-97 358.5v573h252v-571q0 -266 201 -266q46 0 90.5 20.5t85 63.5t65.5 122t25 183v448h252zM322 1419h608v-184h-608v184z" />
    <glyph glyph-name="Ubreve" unicode="&#x16c;" horiz-adv-x="1490" 
d="M743 1716q58 0 97 35.5t49 110.5q37 0 153 -15q-7 -65 -30 -116.5t-54.5 -82.5t-70.5 -52t-74.5 -29t-69.5 -8q-45 0 -89.5 14t-89 45t-76.5 90t-42 139q116 15 154 15q10 -75 49 -110.5t94 -35.5zM1063 1434h262v-897q0 -134 -46.5 -242t-126.5 -176.5t-184 -105
t-223 -36.5q-120 0 -224.5 36.5t-184 105.5t-125 176.5t-45.5 241.5v897h262v-897q0 -160 90.5 -247t226.5 -87q135 0 226.5 87t91.5 247v897z" />
    <glyph glyph-name="ubreve" unicode="&#x16d;" 
d="M1100 1036v-1036h-252v174q-95 -197 -334 -197q-191 0 -288 127.5t-97 358.5v573h252v-571q0 -266 201 -266q46 0 90.5 20.5t85 63.5t65.5 122t25 183v448h252zM625 1352q131 0 143 155l162 -16q-7 -73 -29.5 -129t-53 -89.5t-70 -55t-76.5 -29.5t-76 -8q-51 0 -97 14
t-91 46.5t-76 96.5t-39 154l159 16q12 -155 144 -155z" />
    <glyph glyph-name="Uring" unicode="&#x16e;" horiz-adv-x="1490" 
d="M512 1745q0 96 66.5 155.5t166.5 59.5q101 0 168.5 -59.5t67.5 -155.5t-67.5 -153.5t-168.5 -57.5t-167 57.5t-66 153.5zM633 1745q0 -46 31.5 -73t80.5 -27t80 27t31 73t-31 73t-80 27t-80.5 -27t-31.5 -73zM1063 1434h262v-897q0 -134 -46.5 -242t-126.5 -176.5
t-184 -105t-223 -36.5q-120 0 -224.5 36.5t-184 105.5t-125 176.5t-45.5 241.5v897h262v-897q0 -160 90.5 -247t226.5 -87q135 0 226.5 87t91.5 247v897z" />
    <glyph glyph-name="uring" unicode="&#x16f;" 
d="M1100 1036v-1036h-252v174q-95 -197 -334 -197q-191 0 -288 127.5t-97 358.5v573h252v-571q0 -266 201 -266q46 0 90.5 20.5t85 63.5t65.5 122t25 183v448h252zM391 1393q0 97 68 162t166 65q99 0 167 -65t68 -162q0 -96 -68 -161t-167 -65q-98 0 -166 65t-68 161z
M512 1393q0 -47 33 -79t80 -32t78.5 32t31.5 79t-31.5 77.5t-78.5 30.5q-48 0 -80.5 -30.5t-32.5 -77.5z" />
    <glyph glyph-name="Uhungarumlaut" unicode="&#x170;" horiz-adv-x="1490" 
d="M608 1862h205l-192 -301h-181zM950 1862h207l-205 -301h-184zM1063 1434h262v-897q0 -134 -46.5 -242t-126.5 -176.5t-184 -105t-223 -36.5q-120 0 -224.5 36.5t-184 105.5t-125 176.5t-45.5 241.5v897h262v-897q0 -160 90.5 -247t226.5 -87q135 0 226.5 87t91.5 247v897
z" />
    <glyph glyph-name="uhungarumlaut" unicode="&#x171;" 
d="M1100 1036v-1036h-252v174q-95 -197 -334 -197q-191 0 -288 127.5t-97 358.5v573h252v-571q0 -266 201 -266q46 0 90.5 20.5t85 63.5t65.5 122t25 183v448h252zM500 1507h207l-211 -329h-183zM844 1507h205l-222 -329h-186z" />
    <glyph glyph-name="Uogonek" unicode="&#x172;" horiz-adv-x="1490" 
d="M813 -18q-74 -49 -74 -160q0 -52 31.5 -82.5t77.5 -30.5q94 0 149 115q20 -12 60.5 -30t60.5 -30q-32 -99 -109.5 -162t-183.5 -63q-44 0 -88.5 12.5t-86 39t-67.5 75t-26 111.5q0 59 32 112.5t87 92.5q-145 12 -258.5 78t-182.5 189.5t-69 287.5v897h262v-897
q0 -160 90.5 -247t226.5 -87q135 0 226.5 87t91.5 247v897h262v-897q0 -123 -40 -225t-109.5 -170.5t-162 -109.5t-200.5 -50z" />
    <glyph glyph-name="uogonek" unicode="&#x173;" 
d="M848 588v448h252v-1036q-67 0 -117 -18.5t-76 -48t-38.5 -59.5t-12.5 -58q0 -49 31.5 -78t77.5 -29q94 0 149 115l121 -62q-32 -97 -109.5 -160t-183.5 -63q-44 0 -88 12t-86 38t-68 74t-26 112q0 25 8 54.5t25.5 64t54 67t86.5 53.5v160q-95 -197 -334 -197
q-191 0 -288 127.5t-97 358.5v573h252v-571q0 -266 201 -266q46 0 90.5 20.5t85 63.5t65.5 122t25 183z" />
    <glyph glyph-name="Wcircumflex" unicode="&#x174;" horiz-adv-x="2033" 
d="M889 1851h254l215 -301h-182l-160 170l-160 -170h-182zM1118 1386l293 -937l305 985h264l-448 -1434h-213l-301 973l-301 -973h-215l-449 1434h264l306 -985l295 937h200z" />
    <glyph glyph-name="wcircumflex" unicode="&#x175;" horiz-adv-x="1687" 
d="M717 1507h254l229 -329h-184l-172 188l-170 -188h-187zM537 342l211 666h190l213 -666l223 694h273l-373 -1036h-225l-205 653l-207 -653h-223l-373 1036h270z" />
    <glyph glyph-name="Ycircumflex" unicode="&#x176;" horiz-adv-x="1441" 
d="M592 1851h254l215 -301h-182l-160 170l-160 -170h-182zM719 819l387 615h293v-27l-547 -819v-588h-262v586l-547 821v27h293z" />
    <glyph glyph-name="ycircumflex" unicode="&#x177;" horiz-adv-x="1175" 
d="M596 326l270 710h283l-643 -1505h-248l211 530l-440 975h284zM455 1507h256l229 -329h-186l-170 188l-172 -188h-185z" />
    <glyph glyph-name="Ydieresis" unicode="&#x178;" horiz-adv-x="1441" 
d="M332 1692q0 63 42.5 102t108.5 39t109 -39t43 -102q0 -61 -43 -99.5t-109 -38.5t-108.5 38.5t-42.5 99.5zM805 1692q0 63 41.5 102t107.5 39q67 0 110.5 -39.5t43.5 -101.5q0 -61 -43.5 -99.5t-110.5 -38.5q-66 0 -107.5 38.5t-41.5 99.5zM719 819l387 615h293v-27
l-547 -819v-588h-262v586l-547 821v27h293z" />
    <glyph glyph-name="Zacute" unicode="&#x179;" horiz-adv-x="1345" 
d="M674 1851h266l-240 -301h-196zM1282 209v-209h-1223v180l826 1043h-768v211h1116v-183l-832 -1042h881z" />
    <glyph glyph-name="zacute" unicode="&#x17a;" horiz-adv-x="1167" 
d="M606 1507h273l-265 -329h-198zM1102 201v-201h-1041v152l641 686h-604v198h965v-151l-641 -684h680z" />
    <glyph glyph-name="Zdotaccent" unicode="&#x17b;" horiz-adv-x="1345" 
d="M510 1698q0 63 44 103t112 40q67 0 111 -40t44 -103q0 -62 -44 -102t-111 -40q-68 0 -112 39.5t-44 102.5zM1282 209v-209h-1223v180l826 1043h-768v211h1116v-183l-832 -1042h881z" />
    <glyph glyph-name="zdotaccent" unicode="&#x17c;" horiz-adv-x="1167" 
d="M428 1337q0 66 45 110t113 44q66 0 112.5 -44t46.5 -110q0 -63 -46.5 -106t-112.5 -43q-67 0 -112.5 43t-45.5 106zM1102 201v-201h-1041v152l641 686h-604v198h965v-151l-641 -684h680z" />
    <glyph glyph-name="Zcaron" unicode="&#x17d;" horiz-adv-x="1345" 
d="M801 1550h-254l-215 301h182l160 -170l160 170h182zM1282 209v-209h-1223v180l826 1043h-768v211h1116v-183l-832 -1042h881z" />
    <glyph glyph-name="zcaron" unicode="&#x17e;" horiz-adv-x="1167" 
d="M711 1178h-254l-230 329h187l170 -188l172 188h184zM1102 201v-201h-1041v152l641 686h-604v198h965v-151l-641 -684h680z" />
    <glyph glyph-name="longs" unicode="&#x17f;" horiz-adv-x="653" 
d="M469 1145v-1145h-256v844h-154v192h154v70q0 92 21 162.5t55 113.5t82.5 70.5t97 38t104.5 10.5q158 0 239 -81t81 -203q0 -29 -10 -58h-203q6 15 6 35q0 49 -27 73.5t-75 24.5q-50 0 -82.5 -38.5t-32.5 -108.5z" />
    <glyph glyph-name="florin" unicode="&#x192;" horiz-adv-x="864" 
d="M510 643v-739q0 -92 -21 -162.5t-55 -114t-82.5 -71t-97 -38t-104.5 -10.5t-113 12.5t-92 35.5l84 182q39 -27 98 -27q66 0 96.5 47t30.5 150v735h-154v195h154v245q0 92 21 162.5t55 114t82.5 71t97 38t104.5 10.5q135 0 205 -47l-84 -183q-39 27 -98 27
q-66 0 -96.5 -47t-30.5 -150v-241h252v-195h-252z" />
    <glyph glyph-name="Aringacute" unicode="&#x1fa;" horiz-adv-x="1417" 
d="M289 0h-271l553 1434h273l557 -1434h-268l-109 281h-631zM948 494l-239 673l-242 -673h481zM727 2136h236l-156 -201q137 -52 137 -190q0 -96 -67 -151.5t-168 -55.5t-167.5 55.5t-66.5 151.5q0 73 40 124.5t108 72.5zM596 1745q0 -45 31.5 -68.5t81.5 -23.5t80 23.5
t30 68.5t-30 67.5t-80 22.5t-81.5 -22.5t-31.5 -67.5z" />
    <glyph glyph-name="aringacute" unicode="&#x1fb;" horiz-adv-x="1333" 
d="M678 1774h235l-155 -201q64 -24 100.5 -72.5t36.5 -118.5q0 -95 -67 -150.5t-169 -55.5q-101 0 -167 55t-66 151q0 73 39.5 124.5t107.5 72.5zM547 1382q0 -45 31 -68.5t81 -23.5t80.5 23.5t30.5 68.5t-30.5 68t-80.5 23t-81 -23t-31 -68zM938 1036h252v-1036h-252v156
q-56 -86 -147.5 -132.5t-206.5 -46.5q-150 0 -267 73.5t-179 197t-62 274.5q0 148 60.5 269t178 194.5t271.5 73.5q108 0 199.5 -44t152.5 -132v153zM330 520q0 -143 83.5 -237.5t221.5 -94.5q134 0 221.5 86.5t87.5 235.5q0 152 -87.5 245t-227.5 93q-138 0 -218.5 -94.5
t-80.5 -233.5z" />
    <glyph glyph-name="AEacute" unicode="&#x1fc;" horiz-adv-x="1882" 
d="M-12 0l768 1434h1026v-211h-623v-439h547v-209h-547v-366h623v-209h-885v567h-334q-238 -453 -299 -567h-276zM664 774h233v418h-20zM1155 1851h266l-239 -301h-195z" />
    <glyph glyph-name="aeacute" unicode="&#x1fd;" horiz-adv-x="1906" 
d="M1016 1507h272l-264 -329h-199zM487 643q173 0 301 -45v31q0 57 -21.5 100t-56.5 67t-75.5 36t-83.5 12q-191 0 -326 -107l-94 168q154 154 438 154q267 0 377 -168q139 168 385 168q108 0 200.5 -34.5t164.5 -103t113.5 -181t41.5 -257.5h-825q0 -127 93 -210t255 -83
q91 0 155.5 31t131.5 96l143 -141q-100 -111 -207 -155t-235 -44q-157 0 -274.5 54t-192.5 151q-148 -205 -422 -205q-112 0 -204.5 37.5t-151 116.5t-58.5 186q0 144 116 235t312 91zM1331 858q-44 0 -85 -10t-82 -32t-73.5 -64t-50.5 -99h551q-50 205 -260 205zM788 449
q-133 36 -262 36q-112 0 -162.5 -46.5t-50.5 -110.5q0 -65 51 -107.5t150 -42.5q179 0 297 146q-21 81 -23 125z" />
    <glyph glyph-name="Oslashacute" unicode="&#x1fe;" horiz-adv-x="1667" 
d="M897 1851h266l-239 -301h-197zM403 -98l-143 98l98 145q-127 108 -200.5 256t-73.5 316q0 200 101.5 370.5t274 269.5t374.5 99q184 0 350 -88l102 154l144 -99l-105 -153q121 -106 189.5 -248.5t68.5 -304.5q0 -150 -60 -287t-160.5 -236.5t-239 -158t-289.5 -58.5
q-174 0 -328 74zM350 717q0 -108 39.5 -202.5t108.5 -162.5l549 815q-98 52 -213 52q-98 0 -187 -38t-154.5 -104t-104 -160t-38.5 -200zM1317 717q0 200 -131 344l-543 -807q85 -39 191 -39q200 0 341.5 144t141.5 358z" />
    <glyph glyph-name="oslashacute" unicode="&#x1ff;" horiz-adv-x="1265" 
d="M700 1507h273l-264 -329h-199zM1157 993l-104 -119q141 -154 141 -356q0 -147 -76.5 -272t-205.5 -197t-279 -72q-166 0 -299 86l-115 -129l-113 101l111 125q-145 158 -145 358q0 110 46 211t122 173t179.5 114.5t213.5 42.5q160 0 301 -88l110 125zM324 518
q0 -119 51 -180l411 465q-71 41 -153 41q-130 0 -219.5 -95t-89.5 -231zM942 518q0 95 -49 176l-410 -461q64 -40 150 -40q131 0 220 94.5t89 230.5z" />
    <glyph glyph-name="Scommaaccent" unicode="&#x218;" horiz-adv-x="1198" 
d="M508 -621l-47 89q151 55 151 163q-69 -22 -115 16.5t-46 102.5q-2 61 37.5 101t107.5 40q43 0 76.5 -17.5t51 -44.5t26 -53.5t8.5 -51.5q0 -264 -250 -345zM61 367l238 53q24 -94 103 -152.5t194 -58.5t186.5 48.5t71.5 133.5q0 123 -188 191l-185 63q-87 28 -152.5 68.5
t-102.5 81.5t-60 89t-30 86.5t-7 78.5q0 122 65 216t172 142.5t238 48.5q178 0 301.5 -86.5t173.5 -241.5l-221 -92q-62 187 -254 187q-93 0 -153 -43.5t-60 -126.5q0 -23 5 -42t21 -44.5t52.5 -49.5t91.5 -43l184 -67q100 -32 174.5 -80.5t115.5 -104t60 -111t19 -110.5
q0 -133 -71 -231t-185.5 -145.5t-255.5 -47.5q-209 0 -360.5 109t-180.5 281z" />
    <glyph glyph-name="scommaaccent" unicode="&#x219;" horiz-adv-x="946" 
d="M377 -621l-49 91q153 53 153 163q-24 -6 -45 -6q-53 0 -86 35t-33 90q0 61 39 100t107 39q44 0 77.5 -17t51 -44t26.5 -54t9 -52q0 -258 -250 -345zM53 246l199 84q19 -74 81 -112t140 -38q64 0 110 26t46 83q0 38 -28.5 62t-84.5 48l-151 58q-74 27 -127.5 63.5
t-81.5 75.5t-40 75.5t-12 73.5q0 142 107.5 228t271.5 86q53 0 103 -10.5t101.5 -35t93 -72.5t65.5 -114l-203 -73q-18 57 -63 81.5t-95 24.5q-54 0 -94.5 -28.5t-40.5 -79.5q0 -39 28.5 -62.5t80.5 -44.5l153 -55q79 -25 134.5 -62.5t82 -80t37.5 -79.5t11 -75
q0 -147 -118 -231.5t-288 -84.5q-91 0 -171.5 25t-149.5 87.5t-97 156.5z" />
    <glyph glyph-name="uni021A" unicode="&#x21a;" horiz-adv-x="1224" 
d="M41 1434h1143v-211h-443v-1223h-49q61 -50 89 -109.5t28 -113.5q0 -63 -26 -111.5t-67.5 -75t-86 -39t-88.5 -12.5q-106 0 -183.5 63t-109.5 162q20 12 61 30t60 30q55 -115 149 -115q48 0 78.5 31t30.5 82q0 40 -22 90t-75 88h-51v1223h-438v211z" />
    <glyph glyph-name="uni021B" unicode="&#x21b;" horiz-adv-x="894" 
d="M446 -14q-243 53 -243 350v508h-162v192h174l45 277h195v-277h309v-192h-309v-543q0 -113 100 -113q47 0 74.5 29.5t27.5 77.5q0 54 -14 86h207q22 -48 22 -117q0 -102 -59 -177t-172 -99q60 -39 86.5 -97t26.5 -114q0 -62 -25 -109.5t-65 -74t-84.5 -39.5t-90.5 -13
q-106 0 -184 62.5t-112 160.5l122 60q55 -115 148 -115q49 0 79.5 30t30.5 83q0 38 -31.5 92t-95.5 72z" />
    <glyph glyph-name="circumflex" unicode="&#x2c6;" horiz-adv-x="1290" 
d="M516 1507h256l229 -329h-186l-170 188l-172 -188h-184z" />
    <glyph glyph-name="caron" unicode="&#x2c7;" horiz-adv-x="1275" 
d="M764 1178h-254l-229 329h186l170 -188l172 188h184z" />
    <glyph glyph-name="uni02C9" unicode="&#x2c9;" horiz-adv-x="1079" 
d="M236 1419h608v-184h-608v184z" />
    <glyph glyph-name="breve" unicode="&#x2d8;" horiz-adv-x="970" 
d="M477 1352q132 0 144 155l159 -16q-8 -90 -39 -154t-76 -96.5t-91 -46.5t-97 -14q-39 0 -76 8t-76.5 29.5t-70 55t-53 89.5t-29.5 129l162 16q12 -155 143 -155z" />
    <glyph glyph-name="dotaccent" unicode="&#x2d9;" horiz-adv-x="684" 
d="M184 1337q0 66 45 110t113 44q66 0 112 -44t46 -110q0 -63 -46 -106t-112 -43q-67 0 -112.5 43t-45.5 106z" />
    <glyph glyph-name="ring" unicode="&#x2da;" horiz-adv-x="837" 
d="M184 1393q0 97 68 162t166 65q99 0 167 -65t68 -162q0 -96 -68 -161t-167 -65q-98 0 -166 65t-68 161zM305 1393q0 -47 33 -79t80 -32t78.5 32t31.5 79t-31.5 77.5t-78.5 30.5q-48 0 -80.5 -30.5t-32.5 -77.5z" />
    <glyph glyph-name="ogonek" unicode="&#x2db;" horiz-adv-x="931" 
d="M485 47v-29q-69 -39 -97 -94.5t-28 -101.5q0 -53 31 -83t78 -30q94 0 149 115l121 -62q-32 -97 -109.5 -160t-183.5 -63q-44 0 -88 12t-86 38t-68 74t-26 112q0 69 44.5 144.5t142.5 127.5h120z" />
    <glyph glyph-name="tilde" unicode="&#x2dc;" horiz-adv-x="1015" 
d="M737 1485l121 -37q-32 -121 -78.5 -176t-128.5 -55q-57 0 -149.5 37.5t-120.5 37.5q-39 0 -59.5 -20t-45.5 -74l-120 37q32 121 78 176t128 55q57 0 150 -37.5t121 -37.5q39 0 59 20t45 74z" />
    <glyph glyph-name="hungarumlaut" unicode="&#x2dd;" horiz-adv-x="1148" 
d="M393 1507h205l-211 -329h-180zM735 1507h207l-223 -329h-184z" />
    <glyph glyph-name="uni0394" unicode="&#x394;" horiz-adv-x="1574" 
d="M84 0l571 1434h285l545 -1434h-1401zM795 1159l-365 -950h713z" />
    <glyph glyph-name="uni03A9" unicode="&#x3a9;" horiz-adv-x="1660" 
d="M829 1241q-205 0 -334.5 -144t-129.5 -366q0 -186 102 -324.5t281 -195.5v-211h-623v209h287q-128 63 -218 216t-90 327q0 193 89.5 353t256.5 255.5t379 95.5q160 0 297 -55.5t230.5 -151t146.5 -224.5t53 -273q0 -170 -90 -325t-217 -218h287v-209h-625v211
q175 59 280 198.5t105 321.5q0 223 -129.5 366.5t-337.5 143.5z" />
    <glyph glyph-name="uni03BC" unicode="&#x3bc;" horiz-adv-x="1257" 
d="M143 -319v1355h252v-594q0 -121 53.5 -186.5t147.5 -65.5q116 0 191 85t75 243v518h252v-1036h-252v174q-95 -197 -336 -197q-68 0 -141 25v-321h-242z" />
    <glyph glyph-name="pi" unicode="&#x3c0;" horiz-adv-x="1388" 
d="M932 838v-525q0 -125 100 -125q47 0 75 29.5t28 77.5q0 51 -15 86h207q23 -50 23 -117q0 -122 -84.5 -204.5t-243.5 -82.5q-55 0 -102 9.5t-92.5 35t-77 65t-51 103t-19.5 146.5v43v459h-203v-838h-252v838h-166v198h1102v-198h-229z" />
    <glyph glyph-name="Wgrave" unicode="&#x1e80;" horiz-adv-x="2033" 
d="M694 1851h267l169 -301h-196zM1118 1386l293 -937l305 985h264l-448 -1434h-213l-301 973l-301 -973h-215l-449 1434h264l306 -985l295 937h200z" />
    <glyph glyph-name="wgrave" unicode="&#x1e81;" horiz-adv-x="1687" 
d="M475 1507h273l190 -329h-197zM537 342l211 666h190l213 -666l223 694h273l-373 -1036h-225l-205 653l-207 -653h-223l-373 1036h270z" />
    <glyph glyph-name="Wacute" unicode="&#x1e82;" horiz-adv-x="2033" 
d="M1067 1851h266l-239 -301h-197zM1118 1386l293 -937l305 985h264l-448 -1434h-213l-301 973l-301 -973h-215l-449 1434h264l306 -985l295 937h200z" />
    <glyph glyph-name="wacute" unicode="&#x1e83;" horiz-adv-x="1687" 
d="M930 1507h272l-266 -329h-197zM537 342l211 666h190l213 -666l223 694h273l-373 -1036h-225l-205 653l-207 -653h-223l-373 1036h270z" />
    <glyph glyph-name="Wdieresis" unicode="&#x1e84;" horiz-adv-x="2033" 
d="M629 1692q0 63 42.5 102t108.5 39t109 -39t43 -102q0 -61 -43 -99.5t-109 -38.5t-108.5 38.5t-42.5 99.5zM1102 1692q0 63 41.5 102t107.5 39q67 0 110.5 -39.5t43.5 -101.5q0 -61 -43.5 -99.5t-110.5 -38.5q-66 0 -107.5 38.5t-41.5 99.5zM1118 1386l293 -937l305 985
h264l-448 -1434h-213l-301 973l-301 -973h-215l-449 1434h264l306 -985l295 937h200z" />
    <glyph glyph-name="wdieresis" unicode="&#x1e85;" horiz-adv-x="1687" 
d="M449 1343q0 63 43.5 105.5t109.5 42.5t110 -42.5t44 -105.5q0 -62 -44 -103.5t-110 -41.5t-109.5 41.5t-43.5 103.5zM922 1343q0 63 42.5 105.5t108.5 42.5t111 -42.5t45 -105.5q0 -61 -45 -103t-111 -42t-108.5 41.5t-42.5 103.5zM537 342l211 666h190l213 -666l223 694
h273l-373 -1036h-225l-205 653l-207 -653h-223l-373 1036h270z" />
    <glyph glyph-name="Ygrave" unicode="&#x1ef2;" horiz-adv-x="1441" 
d="M436 1851h266l170 -301h-196zM719 819l387 615h293v-27l-547 -819v-588h-262v586l-547 821v27h293z" />
    <glyph glyph-name="ygrave" unicode="&#x1ef3;" horiz-adv-x="1175" 
d="M596 326l270 710h283l-643 -1505h-248l211 530l-440 975h284zM248 1507h272l191 -329h-199z" />
    <glyph glyph-name="thinspace" unicode="&#x2009;" horiz-adv-x="34" 
 />
    <glyph glyph-name="endash" unicode="&#x2013;" horiz-adv-x="1183" 
d="M131 522v213h920v-213h-920z" />
    <glyph glyph-name="emdash" unicode="&#x2014;" horiz-adv-x="1636" 
d="M131 522v213h1372v-213h-1372z" />
    <glyph glyph-name="quoteleft" unicode="&#x2018;" horiz-adv-x="516" 
d="M356 1479l52 -93q-156 -53 -156 -196q65 12 111.5 -29t46.5 -98q2 -63 -40 -105.5t-120 -42.5q-45 0 -77.5 20t-48.5 51t-23 59t-7 53q0 136 66 238.5t196 142.5z" />
    <glyph glyph-name="quoteright" unicode="&#x2019;" horiz-adv-x="512" 
d="M168 915l-53 95q155 53 155 196q-66 -12 -111.5 27.5t-45.5 97.5q-2 64 39.5 107t119.5 43q45 0 77.5 -20t48.5 -51t23 -59.5t7 -54.5q0 -136 -65 -238t-195 -143z" />
    <glyph glyph-name="quotesinglbase" unicode="&#x201a;" horiz-adv-x="524" 
d="M156 -274l-52 94q156 53 156 196q-66 -12 -112 27.5t-46 97.5q-2 64 40 107t120 43q45 0 77.5 -20t48.5 -51t23 -59.5t7 -54.5q0 -135 -66 -237t-196 -143z" />
    <glyph glyph-name="quotedblleft" unicode="&#x201c;" horiz-adv-x="976" 
d="M815 1479l53 -93q-155 -53 -155 -196q65 12 111 -29t46 -98q2 -64 -39.5 -106t-119.5 -42q-45 0 -77.5 20t-48.5 51t-23 59t-7 53q0 136 65.5 238.5t194.5 142.5zM356 1479l52 -93q-156 -53 -156 -196q65 12 111.5 -29t46.5 -98q2 -63 -40 -105.5t-120 -42.5
q-45 0 -77.5 20t-48.5 51t-23 59t-7 53q0 136 66 238.5t196 142.5z" />
    <glyph glyph-name="quotedblright" unicode="&#x201d;" horiz-adv-x="972" 
d="M168 915l-53 95q153 53 153 196q-66 -12 -110.5 27.5t-44.5 97.5q-5 63 37 106.5t120 43.5q44 0 77 -20t49.5 -51t24 -60t7.5 -54q0 -136 -65 -238t-195 -143zM627 915l-52 95q154 53 154 196q-66 -12 -111 27.5t-45 97.5q-5 63 37 106.5t121 43.5q44 0 77 -20t49.5 -51
t24 -60t7.5 -54q0 -135 -66 -237.5t-196 -143.5z" />
    <glyph glyph-name="quotedblbase" unicode="&#x201e;" horiz-adv-x="985" 
d="M158 -274l-54 94q156 53 156 196q-66 -12 -112 27.5t-46 97.5q-2 64 40 107t120 43q45 0 77.5 -20t48.5 -51t23 -59.5t7 -54.5q0 -136 -65 -237.5t-195 -142.5zM616 -274l-51 94q156 53 156 196q-66 -12 -112 27.5t-46 97.5q-2 64 40 107t120 43q45 0 77.5 -20t48.5 -51
t23 -59.5t7 -54.5q0 -135 -66.5 -237t-196.5 -143z" />
    <glyph glyph-name="dagger" unicode="&#x2020;" horiz-adv-x="1116" 
d="M666 879v-1170h-215v1170h-385v192h385v492h215v-492h385v-192h-385z" />
    <glyph glyph-name="daggerdbl" unicode="&#x2021;" horiz-adv-x="1161" 
d="M1073 256h-385v-549h-215v549h-385v193h385v430h-385v192h385v492h215v-492h385v-192h-385v-430h385v-193z" />
    <glyph glyph-name="bullet" unicode="&#x2022;" horiz-adv-x="829" 
d="M154 514q0 109 74.5 185.5t185.5 76.5t186.5 -77t75.5 -185t-75.5 -185t-186.5 -77q-112 0 -186 75.5t-74 186.5z" />
    <glyph glyph-name="ellipsis" unicode="&#x2026;" horiz-adv-x="1742" 
d="M102 139q0 72 49 119t123 47q73 0 122.5 -47.5t49.5 -118.5q0 -69 -50 -115.5t-122 -46.5q-73 0 -122.5 46.5t-49.5 115.5zM700 139q0 72 49 119t121 47q73 0 123.5 -47.5t50.5 -118.5q0 -69 -51 -115.5t-123 -46.5t-121 46.5t-49 115.5zM1296 139q0 72 49 119t123 47
q73 0 122.5 -47.5t49.5 -118.5q0 -69 -50 -115.5t-122 -46.5q-73 0 -122.5 46.5t-49.5 115.5z" />
    <glyph glyph-name="perthousand" unicode="&#x2030;" horiz-adv-x="2844" 
d="M469 0l797 1434h188l-797 -1434h-188zM70 1081q0 159 110.5 267t272.5 108q163 0 272 -108t109 -267q0 -156 -109 -263t-272 -107q-162 0 -272.5 107t-110.5 263zM268 1081q0 -85 54 -139.5t131 -54.5q79 0 132.5 54.5t53.5 139.5q0 87 -53.5 143t-132.5 56
q-77 0 -131 -56.5t-54 -142.5zM1104 348q0 158 110 265.5t273 107.5q164 0 272.5 -107t108.5 -266q0 -156 -109 -263.5t-272 -107.5q-162 0 -272.5 107.5t-110.5 263.5zM1303 348q0 -85 53.5 -139.5t130.5 -54.5q79 0 132.5 54.5t53.5 139.5q0 87 -53.5 143t-132.5 56
q-76 0 -130 -56.5t-54 -142.5zM2013 348q0 158 110 265.5t273 107.5q164 0 272.5 -107t108.5 -266q0 -156 -109 -263.5t-272 -107.5q-162 0 -272.5 107.5t-110.5 263.5zM2212 348q0 -85 53.5 -139.5t130.5 -54.5q79 0 133 54.5t54 139.5q0 87 -54 143t-133 56
q-76 0 -130 -56.5t-54 -142.5z" />
    <glyph glyph-name="guilsinglleft" unicode="&#x2039;" horiz-adv-x="712" 
d="M82 590v45l393 452l148 -124l-304 -351l302 -346l-146 -127z" />
    <glyph glyph-name="guilsinglright" unicode="&#x203a;" horiz-adv-x="710" 
d="M631 635v-45l-393 -451l-146 127l301 346l-303 351l148 124z" />
    <glyph glyph-name="fraction" unicode="&#x2044;" horiz-adv-x="307" 
d="M807 1505l-1120 -1585h-189l1118 1585h191z" />
    <glyph glyph-name="zerosuperior" unicode="&#x2070;" horiz-adv-x="763" 
d="M707 1251q0 -159 -89 -266.5t-237 -107.5q-147 0 -235.5 107.5t-88.5 266.5t88.5 267t235.5 108q148 0 237 -108t89 -267zM545 1251q0 106 -43.5 171t-120.5 65q-74 0 -118 -65.5t-44 -170.5q0 -102 44 -168.5t118 -66.5q76 0 120 66t44 169z" />
    <glyph glyph-name="foursuperior" unicode="&#x2074;" horiz-adv-x="716" 
d="M197 1200h184v211zM375 1079h-348v86l374 447h136v-412h145v-121h-145v-184h-162v184z" />
    <glyph glyph-name="fivesuperior" unicode="&#x2075;" horiz-adv-x="663" 
d="M307 1010q73 0 109.5 36.5t36.5 92.5q0 48 -36 85.5t-100 37.5q-81 0 -141 -43q-16 6 -98 47l18 344h457v-125h-324l-8 -144q50 33 139 33q108 0 180 -69t72 -166q0 -118 -78.5 -188t-222.5 -70q-160 0 -260 90l80 100q79 -61 176 -61z" />
    <glyph glyph-name="sixsuperior" unicode="&#x2076;" horiz-adv-x="702" 
d="M389 1495q-72 0 -123 -57t-55 -154h4q29 41 79.5 61.5t100.5 20.5q102 0 178 -66t76 -176q0 -106 -79.5 -175.5t-202.5 -69.5q-145 0 -226.5 97t-81.5 259q0 166 85.5 276.5t240.5 110.5q73 0 135 -25t98 -71l-94 -86q-48 55 -135 55zM362 1249q-62 0 -98.5 -34.5
t-36.5 -86.5q0 -54 37.5 -88t97.5 -34q58 0 95 32t37 88t-36 89.5t-96 33.5z" />
    <glyph glyph-name="sevensuperior" unicode="&#x2077;" horiz-adv-x="610" 
d="M45 1487v125h539v-92l-322 -625h-174l311 592h-354z" />
    <glyph glyph-name="eightsuperior" unicode="&#x2078;" horiz-adv-x="714" 
d="M360 1317q53 0 83 28t30 66q0 41 -31.5 64.5t-83.5 23.5q-54 0 -85 -23.5t-31 -64.5q0 -38 31 -66t87 -28zM356 1217q-68 0 -106.5 -31.5t-38.5 -75.5q0 -45 41 -77t106 -32q62 0 104 32t42 77q0 44 -40 76t-108 31zM358 879q-132 0 -217.5 64t-85.5 167q0 52 40 99.5
t104 64.5q-52 18 -81.5 57t-29.5 80q0 92 75.5 150.5t194.5 58.5q118 0 194.5 -58.5t76.5 -150.5q0 -40 -30.5 -79.5t-82.5 -57.5q64 -17 103.5 -64.5t39.5 -99.5q0 -103 -85 -167t-216 -64z" />
    <glyph glyph-name="ninesuperior" unicode="&#x2079;" horiz-adv-x="702" 
d="M313 1004q72 0 123.5 57t55.5 153h-5q-28 -41 -79 -61t-101 -20q-102 0 -178 65.5t-76 175.5q0 106 80.5 177t202.5 71q145 0 226 -97.5t81 -260.5q0 -166 -85.5 -275.5t-240.5 -109.5q-74 0 -135.5 24t-97.5 70l94 86q48 -55 135 -55zM340 1249q62 0 98.5 34.5
t36.5 86.5q0 54 -37.5 88.5t-97.5 34.5q-58 0 -94.5 -32.5t-36.5 -88.5t35.5 -89.5t95.5 -33.5z" />
    <glyph glyph-name="parenleftsuperior" unicode="&#x207d;" horiz-adv-x="423" 
d="M223 1243q0 -133 43.5 -250.5t95.5 -199.5q-16 -11 -45.5 -30t-44.5 -30q-28 28 -60 75t-65.5 112.5t-55 151.5t-21.5 171q0 86 22 172.5t56 152t65.5 112t58.5 73.5l90 -59q-50 -72 -94.5 -193.5t-44.5 -257.5z" />
    <glyph glyph-name="parenrightsuperior" unicode="&#x207e;" horiz-adv-x="423" 
d="M201 1243q0 137 -44 256t-96 195l91 59q27 -27 58.5 -73.5t65.5 -112t56 -152t22 -172.5q0 -85 -21.5 -171t-55 -151.5t-65.5 -112.5t-60 -75q-16 11 -46 29.5t-45 30.5q140 223 140 450z" />
    <glyph glyph-name="zeroinferior" unicode="&#x2080;" horiz-adv-x="763" 
d="M707 66q0 -159 -89 -267t-237 -108q-147 0 -235.5 108t-88.5 267t88.5 266.5t235.5 107.5q148 0 237 -107.5t89 -266.5zM545 66q0 106 -43.5 170.5t-120.5 64.5q-74 0 -118 -65t-44 -170q0 -102 44.5 -169t117.5 -67q76 0 120 66.5t44 169.5z" />
    <glyph glyph-name="oneinferior" unicode="&#x2081;" horiz-adv-x="462" 
d="M57 184l-41 121l273 121h90v-717h-164v543z" />
    <glyph glyph-name="twoinferior" unicode="&#x2082;" horiz-adv-x="675" 
d="M457 -39l-146 -129q39 6 105 6h205v-129h-551l-17 92l297 260q86 71 86 146q0 46 -28 71t-76 25q-60 0 -87.5 -33t-27.5 -75h-158q0 39 14 79t44 78t86 62t129 24q121 0 191.5 -64.5t70.5 -166.5q0 -134 -137 -246z" />
    <glyph glyph-name="threeinferior" unicode="&#x2083;" horiz-adv-x="669" 
d="M309 -176q61 0 100.5 36t39.5 85q0 53 -39 88t-91 35q-53 0 -92 -21l-61 80l201 174h-297v125h518v-88l-193 -176q98 -10 156.5 -70t58.5 -147q0 -106 -82 -177t-221 -71q-80 0 -144 19t-120 69l82 102q82 -63 184 -63z" />
    <glyph glyph-name="fourinferior" unicode="&#x2084;" horiz-adv-x="720" 
d="M199 14h184v211zM377 -106h-348v86l374 446h136v-412h145v-120h-145v-185h-162v185z" />
    <glyph glyph-name="fiveinferior" unicode="&#x2085;" horiz-adv-x="663" 
d="M307 -176q73 0 109.5 36.5t36.5 92.5q0 48 -36 85.5t-100 37.5q-81 0 -141 -43q-16 6 -98 47l18 344h457v-125h-324l-8 -143q49 32 139 32q108 0 180 -69t72 -166q0 -118 -78.5 -188t-222.5 -70q-160 0 -260 90l80 100q79 -61 176 -61z" />
    <glyph glyph-name="sixinferior" unicode="&#x2086;" horiz-adv-x="702" 
d="M389 309q-72 0 -123 -57t-55 -154h4q29 41 79.5 61.5t100.5 20.5q102 0 178 -65.5t76 -175.5q0 -106 -79.5 -176t-202.5 -70q-145 0 -226.5 97t-81.5 259q0 166 85.5 276.5t240.5 110.5q73 0 135 -25t98 -71l-94 -86q-48 55 -135 55zM362 63q-62 0 -98.5 -34t-36.5 -86
q0 -54 37.5 -88.5t97.5 -34.5q58 0 95 32.5t37 88.5q0 55 -36 88.5t-96 33.5z" />
    <glyph glyph-name="seveninferior" unicode="&#x2087;" horiz-adv-x="600" 
d="M41 301v125h539v-92l-322 -625h-174l311 592h-354z" />
    <glyph glyph-name="eightinferior" unicode="&#x2088;" horiz-adv-x="714" 
d="M360 131q53 0 83 28t30 66q0 41 -31.5 64.5t-83.5 23.5q-54 0 -85 -23.5t-31 -64.5q0 -38 31 -66t87 -28zM356 31q-68 0 -106.5 -31.5t-38.5 -75.5q0 -45 41 -76.5t106 -31.5q62 0 104 31.5t42 76.5q0 44 -40 76t-108 31zM358 -307q-132 0 -217.5 64t-85.5 167
q0 52 40 99.5t104 64.5q-52 18 -81.5 57t-29.5 80q0 92 75.5 150.5t194.5 58.5q118 0 194.5 -58.5t76.5 -150.5q0 -40 -30.5 -79.5t-82.5 -57.5q64 -17 103.5 -64.5t39.5 -99.5q0 -103 -85 -167t-216 -64z" />
    <glyph glyph-name="nineinferior" unicode="&#x2089;" horiz-adv-x="704" 
d="M315 -182q72 0 123.5 57t55.5 154h-5q-29 -41 -79.5 -61.5t-100.5 -20.5q-102 0 -178 65.5t-76 175.5q0 106 80.5 177t202.5 71q145 0 226 -97.5t81 -260.5q0 -166 -85.5 -275.5t-240.5 -109.5q-74 0 -135.5 24t-97.5 70l94 86q48 -55 135 -55zM342 63q62 0 98.5 34.5
t36.5 86.5q0 54 -37.5 88.5t-97.5 34.5q-58 0 -94.5 -32.5t-36.5 -88.5t35.5 -89.5t95.5 -33.5z" />
    <glyph glyph-name="parenleftinferior" unicode="&#x208d;" horiz-adv-x="428" 
d="M223 57q0 -137 44.5 -255t97.5 -195q-16 -11 -46 -29.5t-45 -30.5q-28 28 -60 75t-65.5 112.5t-55 151.5t-21.5 171q0 86 21.5 172t55 152t65.5 113t60 75l91 -61q-53 -77 -97.5 -195.5t-44.5 -255.5z" />
    <glyph glyph-name="parenrightinferior" unicode="&#x208e;" horiz-adv-x="428" 
d="M205 57q0 137 -44.5 255.5t-97.5 195.5l91 61q28 -28 60 -75t65.5 -113t55 -152t21.5 -172q0 -85 -21.5 -171t-55 -151.5t-65.5 -112.5t-60 -75q-16 12 -45.5 30.5t-45.5 29.5q53 77 97.5 195t44.5 255z" />
    <glyph glyph-name="lira" unicode="&#x20a4;" horiz-adv-x="1314" 
d="M961 451h-308q0 -22 -4.5 -50t-16.5 -66t-39 -72.5t-65 -53.5v-10q98 10 252 10h449v-209h-1139v209q84 0 145 16.5t93 39.5t50.5 58.5t23 63.5t4.5 64h-275v133h254q-6 17 -21.5 56.5t-23.5 61.5h-209v134h158q-43 124 -43 213q0 181 139 294t346 113q96 0 175.5 -24
t131 -63t87 -90.5t50.5 -104.5t15 -107h-242q0 75 -56 122.5t-157 47.5q-110 0 -172.5 -52.5t-62.5 -144.5q0 -83 41 -204h420v-134h-371q8 -20 43 -118h328v-133z" />
    <glyph glyph-name="rupee" unicode="&#x20a8;" horiz-adv-x="1417" 
d="M113 918v141h706q-21 73 -76.5 116t-132.5 42h-497v217h1202v-142h-332q85 -94 107 -233h225v-141h-221q-14 -140 -98 -241t-220 -136q11 -63 30 -118.5t49 -106.5t75 -81t100 -30q95 0 158 63l92 -180q-65 -57 -131.5 -84t-155.5 -27q-96 0 -175 42t-127.5 103.5
t-83 140.5t-49.5 142.5t-21 120.5h-424v209h497q85 0 141.5 48.5t73.5 134.5h-712z" />
    <glyph glyph-name="uni20A9" unicode="&#x20a9;" horiz-adv-x="2138" 
d="M84 907v129h145l-123 398h265l123 -398h366l111 350h200l109 -350h367l122 398h265l-125 -398h145v-129h-186l-39 -123h225v-129h-264l-205 -655h-213l-301 973l-301 -973h-215l-207 655h-262v129h223l-39 123h-186zM532 907l39 -123h211l39 123h-289zM1321 907l37 -123
h211l37 123h-285zM610 655l66 -206l65 206h-131zM1399 655l65 -206l64 206h-129z" />
    <glyph glyph-name="afii57636" unicode="&#x20aa;" horiz-adv-x="1654" 
d="M381 856v-856h-246v1102h600q188 0 305 -117.5t117 -292.5v-319h-246v319q0 69 -49 116.5t-127 47.5h-354zM1274 246v856h246v-1102h-600q-188 0 -305 117.5t-117 292.5v319h245v-319q0 -69 49.5 -116.5t127.5 -47.5h354z" />
    <glyph glyph-name="Euro" unicode="&#x20ac;" horiz-adv-x="1406" 
d="M80 774v146h213q46 244 220 390t458 146q198 0 364 -98q-36 -90 -78 -205q-57 35 -136.5 53.5t-127.5 18.5q-347 0 -436 -305h627l-51 -146h-603q-2 -18 -2 -57q0 -22 4 -68h560l-52 -143h-477q43 -139 149.5 -219t268.5 -80q145 0 276 49v-223q-134 -56 -270 -56
q-148 0 -269.5 39.5t-206 111.5t-139.5 167.5t-77 210.5h-215v143h199q-5 40 -5 60q0 42 2 65h-196z" />
    <glyph glyph-name="uni2113" unicode="&#x2113;" horiz-adv-x="989" 
d="M915 1104q0 -272 -126 -480t-328 -282q2 -75 33.5 -118.5t85.5 -43.5q98 0 98 103v41h199q16 -45 16 -76q0 -120 -83.5 -195.5t-238.5 -75.5q-51 0 -95 8t-91.5 31t-82.5 60t-61 100t-34 146h-31q-68 0 -117 10v162q54 -7 86 -7q45 0 60 5v612q0 95 27.5 167t67 110.5
t93 62.5t95 30.5t83.5 6.5q45 0 85.5 -6.5t90 -30.5t84.5 -62.5t59.5 -110.5t24.5 -167zM707 1112q0 88 -38 126t-85 38q-60 0 -92.5 -45.5t-32.5 -159.5v-520q112 67 180 216.5t68 344.5z" />
    <glyph glyph-name="afii61352" unicode="&#x2116;" horiz-adv-x="2252" 
d="M1497 1126q0 140 95.5 235t236.5 95t235.5 -95t94.5 -235q0 -136 -95 -230.5t-235 -94.5t-236 94.5t-96 230.5zM1659 1126q0 -74 48 -124t122 -50t122 50t48 124q0 78 -47.5 129.5t-122.5 51.5t-122.5 -51.5t-47.5 -129.5zM1507 541v139h641v-139h-641zM1118 0l-708 967
v-967h-263v1434h199l707 -961v961h262v-1434h-197z" />
    <glyph glyph-name="uni2117" unicode="&#x2117;" horiz-adv-x="1634" 
d="M762 733h123q37 0 59.5 29t22.5 72t-22.5 74.5t-59.5 31.5h-123v-207zM905 594h-143v-256h-174v741h317q111 0 174.5 -70.5t63.5 -174.5q0 -106 -64.5 -173t-173.5 -67zM94 717q0 151 56 287.5t151.5 235.5t230 157.5t285.5 58.5t285.5 -58.5t230 -157.5t151.5 -235.5
t56 -287.5q0 -202 -94.5 -371.5t-261 -269t-367.5 -99.5t-367.5 99.5t-261 269t-94.5 371.5zM229 717q0 -166 76.5 -304.5t212 -219t299.5 -80.5q162 0 297.5 80.5t213 219t77.5 304.5q0 164 -77.5 302.5t-213 220t-297.5 81.5q-164 0 -299.5 -81.5t-212 -220t-76.5 -302.5z
" />
    <glyph glyph-name="trademark" unicode="&#x2122;" horiz-adv-x="1822" 
d="M74 1481h682v-148h-258v-602h-166v602h-258v148zM1683 731h-161l-41 440l-181 -423h-120l-183 423l-39 -440h-165l73 750h154l219 -520l215 520h162z" />
    <glyph glyph-name="Omega" unicode="&#x2126;" horiz-adv-x="1669" 
d="M834 1241q-205 0 -335 -144t-130 -366q0 -186 102 -324.5t281 -195.5v-211h-623v209h287q-128 63 -217.5 216t-89.5 327q0 193 89.5 353t256.5 255.5t379 95.5q160 0 297 -55.5t230.5 -151t146.5 -224.5t53 -273q0 -170 -90.5 -325t-217.5 -218h287v-209h-625v211
q175 59 280 198.5t105 321.5q0 223 -129 366.5t-337 143.5z" />
    <glyph glyph-name="estimated" unicode="&#x212e;" horiz-adv-x="1300" 
d="M1225 578h-879v-396q138 -129 311 -129q67 0 124 14.5t99 36.5t81.5 58t66.5 70t59 81l64 -39q-57 -90 -118.5 -150t-157.5 -99t-218 -39q-163 0 -291 81.5t-196 216.5t-68 296q0 164 67 298t197 215t300 81q128 0 234.5 -48t177 -129.5t109 -189.5t38.5 -229zM979 645
v334q-60 55 -143.5 91t-169.5 36q-196 0 -320 -127v-334h633z" />
    <glyph glyph-name="arrowleft" unicode="&#x2190;" horiz-adv-x="1347" 
d="M1163 616v-196h-700l215 -248l-146 -127l-393 451v45l393 452l148 -125l-217 -252h700z" />
    <glyph glyph-name="arrowup" unicode="&#x2191;" horiz-adv-x="1189" 
d="M694 18h-196v701l-252 -217l-125 147l452 393h45l451 -393l-127 -145l-248 215v-701z" />
    <glyph glyph-name="arrowright" unicode="&#x2192;" horiz-adv-x="1347" 
d="M184 420v196h701l-217 252l147 125l393 -452v-45l-393 -451l-145 127l215 248h-701z" />
    <glyph glyph-name="arrowdown" unicode="&#x2193;" horiz-adv-x="1193" 
d="M500 1042h196v-700l248 215l127 -145l-450 -394h-46l-452 394l125 147l252 -217v700z" />
    <glyph glyph-name="partialdiff" unicode="&#x2202;" horiz-adv-x="1355" 
d="M561 1192l-82 197q144 67 305 67q113 0 200 -30t142 -82t90.5 -127.5t49.5 -160t14 -186.5q0 -186 -46.5 -347t-135 -283.5t-227.5 -192.5t-312 -70q-123 0 -217.5 35t-151.5 96t-85.5 137.5t-28.5 164.5q0 93 31.5 175t86.5 142.5t127.5 104.5t155 66t168.5 22
q116 0 214.5 -38t164.5 -110q12 71 12 109q0 356 -288 356q-101 0 -187 -45zM684 709q-167 0 -259.5 -79.5t-92.5 -203.5q0 -110 71.5 -168.5t180.5 -58.5q143 0 257 99.5t150 270.5q-129 140 -307 140z" />
    <glyph glyph-name="Delta" unicode="&#x2206;" horiz-adv-x="1517" 
d="M57 0l572 1434h284l545 -1434h-1401zM768 1159l-365 -950h713z" />
    <glyph glyph-name="product" unicode="&#x220f;" horiz-adv-x="1511" 
d="M1239 1231v-1522h-256v1522h-453v-1522h-256v1522h-200v203h1364v-203h-199z" />
    <glyph glyph-name="summation" unicode="&#x2211;" horiz-adv-x="1202" 
d="M74 -139l481 706l-461 713v154h977v-211h-668v-4l424 -646l-442 -651v-4h743v-209h-1054v152z" />
    <glyph glyph-name="minus" unicode="&#x2212;" horiz-adv-x="1341" 
d="M137 526v213h1067v-213h-1067z" />
    <glyph glyph-name="uni2219" unicode="&#x2219;" horiz-adv-x="616" 
d="M137 569q0 72 49 119t121 47q73 0 123.5 -47.5t50.5 -118.5q0 -68 -50.5 -114.5t-123.5 -46.5q-72 0 -121 46t-49 115z" />
    <glyph glyph-name="radical" unicode="&#x221a;" horiz-adv-x="1146" 
d="M354 887l203 -608l33 -127l31 151l292 1260h197l-412 -1760h-211l-282 820l-135 -58l-68 160z" />
    <glyph glyph-name="infinity" unicode="&#x221e;" horiz-adv-x="1751" 
d="M309 614q0 -76 50 -117.5t126 -41.5q45 0 84.5 20.5t89.5 65.5l80 73l-82 76q-49 46 -86.5 65t-85.5 19q-76 0 -126 -42t-50 -118zM1651 614q0 -162 -105.5 -260t-259.5 -98q-98 0 -175 37t-155 110l-77 74h-5l-73 -74q-78 -72 -158 -109.5t-178 -37.5
q-158 0 -261.5 95.5t-103.5 262.5q0 163 104 261t261 98q188 0 336 -148l73 -73h5l77 73q78 73 154.5 110t175.5 38q157 0 261 -98t104 -261zM1444 612q0 76 -51 119t-123 43q-41 0 -81.5 -20t-70 -44.5t-89.5 -81.5l-6 -6l-5 -5t-6 -5l84 -75q49 -43 88.5 -62.5t85.5 -19.5
q73 0 123.5 41.5t50.5 115.5z" />
    <glyph glyph-name="integral" unicode="&#x222b;" horiz-adv-x="1073" 
d="M664 1147v-1217q0 -100 -24 -177t-61 -122t-87 -74t-95.5 -39t-93.5 -10q-77 0 -159 28t-148 81l59 215q110 -96 215 -96q56 0 97 41t41 135v1216q0 100 24 177t60.5 122t86.5 74t95.5 39t93.5 10q79 0 161 -27.5t148 -80.5l-59 -215q-58 49 -117 72.5t-102 23.5
q-55 0 -95 -41.5t-40 -134.5z" />
    <glyph glyph-name="approxequal" unicode="&#x2248;" horiz-adv-x="1314" 
d="M1108 1030l72 -170q-93 -135 -271 -135q-72 0 -165 26.5t-181 53t-147 26.5q-141 0 -211 -83l-68 178q91 131 266 131q77 0 175 -27.5t185 -54.5t138 -27q133 0 207 82zM1106 510l72 -170q-53 -75 -119.5 -106t-153.5 -31q-84 0 -253.5 54t-239.5 54q-55 0 -113 -19
t-96 -65l-70 179q91 129 268 129q77 0 175 -26.5t185 -53.5t136 -27q135 0 209 82z" />
    <glyph glyph-name="notequal" unicode="&#x2260;" horiz-adv-x="1228" 
d="M1108 305h-600l-141 -264l-142 78l103 186h-205v211h317q104 187 181 334h-498v209h612l135 254l140 -76q-57 -103 -97 -178h195v-209h-309l-178 -334h487v-211z" />
    <glyph glyph-name="lessequal" unicode="&#x2264;" horiz-adv-x="1273" 
d="M121 0v195h1005v-195h-1005zM123 891l977 375h24v-224l-716 -251l716 -252v-224h-24l-977 373v203z" />
    <glyph glyph-name="greaterequal" unicode="&#x2265;" horiz-adv-x="1273" 
d="M1153 195v-195h-1006v195h1006zM174 1266l977 -375v-203l-977 -373h-24v224l716 252l-716 251v224h24z" />
    <glyph glyph-name="lozenge" unicode="&#x25ca;" horiz-adv-x="1210" 
d="M1141 698l-447 -698h-178l-446 698l444 738h180zM901 698l-297 484l-295 -486l295 -454z" />
    <glyph glyph-name="commaaccent" unicode="&#xf6c3;" horiz-adv-x="677" 
d="M244 -621l-49 89q153 56 153 163q-69 -22 -115.5 16.5t-48.5 102.5q0 62 39.5 101.5t106.5 39.5q43 0 77 -17.5t51.5 -44.5t26.5 -54t9 -51q0 -264 -250 -345z" />
    <glyph glyph-name="rupiah" unicode="&#xf6dd;" horiz-adv-x="2723" 
d="M416 735h315q101 0 161 66.5t60 173.5q0 105 -61 173.5t-160 68.5h-315v-482zM1219 973q0 -160 -85.5 -277t-236.5 -155q11 -63 30 -118.5t49 -106.5t75 -81t100 -30q95 0 158 63l92 -180q-65 -57 -131.5 -84t-155.5 -27q-96 0 -175 42t-127.5 103.5t-83.5 140.5
t-50 142.5t-21 120.5h-241v-526h-262v1434h618q104 0 189.5 -37.5t141 -101t86 -146.5t30.5 -176zM1788 -469h-252v1505h252v-155q55 86 146.5 132t207.5 46q150 0 267 -72.5t179 -196.5t62 -276q0 -148 -60.5 -269t-178 -194.5t-271.5 -73.5q-108 0 -199.5 44.5
t-152.5 132.5v-623zM2396 516q0 143 -83.5 237.5t-221.5 94.5q-134 0 -221.5 -86.5t-87.5 -235.5q0 -150 87.5 -244t227.5 -94q138 0 218.5 94.5t80.5 233.5z" />
    <glyph glyph-name="centinferior" unicode="&#xf6df;" horiz-adv-x="616" 
d="M362 432h68l-18 -110q77 -15 153 -70l-63 -102q-10 9 -21.5 17t-20.5 12.5t-20.5 8.5t-17.5 5.5t-16.5 4t-12.5 3.5l-45 -293q85 0 148 55l73 -104q-108 -78 -223 -78q-14 0 -18 2l-15 -88h-71l14 98q-95 26 -150 96t-55 166q0 106 68.5 178t185.5 89l41 6zM209 55
q0 -82 72 -127l41 271q-49 -12 -81 -51.5t-32 -92.5z" />
    <glyph glyph-name="centsuperior" unicode="&#xf6e0;" horiz-adv-x="616" 
d="M362 1630h68l-18 -110q77 -15 153 -70l-63 -102q-10 9 -21.5 17t-20.5 12.5t-20.5 8.5t-17.5 5.5t-16.5 4t-12.5 3.5l-45 -293q85 0 148 55l73 -104q-108 -78 -223 -78q-14 0 -18 2l-15 -88h-71l14 98q-95 26 -150 96t-55 166q0 106 68.5 178t185.5 89l41 6zM209 1253
q0 -82 72 -127l41 271q-49 -12 -81 -51.5t-32 -92.5z" />
    <glyph glyph-name="commainferior" unicode="&#xf6e1;" horiz-adv-x="366" 
d="M109 -465l-35 59q45 16 73 47t33 64q-39 -4 -65.5 20.5t-26.5 57.5q-2 38 22.5 64t69.5 26q54 0 77.5 -36t23.5 -75q0 -78 -45 -140t-127 -87z" />
    <glyph glyph-name="commasuperior" unicode="&#xf6e2;" horiz-adv-x="366" 
d="M111 721l-35 59q45 16 73 47t33 64q-39 -4 -65.5 20.5t-26.5 57.5q-2 38 22.5 64t69.5 26q54 0 77.5 -36t23.5 -75q0 -78 -45 -140t-127 -87z" />
    <glyph glyph-name="dollarinferior" unicode="&#xf6e3;" horiz-adv-x="636" 
d="M299 -373v78q-100 4 -169.5 58.5t-86.5 140.5l131 33q10 -43 45.5 -74t79.5 -37v178l-43 16q-180 71 -180 205q0 86 62 140.5t161 60.5v76h55v-76q161 -22 211 -166l-121 -51q-23 70 -90 94v-170q11 -5 41 -14q92 -33 141.5 -91t49.5 -112q0 -94 -65 -148.5t-167 -60.5
v-80h-55zM227 227q0 -22 14.5 -39.5t57.5 -33.5v153q-31 -8 -51.5 -28.5t-20.5 -51.5zM432 -90q0 27 -20.5 43t-57.5 31v-154q78 15 78 80z" />
    <glyph glyph-name="dollarsuperior" unicode="&#xf6e4;" horiz-adv-x="638" 
d="M299 813v78q-100 4 -169.5 58.5t-86.5 140.5l131 32q10 -43 45.5 -73.5t79.5 -36.5v178l-43 16q-180 71 -180 205q0 86 62 140.5t161 60.5v76h55v-76q161 -22 211 -166l-121 -51q-23 70 -90 94v-170q11 -5 41 -14q92 -33 141.5 -91t49.5 -112q0 -94 -65 -148.5
t-167 -60.5v-80h-55zM227 1413q0 -48 72 -74v154q-31 -8 -51.5 -28.5t-20.5 -51.5zM432 1096q0 18 -12 32.5t-26.5 22.5t-39.5 18v-153q78 15 78 80z" />
    <glyph glyph-name="hypheninferior" unicode="&#xf6e5;" horiz-adv-x="589" 
d="M86 -8v129h418v-129h-418z" />
    <glyph glyph-name="hyphensuperior" unicode="&#xf6e6;" horiz-adv-x="589" 
d="M86 1178v129h418v-129h-418z" />
    <glyph glyph-name="periodinferior" unicode="&#xf6e7;" horiz-adv-x="368" 
d="M80 -217q0 38 30.5 65t73.5 27t74 -27t31 -65t-31 -65t-74 -27t-73.5 27t-30.5 65z" />
    <glyph glyph-name="periodsuperior" unicode="&#xf6e8;" horiz-adv-x="364" 
d="M78 969q0 38 30.5 65t73.5 27t74 -27t31 -65t-31 -65t-74 -27t-73.5 27t-30.5 65z" />
    <glyph glyph-name="apple" unicode="&#xf8ff;" horiz-adv-x="1437" 
d="M907 311h154q0 80 -24.5 143.5t-66 104t-90 65t-104.5 33.5q68 180 152 338l30 -399h154l-53 684h-150q-133 -245 -192 -416q-57 166 -193 416h-149l-53 -684h153l31 399q58 -108 151 -333q-59 -6 -111.5 -30t-97 -65t-70.5 -107.5t-26 -148.5h156q0 73 32 124t76 72
t93 21q77 0 137.5 -55t60.5 -162zM205 0v1413h1028v-1413h-1028zM297 168v-80h16v55l19 -55h14l21 57v-57h16v80h-25l-18 -55l-18 55h-25zM428 170q-18 0 -28.5 -12t-10.5 -31q0 -18 10.5 -29.5t28.5 -11.5t29.5 11.5t11.5 29.5q0 19 -11 31t-30 12zM428 100q-20 0 -20 27
q0 29 20 29q23 0 23 -29q0 -27 -23 -27zM485 115h-16q0 -29 35 -29q33 0 33 27q0 15 -23 22q-24 8 -25 12q0 9 13 9q14 0 14 -13h19q0 27 -33 27q-12 0 -21.5 -7t-9.5 -18q0 -19 27 -22q22 -6 22 -12q0 -11 -16 -11q-19 0 -19 15zM559 154v-66h19v66h24v14h-67v-14h24z
M618 168l-30 -80h18l6 18h29l6 -18h19l-29 80h-19zM637 119h-21l11 28zM668 168v-80h18v31h16q15 0 15 -15q0 -14 2 -16h18q-4 12 -4 18q0 17 -12 19v2q14 3 14 18q0 23 -24 23h-43zM686 131v23h19q12 0 12 -11q0 -12 -12 -12h-19zM743 168v-80h35q37 0 37 41q0 39 -37 39
h-35zM762 102v52h12q23 0 23 -27q0 -25 -21 -25h-14zM821 168v-80h62v14h-45v21h39v14h-39v17h43v14h-60zM901 115h-18q0 -29 35 -29q32 0 32 27q0 16 -22 22q-24 8 -25 12q0 9 12 9q14 0 17 -13h16q0 27 -33 27q-11 0 -20.5 -7t-9.5 -18q0 -19 26 -22q23 -7 23 -12
q0 -11 -16 -11q-17 0 -17 15zM956 168v-80h17v80h-17zM1040 96l2 -8h13v43h-35v-12h18q-3 -19 -18 -19q-23 0 -23 27q0 29 23 29q13 0 16 -15h17q-3 29 -33 29q-20 0 -30.5 -12t-10.5 -31q0 -18 10.5 -29.5t30.5 -11.5q10 0 20 10zM1063 168v-80h16v53l33 -53h18v80h-16v-53
l-35 53h-16z" />
    <glyph glyph-name="Euro.dnom" horiz-adv-x="743" 
d="M45 381v72h111q27 124 113.5 200t232.5 76q101 0 196 -55l-43 -113q-62 37 -149 37q-77 0 -125.5 -41.5t-61.5 -103.5h306l-27 -72h-289v-59h275l-31 -72h-231q21 -63 69.5 -99t116.5 -36q86 0 154 28v-127q-71 -32 -150 -32q-153 0 -241.5 71.5t-114.5 194.5h-111v72
h102v59h-102z" />
    <glyph glyph-name="Euro.numr" horiz-adv-x="741" 
d="M45 1098v71h111q27 124 113.5 200.5t232.5 76.5q101 0 196 -55l-43 -113q-62 37 -149 37q-77 0 -125.5 -42t-61.5 -104h306l-27 -71h-289v-60h275l-31 -71h-231q21 -63 69.5 -99.5t116.5 -36.5q83 0 154 29v-127q-73 -33 -150 -33q-153 0 -241.5 71.5t-114.5 195.5h-111
v71h102v60h-102z" />
    <glyph glyph-name="Euroinferior" horiz-adv-x="741" 
d="M45 90v72h111q27 124 113.5 200t232.5 76q101 0 196 -55l-43 -113q-62 37 -149 37q-77 0 -125.5 -41.5t-61.5 -103.5h306l-27 -72h-289v-59h275l-31 -72h-231q21 -63 69.5 -99t116.5 -36q83 0 154 29v-127q-73 -33 -150 -33q-153 0 -241.5 71.5t-114.5 194.5h-111v72h102
v59h-102z" />
    <glyph glyph-name="Eurosuperior" horiz-adv-x="745" 
d="M45 1276v72h111q27 124 113.5 200t232.5 76q101 0 196 -55l-43 -113q-62 37 -149 37q-77 0 -125.5 -41.5t-61.5 -103.5h306l-27 -72h-289v-59h275l-31 -72h-231q21 -63 69.5 -99t116.5 -36q86 0 154 28v-127q-71 -32 -150 -32q-153 0 -241.5 71.5t-114.5 194.5h-111v72
h102v59h-102z" />
    <glyph glyph-name="a.alt" horiz-adv-x="1183" 
d="M524 485q-59 0 -102 -15t-66.5 -40t-34 -52t-10.5 -56q0 -58 49 -103t144 -45q184 0 301 143v125q-71 21 -151 32t-130 11zM449 -23q-103 0 -190 37.5t-144.5 116.5t-57.5 186q0 144 116 235t312 91q179 0 312 -47v33q0 56 -23 99.5t-60.5 67.5t-79.5 36t-85 12
q-191 0 -326 -107l-94 168q154 154 438 154q88 0 160.5 -16t122 -42t87.5 -64t60 -77t35.5 -86t18 -86t4.5 -82v-606h-252v154q-46 -75 -140 -126t-214 -51z" />
    <glyph glyph-name="aacute.alt" horiz-adv-x="1185" 
d="M651 1507h273l-267 -329h-196zM526 485q-59 0 -102 -15t-66.5 -40t-34 -52t-10.5 -56q0 -58 49 -103t144 -45q184 0 301 143v125q-71 21 -151 32t-130 11zM451 -23q-103 0 -190 37.5t-144.5 116.5t-57.5 186q0 144 116 235t312 91q179 0 312 -47v33q0 56 -23 99.5
t-60.5 67.5t-79.5 36t-85 12q-191 0 -326 -107l-94 168q154 154 438 154q88 0 160.5 -16t122 -42t87.5 -64t60 -77t35.5 -86t18 -86t4.5 -82v-606h-252v154q-46 -75 -140 -126t-214 -51z" />
    <glyph glyph-name="abreve.alt" horiz-adv-x="1183" 
d="M592 1352q131 0 143 155l160 -16q-8 -90 -39 -154t-76 -96.5t-91 -46.5t-97 -14q-39 0 -76 8t-76.5 29.5t-70 55t-53 89.5t-29.5 129l162 16q12 -155 143 -155zM524 485q-59 0 -102 -15t-66.5 -40t-34 -52t-10.5 -56q0 -58 49 -103t144 -45q184 0 301 143v125
q-71 21 -151 32t-130 11zM449 -23q-103 0 -190 37.5t-144.5 116.5t-57.5 186q0 144 116 235t312 91q179 0 312 -47v33q0 56 -23 99.5t-60.5 67.5t-79.5 36t-85 12q-191 0 -326 -107l-94 168q154 154 438 154q88 0 160.5 -16t122 -42t87.5 -64t60 -77t35.5 -86t18 -86
t4.5 -82v-606h-252v154q-46 -75 -140 -126t-214 -51z" />
    <glyph glyph-name="acircumflex.alt" horiz-adv-x="1183" 
d="M444 1507h256l230 -329h-187l-170 188l-172 -188h-184zM524 485q-59 0 -102 -15t-66.5 -40t-34 -52t-10.5 -56q0 -58 49 -103t144 -45q184 0 301 143v125q-71 21 -151 32t-130 11zM449 -23q-103 0 -190 37.5t-144.5 116.5t-57.5 186q0 144 116 235t312 91q179 0 312 -47
v33q0 56 -23 99.5t-60.5 67.5t-79.5 36t-85 12q-191 0 -326 -107l-94 168q154 154 438 154q88 0 160.5 -16t122 -42t87.5 -64t60 -77t35.5 -86t18 -86t4.5 -82v-606h-252v154q-46 -75 -140 -126t-214 -51z" />
    <glyph glyph-name="acute.case" horiz-adv-x="931" 
d="M393 1851h266l-239 -301h-197z" />
    <glyph glyph-name="adieresis.alt" horiz-adv-x="1183" 
d="M195 1343q0 63 42.5 105.5t108.5 42.5t110 -42.5t44 -105.5q0 -62 -44 -103.5t-110 -41.5t-108.5 41.5t-42.5 103.5zM668 1343q0 63 42.5 105.5t108.5 42.5t110 -42.5t44 -105.5q0 -62 -44 -103.5t-110 -41.5t-108.5 41.5t-42.5 103.5zM524 485q-59 0 -102 -15t-66.5 -40
t-34 -52t-10.5 -56q0 -58 49 -103t144 -45q184 0 301 143v125q-71 21 -151 32t-130 11zM449 -23q-103 0 -190 37.5t-144.5 116.5t-57.5 186q0 144 116 235t312 91q179 0 312 -47v33q0 56 -23 99.5t-60.5 67.5t-79.5 36t-85 12q-191 0 -326 -107l-94 168q154 154 438 154
q88 0 160.5 -16t122 -42t87.5 -64t60 -77t35.5 -86t18 -86t4.5 -82v-606h-252v154q-46 -75 -140 -126t-214 -51z" />
    <glyph glyph-name="agrave.alt" horiz-adv-x="1183" 
d="M240 1507h272l190 -329h-198zM524 485q-59 0 -102 -15t-66.5 -40t-34 -52t-10.5 -56q0 -58 49 -103t144 -45q184 0 301 143v125q-71 21 -151 32t-130 11zM449 -23q-103 0 -190 37.5t-144.5 116.5t-57.5 186q0 144 116 235t312 91q179 0 312 -47v33q0 56 -23 99.5
t-60.5 67.5t-79.5 36t-85 12q-191 0 -326 -107l-94 168q154 154 438 154q88 0 160.5 -16t122 -42t87.5 -64t60 -77t35.5 -86t18 -86t4.5 -82v-606h-252v154q-46 -75 -140 -126t-214 -51z" />
    <glyph glyph-name="amacron.alt" horiz-adv-x="1183" 
d="M287 1419h608v-184h-608v184zM524 485q-59 0 -102 -15t-66.5 -40t-34 -52t-10.5 -56q0 -58 49 -103t144 -45q184 0 301 143v125q-71 21 -151 32t-130 11zM449 -23q-103 0 -190 37.5t-144.5 116.5t-57.5 186q0 144 116 235t312 91q179 0 312 -47v33q0 56 -23 99.5
t-60.5 67.5t-79.5 36t-85 12q-191 0 -326 -107l-94 168q154 154 438 154q88 0 160.5 -16t122 -42t87.5 -64t60 -77t35.5 -86t18 -86t4.5 -82v-606h-252v154q-46 -75 -140 -126t-214 -51z" />
    <glyph glyph-name="aogonek.alt" horiz-adv-x="1183" 
d="M449 -23q-103 0 -190 37.5t-144.5 116.5t-57.5 186q0 144 116 235t312 91q179 0 312 -47v33q0 56 -23 99.5t-60.5 67.5t-79.5 36t-85 12q-191 0 -326 -107l-94 168q154 154 438 154q88 0 160.5 -16t122 -42t87.5 -64t60 -77t35.5 -86t18 -86t4.5 -82v-606
q-56 -5 -98.5 -20.5t-65.5 -35t-37.5 -44t-18.5 -42.5t-4 -36q0 -53 31 -83t78 -30q95 0 150 115l120 -62q-32 -97 -109 -160t-183 -63q-45 0 -89 12t-86 38t-68 74t-26 112q0 54 34 120.5t120 116.5v142q-46 -75 -140 -126t-214 -51zM524 485q-59 0 -102 -15t-66.5 -40
t-34 -52t-10.5 -56q0 -58 49 -103t144 -45q184 0 301 143v125q-71 21 -151 32t-130 11z" />
    <glyph glyph-name="aring.alt" horiz-adv-x="1183" 
d="M338 1393q0 97 67.5 162t165.5 65q99 0 167.5 -65t68.5 -162q0 -96 -68.5 -161t-167.5 -65q-97 0 -165 65t-68 161zM461 1393q0 -47 31.5 -79t78.5 -32t80 32t33 79t-32.5 77.5t-80.5 30.5q-47 0 -78.5 -30.5t-31.5 -77.5zM524 485q-59 0 -102 -15t-66.5 -40t-34 -52
t-10.5 -56q0 -58 49 -103t144 -45q184 0 301 143v125q-71 21 -151 32t-130 11zM449 -23q-103 0 -190 37.5t-144.5 116.5t-57.5 186q0 144 116 235t312 91q179 0 312 -47v33q0 56 -23 99.5t-60.5 67.5t-79.5 36t-85 12q-191 0 -326 -107l-94 168q154 154 438 154
q88 0 160.5 -16t122 -42t87.5 -64t60 -77t35.5 -86t18 -86t4.5 -82v-606h-252v154q-46 -75 -140 -126t-214 -51z" />
    <glyph glyph-name="aringacute.alt" horiz-adv-x="1183" 
d="M600 1774h236l-156 -201q64 -24 100.5 -72.5t36.5 -118.5q0 -95 -66.5 -150.5t-168.5 -55.5t-168 55t-66 151q0 73 40 124.5t108 72.5zM469 1382q0 -45 31.5 -68.5t81.5 -23.5t80 23.5t30 68.5t-30 68t-80 23t-81.5 -23t-31.5 -68zM524 485q-59 0 -102 -15t-66.5 -40
t-34 -52t-10.5 -56q0 -58 49 -103t144 -45q184 0 301 143v125q-71 21 -151 32t-130 11zM449 -23q-103 0 -190 37.5t-144.5 116.5t-57.5 186q0 144 116 235t312 91q179 0 312 -47v33q0 56 -23 99.5t-60.5 67.5t-79.5 36t-85 12q-191 0 -326 -107l-94 168q154 154 438 154
q88 0 160.5 -16t122 -42t87.5 -64t60 -77t35.5 -86t18 -86t4.5 -82v-606h-252v154q-46 -75 -140 -126t-214 -51z" />
    <glyph glyph-name="at.case" horiz-adv-x="2099" 
d="M1567 319q121 5 190.5 119.5t69.5 349.5q0 211 -96.5 379t-273 263.5t-402.5 95.5q-169 0 -316.5 -62.5t-252 -170.5t-164.5 -258.5t-60 -321.5q0 -228 94 -412t268 -290.5t396 -106.5q242 0 410 82l75 -148q-103 -49 -231.5 -75.5t-253.5 -26.5q-274 0 -487.5 127.5
t-329 349.5t-115.5 500q0 207 73.5 389.5t201 312t307 204.5t385.5 75q209 0 385.5 -67t299.5 -186t192 -287.5t69 -365.5q0 -165 -31.5 -286.5t-90.5 -194t-136.5 -107t-175.5 -34.5q-143 0 -206.5 65.5t-68.5 182.5q-48 -82 -139.5 -124t-191.5 -42q-189 0 -312 135
t-123 330q0 128 54.5 233t156.5 167.5t232 62.5q198 0 309 -154v133h186v-717q0 -60 29 -89.5t74 -29.5zM713 713q0 -128 77.5 -213.5t204.5 -85.5q124 0 202.5 80.5t78.5 214.5q0 132 -78.5 216.5t-206.5 84.5q-129 0 -203.5 -85t-74.5 -212z" />
    <glyph glyph-name="atilde.alt" horiz-adv-x="1183" 
d="M930 1460q0 -111 -52.5 -178.5t-152.5 -67.5q-44 0 -94.5 21.5t-94.5 43t-73 21.5q-85 0 -94 -96q-103 20 -123 23q10 248 203 248q55 0 140.5 -42t123.5 -42q85 0 94 92q21 -3 123 -23zM524 485q-59 0 -102 -15t-66.5 -40t-34 -52t-10.5 -56q0 -58 49 -103t144 -45
q184 0 301 143v125q-71 21 -151 32t-130 11zM449 -23q-103 0 -190 37.5t-144.5 116.5t-57.5 186q0 144 116 235t312 91q179 0 312 -47v33q0 56 -23 99.5t-60.5 67.5t-79.5 36t-85 12q-191 0 -326 -107l-94 168q154 154 438 154q88 0 160.5 -16t122 -42t87.5 -64t60 -77
t35.5 -86t18 -86t4.5 -82v-606h-252v154q-46 -75 -140 -126t-214 -51z" />
    <glyph glyph-name="bitcoin" horiz-adv-x="1269" 
d="M721 1575v-189q185 -17 297 -113.5t112 -240.5q0 -98 -60 -178t-173 -117q134 -19 216.5 -114t82.5 -209q0 -163 -130.5 -267t-342.5 -104v-188h-121v188h-123v-188h-121v188h-217v1348h217v184h121v-184h121v184h121zM625 629h-222v-383h312q94 0 154.5 47.5t60.5 124.5
q0 211 -305 211zM403 813h205q254 7 254 205q0 81 -59.5 125.5t-149.5 44.5h-250v-375z" />
    <glyph glyph-name="braceleft.case" horiz-adv-x="745" 
d="M362 713v-13q70 -16 105 -66.5t35 -113.5q0 -60 -30 -146t-60.5 -176t-30.5 -159q0 -145 131 -145h12q110 9 142 12v-166q-147 -14 -185 -14q-67 0 -126 17t-107 51.5t-75.5 92t-27.5 131.5q0 116 78 334q60 164 60 215q0 17 -14.5 30t-40.5 21t-49 12.5t-52.5 8.5
t-38.5 6v137q11 2 37 6.5t39.5 7t35.5 7.5t34 10t25 12t18.5 15.5t5.5 19.5q0 27 -9 51q-14 63 -48.5 161t-57.5 181.5t-23 155.5q0 75 27.5 132.5t75.5 92t107 51.5t126 17q38 0 185 -14v-166q-86 12 -154 12q-131 0 -131 -145q0 -69 30.5 -159.5t60.5 -177t30 -145.5
q0 -63 -35 -114.5t-105 -67.5v-12z" />
    <glyph glyph-name="braceright.case" horiz-adv-x="745" 
d="M383 700v13v12q-70 16 -104.5 67.5t-34.5 114.5q0 59 30 145.5t60.5 177t30.5 159.5q0 145 -132 145q-67 0 -153 -12v166q147 14 184 14q67 0 126 -17t107 -51.5t75.5 -92t27.5 -132.5q0 -72 -23 -155.5t-57.5 -181.5t-48.5 -161q-8 -21 -8 -51q0 -11 5.5 -19.5
t18.5 -15.5t24.5 -12t33.5 -10t35.5 -7.5t39.5 -7t37 -6.5v-137q-9 -2 -38 -6t-52 -8.5t-49 -12.5t-40.5 -21t-14.5 -30q0 -53 59 -215q78 -218 78 -334q0 -74 -27.5 -131.5t-75.5 -92t-107 -51.5t-126 -17q-37 0 -184 14v166q36 -4 141 -12h12q132 0 132 145
q0 69 -30.5 159t-60.5 176t-30 146q0 63 34.5 113.5t104.5 66.5z" />
    <glyph glyph-name="bracketleft.case" horiz-adv-x="772" 
d="M150 -268v1968h550v-199h-313v-1571h313v-198h-550z" />
    <glyph glyph-name="bracketright.case" horiz-adv-x="772" 
d="M623 1702v-1970h-551v198h311v1573h-311v199h551z" />
    <glyph glyph-name="breve.case" horiz-adv-x="944" 
d="M471 1716q58 0 96.5 35t48.5 111q38 0 154 -15q-7 -65 -30 -116.5t-54.5 -82.5t-70.5 -52t-74.5 -29t-69.5 -8q-45 0 -89.5 14t-89 45t-76.5 90t-42 139q116 15 154 15q10 -75 49 -110.5t94 -35.5z" />
    <glyph glyph-name="bullet.case" horiz-adv-x="821" 
d="M150 717q0 108 74.5 184t185.5 76t186.5 -76t75.5 -184q0 -110 -75 -186t-187 -76t-186 74.5t-74 187.5z" />
    <glyph glyph-name="caron.case" horiz-adv-x="1032" 
d="M643 1550h-256l-213 301h182l160 -170l160 170h182z" />
    <glyph glyph-name="cedilla.case" horiz-adv-x="909" 
d="M428 18v29h121q97 -55 141.5 -129t44.5 -141q0 -63 -26 -111.5t-67.5 -75t-86 -39t-88.5 -12.5q-106 0 -183.5 63t-109.5 162q20 12 61 30t60 30q55 -115 149 -115q48 0 78.5 31t30.5 82q0 46 -28 101.5t-97 94.5z" />
    <glyph glyph-name="cent.case" horiz-adv-x="1150" 
d="M90 705q0 151 65.5 272.5t194.5 196t301 77.5l33 183h137l-35 -195q143 -24 283 -127l-117 -180q-90 71 -204 88l-115 -621q16 -6 59 -6q28 0 62 4.5t93 27.5t105 62l117 -178q-182 -139 -397 -139q-40 0 -80 6l-35 -199h-137l41 224q-177 53 -274 187.5t-97 316.5z
M342 711q0 -91 43 -162t119 -113l104 584q-122 -20 -194 -103.5t-72 -205.5z" />
    <glyph glyph-name="cent.dnom" horiz-adv-x="618" 
d="M362 715h68l-18 -111q79 -16 153 -69l-63 -103q-10 9 -21.5 17t-20.5 12.5t-20.5 8.5t-17.5 5.5t-16.5 4t-12.5 3.5l-45 -293q84 0 148 56l73 -105q-108 -78 -223 -78q-12 0 -18 3l-15 -89h-71l14 99q-95 26 -150 96t-55 166q0 106 68.5 177.5t185.5 88.5l41 6zM209 338
q0 -82 72 -127l41 270q-49 -12 -81 -51t-32 -92z" />
    <glyph glyph-name="cent.numr" horiz-adv-x="616" 
d="M362 1454h68l-18 -111q79 -16 153 -69l-63 -103q-9 8 -18 14.5t-18.5 11.5t-17 8.5t-17 6.5t-14 4.5t-13.5 4t-11 2.5l-45 -293q85 0 148 55l73 -104q-108 -78 -223 -78q-14 0 -18 2l-15 -88h-71l14 98q-95 26 -150 96t-55 166q0 106 68.5 177.5t185.5 88.5l41 7z
M209 1077q0 -82 72 -127l41 271q-49 -12 -81 -51.5t-32 -92.5z" />
    <glyph glyph-name="circumflex.case" horiz-adv-x="1032" 
d="M387 1851h256l215 -301h-182l-160 170l-160 -170h-182z" />
    <glyph glyph-name="comma.dnom" horiz-adv-x="370" 
d="M111 -174l-35 59q45 16 73 47t33 64q-39 -4 -65.5 20.5t-26.5 57.5q-2 38 22.5 64t69.5 26q54 0 77.5 -36t23.5 -75q0 -78 -45 -140t-127 -87z" />
    <glyph glyph-name="comma.numr" horiz-adv-x="366" 
d="M109 543l-35 59q45 16 73 47t33 64q-39 -4 -65.5 20.5t-26.5 57.5q-2 38 22.5 64t69.5 26q54 0 77.5 -36t23.5 -75q0 -78 -45 -140t-127 -87z" />
    <glyph glyph-name="commaaccent.case" horiz-adv-x="657" 
d="M244 -621l-49 89q153 56 153 163q-69 -22 -115.5 16.5t-48.5 102.5q0 62 39.5 101.5t106.5 39.5q43 0 77 -17.5t51.5 -44.5t26.5 -54t9 -51q0 -264 -250 -345z" />
    <glyph glyph-name="dieresis.case" horiz-adv-x="1062" 
d="M143 1692q0 63 43 102t109 39t108.5 -39t42.5 -102q0 -61 -42.5 -99.5t-108.5 -38.5t-109 38.5t-43 99.5zM616 1692q0 63 42 102t108 39q67 0 110.5 -39.5t43.5 -101.5q0 -61 -43.5 -99.5t-110.5 -38.5q-66 0 -108 38.5t-42 99.5z" />
    <glyph glyph-name="dollar.dnom" horiz-adv-x="636" 
d="M299 -82v78q-100 4 -169.5 58.5t-86.5 140.5l131 32q10 -43 45.5 -73.5t79.5 -36.5v178l-43 16q-180 71 -180 205q0 86 62 140.5t161 60.5v76h55v-76q161 -22 211 -166l-121 -51q-23 70 -90 94v-170q11 -5 41 -14q92 -33 141.5 -91t49.5 -112q0 -94 -65 -148.5
t-167 -60.5v-80h-55zM227 518q0 -48 72 -74v154q-31 -8 -51.5 -28.5t-20.5 -51.5zM432 201q0 18 -12 32.5t-26.5 22.5t-39.5 18v-153q78 15 78 80z" />
    <glyph glyph-name="dollar.numr" horiz-adv-x="636" 
d="M299 635v78q-100 5 -169.5 58.5t-86.5 139.5l131 33q10 -43 45.5 -73.5t79.5 -36.5v178l-43 16q-180 71 -180 205q0 86 62 140.5t161 60.5v75h55v-75q161 -22 211 -166l-121 -51q-23 70 -90 94v-170q15 -8 41 -15q92 -33 141.5 -90.5t49.5 -111.5q0 -94 -65 -148.5
t-167 -60.5v-80h-55zM227 1235q0 -48 72 -74v154q-31 -8 -51.5 -28.5t-20.5 -51.5zM432 918q0 18 -12 32.5t-26.5 22.5t-39.5 18v-153q78 15 78 80z" />
    <glyph glyph-name="dotaccent.case" horiz-adv-x="659" 
d="M174 1698q0 63 44 103t112 40q67 0 111 -40t44 -103q0 -62 -44 -102t-111 -40q-68 0 -112 39.5t-44 102.5z" />
    <glyph glyph-name="eight.dnom" horiz-adv-x="714" 
d="M360 422q53 0 83 28t30 66q0 41 -31.5 64.5t-83.5 23.5q-54 0 -85 -23.5t-31 -64.5q0 -38 31 -66t87 -28zM356 322q-68 0 -106.5 -31.5t-38.5 -75.5q0 -45 41 -77t106 -32q62 0 104 32t42 77q0 44 -40 76t-108 31zM358 -16q-132 0 -217.5 64t-85.5 167q0 52 40 99.5
t104 64.5q-52 18 -81.5 57t-29.5 80q0 92 75.5 150.5t194.5 58.5q118 0 194.5 -58.5t76.5 -150.5q0 -40 -30.5 -79.5t-82.5 -57.5q64 -17 103.5 -64.5t39.5 -99.5q0 -103 -85 -167t-216 -64z" />
    <glyph glyph-name="eight.numr" horiz-adv-x="714" 
d="M360 1139q53 0 83 28t30 66q0 41 -31.5 64.5t-83.5 23.5q-54 0 -85 -23.5t-31 -64.5q0 -38 31 -66t87 -28zM356 1038q-68 0 -106.5 -31t-38.5 -75q0 -45 41 -77t106 -32q62 0 104 32t42 77q0 44 -40 75.5t-108 30.5zM358 700q-132 0 -217.5 64.5t-85.5 167.5
q0 52 40 99.5t104 64.5q-52 18 -81.5 57t-29.5 80q0 92 75.5 150.5t194.5 58.5q118 0 194.5 -58.5t76.5 -150.5q0 -40 -30.5 -79.5t-82.5 -57.5q64 -17 103.5 -64.5t39.5 -99.5q0 -103 -85.5 -167.5t-215.5 -64.5z" />
    <glyph glyph-name="eight.oldstyle" horiz-adv-x="1343" 
d="M672 190q142 0 232.5 56t90.5 141q0 82 -84 138.5t-231 56.5h-16q-147 0 -230.5 -56.5t-83.5 -138.5q0 -85 91 -141t231 -56zM672 -23q-249 0 -412.5 114.5t-163.5 285.5q0 99 67 187.5t189 127.5q-95 37 -146.5 106t-51.5 146q0 155 147 261t371 106t372 -106t148 -261
q0 -77 -52 -146t-147 -106q120 -40 187 -128t67 -187q0 -171 -162.5 -285.5t-412.5 -114.5zM672 1098q-120 0 -193 -46t-73 -116q0 -72 67.5 -127t190.5 -55h16q122 0 190 55.5t68 126.5q0 70 -72.5 116t-193.5 46z" />
    <glyph glyph-name="eight.taboldstyle" horiz-adv-x="1392" 
d="M696 190q142 0 233 56t91 141q0 82 -84 138.5t-231 56.5h-17q-147 0 -230 -56.5t-83 -138.5q0 -85 90.5 -141t230.5 -56zM696 -23q-249 0 -412 114.5t-163 285.5q0 99 67 187.5t189 127.5q-95 37 -147 106t-52 146q0 155 147 261t371 106t372.5 -106t148.5 -261
q0 -77 -52 -146t-147 -106q120 -40 187 -128t67 -187q0 -171 -163 -285.5t-413 -114.5zM696 1098q-120 0 -193 -46t-73 -116q0 -72 67.5 -127t190.5 -55h17q122 0 190 55.5t68 126.5q0 70 -73 116t-194 46z" />
    <glyph glyph-name="eight.tnum" horiz-adv-x="1392" 
d="M692 842h8q125 0 194 64t69 147q0 80 -73.5 134t-193.5 54t-192 -54t-72 -134q0 -84 67 -147.5t193 -63.5zM705 662h-9q-157 0 -240 -67.5t-83 -166.5t90 -166t233 -67q145 0 235.5 67t90.5 166q0 98 -83 166t-234 68zM696 -23q-255 0 -418 125.5t-163 325.5
q0 105 75.5 202t192.5 138q-92 36 -150.5 117t-58.5 168q0 178 146.5 290.5t375.5 112.5t376 -112.5t147 -290.5q0 -87 -58 -168t-149 -117q117 -41 191.5 -137.5t74.5 -202.5q0 -200 -163 -325.5t-419 -125.5z" />
    <glyph glyph-name="emdash.case" horiz-adv-x="1648" 
d="M139 610v213h1372v-213h-1372z" />
    <glyph glyph-name="endash.case" horiz-adv-x="1196" 
d="M139 610v213h920v-213h-920z" />
    <glyph glyph-name="exclamdown.case" horiz-adv-x="583" 
d="M442 31v-31h-303v31l64 940h176zM121 1294q0 69 49.5 115.5t122.5 46.5q72 0 122 -46.5t50 -115.5q0 -71 -49.5 -118.5t-122.5 -47.5q-74 0 -123 47t-49 119z" />
    <glyph glyph-name="five.dnom" horiz-adv-x="663" 
d="M307 115q73 0 109.5 36.5t36.5 92.5q0 48 -36 85.5t-100 37.5q-81 0 -141 -43q-16 6 -98 47l18 344h457v-125h-324l-8 -144q50 33 139 33q108 0 180 -69t72 -166q0 -118 -78.5 -188t-222.5 -70q-160 0 -260 90l80 100q79 -61 176 -61z" />
    <glyph glyph-name="five.numr" horiz-adv-x="659" 
d="M305 834q73 0 109.5 36.5t36.5 92.5q0 48 -36 85t-100 37q-81 0 -141 -43q-8 3 -98 48l18 344h457v-125h-324l-8 -144q50 33 139 33q108 0 180 -69t72 -166q0 -118 -78.5 -188t-222.5 -70q-160 0 -260 90l80 100q79 -61 176 -61z" />
    <glyph glyph-name="five.oldstyle" horiz-adv-x="1210" 
d="M571 -63q148 0 233 69.5t85 175.5q0 96 -71 164t-208 68q-79 0 -161.5 -27.5t-147.5 -83.5q-31 18 -90.5 48.5t-85.5 45.5l43 639h866v-205h-653l-19 -307q54 41 132.5 64.5t160.5 23.5q214 0 350 -122.5t136 -307.5q0 -199 -146 -328.5t-411 -129.5q-307 0 -506 176
q31 39 133 159q110 -69 193.5 -95.5t166.5 -26.5z" />
    <glyph glyph-name="five.taboldstyle" horiz-adv-x="1392" 
d="M664 -63q148 0 232.5 69.5t84.5 175.5q0 96 -71 164t-208 68q-79 0 -161.5 -27.5t-147.5 -83.5q-31 18 -90.5 48.5t-85.5 45.5l43 639h866v-205h-653l-18 -307q54 41 132.5 64.5t160.5 23.5q214 0 349.5 -122.5t135.5 -307.5q0 -199 -146 -328.5t-411 -129.5
q-307 0 -506 176q31 39 133 159q110 -68 194 -95t167 -27z" />
    <glyph glyph-name="five.tnum" horiz-adv-x="1392" 
d="M662 197q160 0 245.5 82t85.5 206q0 47 -19 91.5t-55 82.5t-95 61t-132 23q-85 0 -170 -26.5t-143 -77.5l-174 72l45 723h893v-211h-668l-26 -363h6q58 45 137.5 69.5t155.5 24.5q106 0 199 -38t158 -102t102.5 -149.5t37.5 -179.5q0 -230 -153.5 -369t-425.5 -139
q-158 0 -290 44.5t-220 123.5l133 164q81 -57 183 -84.5t190 -27.5z" />
    <glyph glyph-name="florin.dnom" horiz-adv-x="540" 
d="M348 322v-353q0 -58 -17 -99.5t-46 -63t-60.5 -30.5t-68.5 -9q-26 0 -59.5 8t-53.5 20l47 103q21 -13 45 -13q27 0 40 19t13 47v371h-77v86h77v118q0 59 17 100.5t46.5 63t61 30.5t68.5 9q25 0 58 -8.5t53 -20.5l-48 -104q-22 12 -49 12q-47 0 -47 -65v-135h123v-86h-123
z" />
    <glyph glyph-name="florin.numr" horiz-adv-x="538" 
d="M346 1038v-352q0 -58 -17 -99.5t-46 -63t-60.5 -31t-68.5 -9.5q-25 0 -59 8.5t-54 20.5l47 102q19 -12 45 -12q27 0 40 19t13 47v370h-77v86h77v119q0 59 17 100.5t46.5 63t61 30.5t68.5 9q61 0 110 -29l-47 -104q-22 12 -49 12q-47 0 -47 -65v-136h123v-86h-123z" />
    <glyph glyph-name="florininferior" horiz-adv-x="538" 
d="M346 31v-353q0 -58 -17 -99.5t-46 -63t-60.5 -30.5t-68.5 -9q-26 0 -59.5 8t-53.5 20l47 103q21 -13 45 -13q27 0 40 19t13 47v371h-77v86h77v119q0 59 17 100.5t46.5 62.5t61 30t68.5 9q63 0 110 -28l-47 -105q-22 12 -49 12q-47 0 -47 -65v-135h123v-86h-123z" />
    <glyph glyph-name="florinsuperior" horiz-adv-x="538" 
d="M346 1217v-353q0 -58 -17 -99.5t-46 -63t-60.5 -30.5t-68.5 -9q-26 0 -59.5 8t-53.5 20l47 103q21 -13 45 -13q27 0 40 19t13 47v371h-77v86h77v118q0 59 17 100.5t46.5 63t61 30.5t68.5 9q61 0 110 -29l-47 -104q-22 12 -49 12q-47 0 -47 -65v-135h123v-86h-123z" />
    <glyph glyph-name="four.dnom" horiz-adv-x="720" 
d="M199 305h184v211zM377 184h-348v86l374 447h136v-412h145v-121h-145v-184h-162v184z" />
    <glyph glyph-name="four.numr" horiz-adv-x="720" 
d="M199 1022h184v211zM377 901h-348v86l374 447h136v-412h145v-121h-145v-184h-162v184z" />
    <glyph glyph-name="four.oldstyle" horiz-adv-x="1329" 
d="M340 270h403v430zM743 66h-694v157l739 813h205v-766h271v-204h-271v-320h-250v320z" />
    <glyph glyph-name="four.taboldstyle" horiz-adv-x="1392" 
d="M371 270h403v430zM774 66h-694v157l739 813h205v-766h270v-204h-270v-320h-250v320z" />
    <glyph glyph-name="four.tnum" horiz-adv-x="1392" 
d="M356 584h416v458zM772 371h-715v159l803 904h166v-850h299v-213h-299v-371h-254v371z" />
    <glyph glyph-name="g.alt" horiz-adv-x="1232" 
d="M840 655q0 97 -66 151t-168 54t-174 -55t-72 -148q0 -94 70 -149t178 -55q102 0 167 53.5t65 148.5zM600 -311q145 0 241.5 38t96.5 105q0 33 -32 56t-95 24l-287 4q-140 0 -192 35q-38 -17 -57 -48t-19 -61q0 -44 34.5 -75.5t90 -47.5t110 -23t109.5 -7zM958 1106h222
q22 -34 22 -82q0 -68 -43 -116t-129 -58q57 -80 57 -199q0 -97 -42 -174.5t-112.5 -125t-155.5 -72.5t-177 -25q-128 0 -231 41q-52 -39 -52 -76q0 -43 49.5 -63.5t116.5 -20.5q61 0 182 -2t183 -2q78 0 140 -20t99 -50t62 -69t34 -74t9 -68q0 -64 -32 -122.5t-98.5 -109
t-185 -80.5t-274.5 -30q-586 0 -586 304q0 78 51.5 144.5t100.5 88.5q-62 54 -62 148q0 108 119 192q-112 104 -112 270q0 87 30 158t79 115.5t113.5 75t129 43t131.5 12.5q189 0 317 -80q56 30 56 84q0 10 -11 43z" />
    <glyph glyph-name="gbreve.alt" horiz-adv-x="1232" 
d="M612 1352q132 0 144 155l162 -16q-8 -90 -39.5 -154t-77.5 -96.5t-92.5 -46.5t-96.5 -14q-51 0 -97 14t-91 46.5t-76 96.5t-39 154l160 16q12 -155 143 -155zM840 655q0 97 -66 151t-168 54t-174 -55t-72 -148q0 -94 70 -149t178 -55q102 0 167 53.5t65 148.5zM600 -311
q145 0 241.5 38t96.5 105q0 33 -32 56t-95 24l-287 4q-140 0 -192 35q-38 -17 -57 -48t-19 -61q0 -44 34.5 -75.5t90 -47.5t110 -23t109.5 -7zM958 1106h222q22 -34 22 -82q0 -68 -43 -116t-129 -58q57 -80 57 -199q0 -97 -42 -174.5t-112.5 -125t-155.5 -72.5t-177 -25
q-128 0 -231 41q-52 -39 -52 -76q0 -43 49.5 -63.5t116.5 -20.5q61 0 182 -2t183 -2q78 0 140 -20t99 -50t62 -69t34 -74t9 -68q0 -64 -32 -122.5t-98.5 -109t-185 -80.5t-274.5 -30q-586 0 -586 304q0 78 51.5 144.5t100.5 88.5q-62 54 -62 148q0 108 119 192
q-112 104 -112 270q0 87 30 158t79 115.5t113.5 75t129 43t131.5 12.5q189 0 317 -80q56 30 56 84q0 10 -11 43z" />
    <glyph glyph-name="gcircumflex.alt" horiz-adv-x="1232" 
d="M485 1507h256l230 -329h-187l-170 188l-172 -188h-184zM840 655q0 97 -66 151t-168 54t-174 -55t-72 -148q0 -94 70 -149t178 -55q102 0 167 53.5t65 148.5zM600 -311q145 0 241.5 38t96.5 105q0 33 -32 56t-95 24l-287 4q-140 0 -192 35q-38 -17 -57 -48t-19 -61
q0 -44 34.5 -75.5t90 -47.5t110 -23t109.5 -7zM958 1106h222q22 -34 22 -82q0 -68 -43 -116t-129 -58q57 -80 57 -199q0 -97 -42 -174.5t-112.5 -125t-155.5 -72.5t-177 -25q-128 0 -231 41q-52 -39 -52 -76q0 -43 49.5 -63.5t116.5 -20.5q61 0 182 -2t183 -2q78 0 140 -20
t99 -50t62 -69t34 -74t9 -68q0 -64 -32 -122.5t-98.5 -109t-185 -80.5t-274.5 -30q-586 0 -586 304q0 78 51.5 144.5t100.5 88.5q-62 54 -62 148q0 108 119 192q-112 104 -112 270q0 87 30 158t79 115.5t113.5 75t129 43t131.5 12.5q189 0 317 -80q56 30 56 84q0 10 -11 43z
" />
    <glyph glyph-name="gcommaaccent.alt" horiz-adv-x="1232" 
d="M711 1690l49 -88q-154 -56 -154 -164q21 6 43 6q53 0 87 -36.5t34 -88.5q0 -62 -39 -101.5t-106 -39.5q-57 0 -96.5 31t-53.5 67t-14 70q0 263 250 344zM840 655q0 97 -66 151t-168 54t-174 -55t-72 -148q0 -94 70 -149t178 -55q102 0 167 53.5t65 148.5zM600 -311
q145 0 241.5 38t96.5 105q0 33 -32 56t-95 24l-287 4q-140 0 -192 35q-38 -17 -57 -48t-19 -61q0 -44 34.5 -75.5t90 -47.5t110 -23t109.5 -7zM958 1106h222q22 -34 22 -82q0 -68 -43 -116t-129 -58q57 -80 57 -199q0 -97 -42 -174.5t-112.5 -125t-155.5 -72.5t-177 -25
q-128 0 -231 41q-52 -39 -52 -76q0 -43 49.5 -63.5t116.5 -20.5q61 0 182 -2t183 -2q78 0 140 -20t99 -50t62 -69t34 -74t9 -68q0 -64 -32 -122.5t-98.5 -109t-185 -80.5t-274.5 -30q-586 0 -586 304q0 78 51.5 144.5t100.5 88.5q-62 54 -62 148q0 108 119 192
q-112 104 -112 270q0 87 30 158t79 115.5t113.5 75t129 43t131.5 12.5q189 0 317 -80q56 30 56 84q0 10 -11 43z" />
    <glyph glyph-name="gdotaccent.alt" horiz-adv-x="1232" 
d="M455 1337q0 66 45 110t112 44q66 0 112 -44t46 -110q0 -63 -46 -106t-112 -43q-67 0 -112 43t-45 106zM840 655q0 97 -66 151t-168 54t-174 -55t-72 -148q0 -94 70 -149t178 -55q102 0 167 53.5t65 148.5zM600 -311q145 0 241.5 38t96.5 105q0 33 -32 56t-95 24l-287 4
q-140 0 -192 35q-38 -17 -57 -48t-19 -61q0 -44 34.5 -75.5t90 -47.5t110 -23t109.5 -7zM958 1106h222q22 -34 22 -82q0 -68 -43 -116t-129 -58q57 -80 57 -199q0 -97 -42 -174.5t-112.5 -125t-155.5 -72.5t-177 -25q-128 0 -231 41q-52 -39 -52 -76q0 -43 49.5 -63.5
t116.5 -20.5q61 0 182 -2t183 -2q78 0 140 -20t99 -50t62 -69t34 -74t9 -68q0 -64 -32 -122.5t-98.5 -109t-185 -80.5t-274.5 -30q-586 0 -586 304q0 78 51.5 144.5t100.5 88.5q-62 54 -62 148q0 108 119 192q-112 104 -112 270q0 87 30 158t79 115.5t113.5 75t129 43
t131.5 12.5q189 0 317 -80q56 30 56 84q0 10 -11 43z" />
    <glyph glyph-name="grave.case" horiz-adv-x="931" 
d="M223 1851h266l170 -301h-196z" />
    <glyph glyph-name="guillemotleft.case" horiz-adv-x="1253" 
d="M594 690v45l395 453l146 -125l-304 -350l304 -346l-146 -127zM96 690v45l393 453l148 -125l-303 -350l301 -346l-146 -127z" />
    <glyph glyph-name="guillemotright.case" horiz-adv-x="1253" 
d="M659 737v-45l-395 -450l-145 127l303 346l-303 350l145 125zM1157 737v-45l-393 -450l-146 127l302 346l-304 350l148 125z" />
    <glyph glyph-name="guilsinglleft.case" horiz-adv-x="755" 
d="M96 692v45l393 453l148 -125l-303 -350l301 -346l-146 -127z" />
    <glyph glyph-name="guilsinglright.case" horiz-adv-x="753" 
d="M657 737v-45l-393 -450l-145 127l301 346l-303 350l147 125z" />
    <glyph glyph-name="hungarumlaut.case" horiz-adv-x="1064" 
d="M342 1862h205l-193 -301h-180zM684 1862h207l-205 -301h-184z" />
    <glyph glyph-name="hyphen.case" horiz-adv-x="993" 
d="M137 608v215h719v-215h-719z" />
    <glyph glyph-name="hyphen.dnom" horiz-adv-x="589" 
d="M86 283v129h418v-129h-418z" />
    <glyph glyph-name="hyphen.numr" horiz-adv-x="589" 
d="M86 999v129h418v-129h-418z" />
    <glyph glyph-name="macron.case" horiz-adv-x="956" 
d="M174 1776h608v-185h-608v185z" />
    <glyph glyph-name="nine.dnom" horiz-adv-x="702" 
d="M313 109q72 0 123.5 57t55.5 153h-5q-28 -41 -79 -61t-101 -20q-102 0 -178 65.5t-76 175.5q0 106 80.5 177t202.5 71q145 0 226 -97.5t81 -260.5q0 -166 -85.5 -275.5t-240.5 -109.5q-74 0 -135.5 24t-97.5 70l94 86q48 -55 135 -55zM340 354q62 0 98.5 34.5t36.5 86.5
q0 54 -37.5 88.5t-97.5 34.5q-58 0 -94.5 -32.5t-36.5 -88.5t35.5 -89.5t95.5 -33.5z" />
    <glyph glyph-name="nine.numr" horiz-adv-x="704" 
d="M315 825q72 0 123.5 57t55.5 154h-5q-29 -41 -79.5 -61.5t-100.5 -20.5q-102 0 -178 66t-76 176q0 106 80.5 177t202.5 71q145 0 226 -98t81 -261q0 -166 -85.5 -275.5t-240.5 -109.5q-74 0 -135.5 24.5t-97.5 70.5l94 86q49 -56 135 -56zM342 1071q62 0 98.5 34.5
t36.5 86.5q0 54 -37.5 88.5t-97.5 34.5q-58 0 -94.5 -32.5t-36.5 -88.5t35.5 -89.5t95.5 -33.5z" />
    <glyph glyph-name="nine.oldstyle" horiz-adv-x="1282" 
d="M565 -61q159 0 266 112t111 307h-4q-53 -85 -150 -131.5t-210 -46.5q-96 0 -186 30.5t-161 85t-114 138t-43 182.5q0 191 148.5 317t385.5 126q273 0 427.5 -174t154.5 -463q0 -117 -25 -221t-76 -191t-123.5 -150.5t-172.5 -98.5t-218 -35q-139 0 -257 44.5t-191 120.5
l160 142q94 -94 278 -94zM606 375q140 0 222.5 66t82.5 171q0 101 -85.5 167.5t-204.5 66.5q-127 0 -211 -65.5t-84 -164.5q0 -112 79.5 -176.5t200.5 -64.5z" />
    <glyph glyph-name="nine.taboldstyle" horiz-adv-x="1392" 
d="M621 -61q159 0 265.5 112t110.5 307h-4q-53 -85 -150 -131.5t-210 -46.5q-96 0 -186 30.5t-161 85t-114 138t-43 182.5q0 191 149 317t386 126q181 0 313.5 -80.5t200 -223.5t67.5 -333q0 -146 -40 -272t-115.5 -221t-193.5 -149t-265 -54q-139 0 -257.5 44.5
t-191.5 120.5l160 142q51 -51 127.5 -72.5t151.5 -21.5zM662 375q140 0 222.5 66t82.5 171q0 101 -85.5 167.5t-205.5 66.5q-127 0 -211 -65.5t-84 -164.5q0 -112 80 -176.5t201 -64.5z" />
    <glyph glyph-name="nine.tnum" horiz-adv-x="1392" 
d="M623 199q71 0 137.5 33.5t118.5 94t84 152t34 199.5h-4q-47 -93 -146.5 -141t-209.5 -48q-133 0 -249.5 56.5t-191.5 168.5t-75 257q0 210 152.5 347.5t390.5 137.5q181 0 314 -89t202 -248t69 -369q0 -162 -40.5 -301.5t-116.5 -245t-195.5 -166t-267.5 -60.5
q-139 0 -257.5 49.5t-191.5 135.5l160 145q52 -57 130 -82.5t153 -25.5zM670 698q134 0 217.5 76t83.5 189q0 116 -85.5 195t-213.5 79q-124 0 -209.5 -75.5t-85.5 -192.5q0 -122 81.5 -196.5t211.5 -74.5z" />
    <glyph glyph-name="ogonek.case" horiz-adv-x="909" 
d="M479 47v-29q-69 -39 -97 -94.5t-28 -101.5q0 -54 31 -83.5t80 -29.5q92 0 147 115l123 -62q-34 -98 -111 -160.5t-182 -62.5q-44 0 -88 12t-86 38t-68 74t-26 112q0 68 44 144t140 128h121z" />
    <glyph glyph-name="one.dnom" horiz-adv-x="462" 
d="M57 475l-41 121l273 121h90v-717h-164v543z" />
    <glyph glyph-name="one.numr" horiz-adv-x="462" 
d="M57 1192l-41 121l273 121h90v-717h-164v543z" />
    <glyph glyph-name="one.oldstyle" horiz-adv-x="1136" 
d="M141 623l-63 200l536 213h134v-827h337v-209h-935v209h348v541z" />
    <glyph glyph-name="one.taboldstyle" horiz-adv-x="1392" 
d="M268 623l-63 200l536 213h133v-827h338v-209h-936v209h349v541z" />
    <glyph glyph-name="one.tnum" horiz-adv-x="1392" 
d="M868 209h332v-209h-934v209h348v926l-315 -131l-63 202l495 228h137v-1225z" />
    <glyph glyph-name="parenleft.case" horiz-adv-x="692" 
d="M475 1733l160 -97q-47 -71 -89.5 -149.5t-94 -199.5t-82.5 -270.5t-31 -301.5q0 -121 22 -245.5t53.5 -220.5t75 -191t77 -153.5t69.5 -111.5l-160 -94q-40 42 -86 106t-100 164.5t-96.5 211t-71.5 253t-29 283.5q0 139 28.5 280.5t71 252t96.5 211t100 165t87 107.5z
" />
    <glyph glyph-name="parenleft.dnom" horiz-adv-x="428" 
d="M223 344q0 -133 45 -253.5t97 -196.5q-15 -11 -45.5 -29.5t-45.5 -30.5q-28 28 -60 75t-65.5 112.5t-55 151.5t-21.5 171q0 86 21.5 172t55 152t65.5 113t60 75l91 -61q-53 -77 -97.5 -195.5t-44.5 -255.5z" />
    <glyph glyph-name="parenleft.numr" horiz-adv-x="428" 
d="M223 1065q0 -93 27 -190.5t55 -154t60 -106.5q-15 -12 -45.5 -29.5t-45.5 -29.5q-28 28 -60 75t-65.5 112.5t-55 151.5t-21.5 171q0 86 21.5 172t55 152t65.5 113t60 75l91 -61q-53 -77 -97.5 -195.5t-44.5 -255.5z" />
    <glyph glyph-name="parenright.case" horiz-adv-x="692" 
d="M57 1636l160 97q41 -43 87 -107.5t100 -165t96.5 -211t71 -252t28.5 -280.5q0 -141 -29 -283.5t-71.5 -253t-96.5 -211t-100 -164.5t-86 -106l-160 94q36 53 69.5 111.5t77 153.5t75 191t53.5 220.5t22 245.5q0 152 -31 301.5t-82.5 270.5t-94 199.5t-89.5 149.5z" />
    <glyph glyph-name="parenright.dnom" horiz-adv-x="428" 
d="M205 344q0 137 -44.5 255.5t-97.5 195.5l91 61q28 -28 60 -75t65.5 -113t55 -152t21.5 -172q0 -85 -21.5 -171t-55 -151.5t-65.5 -112.5t-60 -75q-15 11 -45 30t-46 30q52 76 97 196.5t45 253.5z" />
    <glyph glyph-name="parenright.numr" horiz-adv-x="428" 
d="M205 1065q0 137 -44.5 255.5t-97.5 195.5l91 61q28 -28 60 -75t65.5 -113t55 -152t21.5 -172q0 -85 -21.5 -171t-55 -151.5t-65.5 -112.5t-60 -75q-16 12 -45.5 29.5t-45.5 29.5q32 50 60 106.5t55 154t27 190.5z" />
    <glyph glyph-name="period.dnom" horiz-adv-x="368" 
d="M80 74q0 38 30.5 65t73.5 27t74 -27t31 -65t-31 -65t-74 -27t-73.5 27t-30.5 65z" />
    <glyph glyph-name="period.numr" horiz-adv-x="368" 
d="M80 791q0 38 30.5 65t73.5 27t74 -27t31 -65t-31 -65.5t-74 -27.5t-73.5 27.5t-30.5 65.5z" />
    <glyph glyph-name="periodcentered.case" horiz-adv-x="604" 
d="M131 717q0 69 49 117.5t121 48.5t123 -48.5t51 -117.5t-51 -116.5t-123 -47.5t-121 47.5t-49 116.5z" />
    <glyph glyph-name="questiondown.case" horiz-adv-x="1087" 
d="M479 971h236q0 -54 -1.5 -80.5t-8 -58t-22.5 -51.5t-42 -42.5t-68 -48.5q-129 -78 -186 -143t-57 -156q0 -93 63 -145.5t168 -52.5q94 0 153.5 44.5t59.5 118.5q0 41 -20 93h241q21 -39 21 -105q0 -48 -15 -97t-50.5 -98.5t-87 -87t-131.5 -61t-177 -23.5
q-138 0 -247.5 49.5t-172.5 143t-63 215.5q0 62 19.5 119.5t49.5 102t78.5 90t93.5 78.5t107 73q59 38 59 123zM770 1292q0 -69 -49 -117.5t-121 -48.5t-123 48.5t-51 117.5t51 116.5t123 47.5t121 -47.5t49 -116.5z" />
    <glyph glyph-name="ring.case" horiz-adv-x="817" 
d="M174 1745q0 96 67 155.5t167 59.5t167.5 -59.5t67.5 -155.5t-67 -153.5t-168 -57.5t-167.5 57.5t-66.5 153.5zM295 1745q0 -46 32 -73t81 -27q48 0 79 27t31 73t-31 73t-79 27q-49 0 -81 -27t-32 -73z" />
    <glyph glyph-name="seven.dnom" horiz-adv-x="598" 
d="M39 592v125h539v-92l-322 -625h-174l311 592h-354z" />
    <glyph glyph-name="seven.numr" horiz-adv-x="598" 
d="M39 1309v125h539v-93l-322 -624h-174l311 592h-354z" />
    <glyph glyph-name="seven.oldstyle" horiz-adv-x="1116" 
d="M51 829v207h1039v-155l-631 -1135h-277l615 1083h-746z" />
    <glyph glyph-name="seven.taboldstyle" horiz-adv-x="1392" 
d="M188 829v207h1039v-155l-631 -1135h-277l615 1083h-746z" />
    <glyph glyph-name="seven.tnum" horiz-adv-x="1392" 
d="M188 1223v211h1051v-164l-684 -1270h-285l678 1223h-760z" />
    <glyph glyph-name="six.dnom" horiz-adv-x="702" 
d="M389 600q-72 0 -123 -57t-55 -154h4q29 41 79.5 61.5t100.5 20.5q102 0 178 -66t76 -176q0 -106 -79.5 -175.5t-202.5 -69.5q-145 0 -226.5 97t-81.5 259q0 166 85.5 276.5t240.5 110.5q73 0 135 -25t98 -71l-94 -86q-48 55 -135 55zM362 354q-62 0 -98.5 -34.5
t-36.5 -86.5q0 -54 37.5 -88t97.5 -34q58 0 95 32t37 88t-36 89.5t-96 33.5z" />
    <glyph glyph-name="six.numr" horiz-adv-x="702" 
d="M389 1317q-72 0 -123 -57t-55 -154h4q29 41 79.5 61.5t100.5 20.5q102 0 178 -66t76 -176q0 -106 -79.5 -176t-202.5 -70q-145 0 -226.5 97t-81.5 260q0 166 85.5 276.5t240.5 110.5q73 0 135 -25t98 -71l-94 -86q-48 55 -135 55zM362 1071q-62 0 -98.5 -34.5
t-36.5 -86.5q0 -54 37.5 -88.5t97.5 -34.5q58 0 95 32.5t37 88.5t-36 89.5t-96 33.5z" />
    <glyph glyph-name="six.oldstyle" horiz-adv-x="1308" 
d="M727 1096q-160 0 -264 -111t-111 -307q56 84 153.5 131t209.5 47q76 0 150 -19t138 -56.5t113 -89.5t77 -122.5t28 -150.5q0 -190 -150 -315.5t-387 -125.5q-270 0 -426 174.5t-156 462.5q0 145 40.5 271.5t117 221.5t194.5 149.5t265 54.5q140 0 256.5 -44.5
t189.5 -123.5l-157 -142q-100 95 -281 95zM688 662q-140 0 -222.5 -67t-82.5 -173q0 -101 85.5 -167.5t205.5 -66.5q125 0 210 67.5t85 164.5q0 112 -80.5 177t-200.5 65z" />
    <glyph glyph-name="six.taboldstyle" horiz-adv-x="1392" 
d="M768 1096q-160 0 -264 -111t-111 -307q56 84 153.5 131t209.5 47q76 0 150 -19t138 -56.5t113 -89.5t77 -122.5t28 -150.5q0 -190 -150 -315.5t-387 -125.5q-270 0 -426 174.5t-156 462.5q0 145 40.5 271.5t117 221.5t194.5 149.5t265 54.5q140 0 256.5 -44.5
t189.5 -123.5l-157 -142q-100 95 -281 95zM729 662q-140 0 -222.5 -67t-82.5 -173q0 -101 85.5 -167.5t205.5 -66.5q125 0 210 67.5t85 164.5q0 112 -80.5 177t-200.5 65z" />
    <glyph glyph-name="six.tnum" horiz-adv-x="1392" 
d="M768 1235q-150 0 -259 -131.5t-116 -347.5h4q47 92 147 140t210 48q99 0 191.5 -33.5t165 -93.5t116 -152.5t43.5 -201.5q0 -210 -152.5 -348t-390.5 -138q-181 0 -314 89t-202.5 248.5t-69.5 369.5q0 162 41 301.5t118 245t196 165.5t266 60q139 0 257 -49t191 -135
l-159 -146q-52 57 -130 83t-153 26zM721 735q-134 0 -217.5 -75.5t-83.5 -188.5q0 -116 85.5 -195t213.5 -79q124 0 209.5 75.5t85.5 192.5q0 122 -81.5 196t-211.5 74z" />
    <glyph glyph-name="sterling.dnom" horiz-adv-x="702" 
d="M516 285h-154q7 -35 7 -62q-4 -71 -56 -108q41 6 111 6h223v-121h-592v121q93 4 123.5 31.5t30.5 72.5q0 36 -8 60h-127q0 13 1 36t1 37h94q-16 30 -27.5 81t-11.5 83q0 95 71.5 151t182.5 56t175.5 -57.5t64.5 -128.5q0 -35 -9 -56h-147q0 3 1 9.5t1 9.5q0 34 -24.5 61
t-63.5 27q-38 0 -65 -23t-27 -53q0 -73 41 -160h184v-73z" />
    <glyph glyph-name="sterling.numr" horiz-adv-x="700" 
d="M516 1001h-154q7 -35 7 -61q-4 -72 -56 -109q48 7 111 7h223v-121h-592v121q93 4 123.5 31.5t30.5 72.5q0 35 -8 59h-127q0 13 1 37t1 37h94q-16 30 -27.5 81t-11.5 83q0 95 71.5 151t182.5 56t175.5 -57.5t64.5 -128.5q0 -35 -9 -56h-147q0 3 1 9.5t1 9.5q0 34 -24.5 61
t-63.5 27q-38 0 -65 -23t-27 -53q0 -73 41 -160h184v-74z" />
    <glyph glyph-name="sterlinginferior" horiz-adv-x="700" 
d="M516 -6h-154q7 -35 7 -62q-4 -71 -56 -108q41 6 111 6h223v-121h-592v121q93 4 123.5 31.5t30.5 72.5q0 36 -8 60h-127q0 13 1 36.5t1 37.5h94q-16 30 -27.5 80.5t-11.5 82.5q0 95 71.5 151t182.5 56t175.5 -57.5t64.5 -128.5q0 -34 -9 -55h-147q0 3 1 9t1 9
q0 34 -24.5 61t-63.5 27q-38 0 -65 -23t-27 -53q0 -72 41 -159h184v-74z" />
    <glyph glyph-name="sterlingsuperior" horiz-adv-x="702" 
d="M516 1180h-154q7 -35 7 -62q-4 -71 -56 -108q41 6 111 6h223v-121h-592v121q93 4 123.5 31.5t30.5 72.5q0 36 -8 60h-127q0 14 1 37t1 36h94q-16 30 -27.5 81t-11.5 83q0 95 71.5 151t182.5 56t175.5 -57.5t64.5 -128.5q0 -35 -9 -56h-147q0 3 1 9.5t1 9.5q0 34 -24.5 61
t-63.5 27q-38 0 -65 -23t-27 -53q0 -73 41 -160h184v-73z" />
    <glyph glyph-name="three.dnom" horiz-adv-x="669" 
d="M309 115q61 0 100.5 36t39.5 85q0 53 -38.5 87.5t-91.5 34.5q-55 0 -92 -20l-61 80l201 174h-297v125h518v-88l-193 -176q98 -10 156.5 -70t58.5 -147q0 -106 -82 -177t-221 -71q-80 0 -144 19t-120 69l82 102q82 -63 184 -63z" />
    <glyph glyph-name="three.numr" horiz-adv-x="667" 
d="M307 831q61 0 100 36t39 85q0 53 -38.5 88t-90.5 35q-55 0 -92 -20l-61 80l201 174h-297v125h518v-88l-193 -177q98 -10 156.5 -70t58.5 -147q0 -106 -82 -176.5t-221 -70.5q-80 0 -144 19t-120 69l82 102q83 -64 184 -64z" />
    <glyph glyph-name="three.oldstyle" horiz-adv-x="1234" 
d="M565 -68q144 0 237 74t93 172q0 99 -80.5 169.5t-196.5 70.5q-119 0 -196 -51l-105 139l406 332h-598v198h977v-139l-402 -319q115 -3 216.5 -54t165 -142.5t63.5 -201.5q0 -91 -39.5 -173t-111.5 -144.5t-183.5 -99.5t-245.5 -37q-321 0 -510 161l135 152
q171 -107 375 -107z" />
    <glyph glyph-name="three.taboldstyle" horiz-adv-x="1392" 
d="M643 -68q144 0 237 74t93 172q0 99 -80.5 169.5t-196.5 70.5q-119 0 -196 -51l-105 139l406 332h-598v198h977v-139l-402 -319q115 -3 216.5 -54t165 -142.5t63.5 -201.5q0 -91 -39.5 -173t-111.5 -144.5t-183.5 -99.5t-245.5 -37q-321 0 -510 161l135 152
q171 -107 375 -107z" />
    <glyph glyph-name="three.tnum" horiz-adv-x="1392" 
d="M637 197q150 0 242 86t92 192q0 113 -84 186.5t-205 73.5q-118 0 -199 -53l-108 139l440 402h-618v211h985v-154l-412 -362q119 0 224 -57t169 -159t64 -225q0 -102 -40.5 -193t-115 -159t-187.5 -108t-249 -40q-324 0 -510 168l135 164q102 -68 187 -90t190 -22z" />
    <glyph glyph-name="tilde.case" horiz-adv-x="972" 
d="M717 1851l121 -36q-32 -121 -78.5 -176.5t-128.5 -55.5q-57 0 -150 38t-121 38q-39 0 -59 -20t-45 -74l-121 37q32 121 78.5 176t128.5 55q57 0 149.5 -38t120.5 -38q39 0 59.5 20t45.5 74z" />
    <glyph glyph-name="two.dnom" horiz-adv-x="679" 
d="M459 252l-146 -129q39 6 105 6h205v-129h-551l-17 92l297 260q86 71 86 146q0 46 -28 71t-76 25q-60 0 -87.5 -33t-27.5 -76h-158q0 39 14 79t44 78.5t86 62.5t129 24q121 0 191.5 -64.5t70.5 -166.5q0 -134 -137 -246z" />
    <glyph glyph-name="two.numr" horiz-adv-x="675" 
d="M457 969l-146 -129q39 6 105 6h205v-129h-551l-17 92l297 260q86 71 86 145q0 46 -28 71.5t-76 25.5q-60 0 -87.5 -33t-27.5 -76h-158q0 39 14 79t44 78.5t86 62.5t129 24q121 0 191.5 -65t70.5 -167q0 -133 -137 -245z" />
    <glyph glyph-name="two.oldstyle" 
d="M774 332l-209 -121l-12 -14q86 12 240 12h354v-209h-1038l-11 150l598 378q95 61 128.5 101t33.5 90q0 143 -250 143q-118 0 -183 -43.5t-65 -113.5h-249q0 63 25 121.5t79.5 112.5t157 87t241.5 33q221 0 358.5 -87t137.5 -243q0 -126 -76.5 -213t-259.5 -184z" />
    <glyph glyph-name="two.taboldstyle" horiz-adv-x="1392" 
d="M848 332l-209 -121l-12 -14q86 12 239 12h355v-209h-1039l-10 150l598 378q95 61 128.5 101t33.5 90q0 143 -250 143q-118 0 -183 -43.5t-65 -113.5h-250q0 49 14.5 96t51.5 95t92 83t144.5 57.5t201.5 22.5q221 0 358.5 -87t137.5 -243q0 -126 -76.5 -213t-259.5 -184z
" />
    <glyph glyph-name="two.tnum" horiz-adv-x="1392" 
d="M909 516l-358 -313v-4q78 10 274 10h414v-209h-1040l-29 160l571 520q197 167 197 321q0 110 -70 173t-192 63q-76 0 -131 -22t-82.5 -58t-40 -73t-12.5 -76h-252q0 55 15.5 113t54 119t95 108t148.5 77.5t205 30.5q232 0 372 -123t140 -329q0 -79 -23 -150.5
t-67.5 -133.5t-86.5 -106.5t-102 -97.5z" />
    <glyph glyph-name="uni02C9.case" horiz-adv-x="956" 
d="M174 1776h608v-183h-608v183z" />
    <glyph glyph-name="y.alt" horiz-adv-x="1175" 
d="M596 326l270 710h283l-401 -927q-9 -21 -26.5 -64.5t-30.5 -74.5t-35 -77.5t-41.5 -81t-49.5 -76.5t-60.5 -72.5t-72 -61t-85.5 -49.5t-100 -31.5t-118 -12.5q-155 0 -291 93l84 200q94 -67 211 -67q52 0 98 22t78 52t63.5 79t49 85.5t39.5 88.5l-432 975h284z" />
    <glyph glyph-name="yacute.alt" horiz-adv-x="1175" 
d="M635 1507h272l-266 -329h-197zM596 326l270 710h283l-401 -927q-9 -21 -26.5 -64.5t-30.5 -74.5t-35 -77.5t-41.5 -81t-49.5 -76.5t-60.5 -72.5t-72 -61t-85.5 -49.5t-100 -31.5t-118 -12.5q-155 0 -291 93l84 200q94 -67 211 -67q52 0 98 22t78 52t63.5 79t49 85.5
t39.5 88.5l-432 975h284z" />
    <glyph glyph-name="ycircumflex.alt" horiz-adv-x="1175" 
d="M465 1507h256l229 -329h-186l-170 188l-172 -188h-184zM596 326l270 710h283l-401 -927q-9 -21 -26.5 -64.5t-30.5 -74.5t-35 -77.5t-41.5 -81t-49.5 -76.5t-60.5 -72.5t-72 -61t-85.5 -49.5t-100 -31.5t-118 -12.5q-155 0 -291 93l84 200q94 -67 211 -67q52 0 98 22
t78 52t63.5 79t49 85.5t39.5 88.5l-432 975h284z" />
    <glyph glyph-name="ydieresis.alt" horiz-adv-x="1175" 
d="M193 1343q0 63 43.5 105.5t109.5 42.5t110 -42.5t44 -105.5q0 -62 -44 -103.5t-110 -41.5t-109.5 41.5t-43.5 103.5zM666 1343q0 63 42.5 105.5t108.5 42.5t111 -42.5t45 -105.5q0 -61 -45 -103t-111 -42t-108.5 41.5t-42.5 103.5zM596 326l270 710h283l-401 -927
q-9 -21 -26.5 -64.5t-30.5 -74.5t-35 -77.5t-41.5 -81t-49.5 -76.5t-60.5 -72.5t-72 -61t-85.5 -49.5t-100 -31.5t-118 -12.5q-155 0 -291 93l84 200q94 -67 211 -67q52 0 98 22t78 52t63.5 79t49 85.5t39.5 88.5l-432 975h284z" />
    <glyph glyph-name="yen.dnom" horiz-adv-x="788" 
d="M664 141h-189v-141h-164v141h-188v70h188v59l-6 31h-182v70h137l-221 323v23h178l176 -291l174 291h181v-25l-222 -321h138v-70h-183l-6 -31v-59h189v-70z" />
    <glyph glyph-name="yen.numr" horiz-adv-x="786" 
d="M664 858h-189v-141h-164v141h-188v70h188v59l-6 31h-182v69h137l-221 324v23h178l176 -291l174 291h181v-25l-222 -322h138v-69h-183l-6 -31v-59h189v-70z" />
    <glyph glyph-name="yeninferior" horiz-adv-x="788" 
d="M664 -150h-189v-141h-164v141h-188v70h188v60l-6 30h-182v70h137l-221 323v23h178l176 -291l174 291h181v-25l-222 -321h138v-70h-183l-6 -30v-60h189v-70z" />
    <glyph glyph-name="yensuperior" horiz-adv-x="790" 
d="M666 1036h-189v-141h-164v141h-188v70h188v59l-6 31h-182v70h137l-221 323v23h178l176 -291l174 291h181v-25l-222 -321h138v-70h-183l-6 -31v-59h189v-70z" />
    <glyph glyph-name="ygrave.alt" horiz-adv-x="1175" 
d="M266 1507h273l190 -329h-197zM596 326l270 710h283l-401 -927q-9 -21 -26.5 -64.5t-30.5 -74.5t-35 -77.5t-41.5 -81t-49.5 -76.5t-60.5 -72.5t-72 -61t-85.5 -49.5t-100 -31.5t-118 -12.5q-155 0 -291 93l84 200q94 -67 211 -67q52 0 98 22t78 52t63.5 79t49 85.5
t39.5 88.5l-432 975h284z" />
    <glyph glyph-name="zero.dnom" horiz-adv-x="763" 
d="M707 356q0 -159 -89 -266.5t-237 -107.5q-147 0 -235.5 107.5t-88.5 266.5t88.5 267t235.5 108q148 0 237 -108t89 -267zM545 356q0 106 -43.5 171t-120.5 65q-74 0 -118 -65.5t-44 -170.5q0 -102 44 -168.5t118 -66.5q76 0 120 66t44 169z" />
    <glyph glyph-name="zero.numr" horiz-adv-x="763" 
d="M707 1073q0 -159 -89 -267t-237 -108q-147 0 -235.5 108t-88.5 267t88.5 267t235.5 108q148 0 237 -108t89 -267zM545 1073q0 106 -43.5 171t-120.5 65q-74 0 -118 -65.5t-44 -170.5q0 -102 44 -168.5t118 -66.5q76 0 120 66t44 169z" />
    <glyph glyph-name="zero.oldstyle" horiz-adv-x="1384" 
d="M1292 518q0 -113 -42.5 -211.5t-119 -172t-190.5 -115.5t-250 -42t-249.5 42t-189 115.5t-117.5 172t-42 211.5t42 211.5t117.5 172t189 115.5t249.5 42t250 -42t190.5 -115.5t119 -172t42.5 -211.5zM1040 518q0 139 -96 235.5t-254 96.5q-156 0 -251 -96.5t-95 -235.5
t95 -235.5t251 -96.5q158 0 254 96.5t96 235.5z" />
    <glyph glyph-name="zero.taboldstyle" horiz-adv-x="1392" 
d="M1296 518q0 -113 -42.5 -211.5t-119 -172t-190.5 -115.5t-250 -42t-249.5 42t-189 115.5t-117.5 172t-42 211.5t42 211.5t117.5 172t189 115.5t249.5 42t250 -42t190.5 -115.5t119 -172t42.5 -211.5zM1044 518q0 139 -96 235.5t-254 96.5q-156 0 -251 -96.5t-95 -235.5
t95 -235.5t251 -96.5q158 0 254 96.5t96 235.5z" />
    <glyph glyph-name="zero.tnum" horiz-adv-x="1392" 
d="M1327 717q0 -153 -44.5 -288t-125 -235t-200 -158.5t-261.5 -58.5q-143 0 -262.5 58.5t-199 158.5t-123 235t-43.5 288q0 206 74.5 373t219 266.5t334.5 99.5q189 0 334 -99.5t221 -266.5t76 -373zM1073 717q0 225 -102.5 374.5t-274.5 149.5q-115 0 -201 -70.5
t-129.5 -188.5t-43.5 -265q0 -146 43.5 -263.5t129.5 -188t201 -70.5t201.5 70.5t131 188t44.5 263.5z" />
    </font>
</defs>
</svg>
