<svg width="29" height="29" viewBox="0 0 29 29" fill="none" xmlns="http://www.w3.org/2000/svg">
<path d="M5.89062 4.53125C4.80904 4.53125 3.77175 4.96091 3.00696 5.72571C2.24216 6.4905 1.8125 7.52779 1.8125 8.60938V20.3906C1.8125 21.4722 2.24216 22.5095 3.00696 23.2743C3.77175 24.0391 4.80904 24.4688 5.89062 24.4688H23.1094C24.191 24.4688 25.2282 24.0391 25.993 23.2743C26.7578 22.5095 27.1875 21.4722 27.1875 20.3906V8.60938C27.1875 7.52779 26.7578 6.4905 25.993 5.72571C25.2282 4.96091 24.191 4.53125 23.1094 4.53125H5.89062ZM25.375 9.42772L14.5 15.283L3.625 9.42772V8.60938C3.625 8.00849 3.8637 7.43222 4.28859 7.00734C4.71347 6.58245 5.28974 6.34375 5.89062 6.34375H23.1094C23.7103 6.34375 24.2865 6.58245 24.7114 7.00734C25.1363 7.43222 25.375 8.00849 25.375 8.60938V9.42772ZM3.625 11.4858L14.0704 17.1109C14.2025 17.182 14.3501 17.2192 14.5 17.2192C14.6499 17.2192 14.7975 17.182 14.9296 17.1109L25.375 11.4858V20.3906C25.375 20.9915 25.1363 21.5678 24.7114 21.9927C24.2865 22.4176 23.7103 22.6562 23.1094 22.6562H5.89062C5.28974 22.6562 4.71347 22.4176 4.28859 21.9927C3.8637 21.5678 3.625 20.9915 3.625 20.3906V11.4858Z" fill="#023D72"/>
</svg>
