<?xml version="1.0" standalone="no"?>
<!DOCTYPE svg PUBLIC "-//W3C//DTD SVG 1.1//EN" "http://www.w3.org/Graphics/SVG/1.1/DTD/svg11.dtd" >
<svg xmlns="http://www.w3.org/2000/svg" xmlns:xlink="http://www.w3.org/1999/xlink" version="1.1">
<metadata>
Created by FontForge 20170731 at Tue Oct 10 09:44:46 2023
 By Aleksey,,,
Copyright (c) Olivier Gourvat - Mostardesign Studio, 2014. All rights reserved. |DCNT
</metadata>
<defs>
<font id="FilsonPro-Heavy" horiz-adv-x="1265" >
  <font-face 
    font-family="Filson Pro Heavy"
    font-weight="800"
    font-stretch="normal"
    units-per-em="2048"
    panose-1="2 0 0 0 0 0 0 0 0 0"
    ascent="1481"
    descent="-567"
    x-height="1061"
    cap-height="1434"
    bbox="-506 -645 3047 1997"
    underline-thickness="102"
    underline-position="-307"
    unicode-range="U+000D-FB04"
  />
<missing-glyph horiz-adv-x="1378" 
d="M205 0v1436h969v-1436h-969zM582 526h123q0 40 4 55.5t20 26.5q7 4 30 18.5t39 24.5t41.5 29t43.5 36.5t39 42.5t34 50t22 57t9 66q0 120 -90.5 193t-224.5 73q-78 0 -138.5 -21.5t-94.5 -56t-51 -72.5t-17 -77q0 -53 18 -94h129q-16 36 -16 90q0 52 44 84t118 32
q87 0 135.5 -40.5t48.5 -110.5v-4q0 -68 -41 -115t-137 -106q-63 -36 -75.5 -64t-12.5 -117zM545 295q0 -43 28.5 -71.5t69.5 -28.5q43 0 72.5 28.5t29.5 71.5q0 41 -29.5 70.5t-72.5 29.5q-41 0 -69.5 -29.5t-28.5 -70.5z" />
    <glyph glyph-name="f_f" unicode="ff" horiz-adv-x="1679" 
d="M1376 1153v-109h226v-249h-222v-795h-352v795h-487v-795h-353v795h-135v249h135v66q0 89 24 159t62.5 113t92 71t107.5 39t114 11q162 0 259 -84t97 -225l-262 -35q0 37 -18.5 59.5t-55.5 22.5q-38 0 -54.5 -26t-16.5 -62v-109h491v66q0 89 24 159t62 113t91.5 71
t107.5 39t114 11q162 0 259.5 -84t97.5 -225q0 -38 -10 -68h-261q9 12 9 33q0 37 -18.5 59.5t-55.5 22.5q-38 0 -55 -26t-17 -62z" />
    <glyph glyph-name="fi" unicode="fi" horiz-adv-x="1486" 
d="M188 811h-135v250h135v22q0 101 33.5 178t85 121.5t122.5 73t136.5 38t136.5 9.5q110 0 221 -45t183 -133l-184 -176q-76 92 -209 92q-69 0 -122.5 -40t-53.5 -118v-22h829v-1061h-352v811h-473v-811h-353v811z" />
    <glyph glyph-name="fl" unicode="fl" horiz-adv-x="1429" 
d="M188 801h-135v260h135v22q0 100 38 177.5t95.5 122t135.5 73t147 38t141 9.5q126 0 298.5 -37t267.5 -106v-1360h-353v1204q-75 37 -200 37q-32 0 -68.5 -9t-71.5 -27t-58 -50t-23 -72v-22h225v-260h-221v-801h-353v801z" />
    <glyph glyph-name="f_f_i" unicode="ffi" horiz-adv-x="2326" 
d="M1542 1503q110 0 221 -45t183 -133l-185 -176q-76 92 -209 92q-69 0 -122.5 -40t-53.5 -118v-22h830v-1061h-353v811h-473v-811h-352v811h-487v-811h-353v811h-135v250h135v22q0 101 33.5 178t85 121.5t122.5 73t136.5 38t136.5 9.5q184 0 316 -100l-156 -203
q-68 41 -149 41q-69 0 -122.5 -40t-53.5 -118v-22h491v22q0 101 33.5 178t85 121.5t122.5 73t136.5 38t136.5 9.5z" />
    <glyph glyph-name="f_f_l" unicode="ffl" horiz-adv-x="2269" 
d="M1380 801v-801h-352v801h-487v-801h-353v801h-135v243h135v39q0 101 33.5 178t85 121.5t122.5 73t136.5 38t136.5 9.5q184 0 316 -100l-156 -203q-68 41 -149 41q-69 0 -122.5 -40t-53.5 -118v-22h491v22q0 100 38 177.5t95.5 122t135.5 73t147 38t141 9.5q126 0 298 -37
t267 -106v-1360h-352v1204q-75 37 -201 37q-32 0 -68.5 -9t-71.5 -27t-58 -50t-23 -72v-22h226v-260h-222z" />
    <glyph glyph-name="f_f_j" unicode="ffj" horiz-adv-x="2355" 
d="M1542 1503q110 0 221 -45t183 -133l-185 -176q-76 92 -209 92q-69 0 -122.5 -40t-53.5 -118v-22h858v-1141q0 -89 -24 -159t-62 -113t-91 -71t-107 -39t-113 -11q-166 0 -268.5 81.5t-102.5 227.5q0 26 11 68h266q-2 -8 -2 -33q0 -82 71 -82q38 0 54 25.5t16 62.5v924
h-502v-801h-352v801h-487v-801h-353v801h-135v243h135v39q0 101 33.5 178t85 121.5t122.5 73t136.5 38t136.5 9.5q184 0 316 -100l-156 -203q-68 41 -149 41q-69 0 -122.5 -40t-53.5 -118v-22h491v22q0 101 33.5 178t85 121.5t122.5 73t136.5 38t136.5 9.5z" />
    <glyph glyph-name="f_j" unicode="fj" horiz-adv-x="1515" 
d="M188 803h-135v258h135v22q0 101 33.5 178t85 121.5t122.5 73t136.5 38t136.5 9.5q110 0 221 -45t183 -133l-184 -176q-76 92 -209 92q-69 0 -122.5 -40t-53.5 -118v-22h858v-1141q0 -89 -24 -159t-62.5 -113t-91.5 -71t-107 -39t-113 -11q-166 0 -268 81.5t-102 227.5
q0 30 10 68h266q-2 -8 -2 -33q0 -82 72 -82q69 0 69 88v924h-501v-801h-353v803z" />
    <glyph glyph-name=".notdef" horiz-adv-x="1378" 
d="M205 0v1436h969v-1436h-969zM582 526h123q0 40 4 55.5t20 26.5q7 4 30 18.5t39 24.5t41.5 29t43.5 36.5t39 42.5t34 50t22 57t9 66q0 120 -90.5 193t-224.5 73q-78 0 -138.5 -21.5t-94.5 -56t-51 -72.5t-17 -77q0 -53 18 -94h129q-16 36 -16 90q0 52 44 84t118 32
q87 0 135.5 -40.5t48.5 -110.5v-4q0 -68 -41 -115t-137 -106q-63 -36 -75.5 -64t-12.5 -117zM545 295q0 -43 28.5 -71.5t69.5 -28.5q43 0 72.5 28.5t29.5 71.5q0 41 -29.5 70.5t-72.5 29.5q-41 0 -69.5 -29.5t-28.5 -70.5z" />
    <glyph glyph-name=".null" horiz-adv-x="0" 
 />
    <glyph glyph-name="nonmarkingreturn" horiz-adv-x="682" 
 />
    <glyph glyph-name="NULL" horiz-adv-x="0" 
 />
    <glyph glyph-name="NULL" horiz-adv-x="0" 
 />
    <glyph glyph-name="CR" unicode="&#xd;" horiz-adv-x="512" 
 />
    <glyph glyph-name="space" unicode=" " horiz-adv-x="479" 
 />
    <glyph glyph-name="exclam" unicode="!" horiz-adv-x="628" 
d="M528 1343l-90 -851h-245l-91 851v91h426v-91zM102 164q0 82 58.5 136t150.5 54q91 0 152 -54t61 -136q0 -80 -61 -133.5t-152 -53.5t-150 53.5t-59 133.5z" />
    <glyph glyph-name="quotedbl" unicode="&#x22;" horiz-adv-x="1028" 
d="M432 1483l-67 -619h-211l-66 619h344zM940 1483l-68 -619h-210l-66 619h344z" />
    <glyph glyph-name="numbersign" unicode="#" horiz-adv-x="1587" 
d="M1274 1147h254l-62 -232h-252l-94 -366h256l-57 -234h-250l-82 -315h-242l82 315h-272l-78 -315h-239l75 315h-250l58 234h250l94 366h-252l59 232h250l72 287h242l-74 -287h272l68 287h244zM702 915l-92 -366h271l92 366h-271z" />
    <glyph glyph-name="dollar" unicode="$" horiz-adv-x="1212" 
d="M66 424l292 61q47 -170 209 -188v283l-67 24q-162 55 -267.5 164.5t-105.5 241.5q0 176 122.5 287.5t317.5 123.5v158h123v-160q295 -36 402 -319l-279 -111q-44 107 -123 137v-260l60 -20q90 -29 158 -67.5t109.5 -78.5t68 -88t37 -91.5t12.5 -92.5q0 -94 -36.5 -170.5
t-99 -126t-141 -79t-168.5 -38.5v-161h-123v157q-204 12 -340.5 121t-160.5 293zM795 420q0 68 -105 117v-232q105 27 105 115zM469 1026q0 -74 98 -117v224q-98 -24 -98 -107z" />
    <glyph glyph-name="percent" unicode="%" horiz-adv-x="2140" 
d="M555 0l797 1434h211l-793 -1434h-215zM61 1063q0 166 119.5 279.5t296.5 113.5q179 0 298.5 -113t119.5 -280t-119.5 -280t-298.5 -113q-177 0 -296.5 113.5t-119.5 279.5zM319 1063q0 -72 47.5 -120t112.5 -48q67 0 114.5 48t47.5 120q0 74 -47.5 122t-114.5 48
q-65 0 -112.5 -48.5t-47.5 -121.5zM1245 371q0 166 120 279.5t298 113.5t297 -113.5t119 -279.5q0 -167 -119 -280.5t-297 -113.5t-298 114t-120 280zM1505 371q0 -72 47 -120t111 -48q67 0 114.5 48t47.5 120q0 74 -47.5 123t-114.5 49q-64 0 -111 -49t-47 -123z" />
    <glyph glyph-name="ampersand" unicode="&#x26;" horiz-adv-x="1630" 
d="M1028 145q-91 -100 -192 -134t-240 -34q-146 0 -265.5 49.5t-192 147t-72.5 225.5q0 148 96 257t248 171q-65 60 -104.5 134t-39.5 151q0 86 39 153.5t103 108t140.5 61.5t158.5 21q172 0 282.5 -100.5t110.5 -235.5q0 -106 -73 -198.5t-193 -151.5q30 -30 81.5 -87.5
t75.5 -82.5l152 188h303v-65l-275 -332q54 -63 92.5 -92t75.5 -29q26 0 45 2.5t53.5 18.5t67.5 47l119 -223q-138 -138 -311 -138q-35 0 -66.5 7.5t-52 16t-47 29.5t-38.5 32.5t-41 41.5t-40 41zM807 346l-238 266q-73 -32 -117 -85.5t-44 -110.5q0 -70 56 -115t146 -45
q113 0 197 90zM573 1092q0 -37 21 -69t68 -83q68 38 101.5 73.5t33.5 80.5t-30 78.5t-81 33.5t-82 -34t-31 -80z" />
    <glyph glyph-name="quotesingle" unicode="'" horiz-adv-x="520" 
d="M432 1483l-67 -619h-211l-66 619h344z" />
    <glyph glyph-name="parenleft" unicode="(" horiz-adv-x="706" 
d="M393 616q0 -131 29 -274t74 -261t90.5 -208.5t85.5 -146.5l-211 -117q-43 45 -88 104t-101.5 157.5t-99.5 205.5t-72.5 250.5t-29.5 289.5t29.5 289.5t72.5 251t99.5 206t101.5 157.5t88 104l211 -117q-40 -57 -85.5 -146.5t-90.5 -207.5t-74 -261.5t-29 -275.5z" />
    <glyph glyph-name="parenright" unicode=")" horiz-adv-x="706" 
d="M313 616q0 132 -29 275.5t-74 261.5t-90 208t-85 146l211 117q43 -43 89 -103.5t102 -158.5t99 -206t72 -251t29 -289t-29 -289t-72 -251t-99 -205.5t-102 -158t-89 -103.5l-211 117q40 56 85 146.5t90 208.5t74 261t29 274z" />
    <glyph glyph-name="asterisk" unicode="*" horiz-adv-x="937" 
d="M322 709l-168 129l163 200l-249 72l69 207l240 -96l-17 260h222l-19 -258l244 94l63 -209l-245 -66l163 -208l-172 -121l-141 215z" />
    <glyph glyph-name="plus" unicode="+" horiz-adv-x="1175" 
d="M741 137h-307v357h-366v284h366v359h307v-359h367v-284h-367v-357z" />
    <glyph glyph-name="comma" unicode="," horiz-adv-x="577" 
d="M123 -340l-74 117q77 31 143 104t70 144q-75 0 -126.5 53.5t-51.5 118.5q-2 83 51 138.5t152 55.5q56 0 97.5 -24t62.5 -60.5t30.5 -71.5t9.5 -67q0 -157 -108.5 -307.5t-255.5 -200.5z" />
    <glyph glyph-name="hyphen" unicode="-" horiz-adv-x="1001" 
d="M115 487v295h770v-295h-770z" />
    <glyph glyph-name="period" unicode="." horiz-adv-x="583" 
d="M82 164q0 85 58.5 138.5t150.5 53.5t152.5 -54t60.5 -138q0 -80 -61 -133.5t-152 -53.5t-150 53.5t-59 133.5z" />
    <glyph glyph-name="slash" unicode="/" horiz-adv-x="1153" 
d="M1106 1518l-793 -1590h-266l789 1590h270z" />
    <glyph glyph-name="zero" unicode="0" horiz-adv-x="1470" 
d="M1389 717q0 -152 -47 -287.5t-131 -235.5t-208 -158.5t-270 -58.5q-196 0 -346 100.5t-227.5 267.5t-77.5 372q0 154 45.5 288.5t128 234.5t206 158t271.5 58q146 0 270 -58t208 -157.5t131 -235t47 -288.5zM1034 717q0 195 -83 326t-218 131q-136 0 -216.5 -130.5
t-80.5 -326.5t80.5 -326.5t216.5 -130.5q135 0 218 131t83 326z" />
    <glyph glyph-name="one" unicode="1" horiz-adv-x="884" 
d="M102 930l-88 268l535 236h203v-1434h-355v1042z" />
    <glyph glyph-name="two" unicode="2" horiz-adv-x="1290" 
d="M877 492l-277 -220q114 13 250 13h352v-285h-1083l-33 211l547 487q88 77 138 148.5t50 146.5q0 80 -54.5 126t-143.5 46q-108 0 -157.5 -57t-49.5 -139h-338q0 67 18 133t60 131t103.5 114t156.5 79t211 30q240 0 392 -127.5t152 -341.5q0 -248 -294 -495z" />
    <glyph glyph-name="three" unicode="3" horiz-adv-x="1292" 
d="M567 264q126 0 206.5 69t80.5 159q0 93 -70 150.5t-168 57.5q-104 0 -188 -36l-125 178q45 36 176.5 142t204.5 163h-555v287h1030v-203q-75 -61 -208.5 -172t-176.5 -146q176 -12 304 -132.5t128 -293.5q0 -105 -42 -197.5t-119 -162t-197 -110t-266 -40.5
q-349 0 -539 179l164 219q193 -111 360 -111z" />
    <glyph glyph-name="four" unicode="4" horiz-adv-x="1390" 
d="M401 623h312v348zM711 348h-670v232l760 854h264v-811h278v-275h-278v-348h-354v348z" />
    <glyph glyph-name="five" unicode="5" horiz-adv-x="1290" 
d="M596 266q121 0 197.5 66t76.5 166q0 88 -67.5 144t-171.5 56q-70 0 -148.5 -27t-124.5 -77l-231 88l47 752h952v-287h-647l-16 -270h10q93 75 275 75q129 0 238.5 -59t174 -163t64.5 -230q0 -236 -162.5 -379.5t-446.5 -143.5q-354 0 -555 179l166 221q180 -111 369 -111
z" />
    <glyph glyph-name="six" unicode="6" horiz-adv-x="1366" 
d="M770 1163q-44 0 -87.5 -11t-88.5 -37.5t-79 -66.5t-57 -102.5t-26 -140.5h6q54 67 146 109t186 42q99 0 191 -32.5t165 -92t116.5 -151.5t43.5 -203q0 -218 -159 -359t-420 -141q-287 0 -455 195t-168 516q0 128 25 242t78.5 210.5t131 166.5t188 109.5t243.5 39.5
q147 0 281 -51t229 -152l-191 -196q-109 106 -299 106zM694 694q-117 0 -180 -62t-63 -147q0 -89 64.5 -156t176.5 -67q100 0 171 62t71 153q0 97 -67.5 157t-172.5 60z" />
    <glyph glyph-name="seven" unicode="7" horiz-adv-x="1177" 
d="M57 1147v287h1094v-209l-625 -1225h-401l612 1147h-680z" />
    <glyph glyph-name="eight" unicode="8" horiz-adv-x="1368" 
d="M686 858q95 0 145 51t50 113t-54.5 107t-142.5 45t-142.5 -45t-54.5 -107t51.5 -113t147.5 -51zM684 -23q-270 0 -436 121.5t-166 333.5q0 115 73.5 210.5t176.5 125.5q-78 26 -138.5 105t-60.5 171q0 188 151.5 300t399.5 112q249 0 401 -112t152 -300q0 -92 -61.5 -171
t-139.5 -105q100 -31 175 -125t75 -211q0 -212 -166 -333.5t-436 -121.5zM684 268q112 0 179 53t67 130q0 75 -62.5 131.5t-177.5 56.5q-120 0 -186 -56t-66 -132t68.5 -129.5t177.5 -53.5z" />
    <glyph glyph-name="nine" unicode="9" horiz-adv-x="1366" 
d="M596 268q44 0 88 11t88 38.5t78.5 67t57.5 102.5t26 140h-6q-49 -68 -142 -110t-190 -42q-99 0 -191.5 33t-165 93t-116 152t-43.5 201q0 219 160.5 360.5t418.5 141.5q287 0 455 -196t168 -517q0 -128 -25 -241t-78.5 -210t-130.5 -166.5t-187 -109t-243 -39.5
q-149 0 -283 50t-229 151l191 197q110 -107 299 -107zM672 737q117 0 180 62t63 147q0 89 -63.5 156t-175.5 67q-102 0 -173 -61.5t-71 -153.5q0 -97 67.5 -157t172.5 -60z" />
    <glyph glyph-name="colon" unicode=":" horiz-adv-x="643" 
d="M111 164q0 85 58 138.5t150 53.5t152.5 -54t60.5 -138q0 -80 -61 -133.5t-152 -53.5t-149.5 53.5t-58.5 133.5zM111 893q0 82 58 136t150 54q91 0 152 -54t61 -136q0 -81 -61 -134.5t-152 -53.5q-92 0 -150 53t-58 135z" />
    <glyph glyph-name="semicolon" unicode=";" horiz-adv-x="630" 
d="M102 893q0 82 59.5 136t151.5 54q88 0 149.5 -54.5t61.5 -135.5t-61 -134.5t-150 -53.5q-92 0 -151.5 53t-59.5 135zM154 -340l-74 117q77 31 143 104t70 144q-75 0 -126.5 53.5t-51.5 118.5q-2 83 50.5 138.5t151.5 55.5q56 0 97.5 -24t62.5 -60.5t31 -71.5t10 -67
q0 -157 -108.5 -307.5t-255.5 -200.5z" />
    <glyph glyph-name="less" unicode="&#x3c;" horiz-adv-x="1232" 
d="M63 473v244l1016 428h41v-314l-645 -235l645 -238v-313h-41z" />
    <glyph glyph-name="equal" unicode="=" horiz-adv-x="1286" 
d="M1163 231h-1040v279h1040v-279zM1163 784h-1040v279h1040v-279z" />
    <glyph glyph-name="greater" unicode="&#x3e;" horiz-adv-x="1232" 
d="M154 1145l1015 -428v-244l-1015 -428h-41v313l645 238l-645 235v314h41z" />
    <glyph glyph-name="question" unicode="?" horiz-adv-x="1114" 
d="M655 492h-299v65q5 71 33 122t113 107q102 66 147 117.5t45 120.5q0 68 -40.5 102.5t-104.5 34.5q-60 0 -108 -34.5t-48 -96.5q0 -40 21 -90h-326q-22 53 -22 119q0 67 30 135t87 127.5t152.5 97t213.5 37.5q222 0 362 -113t140 -296q0 -132 -81.5 -237t-262.5 -218
q-22 -13 -37 -40t-15 -60zM295 164q0 82 58.5 136t150.5 54q91 0 152 -54t61 -136q0 -80 -61 -133.5t-152 -53.5t-150 53.5t-59 133.5z" />
    <glyph glyph-name="at" unicode="@" horiz-adv-x="2076" 
d="M1579 111q115 2 182.5 119t67.5 350q0 215 -98.5 385.5t-278.5 267t-410 96.5q-171 0 -321 -63.5t-256 -173.5t-166.5 -262.5t-60.5 -325.5q0 -232 95.5 -418.5t272 -293.5t402.5 -107q233 0 411 79q13 -34 35 -69l35 -68q-104 -47 -231.5 -73.5t-249.5 -26.5
q-205 0 -380 74.5t-296.5 204t-189.5 310t-68 388.5t73 390.5t200.5 312.5t308 205t386.5 75q210 0 387.5 -67.5t301 -186.5t193 -287.5t69.5 -365.5q0 -315 -118 -476t-316 -161q-270 0 -308 213q-53 -76 -142.5 -114t-180.5 -38q-197 0 -324 139t-127 349q0 211 128 351
t327 140q195 0 295 -145v125h274v-748q0 -104 78 -104zM754 492q0 -112 65 -187.5t172 -75.5q105 0 170.5 72t65.5 188q0 117 -64.5 191t-173.5 74t-172 -74.5t-63 -187.5z" />
    <glyph glyph-name="A" unicode="A" horiz-adv-x="1456" 
d="M377 0h-375l555 1434h338l563 -1434h-381l-98 254h-508zM727 1049l-178 -504h348z" />
    <glyph glyph-name="B" unicode="B" horiz-adv-x="1376" 
d="M1247 1034q0 -90 -57 -167.5t-168 -118.5q124 -24 205.5 -126t81.5 -210q0 -185 -145.5 -298.5t-381.5 -113.5h-630v1436l571 -2q228 0 376 -109.5t148 -290.5zM680 604h-166v-311h260q78 0 124 38.5t46 100.5q0 72 -61 122t-203 50zM514 846h154q215 0 215 158
q0 69 -49.5 105t-128.5 36h-191v-299z" />
    <glyph glyph-name="C" unicode="C" horiz-adv-x="1417" 
d="M68 717q0 149 56 283.5t156.5 235.5t250.5 160.5t327 59.5q161 0 284 -51t244 -150l-176 -256q-152 140 -352 140q-192 0 -309 -120.5t-117 -301.5t117 -301.5t309 -120.5q201 0 352 139l176 -256q-121 -99 -244 -150t-284 -51q-177 0 -327 59.5t-250.5 161t-156.5 236
t-56 283.5z" />
    <glyph glyph-name="D" unicode="D" horiz-adv-x="1562" 
d="M772 0h-620v1434h620q202 0 368 -96.5t259.5 -261t93.5 -359.5q0 -196 -93.5 -360.5t-259.5 -260.5t-368 -96zM514 1135v-836h191q197 0 310 117t113 301t-113 301t-310 117h-191z" />
    <glyph glyph-name="E" unicode="E" horiz-adv-x="1228" 
d="M1139 0h-987v1434h987v-299h-625v-285h543v-283h-543v-268h625v-299z" />
    <glyph glyph-name="F" unicode="F" horiz-adv-x="1204" 
d="M514 0h-362v1434h985v-299h-623v-285h541v-283h-541v-567z" />
    <glyph glyph-name="G" unicode="G" horiz-adv-x="1503" 
d="M68 717q0 149 56 283.5t156 235.5t249 160.5t325 59.5q156 0 275.5 -45.5t238.5 -136.5l-190 -252q-64 50 -146 81.5t-166 31.5q-109 0 -194.5 -35.5t-136.5 -96t-77 -134.5t-26 -156q0 -179 115.5 -296.5t298.5 -117.5q140 0 227 41v186h-338v275h680v-600
q-250 -224 -569 -224q-168 0 -314 59t-247 159.5t-159 236t-58 285.5z" />
    <glyph glyph-name="H" unicode="H" horiz-adv-x="1521" 
d="M1370 0h-362v541h-494v-541h-362v1434h362v-603h494v603h362v-1434z" />
    <glyph glyph-name="I" unicode="I" horiz-adv-x="665" 
d="M514 1434v-1434h-362v1434h362z" />
    <glyph glyph-name="J" unicode="J" horiz-adv-x="1339" 
d="M43 477q0 148 84 264h336q-70 -111 -70 -225q0 -42 11.5 -81t35.5 -73.5t66.5 -55.5t99.5 -21q126 0 182 83.5t56 258.5v807h362v-807q0 -325 -153.5 -487.5t-440.5 -162.5q-123 0 -223 31t-163 81.5t-105.5 117t-60 134t-17.5 136.5z" />
    <glyph glyph-name="K" unicode="K" horiz-adv-x="1406" 
d="M514 666v-666h-362v1434h362v-641l391 641h367v-50l-416 -645l160 -307q54 -104 90 -133t96 -29q43 0 101 37q23 -51 65.5 -140.5t52.5 -111.5q-80 -43 -143.5 -60.5t-144.5 -17.5q-135 0 -245 72.5t-179 224.5z" />
    <glyph glyph-name="L" unicode="L" horiz-adv-x="1198" 
d="M514 299h645v-299h-1007v1434h362v-1135z" />
    <glyph glyph-name="M" unicode="M" horiz-adv-x="1898" 
d="M1067 16h-236l-313 768l-65 -784h-363l133 1434h355l370 -906l373 906h354l133 -1434h-362l-66 784z" />
    <glyph glyph-name="N" unicode="N" horiz-adv-x="1515" 
d="M1085 0l-571 797v-797h-362v1434h280l569 -787v787h363v-1434h-279z" />
    <glyph glyph-name="O" unicode="O" horiz-adv-x="1658" 
d="M829 -23q-162 0 -304.5 59t-241.5 159.5t-156 236t-57 285.5t57 285.5t156 235.5t241.5 159t304.5 59t304.5 -59t242 -159t156.5 -235.5t57 -285.5t-57 -285.5t-156.5 -236t-242 -159.5t-304.5 -59zM829 299q171 0 284.5 119.5t113.5 298.5t-113.5 298.5t-284.5 119.5
t-283 -119.5t-112 -298.5t112 -298.5t283 -119.5z" />
    <glyph glyph-name="P" unicode="P" horiz-adv-x="1341" 
d="M514 0h-362v1434h657q113 0 205.5 -39t152 -106t91.5 -154.5t32 -186.5q0 -133 -55 -238.5t-165.5 -169t-260.5 -63.5h-295v-477zM514 764h252q71 0 115.5 52.5t44.5 129.5q0 81 -44.5 135t-115.5 54h-252v-371z" />
    <glyph glyph-name="Q" unicode="Q" horiz-adv-x="1656" 
d="M1446 -80l110 -246q-162 -110 -360 -110q-221 0 -360 119.5t-160 308.5q-266 54 -437 257t-171 468q0 149 57.5 285t157.5 236t242.5 159t303.5 59q162 0 304.5 -59t242 -159t156.5 -235.5t57 -285.5q0 -168 -72 -318t-202.5 -255.5t-296.5 -145.5q10 -72 62 -110
t137 -38q53 0 118.5 20t110.5 50zM829 299q171 0 283.5 119.5t112.5 298.5t-112.5 298.5t-283.5 119.5t-284 -119.5t-113 -298.5t113 -298.5t284 -119.5z" />
    <glyph glyph-name="R" unicode="R" horiz-adv-x="1458" 
d="M514 770h256q72 0 116 50t44 126q0 79 -43.5 129.5t-116.5 50.5h-256v-356zM1294 950q0 -156 -81 -270t-226 -158q51 -243 213 -243q87 0 150 57l120 -242q-80 -59 -159 -88t-183 -29q-73 0 -136.5 21.5t-109 55.5t-83.5 81.5t-62 94t-43 100t-28 92.5t-15 76h-137v-498
h-362v1434h661q113 0 205.5 -39t152 -105.5t91.5 -154t32 -185.5z" />
    <glyph glyph-name="S" unicode="S" horiz-adv-x="1239" 
d="M51 410l307 65q52 -199 258 -199q85 0 141 33t56 97q0 41 -31 75t-116 62l-160 57q-173 60 -282 171.5t-109 252.5q0 194 145 313t369 119q180 0 306 -86t189 -252l-290 -117q-62 156 -203 156q-70 0 -114 -29t-44 -88q0 -38 28.5 -71t110.5 -64l154 -53q117 -37 198 -88
t123.5 -110t61 -115.5t20.5 -122.5q0 -88 -30 -161.5t-81.5 -124t-121.5 -85.5t-149 -51.5t-164 -16.5q-149 0 -271.5 50.5t-203.5 149.5t-97 233z" />
    <glyph glyph-name="T" unicode="T" horiz-adv-x="1239" 
d="M43 1434h1151v-299h-397v-1135h-363v1135h-391v299z" />
    <glyph glyph-name="U" unicode="U" horiz-adv-x="1476" 
d="M979 1434h362v-887q0 -109 -31.5 -201.5t-87 -159.5t-131 -114.5t-165.5 -71t-189 -23.5q-124 0 -232.5 37.5t-191 107.5t-130.5 180t-48 245v887h363v-887q0 -125 68.5 -193.5t170.5 -68.5q103 0 172.5 68.5t69.5 193.5v887z" />
    <glyph glyph-name="V" unicode="V" horiz-adv-x="1404" 
d="M539 0l-510 1434h387l286 -953l287 953h387l-512 -1434h-325z" />
    <glyph glyph-name="W" unicode="W" horiz-adv-x="2035" 
d="M1151 1386l238 -765l237 813h373l-453 -1434h-282l-246 801l-246 -801h-283l-452 1434h373l237 -813l242 765h262z" />
    <glyph glyph-name="X" unicode="X" horiz-adv-x="1431" 
d="M715 471l-309 -471h-404v49l502 709l-463 626v50h403l271 -400l270 400h406v-50l-463 -626l502 -709v-49h-406z" />
    <glyph glyph-name="Y" unicode="Y" horiz-adv-x="1527" 
d="M440 1434l324 -533l326 533h409v-50l-553 -798v-586h-362v580l-555 804v50h411z" />
    <glyph glyph-name="Z" unicode="Z" horiz-adv-x="1390" 
d="M1331 299v-299h-1278v225l738 910h-676v299h1165v-228l-743 -907h794z" />
    <glyph glyph-name="bracketleft" unicode="[" horiz-adv-x="876" 
d="M127 -375v1968h694v-268h-358v-1434h358v-266h-694z" />
    <glyph glyph-name="backslash" unicode="\" horiz-adv-x="1153" 
d="M840 -72l-793 1590h270l789 -1590h-266z" />
    <glyph glyph-name="bracketright" unicode="]" horiz-adv-x="874" 
d="M748 1593v-1968h-695v266h359v1434h-359v268h695z" />
    <glyph glyph-name="asciicircum" unicode="^" horiz-adv-x="1175" 
d="M1108 651h-311l-209 467l-209 -467h-311l393 783h258z" />
    <glyph glyph-name="underscore" unicode="_" horiz-adv-x="1484" 
d="M0 -389v258h1485v-258h-1485z" />
    <glyph glyph-name="grave" unicode="`" horiz-adv-x="1114" 
d="M264 1542h363l192 -356h-241z" />
    <glyph glyph-name="a" unicode="a" horiz-adv-x="1363" 
d="M414 532q0 -120 65.5 -199t175.5 -79q107 0 176.5 72t69.5 196q0 129 -68.5 206t-181.5 77q-107 0 -172 -78.5t-65 -194.5zM893 1061h352v-1061h-352v145q-110 -168 -322 -168q-149 0 -267 74t-181.5 200t-63.5 281q0 153 61.5 277.5t179 199t269.5 74.5q102 0 188 -44
t136 -119v141z" />
    <glyph glyph-name="b" unicode="b" horiz-adv-x="1361" 
d="M1303 532q0 -155 -63.5 -281t-181.5 -200t-267 -74q-210 0 -320 168v-145h-352v1481h352v-561q51 75 135.5 119t188.5 44q152 0 269 -74.5t178 -199t61 -277.5zM948 532q0 117 -63 195t-172 78q-113 0 -181.5 -77t-68.5 -206q0 -124 68.5 -196t175.5 -72q110 0 175.5 79
t65.5 199z" />
    <glyph glyph-name="c" unicode="c" horiz-adv-x="1140" 
d="M55 530q0 155 76 280.5t216 199t317 73.5q245 0 442 -161q-14 -22 -83.5 -116t-82.5 -116q-112 98 -256 98q-123 0 -198.5 -71t-75.5 -187t75.5 -188t198.5 -72q143 0 256 99q13 -22 82.5 -116.5t83.5 -115.5q-196 -160 -442 -160q-177 0 -317 73.5t-216 199t-76 280.5z
" />
    <glyph glyph-name="d" unicode="d" horiz-adv-x="1363" 
d="M414 532q0 -120 65.5 -199t175.5 -79q107 0 176.5 72t69.5 196q0 129 -68.5 206t-181.5 77q-107 0 -172 -78.5t-65 -194.5zM893 1481h352v-1481h-352v145q-110 -168 -322 -168q-149 0 -267 74t-181.5 200t-63.5 281q0 153 61.5 277.5t179 199t269.5 74.5q102 0 188 -44
t136 -119v561z" />
    <glyph glyph-name="e" unicode="e" horiz-adv-x="1263" 
d="M680 -23q-144 0 -262.5 43t-197 118t-121 174.5t-42.5 213.5t41.5 215t116.5 177t187.5 120.5t246.5 44.5q163 0 289.5 -64t201 -195t74.5 -314q0 -31 -2 -45h-817q5 -79 90 -142t226 -63q154 0 290 115q15 -15 88.5 -101.5t86.5 -99.5q-185 -197 -496 -197zM647 821
q-54 0 -104 -15.5t-91.5 -55t-52.5 -97.5h484q-5 57 -43 96.5t-87.5 55.5t-105.5 16z" />
    <glyph glyph-name="f" unicode="f" horiz-adv-x="839" 
d="M537 1153v-109h225v-249h-221v-795h-353v795h-135v249h135v66q0 89 24 159t62.5 113t92 71t107.5 39t114 11q162 0 259 -84t97 -225q0 -38 -10 -68h-260q8 11 8 33q0 37 -18.5 59.5t-55.5 22.5q-38 0 -54.5 -26t-16.5 -62z" />
    <glyph glyph-name="g" unicode="g" horiz-adv-x="1363" 
d="M897 145q-110 -168 -324 -168q-150 0 -268.5 75t-182 201.5t-63.5 278.5q0 113 36.5 213.5t101.5 175t161.5 118.5t210.5 44q100 0 187 -44.5t139 -118.5v141h352v-942q0 -126 -32 -227t-87 -168.5t-132 -112.5t-163.5 -64.5t-185.5 -19.5q-315 0 -512 143l133 254
q63 -46 150.5 -80t171.5 -34q74 0 126 14.5t94 50.5t63.5 103t23.5 167zM414 532q0 -119 67.5 -199.5t175.5 -80.5q107 0 175.5 72.5t68.5 197.5q0 129 -68.5 208t-179.5 79q-110 0 -174.5 -80.5t-64.5 -196.5z" />
    <glyph glyph-name="h" unicode="h" 
d="M119 0v1481h352v-559q106 161 315 161q89 0 157 -29.5t108.5 -75.5t66 -112.5t34.5 -131.5t9 -140v-594h-352v573q0 102 -39 165t-129 63q-88 0 -129 -64t-41 -164v-573h-352z" />
    <glyph glyph-name="i" unicode="i" horiz-adv-x="593" 
d="M473 0h-352v1061h352v-1061zM88 1323q0 79 57 129.5t154 50.5t154 -50.5t57 -129.5q0 -78 -59 -128t-152 -50q-96 0 -153.5 49.5t-57.5 128.5z" />
    <glyph glyph-name="j" unicode="j" horiz-adv-x="673" 
d="M201 -123v1184h352v-1141q0 -89 -24 -159t-62 -113t-91 -71t-107 -39t-113 -11q-166 0 -268.5 81.5t-102.5 227.5q0 30 10 68h266q-2 -8 -2 -33q0 -82 72 -82q38 0 54 25.5t16 62.5zM166 1323q0 79 57 129.5t154 50.5t154 -50.5t57 -129.5q0 -78 -59 -128t-152 -50
q-96 0 -153.5 49.5t-57.5 128.5z" />
    <glyph glyph-name="k" unicode="k" 
d="M469 1481v-848q59 87 285 428h379v-47l-340 -441l122 -204q34 -51 65 -69.5t75 -18.5q20 0 52.5 9t55.5 25q66 -123 119 -231q-127 -107 -297 -107q-130 0 -219.5 60.5t-173.5 214.5l-123 223v-475h-352v1481h352z" />
    <glyph glyph-name="l" unicode="l" horiz-adv-x="589" 
d="M471 0h-352v1481h352v-1481z" />
    <glyph glyph-name="m" unicode="m" horiz-adv-x="1857" 
d="M1255 801q-143 0 -143 -223v-578h-352v580q0 93 -34.5 157t-109.5 64q-145 0 -145 -223v-578h-352v1061h352v-141q41 78 111.5 120.5t156.5 42.5q213 0 305 -168q105 168 332 168q85 0 152 -29.5t108.5 -76.5t68.5 -112.5t37.5 -131.5t10.5 -139v-594h-352v580
q0 59 -12.5 106.5t-46.5 81t-87 33.5z" />
    <glyph glyph-name="n" unicode="n" 
d="M119 0v1061h352v-139q106 161 315 161q89 0 157 -29.5t108.5 -75.5t66 -112.5t34.5 -131.5t9 -140v-594h-352v573q0 41 -8.5 79t-26.5 72.5t-52.5 55.5t-80.5 21q-88 0 -129 -64t-41 -164v-573h-352z" />
    <glyph glyph-name="o" unicode="o" horiz-adv-x="1306" 
d="M1251 530q0 -112 -47 -214.5t-127 -176.5t-191 -118t-233 -44t-232.5 43.5t-190.5 117.5t-127.5 176.5t-47.5 215.5t47.5 215.5t127.5 176.5t190.5 117.5t232.5 43.5t233 -44t191 -118t127 -176.5t47 -214.5zM395 530q0 -117 71.5 -189.5t186.5 -72.5t186.5 72.5
t71.5 189.5t-71.5 191t-186.5 74t-186.5 -74t-71.5 -191z" />
    <glyph glyph-name="p" unicode="p" horiz-adv-x="1363" 
d="M950 528q0 119 -65.5 198t-175.5 79q-108 0 -177 -71t-69 -195q0 -129 68.5 -207t181.5 -78q108 0 172.5 78t64.5 196zM471 -449h-352v1510h352v-146q110 168 322 168q150 0 267.5 -73.5t181 -200t63.5 -283.5q0 -153 -62 -277t-179 -198t-269 -74q-102 0 -187.5 44
t-136.5 118v-588z" />
    <glyph glyph-name="q" unicode="q" horiz-adv-x="1357" 
d="M414 528q0 -119 63 -196.5t172 -77.5q113 0 181.5 78t68.5 207q0 124 -68.5 195t-175.5 71q-112 0 -176.5 -78.5t-64.5 -198.5zM1243 -449h-352v588q-51 -74 -136.5 -118t-187.5 -44q-152 0 -269 74t-178 198t-61 277q0 157 63.5 283.5t181 200t267.5 73.5
q210 0 320 -168v146h352v-1510z" />
    <glyph glyph-name="r" unicode="r" horiz-adv-x="851" 
d="M459 1061v-227q12 71 48.5 123t84 77.5t88 37t74.5 11.5q36 0 71 -6v-344q-50 15 -133 15q-103 0 -162 -59.5t-59 -158.5v-530h-352v1061h340z" />
    <glyph glyph-name="s" unicode="s" horiz-adv-x="1009" 
d="M43 276l256 103q19 -78 75 -112t128 -34q52 0 87.5 17.5t35.5 52.5q0 23 -16 37t-60 33l-176 73q-283 105 -283 316q0 144 124.5 232.5t307.5 88.5q287 0 404 -241l-264 -101q-18 53 -59.5 74t-84.5 21t-71.5 -20t-28.5 -52q0 -28 21.5 -44.5t66.5 -31.5l141 -57
q307 -110 307 -328q0 -103 -64.5 -178.5t-166 -111.5t-225.5 -36q-77 0 -146.5 16t-132 49.5t-109 93t-67.5 140.5z" />
    <glyph glyph-name="t" unicode="t" horiz-adv-x="966" 
d="M952 315q0 -158 -100.5 -248t-269.5 -90q-60 0 -112 9.5t-103.5 36t-88 68t-59 110t-22.5 157.5v437h-154v266h184l47 260h273v-260h278v-266h-278v-455q0 -37 16.5 -59.5t50.5 -22.5q72 0 72 92q0 55 -16 92h252q26 -44 30 -127z" />
    <glyph glyph-name="u" unicode="u" 
d="M1147 1061v-1061h-352v139q-107 -162 -314 -162q-90 0 -158.5 29.5t-109 76t-66 112.5t-34.5 130.5t-9 139.5v596h353v-576q0 -101 39.5 -164t128.5 -63q90 0 130 63.5t40 165.5v574h352z" />
    <glyph glyph-name="v" unicode="v" horiz-adv-x="1269" 
d="M1257 1061l-454 -1061h-334l-459 1061h383l240 -674l241 674h383z" />
    <glyph glyph-name="w" unicode="w" horiz-adv-x="1695" 
d="M567 477l168 555h223l170 -555l156 584h389l-377 -1061h-284l-164 549l-164 -549h-285l-376 1061h387z" />
    <glyph glyph-name="x" unicode="x" horiz-adv-x="1269" 
d="M891 0l-256 319l-256 -319h-381v37l426 510l-383 481v33h397l197 -268l196 268h398v-33l-383 -481l426 -510v-37h-381z" />
    <glyph glyph-name="y" unicode="y" horiz-adv-x="1243" 
d="M449 94l-439 967h391l224 -615l233 615h379l-674 -1510h-354z" />
    <glyph glyph-name="z" unicode="z" horiz-adv-x="1212" 
d="M1151 274v-274h-1088v199l549 587h-526v275h1034v-203l-547 -584h578z" />
    <glyph glyph-name="braceleft" unicode="{" horiz-adv-x="825" 
d="M389 616v-20q89 -18 129.5 -71.5t40.5 -112.5q0 -50 -19 -112.5t-42.5 -112.5t-42.5 -112.5t-19 -113.5q0 -141 137 -141q66 0 199 16v-215q-198 -18 -250 -18q-80 0 -149.5 19.5t-126 58t-89 104t-32.5 149.5q0 72 20 137.5t54.5 148t52.5 149.5q8 24 8 43t-5 31.5
t-17.5 22.5t-25.5 16t-33 10.5t-36.5 7.5t-39 6.5t-37.5 7.5v184q15 4 37.5 7.5t39 6.5t36.5 8t33 10.5t25.5 15.5t17.5 23t5 32t-8 43q-18 68 -52.5 149.5t-54.5 147t-20 137.5q0 84 32.5 149.5t88.5 104.5t126 58.5t150 19.5q41 0 250 -19v-215q-141 17 -199 17
q-137 0 -137 -142q0 -51 19 -113.5t42.5 -112.5t42.5 -112t19 -112q0 -36 -14 -70.5t-54.5 -68t-101.5 -46.5z" />
    <glyph glyph-name="bar" unicode="|" horiz-adv-x="487" 
d="M360 -449h-233v2001h233v-2001z" />
    <glyph glyph-name="braceright" unicode="}" horiz-adv-x="825" 
d="M436 596v20q-61 13 -101.5 46.5t-54.5 68t-14 70.5q0 50 19 112t42.5 112t42.5 112.5t19 113.5q0 142 -137 142q-53 0 -199 -17v215q209 19 250 19q80 0 150 -19.5t126 -58.5t88.5 -104.5t32.5 -149.5q0 -72 -20 -137.5t-54.5 -147t-52.5 -149.5q-8 -24 -8 -43t5 -32
t17.5 -23t26 -15.5t33.5 -10.5t36.5 -8t39 -6.5t37.5 -7.5v-184q-15 -4 -37.5 -7.5t-39 -6.5t-36.5 -7.5t-33.5 -10.5t-26 -16t-17.5 -22.5t-5 -31.5t8 -43q18 -67 52.5 -149.5t54.5 -148t20 -137.5q0 -84 -32.5 -149.5t-89 -104t-126 -58t-149.5 -19.5q-52 0 -250 18v215
q137 -16 199 -16q137 0 137 141q0 51 -19 113.5t-42.5 112.5t-42.5 112.5t-19 112.5q0 59 40.5 112.5t129.5 71.5z" />
    <glyph glyph-name="asciitilde" unicode="~" horiz-adv-x="1163" 
d="M940 805l135 -213q-36 -85 -116.5 -134.5t-174.5 -49.5q-58 0 -113 21t-92 45.5t-87 45.5t-99 21q-53 0 -100 -30.5t-74 -80.5l-133 217q35 79 113.5 136t171.5 57q60 0 117.5 -21t95.5 -45.5t86 -45.5t90 -21q102 0 180 98z" />
    <glyph glyph-name="uni00A0" unicode="&#xa0;" horiz-adv-x="479" 
 />
    <glyph glyph-name="exclamdown" unicode="&#xa1;" horiz-adv-x="608" 
d="M428 569l90 -852v-90h-426v90l90 852h246zM92 897q0 80 58.5 133t150.5 53q91 0 152 -53.5t61 -132.5q0 -82 -61 -136t-152 -54q-92 0 -150.5 54t-58.5 136z" />
    <glyph glyph-name="cent" unicode="&#xa2;" horiz-adv-x="1189" 
d="M70 530q0 116 44.5 217.5t123 175.5t192.5 117t246 43l33 174h155l-35 -190q160 -40 291 -145q-13 -22 -83 -116t-83 -116q-66 61 -178 90l-92 -510h14q143 0 256 99q13 -22 83 -116.5t83 -115.5q-196 -160 -442 -160q-8 0 -24 1.5t-23 1.5l-33 -183h-152l37 205
q-191 54 -302 196t-111 332zM424 530q0 -142 115 -217l84 467q-93 -24 -146 -89t-53 -161z" />
    <glyph glyph-name="sterling" unicode="&#xa3;" horiz-adv-x="1312" 
d="M985 561h-283q13 -44 13 -80q0 -53 -26 -109t-68 -98q88 11 251 11h363v-285h-1161v276q309 29 309 193q0 20 -14 92h-254v156h184q-78 200 -78 315q0 187 144 305.5t360 118.5q98 0 179 -27.5t134.5 -72.5t91 -104.5t54 -121.5t16.5 -126h-323q0 63 -40.5 101t-119.5 38
q-69 0 -109.5 -32.5t-40.5 -96.5q0 -91 82 -297h336v-156z" />
    <glyph glyph-name="currency" unicode="&#xa4;" horiz-adv-x="1146" 
d="M573 510q66 0 111 47t45 113q0 69 -45 116.5t-111 47.5t-110.5 -47.5t-44.5 -116.5q0 -66 44.5 -113t110.5 -47zM573 279q-115 0 -186 40l-143 -141l-164 170l139 137q-43 76 -43 187q0 89 41 176l-129 135l170 172l125 -133q75 45 190 45q113 0 191 -45l125 133
l168 -172l-129 -135q41 -87 41 -176q0 -111 -43 -187l141 -137l-164 -170l-145 141q-71 -40 -185 -40z" />
    <glyph glyph-name="yen" unicode="&#xa5;" horiz-adv-x="1581" 
d="M1303 211h-330v-211h-363v211h-331v162h331v149h-331v162h260l-484 700v50h412q60 -102 324 -533q186 296 325 533h410v-50l-486 -700h263v-162h-330v-149h330v-162z" />
    <glyph glyph-name="brokenbar" unicode="&#xa6;" horiz-adv-x="512" 
d="M373 717h-234v835h234v-835zM373 -449h-234v836h234v-836z" />
    <glyph glyph-name="section" unicode="&#xa7;" horiz-adv-x="1234" 
d="M70 -88l114 219q223 -170 441 -170q98 0 147 31.5t49 77.5q0 39 -38.5 64t-112.5 44l-185 47q-81 21 -145.5 54t-104.5 69.5t-66.5 78.5t-37 80.5t-10.5 76.5q0 70 37 136t108 116q-143 98 -143 251q0 111 68.5 196.5t179.5 129t243 43.5q116 0 243.5 -32.5t238.5 -96.5
l-121 -231q-207 100 -352 100q-79 0 -128 -26t-49 -70q0 -30 26.5 -56t98.5 -47l177 -41q193 -49 292 -135t99 -221q0 -76 -31 -149t-100 -123q137 -103 137 -246q0 -161 -140.5 -271t-383.5 -110q-175 0 -316.5 58.5t-234.5 152.5zM842 559q0 35 -24 68.5t-85 48.5l-211 49
q-100 -41 -100 -125q0 -82 113 -111l219 -57q40 18 64 53.5t24 73.5z" />
    <glyph glyph-name="dieresis" unicode="&#xa8;" horiz-adv-x="1439" 
d="M268 1364q0 73 53.5 121.5t137.5 48.5q78 0 132 -49t54 -121q0 -71 -53.5 -118.5t-132.5 -47.5q-84 0 -137.5 47t-53.5 119zM793 1364q0 72 53.5 121t132.5 49q80 0 135 -49t55 -121q0 -71 -55 -118.5t-135 -47.5t-133 47t-53 119z" />
    <glyph glyph-name="copyright" unicode="&#xa9;" horiz-adv-x="1605" 
d="M406 717q0 161 113 275t296 114q84 0 149 -27t136 -80l-86 -151q-84 70 -197 70q-95 0 -150 -56.5t-55 -144.5t55 -144.5t150 -56.5q109 0 197 70l86 -152q-71 -53 -136 -79.5t-149 -26.5q-183 0 -296 114t-113 275zM80 717q0 151 56 287.5t151.5 235.5t230 157.5
t285.5 58.5t285.5 -58.5t230 -157.5t151.5 -235.5t56 -287.5q0 -202 -94.5 -371.5t-261 -269t-367.5 -99.5t-367.5 99.5t-261 269t-94.5 371.5zM221 717q0 -163 76.5 -302t210.5 -221.5t295 -82.5t295 82.5t210 221.5t76 302t-76 302t-210 221.5t-295 82.5t-295 -82.5
t-210.5 -221.5t-76.5 -302z" />
    <glyph glyph-name="ordfeminine" unicode="&#xaa;" horiz-adv-x="888" 
d="M811 733h-242v109q-30 -59 -94.5 -90t-124.5 -31q-97 0 -167 49.5t-103 129.5t-33 181q0 157 79 260t224 103q60 0 124.5 -31t94.5 -90v109h242v-699zM573 1079q0 70 -40 110t-103 40q-59 0 -96 -42.5t-37 -103.5q0 -62 37 -105.5t96 -43.5q60 0 99.5 39t43.5 106z
M92 406v163h707v-163h-707z" />
    <glyph glyph-name="guillemotleft" unicode="&#xab;" horiz-adv-x="1333" 
d="M655 602l418 481l193 -180l-289 -336l285 -329l-189 -185l-418 482v67zM59 602l418 481l193 -180l-289 -336l287 -329l-191 -185l-418 482v67z" />
    <glyph glyph-name="logicalnot" unicode="&#xac;" horiz-adv-x="1277" 
d="M92 698v291h1057l-2 -618h-291v327h-764z" />
    <glyph glyph-name="uni00AD" unicode="&#xad;" horiz-adv-x="1048" 
d="M119 477v293h813v-293h-813z" />
    <glyph glyph-name="registered" unicode="&#xae;" horiz-adv-x="1605" 
d="M729 745h113q29 0 46 27t17 62q0 37 -17 63.5t-46 26.5h-113v-179zM1112 834q0 -79 -37 -139.5t-104 -86.5l153 -225v-41h-202l-146 244h-47v-244h-205v748h338q118 0 184 -73.5t66 -182.5zM80 717q0 151 56 287.5t151.5 235.5t230 157.5t285.5 58.5t285.5 -58.5
t230 -157.5t151.5 -235.5t56 -287.5q0 -202 -94.5 -371.5t-261 -269t-367.5 -99.5t-367.5 99.5t-261 269t-94.5 371.5zM221 717q0 -163 76.5 -302t210.5 -221.5t295 -82.5t295 82.5t210 221.5t76 302t-76 302t-210 221.5t-295 82.5t-295 -82.5t-210.5 -221.5t-76.5 -302z
" />
    <glyph glyph-name="macron" unicode="&#xaf;" horiz-adv-x="1181" 
d="M258 1470h666v-225h-666v225z" />
    <glyph glyph-name="degree" unicode="&#xb0;" horiz-adv-x="841" 
d="M68 1130q0 148 101 249.5t253 101.5t253 -101.5t101 -249.5q0 -149 -100.5 -248.5t-253.5 -99.5t-253.5 99.5t-100.5 248.5zM266 1130q0 -68 43 -114.5t113 -46.5t114 46.5t44 114.5q0 69 -44 116.5t-114 47.5t-113 -47.5t-43 -116.5z" />
    <glyph glyph-name="plusminus" unicode="&#xb1;" horiz-adv-x="1286" 
d="M797 459h-308v258h-366v250h366v256h308v-256h366v-250h-366v-258zM1163 111h-1040v254h1040v-254z" />
    <glyph glyph-name="twosuperior" unicode="&#xb2;" horiz-adv-x="673" 
d="M451 1217l-97 -80q50 4 78 4h186v-162h-552l-19 113l275 254q81 73 81 127q0 29 -19.5 47t-49.5 18q-50 0 -74 -30t-24 -70h-185q0 48 14.5 94t45.5 87t86.5 66t128.5 25q123 0 199.5 -64.5t76.5 -170.5q0 -131 -151 -258z" />
    <glyph glyph-name="threesuperior" unicode="&#xb3;" horiz-adv-x="667" 
d="M301 1126q46 0 79.5 31t33.5 68q0 41 -29.5 67.5t-71.5 26.5q-33 0 -82 -16l-69 92l172 139h-266v162h522v-113l-174 -153q88 -10 144 -67.5t56 -135.5q0 -108 -86.5 -185t-228.5 -77q-85 0 -150.5 20t-121.5 72l94 123q37 -25 74 -38t55 -14.5t49 -1.5z" />
    <glyph glyph-name="acute" unicode="&#xb4;" horiz-adv-x="1114" 
d="M459 1542h360l-313 -356h-242z" />
    <glyph glyph-name="mu" unicode="&#xb5;" horiz-adv-x="1288" 
d="M1165 1061v-1061h-352v139q-107 -162 -313 -162q-17 0 -62 5v-330h-315v1409h352v-576q0 -101 39.5 -164t128.5 -63q90 0 130 63.5t40 165.5v574h352z" />
    <glyph glyph-name="paragraph" unicode="&#xb6;" horiz-adv-x="1390" 
d="M403 1434h336v-48q-35 -28 -54 -63t-19 -98v-1514h-193v1032h-70q-144 0 -244 99.5t-100 242.5q0 148 99.5 248.5t244.5 100.5zM989 1194v-1483h-188v1491q0 124 76 189t190 65q129 0 197.5 -64t68.5 -167q0 -23 -2 -35q-2 -26 -20 -74h-185q23 51 23 86t-24 54.5
t-56 19.5q-34 0 -57 -21.5t-23 -60.5z" />
    <glyph glyph-name="periodcentered" unicode="&#xb7;" horiz-adv-x="606" 
d="M92 573q0 85 59.5 139t151.5 54q91 0 151 -54.5t60 -138.5q0 -80 -60 -133t-151 -53q-92 0 -151.5 53t-59.5 133z" />
    <glyph glyph-name="cedilla" unicode="&#xb8;" horiz-adv-x="1021" 
d="M444 20v52h131q127 -41 188.5 -121.5t61.5 -163.5q0 -54 -20 -98.5t-51 -72t-71.5 -46t-78.5 -26t-74 -7.5q-112 0 -200 60t-131 165l161 84q50 -104 134 -104q48 0 76 27t28 77q0 20 -6.5 42t-22.5 47.5t-48 48t-77 36.5z" />
    <glyph glyph-name="onesuperior" unicode="&#xb9;" horiz-adv-x="495" 
d="M61 1419l-53 148l299 129h113v-717h-201v504z" />
    <glyph glyph-name="ordmasculine" unicode="&#xba;" horiz-adv-x="876" 
d="M49 1083q0 149 116.5 256t270.5 107q100 0 190 -48.5t144.5 -133t54.5 -181.5q0 -100 -54.5 -185.5t-144 -134t-190.5 -48.5q-155 0 -271 107.5t-116 260.5zM299 1083q0 -64 38 -105.5t99 -41.5q60 0 98.5 42t38.5 105q0 61 -39 103.5t-98 42.5q-60 0 -98.5 -42.5
t-38.5 -103.5zM80 406v163h717v-163h-717z" />
    <glyph glyph-name="guillemotright" unicode="&#xbb;" horiz-adv-x="1333" 
d="M260 1083l418 -481v-67l-418 -482l-188 185l284 329l-288 336zM856 1083l418 -481v-67l-418 -482l-190 185l286 329l-288 336z" />
    <glyph glyph-name="onequarter" unicode="&#xbc;" horiz-adv-x="1761" 
d="M1509 1505l-1120 -1585h-199l1119 1585h200zM111 1157l-54 148l299 129h113v-717h-201v504zM1214 326h150v178zM1350 178h-340v107l352 432h188v-391h142v-148h-142v-178h-200v178z" />
    <glyph glyph-name="onehalf" unicode="&#xbd;" horiz-adv-x="1751" 
d="M1509 1505l-1120 -1585h-199l1119 1585h200zM111 1157l-54 148l299 129h113v-717h-201v504zM1501 238l-96 -80q50 4 78 4h186v-162h-553l-18 113l274 254q82 74 82 127q0 29 -20 47t-50 18q-50 0 -74 -30t-24 -70h-184q0 48 14.5 94t45 87t86 66t128.5 25q123 0 200 -65
t77 -170q0 -130 -152 -258z" />
    <glyph glyph-name="threequarters" unicode="&#xbe;" horiz-adv-x="1847" 
d="M1602 1505l-1121 -1585h-198l1118 1585h201zM1307 326h149v178zM1442 178h-340v107l352 432h188v-391h142v-148h-142v-178h-200v178zM338 864q46 0 79.5 31t33.5 68q0 41 -29.5 67.5t-71.5 26.5q-30 0 -82 -17l-69 93l172 139h-267v162h523v-113l-174 -154
q88 -10 144 -67t56 -135q0 -108 -86.5 -185.5t-228.5 -77.5q-85 0 -150 20.5t-122 72.5l94 123q37 -25 74 -38t55 -14.5t49 -1.5z" />
    <glyph glyph-name="questiondown" unicode="&#xbf;" horiz-adv-x="1101" 
d="M453 569h299v-65q-5 -72 -33 -123t-113 -107q-102 -66 -147 -117t-45 -120q0 -68 40.5 -102.5t104.5 -34.5q60 0 108 34.5t48 96.5q0 40 -21 90h326q22 -53 22 -119q0 -67 -30 -135t-87 -127.5t-152.5 -97t-213.5 -37.5q-222 0 -362 113t-140 296q0 132 81.5 237
t262.5 218q22 13 37 40t15 60zM813 897q0 -82 -58.5 -136t-150.5 -54q-91 0 -152 54t-61 136q0 79 61 132.5t152 53.5q92 0 150.5 -53t58.5 -133z" />
    <glyph glyph-name="Agrave" unicode="&#xc0;" horiz-adv-x="1456" 
d="M377 0h-375l555 1434h338l563 -1434h-381l-98 254h-508zM727 1049l-178 -504h348zM375 1847h352l166 -309h-240z" />
    <glyph glyph-name="Aacute" unicode="&#xc1;" horiz-adv-x="1456" 
d="M377 0h-375l555 1434h338l563 -1434h-381l-98 254h-508zM727 1049l-178 -504h348zM719 1847h352l-278 -309h-240z" />
    <glyph glyph-name="Acircumflex" unicode="&#xc2;" horiz-adv-x="1456" 
d="M377 0h-375l555 1434h338l563 -1434h-381l-98 254h-508zM727 1049l-178 -504h348zM565 1847h330l205 -309h-219l-150 154l-149 -154h-220z" />
    <glyph glyph-name="Atilde" unicode="&#xc3;" horiz-adv-x="1456" 
d="M377 0h-375l555 1434h338l563 -1434h-381l-98 254h-508zM727 1049l-178 -504h348zM985 1860l162 -52q-18 -61 -36.5 -103t-47 -80t-70 -56.5t-96.5 -18.5t-114.5 20.5t-106.5 41t-74 20.5t-46.5 -6.5t-34 -23.5t-20.5 -27t-20 -37l-164 51q18 60 37.5 103t48 80t70 56
t94.5 19q55 0 114 -21t107 -42t76 -21q14 0 26 2.5t21 5t18 10.5t13.5 11.5t12.5 15.5t10 15.5t10.5 18.5t9.5 18z" />
    <glyph glyph-name="Adieresis" unicode="&#xc4;" horiz-adv-x="1456" 
d="M377 0h-375l555 1434h338l563 -1434h-381l-98 254h-508zM727 1049l-178 -504h348zM289 1694q0 72 49 115.5t133 43.5q79 0 129.5 -44t50.5 -115t-50.5 -113.5t-129.5 -42.5q-85 0 -133.5 42t-48.5 114zM813 1694q0 72 49 115.5t129 43.5q81 0 133 -44t52 -115t-52 -113.5
t-133 -42.5q-80 0 -129 42.5t-49 113.5z" />
    <glyph glyph-name="Aring" unicode="&#xc5;" horiz-adv-x="1456" 
d="M899 1423l559 -1423h-381l-98 256v-2h-508v2l-94 -256h-375l551 1425q-94 64 -94 181q0 109 76.5 171t191.5 62q117 0 192.5 -62t75.5 -171q0 -117 -96 -183zM727 1049l-178 -504h348q-15 43 -76.5 224t-93.5 280zM614 1606q0 -46 31 -69.5t82 -23.5q50 0 80.5 24
t30.5 69q0 46 -31 70t-80 24q-51 0 -82 -24t-31 -70z" />
    <glyph glyph-name="AE" unicode="&#xc6;" horiz-adv-x="1912" 
d="M-18 0l755 1434h1086v-299h-555v-299h473v-283h-473v-256h555v-297h-918v418h-327l-218 -418h-378zM715 707h190v391z" />
    <glyph glyph-name="Ccedilla" unicode="&#xc7;" horiz-adv-x="1419" 
d="M70 717q0 149 56 283.5t156.5 235.5t250.5 160.5t327 59.5q161 0 284.5 -51t244.5 -150l-177 -256q-152 140 -352 140q-192 0 -309 -120.5t-117 -301.5t117 -301.5t309 -120.5q201 0 352 139l177 -256q-106 -86 -210 -134.5t-233 -61.5q90 -84 90 -195q0 -54 -20 -98.5
t-51 -72t-71.5 -46t-78.5 -26t-74 -7.5q-112 0 -200 60t-131 165l161 84q50 -104 134 -104q48 0 76 27t28 77q0 33 -18.5 72t-61.5 68q-150 20 -275 86.5t-208.5 164t-129.5 221t-46 259.5z" />
    <glyph glyph-name="Egrave" unicode="&#xc8;" horiz-adv-x="1228" 
d="M1139 0h-987v1434h987v-299h-625v-285h543v-283h-543v-268h625v-299zM283 1847h352l166 -309h-240z" />
    <glyph glyph-name="Eacute" unicode="&#xc9;" horiz-adv-x="1228" 
d="M1139 0h-987v1434h987v-299h-625v-285h543v-283h-543v-268h625v-299zM600 1847h352l-278 -309h-240z" />
    <glyph glyph-name="Ecircumflex" unicode="&#xca;" horiz-adv-x="1228" 
d="M1139 0h-987v1434h987v-299h-625v-285h543v-283h-543v-268h625v-299zM477 1847h330l205 -309h-219l-150 154l-149 -154h-220z" />
    <glyph glyph-name="Edieresis" unicode="&#xcb;" horiz-adv-x="1228" 
d="M1139 0h-987v1434h987v-299h-625v-285h543v-283h-543v-268h625v-299zM201 1694q0 72 49 115.5t133 43.5q79 0 129.5 -44t50.5 -115t-50.5 -113.5t-129.5 -42.5q-85 0 -133.5 42t-48.5 114zM725 1694q0 72 49 115.5t129 43.5t132 -44t52 -115t-51.5 -113.5t-132.5 -42.5
q-80 0 -129 42.5t-49 113.5z" />
    <glyph glyph-name="Igrave" unicode="&#xcc;" horiz-adv-x="665" 
d="M514 1434v-1434h-362v1434h362zM-4 1847h352l166 -309h-240z" />
    <glyph glyph-name="Iacute" unicode="&#xcd;" horiz-adv-x="665" 
d="M514 1434v-1434h-362v1434h362zM315 1847h353l-279 -309h-239z" />
    <glyph glyph-name="Icircumflex" unicode="&#xce;" horiz-adv-x="665" 
d="M514 1434v-1434h-362v1434h362zM168 1847h330l204 -309h-219l-149 154l-150 -154h-219z" />
    <glyph glyph-name="Idieresis" unicode="&#xcf;" horiz-adv-x="665" 
d="M514 1434v-1434h-362v1434h362zM-109 1694q0 72 49.5 115.5t133.5 43.5q79 0 129.5 -44t50.5 -115t-50.5 -113.5t-129.5 -42.5q-85 0 -134 42t-49 114zM416 1694q0 72 49 115.5t129 43.5t132 -44t52 -115t-51.5 -113.5t-132.5 -42.5q-80 0 -129 42.5t-49 113.5z" />
    <glyph glyph-name="Eth" unicode="&#xd0;" horiz-adv-x="1599" 
d="M809 0h-621v582h-172v252h172v600h621q202 0 368 -96.5t259.5 -261t93.5 -359.5q0 -196 -93.5 -360.5t-259.5 -260.5t-368 -96zM551 1135v-301h295v-252h-295v-283h190q198 0 311 117t113 301t-113 301t-311 117h-190z" />
    <glyph glyph-name="Ntilde" unicode="&#xd1;" horiz-adv-x="1515" 
d="M1085 0l-571 797v-797h-362v1434h280l569 -787v787h363v-1434h-279zM1010 1860l161 -52q-18 -62 -36.5 -103.5t-46.5 -79.5t-69.5 -56.5t-96.5 -18.5t-114.5 20.5t-106.5 41t-74 20.5t-46.5 -6.5t-34 -23.5t-20.5 -27t-20 -37l-164 51q18 60 37.5 103t48 80t70 56
t94.5 19q55 0 114 -21t107 -42t76 -21q14 0 26 2.5t21 5t18 10.5t13.5 11.5t12.5 15.5t10 15.5t10.5 18.5t9.5 18z" />
    <glyph glyph-name="Ograve" unicode="&#xd2;" horiz-adv-x="1658" 
d="M829 -23q-162 0 -304.5 59t-241.5 159.5t-156 236t-57 285.5t57 285.5t156 235.5t241.5 159t304.5 59t304.5 -59t242 -159t156.5 -235.5t57 -285.5t-57 -285.5t-156.5 -236t-242 -159.5t-304.5 -59zM829 299q171 0 284.5 119.5t113.5 298.5t-113.5 298.5t-284.5 119.5
t-283 -119.5t-112 -298.5t112 -298.5t283 -119.5zM434 1847h352l166 -309h-239z" />
    <glyph glyph-name="Oacute" unicode="&#xd3;" horiz-adv-x="1658" 
d="M829 -23q-162 0 -304.5 59t-241.5 159.5t-156 236t-57 285.5t57 285.5t156 235.5t241.5 159t304.5 59t304.5 -59t242 -159t156.5 -235.5t57 -285.5t-57 -285.5t-156.5 -236t-242 -159.5t-304.5 -59zM829 299q171 0 284.5 119.5t113.5 298.5t-113.5 298.5t-284.5 119.5
t-283 -119.5t-112 -298.5t112 -298.5t283 -119.5zM834 1847h352l-279 -309h-239z" />
    <glyph glyph-name="Ocircumflex" unicode="&#xd4;" horiz-adv-x="1658" 
d="M829 -23q-162 0 -304.5 59t-241.5 159.5t-156 236t-57 285.5t57 285.5t156 235.5t241.5 159t304.5 59t304.5 -59t242 -159t156.5 -235.5t57 -285.5t-57 -285.5t-156.5 -236t-242 -159.5t-304.5 -59zM829 299q171 0 284.5 119.5t113.5 298.5t-113.5 298.5t-284.5 119.5
t-283 -119.5t-112 -298.5t112 -298.5t283 -119.5zM664 1847h329l205 -309h-219l-150 154l-149 -154h-219z" />
    <glyph glyph-name="Otilde" unicode="&#xd5;" horiz-adv-x="1658" 
d="M829 -23q-162 0 -304.5 59t-241.5 159.5t-156 236t-57 285.5t57 285.5t156 235.5t241.5 159t304.5 59t304.5 -59t242 -159t156.5 -235.5t57 -285.5t-57 -285.5t-156.5 -236t-242 -159.5t-304.5 -59zM829 299q171 0 284.5 119.5t113.5 298.5t-113.5 298.5t-284.5 119.5
t-283 -119.5t-112 -298.5t112 -298.5t283 -119.5zM1081 1860l162 -52q-18 -61 -36.5 -103t-47 -80t-70 -56.5t-96.5 -18.5t-114.5 20.5t-106.5 41t-74 20.5t-46 -6.5t-34 -24t-20.5 -26.5t-19.5 -37l-164 51q18 60 37.5 103t48 80t70 56t94.5 19q55 0 114 -21t107 -42
t76 -21q14 0 26 2.5t21 5.5t17.5 10t13.5 11.5t12.5 15.5t10 15.5t10 18.5t9.5 18z" />
    <glyph glyph-name="Odieresis" unicode="&#xd6;" horiz-adv-x="1658" 
d="M829 -23q-162 0 -304.5 59t-241.5 159.5t-156 236t-57 285.5t57 285.5t156 235.5t241.5 159t304.5 59t304.5 -59t242 -159t156.5 -235.5t57 -285.5t-57 -285.5t-156.5 -236t-242 -159.5t-304.5 -59zM829 299q171 0 284.5 119.5t113.5 298.5t-113.5 298.5t-284.5 119.5
t-283 -119.5t-112 -298.5t112 -298.5t283 -119.5zM385 1694q0 72 49 115.5t133 43.5q79 0 130 -44t51 -115t-51 -113.5t-130 -42.5q-85 0 -133.5 42t-48.5 114zM909 1694q0 72 49 115.5t129 43.5q81 0 133 -44t52 -115t-52 -113.5t-133 -42.5q-80 0 -129 42.5t-49 113.5z
" />
    <glyph glyph-name="multiply" unicode="&#xd7;" horiz-adv-x="1153" 
d="M1073 356l-215 -213l-295 291l-295 -297l-192 195l297 295l-291 295l211 213l293 -295l297 299l192 -195l-297 -297z" />
    <glyph glyph-name="Oslash" unicode="&#xd8;" horiz-adv-x="1658" 
d="M829 -23q-182 0 -331 70l-105 -156l-157 109l100 150q-126 104 -196 250.5t-70 316.5q0 150 57 285.5t156 235.5t241.5 159t304.5 59q181 0 338 -74l95 140l157 -109l-90 -135q124 -103 192 -249t68 -312q0 -150 -57 -285.5t-156.5 -236t-242 -159.5t-304.5 -59zM434 717
q0 -163 94 -281l453 670q-79 29 -152 29q-171 0 -283 -119.5t-112 -298.5zM829 299q171 0 284.5 119.5t113.5 298.5q0 155 -92 274l-451 -667q70 -25 145 -25z" />
    <glyph glyph-name="Ugrave" unicode="&#xd9;" horiz-adv-x="1476" 
d="M979 1434h362v-887q0 -109 -31.5 -201.5t-87 -159.5t-131 -114.5t-165.5 -71t-189 -23.5q-124 0 -232.5 37.5t-191 107.5t-130.5 180t-48 245v887h363v-887q0 -125 68.5 -193.5t170.5 -68.5q103 0 172.5 68.5t69.5 193.5v887zM393 1847h352l166 -309h-239z" />
    <glyph glyph-name="Uacute" unicode="&#xda;" horiz-adv-x="1476" 
d="M979 1434h362v-887q0 -109 -31.5 -201.5t-87 -159.5t-131 -114.5t-165.5 -71t-189 -23.5q-124 0 -232.5 37.5t-191 107.5t-130.5 180t-48 245v887h363v-887q0 -125 68.5 -193.5t170.5 -68.5q103 0 172.5 68.5t69.5 193.5v887zM729 1847h352l-278 -309h-240z" />
    <glyph glyph-name="Ucircumflex" unicode="&#xdb;" horiz-adv-x="1476" 
d="M979 1434h362v-887q0 -109 -31.5 -201.5t-87 -159.5t-131 -114.5t-165.5 -71t-189 -23.5q-124 0 -232.5 37.5t-191 107.5t-130.5 180t-48 245v887h363v-887q0 -125 68.5 -193.5t170.5 -68.5q103 0 172.5 68.5t69.5 193.5v887zM573 1847h330l205 -309h-219l-150 154
l-149 -154h-219z" />
    <glyph glyph-name="Udieresis" unicode="&#xdc;" horiz-adv-x="1476" 
d="M979 1434h362v-887q0 -109 -31.5 -201.5t-87 -159.5t-131 -114.5t-165.5 -71t-189 -23.5q-124 0 -232.5 37.5t-191 107.5t-130.5 180t-48 245v887h363v-887q0 -125 68.5 -193.5t170.5 -68.5q103 0 172.5 68.5t69.5 193.5v887zM295 1694q0 72 49 115.5t133 43.5
q79 0 129.5 -44t50.5 -115t-50.5 -113.5t-129.5 -42.5q-85 0 -133.5 42t-48.5 114zM819 1694q0 72 49 115.5t129 43.5q81 0 133 -44t52 -115t-52 -113.5t-133 -42.5q-80 0 -129 42.5t-49 113.5z" />
    <glyph glyph-name="Yacute" unicode="&#xdd;" horiz-adv-x="1527" 
d="M440 1434l324 -533l326 533h409v-50l-553 -798v-586h-362v580l-555 804v50h411zM766 1847h352l-278 -309h-240z" />
    <glyph glyph-name="Thorn" unicode="&#xde;" horiz-adv-x="1306" 
d="M514 301v-301h-362v1434h362v-299h352q169 0 283.5 -125t114.5 -293q0 -109 -49 -203.5t-143.5 -153.5t-213.5 -59h-344zM514 586h260q58 0 90.5 39t32.5 92q0 56 -29.5 94.5t-93.5 38.5h-260v-264z" />
    <glyph glyph-name="germandbls" unicode="&#xdf;" horiz-adv-x="1300" 
d="M784 1059q0 74 -45.5 112.5t-107.5 38.5q-73 0 -116.5 -50.5t-43.5 -141.5v-1018h-352v1028q0 229 140 353t372 124q227 0 368.5 -114.5t141.5 -298.5q0 -79 -51 -159.5t-144 -119.5q133 -29 217 -134.5t84 -232.5q0 -198 -148 -322t-384 -124h-117l-43 285h141
q55 0 95 16t60.5 42.5t30 55.5t9.5 62q0 34 -17 70.5t-50 70.5t-92 56t-134 22l-25 172q110 22 160.5 78t50.5 129z" />
    <glyph glyph-name="agrave" unicode="&#xe0;" horiz-adv-x="1363" 
d="M414 532q0 -120 65.5 -199t175.5 -79q107 0 176.5 72t69.5 196q0 129 -68.5 206t-181.5 77q-107 0 -172 -78.5t-65 -194.5zM893 1061h352v-1061h-352v145q-110 -168 -322 -168q-149 0 -267 74t-181.5 200t-63.5 281q0 153 61.5 277.5t179 199t269.5 74.5q102 0 188 -44
t136 -119v141zM264 1542h363l192 -356h-241z" />
    <glyph glyph-name="aacute" unicode="&#xe1;" horiz-adv-x="1363" 
d="M414 532q0 -120 65.5 -199t175.5 -79q107 0 176.5 72t69.5 196q0 129 -68.5 206t-181.5 77q-107 0 -172 -78.5t-65 -194.5zM893 1061h352v-1061h-352v145q-110 -168 -322 -168q-149 0 -267 74t-181.5 200t-63.5 281q0 153 61.5 277.5t179 199t269.5 74.5q102 0 188 -44
t136 -119v141zM659 1542h361l-313 -356h-242z" />
    <glyph glyph-name="acircumflex" unicode="&#xe2;" horiz-adv-x="1363" 
d="M414 532q0 -120 65.5 -199t175.5 -79q107 0 176.5 72t69.5 196q0 129 -68.5 206t-181.5 77q-107 0 -172 -78.5t-65 -194.5zM893 1061h352v-1061h-352v145q-110 -168 -322 -168q-149 0 -267 74t-181.5 200t-63.5 281q0 153 61.5 277.5t179 199t269.5 74.5q102 0 188 -44
t136 -119v141zM504 1542h338l207 -356h-230l-145 188l-146 -188h-229z" />
    <glyph glyph-name="atilde" unicode="&#xe3;" horiz-adv-x="1363" 
d="M414 532q0 -120 65.5 -199t175.5 -79q107 0 176.5 72t69.5 196q0 129 -68.5 206t-181.5 77q-107 0 -172 -78.5t-65 -194.5zM893 1061h352v-1061h-352v145q-110 -168 -322 -168q-149 0 -267 74t-181.5 200t-63.5 281q0 153 61.5 277.5t179 199t269.5 74.5q102 0 188 -44
t136 -119v141zM926 1528l161 -53q-14 -50 -27.5 -86.5t-34.5 -72.5t-46 -58.5t-61 -36t-80 -13.5q-55 0 -114.5 21.5t-106.5 43t-74 21.5q-18 0 -33 -3t-27 -12t-19 -14.5t-16.5 -21.5t-12.5 -21.5t-13 -25.5l-164 51q18 63 37.5 108t48 83.5t70 58t94.5 19.5
q55 0 114 -21.5t107 -43t76 -21.5q11 0 21 1.5t18 3.5t16 7t12.5 7.5t11.5 10.5t10 11.5t8.5 13.5t7.5 13t8 15t8 15z" />
    <glyph glyph-name="adieresis" unicode="&#xe4;" horiz-adv-x="1363" 
d="M414 532q0 -120 65.5 -199t175.5 -79q107 0 176.5 72t69.5 196q0 129 -68.5 206t-181.5 77q-107 0 -172 -78.5t-65 -194.5zM893 1061h352v-1061h-352v145q-110 -168 -322 -168q-149 0 -267 74t-181.5 200t-63.5 281q0 153 61.5 277.5t179 199t269.5 74.5q102 0 188 -44
t136 -119v141zM223 1364q0 73 53.5 121.5t137.5 48.5q78 0 132 -49t54 -121q0 -71 -53.5 -118.5t-132.5 -47.5q-84 0 -137.5 47t-53.5 119zM748 1364q0 72 53.5 121t132.5 49q80 0 135 -49t55 -121q0 -71 -55 -118.5t-135 -47.5t-133 47t-53 119z" />
    <glyph glyph-name="aring" unicode="&#xe5;" horiz-adv-x="1363" 
d="M414 532q0 -120 65.5 -199t175.5 -79q107 0 176.5 72t69.5 196q0 129 -68.5 206t-181.5 77q-107 0 -172 -78.5t-65 -194.5zM893 1061h352v-1061h-352v145q-110 -168 -322 -168q-149 0 -267 74t-181.5 200t-63.5 281q0 153 61.5 277.5t179 199t269.5 74.5q102 0 188 -44
t136 -119v141zM406 1413q0 108 76.5 176t189.5 68q115 0 191.5 -68t76.5 -176t-76.5 -173.5t-191.5 -65.5q-113 0 -189.5 65.5t-76.5 173.5zM561 1413q0 -44 32 -74t79 -30q49 0 80.5 29.5t31.5 74.5q0 47 -31 75t-81 28q-48 0 -79.5 -28.5t-31.5 -74.5z" />
    <glyph glyph-name="ae" unicode="&#xe6;" horiz-adv-x="1947" 
d="M504 664q148 0 291 -58v31q0 75 -65.5 122.5t-151.5 47.5q-204 0 -334 -98l-117 213q168 161 487 161q245 0 375 -151q65 72 165 111.5t212 39.5q91 0 170 -21t147 -66.5t116.5 -112.5t76 -162.5t27.5 -212.5v-35h-783q5 -94 77.5 -157.5t211.5 -63.5q146 0 256 113
l186 -197q-181 -191 -460 -191q-300 0 -463 187q-162 -187 -455 -187q-178 0 -300 95t-122 256q0 103 62 180.5t164 116.5t227 39zM1358 840q-78 0 -142 -43t-86 -133h447q-16 91 -77 133.5t-142 42.5zM791 442q-90 37 -203 37q-92 0 -136 -35.5t-44 -91.5q0 -49 42 -80.5
t115 -31.5q158 0 252 90q-23 54 -26 112z" />
    <glyph glyph-name="ccedilla" unicode="&#xe7;" horiz-adv-x="1140" 
d="M55 530q0 155 76 280.5t216 199t317 73.5q245 0 442 -161q-14 -22 -83.5 -116t-82.5 -116q-112 98 -256 98q-123 0 -198.5 -71t-75.5 -187t75.5 -188t198.5 -72q143 0 256 99q13 -22 82.5 -116.5t83.5 -115.5q-160 -127 -344 -151q94 -87 94 -199q0 -54 -20 -98.5
t-51 -72t-71.5 -46t-78.5 -26t-74 -7.5q-112 0 -200.5 60t-131.5 165l162 84q50 -104 133 -104q48 0 76.5 27t28.5 77q0 34 -18 72.5t-60 67.5q-225 32 -360.5 182.5t-135.5 361.5z" />
    <glyph glyph-name="egrave" unicode="&#xe8;" horiz-adv-x="1263" 
d="M680 -23q-144 0 -262.5 43t-197 118t-121 174.5t-42.5 213.5t41.5 215t116.5 177t187.5 120.5t246.5 44.5q163 0 289.5 -64t201 -195t74.5 -314q0 -31 -2 -45h-817q5 -79 90 -142t226 -63q154 0 290 115q15 -15 88.5 -101.5t86.5 -99.5q-185 -197 -496 -197zM647 821
q-54 0 -104 -15.5t-91.5 -55t-52.5 -97.5h484q-5 57 -43 96.5t-87.5 55.5t-105.5 16zM225 1542h363l192 -356h-241z" />
    <glyph glyph-name="eacute" unicode="&#xe9;" horiz-adv-x="1263" 
d="M680 -23q-144 0 -262.5 43t-197 118t-121 174.5t-42.5 213.5t41.5 215t116.5 177t187.5 120.5t246.5 44.5q163 0 289.5 -64t201 -195t74.5 -314q0 -31 -2 -45h-817q5 -79 90 -142t226 -63q154 0 290 115q15 -15 88.5 -101.5t86.5 -99.5q-185 -197 -496 -197zM647 821
q-54 0 -104 -15.5t-91.5 -55t-52.5 -97.5h484q-5 57 -43 96.5t-87.5 55.5t-105.5 16zM666 1542h360l-313 -356h-242z" />
    <glyph glyph-name="ecircumflex" unicode="&#xea;" horiz-adv-x="1263" 
d="M680 -23q-144 0 -262.5 43t-197 118t-121 174.5t-42.5 213.5t41.5 215t116.5 177t187.5 120.5t246.5 44.5q163 0 289.5 -64t201 -195t74.5 -314q0 -31 -2 -45h-817q5 -79 90 -142t226 -63q154 0 290 115q15 -15 88.5 -101.5t86.5 -99.5q-185 -197 -496 -197zM647 821
q-54 0 -104 -15.5t-91.5 -55t-52.5 -97.5h484q-5 57 -43 96.5t-87.5 55.5t-105.5 16zM461 1542h338l207 -356h-230l-145 188l-146 -188h-229z" />
    <glyph glyph-name="edieresis" unicode="&#xeb;" horiz-adv-x="1263" 
d="M680 -23q-144 0 -262.5 43t-197 118t-121 174.5t-42.5 213.5t41.5 215t116.5 177t187.5 120.5t246.5 44.5q163 0 289.5 -64t201 -195t74.5 -314q0 -31 -2 -45h-817q5 -79 90 -142t226 -63q154 0 290 115q15 -15 88.5 -101.5t86.5 -99.5q-185 -197 -496 -197zM647 821
q-54 0 -104 -15.5t-91.5 -55t-52.5 -97.5h484q-5 57 -43 96.5t-87.5 55.5t-105.5 16zM182 1364q0 73 53.5 121.5t137.5 48.5q78 0 132 -49t54 -121q0 -71 -53.5 -118.5t-132.5 -47.5q-84 0 -137.5 47t-53.5 119zM707 1364q0 72 53.5 121t132.5 49q80 0 135 -49t55 -121
q0 -71 -55 -118.5t-135 -47.5t-133 47t-53 119z" />
    <glyph glyph-name="igrave" unicode="&#xec;" horiz-adv-x="591" 
d="M473 0h-352v1061h352v-1061zM-82 1542h363l192 -356h-242z" />
    <glyph glyph-name="iacute" unicode="&#xed;" horiz-adv-x="591" 
d="M471 0h-352v1061h352v-1061zM313 1542h361l-314 -356h-241z" />
    <glyph glyph-name="icircumflex" unicode="&#xee;" horiz-adv-x="593" 
d="M473 0h-352v1061h352v-1061zM129 1542h338l207 -356h-230l-145 188l-145 -188h-230z" />
    <glyph glyph-name="idieresis" unicode="&#xef;" horiz-adv-x="593" 
d="M473 0h-352v1061h352v-1061zM-152 1364q0 73 53.5 121.5t137.5 48.5q78 0 132 -49t54 -121q0 -71 -53.5 -118.5t-132.5 -47.5q-84 0 -137.5 47t-53.5 119zM373 1364q0 72 53.5 121t132.5 49q80 0 135.5 -49t55.5 -121q0 -71 -55.5 -118.5t-135.5 -47.5t-133 47t-53 119z
" />
    <glyph glyph-name="eth" unicode="&#xf0;" horiz-adv-x="1210" 
d="M516 1098l-229 -101l-66 140l172 75q-11 12 -77 70.5t-78 69.5l260 176q62 -52 200 -182l222 100l73 -141l-180 -78q338 -375 338 -723q0 -98 -29.5 -183.5t-81 -147.5t-120 -107t-148 -67t-164.5 -22q-115 0 -217.5 37t-177 102t-118.5 159t-44 202q0 88 31.5 163.5
t82 125.5t114 86t126.5 52t121 16q109 0 164 -31q-55 104 -174 209zM602 266q96 0 148.5 59.5t52.5 159.5q0 101 -52 157t-149 56t-150 -57t-53 -156q0 -100 53 -159.5t150 -59.5z" />
    <glyph glyph-name="ntilde" unicode="&#xf1;" 
d="M119 0v1061h352v-139q106 161 315 161q89 0 157 -29.5t108.5 -75.5t66 -112.5t34.5 -131.5t9 -140v-594h-352v573q0 41 -8.5 79t-26.5 72.5t-52.5 55.5t-80.5 21q-88 0 -129 -64t-41 -164v-573h-352zM887 1528l162 -53q-18 -64 -36.5 -107t-47 -82.5t-70 -58.5t-96.5 -19
t-114.5 21.5t-106.5 43t-74 21.5q-18 0 -33 -3t-27 -12t-19 -14.5t-16.5 -21.5t-12.5 -21.5t-13 -25.5l-164 51q18 63 37.5 108t48 83.5t70 58t94.5 19.5q55 0 114 -21.5t107 -43t76 -21.5q11 0 21 1.5t18 3.5t16 7t12.5 7.5t11.5 10.5t10 11.5t8.5 13.5t7.5 13t8 15t8 15z
" />
    <glyph glyph-name="ograve" unicode="&#xf2;" horiz-adv-x="1306" 
d="M1251 530q0 -112 -47 -214.5t-127 -176.5t-191 -118t-233 -44t-232.5 43.5t-190.5 117.5t-127.5 176.5t-47.5 215.5t47.5 215.5t127.5 176.5t190.5 117.5t232.5 43.5t233 -44t191 -118t127 -176.5t47 -214.5zM395 530q0 -117 71.5 -189.5t186.5 -72.5t186.5 72.5
t71.5 189.5t-71.5 191t-186.5 74t-186.5 -74t-71.5 -191zM240 1542h362l193 -356h-242z" />
    <glyph glyph-name="oacute" unicode="&#xf3;" horiz-adv-x="1306" 
d="M1251 530q0 -112 -47 -214.5t-127 -176.5t-191 -118t-233 -44t-232.5 43.5t-190.5 117.5t-127.5 176.5t-47.5 215.5t47.5 215.5t127.5 176.5t190.5 117.5t232.5 43.5t233 -44t191 -118t127 -176.5t47 -214.5zM395 530q0 -117 71.5 -189.5t186.5 -72.5t186.5 72.5
t71.5 189.5t-71.5 191t-186.5 74t-186.5 -74t-71.5 -191zM676 1542h360l-313 -356h-242z" />
    <glyph glyph-name="ocircumflex" unicode="&#xf4;" horiz-adv-x="1306" 
d="M1251 530q0 -112 -47 -214.5t-127 -176.5t-191 -118t-233 -44t-232.5 43.5t-190.5 117.5t-127.5 176.5t-47.5 215.5t47.5 215.5t127.5 176.5t190.5 117.5t232.5 43.5t233 -44t191 -118t127 -176.5t47 -214.5zM395 530q0 -117 71.5 -189.5t186.5 -72.5t186.5 72.5
t71.5 189.5t-71.5 191t-186.5 74t-186.5 -74t-71.5 -191zM483 1542h338l207 -356h-229l-146 188l-145 -188h-229z" />
    <glyph glyph-name="otilde" unicode="&#xf5;" horiz-adv-x="1306" 
d="M1251 530q0 -112 -47 -214.5t-127 -176.5t-191 -118t-233 -44t-232.5 43.5t-190.5 117.5t-127.5 176.5t-47.5 215.5t47.5 215.5t127.5 176.5t190.5 117.5t232.5 43.5t233 -44t191 -118t127 -176.5t47 -214.5zM395 530q0 -117 71.5 -189.5t186.5 -72.5t186.5 72.5
t71.5 189.5t-71.5 191t-186.5 74t-186.5 -74t-71.5 -191zM905 1528l162 -53q-18 -64 -36.5 -107t-47 -82.5t-70 -58.5t-96.5 -19t-114.5 21.5t-106.5 43t-74 21.5q-18 0 -33 -3t-27 -12t-19 -14.5t-16.5 -21.5t-12.5 -21.5t-13 -25.5l-163 51q18 63 37 108t48 83.5t70 58
t94 19.5q55 0 114 -21.5t107 -43t76 -21.5q11 0 21 1.5t18 3.5t16 7t12.5 7.5t11.5 10.5t10 11.5t8.5 13.5t7.5 13t8 15t8 15z" />
    <glyph glyph-name="odieresis" unicode="&#xf6;" horiz-adv-x="1306" 
d="M1251 530q0 -112 -47 -214.5t-127 -176.5t-191 -118t-233 -44t-232.5 43.5t-190.5 117.5t-127.5 176.5t-47.5 215.5t47.5 215.5t127.5 176.5t190.5 117.5t232.5 43.5t233 -44t191 -118t127 -176.5t47 -214.5zM395 530q0 -117 71.5 -189.5t186.5 -72.5t186.5 72.5
t71.5 189.5t-71.5 191t-186.5 74t-186.5 -74t-71.5 -191zM203 1364q0 73 53 121.5t137 48.5q78 0 132.5 -49t54.5 -121q0 -71 -54 -118.5t-133 -47.5q-84 0 -137 47t-53 119zM727 1364q0 72 53.5 121t132.5 49q80 0 135.5 -49t55.5 -121q0 -71 -55.5 -118.5t-135.5 -47.5
t-133 47t-53 119z" />
    <glyph glyph-name="divide" unicode="&#xf7;" horiz-adv-x="1255" 
d="M418 209q0 80 57.5 125t151.5 45q93 0 152 -45t59 -125t-58.5 -124t-152.5 -44q-95 0 -152 44t-57 124zM418 1047q0 83 57 127.5t152 44.5q94 0 152.5 -45t58.5 -127q0 -78 -59 -122t-152 -44q-94 0 -151.5 44t-57.5 122zM78 481v295h1100v-295h-1100z" />
    <glyph glyph-name="oslash" unicode="&#xf8;" horiz-adv-x="1306" 
d="M1251 530q0 -112 -47 -214.5t-127 -176.5t-191 -118t-233 -44q-164 0 -307 78l-113 -129l-127 119l103 115q-154 157 -154 370q0 113 47.5 215.5t127.5 176.5t190.5 117.5t232.5 43.5q164 0 305 -77l119 135l127 -119l-106 -121q73 -74 113 -170t40 -201zM911 530
q0 65 -28 129l-332 -372q49 -19 102 -19q115 0 186.5 72.5t71.5 189.5zM395 530q0 -64 29 -127l330 373q-49 19 -101 19q-115 0 -186.5 -74t-71.5 -191z" />
    <glyph glyph-name="ugrave" unicode="&#xf9;" 
d="M1147 1061v-1061h-352v139q-107 -162 -314 -162q-90 0 -158.5 29.5t-109 76t-66 112.5t-34.5 130.5t-9 139.5v596h353v-576q0 -101 39.5 -164t128.5 -63q90 0 130 63.5t40 165.5v574h352zM272 1542h363l192 -356h-241z" />
    <glyph glyph-name="uacute" unicode="&#xfa;" 
d="M1147 1061v-1061h-352v139q-107 -162 -314 -162q-90 0 -158.5 29.5t-109 76t-66 112.5t-34.5 130.5t-9 139.5v596h353v-576q0 -101 39.5 -164t128.5 -63q90 0 130 63.5t40 165.5v574h352zM606 1542h361l-314 -356h-241z" />
    <glyph glyph-name="ucircumflex" unicode="&#xfb;" 
d="M1147 1061v-1061h-352v139q-107 -162 -314 -162q-90 0 -158.5 29.5t-109 76t-66 112.5t-34.5 130.5t-9 139.5v596h353v-576q0 -101 39.5 -164t128.5 -63q90 0 130 63.5t40 165.5v574h352zM465 1542h338l207 -356h-230l-145 188l-146 -188h-229z" />
    <glyph glyph-name="udieresis" unicode="&#xfc;" 
d="M1147 1061v-1061h-352v139q-107 -162 -314 -162q-90 0 -158.5 29.5t-109 76t-66 112.5t-34.5 130.5t-9 139.5v596h353v-576q0 -101 39.5 -164t128.5 -63q90 0 130 63.5t40 165.5v574h352zM184 1364q0 73 53.5 121.5t137.5 48.5q78 0 132 -49t54 -121q0 -71 -53.5 -118.5
t-132.5 -47.5q-84 0 -137.5 47t-53.5 119zM709 1364q0 72 53.5 121t132.5 49q80 0 135 -49t55 -121q0 -71 -55 -118.5t-135 -47.5t-133 47t-53 119z" />
    <glyph glyph-name="yacute" unicode="&#xfd;" horiz-adv-x="1243" 
d="M10 1061l439 -967l-240 -543h354l674 1510h-379l-233 -615l-224 615h-391zM655 1542h361l-314 -356h-241z" />
    <glyph glyph-name="thorn" unicode="&#xfe;" horiz-adv-x="1361" 
d="M1303 532q0 -155 -63.5 -281t-181.5 -200t-267 -74q-210 0 -320 168v-594h-352v1930h352v-561q51 75 135.5 119t188.5 44q152 0 269 -74.5t178 -199t61 -277.5zM948 532q0 117 -63 195t-172 78q-113 0 -181.5 -77t-68.5 -206q0 -124 68.5 -196t175.5 -72q110 0 175.5 79
t65.5 199z" />
    <glyph glyph-name="ydieresis" unicode="&#xff;" horiz-adv-x="1243" 
d="M10 1061l439 -967l-240 -543h354l674 1510h-379l-233 -615l-224 615h-391zM164 1364q0 73 53 121.5t137 48.5q78 0 132.5 -49t54.5 -121q0 -71 -54 -118.5t-133 -47.5q-84 0 -137 47t-53 119zM688 1364q0 72 53.5 121t132.5 49q80 0 135.5 -49t55.5 -121
q0 -71 -55.5 -118.5t-135.5 -47.5t-133 47t-53 119z" />
    <glyph glyph-name="Amacron" unicode="&#x100;" horiz-adv-x="1456" 
d="M377 0h-375l555 1434h338l563 -1434h-381l-98 254h-508zM727 1049l-178 -504h348zM399 1802h666v-223h-666v223z" />
    <glyph glyph-name="amacron" unicode="&#x101;" horiz-adv-x="1363" 
d="M414 532q0 -120 65.5 -199t175.5 -79q107 0 176.5 72t69.5 196q0 129 -68.5 206t-181.5 77q-107 0 -172 -78.5t-65 -194.5zM893 1061h352v-1061h-352v145q-110 -168 -322 -168q-149 0 -267 74t-181.5 200t-63.5 281q0 153 61.5 277.5t179 199t269.5 74.5q102 0 188 -44
t136 -119v141zM340 1470h666v-225h-666v225z" />
    <glyph glyph-name="Abreve" unicode="&#x102;" horiz-adv-x="1456" 
d="M377 0h-375l555 1434h338l563 -1434h-381l-98 254h-508zM727 1049l-178 -504h348zM731 1737q60 0 101 33t47 106l204 -25q-9 -74 -38.5 -131.5t-66.5 -90.5t-83.5 -54t-85.5 -28t-78 -7t-78 7t-85 28t-83 54t-66 90.5t-38 131.5l205 25q6 -72 47 -105.5t98 -33.5z" />
    <glyph glyph-name="abreve" unicode="&#x103;" horiz-adv-x="1363" 
d="M414 532q0 -120 65.5 -199t175.5 -79q107 0 176.5 72t69.5 196q0 129 -68.5 206t-181.5 77q-107 0 -172 -78.5t-65 -194.5zM893 1061h352v-1061h-352v145q-110 -168 -322 -168q-149 0 -267 74t-181.5 200t-63.5 281q0 153 61.5 277.5t179 199t269.5 74.5q102 0 188 -44
t136 -119v141zM674 1395q55 0 95.5 34.5t47.5 114.5l207 -24q-7 -78 -34 -138.5t-63 -95.5t-83 -57.5t-87.5 -30.5t-82.5 -8t-82.5 8t-87 30.5t-83 57.5t-64 95.5t-35.5 138.5l208 24q7 -80 48 -114.5t96 -34.5z" />
    <glyph glyph-name="Aogonek" unicode="&#x104;" horiz-adv-x="1454" 
d="M1167 -154q0 -50 28.5 -77t76.5 -27q79 0 133 104l162 -84q-43 -105 -131.5 -165t-200.5 -60q-47 0 -95 13t-94.5 40t-76 78.5t-29.5 118.5q0 54 31 115t102 106q-64 174 -94 248v-2h-508v2l-94 -256h-375l555 1434h338l563 -1434h-82q-49 0 -88 -12.5t-61 -30t-36.5 -40
t-19 -40t-4.5 -31.5zM727 1049l-178 -504h348q-15 43 -76.5 224t-93.5 280z" />
    <glyph glyph-name="aogonek" unicode="&#x105;" horiz-adv-x="1363" 
d="M1245 0h-37q-39 0 -72 -5t-56 -14.5t-41.5 -21.5t-29.5 -25.5t-18.5 -27t-11.5 -26t-5.5 -22t-1.5 -14.5l-1 -6q0 -44 26 -70t72 -26q79 0 133 104l162 -84q-43 -105 -131.5 -165t-200.5 -60q-47 0 -95 13t-94.5 40t-76 78.5t-29.5 118.5q0 33 11.5 68.5t48.5 81.5t96 79
v129q-110 -168 -322 -168q-149 0 -267 74t-181.5 200t-63.5 281q0 153 61.5 277.5t179 199t269.5 74.5q102 0 188 -44t136 -119v141h352v-1061zM414 532q0 -120 65.5 -199t175.5 -79q107 0 176.5 72t69.5 196q0 129 -68.5 206t-181.5 77q-107 0 -172 -78.5t-65 -194.5z" />
    <glyph glyph-name="Cacute" unicode="&#x106;" horiz-adv-x="1417" 
d="M68 717q0 149 56 283.5t156.5 235.5t250.5 160.5t327 59.5q161 0 284 -51t244 -150l-176 -256q-152 140 -352 140q-192 0 -309 -120.5t-117 -301.5t117 -301.5t309 -120.5q201 0 352 139l176 -256q-121 -99 -244 -150t-284 -51q-177 0 -327 59.5t-250.5 161t-156.5 236
t-56 283.5zM836 1847h352l-279 -309h-239z" />
    <glyph glyph-name="cacute" unicode="&#x107;" horiz-adv-x="1140" 
d="M55 530q0 155 76 280.5t216 199t317 73.5q245 0 442 -161q-14 -22 -83.5 -116t-82.5 -116q-112 98 -256 98q-123 0 -198.5 -71t-75.5 -187t75.5 -188t198.5 -72q143 0 256 99q13 -22 82.5 -116.5t83.5 -115.5q-196 -160 -442 -160q-177 0 -317 73.5t-216 199t-76 280.5z
M639 1542h360l-313 -356h-242z" />
    <glyph glyph-name="Ccircumflex" unicode="&#x108;" horiz-adv-x="1417" 
d="M68 717q0 149 56 283.5t156.5 235.5t250.5 160.5t327 59.5q161 0 284 -51t244 -150l-176 -256q-152 140 -352 140q-192 0 -309 -120.5t-117 -301.5t117 -301.5t309 -120.5q201 0 352 139l176 -256q-121 -99 -244 -150t-284 -51q-177 0 -327 59.5t-250.5 161t-156.5 236
t-56 283.5zM659 1847h330l205 -309h-219l-150 154l-149 -154h-219z" />
    <glyph glyph-name="ccircumflex" unicode="&#x109;" horiz-adv-x="1140" 
d="M55 530q0 155 76 280.5t216 199t317 73.5q245 0 442 -161q-14 -22 -83.5 -116t-82.5 -116q-112 98 -256 98q-123 0 -198.5 -71t-75.5 -187t75.5 -188t198.5 -72q143 0 256 99q13 -22 82.5 -116.5t83.5 -115.5q-196 -160 -442 -160q-177 0 -317 73.5t-216 199t-76 280.5z
M457 1542h338l206 -356h-229l-145 188l-146 -188h-229z" />
    <glyph glyph-name="Cdotaccent" unicode="&#x10a;" horiz-adv-x="1417" 
d="M68 717q0 149 56 283.5t156.5 235.5t250.5 160.5t327 59.5q161 0 284 -51t244 -150l-176 -256q-152 140 -352 140q-192 0 -309 -120.5t-117 -301.5t117 -301.5t309 -120.5q201 0 352 139l176 -256q-121 -99 -244 -150t-284 -51q-177 0 -327 59.5t-250.5 161t-156.5 236
t-56 283.5zM610 1698q0 75 52 119.5t139 44.5q81 0 135.5 -45t54.5 -119q0 -72 -54.5 -117t-135.5 -45q-86 0 -138.5 44.5t-52.5 117.5z" />
    <glyph glyph-name="cdotaccent" unicode="&#x10b;" horiz-adv-x="1140" 
d="M55 530q0 155 76 280.5t216 199t317 73.5q245 0 442 -161q-14 -22 -83.5 -116t-82.5 -116q-112 98 -256 98q-123 0 -198.5 -71t-75.5 -187t75.5 -188t198.5 -72q143 0 256 99q13 -22 82.5 -116.5t83.5 -115.5q-196 -160 -442 -160q-177 0 -317 73.5t-216 199t-76 280.5z
M442 1364q0 76 52.5 124t138.5 48q80 0 135 -49t55 -123q0 -73 -55 -120.5t-135 -47.5q-86 0 -138.5 47t-52.5 121z" />
    <glyph glyph-name="Ccaron" unicode="&#x10c;" horiz-adv-x="1417" 
d="M68 717q0 149 56 283.5t156.5 235.5t250.5 160.5t327 59.5q161 0 284 -51t244 -150l-176 -256q-152 140 -352 140q-192 0 -309 -120.5t-117 -301.5t117 -301.5t309 -120.5q201 0 352 139l176 -256q-121 -99 -244 -150t-284 -51q-177 0 -327 59.5t-250.5 161t-156.5 236
t-56 283.5zM961 1538h-330l-203 309h219l150 -153l149 153h219z" />
    <glyph glyph-name="ccaron" unicode="&#x10d;" horiz-adv-x="1140" 
d="M55 530q0 155 76 280.5t216 199t317 73.5q245 0 442 -161q-14 -22 -83.5 -116t-82.5 -116q-112 98 -256 98q-123 0 -198.5 -71t-75.5 -187t75.5 -188t198.5 -72q143 0 256 99q13 -22 82.5 -116.5t83.5 -115.5q-196 -160 -442 -160q-177 0 -317 73.5t-216 199t-76 280.5z
M797 1186h-338l-205 356h229l146 -188l145 188h230z" />
    <glyph glyph-name="Dcaron" unicode="&#x10e;" horiz-adv-x="1562" 
d="M772 0h-620v1434h620q202 0 368 -96.5t259.5 -261t93.5 -359.5q0 -196 -93.5 -360.5t-259.5 -260.5t-368 -96zM514 1135v-836h191q197 0 310 117t113 301t-113 301t-310 117h-191zM838 1538h-330l-203 309h219l150 -153l149 153h219z" />
    <glyph glyph-name="dcaron" unicode="&#x10f;" horiz-adv-x="1527" 
d="M414 532q0 -120 65.5 -199t175.5 -79q107 0 176.5 72t69.5 196q0 129 -68.5 206t-181.5 77q-107 0 -172 -78.5t-65 -194.5zM893 1481h352v-1481h-352v145q-110 -168 -322 -168q-149 0 -267 74t-181.5 200t-63.5 281q0 153 61.5 277.5t179 199t269.5 74.5q102 0 188 -44
t136 -119v561zM1407 934l-64 102q136 62 136 156q-28 -4 -33 -4q-55 0 -90 39t-35 104q0 66 46 108t118 42q85 0 130.5 -54t45.5 -122q0 -52 -11 -100.5t-37.5 -100t-79 -96.5t-126.5 -74z" />
    <glyph glyph-name="Dcroat" unicode="&#x110;" horiz-adv-x="1599" 
d="M809 0h-621v582h-172v252h172v600h621q202 0 368 -96.5t259.5 -261t93.5 -359.5q0 -196 -93.5 -360.5t-259.5 -260.5t-368 -96zM551 1135v-301h295v-252h-295v-283h190q198 0 311 117t113 301t-113 301t-311 117h-190z" />
    <glyph glyph-name="dcroat" unicode="&#x111;" horiz-adv-x="1363" 
d="M893 1481h352v-156h156v-143h-156v-1182h-352v145q-110 -168 -322 -168q-149 0 -267 74t-181.5 200t-63.5 281q0 153 61.5 277.5t179 199t269.5 74.5q102 0 188 -44t136 -119v262h-332v143h332v156zM414 532q0 -120 65.5 -199t175.5 -79q107 0 176.5 72t69.5 196
q0 129 -68.5 206t-181.5 77q-107 0 -172 -78.5t-65 -194.5z" />
    <glyph glyph-name="Emacron" unicode="&#x112;" horiz-adv-x="1228" 
d="M1139 0h-987v1434h987v-299h-625v-285h543v-283h-543v-268h625v-299zM309 1802h666v-223h-666v223z" />
    <glyph glyph-name="emacron" unicode="&#x113;" horiz-adv-x="1263" 
d="M680 -23q-144 0 -262.5 43t-197 118t-121 174.5t-42.5 213.5t41.5 215t116.5 177t187.5 120.5t246.5 44.5q163 0 289.5 -64t201 -195t74.5 -314q0 -31 -2 -45h-817q5 -79 90 -142t226 -63q154 0 290 115q15 -15 88.5 -101.5t86.5 -99.5q-185 -197 -496 -197zM647 821
q-54 0 -104 -15.5t-91.5 -55t-52.5 -97.5h484q-5 57 -43 96.5t-87.5 55.5t-105.5 16zM299 1470h666v-225h-666v225z" />
    <glyph glyph-name="Ebreve" unicode="&#x114;" horiz-adv-x="1228" 
d="M1139 0h-987v1434h987v-299h-625v-285h543v-283h-543v-268h625v-299zM641 1737q60 0 100.5 33t46.5 106l205 -25q-9 -74 -38.5 -131.5t-66.5 -90.5t-83.5 -54t-85.5 -28t-78 -7t-78 7t-85 28t-83 54t-66 90.5t-38 131.5l205 25q6 -72 47 -105.5t98 -33.5z" />
    <glyph glyph-name="ebreve" unicode="&#x115;" horiz-adv-x="1263" 
d="M680 -23q-144 0 -262.5 43t-197 118t-121 174.5t-42.5 213.5t41.5 215t116.5 177t187.5 120.5t246.5 44.5q163 0 289.5 -64t201 -195t74.5 -314q0 -31 -2 -45h-817q5 -79 90 -142t226 -63q154 0 290 115q15 -15 88.5 -101.5t86.5 -99.5q-185 -197 -496 -197zM647 821
q-54 0 -104 -15.5t-91.5 -55t-52.5 -97.5h484q-5 57 -43 96.5t-87.5 55.5t-105.5 16zM633 1395q55 0 95.5 34.5t47.5 114.5l207 -24q-7 -78 -34 -138.5t-63 -95.5t-83 -57.5t-87.5 -30.5t-82.5 -8t-82.5 8t-87 30.5t-83 57.5t-64 95.5t-35.5 138.5l208 24q7 -80 48 -114.5
t96 -34.5z" />
    <glyph glyph-name="Edotaccent" unicode="&#x116;" horiz-adv-x="1228" 
d="M1139 0h-987v1434h987v-299h-625v-285h543v-283h-543v-268h625v-299zM453 1698q0 75 52 119.5t138 44.5q81 0 136 -45.5t55 -118.5q0 -72 -55 -117t-136 -45q-86 0 -138 44t-52 118z" />
    <glyph glyph-name="edotaccent" unicode="&#x117;" horiz-adv-x="1263" 
d="M680 -23q-144 0 -262.5 43t-197 118t-121 174.5t-42.5 213.5t41.5 215t116.5 177t187.5 120.5t246.5 44.5q163 0 289.5 -64t201 -195t74.5 -314q0 -31 -2 -45h-817q5 -79 90 -142t226 -63q154 0 290 115q15 -15 88.5 -101.5t86.5 -99.5q-185 -197 -496 -197zM647 821
q-54 0 -104 -15.5t-91.5 -55t-52.5 -97.5h484q-5 57 -43 96.5t-87.5 55.5t-105.5 16zM440 1364q0 76 52.5 124t138.5 48q80 0 135 -49t55 -123q0 -73 -55 -120.5t-135 -47.5q-86 0 -138.5 47t-52.5 121z" />
    <glyph glyph-name="Eogonek" unicode="&#x118;" horiz-adv-x="1228" 
d="M522 0h-370v1434h987v-299h-625v-285h543v-283h-543v-268h625v-299h-273q-39 0 -72 -5t-56 -14.5t-41.5 -21.5t-29.5 -25.5t-18.5 -27t-11.5 -26t-5.5 -22t-1.5 -14.5l-1 -6q0 -44 26 -70t72 -26q79 0 133 104l162 -84q-43 -105 -131.5 -165t-200.5 -60q-47 0 -95 13
t-94.5 40t-76 78.5t-29.5 118.5q0 30 9 63t39.5 75.5t78.5 74.5z" />
    <glyph glyph-name="eogonek" unicode="&#x119;" horiz-adv-x="1263" 
d="M680 -23q-144 0 -262.5 43t-197 118t-121 174.5t-42.5 213.5t41.5 215t116.5 177t187.5 120.5t246.5 44.5q163 0 289.5 -64t201 -195t74.5 -314q0 -31 -2 -45h-817q5 -79 90 -142t226 -63q154 0 290 115q15 -15 88.5 -101.5t86.5 -99.5q-90 -94 -207 -143
q-6 -4 -30.5 -16.5t-37.5 -22.5q-76 -62 -76 -150q0 -44 29 -71t74 -27q84 0 135 104l162 -84q-41 -104 -130 -164.5t-200 -60.5q-48 0 -96.5 13t-95 39.5t-76 76.5t-29.5 115q0 112 82 194zM647 821q-54 0 -104 -15.5t-91.5 -55t-52.5 -97.5h484q-5 57 -43 96.5t-87.5 55.5
t-105.5 16z" />
    <glyph glyph-name="Ecaron" unicode="&#x11a;" horiz-adv-x="1228" 
d="M1139 0h-987v1434h987v-299h-625v-285h543v-283h-543v-268h625v-299zM788 1538h-329l-203 309h219l150 -153l149 153h219z" />
    <glyph glyph-name="ecaron" unicode="&#x11b;" horiz-adv-x="1263" 
d="M680 -23q-144 0 -262.5 43t-197 118t-121 174.5t-42.5 213.5t41.5 215t116.5 177t187.5 120.5t246.5 44.5q163 0 289.5 -64t201 -195t74.5 -314q0 -31 -2 -45h-817q5 -79 90 -142t226 -63q154 0 290 115q15 -15 88.5 -101.5t86.5 -99.5q-185 -197 -496 -197zM647 821
q-54 0 -104 -15.5t-91.5 -55t-52.5 -97.5h484q-5 57 -43 96.5t-87.5 55.5t-105.5 16zM799 1186h-338l-205 356h229l146 -188l145 188h230z" />
    <glyph glyph-name="Gcircumflex" unicode="&#x11c;" horiz-adv-x="1503" 
d="M68 717q0 149 56 283.5t156 235.5t249 160.5t325 59.5q156 0 275.5 -45.5t238.5 -136.5l-190 -252q-64 50 -146 81.5t-166 31.5q-109 0 -194.5 -35.5t-136.5 -96t-77 -134.5t-26 -156q0 -179 115.5 -296.5t298.5 -117.5q140 0 227 41v186h-338v275h680v-600
q-250 -224 -569 -224q-168 0 -314 59t-247 159.5t-159 236t-58 285.5zM641 1847h330l205 -309h-220l-149 154l-150 -154h-219z" />
    <glyph glyph-name="gcircumflex" unicode="&#x11d;" horiz-adv-x="1363" 
d="M897 145q-2 -100 -23.5 -167t-63.5 -103t-94 -50.5t-126 -14.5q-84 0 -171.5 34t-150.5 80l-133 -254q197 -143 512 -143q99 0 185.5 19.5t163.5 64.5t132 112.5t87 168.5t32 227v942h-352v-141q-52 74 -139 118.5t-187 44.5q-114 0 -210.5 -44t-161.5 -118.5
t-101.5 -175t-36.5 -213.5q0 -152 63.5 -278.5t182 -201.5t268.5 -75q214 0 324 168zM414 532q0 116 64.5 196.5t174.5 80.5q111 0 179.5 -79t68.5 -208q0 -125 -68.5 -197.5t-175.5 -72.5q-108 0 -175.5 80.5t-67.5 199.5zM494 1542h337l207 -356h-229l-145 188l-146 -188
h-229z" />
    <glyph glyph-name="Gbreve" unicode="&#x11e;" horiz-adv-x="1503" 
d="M68 717q0 149 56 283.5t156 235.5t249 160.5t325 59.5q156 0 275.5 -45.5t238.5 -136.5l-190 -252q-64 50 -146 81.5t-166 31.5q-109 0 -194.5 -35.5t-136.5 -96t-77 -134.5t-26 -156q0 -179 115.5 -296.5t298.5 -117.5q140 0 227 41v186h-338v275h680v-600
q-250 -224 -569 -224q-168 0 -314 59t-247 159.5t-159 236t-58 285.5zM778 1737q60 0 101 33t47 106l204 -25q-9 -74 -38.5 -131.5t-66.5 -90.5t-83.5 -54t-85.5 -28t-78 -7t-78 7t-85 28t-83 54t-66 90.5t-38 131.5l205 25q6 -72 47 -105.5t98 -33.5z" />
    <glyph glyph-name="gbreve" unicode="&#x11f;" horiz-adv-x="1363" 
d="M897 145q-2 -100 -23.5 -167t-63.5 -103t-94 -50.5t-126 -14.5q-84 0 -171.5 34t-150.5 80l-133 -254q197 -143 512 -143q99 0 185.5 19.5t163.5 64.5t132 112.5t87 168.5t32 227v942h-352v-141q-52 74 -139 118.5t-187 44.5q-114 0 -210.5 -44t-161.5 -118.5
t-101.5 -175t-36.5 -213.5q0 -152 63.5 -278.5t182 -201.5t268.5 -75q214 0 324 168zM414 532q0 116 64.5 196.5t174.5 80.5q111 0 179.5 -79t68.5 -208q0 -125 -68.5 -197.5t-175.5 -72.5q-108 0 -175.5 80.5t-67.5 199.5zM664 1395q55 0 95.5 34.5t47.5 114.5l207 -24
q-7 -78 -34 -138.5t-63 -95.5t-83 -57.5t-87.5 -30.5t-82.5 -8t-82.5 8t-87.5 30.5t-83.5 57.5t-64 95.5t-35.5 138.5l209 24q7 -80 48 -114.5t96 -34.5z" />
    <glyph glyph-name="Gdotaccent" unicode="&#x120;" horiz-adv-x="1503" 
d="M68 717q0 149 56 283.5t156 235.5t249 160.5t325 59.5q156 0 275.5 -45.5t238.5 -136.5l-190 -252q-64 50 -146 81.5t-166 31.5q-109 0 -194.5 -35.5t-136.5 -96t-77 -134.5t-26 -156q0 -179 115.5 -296.5t298.5 -117.5q140 0 227 41v186h-338v275h680v-600
q-250 -224 -569 -224q-168 0 -314 59t-247 159.5t-159 236t-58 285.5zM621 1698q0 75 52 119.5t138 44.5q81 0 135.5 -45t54.5 -119q0 -72 -54.5 -117t-135.5 -45q-86 0 -138 44t-52 118z" />
    <glyph glyph-name="gdotaccent" unicode="&#x121;" horiz-adv-x="1363" 
d="M897 145q-2 -100 -23.5 -167t-63.5 -103t-94 -50.5t-126 -14.5q-84 0 -171.5 34t-150.5 80l-133 -254q197 -143 512 -143q99 0 185.5 19.5t163.5 64.5t132 112.5t87 168.5t32 227v942h-352v-141q-52 74 -139 118.5t-187 44.5q-114 0 -210.5 -44t-161.5 -118.5
t-101.5 -175t-36.5 -213.5q0 -152 63.5 -278.5t182 -201.5t268.5 -75q214 0 324 168zM414 532q0 116 64.5 196.5t174.5 80.5q111 0 179.5 -79t68.5 -208q0 -125 -68.5 -197.5t-175.5 -72.5q-108 0 -175.5 80.5t-67.5 199.5zM473 1364q0 76 52.5 124t138.5 48q80 0 135 -49
t55 -123q0 -73 -55 -120.5t-135 -47.5q-86 0 -138.5 47t-52.5 121z" />
    <glyph glyph-name="Gcommaaccent" unicode="&#x122;" horiz-adv-x="1503" 
d="M68 717q0 149 56 283.5t156 235.5t249 160.5t325 59.5q156 0 275.5 -45.5t238.5 -136.5l-190 -252q-64 50 -146 81.5t-166 31.5q-109 0 -194.5 -35.5t-136.5 -96t-77 -134.5t-26 -156q0 -179 115.5 -296.5t298.5 -117.5q140 0 227 41v186h-338v275h680v-600
q-250 -224 -569 -224q-168 0 -314 59t-247 159.5t-159 236t-58 285.5zM760 -645l-64 102q138 63 138 156q-28 -4 -33 -4q-55 0 -90 39t-35 104q0 66 45.5 108t118.5 42q85 0 129.5 -53.5t44.5 -122.5q0 -52 -11 -100.5t-37.5 -100t-79 -96.5t-126.5 -74z" />
    <glyph glyph-name="gcommaaccent" unicode="&#x123;" horiz-adv-x="1363" 
d="M897 145q-2 -100 -23.5 -167t-63.5 -103t-94 -50.5t-126 -14.5q-84 0 -171.5 34t-150.5 80l-133 -254q197 -143 512 -143q99 0 185.5 19.5t163.5 64.5t132 112.5t87 168.5t32 227v942h-352v-141q-52 74 -139 118.5t-187 44.5q-114 0 -210.5 -44t-161.5 -118.5
t-101.5 -175t-36.5 -213.5q0 -152 63.5 -278.5t182 -201.5t268.5 -75q214 0 324 168zM414 532q0 116 64.5 196.5t174.5 80.5q111 0 179.5 -79t68.5 -208q0 -125 -68.5 -197.5t-175.5 -72.5q-108 0 -175.5 80.5t-67.5 199.5zM702 1731l64 -103q-137 -63 -137 -155q28 4 33 4
q55 0 89.5 -39.5t34.5 -104.5q0 -66 -45 -107.5t-118 -41.5q-85 0 -129.5 53.5t-44.5 122.5q0 52 11.5 101t37.5 100.5t78.5 96t125.5 73.5z" />
    <glyph glyph-name="Hcircumflex" unicode="&#x124;" horiz-adv-x="1521" 
d="M1370 0h-362v541h-494v-541h-362v1434h362v-603h494v603h362v-1434zM594 1847h330l204 -309h-219l-149 154l-150 -154h-219z" />
    <glyph glyph-name="hcircumflex" unicode="&#x125;" 
d="M119 0v1481h352v-559q106 161 315 161q89 0 157 -29.5t108.5 -75.5t66 -112.5t34.5 -131.5t9 -140v-594h-352v573q0 102 -39 165t-129 63q-88 0 -129 -64t-41 -164v-573h-352zM121 1847h330l204 -309h-219l-149 154l-150 -154h-219z" />
    <glyph glyph-name="Hbar" unicode="&#x126;" horiz-adv-x="1554" 
d="M1384 0h-362v541h-494v-541h-362v995h-152v176h152v263h362v-263h494v263h362v-263h158v-176h-158v-995zM528 831h494v164h-494v-164z" />
    <glyph glyph-name="hbar" unicode="&#x127;" 
d="M-37 1180v145h156v156h352v-156h295v-145h-295v-258q106 161 315 161q89 0 157 -29.5t108.5 -75.5t66 -112.5t34.5 -131.5t9 -140v-594h-352v573q0 102 -39 165t-129 63q-88 0 -129 -64t-41 -164v-573h-352v1180h-156z" />
    <glyph glyph-name="Itilde" unicode="&#x128;" horiz-adv-x="665" 
d="M514 1434v-1434h-362v1434h362zM588 1860l162 -52q-18 -61 -36.5 -103t-47 -80t-70 -56.5t-96.5 -18.5t-114.5 20.5t-106.5 41t-74 20.5t-46.5 -6.5t-34 -23.5t-20.5 -27t-20 -37l-164 51q18 60 37.5 103t48 80t70 56t94.5 19q55 0 114 -21t107 -42t76 -21q14 0 26 2.5
t21 5t18 10.5t13.5 11.5t12.5 15.5t10 15.5t10.5 18.5t9.5 18z" />
    <glyph glyph-name="itilde" unicode="&#x129;" horiz-adv-x="593" 
d="M473 0h-352v1061h352v-1061zM551 1528l162 -53q-18 -64 -36.5 -107t-47 -82.5t-70 -58.5t-96.5 -19t-114.5 21.5t-106.5 43t-74 21.5q-18 0 -33 -3t-27 -12t-19 -14.5t-16.5 -21.5t-12.5 -21.5t-13 -25.5l-164 51q18 63 37.5 108t48 83.5t70 58t94.5 19.5q55 0 114 -21.5
t107 -43t76 -21.5q11 0 21 1.5t18 3.5t16 7t12.5 7.5t11.5 10.5t10 11.5t8.5 13.5t7.5 13t8 15t8 15z" />
    <glyph glyph-name="Imacron" unicode="&#x12a;" horiz-adv-x="665" 
d="M514 1434v-1434h-362v1434h362zM2 1802h666v-223h-666v223z" />
    <glyph glyph-name="imacron" unicode="&#x12b;" horiz-adv-x="593" 
d="M473 0h-352v1061h352v-1061zM-35 1470h666v-225h-666v225z" />
    <glyph glyph-name="Ibreve" unicode="&#x12c;" horiz-adv-x="665" 
d="M514 1434v-1434h-362v1434h362zM334 1737q60 0 100.5 33t46.5 106l205 -25q-9 -74 -38.5 -131.5t-66.5 -90.5t-83.5 -54t-85.5 -28t-78 -7t-78 7t-85 28t-83 54t-66 90.5t-38 131.5l204 25q6 -72 47 -105.5t99 -33.5z" />
    <glyph glyph-name="ibreve" unicode="&#x12d;" horiz-adv-x="593" 
d="M473 0h-352v1061h352v-1061zM299 1395q55 0 95.5 34.5t47.5 114.5l207 -24q-7 -78 -34 -138.5t-63 -95.5t-83 -57.5t-87.5 -30.5t-82.5 -8t-82.5 8t-87 30.5t-83 57.5t-64 95.5t-35.5 138.5l209 24q7 -80 47.5 -114.5t95.5 -34.5z" />
    <glyph glyph-name="Iogonek" unicode="&#x12e;" horiz-adv-x="667" 
d="M516 0h-47q-39 0 -72 -5t-56 -14.5t-41.5 -21.5t-29.5 -25.5t-19 -27t-11.5 -26t-5.5 -22t-2 -14.5l-1 -6q0 -44 26.5 -70t72.5 -26q79 0 133 104l162 -84q-43 -105 -131.5 -165t-200.5 -60q-47 0 -95 13t-94.5 40t-76 78.5t-29.5 118.5q0 33 11.5 68.5t48.5 81.5t96 79
v1418h362v-1434z" />
    <glyph glyph-name="iogonek" unicode="&#x12f;" horiz-adv-x="593" 
d="M199 -162q0 -44 26 -70t72 -26q79 0 133 104l162 -84q-43 -105 -131.5 -165t-200.5 -60q-47 0 -95 13t-94.5 40t-76 78.5t-29.5 118.5q0 33 11.5 68.5t48.5 81.5t96 79v1045h352v-1061h-37q-39 0 -72 -5t-56 -14.5t-41.5 -21.5t-29.5 -25.5t-18.5 -27t-11.5 -26t-5.5 -22
t-1.5 -14.5zM88 1323q0 79 57 129.5t154 50.5t154 -50.5t57 -129.5q0 -78 -59 -128t-152 -50q-96 0 -153.5 49.5t-57.5 128.5z" />
    <glyph glyph-name="Idotaccent" unicode="&#x130;" horiz-adv-x="665" 
d="M514 1434v-1434h-362v1434h362zM143 1698q0 75 52 119.5t139 44.5q81 0 135.5 -45t54.5 -119q0 -72 -54.5 -117t-135.5 -45q-86 0 -138.5 44.5t-52.5 117.5z" />
    <glyph glyph-name="dotlessi" unicode="&#x131;" horiz-adv-x="589" 
d="M471 0h-352v1061h352v-1061z" />
    <glyph glyph-name="IJ" unicode="&#x132;" horiz-adv-x="2004" 
d="M514 1434v-1434h-362v1434h362zM709 477q0 148 84 264h335q-69 -109 -69 -225q0 -42 11.5 -81t35.5 -73.5t66.5 -55.5t99.5 -21q125 0 181 83.5t56 258.5v807h363v-807q0 -325 -153.5 -487.5t-440.5 -162.5q-123 0 -223 31t-163 81.5t-105.5 117t-60 134t-17.5 136.5z
" />
    <glyph glyph-name="ij" unicode="&#x133;" horiz-adv-x="1267" 
d="M473 0h-352v1061h352v-1061zM88 1323q0 79 57 129.5t154 50.5t154 -50.5t57 -129.5q0 -78 -59 -128t-152 -50q-96 0 -153.5 49.5t-57.5 128.5zM795 -123v1184h352v-1141q0 -89 -24 -159t-62 -113t-91 -71t-107 -39t-113 -11q-166 0 -268.5 81.5t-102.5 227.5q0 30 10 68
h266q-2 -8 -2 -33q0 -82 72 -82q38 0 54 25.5t16 62.5zM760 1323q0 79 57 129.5t154 50.5t154 -50.5t57 -129.5q0 -78 -59 -128t-152 -50q-96 0 -153.5 49.5t-57.5 128.5z" />
    <glyph glyph-name="Jcircumflex" unicode="&#x134;" horiz-adv-x="1339" 
d="M43 477q0 148 84 264h336q-70 -111 -70 -225q0 -42 11.5 -81t35.5 -73.5t66.5 -55.5t99.5 -21q126 0 182 83.5t56 258.5v807h362v-807q0 -325 -153.5 -487.5t-440.5 -162.5q-123 0 -223 31t-163 81.5t-105.5 117t-60 134t-17.5 136.5zM854 1847h330l205 -309h-220
l-149 154l-150 -154h-219z" />
    <glyph glyph-name="jcircumflex" unicode="&#x135;" horiz-adv-x="673" 
d="M201 -123v1184h352v-1141q0 -89 -24 -159t-62 -113t-91 -71t-107 -39t-113 -11q-166 0 -268.5 81.5t-102.5 227.5q0 30 10 68h266q-2 -8 -2 -33q0 -82 72 -82q38 0 54 25.5t16 62.5zM203 1542h338l207 -356h-230l-145 188l-146 -188h-229z" />
    <glyph glyph-name="Kcommaaccent" unicode="&#x136;" horiz-adv-x="1406" 
d="M514 666v-666h-362v1434h362v-641l391 641h367v-50l-416 -645l160 -307q54 -104 90 -133t96 -29q43 0 101 37q23 -51 65.5 -140.5t52.5 -111.5q-80 -43 -143.5 -60.5t-144.5 -17.5q-135 0 -245 72.5t-179 224.5zM655 -645l-63 102q137 63 137 156q-28 -4 -33 -4
q-55 0 -90 39t-35 104q0 66 45.5 108t118.5 42q85 0 129.5 -53.5t44.5 -122.5q0 -52 -11 -100.5t-37.5 -100t-79 -96.5t-126.5 -74z" />
    <glyph glyph-name="kcommaaccent" unicode="&#x137;" 
d="M469 1481v-848q59 87 285 428h379v-47l-340 -441l122 -204q34 -51 65 -69.5t75 -18.5q20 0 52.5 9t55.5 25q66 -123 119 -231q-127 -107 -297 -107q-130 0 -219.5 60.5t-173.5 214.5l-123 223v-475h-352v1481h352zM559 -645l-63 102q137 63 137 156q-28 -4 -33 -4
q-55 0 -90 39t-35 104q0 66 45.5 108t118.5 42q85 0 129.5 -53.5t44.5 -122.5q0 -52 -11 -100.5t-37.5 -100t-79 -96.5t-126.5 -74z" />
    <glyph glyph-name="kgreenlandic" unicode="&#x138;" horiz-adv-x="1239" 
d="M469 672l279 389h368v-64l-358 -448l129 -201q28 -42 56.5 -57t72.5 -15q63 0 123 46q19 -37 55 -111t55 -111q-138 -123 -309 -123q-67 0 -124 21t-98 52.5t-81.5 84.5t-69 101t-66.5 117q-20 37 -30 55v-408h-354v1061h352v-389z" />
    <glyph glyph-name="Lacute" unicode="&#x139;" horiz-adv-x="1198" 
d="M514 299h645v-299h-1007v1434h362v-1135zM330 1847h352l-279 -309h-239z" />
    <glyph glyph-name="lacute" unicode="&#x13a;" horiz-adv-x="589" 
d="M471 0h-352v1481h352v-1481zM285 1847h352l-279 -309h-239z" />
    <glyph glyph-name="Lcommaaccent" unicode="&#x13b;" horiz-adv-x="1198" 
d="M514 299h645v-299h-1007v1434h362v-1135zM532 -645l-63 102q137 63 137 156q-28 -4 -33 -4q-55 0 -89.5 39t-34.5 104q0 66 45 108t118 42q85 0 129.5 -53.5t44.5 -122.5q0 -52 -11 -100.5t-37.5 -100t-79 -96.5t-126.5 -74z" />
    <glyph glyph-name="lcommaaccent" unicode="&#x13c;" horiz-adv-x="589" 
d="M471 0h-352v1481h352v-1481zM211 -645l-64 102q138 63 138 156q-28 -4 -33 -4q-55 0 -90 39t-35 104q0 66 45.5 108t118.5 42q85 0 129.5 -53.5t44.5 -122.5q0 -52 -11 -100.5t-37.5 -100t-79 -96.5t-126.5 -74z" />
    <glyph glyph-name="Lcaron" unicode="&#x13d;" horiz-adv-x="1200" 
d="M514 299h645v-299h-1007v1434h362v-1135zM811 924l-63 102q135 62 135 158q-9 -4 -35 -4q-54 0 -88.5 39t-34.5 102q0 66 46 107.5t118 41.5q85 0 130.5 -54t45.5 -122q0 -52 -11 -100t-37.5 -100t-79 -96.5t-126.5 -73.5z" />
    <glyph glyph-name="lcaron" unicode="&#x13e;" horiz-adv-x="753" 
d="M471 0h-352v1481h352v-1481zM633 934l-64 102q136 62 136 156q-28 -4 -33 -4q-55 0 -90 39t-35 104q0 66 46 108t118 42q85 0 130.5 -54t45.5 -122q0 -52 -11 -100.5t-37.5 -100t-79 -96.5t-126.5 -74z" />
    <glyph glyph-name="Ldot" unicode="&#x13f;" horiz-adv-x="1216" 
d="M514 299h645v-299h-1007v1434h362v-1135zM655 696q0 80 57.5 133.5t147.5 53.5q87 0 147 -54t60 -133t-60 -131.5t-147 -52.5q-90 0 -147.5 52t-57.5 132z" />
    <glyph glyph-name="ldot" unicode="&#x140;" horiz-adv-x="911" 
d="M471 0h-352v1481h352v-1481zM547 696q0 80 57.5 133.5t147.5 53.5q87 0 146.5 -54t59.5 -133t-59.5 -131.5t-146.5 -52.5q-90 0 -147.5 52t-57.5 132z" />
    <glyph glyph-name="Lslash" unicode="&#x141;" horiz-adv-x="1210" 
d="M526 299h645v-299h-1007v510l-144 -66v203q3 1 44.5 21.5t99.5 46.5v719h362v-549l320 149v-211l-320 -147v-377z" />
    <glyph glyph-name="lslash" unicode="&#x142;" horiz-adv-x="729" 
d="M518 0h-352v506l-146 -68v205l146 70v768h352v-600l176 86v-209l-176 -84v-674z" />
    <glyph glyph-name="Nacute" unicode="&#x143;" horiz-adv-x="1515" 
d="M1085 0l-571 797v-797h-362v1434h280l569 -787v787h363v-1434h-279zM717 1847h352l-278 -309h-240z" />
    <glyph glyph-name="nacute" unicode="&#x144;" 
d="M119 0v1061h352v-139q106 161 315 161q89 0 157 -29.5t108.5 -75.5t66 -112.5t34.5 -131.5t9 -140v-594h-352v573q0 41 -8.5 79t-26.5 72.5t-52.5 55.5t-80.5 21q-88 0 -129 -64t-41 -164v-573h-352zM657 1542h361l-313 -356h-242z" />
    <glyph glyph-name="Ncommaaccent" unicode="&#x145;" horiz-adv-x="1515" 
d="M1085 0l-571 797v-797h-362v1434h280l569 -787v787h363v-1434h-279zM672 -645l-64 102q137 63 137 156q-28 -4 -32 -4q-55 0 -90 39t-35 104q0 66 45.5 108t118.5 42q85 0 129.5 -53.5t44.5 -122.5q0 -52 -11 -100.5t-37.5 -100t-79 -96.5t-126.5 -74z" />
    <glyph glyph-name="ncommaaccent" unicode="&#x146;" 
d="M119 0v1061h352v-139q106 161 315 161q89 0 157 -29.5t108.5 -75.5t66 -112.5t34.5 -131.5t9 -140v-594h-352v573q0 41 -8.5 79t-26.5 72.5t-52.5 55.5t-80.5 21q-88 0 -129 -64t-41 -164v-573h-352zM549 -645l-64 102q138 63 138 156q-28 -4 -33 -4q-55 0 -90 39
t-35 104q0 66 45.5 108t118.5 42q85 0 129.5 -53.5t44.5 -122.5q0 -52 -11 -100.5t-37.5 -100t-79 -96.5t-126.5 -74z" />
    <glyph glyph-name="Ncaron" unicode="&#x147;" horiz-adv-x="1515" 
d="M1085 0l-571 797v-797h-362v1434h280l569 -787v787h363v-1434h-279zM899 1538h-330l-202 309h219l149 -153l150 153h219z" />
    <glyph glyph-name="ncaron" unicode="&#x148;" 
d="M119 0v1061h352v-139q106 161 315 161q89 0 157 -29.5t108.5 -75.5t66 -112.5t34.5 -131.5t9 -140v-594h-352v573q0 41 -8.5 79t-26.5 72.5t-52.5 55.5t-80.5 21q-88 0 -129 -64t-41 -164v-573h-352zM803 1186h-338l-205 356h229l146 -188l145 188h230z" />
    <glyph glyph-name="napostrophe" unicode="&#x149;" horiz-adv-x="1511" 
d="M379 0v1061h352v-139q106 161 316 161q89 0 157 -29.5t108.5 -75.5t65.5 -112.5t34 -131.5t9 -140v-594h-352v573q0 41 -8.5 79t-26.5 72.5t-52.5 55.5t-80.5 21q-88 0 -129 -64t-41 -164v-573h-352zM113 1014l-64 102q135 62 135 156q-28 -4 -32 -4q-55 0 -90 39
t-35 104q0 66 45.5 108t117.5 42q85 0 131 -54.5t46 -122.5q0 -52 -11 -100t-37.5 -100t-79 -96.5t-126.5 -73.5z" />
    <glyph glyph-name="Eng" unicode="&#x14a;" horiz-adv-x="1515" 
d="M971 139l-457 658v-797h-362v1434h282l567 -813v813h363v-1258q-3 -114 -20 -203.5t-58 -174t-106 -141.5t-170 -92t-244 -38v313q104 5 165.5 64.5t61.5 158.5q0 46 -22 76z" />
    <glyph glyph-name="eng" unicode="&#x14b;" horiz-adv-x="1263" 
d="M807 66v507q0 41 -8.5 79t-26.5 72.5t-52.5 55.5t-80.5 21q-88 0 -129 -64t-41 -164v-573h-352v1061h352v-139q106 161 315 161q89 0 157 -29.5t108.5 -75.5t66 -112.5t34.5 -131.5t9 -140v-457q0 -105 -16.5 -191t-57 -164.5t-105 -132t-165.5 -86.5t-233 -36v303
q103 0 164 57.5t61 178.5z" />
    <glyph glyph-name="Omacron" unicode="&#x14c;" horiz-adv-x="1658" 
d="M829 -23q-162 0 -304.5 59t-241.5 159.5t-156 236t-57 285.5t57 285.5t156 235.5t241.5 159t304.5 59t304.5 -59t242 -159t156.5 -235.5t57 -285.5t-57 -285.5t-156.5 -236t-242 -159.5t-304.5 -59zM829 299q171 0 284.5 119.5t113.5 298.5t-113.5 298.5t-284.5 119.5
t-283 -119.5t-112 -298.5t112 -298.5t283 -119.5zM496 1802h665v-223h-665v223z" />
    <glyph glyph-name="omacron" unicode="&#x14d;" horiz-adv-x="1306" 
d="M1251 530q0 -112 -47 -214.5t-127 -176.5t-191 -118t-233 -44t-232.5 43.5t-190.5 117.5t-127.5 176.5t-47.5 215.5t47.5 215.5t127.5 176.5t190.5 117.5t232.5 43.5t233 -44t191 -118t127 -176.5t47 -214.5zM395 530q0 -117 71.5 -189.5t186.5 -72.5t186.5 72.5
t71.5 189.5t-71.5 191t-186.5 74t-186.5 -74t-71.5 -191zM319 1470h666v-225h-666v225z" />
    <glyph glyph-name="Obreve" unicode="&#x14e;" horiz-adv-x="1658" 
d="M829 -23q-162 0 -304.5 59t-241.5 159.5t-156 236t-57 285.5t57 285.5t156 235.5t241.5 159t304.5 59t304.5 -59t242 -159t156.5 -235.5t57 -285.5t-57 -285.5t-156.5 -236t-242 -159.5t-304.5 -59zM829 299q171 0 284.5 119.5t113.5 298.5t-113.5 298.5t-284.5 119.5
t-283 -119.5t-112 -298.5t112 -298.5t283 -119.5zM827 1737q60 0 101 33t47 106l205 -25q-9 -74 -38.5 -131.5t-66.5 -90.5t-84 -54t-86 -28t-78 -7t-78 7t-85 28t-83 54t-66 90.5t-38 131.5l205 25q6 -72 47 -105.5t98 -33.5z" />
    <glyph glyph-name="obreve" unicode="&#x14f;" horiz-adv-x="1306" 
d="M1251 530q0 -112 -47 -214.5t-127 -176.5t-191 -118t-233 -44t-232.5 43.5t-190.5 117.5t-127.5 176.5t-47.5 215.5t47.5 215.5t127.5 176.5t190.5 117.5t232.5 43.5t233 -44t191 -118t127 -176.5t47 -214.5zM395 530q0 -117 71.5 -189.5t186.5 -72.5t186.5 72.5
t71.5 189.5t-71.5 191t-186.5 74t-186.5 -74t-71.5 -191zM653 1395q55 0 96 34.5t48 114.5l207 -24q-7 -78 -34 -138.5t-63.5 -95.5t-83 -57.5t-87.5 -30.5t-83 -8t-82.5 8t-87 30.5t-83 57.5t-64 95.5t-35.5 138.5l209 24q7 -80 47.5 -114.5t95.5 -34.5z" />
    <glyph glyph-name="Ohungarumlaut" unicode="&#x150;" horiz-adv-x="1658" 
d="M829 -23q-162 0 -304.5 59t-241.5 159.5t-156 236t-57 285.5t57 285.5t156 235.5t241.5 159t304.5 59t304.5 -59t242 -159t156.5 -235.5t57 -285.5t-57 -285.5t-156.5 -236t-242 -159.5t-304.5 -59zM829 299q171 0 284.5 119.5t113.5 298.5t-113.5 298.5t-284.5 119.5
t-283 -119.5t-112 -298.5t112 -298.5t283 -119.5zM717 1860h221l-199 -310h-192zM1071 1860h221l-211 -310h-198z" />
    <glyph glyph-name="ohungarumlaut" unicode="&#x151;" horiz-adv-x="1306" 
d="M1251 530q0 -112 -47 -214.5t-127 -176.5t-191 -118t-233 -44t-232.5 43.5t-190.5 117.5t-127.5 176.5t-47.5 215.5t47.5 215.5t127.5 176.5t190.5 117.5t232.5 43.5t233 -44t191 -118t127 -176.5t47 -214.5zM395 530q0 -117 71.5 -189.5t186.5 -72.5t186.5 72.5
t71.5 189.5t-71.5 191t-186.5 74t-186.5 -74t-71.5 -191zM555 1540h221l-221 -354h-193zM911 1540h219l-235 -354h-197z" />
    <glyph glyph-name="OE" unicode="&#x152;" horiz-adv-x="1898" 
d="M809 299h63v838h-63q-166 0 -272.5 -109.5t-106.5 -292.5q0 -185 108.5 -310.5t270.5 -125.5zM1808 0h-999q-156 0 -294 58t-235 156.5t-153.5 234t-56.5 286.5q0 203 96 363t264.5 248t378.5 88h999v-299h-581v-285h499v-283h-499v-268h581v-299z" />
    <glyph glyph-name="oe" unicode="&#x153;" horiz-adv-x="1986" 
d="M1710 365q7 -8 51.5 -55.5t81.5 -87t53 -54.5q-181 -191 -485 -191q-245 0 -399 113q-154 -113 -359 -113q-122 0 -232.5 43.5t-190.5 117.5t-127.5 176.5t-47.5 215.5t47.5 215.5t127.5 176.5t190.5 117.5t232.5 43.5q207 0 361 -116q150 116 364 116q121 0 222.5 -37
t180 -110t123 -191.5t44.5 -271.5h-818q5 -93 83.5 -157t218.5 -64q152 0 278 113zM395 530q0 -117 71.5 -189.5t186.5 -72.5q102 0 178 66q-28 95 -28 190q0 109 33 199q-72 72 -183 72q-115 0 -186.5 -74t-71.5 -191zM1374 840q-80 0 -149 -43.5t-92 -132.5h481
q-11 61 -52.5 103t-89 57.5t-98.5 15.5z" />
    <glyph glyph-name="Racute" unicode="&#x154;" horiz-adv-x="1458" 
d="M514 770h256q72 0 116 50t44 126q0 79 -43.5 129.5t-116.5 50.5h-256v-356zM1294 950q0 -156 -81 -270t-226 -158q51 -243 213 -243q87 0 150 57l120 -242q-80 -59 -159 -88t-183 -29q-73 0 -136.5 21.5t-109 55.5t-83.5 81.5t-62 94t-43 100t-28 92.5t-15 76h-137v-498
h-362v1434h661q113 0 205.5 -39t152 -105.5t91.5 -154t32 -185.5zM655 1847h353l-279 -309h-240z" />
    <glyph glyph-name="racute" unicode="&#x155;" horiz-adv-x="851" 
d="M459 1061v-227q12 71 48.5 123t84 77.5t88 37t74.5 11.5q36 0 71 -6v-344q-50 15 -133 15q-103 0 -162 -59.5t-59 -158.5v-530h-352v1061h340zM324 1542h360l-313 -356h-242z" />
    <glyph glyph-name="Rcommaaccent" unicode="&#x156;" horiz-adv-x="1458" 
d="M514 770h256q72 0 116 50t44 126q0 79 -43.5 129.5t-116.5 50.5h-256v-356zM1294 950q0 -156 -81 -270t-226 -158q51 -243 213 -243q87 0 150 57l120 -242q-80 -59 -159 -88t-183 -29q-73 0 -136.5 21.5t-109 55.5t-83.5 81.5t-62 94t-43 100t-28 92.5t-15 76h-137v-498
h-362v1434h661q113 0 205.5 -39t152 -105.5t91.5 -154t32 -185.5zM664 -645l-64 102q137 63 137 156q-28 -4 -32 -4q-55 0 -90 39t-35 104q0 66 45 108t118 42q85 0 130 -54t45 -122q0 -52 -11 -100.5t-37.5 -100t-79 -96.5t-126.5 -74z" />
    <glyph glyph-name="rcommaaccent" unicode="&#x157;" horiz-adv-x="851" 
d="M459 1061v-227q12 71 48.5 123t84 77.5t88 37t74.5 11.5q36 0 71 -6v-344q-50 15 -133 15q-103 0 -162 -59.5t-59 -158.5v-530h-352v1061h340zM225 -645l-63 102q137 63 137 156q-28 -4 -33 -4q-55 0 -90 39t-35 104q0 66 45.5 108t118.5 42q85 0 129.5 -53.5
t44.5 -122.5q0 -52 -11 -100.5t-37.5 -100t-79 -96.5t-126.5 -74z" />
    <glyph glyph-name="Rcaron" unicode="&#x158;" horiz-adv-x="1458" 
d="M514 770h256q72 0 116 50t44 126q0 79 -43.5 129.5t-116.5 50.5h-256v-356zM1294 950q0 -156 -81 -270t-226 -158q51 -243 213 -243q87 0 150 57l120 -242q-80 -59 -159 -88t-183 -29q-73 0 -136.5 21.5t-109 55.5t-83.5 81.5t-62 94t-43 100t-28 92.5t-15 76h-137v-498
h-362v1434h661q113 0 205.5 -39t152 -105.5t91.5 -154t32 -185.5zM805 1538h-330l-203 309h220l149 -153l150 153h219z" />
    <glyph glyph-name="rcaron" unicode="&#x159;" horiz-adv-x="851" 
d="M459 1061v-227q12 71 48.5 123t84 77.5t88 37t74.5 11.5q36 0 71 -6v-344q-50 15 -133 15q-103 0 -162 -59.5t-59 -158.5v-530h-352v1061h340zM606 1186h-338l-205 356h230l145 -188l146 188h229z" />
    <glyph glyph-name="Sacute" unicode="&#x15a;" horiz-adv-x="1239" 
d="M51 410l307 65q52 -199 258 -199q85 0 141 33t56 97q0 41 -31 75t-116 62l-160 57q-173 60 -282 171.5t-109 252.5q0 194 145 313t369 119q180 0 306 -86t189 -252l-290 -117q-62 156 -203 156q-70 0 -114 -29t-44 -88q0 -38 28.5 -71t110.5 -64l154 -53q117 -37 198 -88
t123.5 -110t61 -115.5t20.5 -122.5q0 -88 -30 -161.5t-81.5 -124t-121.5 -85.5t-149 -51.5t-164 -16.5q-149 0 -271.5 50.5t-203.5 149.5t-97 233zM625 1847h352l-279 -309h-239z" />
    <glyph glyph-name="sacute" unicode="&#x15b;" horiz-adv-x="1009" 
d="M43 276l256 103q19 -78 75 -112t128 -34q52 0 87.5 17.5t35.5 52.5q0 23 -16 37t-60 33l-176 73q-283 105 -283 316q0 144 124.5 232.5t307.5 88.5q287 0 404 -241l-264 -101q-18 53 -59.5 74t-84.5 21t-71.5 -20t-28.5 -52q0 -28 21.5 -44.5t66.5 -31.5l141 -57
q307 -110 307 -328q0 -103 -64.5 -178.5t-166 -111.5t-225.5 -36q-77 0 -146.5 16t-132 49.5t-109 93t-67.5 140.5zM541 1542h360l-313 -356h-242z" />
    <glyph glyph-name="Scircumflex" unicode="&#x15c;" horiz-adv-x="1239" 
d="M51 410l307 65q52 -199 258 -199q85 0 141 33t56 97q0 41 -31 75t-116 62l-160 57q-173 60 -282 171.5t-109 252.5q0 194 145 313t369 119q180 0 306 -86t189 -252l-290 -117q-62 156 -203 156q-70 0 -114 -29t-44 -88q0 -38 28.5 -71t110.5 -64l154 -53q117 -37 198 -88
t123.5 -110t61 -115.5t20.5 -122.5q0 -88 -30 -161.5t-81.5 -124t-121.5 -85.5t-149 -51.5t-164 -16.5q-149 0 -271.5 50.5t-203.5 149.5t-97 233zM477 1847h330l205 -309h-219l-150 154l-149 -154h-220z" />
    <glyph glyph-name="scircumflex" unicode="&#x15d;" horiz-adv-x="1009" 
d="M43 276l256 103q19 -78 75 -112t128 -34q52 0 87.5 17.5t35.5 52.5q0 23 -16 37t-60 33l-176 73q-283 105 -283 316q0 144 124.5 232.5t307.5 88.5q287 0 404 -241l-264 -101q-18 53 -59.5 74t-84.5 21t-71.5 -20t-28.5 -52q0 -28 21.5 -44.5t66.5 -31.5l141 -57
q307 -110 307 -328q0 -103 -64.5 -178.5t-166 -111.5t-225.5 -36q-77 0 -146.5 16t-132 49.5t-109 93t-67.5 140.5zM332 1542h338l207 -356h-230l-145 188l-146 -188h-229z" />
    <glyph glyph-name="Scedilla" unicode="&#x15e;" horiz-adv-x="1239" 
d="M51 410l307 65q52 -199 258 -199q85 0 141 33t56 97q0 41 -31 75t-116 62l-160 57q-173 60 -282 171.5t-109 252.5q0 194 145 313t369 119q180 0 306 -86t189 -252l-290 -117q-62 156 -203 156q-70 0 -114 -29t-44 -88q0 -38 28.5 -71t110.5 -64l154 -53q117 -37 198 -88
t123.5 -110t61 -115.5t20.5 -122.5q0 -89 -30 -162.5t-84 -124.5t-122.5 -84.5t-150.5 -50.5q105 -87 105 -207q0 -54 -20 -98.5t-51 -72t-71.5 -46t-78.5 -26t-74 -7.5q-112 0 -200.5 60t-131.5 165l162 84q50 -104 133 -104q48 0 76 27t28 77q0 79 -67 131
q-219 8 -368 123t-173 310z" />
    <glyph glyph-name="scedilla" unicode="&#x15f;" horiz-adv-x="1009" 
d="M43 276l256 103q19 -78 75 -112t128 -34q52 0 87.5 17.5t35.5 52.5q0 23 -16 37t-60 33l-176 73q-283 105 -283 316q0 144 124.5 232.5t307.5 88.5q287 0 404 -241l-264 -101q-18 53 -59.5 74t-84.5 21t-71.5 -20t-28.5 -52q0 -28 21.5 -44.5t66.5 -31.5l141 -57
q307 -110 307 -328q0 -118 -80.5 -197t-214.5 -110q107 -89 107 -209q0 -54 -20 -98.5t-51 -72t-71.5 -46t-78.5 -26t-74 -7.5q-112 0 -200.5 60t-131.5 165l162 84q50 -104 133 -104q48 0 76.5 27t28.5 77q0 78 -68 131q-100 3 -183 32t-151 97t-94 170z" />
    <glyph glyph-name="Scaron" unicode="&#x160;" horiz-adv-x="1239" 
d="M51 410l307 65q52 -199 258 -199q85 0 141 33t56 97q0 41 -31 75t-116 62l-160 57q-173 60 -282 171.5t-109 252.5q0 194 145 313t369 119q180 0 306 -86t189 -252l-290 -117q-62 156 -203 156q-70 0 -114 -29t-44 -88q0 -38 28.5 -71t110.5 -64l154 -53q117 -37 198 -88
t123.5 -110t61 -115.5t20.5 -122.5q0 -88 -30 -161.5t-81.5 -124t-121.5 -85.5t-149 -51.5t-164 -16.5q-149 0 -271.5 50.5t-203.5 149.5t-97 233zM764 1538h-330l-203 309h220l149 -153l150 153h219z" />
    <glyph glyph-name="scaron" unicode="&#x161;" horiz-adv-x="1009" 
d="M43 276l256 103q19 -78 75 -112t128 -34q52 0 87.5 17.5t35.5 52.5q0 23 -16 37t-60 33l-176 73q-283 105 -283 316q0 144 124.5 232.5t307.5 88.5q287 0 404 -241l-264 -101q-18 53 -59.5 74t-84.5 21t-71.5 -20t-28.5 -52q0 -28 21.5 -44.5t66.5 -31.5l141 -57
q307 -110 307 -328q0 -103 -64.5 -178.5t-166 -111.5t-225.5 -36q-77 0 -146.5 16t-132 49.5t-109 93t-67.5 140.5zM670 1186h-338l-205 356h229l146 -188l145 188h230z" />
    <glyph glyph-name="Tcommaaccent" unicode="&#x162;" horiz-adv-x="1239" 
d="M43 1434h1151v-299h-397v-1135h-363v1135h-391v299zM535 -645l-64 102q137 63 137 156q-28 -4 -33 -4q-55 0 -89.5 39t-34.5 104q0 66 45 108t118 42q85 0 129.5 -53.5t44.5 -122.5q0 -52 -11 -100.5t-37 -100t-78.5 -96.5t-126.5 -74z" />
    <glyph glyph-name="tcommaaccent" unicode="&#x163;" horiz-adv-x="966" 
d="M952 315q0 -158 -100.5 -248t-269.5 -90q-60 0 -112 9.5t-103.5 36t-88 68t-59 110t-22.5 157.5v437h-154v266h184l47 260h273v-260h278v-266h-278v-455q0 -37 16.5 -59.5t50.5 -22.5q72 0 72 92q0 55 -16 92h252q26 -44 30 -127zM453 -645l-64 102q137 63 137 156
q-28 -4 -32 -4q-55 0 -90 39t-35 104q0 66 45 108t118 42q85 0 130 -54t45 -122q0 -52 -11 -100.5t-37.5 -100t-79 -96.5t-126.5 -74z" />
    <glyph glyph-name="Tcaron" unicode="&#x164;" horiz-adv-x="1239" 
d="M43 1434h1151v-299h-397v-1135h-363v1135h-391v299zM788 1538h-329l-203 309h219l150 -153l149 153h219z" />
    <glyph glyph-name="tcaron" unicode="&#x165;" horiz-adv-x="985" 
d="M545 1321v-260h276v-266h-276v-457q0 -37 16.5 -59.5t50.5 -22.5q70 0 70 92q0 61 -14 94h252q28 -47 28 -127q0 -158 -99.5 -248t-268.5 -90q-383 0 -383 379v439h-154v266h186l47 260h269zM936 1014l-64 102q136 62 136 156q-28 -4 -33 -4q-55 0 -90 39t-35 104
q0 66 46 108t118 42q85 0 130.5 -54.5t45.5 -122.5q0 -52 -11 -100t-37.5 -100t-79 -96.5t-126.5 -73.5z" />
    <glyph glyph-name="Tbar" unicode="&#x166;" horiz-adv-x="1263" 
d="M55 1434h1151v-299h-397v-332h256v-185h-256v-618h-363v618h-251v185h251v332h-391v299z" />
    <glyph glyph-name="tbar" unicode="&#x167;" horiz-adv-x="966" 
d="M78 518v141h119v136h-154v266h184l47 260h273v-260h278v-266h-278v-136h211v-141h-211v-178q0 -37 16.5 -59.5t50.5 -22.5q72 0 72 92q0 55 -16 92h252q26 -44 30 -127q0 -158 -100.5 -248t-269.5 -90q-60 0 -112 9.5t-103.5 36t-88 68t-59 110t-22.5 157.5v160h-119z
" />
    <glyph glyph-name="Utilde" unicode="&#x168;" horiz-adv-x="1476" 
d="M979 1434h362v-887q0 -109 -31.5 -201.5t-87 -159.5t-131 -114.5t-165.5 -71t-189 -23.5q-124 0 -232.5 37.5t-191 107.5t-130.5 180t-48 245v887h363v-887q0 -125 68.5 -193.5t170.5 -68.5q103 0 172.5 68.5t69.5 193.5v887zM991 1860l162 -52q-18 -61 -36.5 -103
t-47 -80t-70 -56.5t-96.5 -18.5t-114.5 20.5t-106.5 41t-74 20.5t-46.5 -6.5t-34 -23.5t-20.5 -27t-20 -37l-163 51q18 60 37 103t48 80.5t70 56t94 18.5q55 0 114 -21t107 -42t76 -21q14 0 26 2.5t21 5t18 10.5t13.5 11.5t12.5 15.5t10 15.5t10.5 18.5t9.5 18z" />
    <glyph glyph-name="utilde" unicode="&#x169;" 
d="M1147 1061v-1061h-352v139q-107 -162 -314 -162q-90 0 -158.5 29.5t-109 76t-66 112.5t-34.5 130.5t-9 139.5v596h353v-576q0 -101 39.5 -164t128.5 -63q90 0 130 63.5t40 165.5v574h352zM887 1528l162 -53q-18 -64 -36.5 -107t-47 -82.5t-70 -58.5t-96.5 -19
t-114.5 21.5t-106.5 43t-74 21.5q-18 0 -33 -3t-27 -12t-19 -14.5t-16.5 -21.5t-12.5 -21.5t-13 -25.5l-164 51q18 63 37.5 108t48 83.5t70 58t94.5 19.5q55 0 114 -21.5t107 -43t76 -21.5q11 0 21 1.5t18 3.5t16 7t12.5 7.5t11.5 10.5t10 11.5t8.5 13.5t7.5 13t8 15t8 15z
" />
    <glyph glyph-name="Umacron" unicode="&#x16a;" horiz-adv-x="1476" 
d="M979 1434h362v-887q0 -109 -31.5 -201.5t-87 -159.5t-131 -114.5t-165.5 -71t-189 -23.5q-124 0 -232.5 37.5t-191 107.5t-130.5 180t-48 245v887h363v-887q0 -125 68.5 -193.5t170.5 -68.5q103 0 172.5 68.5t69.5 193.5v887zM406 1802h665v-223h-665v223z" />
    <glyph glyph-name="umacron" unicode="&#x16b;" 
d="M1147 1061v-1061h-352v139q-107 -162 -314 -162q-90 0 -158.5 29.5t-109 76t-66 112.5t-34.5 130.5t-9 139.5v596h353v-576q0 -101 39.5 -164t128.5 -63q90 0 130 63.5t40 165.5v574h352zM301 1470h666v-225h-666v225z" />
    <glyph glyph-name="Ubreve" unicode="&#x16c;" horiz-adv-x="1476" 
d="M979 1434h362v-887q0 -109 -31.5 -201.5t-87 -159.5t-131 -114.5t-165.5 -71t-189 -23.5q-124 0 -232.5 37.5t-191 107.5t-130.5 180t-48 245v887h363v-887q0 -125 68.5 -193.5t170.5 -68.5q103 0 172.5 68.5t69.5 193.5v887zM737 1737q60 0 101 33t47 106l205 -25
q-9 -74 -38.5 -131.5t-66.5 -90.5t-84 -54t-86 -28t-78 -7t-78 7t-85 28t-83 54t-66 90.5t-38 131.5l205 25q6 -72 47 -105.5t98 -33.5z" />
    <glyph glyph-name="ubreve" unicode="&#x16d;" 
d="M1147 1061v-1061h-352v139q-107 -162 -314 -162q-90 0 -158.5 29.5t-109 76t-66 112.5t-34.5 130.5t-9 139.5v596h353v-576q0 -101 39.5 -164t128.5 -63q90 0 130 63.5t40 165.5v574h352zM635 1395q55 0 95.5 34.5t47.5 114.5l207 -24q-7 -78 -34 -138.5t-63 -95.5
t-83 -57.5t-87.5 -30.5t-82.5 -8t-82.5 8t-87 30.5t-83 57.5t-64 95.5t-35.5 138.5l209 24q7 -80 47.5 -114.5t95.5 -34.5z" />
    <glyph glyph-name="Uring" unicode="&#x16e;" horiz-adv-x="1476" 
d="M979 1434h362v-887q0 -109 -31.5 -201.5t-87 -159.5t-131 -114.5t-165.5 -71t-189 -23.5q-124 0 -232.5 37.5t-191 107.5t-130.5 180t-48 245v887h363v-887q0 -125 68.5 -193.5t170.5 -68.5q103 0 172.5 68.5t69.5 193.5v887zM475 1755q0 109 75.5 169.5t190.5 60.5
q117 0 193 -60.5t76 -169.5q0 -107 -76 -166t-193 -59q-115 0 -190.5 59.5t-75.5 165.5zM631 1755q0 -43 30.5 -67.5t79.5 -24.5q51 0 82 24.5t31 67.5q0 45 -30.5 67.5t-82.5 22.5q-50 0 -80 -22.5t-30 -67.5z" />
    <glyph glyph-name="uring" unicode="&#x16f;" 
d="M1147 1061v-1061h-352v139q-107 -162 -314 -162q-90 0 -158.5 29.5t-109 76t-66 112.5t-34.5 130.5t-9 139.5v596h353v-576q0 -101 39.5 -164t128.5 -63q90 0 130 63.5t40 165.5v574h352zM367 1413q0 108 76.5 176t189.5 68q115 0 191.5 -68t76.5 -176t-76.5 -173.5
t-191.5 -65.5q-113 0 -189.5 65.5t-76.5 173.5zM522 1413q0 -44 32 -74t79 -30q49 0 80.5 29.5t31.5 74.5q0 47 -31 75t-81 28q-48 0 -79.5 -28.5t-31.5 -74.5z" />
    <glyph glyph-name="Uhungarumlaut" unicode="&#x170;" horiz-adv-x="1476" 
d="M979 1434h362v-887q0 -109 -31.5 -201.5t-87 -159.5t-131 -114.5t-165.5 -71t-189 -23.5q-124 0 -232.5 37.5t-191 107.5t-130.5 180t-48 245v887h363v-887q0 -125 68.5 -193.5t170.5 -68.5q103 0 172.5 68.5t69.5 193.5v887zM567 1860h221l-198 -310h-193zM922 1860h221
l-211 -310h-199z" />
    <glyph glyph-name="uhungarumlaut" unicode="&#x171;" 
d="M1147 1061v-1061h-352v139q-107 -162 -314 -162q-90 0 -158.5 29.5t-109 76t-66 112.5t-34.5 130.5t-9 139.5v596h353v-576q0 -101 39.5 -164t128.5 -63q90 0 130 63.5t40 165.5v574h352zM500 1540h221l-221 -354h-193zM856 1540h219l-235 -354h-197z" />
    <glyph glyph-name="Uogonek" unicode="&#x172;" horiz-adv-x="1476" 
d="M979 1434h362v-887q0 -166 -72.5 -292t-192 -193.5t-269.5 -79.5q-37 -29 -53.5 -67t-16.5 -69q0 -50 28.5 -77t76.5 -27q79 0 133 104l162 -84q-43 -105 -131.5 -165t-200.5 -60q-47 0 -95 13t-94.5 40t-76 78.5t-29.5 118.5q0 117 98 203q-211 34 -342 179.5
t-131 377.5v887h363v-887q0 -125 68.5 -193.5t170.5 -68.5q103 0 172.5 68.5t69.5 193.5v887z" />
    <glyph glyph-name="uogonek" unicode="&#x173;" 
d="M795 16v123q-107 -162 -314 -162q-90 0 -158.5 29.5t-109 76t-66 112.5t-34.5 130.5t-9 139.5v596h353v-576q0 -101 39.5 -164t128.5 -63q90 0 130 63.5t40 165.5v574h352v-1061h-37q-39 0 -72 -5t-56 -14.5t-41.5 -21.5t-29.5 -25.5t-19 -27t-11.5 -26t-5.5 -22
t-3 -14.5v-6q0 -94 99 -94q84 0 133 104l164 -84q-44 -105 -133 -165t-201 -60q-46 0 -94 13t-95 40t-76.5 77.5t-29.5 117.5q0 33 11.5 68.5t48.5 81.5t96 79z" />
    <glyph glyph-name="Wcircumflex" unicode="&#x174;" horiz-adv-x="2035" 
d="M1151 1386l238 -765l237 813h373l-453 -1434h-282l-246 801l-246 -801h-283l-452 1434h373l237 -813l242 765h262zM852 1847h330l204 -309h-219l-149 154l-150 -154h-219z" />
    <glyph glyph-name="wcircumflex" unicode="&#x175;" horiz-adv-x="1695" 
d="M567 477l168 555h223l170 -555l156 584h389l-377 -1061h-284l-164 549l-164 -549h-285l-376 1061h387zM678 1542h338l207 -356h-230l-145 188l-146 -188h-229z" />
    <glyph glyph-name="Ycircumflex" unicode="&#x176;" horiz-adv-x="1527" 
d="M440 1434l324 -533l326 533h409v-50l-553 -798v-586h-362v580l-555 804v50h411zM598 1847h330l205 -309h-220l-149 154l-150 -154h-219z" />
    <glyph glyph-name="ycircumflex" unicode="&#x177;" horiz-adv-x="1243" 
d="M10 1061l439 -967l-240 -543h354l674 1510h-379l-233 -615l-224 615h-391zM442 1542h338l207 -356h-229l-146 188l-145 -188h-229z" />
    <glyph glyph-name="Ydieresis" unicode="&#x178;" horiz-adv-x="1527" 
d="M440 1434l324 -533l326 533h409v-50l-553 -798v-586h-362v580l-555 804v50h411zM322 1694q0 72 49 115.5t133 43.5q79 0 129.5 -44t50.5 -115t-50.5 -113.5t-129.5 -42.5q-85 0 -133.5 42t-48.5 114zM846 1694q0 72 49 115.5t129 43.5t132 -44t52 -115t-51.5 -113.5
t-132.5 -42.5q-80 0 -129 42.5t-49 113.5z" />
    <glyph glyph-name="Zacute" unicode="&#x179;" horiz-adv-x="1390" 
d="M1331 299v-299h-1278v225l738 910h-676v299h1165v-228l-743 -907h794zM686 1847h352l-278 -309h-240z" />
    <glyph glyph-name="zacute" unicode="&#x17a;" horiz-adv-x="1212" 
d="M1151 274v-274h-1088v199l549 587h-526v275h1034v-203l-547 -584h578zM606 1542h361l-314 -356h-241z" />
    <glyph glyph-name="Zdotaccent" unicode="&#x17b;" horiz-adv-x="1390" 
d="M1331 299v-299h-1278v225l738 910h-676v299h1165v-228l-743 -907h794zM502 1698q0 75 52 119.5t138 44.5q81 0 136 -45.5t55 -118.5q0 -72 -55 -117t-136 -45q-86 0 -138 44t-52 118z" />
    <glyph glyph-name="zdotaccent" unicode="&#x17c;" horiz-adv-x="1212" 
d="M1151 274v-274h-1088v199l549 587h-526v275h1034v-203l-547 -584h578zM418 1364q0 76 52.5 124t137.5 48q80 0 135.5 -49t55.5 -123q0 -73 -55.5 -120.5t-135.5 -47.5q-86 0 -138 47t-52 121z" />
    <glyph glyph-name="Zcaron" unicode="&#x17d;" horiz-adv-x="1390" 
d="M1331 299v-299h-1278v225l738 910h-676v299h1165v-228l-743 -907h794zM840 1538h-330l-203 309h219l150 -153l149 153h219z" />
    <glyph glyph-name="zcaron" unicode="&#x17e;" horiz-adv-x="1212" 
d="M1151 274v-274h-1088v199l549 587h-526v275h1034v-203l-547 -584h578zM776 1186h-338l-205 356h230l145 -188l146 188h229z" />
    <glyph glyph-name="longs" unicode="&#x17f;" horiz-adv-x="700" 
d="M541 1153v-1153h-353v795h-135v249h135v66q0 89 24 159t62.5 113t92 71t107.5 39t114 11q162 0 259 -84t97 -225q0 -38 -10 -68h-260q8 11 8 33q0 37 -18.5 59.5t-55.5 22.5q-38 0 -53.5 -26t-13.5 -62z" />
    <glyph glyph-name="florin" unicode="&#x192;" horiz-adv-x="882" 
d="M575 608v-692q0 -107 -30.5 -185t-84 -121t-117.5 -63t-140 -20q-61 0 -136 13t-116 36q13 35 43 117.5t47 126.5q51 -23 94 -23q86 0 86 88v723h-141v256h141v250q0 106 30.5 184.5t84.5 121.5t118 63t140 20q57 0 130.5 -14.5t123.5 -34.5l-92 -244q-51 23 -94 23
q-87 0 -87 -88v-281h222v-256h-222z" />
    <glyph glyph-name="Aringacute" unicode="&#x1fa;" horiz-adv-x="1456" 
d="M903 1411l555 -1411h-381l-98 256v-2h-508v2l-94 -256h-375q61 160 251.5 649t293.5 760q-90 64 -90 178q0 76 40.5 130.5t108.5 78.5l96 201h316l-172 -203q68 -26 107.5 -78.5t39.5 -128.5q0 -112 -90 -176zM727 1049l-178 -504h348q-15 43 -76.5 224t-93.5 280z
M612 1587q0 -45 30.5 -68.5t80.5 -23.5q52 0 82.5 23t30.5 69q0 43 -30.5 64.5t-82.5 21.5q-50 0 -80.5 -22t-30.5 -64z" />
    <glyph glyph-name="aringacute" unicode="&#x1fb;" horiz-adv-x="1363" 
d="M666 1835h315l-174 -215q68 -26 106.5 -78.5t38.5 -128.5q0 -107 -75.5 -167t-192.5 -60q-115 0 -190.5 60t-75.5 167q0 77 39.5 131t109.5 80zM573 1413q0 -45 30.5 -68.5t80.5 -23.5t80.5 23.5t30.5 68.5t-30.5 66.5t-80.5 21.5t-80.5 -21.5t-30.5 -66.5zM414 532
q0 -120 65.5 -199t175.5 -79q107 0 176.5 72t69.5 196q0 129 -68.5 206t-181.5 77q-107 0 -172 -78.5t-65 -194.5zM893 1061h352v-1061h-352v145q-110 -168 -322 -168q-149 0 -267 74t-181.5 200t-63.5 281q0 153 61.5 277.5t179 199t269.5 74.5q102 0 188 -44t136 -119v141
z" />
    <glyph glyph-name="AEacute" unicode="&#x1fc;" horiz-adv-x="1912" 
d="M-18 0l755 1434h1086v-299h-555v-299h473v-283h-473v-256h555v-297h-918v418h-327l-218 -418h-378zM715 707h190v391zM1149 1847h352l-278 -309h-240z" />
    <glyph glyph-name="aeacute" unicode="&#x1fd;" horiz-adv-x="1947" 
d="M997 1540h361q-52 -61 -155.5 -177.5t-155.5 -176.5h-242zM504 664q148 0 291 -58v31q0 75 -65.5 122.5t-151.5 47.5q-204 0 -334 -98l-117 213q168 161 487 161q245 0 375 -151q65 72 165 111.5t212 39.5q91 0 170 -21t147 -66.5t116.5 -112.5t76 -162.5t27.5 -212.5
v-35h-783q5 -94 77.5 -157.5t211.5 -63.5q146 0 256 113l186 -197q-181 -191 -460 -191q-300 0 -463 187q-162 -187 -455 -187q-178 0 -300 95t-122 256q0 103 62 180.5t164 116.5t227 39zM1358 840q-78 0 -142 -43t-86 -133h447q-16 91 -77 133.5t-142 42.5zM791 442
q-90 37 -203 37q-92 0 -136 -35.5t-44 -91.5q0 -49 42 -80.5t115 -31.5q158 0 252 90q-23 54 -26 112z" />
    <glyph glyph-name="Oslashacute" unicode="&#x1fe;" horiz-adv-x="1658" 
d="M829 -23q-182 0 -331 70l-105 -156l-157 109l100 150q-126 104 -196 250.5t-70 316.5q0 150 57 285.5t156 235.5t241.5 159t304.5 59q181 0 338 -74l95 140l157 -109l-90 -135q124 -103 192 -249t68 -312q0 -150 -57 -285.5t-156.5 -236t-242 -159.5t-304.5 -59zM434 717
q0 -163 94 -281l453 670q-79 29 -152 29q-171 0 -283 -119.5t-112 -298.5zM829 299q171 0 284.5 119.5t113.5 298.5q0 155 -92 274l-451 -667q70 -25 145 -25zM854 1847h352l-278 -309h-240z" />
    <glyph glyph-name="oslashacute" unicode="&#x1ff;" horiz-adv-x="1306" 
d="M686 1542h361l-314 -356h-241zM1251 530q0 -112 -47 -214.5t-127 -176.5t-191 -118t-233 -44q-164 0 -307 78l-113 -129l-127 119l103 115q-154 157 -154 370q0 113 47.5 215.5t127.5 176.5t190.5 117.5t232.5 43.5q164 0 305 -77l119 135l127 -119l-106 -121
q73 -74 113 -170t40 -201zM911 530q0 65 -28 129l-332 -372q49 -19 102 -19q115 0 186.5 72.5t71.5 189.5zM395 530q0 -64 29 -127l330 373q-49 19 -101 19q-115 0 -186.5 -74t-71.5 -191z" />
    <glyph glyph-name="Scommaaccent" unicode="&#x218;" horiz-adv-x="1239" 
d="M51 410l307 65q52 -199 258 -199q85 0 141 33t56 97q0 41 -31 75t-116 62l-160 57q-173 60 -282 171.5t-109 252.5q0 194 145 313t369 119q180 0 306 -86t189 -252l-290 -117q-62 156 -203 156q-70 0 -114 -29t-44 -88q0 -38 28.5 -71t110.5 -64l154 -53q117 -37 198 -88
t123.5 -110t61 -115.5t20.5 -122.5q0 -88 -30 -161.5t-81.5 -124t-121.5 -85.5t-149 -51.5t-164 -16.5q-149 0 -271.5 50.5t-203.5 149.5t-97 233zM547 -645l-64 102q138 63 138 156q-28 -4 -33 -4q-55 0 -90 39t-35 104q0 66 45.5 108t118.5 42q85 0 129.5 -53.5
t44.5 -122.5q0 -52 -11 -100.5t-37.5 -100t-79 -96.5t-126.5 -74z" />
    <glyph glyph-name="scommaaccent" unicode="&#x219;" horiz-adv-x="1009" 
d="M43 276l256 103q19 -78 75 -112t128 -34q52 0 87.5 17.5t35.5 52.5q0 23 -16 37t-60 33l-176 73q-283 105 -283 316q0 144 124.5 232.5t307.5 88.5q287 0 404 -241l-264 -101q-18 53 -59.5 74t-84.5 21t-71.5 -20t-28.5 -52q0 -28 21.5 -44.5t66.5 -31.5l141 -57
q307 -110 307 -328q0 -103 -64.5 -178.5t-166 -111.5t-225.5 -36q-77 0 -146.5 16t-132 49.5t-109 93t-67.5 140.5zM416 -645l-64 102q137 63 137 156q-28 -4 -32 -4q-55 0 -90 39t-35 104q0 66 45.5 108t118.5 42q85 0 129.5 -53.5t44.5 -122.5q0 -52 -11 -100.5
t-37.5 -100t-79 -96.5t-126.5 -74z" />
    <glyph glyph-name="uni021A" unicode="&#x21a;" horiz-adv-x="1239" 
d="M43 1434h1151v-299h-397v-1135h-80q112 -86 112 -213q0 -55 -19.5 -99t-50.5 -71.5t-71 -46t-78 -26t-75 -7.5q-112 0 -200.5 60t-131.5 165l162 84q54 -104 133 -104q48 0 76 27t28 77q0 38 -23 81.5t-77 72.5h-68v1135h-391v299z" />
    <glyph glyph-name="uni021B" unicode="&#x21b;" horiz-adv-x="966" 
d="M952 315q0 -139 -78 -224.5t-215 -106.5q95 -82 95 -197q0 -67 -29.5 -118.5t-76 -78.5t-94.5 -40t-95 -13q-112 0 -200.5 60t-131.5 165l162 84q54 -104 133 -104q48 0 76 27t28 77q0 37 -21 79t-71 71q-237 71 -237 362v437h-154v266h184l47 260h273v-260h278v-266
h-278v-455q0 -37 16.5 -59.5t50.5 -22.5q72 0 72 92q0 55 -16 92h252q26 -44 30 -127z" />
    <glyph glyph-name="circumflex" unicode="&#x2c6;" horiz-adv-x="1302" 
d="M481 1542h338l207 -356h-229l-146 188l-145 -188h-230z" />
    <glyph glyph-name="caron" unicode="&#x2c7;" horiz-adv-x="1302" 
d="M819 1186h-338l-205 356h230l145 -188l146 188h229z" />
    <glyph glyph-name="uni02C9" unicode="&#x2c9;" horiz-adv-x="1107" 
d="M221 1470h666v-225h-666v225z" />
    <glyph glyph-name="breve" unicode="&#x2d8;" horiz-adv-x="1087" 
d="M535 1395q55 0 95.5 34.5t47.5 114.5l207 -24q-7 -78 -34 -138.5t-63 -95.5t-83 -57.5t-87.5 -30.5t-82.5 -8t-82.5 8t-87.5 30.5t-83.5 57.5t-64 95.5t-35.5 138.5l209 24q7 -80 48 -114.5t96 -34.5z" />
    <glyph glyph-name="dotaccent" unicode="&#x2d9;" horiz-adv-x="823" 
d="M221 1364q0 76 52.5 124t138.5 48q80 0 135 -49t55 -123q0 -73 -55 -120.5t-135 -47.5q-86 0 -138.5 47t-52.5 121z" />
    <glyph glyph-name="ring" unicode="&#x2da;" horiz-adv-x="976" 
d="M221 1413q0 108 76.5 176t189.5 68q115 0 192 -68t77 -176t-77 -173.5t-192 -65.5q-113 0 -189.5 65.5t-76.5 173.5zM377 1413q0 -44 31.5 -74t78.5 -30q49 0 81 29.5t32 74.5q0 47 -31.5 75t-81.5 28q-48 0 -79 -28t-31 -75z" />
    <glyph glyph-name="ogonek" unicode="&#x2db;" horiz-adv-x="1021" 
d="M569 72v-52q-58 -18 -94 -53t-46.5 -64t-10.5 -57q0 -50 28 -77t76 -27q79 0 133 104l162 -84q-43 -105 -131.5 -165t-200.5 -60q-47 0 -95 13t-94.5 40t-76 78.5t-29.5 118.5q0 83 61.5 163.5t188.5 121.5h129z" />
    <glyph glyph-name="tilde" unicode="&#x2dc;" horiz-adv-x="1165" 
d="M836 1528l161 -53q-14 -50 -27.5 -86.5t-34.5 -72.5t-46 -58.5t-61 -36t-80 -13.5q-55 0 -114.5 21.5t-106.5 43t-74 21.5q-18 0 -33 -3t-27 -12t-19 -14.5t-16.5 -21.5t-12.5 -21.5t-13 -25.5l-164 51q18 63 37.5 108t48 83.5t70 58t94.5 19.5q55 0 114 -21.5t107 -43
t76 -21.5q11 0 21 1.5t18 3.5t16 7t12.5 7.5t11.5 10.5t10 11.5t8.5 13.5t7.5 13t8 15t8 15z" />
    <glyph glyph-name="hungarumlaut" unicode="&#x2dd;" horiz-adv-x="1216" 
d="M416 1540h221l-221 -354h-193zM772 1540h219l-235 -354h-197z" />
    <glyph glyph-name="uni0394" unicode="&#x394;" horiz-adv-x="1593" 
d="M88 74l541 1360h356l516 -1362v-72h-1413v74zM803 1032l-266 -747h522z" />
    <glyph glyph-name="uni03A9" unicode="&#x3a9;" horiz-adv-x="1673" 
d="M836 1456q168 0 311 -54.5t239.5 -147t150.5 -216t54 -260.5q0 -159 -98.5 -306t-214.5 -191h274v-281h-651v276q158 55 247 189.5t89 292.5q0 191 -114.5 300t-286.5 109q-171 0 -285.5 -109t-114.5 -300q0 -156 88.5 -291t247.5 -191v-276h-651v281h272
q-115 44 -214 190t-99 305q0 138 54.5 262t151.5 216.5t240 147t310 54.5z" />
    <glyph glyph-name="uni03BC" unicode="&#x3bc;" horiz-adv-x="1280" 
d="M1161 1061v-1061h-352v139q-107 -162 -313 -162q-17 0 -62 5v-330h-315v1409h352v-576q0 -101 39.5 -164t128.5 -63q90 0 130 63.5t40 165.5v574h352z" />
    <glyph glyph-name="pi" unicode="&#x3c0;" horiz-adv-x="1531" 
d="M752 358v428h-166v-786h-348v786h-189v275h1262v-275h-211v-460q0 -84 69 -84q36 0 55 24t19 62q0 44 -10 67h264q16 -40 16 -110q0 -140 -100.5 -224t-263.5 -84q-61 0 -114 9.5t-106.5 36t-91.5 67.5t-61.5 110t-23.5 158z" />
    <glyph glyph-name="Wgrave" unicode="&#x1e80;" horiz-adv-x="2035" 
d="M1151 1386l238 -765l237 813h373l-453 -1434h-282l-246 801l-246 -801h-283l-452 1434h373l237 -813l242 765h262zM655 1847h353l166 -309h-240z" />
    <glyph glyph-name="wgrave" unicode="&#x1e81;" horiz-adv-x="1695" 
d="M567 477l168 555h223l170 -555l156 584h389l-377 -1061h-284l-164 549l-164 -549h-285l-376 1061h387zM420 1542h362l193 -356h-242z" />
    <glyph glyph-name="Wacute" unicode="&#x1e82;" horiz-adv-x="2035" 
d="M1151 1386l238 -765l237 813h373l-453 -1434h-282l-246 801l-246 -801h-283l-452 1434h373l237 -813l242 765h262zM1028 1847h352l-278 -309h-240z" />
    <glyph glyph-name="wacute" unicode="&#x1e83;" horiz-adv-x="1695" 
d="M567 477l168 555h223l170 -555l156 584h389l-377 -1061h-284l-164 549l-164 -549h-285l-376 1061h387zM907 1542h361l-314 -356h-241z" />
    <glyph glyph-name="Wdieresis" unicode="&#x1e84;" horiz-adv-x="2035" 
d="M1151 1386l238 -765l237 813h373l-453 -1434h-282l-246 801l-246 -801h-283l-452 1434h373l237 -813l242 765h262zM573 1694q0 72 49.5 115.5t133.5 43.5q79 0 129.5 -44t50.5 -115t-50.5 -113.5t-129.5 -42.5q-85 0 -134 42t-49 114zM1098 1694q0 72 49 115.5t129 43.5
t132 -44t52 -115t-51.5 -113.5t-132.5 -42.5q-80 0 -129 42.5t-49 113.5z" />
    <glyph glyph-name="wdieresis" unicode="&#x1e85;" horiz-adv-x="1695" 
d="M567 477l168 555h223l170 -555l156 584h389l-377 -1061h-284l-164 549l-164 -549h-285l-376 1061h387zM397 1364q0 73 53.5 121.5t137.5 48.5q78 0 132 -49t54 -121q0 -71 -53.5 -118.5t-132.5 -47.5q-84 0 -137.5 47t-53.5 119zM922 1364q0 72 53.5 121t132.5 49
q80 0 135 -49t55 -121q0 -71 -55 -118.5t-135 -47.5t-133 47t-53 119z" />
    <glyph glyph-name="Ygrave" unicode="&#x1ef2;" horiz-adv-x="1527" 
d="M440 1434l324 -533l326 533h409v-50l-553 -798v-586h-362v580l-555 804v50h411zM371 1847h352l166 -309h-240z" />
    <glyph glyph-name="ygrave" unicode="&#x1ef3;" horiz-adv-x="1243" 
d="M10 1061l439 -967l-240 -543h354l674 1510h-379l-233 -615l-224 615h-391zM229 1542h363l192 -356h-241z" />
    <glyph glyph-name="thinspace" unicode="&#x2009;" horiz-adv-x="34" 
 />
    <glyph glyph-name="endash" unicode="&#x2013;" horiz-adv-x="1214" 
d="M117 485v295h983v-295h-983z" />
    <glyph glyph-name="emdash" unicode="&#x2014;" horiz-adv-x="1636" 
d="M117 485v295h1403v-295h-1403z" />
    <glyph glyph-name="quoteleft" unicode="&#x2018;" horiz-adv-x="540" 
d="M362 1481l80 -119q-68 -35 -109.5 -97.5t-43.5 -129.5q74 0 120 -49.5t46 -112.5q5 -77 -47 -128.5t-144 -51.5q-52 0 -91 21.5t-59.5 55t-30 66.5t-9.5 63q0 100 32 194.5t98.5 172t157.5 115.5z" />
    <glyph glyph-name="quoteright" unicode="&#x2019;" horiz-adv-x="534" 
d="M180 793l-80 118q68 35 110 98t44 130q-74 0 -120 49t-46 112q-5 77 47.5 129t143.5 52q52 0 91 -21.5t59.5 -55.5t30 -67t9.5 -63q0 -100 -32.5 -194.5t-99 -171.5t-157.5 -115z" />
    <glyph glyph-name="quotesinglbase" unicode="&#x201a;" horiz-adv-x="559" 
d="M178 -301l-80 119q68 35 110 97.5t44 129.5q-74 0 -120 49.5t-46 112.5q-5 77 47 128.5t143 51.5q42 0 76 -14.5t55 -37t35 -51.5t19.5 -55t5.5 -49q0 -100 -32.5 -194.5t-99 -171.5t-157.5 -115z" />
    <glyph glyph-name="quotedblleft" unicode="&#x201c;" horiz-adv-x="1089" 
d="M911 1481l80 -119q-68 -35 -109.5 -97.5t-43.5 -129.5q74 0 120 -49.5t46 -112.5q5 -77 -47 -128.5t-144 -51.5q-52 0 -91 21.5t-59.5 55t-30 66.5t-9.5 63q0 100 32 194.5t98.5 172t157.5 115.5zM362 1481l80 -119q-68 -35 -109.5 -97.5t-43.5 -129.5q74 0 120 -49.5
t46 -112.5q5 -77 -47 -128.5t-144 -51.5q-52 0 -91 21.5t-59.5 55t-30 66.5t-9.5 63q0 100 32 194.5t98.5 172t157.5 115.5z" />
    <glyph glyph-name="quotedblright" unicode="&#x201d;" horiz-adv-x="1083" 
d="M180 793l-80 118q68 35 110 98t44 130q-74 0 -120 49t-46 112q-5 77 47.5 129t143.5 52q52 0 91 -21.5t59.5 -55.5t30 -67t9.5 -63q0 -100 -32.5 -194.5t-99 -171.5t-157.5 -115zM729 793l-80 118q68 35 110 98t44 130q-74 0 -120 49t-46 112q-5 77 47 129t143 52
q42 0 76 -14.5t55 -37t35 -51.5t19.5 -55t5.5 -49q0 -100 -32.5 -194.5t-99 -171.5t-157.5 -115z" />
    <glyph glyph-name="quotedblbase" unicode="&#x201e;" horiz-adv-x="1107" 
d="M178 -301l-80 119q68 35 110 97.5t44 129.5q-74 0 -120 49.5t-46 112.5q-5 77 47 128.5t143 51.5q42 0 76 -14.5t55 -37t35 -51.5t19.5 -55t5.5 -49q0 -100 -32.5 -194.5t-99 -171.5t-157.5 -115zM727 -301l-80 119q68 35 110 97.5t44 129.5q-74 0 -120 49.5t-46 112.5
q-5 77 47 128.5t143 51.5q42 0 76 -14.5t55 -37t35 -51.5t19.5 -55t5.5 -49q0 -100 -32.5 -194.5t-99 -171.5t-157.5 -115z" />
    <glyph glyph-name="dagger" unicode="&#x2020;" horiz-adv-x="1159" 
d="M735 823v-1114h-313v1114h-363v267h363v464h313v-464h365v-267h-365z" />
    <glyph glyph-name="daggerdbl" unicode="&#x2021;" horiz-adv-x="1249" 
d="M1145 166h-365v-457h-313v457h-363v266h363v391h-363v267h363v464h313v-464h365v-267h-365v-391h365v-266z" />
    <glyph glyph-name="bullet" unicode="&#x2022;" horiz-adv-x="843" 
d="M129 528q0 124 84 208.5t209 84.5q124 0 208.5 -85t84.5 -208q0 -122 -84.5 -208.5t-208.5 -86.5q-125 0 -209 85t-84 210z" />
    <glyph glyph-name="ellipsis" unicode="&#x2026;" horiz-adv-x="1828" 
d="M82 164q0 85 58.5 138.5t150.5 53.5t152.5 -54t60.5 -138q0 -80 -61 -133.5t-152 -53.5t-150 53.5t-59 133.5zM705 164q0 85 58 138.5t150 53.5t152.5 -54t60.5 -138q0 -80 -61 -133.5t-152 -53.5t-149.5 53.5t-58.5 133.5zM1327 164q0 85 58.5 138.5t150.5 53.5
t152.5 -54t60.5 -138q0 -80 -61 -133.5t-152 -53.5t-150 53.5t-59 133.5z" />
    <glyph glyph-name="perthousand" unicode="&#x2030;" horiz-adv-x="3108" 
d="M2214 371q0 166 120 279.5t298 113.5t296.5 -113t118.5 -280t-118.5 -280.5t-296.5 -113.5t-298 114t-120 280zM2474 371q0 -72 47 -120t111 -48q67 0 114 48t47 120q0 74 -47 123t-114 49q-64 0 -111 -49t-47 -123zM555 0l797 1434h211l-793 -1434h-215zM61 1063
q0 166 119.5 279.5t296.5 113.5q179 0 298.5 -113t119.5 -280t-119.5 -280t-298.5 -113q-177 0 -296.5 113.5t-119.5 279.5zM319 1063q0 -72 47.5 -120t112.5 -48q67 0 114.5 48t47.5 120q0 74 -47.5 122t-114.5 48q-65 0 -112.5 -48.5t-47.5 -121.5zM1245 371
q0 166 120 279.5t298 113.5t297 -113.5t119 -279.5q0 -167 -119 -280.5t-297 -113.5t-298 114t-120 280zM1505 371q0 -72 47 -120t111 -48q67 0 114.5 48t47.5 120q0 74 -47.5 123t-114.5 49q-64 0 -111 -49t-47 -123z" />
    <glyph glyph-name="guilsinglleft" unicode="&#x2039;" horiz-adv-x="739" 
d="M59 602l418 481l193 -180l-289 -336l287 -329l-191 -185l-418 482v67z" />
    <glyph glyph-name="guilsinglright" unicode="&#x203a;" horiz-adv-x="737" 
d="M260 1083l418 -481v-67l-418 -482l-190 185l286 329l-288 336z" />
    <glyph glyph-name="fraction" unicode="&#x2044;" horiz-adv-x="307" 
d="M813 1505l-1120 -1585h-199l1118 1585h201z" />
    <glyph glyph-name="zerosuperior" unicode="&#x2070;" horiz-adv-x="753" 
d="M705 1337q0 -157 -90.5 -264.5t-239.5 -107.5t-238.5 107t-89.5 265q0 159 89.5 266t238.5 107q150 0 240 -107t90 -266zM506 1337q0 89 -36 146t-95 57t-93 -56.5t-34 -146.5q0 -88 34 -144t93 -56t95 56t36 144z" />
    <glyph glyph-name="foursuperior" unicode="&#x2074;" horiz-adv-x="733" 
d="M225 1305h150v178zM360 1157h-340v107l353 432h188v-391h141v-148h-141v-178h-201v178z" />
    <glyph glyph-name="fivesuperior" unicode="&#x2075;" horiz-adv-x="669" 
d="M299 1124q61 0 92 30t31 73q0 40 -30 72t-85 32q-75 0 -119 -35l-114 50l20 350h471v-160h-311l-8 -98q44 26 123 26q106 0 180 -69.5t74 -167.5q0 -119 -83 -190.5t-229 -71.5q-177 0 -274 90l96 123q79 -54 166 -54z" />
    <glyph glyph-name="sixsuperior" unicode="&#x2076;" horiz-adv-x="706" 
d="M389 1552q-59 0 -101.5 -41.5t-43.5 -117.5h4q52 57 153 57q44 0 88 -14t82 -40.5t62 -72.5t24 -104q0 -109 -84.5 -181.5t-210.5 -72.5q-146 0 -229.5 99t-83.5 261q0 164 87 274.5t245 110.5q74 0 142.5 -27t113.5 -81l-113 -105q-55 55 -135 55zM358 1323
q-52 0 -78 -29t-26 -71t26.5 -70.5t77.5 -28.5q48 0 78.5 26.5t30.5 70.5q0 45 -28.5 73.5t-80.5 28.5z" />
    <glyph glyph-name="sevensuperior" unicode="&#x2077;" horiz-adv-x="618" 
d="M35 1534v162h567v-115l-313 -602h-217l299 555h-336z" />
    <glyph glyph-name="eightsuperior" unicode="&#x2078;" horiz-adv-x="716" 
d="M358 1417q42 0 67.5 22.5t25.5 49.5q0 34 -26.5 53t-66.5 19t-66 -19t-26 -53q0 -27 25 -49.5t67 -22.5zM358 1122q49 0 85 26.5t36 61.5q0 33 -32.5 59.5t-88.5 26.5t-88 -26.5t-32 -59.5q0 -35 35.5 -61.5t84.5 -26.5zM358 965q-135 0 -224 64.5t-89 176.5
q0 45 35.5 93.5t89.5 66.5q-41 17 -65.5 53.5t-24.5 75.5q0 98 77.5 156.5t200.5 58.5t201 -58.5t78 -156.5q0 -39 -24.5 -75.5t-65.5 -53.5q54 -18 89.5 -66.5t35.5 -93.5q0 -112 -89.5 -176.5t-224.5 -64.5z" />
    <glyph glyph-name="ninesuperior" unicode="&#x2079;" horiz-adv-x="704" 
d="M315 1122q59 0 101.5 41t46.5 119h-4q-51 -59 -154 -59q-45 0 -89 14t-82.5 40.5t-62.5 72.5t-24 104q0 109 84.5 182.5t210.5 73.5q147 0 230 -98.5t83 -261.5q0 -107 -35.5 -192.5t-111.5 -139t-184 -53.5q-75 0 -143 26t-113 80q19 19 55.5 53t56.5 54q56 -56 135 -56
zM346 1350q52 0 79.5 29.5t27.5 70.5t-28 69.5t-79 28.5q-46 0 -76 -25t-30 -71q0 -44 28.5 -73t77.5 -29z" />
    <glyph glyph-name="parenleftsuperior" unicode="&#x207d;" horiz-adv-x="442" 
d="M244 1335q0 -124 48 -248t99 -200l-123 -78q-29 29 -62 78t-68 117t-58 156t-23 175q0 85 23 174t58 158t68.5 119t61.5 78l123 -80q-52 -76 -99.5 -199.5t-47.5 -249.5z" />
    <glyph glyph-name="parenrightsuperior" unicode="&#x207e;" horiz-adv-x="444" 
d="M197 1335q0 126 -47 250t-99 199l121 80q29 -29 62.5 -78.5t69 -118.5t58.5 -157.5t23 -174.5q0 -112 -41 -229t-85.5 -187t-84.5 -110l-123 78q51 72 98.5 197.5t47.5 250.5z" />
    <glyph glyph-name="zeroinferior" unicode="&#x2080;" horiz-adv-x="753" 
d="M705 68q0 -157 -90.5 -265t-239.5 -108t-238.5 107.5t-89.5 265.5q0 159 89 265.5t239 106.5t240 -107t90 -265zM506 68q0 89 -36 145.5t-95 56.5t-93 -56t-34 -146q0 -88 34 -144.5t93 -56.5t95 56.5t36 144.5z" />
    <glyph glyph-name="oneinferior" unicode="&#x2081;" horiz-adv-x="497" 
d="M63 150l-53 147l299 129h113v-717h-201v504z" />
    <glyph glyph-name="twoinferior" unicode="&#x2082;" horiz-adv-x="671" 
d="M449 -53l-97 -80q50 4 78 4h186v-162h-553l-18 113l274 254q82 74 82 127q0 29 -19.5 47t-49.5 18q-50 0 -74.5 -30t-24.5 -70h-184q0 48 14.5 94t45.5 87t86.5 66t128.5 25q123 0 199.5 -64.5t76.5 -170.5q0 -76 -44.5 -143.5t-106.5 -114.5z" />
    <glyph glyph-name="threeinferior" unicode="&#x2083;" horiz-adv-x="669" 
d="M303 -143q46 0 79.5 30.5t33.5 67.5q0 41 -29.5 67.5t-71.5 26.5q-33 0 -82 -16l-69 92l172 139h-266v162h522v-113l-174 -153q88 -10 144 -67.5t56 -135.5q0 -108 -86.5 -185t-228.5 -77q-85 0 -150.5 20t-121.5 72l94 123q37 -25 74 -37.5t54.5 -14t49.5 -1.5z" />
    <glyph glyph-name="fourinferior" unicode="&#x2084;" horiz-adv-x="733" 
d="M225 35h150v178zM360 -113h-340v107l353 432h188v-391h141v-148h-141v-178h-201v178z" />
    <glyph glyph-name="fiveinferior" unicode="&#x2085;" horiz-adv-x="669" 
d="M299 -145q62 0 92.5 29.5t30.5 72.5q0 40 -30 72t-85 32q-76 0 -119 -34l-114 49l20 350h471v-160h-311l-8 -98q46 27 123 27q106 0 180 -70t74 -168q0 -119 -83 -190.5t-229 -71.5q-177 0 -274 90l96 123q77 -53 166 -53z" />
    <glyph glyph-name="sixinferior" unicode="&#x2086;" horiz-adv-x="706" 
d="M389 283q-59 0 -101.5 -42t-43.5 -118h4q52 57 153 57q44 0 88 -14t82 -40.5t62 -72.5t24 -104q0 -109 -84.5 -181.5t-210.5 -72.5q-146 0 -229.5 99t-83.5 261q0 164 87 274.5t245 110.5q74 0 142.5 -27t113.5 -81l-113 -105q-56 56 -135 56zM358 53q-52 0 -78 -29
t-26 -71q0 -41 26.5 -69.5t77.5 -28.5q48 0 78.5 26t30.5 70q0 45 -28.5 73.5t-80.5 28.5z" />
    <glyph glyph-name="seveninferior" unicode="&#x2087;" horiz-adv-x="618" 
d="M35 264v162h567v-115l-313 -602h-217l299 555h-336z" />
    <glyph glyph-name="eightinferior" unicode="&#x2088;" horiz-adv-x="716" 
d="M358 147q42 0 67.5 22.5t25.5 49.5q0 34 -26.5 53t-66.5 19t-66 -19t-26 -53q0 -27 25 -49.5t67 -22.5zM358 -147q49 0 85 26.5t36 61.5q0 33 -32.5 59.5t-88.5 26.5t-88 -26.5t-32 -59.5q0 -35 35.5 -61.5t84.5 -26.5zM358 -305q-135 0 -224 65t-89 177q0 45 35.5 93
t89.5 66q-41 17 -65.5 53.5t-24.5 75.5q0 98 77.5 156.5t200.5 58.5t201 -58.5t78 -156.5q0 -39 -24.5 -75.5t-65.5 -53.5q54 -18 89.5 -66t35.5 -93q0 -112 -89.5 -177t-224.5 -65z" />
    <glyph glyph-name="nineinferior" unicode="&#x2089;" horiz-adv-x="704" 
d="M315 -147q60 0 102 40.5t46 118.5h-4q-51 -59 -154 -59q-45 0 -89 14t-82.5 40.5t-62.5 72.5t-24 104q0 109 84.5 182.5t210.5 73.5q147 0 230 -98.5t83 -261.5q0 -107 -35.5 -192.5t-111.5 -139t-184 -53.5q-75 0 -143 26t-113 80q19 20 55.5 54t56.5 53q55 -55 135 -55
zM346 80q52 0 79.5 29.5t27.5 70.5t-28 70t-79 29q-46 0 -76 -25.5t-30 -71.5q0 -44 28.5 -73t77.5 -29z" />
    <glyph glyph-name="parenleftinferior" unicode="&#x208d;" horiz-adv-x="442" 
d="M244 66q0 -126 47.5 -249.5t99.5 -199.5l-123 -78q-29 29 -62 78t-68 117.5t-58 156.5t-23 175q0 85 23 174t58 157.5t68.5 118.5t61.5 78l123 -80q-53 -76 -100 -199t-47 -249z" />
    <glyph glyph-name="parenrightinferior" unicode="&#x208e;" horiz-adv-x="444" 
d="M197 66q0 126 -47 249t-99 199l121 80q29 -29 62.5 -78.5t69 -118t58.5 -157t23 -174.5t-23 -174.5t-58 -157t-68.5 -118t-61.5 -77.5l-123 78q52 75 99 199t47 250z" />
    <glyph glyph-name="lira" unicode="&#x20a4;" horiz-adv-x="1323" 
d="M995 461h-270q-1 -54 -20.5 -95t-67.5 -92q81 11 235 11h373v-285h-1161v276q305 19 305 185h-264v137h231l-43 104h-188v138h141q-35 110 -35 192q0 187 144 305.5t360 118.5q98 0 179 -27.5t134.5 -72.5t91 -104.5t54 -121.5t16.5 -126h-323q0 63 -41 103t-119 40
q-68 0 -110 -34.5t-42 -98.5q0 -69 41 -174h379v-138h-331q6 -16 18.5 -51t19.5 -53h293v-137z" />
    <glyph glyph-name="rupee" unicode="&#x20a8;" horiz-adv-x="1396" 
d="M98 887v129h643q-18 51 -56.5 80.5t-92.5 29.5h-494v308h1205v-129h-326q113 -113 135 -289h191v-129h-191q-17 -134 -95.5 -229t-207.5 -136q51 -243 213 -243q86 0 149 57l121 -242q-80 -59 -159 -88t-183 -29q-73 0 -136.5 21.5t-109 55.5t-83.5 81.5t-62 94t-43 100
t-28 92.5t-15 76h-375v272h494q114 0 151 117h-645z" />
    <glyph glyph-name="uni20A9" unicode="&#x20a9;" horiz-adv-x="2187" 
d="M88 963v135h131l-106 336h372l99 -336h288l93 288h262l88 -288h289l98 336h373l-107 -336h131v-135h-174l-106 -340h280v-136h-323l-154 -487h-283l-245 801l-246 -801h-283l-153 487h-324v136h281l-107 340h-174zM1358 963l106 -342l101 342h-207zM623 963l100 -342
l106 342h-206z" />
    <glyph glyph-name="afii57636" unicode="&#x20aa;" horiz-adv-x="1800" 
d="M410 0h-287v1102h721q188 0 305 -117.5t117 -292.5v-319h-287v319q0 52 -37.5 87.5t-97.5 35.5h-434v-815zM1391 1102h286v-1102h-721q-188 0 -304.5 117.5t-116.5 292.5v319h286v-319q0 -52 37.5 -87.5t97.5 -35.5h435v815z" />
    <glyph glyph-name="Euro" unicode="&#x20ac;" horiz-adv-x="1476" 
d="M72 762v149h229q48 244 232.5 394.5t474.5 150.5q218 0 405 -117l-119 -276q-136 76 -262 76q-282 0 -366 -228h569q-32 -88 -61 -149h-537q-2 -10 -2 -51q0 -33 6 -60h485l-63 -149h-383q41 -98 131.5 -155.5t230.5 -57.5q147 0 289 51v-297q-126 -66 -301 -66
q-291 0 -483.5 145.5t-239.5 379.5h-235v149h223q-4 12 -4 64v47h-219z" />
    <glyph glyph-name="uni2113" unicode="&#x2113;" horiz-adv-x="1009" 
d="M948 1092q0 -226 -113 -412t-313 -297q0 -74 16 -112t62 -38q72 0 72 74q0 45 -2 55h235q23 -55 23 -88q0 -130 -93 -213.5t-260 -83.5q-54 0 -99.5 7t-98 30.5t-89.5 63t-65 111t-35 167.5q-54 -14 -106 -14q-19 0 -27 2v203q87 3 131 26v519q0 98 29.5 172t72 114
t99.5 64.5t100.5 31.5t87.5 7q48 0 92 -7t98 -31.5t92 -64.5t64.5 -114t26.5 -172zM690 1100v16q0 55 -26.5 81t-57.5 26q-78 0 -78 -107v-450q78 59 120 183t42 251z" />
    <glyph glyph-name="afii61352" unicode="&#x2116;" horiz-adv-x="2316" 
d="M1505 1110q0 153 105.5 256.5t265.5 103.5q159 0 264 -103.5t105 -256.5q0 -152 -105 -254t-264 -102q-160 0 -265.5 102t-105.5 254zM1534 492v161h682v-161h-682zM1714 1110q0 -68 45.5 -114t116.5 -46t115.5 45.5t44.5 114.5q0 70 -44.5 117t-115.5 47t-116.5 -47
t-45.5 -117zM1067 0l-571 797v-795h-363v1432h281l569 -787v787h363v-1434h-279z" />
    <glyph glyph-name="uni2117" unicode="&#x2117;" horiz-adv-x="1605" 
d="M758 745h112q29 0 46.5 27t17.5 62q0 37 -17.5 63.5t-46.5 26.5h-112v-179zM891 578h-133v-238h-205v750h338q118 0 184 -73.5t66 -182.5t-66 -182.5t-184 -73.5zM80 717q0 151 56 287.5t151.5 235.5t230 157.5t285.5 58.5t285.5 -58.5t230 -157.5t151.5 -235.5
t56 -287.5q0 -202 -94.5 -371.5t-261 -269t-367.5 -99.5t-367.5 99.5t-261 269t-94.5 371.5zM221 717q0 -163 76.5 -302t210.5 -221.5t295 -82.5t295 82.5t210 221.5t76 302t-76 302t-210 221.5t-295 82.5t-295 -82.5t-210.5 -221.5t-76.5 -302z" />
    <glyph glyph-name="trademark" unicode="&#x2122;" horiz-adv-x="1847" 
d="M68 1481h718v-187h-256v-583h-204v583h-258v187zM1729 711h-201l-35 364l-154 -338h-147l-154 338l-34 -364h-203l76 770h180l209 -496l204 496h189z" />
    <glyph glyph-name="Omega" unicode="&#x2126;" horiz-adv-x="1687" 
d="M844 1456q168 0 311 -54.5t239.5 -147t150.5 -216t54 -260.5q0 -159 -98.5 -306t-214.5 -191h275v-281h-652v276q158 55 247 189.5t89 292.5q0 191 -114.5 300t-286.5 109q-171 0 -285.5 -109t-114.5 -300q0 -156 88.5 -291t247.5 -191v-276h-651v281h272
q-115 44 -214 190t-99 305q0 138 54.5 262t151.5 216.5t240 147t310 54.5z" />
    <glyph glyph-name="estimated" unicode="&#x212e;" horiz-adv-x="1267" 
d="M1204 578h-878v-396q138 -129 311 -129q67 0 124 14.5t99 36.5t81.5 58t66.5 70t59 81l63 -39q-42 -67 -86 -116t-103 -89.5t-135.5 -61.5t-168.5 -21q-163 0 -291 81.5t-196 216.5t-68 296q0 164 66.5 298t196.5 215t300 81q128 0 234.5 -48t177 -129.5t109 -189.5
t38.5 -229zM958 645v334q-60 55 -143.5 91t-169.5 36q-195 0 -319 -127v-334h632z" />
    <glyph glyph-name="arrowleft" unicode="&#x2190;" horiz-adv-x="1437" 
d="M1280 657v-270h-725l166 -192l-191 -185l-417 482v67l417 481l193 -180l-174 -203h731z" />
    <glyph glyph-name="arrowup" unicode="&#x2191;" horiz-adv-x="1198" 
d="M731 0h-270v725l-193 -166l-184 191l481 417h68l481 -417l-180 -193l-203 174v-731z" />
    <glyph glyph-name="arrowright" unicode="&#x2192;" horiz-adv-x="1437" 
d="M158 387v270h731l-174 203l192 180l418 -481v-67l-418 -482l-190 185l166 192h-725z" />
    <glyph glyph-name="arrowdown" unicode="&#x2193;" horiz-adv-x="1193" 
d="M459 1167h270v-731l203 174l180 -192l-481 -418h-68l-481 418l184 190l193 -166v725z" />
    <glyph glyph-name="partialdiff" unicode="&#x2202;" horiz-adv-x="1380" 
d="M541 1124l-119 252q174 80 362 80q111 0 201 -27.5t150.5 -77t103.5 -118.5t60.5 -152.5t21.5 -179t-14 -196.5q-54 -346 -246.5 -537t-495.5 -191q-244 0 -375 121.5t-131 313.5q0 118 50.5 220t133 169.5t186.5 106t212 38.5q100 0 188 -32.5t144 -92.5q12 62 12 101
q0 123 -76 184t-188 61q-93 0 -180 -43zM672 678q-98 0 -179 -66.5t-81 -167.5q0 -84 55.5 -130t148.5 -46q123 0 205.5 78t100.5 197q-38 68 -108.5 101.5t-141.5 33.5z" />
    <glyph glyph-name="Delta" unicode="&#x2206;" horiz-adv-x="1525" 
d="M55 74l541 1360h356l516 -1362v-72h-1413v74zM770 1032l-266 -747h522z" />
    <glyph glyph-name="product" unicode="&#x220f;" horiz-adv-x="1568" 
d="M1298 1147v-1438h-362v1438h-305v-1438h-363v1438h-200v287h1433v-287h-203z" />
    <glyph glyph-name="summation" unicode="&#x2211;" horiz-adv-x="1249" 
d="M70 -92l446 659l-428 666v201h1036v-287h-592l371 -572l-389 -575h666v-289h-1110v197z" />
    <glyph glyph-name="minus" unicode="&#x2212;" horiz-adv-x="1327" 
d="M123 492v292h1081v-292h-1081z" />
    <glyph glyph-name="uni2219" unicode="&#x2219;" horiz-adv-x="636" 
d="M109 580q0 85 58 138.5t150 53.5t152.5 -54t60.5 -138q0 -80 -61 -133.5t-152 -53.5t-149.5 53.5t-58.5 133.5z" />
    <glyph glyph-name="radical" unicode="&#x221a;" horiz-adv-x="1187" 
d="M428 944l203 -629l291 1239h247l-407 -1761h-293l-256 764l-125 -45l-96 233z" />
    <glyph glyph-name="infinity" unicode="&#x221e;" horiz-adv-x="1724" 
d="M348 616v-4q0 -58 40 -87t91 -29q59 0 105 23.5t127 96.5q-83 70 -129.5 93.5t-102.5 23.5q-51 0 -91 -29.5t-40 -87.5zM1640 616v-4q0 -174 -111 -275t-282 -101q-112 0 -198 49.5t-185 148.5l-69 -65q-146 -133 -320 -133q-169 0 -280 101.5t-111 278.5
q0 174 111.5 275.5t279.5 101.5q174 0 320 -133l69 -65q99 99 185 148.5t198 49.5q171 0 282 -101.5t111 -275.5zM1382 616v-4q0 58 -42.5 89.5t-90.5 31.5q-43 0 -96 -24t-147 -95q94 -71 146.5 -94.5t96.5 -23.5q49 0 91 31t42 89z" />
    <glyph glyph-name="integral" unicode="&#x222b;" horiz-adv-x="1128" 
d="M739 1069v-1075q0 -111 -26.5 -196t-68 -135t-100 -82t-114 -43t-117.5 -11q-69 0 -158.5 31t-162.5 94q8 27 74 282q58 -47 113.5 -67.5t86.5 -20.5q125 0 125 136v1075q0 111 26 195.5t66.5 134.5t99 81.5t114 42.5t120.5 11q67 0 157.5 -30t164.5 -93l-76 -285
q-57 48 -113 68t-88 20q-123 0 -123 -133z" />
    <glyph glyph-name="approxequal" unicode="&#x2248;" horiz-adv-x="1363" 
d="M1165 1057l95 -223q-107 -146 -312 -146q-96 0 -268 42t-248 42q-160 0 -231 -74l-92 238q105 135 305 135q87 0 189.5 -21.5t190.5 -43t140 -21.5q149 0 231 72zM1163 494l90 -224q-58 -79 -134 -112t-179 -33q-93 0 -265.5 43t-246.5 43q-158 0 -233 -72l-91 234
q105 135 308 135q107 0 284 -42t234 -42q153 0 233 70z" />
    <glyph glyph-name="notequal" unicode="&#x2260;" horiz-adv-x="1257" 
d="M1149 231h-647l-125 -233l-158 86l80 147h-190v279h342l147 274h-489v279h641l114 215l156 -84l-70 -131h199v-279h-350l-148 -274h498v-279z" />
    <glyph glyph-name="lessequal" unicode="&#x2264;" horiz-adv-x="1300" 
d="M109 0v254h1056v-254h-1056zM109 698v246l1009 342h47v-278l-626 -187l626 -188v-279h-47z" />
    <glyph glyph-name="greaterequal" unicode="&#x2265;" horiz-adv-x="1302" 
d="M1194 254v-254h-1059v254h1059zM1192 944v-246l-1008 -344h-49v279l629 188l-629 187v278h49z" />
    <glyph glyph-name="lozenge" unicode="&#x25ca;" horiz-adv-x="1255" 
d="M1194 700l-449 -700h-237l-447 700l445 736h242zM860 702l-233 375l-234 -379l234 -354z" />
    <glyph glyph-name="commaaccent" unicode="&#xf6c3;" horiz-adv-x="684" 
d="M256 -645l-63 102q137 63 137 156q-28 -4 -33 -4q-55 0 -90 39t-35 104q0 66 45.5 108t118.5 42q85 0 129.5 -53.5t44.5 -122.5q0 -52 -11 -100.5t-37.5 -100t-79 -96.5t-126.5 -74z" />
    <glyph glyph-name="rupiah" unicode="&#xf6dd;" horiz-adv-x="2850" 
d="M504 770h256q72 0 116 50t44 126q0 79 -43.5 129.5t-116.5 50.5h-256v-356zM1284 950q0 -156 -81 -270t-226 -158q51 -243 213 -243q86 0 149 57l121 -242q-80 -59 -159 -88t-183 -29q-73 0 -136.5 21.5t-109 55.5t-83.5 81.5t-62 94t-43 100t-28 92.5t-15 76h-137v-498
h-363v1434h662q113 0 205.5 -39t152 -105.5t91.5 -154t32 -185.5zM2431 528q0 119 -66 198t-176 79q-107 0 -176 -71t-69 -195q0 -129 68 -207t181 -78q108 0 173 78t65 196zM1952 -449h-353v1510h353v-146q110 168 321 168q150 0 267.5 -73.5t181 -200t63.5 -283.5
q0 -153 -62 -277t-179 -198t-269 -74q-102 0 -187 44t-136 118v-588z" />
    <glyph glyph-name="centinferior" unicode="&#xf6df;" horiz-adv-x="624" 
d="M381 436h72l-19 -104q76 -19 148 -72l-88 -123q-33 31 -86 45l-43 -235q70 0 129 49l90 -123q-109 -82 -234 -82h-12l-16 -82h-80l16 90q-101 24 -158 96.5t-57 172.5q0 118 84.5 197t222.5 79h12zM233 68q0 -65 58 -103q3 14 19.5 110t19.5 109q-42 -11 -69.5 -43
t-27.5 -73z" />
    <glyph glyph-name="centsuperior" unicode="&#xf6e0;" horiz-adv-x="624" 
d="M381 1706h72l-19 -104q76 -19 148 -72l-88 -123q-33 31 -86 45l-43 -235q70 0 129 49l90 -123q-109 -82 -234 -82h-12l-16 -82h-80l16 90q-102 24 -158.5 96.5t-56.5 171.5q0 118 84.5 197.5t222.5 79.5h12zM233 1337q0 -64 58 -102q3 14 19.5 110t19.5 109
q-42 -11 -69.5 -43.5t-27.5 -73.5z" />
    <glyph glyph-name="commainferior" unicode="&#xf6e1;" horiz-adv-x="378" 
d="M109 -477l-48 69q39 16 69 48t38 59q-43 4 -63.5 30t-20.5 56q-2 41 26.5 69.5t79.5 28.5q41 0 67.5 -21.5t34 -45.5t7.5 -49q0 -44 -23 -93.5t-67.5 -92t-99.5 -58.5z" />
    <glyph glyph-name="commasuperior" unicode="&#xf6e2;" horiz-adv-x="378" 
d="M109 793l-48 69q39 16 69 48t38 59q-43 4 -63.5 30t-20.5 56q-2 41 26.5 69.5t79.5 28.5q32 0 55 -12t34 -31.5t15.5 -37.5t4.5 -36q0 -44 -23 -93.5t-67.5 -91.5t-99.5 -58z" />
    <glyph glyph-name="dollarinferior" unicode="&#xf6e3;" horiz-adv-x="632" 
d="M299 -358v65q-104 8 -176 63.5t-82 149.5l149 33q12 -41 42 -67.5t67 -32.5v137l-39 16q-184 63 -184 211q0 90 61 145.5t162 61.5v65h59v-67q155 -23 213 -152l-133 -73q-12 24 -28 41t-24 22t-28 16v-131l35 -12q101 -33 147 -93.5t46 -117.5q0 -94 -67 -149.5
t-161 -63.5v-67h-59zM252 221q0 -38 47 -55v117q-47 -15 -47 -62zM408 -82q0 28 -50 51v-112q50 13 50 61z" />
    <glyph glyph-name="dollarsuperior" unicode="&#xf6e4;" horiz-adv-x="634" 
d="M299 911v66q-104 8 -176 63.5t-82 149.5l149 33q12 -41 42 -68t67 -33v138l-39 16q-184 63 -184 211q0 90 61 145.5t162 61.5v65h59v-67q155 -23 213 -152l-133 -74q-12 24 -28 41t-24.5 22.5t-27.5 16.5v-131l35 -12q101 -33 147 -93.5t46 -117.5q0 -94 -67 -149.5
t-161 -63.5v-68h-59zM252 1491q0 -38 47 -55v116q-47 -15 -47 -61zM408 1188q0 28 -50 51v-113q50 13 50 62z" />
    <glyph glyph-name="hypheninferior" unicode="&#xf6e5;" horiz-adv-x="579" 
d="M76 6v162h428v-162h-428z" />
    <glyph glyph-name="hyphensuperior" unicode="&#xf6e6;" horiz-adv-x="579" 
d="M76 1276v162h428v-162h-428z" />
    <glyph glyph-name="periodinferior" unicode="&#xf6e7;" horiz-adv-x="376" 
d="M70 -201q0 46 33.5 74.5t84.5 28.5q49 0 83 -28.5t34 -74.5q0 -44 -34.5 -74t-82.5 -30q-50 0 -84 30t-34 74z" />
    <glyph glyph-name="periodsuperior" unicode="&#xf6e8;" horiz-adv-x="378" 
d="M72 1069q0 46 33.5 74t84.5 28q49 0 83 -28t34 -74q0 -44 -34.5 -74t-82.5 -30q-50 0 -84 30t-34 74z" />
    <glyph glyph-name="apple" unicode="&#xf8ff;" horiz-adv-x="1437" 
d="M907 311h154q0 80 -24.5 143.5t-66 104t-90 65t-104.5 33.5q68 180 152 338l30 -399h154l-53 684h-150q-133 -245 -192 -416q-57 166 -193 416h-149l-53 -684h153l31 399q58 -108 151 -333q-59 -6 -111.5 -30t-97 -65t-70.5 -107.5t-26 -148.5h156q0 73 32 124t76 72
t93 21q77 0 137.5 -55t60.5 -162zM205 0v1413h1028v-1413h-1028zM297 168v-80h16v55l19 -55h14l21 57v-57h16v80h-25l-18 -55l-18 55h-25zM428 170q-18 0 -28.5 -12t-10.5 -31q0 -18 10.5 -29.5t28.5 -11.5t29.5 11.5t11.5 29.5q0 19 -11 31t-30 12zM428 100q-20 0 -20 27
q0 29 20 29q23 0 23 -29q0 -27 -23 -27zM485 115h-16q0 -29 35 -29q33 0 33 27q0 15 -23 22q-24 8 -25 12q0 9 13 9q14 0 14 -13h19q0 27 -33 27q-12 0 -21.5 -7t-9.5 -18q0 -19 27 -22q22 -6 22 -12q0 -11 -16 -11q-19 0 -19 15zM559 154v-66h19v66h24v14h-67v-14h24z
M618 168l-30 -80h18l6 18h29l6 -18h19l-29 80h-19zM637 119h-21l11 28zM668 168v-80h18v31h16q15 0 15 -15q0 -14 2 -16h18q-4 12 -4 18q0 17 -12 19v2q14 3 14 18q0 23 -24 23h-43zM686 131v23h19q12 0 12 -11q0 -12 -12 -12h-19zM743 168v-80h35q37 0 37 41q0 39 -37 39
h-35zM762 102v52h12q23 0 23 -27q0 -25 -21 -25h-14zM821 168v-80h62v14h-45v21h39v14h-39v17h43v14h-60zM901 115h-18q0 -29 35 -29q32 0 32 27q0 16 -22 22q-24 8 -25 12q0 9 12 9q14 0 17 -13h16q0 27 -33 27q-11 0 -20.5 -7t-9.5 -18q0 -19 26 -22q23 -7 23 -12
q0 -11 -16 -11q-17 0 -17 15zM956 168v-80h17v80h-17zM1040 96l2 -8h13v43h-35v-12h18q-3 -19 -18 -19q-23 0 -23 27q0 29 23 29q13 0 16 -15h17q-3 29 -33 29q-20 0 -30.5 -12t-10.5 -31q0 -18 10.5 -29.5t30.5 -11.5q10 0 20 10zM1063 168v-80h16v53l33 -53h18v80h-16v-53
l-35 53h-16z" />
    <glyph glyph-name="Euro.dnom" horiz-adv-x="749" 
d="M41 377v84h109q31 117 122 193.5t226 76.5q114 0 213 -63l-60 -142q-66 41 -149 41q-61 0 -103.5 -31.5t-50.5 -74.5h281l-39 -84h-256q-4 -26 0 -51h241l-40 -86h-181q20 -44 60 -68.5t90 -24.5q86 0 166 31v-151q-73 -41 -162 -41q-148 0 -239.5 68.5t-118.5 185.5
h-109v86h98q-3 27 0 51h-98z" />
    <glyph glyph-name="Euro.numr" horiz-adv-x="751" 
d="M43 1094v84h109q31 117 122 193.5t226 76.5q112 0 213 -64l-60 -141q-66 41 -149 41q-61 0 -103.5 -31.5t-50.5 -74.5h281l-39 -84h-256q-4 -26 0 -52h242l-41 -86h-181q20 -44 60 -68t90 -24q86 0 166 31v-152q-73 -41 -162 -41q-148 0 -239.5 68.5t-118.5 185.5h-109
v86h98q-3 28 0 52h-98z" />
    <glyph glyph-name="Euroinferior" horiz-adv-x="751" 
d="M43 86v84h109q31 117 122 193.5t226 76.5q114 0 213 -63l-60 -141q-65 40 -149 40q-61 0 -103.5 -31.5t-50.5 -74.5h281l-39 -84h-256q-4 -26 0 -51h242l-41 -86h-181q20 -44 60 -68t90 -24q89 0 166 30v-151q-73 -41 -162 -41q-148 0 -239.5 68.5t-118.5 185.5h-109v86
h98q-3 27 0 51h-98z" />
    <glyph glyph-name="Eurosuperior" horiz-adv-x="751" 
d="M43 1356v84h109q31 117 122 193.5t226 76.5q114 0 213 -63l-60 -142q-66 41 -149 41q-61 0 -103.5 -31.5t-50.5 -74.5h281l-39 -84h-256q-4 -26 0 -51h242l-41 -86h-181q20 -44 60 -68.5t90 -24.5q86 0 166 31v-151q-73 -41 -162 -41q-148 0 -239.5 68.5t-118.5 185.5
h-109v86h98q-3 27 0 51h-98z" />
    <glyph glyph-name="a.alt" horiz-adv-x="1249" 
d="M440 -23q-103 0 -189.5 40t-142 122t-55.5 191q0 103 60.5 180t161 115.5t225.5 38.5q149 0 297 -60v33q0 74 -69.5 123t-154.5 49q-197 0 -333 -100l-117 215q93 86 222.5 122.5t264.5 36.5q96 0 174.5 -16.5t133 -43t96 -65.5t66 -79.5t40 -89t20.5 -89.5t5 -86v-614
h-352v139q-62 -79 -154 -120.5t-199 -41.5zM584 481q-92 0 -136.5 -38t-44.5 -95q0 -43 36.5 -75.5t103.5 -32.5q155 0 258 96v100q-98 45 -217 45z" />
    <glyph glyph-name="aacute.alt" horiz-adv-x="1249" 
d="M670 1542h360l-313 -356h-242zM440 -23q-103 0 -189.5 40t-142 122t-55.5 191q0 103 60.5 180t161 115.5t225.5 38.5q149 0 297 -60v33q0 74 -69.5 123t-154.5 49q-197 0 -333 -100l-117 215q93 86 222.5 122.5t264.5 36.5q96 0 174.5 -16.5t133 -43t96 -65.5t66 -79.5
t40 -89t20.5 -89.5t5 -86v-614h-352v139q-62 -79 -154 -120.5t-199 -41.5zM584 481q-92 0 -136.5 -38t-44.5 -95q0 -43 36.5 -75.5t103.5 -32.5q155 0 258 96v100q-98 45 -217 45z" />
    <glyph glyph-name="abreve.alt" horiz-adv-x="1249" 
d="M639 1395q55 0 95.5 34.5t47.5 114.5l207 -24q-7 -78 -34 -138.5t-63 -95.5t-83 -57.5t-87.5 -30.5t-82.5 -8t-82.5 8t-87 30.5t-83 57.5t-64 95.5t-35.5 138.5l209 24q7 -80 47.5 -114.5t95.5 -34.5zM440 -23q-103 0 -189.5 40t-142 122t-55.5 191q0 103 60.5 180
t161 115.5t225.5 38.5q149 0 297 -60v33q0 74 -69.5 123t-154.5 49q-197 0 -333 -100l-117 215q93 86 222.5 122.5t264.5 36.5q96 0 174.5 -16.5t133 -43t96 -65.5t66 -79.5t40 -89t20.5 -89.5t5 -86v-614h-352v139q-62 -79 -154 -120.5t-199 -41.5zM584 481
q-92 0 -136.5 -38t-44.5 -95q0 -43 36.5 -75.5t103.5 -32.5q155 0 258 96v100q-98 45 -217 45z" />
    <glyph glyph-name="acircumflex.alt" horiz-adv-x="1249" 
d="M471 1542h338l207 -356h-230l-145 188l-145 -188h-230zM440 -23q-103 0 -189.5 40t-142 122t-55.5 191q0 103 60.5 180t161 115.5t225.5 38.5q149 0 297 -60v33q0 74 -69.5 123t-154.5 49q-197 0 -333 -100l-117 215q93 86 222.5 122.5t264.5 36.5q96 0 174.5 -16.5
t133 -43t96 -65.5t66 -79.5t40 -89t20.5 -89.5t5 -86v-614h-352v139q-62 -79 -154 -120.5t-199 -41.5zM584 481q-92 0 -136.5 -38t-44.5 -95q0 -43 36.5 -75.5t103.5 -32.5q155 0 258 96v100q-98 45 -217 45z" />
    <glyph glyph-name="acute.case" horiz-adv-x="1009" 
d="M412 1847h352l-279 -309h-239z" />
    <glyph glyph-name="adieresis.alt" horiz-adv-x="1249" 
d="M201 1364q0 73 53 121.5t137 48.5q78 0 132.5 -49t54.5 -121q0 -71 -54 -118.5t-133 -47.5q-84 0 -137 47t-53 119zM725 1364q0 72 53.5 121t132.5 49q80 0 135.5 -49t55.5 -121q0 -71 -55.5 -118.5t-135.5 -47.5t-133 47t-53 119zM440 -23q-103 0 -189.5 40t-142 122
t-55.5 191q0 103 60.5 180t161 115.5t225.5 38.5q149 0 297 -60v33q0 74 -69.5 123t-154.5 49q-197 0 -333 -100l-117 215q93 86 222.5 122.5t264.5 36.5q96 0 174.5 -16.5t133 -43t96 -65.5t66 -79.5t40 -89t20.5 -89.5t5 -86v-614h-352v139q-62 -79 -154 -120.5
t-199 -41.5zM584 481q-92 0 -136.5 -38t-44.5 -95q0 -43 36.5 -75.5t103.5 -32.5q155 0 258 96v100q-98 45 -217 45z" />
    <glyph glyph-name="agrave.alt" horiz-adv-x="1249" 
d="M225 1542h363l192 -356h-241zM440 -23q-103 0 -189.5 40t-142 122t-55.5 191q0 103 60.5 180t161 115.5t225.5 38.5q149 0 297 -60v33q0 74 -69.5 123t-154.5 49q-197 0 -333 -100l-117 215q93 86 222.5 122.5t264.5 36.5q96 0 174.5 -16.5t133 -43t96 -65.5t66 -79.5
t40 -89t20.5 -89.5t5 -86v-614h-352v139q-62 -79 -154 -120.5t-199 -41.5zM584 481q-92 0 -136.5 -38t-44.5 -95q0 -43 36.5 -75.5t103.5 -32.5q155 0 258 96v100q-98 45 -217 45z" />
    <glyph glyph-name="amacron.alt" horiz-adv-x="1249" 
d="M317 1470h666v-225h-666v225zM440 -23q-103 0 -189.5 40t-142 122t-55.5 191q0 103 60.5 180t161 115.5t225.5 38.5q149 0 297 -60v33q0 74 -69.5 123t-154.5 49q-197 0 -333 -100l-117 215q93 86 222.5 122.5t264.5 36.5q96 0 174.5 -16.5t133 -43t96 -65.5t66 -79.5
t40 -89t20.5 -89.5t5 -86v-614h-352v139q-62 -79 -154 -120.5t-199 -41.5zM584 481q-92 0 -136.5 -38t-44.5 -95q0 -43 36.5 -75.5t103.5 -32.5q155 0 258 96v100q-98 45 -217 45z" />
    <glyph glyph-name="aogonek.alt" horiz-adv-x="1249" 
d="M440 -23q-103 0 -189.5 40t-142 122t-55.5 191q0 103 60.5 180t161 115.5t225.5 38.5q149 0 297 -60v33q0 74 -69.5 123t-154.5 49q-197 0 -333 -100l-117 215q93 86 222.5 122.5t264.5 36.5q96 0 174.5 -16.5t133 -43t96 -65.5t66 -79.5t40 -89t20.5 -89.5t5 -86v-614
h-41q-66 -2 -114.5 -19t-72.5 -43t-34.5 -50t-10.5 -48q0 -46 28.5 -72t74.5 -26q81 0 135 104l162 -84q-43 -105 -131.5 -165t-200.5 -60q-47 0 -95 13t-94.5 40t-76 78.5t-29.5 118.5q0 139 148 223v129q-62 -79 -154 -120.5t-199 -41.5zM584 481q-92 0 -136.5 -38
t-44.5 -95q0 -43 36.5 -75.5t103.5 -32.5q155 0 258 96v100q-98 45 -217 45z" />
    <glyph glyph-name="aring.alt" horiz-adv-x="1249" 
d="M383 1413q0 108 76.5 176t189.5 68q115 0 192 -68t77 -176t-77 -173.5t-192 -65.5q-113 0 -189.5 65.5t-76.5 173.5zM539 1413q0 -44 31.5 -74t78.5 -30q49 0 81 29.5t32 74.5q0 47 -31.5 75t-81.5 28q-48 0 -79 -28t-31 -75zM440 -23q-103 0 -189.5 40t-142 122
t-55.5 191q0 103 60.5 180t161 115.5t225.5 38.5q149 0 297 -60v33q0 74 -69.5 123t-154.5 49q-197 0 -333 -100l-117 215q93 86 222.5 122.5t264.5 36.5q96 0 174.5 -16.5t133 -43t96 -65.5t66 -79.5t40 -89t20.5 -89.5t5 -86v-614h-352v139q-62 -79 -154 -120.5
t-199 -41.5zM584 481q-92 0 -136.5 -38t-44.5 -95q0 -43 36.5 -75.5t103.5 -32.5q155 0 258 96v100q-98 45 -217 45z" />
    <glyph glyph-name="aringacute.alt" horiz-adv-x="1249" 
d="M440 -23q-103 0 -189.5 40t-142 122t-55.5 191q0 103 60.5 180t161 115.5t225.5 38.5q149 0 297 -60v33q0 74 -69.5 123t-154.5 49q-197 0 -333 -100l-117 215q93 86 222.5 122.5t264.5 36.5q96 0 174.5 -16.5t133 -43t96 -65.5t66 -79.5t40 -89t20.5 -89.5t5 -86v-614
h-352v139q-62 -79 -154 -120.5t-199 -41.5zM584 481q-92 0 -136.5 -38t-44.5 -95q0 -43 36.5 -75.5t103.5 -32.5q155 0 258 96v100q-98 45 -217 45zM631 1835h315l-174 -215q68 -26 107 -78.5t39 -128.5q0 -107 -76 -167t-193 -60q-115 0 -190.5 60t-75.5 167q0 77 39.5 131
t109.5 80zM539 1413q0 -45 30 -68.5t80 -23.5t80.5 23.5t30.5 68.5t-30.5 66.5t-80.5 21.5t-80 -21.5t-30 -66.5z" />
    <glyph glyph-name="at.case" horiz-adv-x="2076" 
d="M1579 324q115 2 182.5 119t67.5 350q0 215 -98.5 385.5t-278.5 267t-410 96.5q-171 0 -321 -63.5t-256 -173.5t-166.5 -262.5t-60.5 -325.5q0 -232 95.5 -418.5t272 -293.5t402.5 -107q233 0 411 79q13 -34 35 -69l35 -68q-104 -47 -231.5 -73.5t-249.5 -26.5
q-205 0 -380 74.5t-296.5 204t-189.5 310t-68 388.5t73 390.5t200.5 312.5t308 205t386.5 75q210 0 387.5 -67.5t301 -186.5t193 -287.5t69.5 -365.5q0 -315 -118 -476t-316 -161q-270 0 -308 213q-53 -76 -142.5 -114t-180.5 -38q-197 0 -324 139t-127 349q0 211 128 351
t327 140q195 0 295 -145v125h274v-748q0 -104 78 -104zM754 705q0 -112 65 -187.5t172 -75.5q105 0 170.5 72t65.5 188q0 117 -64.5 191t-173.5 74t-172 -74.5t-63 -187.5z" />
    <glyph glyph-name="atilde.alt" horiz-adv-x="1249" 
d="M903 1528l162 -53q-18 -64 -36.5 -107t-47 -82.5t-70 -58.5t-96.5 -19t-114.5 21.5t-106.5 43t-74 21.5q-18 0 -33 -3t-27 -12t-19 -14.5t-16.5 -21.5t-12.5 -21.5t-13 -25.5l-163 51q18 63 37 108t48 83.5t70 58t94 19.5q55 0 114 -21.5t107 -43t76 -21.5q11 0 21 1.5
t18 3.5t16 7t12.5 7.5t11.5 10.5t10 11.5t8.5 13.5t7.5 13t8 15t8 15zM440 -23q-103 0 -189.5 40t-142 122t-55.5 191q0 103 60.5 180t161 115.5t225.5 38.5q149 0 297 -60v33q0 74 -69.5 123t-154.5 49q-197 0 -333 -100l-117 215q93 86 222.5 122.5t264.5 36.5
q96 0 174.5 -16.5t133 -43t96 -65.5t66 -79.5t40 -89t20.5 -89.5t5 -86v-614h-352v139q-62 -79 -154 -120.5t-199 -41.5zM584 481q-92 0 -136.5 -38t-44.5 -95q0 -43 36.5 -75.5t103.5 -32.5q155 0 258 96v100q-98 45 -217 45z" />
    <glyph glyph-name="bitcoin" horiz-adv-x="1345" 
d="M733 1567v-172q213 -8 347 -110t134 -269q0 -83 -56 -157.5t-163 -113.5q122 -24 202.5 -121.5t80.5 -197.5q0 -178 -144.5 -284.5t-383.5 -106.5h-17v-176h-139v176h-133v-176h-139v176h-203v1362h203v170h139v-170h133v170h139zM653 608h-172v-297h258q78 0 125 37.5
t47 95.5q0 164 -258 164zM481 834h129q129 0 183.5 43.5t54.5 111.5q0 64 -50.5 99.5t-125.5 35.5h-191v-290z" />
    <glyph glyph-name="braceleft.case" horiz-adv-x="847" 
d="M399 729v-20q47 -10 81.5 -31t53 -47.5t27 -53t8.5 -53.5q0 -50 -19 -112t-42.5 -112t-42.5 -112.5t-19 -113.5q0 -142 138 -142q57 0 198 17v-215q-209 -19 -250 -19q-80 0 -150 19.5t-126 58.5t-88.5 104.5t-32.5 149.5q0 72 20 137.5t54.5 147t52.5 149.5q8 24 8 43
t-5 32t-17.5 23t-25.5 15.5t-33 10.5t-36.5 8t-39 6.5t-37.5 7.5v184q15 4 37.5 7.5t39 6.5t36.5 7.5t33 10.5t25.5 16t17.5 22.5t5 31.5t-8 43q-18 67 -52.5 149.5t-54.5 148t-20 137.5q0 84 32.5 149.5t89 104t126 58t149.5 19.5q52 0 250 -18v-215q-133 16 -198 16
q-138 0 -138 -141q0 -51 19 -113.5t42.5 -112.5t42.5 -112.5t19 -112.5q0 -36 -14 -70.5t-54.5 -67.5t-101.5 -46z" />
    <glyph glyph-name="braceright.case" horiz-adv-x="847" 
d="M449 709v20q-61 13 -101.5 46t-54.5 67.5t-14 70.5q0 62 30.5 143.5l61 163t30.5 144.5q0 141 -137 141q-61 0 -198 -16v215q198 18 249 18q64 0 121 -12t108 -38t88.5 -64t59 -93.5t21.5 -123.5q0 -72 -20 -137.5t-54.5 -148t-52.5 -149.5q-8 -24 -8 -43t5 -31.5
t17.5 -22.5t25.5 -16t33 -10.5t36.5 -7.5t39 -6.5t37.5 -7.5v-184q-15 -4 -37.5 -7.5t-39 -6.5t-36.5 -8t-33 -10.5t-25.5 -15.5t-17.5 -23t-5 -32t8 -43q18 -68 52.5 -149.5t54.5 -147t20 -137.5q0 -84 -32.5 -149.5t-89 -104.5t-126.5 -58.5t-150 -19.5q-40 0 -249 19v215
q146 -17 198 -17q137 0 137 142q0 63 -30.5 144.5t-61 162.5t-30.5 143q0 27 8.5 53.5t27 53t53 47.5t81.5 31z" />
    <glyph glyph-name="bracketleft.case" horiz-adv-x="894" 
d="M133 -266v1968h694v-268h-358v-1434h358v-266h-694z" />
    <glyph glyph-name="bracketright.case" horiz-adv-x="894" 
d="M762 1702v-1968h-694v266h358v1434h-358v268h694z" />
    <glyph glyph-name="breve.case" horiz-adv-x="1193" 
d="M596 1737q60 0 100.5 33t46.5 106l205 -25q-9 -74 -38.5 -131.5t-66.5 -90.5t-83.5 -54t-85.5 -28t-78 -7t-78 7t-85 28t-83 54t-66 90.5t-38 131.5l205 25q6 -72 47 -105.5t98 -33.5z" />
    <glyph glyph-name="bullet.case" horiz-adv-x="839" 
d="M127 719q0 124 84 208.5t209 84.5q124 0 208.5 -85t84.5 -208q0 -122 -84.5 -208.5t-208.5 -86.5q-125 0 -209 85t-84 210z" />
    <glyph glyph-name="caron.case" horiz-adv-x="1228" 
d="M778 1538h-329l-203 309h219l149 -153l150 153h219z" />
    <glyph glyph-name="cedilla.case" horiz-adv-x="1118" 
d="M494 20v52h129q127 -41 188 -121.5t61 -163.5q0 -55 -19.5 -99t-50.5 -71.5t-71 -46t-78 -26t-75 -7.5q-112 0 -200.5 60t-131.5 165l162 84q54 -104 133 -104q48 0 76 27t28 77q0 28 -10.5 57t-46.5 64t-94 53z" />
    <glyph glyph-name="cent.case" horiz-adv-x="1189" 
d="M72 719q0 116 44.5 217.5t123 175.5t192.5 117t246 43l33 174h155l-35 -191q160 -40 291 -145q-14 -22 -83.5 -116t-82.5 -115q-66 61 -178 90l-92 -510h14q144 0 256 98q13 -22 82.5 -116t83.5 -115q-196 -160 -442 -160q-8 0 -24 1t-23 1l-33 -182h-151l36 204
q-191 54 -302 196.5t-111 332.5zM426 719q0 -142 115 -217l84 467q-93 -24 -146 -89t-53 -161z" />
    <glyph glyph-name="cent.dnom" horiz-adv-x="628" 
d="M383 727h72l-19 -104q76 -19 148 -72l-88 -123q-33 31 -86 45l-43 -235q70 0 129 49l90 -123q-109 -82 -234 -82h-12l-16 -82h-80l16 90q-102 24 -158.5 96.5t-56.5 171.5q0 118 84.5 197.5t222.5 79.5h13zM236 358q0 -65 57 -102q3 14 19.5 110t19.5 109
q-42 -11 -69 -43.5t-27 -73.5z" />
    <glyph glyph-name="cent.numr" horiz-adv-x="624" 
d="M381 1444h72l-19 -105q78 -19 148 -71l-88 -123q-33 31 -86 45l-43 -236q69 0 129 50l90 -123q-109 -82 -234 -82h-12l-16 -82h-80l16 90q-102 24 -158.5 96.5t-56.5 171.5q0 118 84.5 197.5t222.5 79.5h12zM233 1075q0 -64 58 -102q3 14 19.5 110t19.5 109
q-42 -11 -69.5 -43.5t-27.5 -73.5z" />
    <glyph glyph-name="circumflex.case" horiz-adv-x="1228" 
d="M449 1847h329l205 -309h-219l-150 154l-149 -154h-219z" />
    <glyph glyph-name="comma.dnom" horiz-adv-x="376" 
d="M109 -186l-48 69q39 16 69 48t38 59q-43 4 -63.5 30t-20.5 56q-2 41 26.5 69.5t79.5 28.5q32 0 55 -12t34 -31.5t15.5 -37.5t4.5 -36q0 -44 -23 -93.5t-67.5 -91.5t-99.5 -58z" />
    <glyph glyph-name="comma.numr" horiz-adv-x="378" 
d="M109 530l-48 70q39 16 69 48t38 59q-43 4 -63.5 30t-20.5 56q-2 41 26.5 69.5t79.5 28.5q32 0 55 -12t34 -31.5t15.5 -37.5t4.5 -36q0 -44 -23 -93.5t-67.5 -92t-99.5 -58.5z" />
    <glyph glyph-name="commaaccent.case" horiz-adv-x="684" 
d="M256 -645l-63 102q137 63 137 156q-28 -4 -33 -4q-55 0 -90 39t-35 104q0 66 45.5 108t118.5 42q85 0 129.5 -53.5t44.5 -122.5q0 -52 -11 -100.5t-37.5 -100t-79 -96.5t-126.5 -74z" />
    <glyph glyph-name="dieresis.case" horiz-adv-x="1378" 
d="M246 1694q0 72 49 115.5t133 43.5q79 0 129.5 -44t50.5 -115t-50.5 -113.5t-129.5 -42.5q-85 0 -133.5 42t-48.5 114zM770 1694q0 72 49 115.5t129 43.5q81 0 133 -44t52 -115t-52 -113.5t-133 -42.5q-80 0 -129 42.5t-49 113.5z" />
    <glyph glyph-name="dollar.dnom" horiz-adv-x="632" 
d="M299 -68v66q-104 8 -176 63.5t-82 149.5l149 33q12 -41 42 -68t67 -33v138l-39 16q-184 63 -184 211q0 90 61 145.5t162 61.5v65h59v-67q155 -23 213 -152l-133 -74q-12 24 -28 41t-24.5 22.5t-27.5 16.5v-131l35 -12q101 -33 147 -93.5t46 -117.5q0 -94 -67 -149.5
t-161 -63.5v-68h-59zM252 512q0 -38 47 -55v116q-47 -15 -47 -61zM408 209q0 28 -50 51v-113q50 13 50 62z" />
    <glyph glyph-name="dollar.numr" horiz-adv-x="634" 
d="M299 649v66q-104 8 -176 63.5t-82 149.5l149 33q12 -41 42 -68t67 -33v137l-39 17q-184 63 -184 211q0 90 61 145.5t162 61.5v65h59v-67q155 -23 213 -152l-133 -74q-12 24 -28 41t-24.5 22.5t-27.5 16.5v-131l35 -12q101 -33 147 -93.5t46 -117.5q0 -94 -67 -149.5
t-161 -63.5v-68h-59zM252 1229q0 -38 47 -55v116q-47 -15 -47 -61zM408 926q0 28 -50 51v-113q50 13 50 62z" />
    <glyph glyph-name="dotaccent.case" horiz-adv-x="872" 
d="M246 1698q0 75 52 119.5t138 44.5q81 0 136 -45.5t55 -118.5q0 -72 -55 -117t-136 -45q-86 0 -138 44t-52 118z" />
    <glyph glyph-name="eight.dnom" horiz-adv-x="716" 
d="M358 438q42 0 67.5 22.5t25.5 49.5q0 34 -26.5 53t-66.5 19t-66 -19t-26 -53q0 -27 25 -49.5t67 -22.5zM358 143q49 0 85 26.5t36 61.5q0 33 -32.5 59.5t-88.5 26.5t-88 -26.5t-32 -59.5q0 -35 35.5 -61.5t84.5 -26.5zM358 -14q-135 0 -224 64.5t-89 176.5
q0 45 35.5 93.5t89.5 66.5q-41 17 -65.5 53.5t-24.5 75.5q0 98 77.5 156.5t200.5 58.5t201 -58.5t78 -156.5q0 -39 -24.5 -75.5t-65.5 -53.5q54 -18 89.5 -66.5t35.5 -93.5q0 -112 -89.5 -176.5t-224.5 -64.5z" />
    <glyph glyph-name="eight.numr" horiz-adv-x="716" 
d="M358 1155q42 0 67.5 22.5t25.5 49.5q0 34 -26.5 52.5t-66.5 18.5t-66 -18.5t-26 -52.5q0 -27 25 -49.5t67 -22.5zM358 860q49 0 85 26.5t36 61.5q0 33 -32.5 59.5t-88.5 26.5t-88 -26.5t-32 -59.5q0 -35 35.5 -61.5t84.5 -26.5zM358 702q-135 0 -224 65t-89 177
q0 45 35.5 93.5t89.5 66.5q-41 17 -65.5 53.5t-24.5 75.5q0 98 77.5 156.5t200.5 58.5t201 -58.5t78 -156.5q0 -39 -24.5 -75.5t-65.5 -53.5q54 -18 89.5 -66.5t35.5 -93.5q0 -112 -89.5 -177t-224.5 -65z" />
    <glyph glyph-name="eight.oldstyle" horiz-adv-x="1372" 
d="M684 780q96 0 148.5 39.5t52.5 91.5t-56.5 94t-140.5 42q-87 0 -143 -42t-56 -94q0 -50 52 -90.5t143 -40.5zM692 578q-117 0 -183.5 -48.5t-66.5 -113.5t69.5 -112.5t176.5 -47.5t175.5 47.5t68.5 112.5t-64.5 113.5t-175.5 48.5zM688 -18q-263 0 -434.5 114.5
t-171.5 294.5q0 103 69 187t179 120q-81 31 -134 98.5t-53 145.5q0 162 153.5 269.5t391.5 107.5t390.5 -107.5t152.5 -269.5q0 -83 -52.5 -148.5t-136.5 -95.5q109 -38 178.5 -121.5t69.5 -185.5q0 -180 -170.5 -294.5t-431.5 -114.5z" />
    <glyph glyph-name="eight.taboldstyle" horiz-adv-x="1392" 
d="M694 780q96 0 148.5 39.5t52.5 91.5t-56.5 94t-140.5 42q-87 0 -142.5 -41.5t-55.5 -94.5q0 -50 51.5 -90.5t142.5 -40.5zM702 578q-117 0 -183 -48.5t-66 -113.5t69 -112.5t176 -47.5t175.5 47.5t68.5 112.5t-64.5 113.5t-175.5 48.5zM698 -18q-263 0 -434.5 114.5
t-171.5 294.5q0 103 69 187t179 120q-81 31 -133.5 98.5t-52.5 145.5q0 162 153 269.5t391 107.5t390.5 -107.5t152.5 -269.5q0 -83 -52 -148.5t-136 -95.5q108 -38 177.5 -121.5t69.5 -185.5q0 -180 -170.5 -294.5t-431.5 -114.5z" />
    <glyph glyph-name="eight.tnum" horiz-adv-x="1392" 
d="M698 858q95 0 145 51t50 113t-54.5 107t-142.5 45t-142 -44.5t-54 -107.5q0 -62 51 -113t147 -51zM696 -23q-270 0 -436 121.5t-166 333.5q0 115 73.5 210.5t176.5 125.5q-78 26 -138.5 105t-60.5 171q0 188 151.5 300t399.5 112q249 0 401 -112t152 -300q0 -92 -61 -171
t-139 -105q100 -31 174.5 -125t74.5 -211q0 -212 -166 -333.5t-436 -121.5zM696 268q112 0 179 53t67 130q0 75 -62.5 131.5t-177.5 56.5q-120 0 -185.5 -56t-65.5 -132t68 -129.5t177 -53.5z" />
    <glyph glyph-name="emdash.case" horiz-adv-x="1646" 
d="M121 569v295h1403v-295h-1403z" />
    <glyph glyph-name="endash.case" horiz-adv-x="1228" 
d="M123 569v295h983v-295h-983z" />
    <glyph glyph-name="exclamdown.case" horiz-adv-x="645" 
d="M446 942l91 -852v-90h-426v90l90 852h245zM111 1270q0 80 58.5 133t149.5 53t152 -53.5t61 -132.5q0 -82 -61 -136.5t-152 -54.5t-149.5 54.5t-58.5 136.5z" />
    <glyph glyph-name="five.dnom" horiz-adv-x="665" 
d="M297 145q61 0 92 30t31 73q0 40 -30 72t-85 32q-75 0 -119 -35l-114 50l20 350h471v-160h-311l-8 -98q44 26 123 26q106 0 180 -69.5t74 -167.5q0 -119 -83 -190.5t-229 -71.5q-177 0 -274 90l96 123q79 -54 166 -54z" />
    <glyph glyph-name="five.numr" horiz-adv-x="669" 
d="M299 862q61 0 92 30t31 73q0 40 -30 72t-85 32q-75 0 -119 -35l-114 49l20 351h471v-160h-311l-8 -98q44 26 123 26q106 0 180 -69.5t74 -167.5q0 -119 -83 -191t-229 -72q-176 0 -274 91l96 122q77 -53 166 -53z" />
    <glyph glyph-name="five.oldstyle" horiz-adv-x="1245" 
d="M578 23q111 0 187.5 56.5t76.5 141.5q0 76 -60 124t-166 48q-64 0 -138.5 -24t-129.5 -74l-227 100l41 666h930v-268h-633l-13 -230h11q83 54 233 68q225 0 361.5 -112t136.5 -298q0 -211 -155.5 -341t-432.5 -130q-346 0 -547 176l166 207q188 -110 359 -110z" />
    <glyph glyph-name="five.taboldstyle" horiz-adv-x="1392" 
d="M651 23q111 0 187.5 56.5t76.5 141.5q0 76 -59.5 124t-165.5 48q-64 0 -138.5 -24t-129.5 -74l-227 100l41 666h929v-268h-633l-12 -230h10q83 54 234 68q225 0 361.5 -112t136.5 -298q0 -211 -155.5 -341t-432.5 -130q-346 0 -547 176l166 207q188 -110 358 -110z" />
    <glyph glyph-name="five.tnum" horiz-adv-x="1392" 
d="M647 266q121 0 198 66t77 166q0 88 -68 144t-172 56q-70 0 -148 -27t-124 -77l-232 88l47 752h953v-287h-648l-16 -270h10q93 75 275 75q129 0 238.5 -59t174 -163t64.5 -230q0 -236 -162 -379.5t-446 -143.5q-354 0 -555 179l166 221q180 -111 368 -111z" />
    <glyph glyph-name="florin.dnom" horiz-adv-x="555" 
d="M371 311v-329q0 -108 -55 -156.5t-140 -48.5q-29 0 -72 10.5t-69 24.5l55 129q25 -15 51 -15q39 0 39 33v352h-76v111h76v104q0 111 54.5 158t138.5 47q34 0 75 -8.5t64 -24.5l-55 -135q-29 15 -58 15q-28 0 -28 -31v-125h114v-111h-114z" />
    <glyph glyph-name="florin.numr" horiz-adv-x="550" 
d="M369 1028v-330q0 -108 -55 -156t-140 -48q-29 0 -72 10.5t-69 23.5l55 129q23 -14 51 -14q39 0 39 33v352h-76v111h76v104q0 111 54.5 158t138.5 47q34 0 75 -8.5t64 -24.5l-55 -135q-27 14 -58 14q-28 0 -28 -30v-125h114v-111h-114z" />
    <glyph glyph-name="florininferior" horiz-adv-x="550" 
d="M369 20v-329q0 -108 -55 -156.5t-140 -48.5q-29 0 -72 10.5t-69 24.5l55 129q25 -15 51 -15q39 0 39 33v352h-76v111h76v105q0 111 54.5 157.5t138.5 46.5q93 0 139 -32l-55 -136q-29 15 -58 15q-28 0 -28 -31v-125h114v-111h-114z" />
    <glyph glyph-name="florinsuperior" horiz-adv-x="550" 
d="M369 1290v-329q0 -108 -55 -156.5t-140 -48.5q-29 0 -72 10.5t-69 24.5l55 129q25 -15 51 -15q39 0 39 33v352h-76v111h76v104q0 111 54.5 158t138.5 47q34 0 75 -8.5t64 -24.5l-55 -135q-27 14 -58 14q-28 0 -28 -30v-125h114v-111h-114z" />
    <glyph glyph-name="four.dnom" horiz-adv-x="733" 
d="M225 326h150v178zM360 178h-340v107l353 432h188v-391h141v-148h-141v-178h-201v178z" />
    <glyph glyph-name="four.numr" horiz-adv-x="733" 
d="M225 1042h150v179zM360 895h-340v106l353 433h188v-392h141v-147h-141v-178h-201v178z" />
    <glyph glyph-name="four.oldstyle" horiz-adv-x="1384" 
d="M410 332h305v336zM715 72h-668v221l707 768h305v-729h268v-260h-268v-301h-344v301z" />
    <glyph glyph-name="four.taboldstyle" horiz-adv-x="1392" 
d="M414 332h305v336zM719 72h-668v221l707 768h305v-729h268v-260h-268v-301h-344v301z" />
    <glyph glyph-name="four.tnum" horiz-adv-x="1392" 
d="M401 623h312v348zM711 348h-670v232l760 854h264v-811h278v-275h-278v-348h-354v348z" />
    <glyph glyph-name="g.alt" horiz-adv-x="1316" 
d="M842 674q0 73 -56 121.5t-143 48.5q-91 0 -149 -48.5t-58 -121.5q0 -71 56.5 -118.5t150.5 -47.5q91 0 145 46.5t54 119.5zM616 -246q342 0 342 92q0 23 -28 30t-86 7h-209q-168 0 -266 25q-56 -22 -56 -64q0 -90 303 -90zM987 1124h293q25 -48 25 -84q0 -56 -50 -96.5
t-143 -60.5q31 -40 49.5 -99t18.5 -112q0 -124 -77 -220t-199.5 -145t-266.5 -49q-64 0 -135.5 18.5t-120.5 45.5q-37 -26 -37 -72q0 -66 176 -66h359q91 0 164 -20t118 -50.5t75 -70.5t42 -76.5t12 -70.5q0 -55 -18 -104t-66 -99t-121.5 -85.5t-194.5 -58t-276 -22.5
q-79 0 -150 6t-143 19t-129.5 36.5t-103 56.5t-70 81t-24.5 108q0 67 51 130t125 93q-82 53 -82 168q0 52 33.5 99.5t85.5 81.5q-109 100 -109 268q0 83 31 152t83 116t121.5 79.5t146 47t157.5 14.5q194 0 315 -65q15 13 27 37t12 47q0 6 -4 22z" />
    <glyph glyph-name="gbreve.alt" horiz-adv-x="1314" 
d="M614 1395q55 0 96 34.5t48 114.5l207 -24q-7 -78 -34 -138.5t-63.5 -95.5t-83 -57.5t-87.5 -30.5t-83 -8t-82.5 8t-87 30.5t-83 57.5t-64 95.5t-35.5 138.5l209 24q7 -80 47.5 -114.5t95.5 -34.5zM840 674q0 73 -56 121.5t-143 48.5q-91 0 -149 -48.5t-58 -121.5
q0 -71 56.5 -118.5t150.5 -47.5q91 0 145 46.5t54 119.5zM614 -246q342 0 342 92q0 23 -28 30t-86 7h-209q-168 0 -266 25q-56 -22 -56 -64q0 -90 303 -90zM985 1124h293q25 -48 25 -84q0 -56 -50 -96.5t-143 -60.5q31 -40 49.5 -99t18.5 -112q0 -124 -77 -220t-199.5 -145
t-266.5 -49q-64 0 -135.5 18.5t-120.5 45.5q-37 -26 -37 -72q0 -66 176 -66h359q91 0 164 -20t118 -50.5t75 -70.5t42 -76.5t12 -70.5q0 -55 -18 -104t-66 -99t-121.5 -85.5t-194.5 -58t-276 -22.5q-79 0 -150 6t-143 19t-129.5 36.5t-103 56.5t-70 81t-24.5 108
q0 67 51 130t125 93q-82 53 -82 168q0 52 33.5 99.5t85.5 81.5q-109 100 -109 268q0 83 31 152t83 116t121.5 79.5t146 47t157.5 14.5q194 0 315 -65q15 13 27 37t12 47q0 6 -4 22z" />
    <glyph glyph-name="gcircumflex.alt" horiz-adv-x="1314" 
d="M444 1542h338l207 -356h-229l-146 188l-145 -188h-229zM840 674q0 73 -56 121.5t-143 48.5q-91 0 -149 -48.5t-58 -121.5q0 -71 56.5 -118.5t150.5 -47.5q91 0 145 46.5t54 119.5zM614 -246q342 0 342 92q0 23 -28 30t-86 7h-209q-168 0 -266 25q-56 -22 -56 -64
q0 -90 303 -90zM985 1124h293q25 -48 25 -84q0 -56 -50 -96.5t-143 -60.5q31 -40 49.5 -99t18.5 -112q0 -124 -77 -220t-199.5 -145t-266.5 -49q-64 0 -135.5 18.5t-120.5 45.5q-37 -26 -37 -72q0 -66 176 -66h359q91 0 164 -20t118 -50.5t75 -70.5t42 -76.5t12 -70.5
q0 -55 -18 -104t-66 -99t-121.5 -85.5t-194.5 -58t-276 -22.5q-79 0 -150 6t-143 19t-129.5 36.5t-103 56.5t-70 81t-24.5 108q0 67 51 130t125 93q-82 53 -82 168q0 52 33.5 99.5t85.5 81.5q-109 100 -109 268q0 83 31 152t83 116t121.5 79.5t146 47t157.5 14.5
q194 0 315 -65q15 13 27 37t12 47q0 6 -4 22z" />
    <glyph glyph-name="gcommaaccent.alt" horiz-adv-x="1314" 
d="M694 1731l64 -103q-137 -63 -137 -155q28 4 32 4q55 0 90 -39.5t35 -104.5q0 -66 -45.5 -107.5t-118.5 -41.5q-85 0 -129.5 53.5t-44.5 122.5q0 52 11.5 101t38 100.5t79 96t125.5 73.5zM840 674q0 73 -56 121.5t-143 48.5q-91 0 -149 -48.5t-58 -121.5
q0 -71 56.5 -118.5t150.5 -47.5q91 0 145 46.5t54 119.5zM614 -246q342 0 342 92q0 23 -28 30t-86 7h-209q-168 0 -266 25q-56 -22 -56 -64q0 -90 303 -90zM985 1124h293q25 -48 25 -84q0 -56 -50 -96.5t-143 -60.5q31 -40 49.5 -99t18.5 -112q0 -124 -77 -220t-199.5 -145
t-266.5 -49q-64 0 -135.5 18.5t-120.5 45.5q-37 -26 -37 -72q0 -66 176 -66h359q91 0 164 -20t118 -50.5t75 -70.5t42 -76.5t12 -70.5q0 -55 -18 -104t-66 -99t-121.5 -85.5t-194.5 -58t-276 -22.5q-79 0 -150 6t-143 19t-129.5 36.5t-103 56.5t-70 81t-24.5 108
q0 67 51 130t125 93q-82 53 -82 168q0 52 33.5 99.5t85.5 81.5q-109 100 -109 268q0 83 31 152t83 116t121.5 79.5t146 47t157.5 14.5q194 0 315 -65q15 13 27 37t12 47q0 6 -4 22z" />
    <glyph glyph-name="gdotaccent.alt" horiz-adv-x="1314" 
d="M424 1364q0 76 52.5 124t137.5 48q80 0 135.5 -49t55.5 -123q0 -73 -55.5 -120.5t-135.5 -47.5q-86 0 -138 47t-52 121zM840 674q0 73 -56 121.5t-143 48.5q-91 0 -149 -48.5t-58 -121.5q0 -71 56.5 -118.5t150.5 -47.5q91 0 145 46.5t54 119.5zM614 -246q342 0 342 92
q0 23 -28 30t-86 7h-209q-168 0 -266 25q-56 -22 -56 -64q0 -90 303 -90zM985 1124h293q25 -48 25 -84q0 -56 -50 -96.5t-143 -60.5q31 -40 49.5 -99t18.5 -112q0 -124 -77 -220t-199.5 -145t-266.5 -49q-64 0 -135.5 18.5t-120.5 45.5q-37 -26 -37 -72q0 -66 176 -66h359
q91 0 164 -20t118 -50.5t75 -70.5t42 -76.5t12 -70.5q0 -55 -18 -104t-66 -99t-121.5 -85.5t-194.5 -58t-276 -22.5q-79 0 -150 6t-143 19t-129.5 36.5t-103 56.5t-70 81t-24.5 108q0 67 51 130t125 93q-82 53 -82 168q0 52 33.5 99.5t85.5 81.5q-109 100 -109 268
q0 83 31 152t83 116t121.5 79.5t146 47t157.5 14.5q194 0 315 -65q15 13 27 37t12 47q0 6 -4 22z" />
    <glyph glyph-name="grave.case" horiz-adv-x="1009" 
d="M246 1847h352l166 -309h-240z" />
    <glyph glyph-name="guillemotleft.case" horiz-adv-x="1368" 
d="M670 754l417 481l193 -180l-289 -336l285 -330l-189 -184l-417 481v68zM74 754l418 481l192 -180l-289 -336l287 -330l-190 -184l-418 481v68z" />
    <glyph glyph-name="guillemotright.case" horiz-adv-x="1368" 
d="M281 1235l417 -481v-68l-417 -481l-189 184l285 330l-289 336zM877 1235l417 -481v-68l-417 -481l-191 184l287 330l-289 336z" />
    <glyph glyph-name="guilsinglleft.case" horiz-adv-x="774" 
d="M74 754l418 481l192 -180l-289 -336l287 -330l-190 -184l-418 481v68z" />
    <glyph glyph-name="guilsinglright.case" horiz-adv-x="774" 
d="M283 1235l417 -481v-68l-417 -481l-191 184l287 330l-289 336z" />
    <glyph glyph-name="hungarumlaut.case" horiz-adv-x="1236" 
d="M416 1860h221l-199 -310h-192zM770 1860h221l-211 -310h-198z" />
    <glyph glyph-name="hyphen.case" horiz-adv-x="1015" 
d="M123 569v295h770v-295h-770z" />
    <glyph glyph-name="hyphen.dnom" horiz-adv-x="579" 
d="M76 297v162h428v-162h-428z" />
    <glyph glyph-name="hyphen.numr" horiz-adv-x="579" 
d="M76 1014v162h428v-162h-428z" />
    <glyph glyph-name="macron.case" horiz-adv-x="1157" 
d="M246 1802h665v-223h-665v223z" />
    <glyph glyph-name="nine.dnom" horiz-adv-x="704" 
d="M315 143q59 0 101.5 41t46.5 119h-4q-51 -59 -154 -59q-45 0 -89 14t-82.5 40.5t-62.5 72.5t-24 104q0 109 84.5 182.5t210.5 73.5q147 0 230 -98.5t83 -261.5q0 -107 -35.5 -192.5t-111.5 -139t-184 -53.5q-75 0 -143 26t-113 80q19 19 55.5 53t56.5 54q56 -56 135 -56z
M346 371q52 0 79.5 29.5t27.5 70.5t-28 69.5t-79 28.5q-46 0 -76 -25t-30 -71q0 -44 28.5 -73t77.5 -29z" />
    <glyph glyph-name="nine.numr" horiz-adv-x="704" 
d="M315 860q59 0 101.5 41t46.5 119h-4q-51 -59 -154 -59q-45 0 -89 14t-82.5 40.5t-62.5 72.5t-24 104q0 109 84.5 182.5t210.5 73.5q147 0 230 -99t83 -262q0 -107 -35.5 -192.5t-111.5 -139t-184 -53.5q-74 0 -142.5 26.5t-113.5 80.5q19 20 55.5 53.5t56.5 52.5
q55 -55 135 -55zM346 1087q52 0 79.5 30t27.5 71t-28 69.5t-79 28.5q-46 0 -76 -25t-30 -71q0 -44 28.5 -73.5t77.5 -29.5z" />
    <glyph glyph-name="nine.oldstyle" horiz-adv-x="1335" 
d="M582 18q48 0 92 10t87 34t75 60t53 91t24 123h-6q-51 -61 -141.5 -99t-183.5 -38q-98 0 -188.5 29.5t-162 83t-114.5 137t-43 182.5q0 199 156.5 325.5t412.5 126.5q285 0 449.5 -176t164.5 -467q0 -115 -25 -217t-77.5 -189.5t-129 -150.5t-184.5 -99t-239 -36
q-316 0 -506 184l191 187q115 -101 295 -101zM655 438q116 0 179 55.5t63 131.5t-66.5 131t-171.5 55q-101 0 -170 -51.5t-69 -128.5q0 -86 65.5 -139.5t169.5 -53.5z" />
    <glyph glyph-name="nine.taboldstyle" horiz-adv-x="1392" 
d="M610 18q60 0 115 17t103.5 52.5t79 99.5t34.5 149h-6q-51 -61 -142 -99t-184 -38q-98 0 -188.5 29.5t-162 83t-114.5 137t-43 182.5q0 198 157 325t413 127q285 0 449.5 -176t164.5 -467q0 -115 -25 -217t-77.5 -189.5t-129 -150.5t-184.5 -99t-239 -36q-316 0 -506 184
l190 187q115 -101 295 -101zM684 438q116 0 179 55.5t63 131.5t-66.5 131t-171.5 55q-101 0 -170 -51.5t-69 -128.5q0 -86 65.5 -139.5t169.5 -53.5z" />
    <glyph glyph-name="nine.tnum" horiz-adv-x="1392" 
d="M608 268q44 0 88 11t88 38.5t78.5 67t57.5 102.5t26 140h-6q-49 -68 -142 -110t-190 -42q-99 0 -191.5 33t-165 93t-116 152t-43.5 201q0 219 160.5 360.5t419.5 141.5q191 0 332.5 -90t215.5 -250.5t74 -372.5q0 -128 -25 -241t-78 -210t-130.5 -166.5t-187 -109
t-242.5 -39.5q-149 0 -283 50t-229 151l190 197q110 -107 299 -107zM684 737q117 0 180.5 62t63.5 147q0 89 -64 156t-176 67q-102 0 -173 -61.5t-71 -153.5q0 -97 67.5 -157t172.5 -60z" />
    <glyph glyph-name="ogonek.case" horiz-adv-x="1118" 
d="M625 72v-52q-44 -14 -76 -37t-47.5 -48.5t-22 -47t-6.5 -41.5q0 -50 28.5 -77t76.5 -27q79 0 133 104l161 -84q-43 -105 -131 -165t-200 -60q-47 0 -95 13t-94.5 40t-76 78.5t-29.5 118.5q0 83 61.5 163.5t188.5 121.5h129z" />
    <glyph glyph-name="one.dnom" horiz-adv-x="495" 
d="M61 440l-53 148l299 129h113v-717h-201v504z" />
    <glyph glyph-name="one.numr" horiz-adv-x="497" 
d="M63 1157l-53 148l299 129h113v-717h-201v504z" />
    <glyph glyph-name="one.oldstyle" horiz-adv-x="1198" 
d="M141 586l-84 260l580 215h190v-776h322v-285h-999v285h333v411z" />
    <glyph glyph-name="one.taboldstyle" horiz-adv-x="1392" 
d="M240 586l-84 260l579 215h191v-776h321v-285h-999v285h334v411z" />
    <glyph glyph-name="one.tnum" horiz-adv-x="1392" 
d="M1229 0h-979v287h317v755l-295 -112l-88 268l535 236h203v-1147h307v-287z" />
    <glyph glyph-name="parenleft.case" horiz-adv-x="727" 
d="M401 719q0 -131 29 -274.5t74 -261t90.5 -208.5t85.5 -147l-211 -117q-43 45 -88 104t-101.5 157.5t-99.5 206t-72.5 251t-29.5 289.5t29.5 289.5t72.5 250.5t99.5 205.5t101.5 157.5t88 104l211 -116q-40 -57 -85.5 -146.5t-90.5 -207.5t-74 -261.5t-29 -275.5z" />
    <glyph glyph-name="parenleft.dnom" horiz-adv-x="446" 
d="M246 356q0 -124 48 -248t99 -200l-123 -78q-29 29 -62 78t-68 117t-58 156t-23 175q0 85 23 174t58 158t68.5 119t61.5 78l123 -80q-52 -76 -99.5 -199.5t-47.5 -249.5z" />
    <glyph glyph-name="parenleft.numr" horiz-adv-x="442" 
d="M244 1073q0 -124 48 -248t99 -200l-123 -78q-29 29 -62 78t-68 117t-58 156t-23 175q0 85 23 174t58 158t68.5 119t61.5 78l123 -80q-52 -76 -99.5 -199.5t-47.5 -249.5z" />
    <glyph glyph-name="parenright.case" horiz-adv-x="727" 
d="M326 719q0 132 -29 275.5t-74 261.5t-90.5 207.5t-85.5 146.5l211 116q43 -43 89 -103.5t102 -158t99 -205.5t72 -251t29 -289t-29 -289t-72 -251t-99 -206t-102 -158.5t-89 -103.5l-211 117q40 56 85.5 147t90.5 208.5t74 261t29 274.5z" />
    <glyph glyph-name="parenright.dnom" horiz-adv-x="446" 
d="M199 356q0 126 -47 250t-99 199l121 80q29 -29 62.5 -78.5t69 -118.5t58.5 -157.5t23 -174.5q0 -112 -41 -229t-85.5 -187t-84.5 -110l-123 78q51 72 98.5 197.5t47.5 250.5z" />
    <glyph glyph-name="parenright.numr" horiz-adv-x="444" 
d="M197 1073q0 126 -47 250t-99 199l121 80q29 -29 62.5 -78.5t69 -118.5t58.5 -157.5t23 -174.5q0 -112 -41 -229t-85.5 -187t-84.5 -110l-123 78q51 72 98.5 197.5t47.5 250.5z" />
    <glyph glyph-name="period.dnom" horiz-adv-x="374" 
d="M70 90q0 46 33.5 74.5t84.5 28.5q49 0 83 -28.5t34 -74.5q0 -44 -34.5 -74t-82.5 -30q-50 0 -84 30t-34 74z" />
    <glyph glyph-name="period.numr" horiz-adv-x="376" 
d="M70 807q0 46 33.5 74t84.5 28q49 0 83 -28t34 -74q0 -44 -34.5 -74.5t-82.5 -30.5q-50 0 -84 30.5t-34 74.5z" />
    <glyph glyph-name="periodcentered.case" horiz-adv-x="630" 
d="M104 719q0 85 59.5 138.5t151.5 53.5q91 0 151 -54t60 -138q0 -80 -60 -133.5t-151 -53.5q-92 0 -151.5 53.5t-59.5 133.5z" />
    <glyph glyph-name="questiondown.case" horiz-adv-x="1114" 
d="M459 942h299v-65q-5 -72 -33 -123t-113 -107q-102 -66 -147 -117t-45 -120t40.5 -103.5t104.5 -34.5q60 0 108 34.5t48 96.5q0 41 -21 91h326q23 -55 23 -119q0 -53 -18 -107.5t-57.5 -107t-95 -93t-137 -65.5t-176.5 -25q-222 0 -362 113t-140 297q0 132 81.5 237
t263.5 218q22 13 36.5 39.5t14.5 60.5zM819 1270q0 -82 -58.5 -136.5t-150.5 -54.5q-91 0 -152 54.5t-61 136.5q0 79 61 132.5t152 53.5q92 0 150.5 -53t58.5 -133z" />
    <glyph glyph-name="ring.case" horiz-adv-x="1026" 
d="M246 1755q0 109 75.5 169.5t190.5 60.5q117 0 192.5 -60.5t75.5 -169.5q0 -107 -75.5 -166t-192.5 -59q-115 0 -190.5 59.5t-75.5 165.5zM401 1755q0 -43 31 -67.5t80 -24.5q51 0 82 24.5t31 67.5q0 45 -30.5 67.5t-82.5 22.5q-50 0 -80.5 -22.5t-30.5 -67.5z" />
    <glyph glyph-name="seven.dnom" horiz-adv-x="616" 
d="M35 555v162h567v-115l-313 -602h-217l299 555h-336z" />
    <glyph glyph-name="seven.numr" horiz-adv-x="620" 
d="M37 1272v162h567v-115l-313 -602h-217l299 555h-336z" />
    <glyph glyph-name="seven.oldstyle" horiz-adv-x="1155" 
d="M49 776v285h1079v-201l-577 -1089h-385l549 1005h-666z" />
    <glyph glyph-name="seven.taboldstyle" horiz-adv-x="1392" 
d="M168 776v285h1079v-201l-577 -1089h-385l549 1005h-666z" />
    <glyph glyph-name="seven.tnum" horiz-adv-x="1392" 
d="M164 1147v287h1093v-209l-624 -1225h-402l613 1147h-680z" />
    <glyph glyph-name="six.dnom" horiz-adv-x="704" 
d="M389 573q-59 0 -101.5 -41.5t-43.5 -117.5h4q52 57 153 57q44 0 88 -14t82 -40.5t62 -72.5t24 -104q0 -109 -84.5 -181.5t-210.5 -72.5q-146 0 -229.5 99t-83.5 261q0 164 87 274.5t245 110.5q74 0 142.5 -27t113.5 -81l-113 -105q-55 55 -135 55zM358 344q-52 0 -78 -29
t-26 -71t26.5 -70.5t77.5 -28.5q48 0 78.5 26.5t30.5 70.5q0 45 -28.5 73.5t-80.5 28.5z" />
    <glyph glyph-name="six.numr" horiz-adv-x="706" 
d="M389 1290q-59 0 -101.5 -42t-43.5 -118h4q53 58 153 58q44 0 88 -14t82 -41t62 -73t24 -104q0 -109 -84.5 -181.5t-210.5 -72.5q-146 0 -229.5 99.5t-83.5 261.5q0 164 87 274.5t245 110.5q74 0 142.5 -27.5t113.5 -81.5l-113 -104q-55 55 -135 55zM358 1061
q-52 0 -78 -29t-26 -71t26.5 -70.5t77.5 -28.5q48 0 78.5 26t30.5 70q0 45 -28.5 74t-80.5 29z" />
    <glyph glyph-name="six.oldstyle" horiz-adv-x="1355" 
d="M762 1047q-60 0 -115 -17t-103.5 -52.5t-79 -99.5t-34.5 -149h6q51 61 142 99t184 38q98 0 188.5 -29.5t162 -83t114.5 -137t43 -182.5q0 -198 -157 -325t-413 -127q-285 0 -449.5 176t-164.5 467q0 115 25 217t77.5 189.5t129 150.5t184.5 99t239 36q316 0 506 -184
l-190 -187q-115 101 -295 101zM688 627q-116 0 -179 -54.5t-63 -132.5q0 -76 66.5 -131t171.5 -55q101 0 170.5 51.5t69.5 128.5q0 86 -65.5 139.5t-170.5 53.5z" />
    <glyph glyph-name="six.taboldstyle" horiz-adv-x="1392" 
d="M780 1047q-48 0 -92 -10t-87 -34t-75 -60t-53 -91t-24 -123h6q51 61 141.5 99t183.5 38q98 0 188.5 -29.5t162 -83t114.5 -137t43 -182.5q0 -199 -156.5 -325.5t-412.5 -126.5q-285 0 -450 176t-165 467q0 144 40.5 267.5t119.5 219.5t206.5 150.5t289.5 54.5
q316 0 506 -184l-191 -187q-115 101 -295 101zM707 627q-116 0 -179 -54.5t-63 -132.5q0 -76 66 -131t171 -55q101 0 170.5 51.5t69.5 128.5q0 86 -65.5 139.5t-169.5 53.5z" />
    <glyph glyph-name="six.tnum" horiz-adv-x="1392" 
d="M782 1163q-44 0 -87.5 -11t-88.5 -37.5t-79 -66.5t-57 -102.5t-26 -140.5h7q54 67 145.5 109t185.5 42q99 0 191 -32.5t165 -92t116.5 -151.5t43.5 -203q0 -218 -159 -359t-420 -141q-287 0 -455 195t-168 516q0 128 25 242t78.5 210.5t131 166.5t188 109.5t243.5 39.5
q147 0 281 -51t229 -152l-191 -196q-109 106 -299 106zM707 694q-117 0 -180.5 -62t-63.5 -147q0 -89 65 -156t177 -67q99 0 170 62t71 153q0 97 -67 157t-172 60z" />
    <glyph glyph-name="sterling.dnom" horiz-adv-x="690" 
d="M524 276h-137q5 -31 -6.5 -64.5t-36.5 -57.5q82 4 111 4h188v-158h-594v150q85 6 115.5 26.5t30.5 54.5q0 29 -7 45h-122v89h86q-35 77 -35 151q0 95 76 155t188 60q63 0 112 -22t77.5 -58t42.5 -76.5t14 -82.5h-189q0 34 -16.5 55.5t-46.5 21.5q-62 0 -62 -61
q0 -42 37 -143h174v-89z" />
    <glyph glyph-name="sterling.numr" horiz-adv-x="692" 
d="M524 993h-137q5 -31 -6.5 -65t-36.5 -58q82 4 111 4h188v-157h-594v149q85 6 115.5 27t30.5 55q0 29 -7 45h-122v88h86q-35 77 -35 152q0 95 76 155t188 60q63 0 112 -22t77.5 -58.5t42.5 -77t14 -82.5h-189q0 34 -16.5 56t-46.5 22q-62 0 -62 -61q0 -43 37 -144h174v-88
z" />
    <glyph glyph-name="sterlinginferior" horiz-adv-x="692" 
d="M524 -14h-137q5 -31 -6.5 -65t-36.5 -58q82 4 111 4h188v-158h-594v150q85 6 115.5 27t30.5 55q0 29 -7 45h-122v88h86q-35 77 -35 151q0 95 76 155t188 60q63 0 112 -22t77.5 -58t42.5 -76.5t14 -82.5h-189q0 34 -16.5 56t-46.5 22q-62 0 -62 -62q0 -42 37 -143h174v-88
z" />
    <glyph glyph-name="sterlingsuperior" horiz-adv-x="692" 
d="M524 1255h-137q5 -31 -6.5 -64.5t-36.5 -57.5q82 4 111 4h188v-158h-594v149q85 6 115.5 27t30.5 55q0 29 -7 45h-122v88h86q-35 77 -35 152q0 95 76 155t188 60q63 0 112 -22t77.5 -58.5t42.5 -77t14 -82.5h-189q0 34 -16.5 56t-46.5 22q-62 0 -62 -61q0 -43 37 -144
h174v-88z" />
    <glyph glyph-name="three.dnom" horiz-adv-x="665" 
d="M301 147q46 0 79.5 31t33.5 68q0 41 -29.5 67.5t-71.5 26.5q-33 0 -82 -16l-69 92l172 139h-266v162h522v-113l-174 -153q88 -10 144 -67.5t56 -135.5q0 -108 -86.5 -185t-228.5 -77q-85 0 -150.5 20t-121.5 72l94 123q37 -25 74 -38t55 -14.5t49 -1.5z" />
    <glyph glyph-name="three.numr" horiz-adv-x="667" 
d="M301 864q46 0 79.5 31t33.5 68q0 41 -29.5 67.5t-71.5 26.5q-30 0 -82 -17l-69 93l172 139h-266v162h522v-113l-174 -154q88 -10 144 -67t56 -135q0 -108 -86.5 -185.5t-228.5 -77.5q-85 0 -150 20.5t-122 72.5l94 123q37 -25 74 -38t55 -14.5t49 -1.5z" />
    <glyph glyph-name="three.oldstyle" horiz-adv-x="1271" 
d="M561 27q127 0 205 55t78 135q0 83 -69.5 138t-166.5 55q-107 0 -186 -43l-125 172l360 254h-532v268h1020v-184l-375 -281q111 -5 208 -55t156.5 -137.5t59.5 -190.5q0 -94 -41.5 -177t-118.5 -146t-196 -99.5t-265 -36.5q-341 0 -536 162l166 203q76 -42 150.5 -63.5
t113.5 -25t94 -3.5z" />
    <glyph glyph-name="three.taboldstyle" horiz-adv-x="1392" 
d="M623 27q127 0 204.5 55t77.5 135q0 83 -69 138t-166 55q-108 0 -187 -43l-125 172l361 254h-533v268h1020v-184l-375 -281q111 -5 208 -55t156.5 -137.5t59.5 -190.5q0 -94 -41.5 -177t-118.5 -146t-195.5 -99.5t-264.5 -36.5q-342 0 -537 162l166 203
q76 -42 150.5 -63.5t114 -25t94.5 -3.5z" />
    <glyph glyph-name="three.tnum" horiz-adv-x="1392" 
d="M616 264q126 0 206.5 69t80.5 159q0 93 -69.5 150.5t-167.5 57.5q-105 0 -189 -36l-125 178q45 36 176.5 142t204.5 163h-555v287h1030v-203q-75 -61 -208.5 -172t-176.5 -146q176 -12 304 -132.5t128 -293.5q0 -105 -42 -197.5t-119 -162t-197 -110t-266 -40.5
q-349 0 -539 179l164 219q193 -111 360 -111z" />
    <glyph glyph-name="tilde.case" horiz-adv-x="1320" 
d="M913 1860l162 -52q-18 -61 -36.5 -103t-47 -80t-70 -56.5t-96.5 -18.5t-114.5 20.5t-106.5 41t-74 20.5t-46 -6.5t-34 -24t-20.5 -26.5t-19.5 -37l-164 51q18 60 37.5 103t48 80t70 56t94.5 19q55 0 114 -21t107 -42t76 -21q14 0 26 2.5t21 5.5t17.5 10t13.5 11.5
t12.5 15.5t10 15.5t10 18.5t9.5 18z" />
    <glyph glyph-name="two.dnom" horiz-adv-x="669" 
d="M449 238l-97 -80q50 4 78 4h186v-162h-553l-18 113l274 254q82 74 82 127q0 29 -19.5 47t-49.5 18q-50 0 -74.5 -30t-24.5 -70h-184q0 48 14.5 94t45.5 87t86.5 66t128.5 25q123 0 199.5 -64.5t76.5 -170.5q0 -131 -151 -258z" />
    <glyph glyph-name="two.numr" horiz-adv-x="671" 
d="M449 954l-97 -80q62 5 78 5h186v-162h-553l-18 112l274 254q82 74 82 127q0 29 -19.5 47.5t-49.5 18.5q-50 0 -74.5 -30t-24.5 -70h-184q0 48 14.5 94t45.5 87t86.5 66t128.5 25q123 0 199.5 -65t76.5 -171q0 -131 -151 -258z" />
    <glyph glyph-name="two.oldstyle" horiz-adv-x="1241" 
d="M760 336l-88 -49q-3 -3 -11.5 -7.5t-11.5 -7.5q109 13 297 13h205v-285h-1055q-3 30 -4 64t-1 76.5t-1 66.5l569 371q68 43 89.5 64.5t21.5 57.5q0 46 -44 72.5t-112 26.5q-73 0 -124.5 -31.5t-51.5 -93.5h-346q0 49 11 95.5t34.5 93t65 85.5t97 70t135.5 48t177 17
q229 0 366.5 -93.5t137.5 -262.5q0 -65 -21 -117t-70 -98.5t-108.5 -85.5t-156.5 -90z" />
    <glyph glyph-name="two.taboldstyle" horiz-adv-x="1392" 
d="M836 336l-88 -49q-3 -3 -11.5 -7.5t-11.5 -7.5q109 13 297 13h205v-285h-1055q-3 30 -4 64t-1 76.5t-1 66.5l569 371q68 43 89.5 64.5t21.5 57.5q0 46 -44 72.5t-112 26.5q-73 0 -124.5 -31.5t-51.5 -93.5h-346q0 49 11 95.5t34.5 93t65 85.5t97 70t135.5 48t177 17
q229 0 366.5 -93.5t137.5 -262.5q0 -65 -21 -117t-70 -98.5t-108.5 -85.5t-156.5 -90z" />
    <glyph glyph-name="two.tnum" horiz-adv-x="1392" 
d="M928 492l-277 -220q114 13 250 13h352v-285h-1083l-33 211l547 487q88 77 138 148.5t50 146.5q0 80 -54.5 126t-143.5 46q-108 0 -157.5 -57t-49.5 -139h-338q0 67 18 133t60 131t103.5 114t156.5 79t211 30q157 0 280.5 -56.5t194 -163.5t70.5 -249q0 -247 -295 -495z
" />
    <glyph glyph-name="uni02C9.case" horiz-adv-x="1157" 
d="M246 1802h665v-223h-665v223z" />
    <glyph glyph-name="y.alt" horiz-adv-x="1243" 
d="M449 94l-439 967h391l224 -615l233 615h379l-430 -969q-75 -166 -96 -205q-117 -222 -278 -304q-110 -56 -247 -56q-205 0 -354 102l115 252q101 -67 223 -67q161 0 279 280z" />
    <glyph glyph-name="yacute.alt" horiz-adv-x="1243" 
d="M10 1061l439 -967q-118 -280 -279 -280q-122 0 -223 67l-115 -252q149 -102 354 -102q106 0 197 37t146 80t113 130.5t80 132t65 141.5q14 30 20 44l430 969h-379l-233 -615l-224 615h-391zM623 1542h360l-313 -356h-242z" />
    <glyph glyph-name="ycircumflex.alt" horiz-adv-x="1243" 
d="M10 1061l439 -967q-118 -280 -279 -280q-122 0 -223 67l-115 -252q149 -102 354 -102q106 0 197 37t146 80t113 130.5t80 132t65 141.5q14 30 20 44l430 969h-379l-233 -615l-224 615h-391zM442 1542h338l207 -356h-229l-146 188l-145 -188h-229z" />
    <glyph glyph-name="ydieresis.alt" horiz-adv-x="1243" 
d="M10 1061l439 -967q-118 -280 -279 -280q-122 0 -223 67l-115 -252q149 -102 354 -102q106 0 197 37t146 80t113 130.5t80 132t65 141.5q14 30 20 44l430 969h-379l-233 -615l-224 615h-391zM164 1364q0 73 53 121.5t137 48.5q78 0 132.5 -49t54.5 -121q0 -71 -54 -118.5
t-133 -47.5q-84 0 -137 47t-53 119zM688 1364q0 72 53.5 121t132.5 49q80 0 135.5 -49t55.5 -121q0 -71 -55.5 -118.5t-135.5 -47.5t-133 47t-53 119z" />
    <glyph glyph-name="yen.dnom" horiz-adv-x="796" 
d="M664 123h-166v-123h-201v123h-164v84h164v88h-164v82h107l-203 305v35h211l151 -254l148 254h213v-37l-203 -303h107v-82h-166v-88h166v-84z" />
    <glyph glyph-name="yen.numr" horiz-adv-x="796" 
d="M664 840h-166v-123h-201v123h-164v84h164v88h-164v82h107l-203 305v35h211l151 -254l148 254h213v-37l-203 -303h107v-82h-166v-88h166v-84z" />
    <glyph glyph-name="yeninferior" horiz-adv-x="796" 
d="M664 -168h-166v-123h-201v123h-164v84h164v88h-164v82h107l-203 305v35h211l151 -254l148 254h213v-37l-203 -303h107v-82h-166v-88h166v-84z" />
    <glyph glyph-name="yensuperior" horiz-adv-x="794" 
d="M664 1102h-166v-123h-201v123h-164v84h164v88h-164v82h107l-203 305v35h211l151 -254l148 254h213v-37l-203 -303h107v-82h-166v-88h166v-84z" />
    <glyph glyph-name="ygrave.alt" horiz-adv-x="1243" 
d="M10 1061l439 -967q-118 -280 -279 -280q-122 0 -223 67l-115 -252q149 -102 354 -102q106 0 197 37t146 80t113 130.5t80 132t65 141.5q14 30 20 44l430 969h-379l-233 -615l-224 615h-391zM219 1542h363l192 -356h-242z" />
    <glyph glyph-name="zero.dnom" horiz-adv-x="751" 
d="M705 358q0 -157 -90.5 -264.5t-239.5 -107.5t-238.5 107t-89.5 265q0 159 89.5 266t238.5 107q150 0 240 -107t90 -266zM506 358q0 89 -36 146t-95 57t-93 -56.5t-34 -146.5q0 -88 34 -144t93 -56t95 56t36 144z" />
    <glyph glyph-name="zero.numr" horiz-adv-x="753" 
d="M705 1075q0 -157 -90.5 -265t-239.5 -108t-238.5 107.5t-89.5 265.5q0 159 89.5 266t238.5 107q150 0 240 -107t90 -266zM506 1075q0 89 -36 146t-95 57t-93 -56.5t-34 -146.5q0 -88 34 -144.5t93 -56.5t95 56.5t36 144.5z" />
    <glyph glyph-name="zero.oldstyle" horiz-adv-x="1370" 
d="M1292 532q0 -114 -43.5 -215.5t-121 -176.5t-192.5 -119t-251 -44q-137 0 -251.5 44t-191.5 119t-120 176.5t-43 215.5t43 214.5t120 175.5t191.5 118t251.5 43q136 0 251 -43.5t192.5 -118t121 -175t43.5 -214.5zM946 532q0 111 -71 193t-191 82q-118 0 -189 -82
t-71 -193t71.5 -194.5t188.5 -83.5q120 0 191 83.5t71 194.5z" />
    <glyph glyph-name="zero.taboldstyle" horiz-adv-x="1392" 
d="M1303 532q0 -153 -74 -278.5t-214 -201t-321 -75.5q-137 0 -251.5 44t-191.5 119t-120 176.5t-43 215.5t43 214.5t120 175.5t191.5 118t251.5 43q136 0 251 -43.5t193 -118t121.5 -175t43.5 -214.5zM956 532q0 111 -71 193t-191 82q-118 0 -189 -82t-71 -193t71.5 -194.5
t188.5 -83.5q120 0 191 83.5t71 194.5z" />
    <glyph glyph-name="zero.tnum" horiz-adv-x="1392" 
d="M1350 717q0 -152 -47 -287.5t-131 -235.5t-208 -158.5t-270 -58.5q-196 0 -346 100.5t-227.5 267.5t-77.5 372q0 154 45.5 288.5t128 234.5t206 158t271.5 58q146 0 270 -58t208 -157.5t131 -235t47 -288.5zM995 717q0 195 -83 326t-218 131q-136 0 -216.5 -130.5
t-80.5 -326.5t80.5 -326.5t216.5 -130.5q135 0 218 131t83 326z" />
    </font>
</defs>
</svg>
