<?xml version="1.0" standalone="no"?>
<!DOCTYPE svg PUBLIC "-//W3C//DTD SVG 1.1//EN" "http://www.w3.org/Graphics/SVG/1.1/DTD/svg11.dtd" >
<svg xmlns="http://www.w3.org/2000/svg" xmlns:xlink="http://www.w3.org/1999/xlink" version="1.1">
<metadata>
Created by FontForge 20170731 at Tue Oct 10 09:44:42 2023
 By Aleksey,,,
Copyright (c) Olivier Gourvat - Mostardesign Studio, 2014. All rights reserved. |DCNT
</metadata>
<defs>
<font id="FilsonPro-Bold" horiz-adv-x="1218" >
  <font-face 
    font-family="Filson Pro"
    font-weight="700"
    font-stretch="normal"
    units-per-em="2048"
    panose-1="2 0 0 0 0 0 0 0 0 0"
    ascent="1481"
    descent="-567"
    x-height="1051"
    cap-height="1434"
    bbox="-494 -641 2920 2009"
    underline-thickness="102"
    underline-position="-307"
    unicode-range="U+000D-FB04"
  />
<missing-glyph horiz-adv-x="1378" 
d="M205 0v1436h969v-1436h-969zM582 526h123q0 40 4 55.5t20 26.5q7 4 30 18.5t39 24.5t41.5 29t43.5 36.5t39 42.5t34 50t22 57t9 66q0 120 -90.5 193t-224.5 73q-78 0 -138.5 -21.5t-94.5 -56t-51 -72.5t-17 -77q0 -53 18 -94h129q-16 36 -16 90q0 52 44 84t118 32
q87 0 135.5 -40.5t48.5 -110.5v-4q0 -68 -41 -115t-137 -106q-63 -36 -75.5 -64t-12.5 -117zM545 295q0 -43 28.5 -71.5t69.5 -28.5q43 0 72.5 28.5t29.5 71.5q0 41 -29.5 70.5t-72.5 29.5q-41 0 -69.5 -29.5t-28.5 -70.5z" />
    <glyph glyph-name="f_f" unicode="ff" horiz-adv-x="1642" 
d="M1333 1161v-119h236v-231h-236v-811h-305v811h-516v-811h-305v811h-148v231h148v70q0 110 30 189t83 121.5t114.5 61.5t136.5 19q89 0 156.5 -26.5t105.5 -72t56 -99.5t18 -115l-237 -23q0 41 -19.5 67t-60.5 26t-59.5 -29t-18.5 -70v-119h516v70q0 110 30 189
t83.5 121.5t115 61.5t136.5 19q89 0 156.5 -26.5t105.5 -72t56 -99.5t18 -115q0 -31 -11 -57h-235q8 8 8 34q0 41 -19.5 67t-60.5 26t-59.5 -29t-18.5 -70z" />
    <glyph glyph-name="fi" unicode="fi" horiz-adv-x="1423" 
d="M209 811h-150v231h150v41q0 101 29.5 177.5t75.5 121.5t112 73.5t129.5 38t136.5 9.5q91 0 169.5 -22t149 -81t101.5 -151l-289 -80q-16 47 -52 69t-79 22q-34 0 -63 -7.5t-56.5 -26t-43 -55t-15.5 -88.5v-41h776v-1042h-305v811h-471v-811h-305v811z" />
    <glyph glyph-name="fl" unicode="fl" horiz-adv-x="1396" 
d="M209 811h-150v231h150v41q0 101 29.5 177.5t75.5 121.5t112 73.5t129.5 38t136.5 9.5q132 0 302.5 -28.5t269.5 -71.5v-1403h-306v1219q-122 41 -266 41q-34 0 -63 -7.5t-56.5 -26t-43 -55t-15.5 -88.5v-41h268v-231h-268v-811h-305v811z" />
    <glyph glyph-name="f_f_i" unicode="ffi" horiz-adv-x="2244" 
d="M690 1260q-34 0 -63 -7.5t-56.5 -26t-43 -55t-15.5 -88.5v-41h516v41q0 101 29.5 177.5t75.5 121.5t112 73.5t129.5 38t136.5 9.5q91 0 169.5 -22t149 -81t101.5 -151l-289 -80q-16 47 -52 69t-79 22q-34 0 -63 -7.5t-56.5 -26t-43 -55t-15.5 -88.5v-41h776v-1042h-305
v811h-471v-811h-305v811h-516v-811h-305v811h-148v231h148v41q0 101 29.5 177.5t75.5 121.5t112 73.5t129.5 38t136.5 9.5q198 0 324 -119l-162 -184q-62 60 -162 60z" />
    <glyph glyph-name="f_f_l" unicode="ffl" horiz-adv-x="2217" 
d="M690 1260q-34 0 -63 -7.5t-56.5 -26t-43 -55t-15.5 -88.5v-41h516v41q0 101 29.5 177.5t75.5 121.5t112 73.5t129.5 38t136.5 9.5q132 0 302.5 -28.5t269.5 -71.5v-1403h-305v1219q-122 41 -267 41q-34 0 -63 -7.5t-56.5 -26t-43 -55t-15.5 -88.5v-41h269v-231h-269v-811
h-305v811h-516v-811h-305v811h-148v231h148v41q0 101 28 178t71.5 121.5t104 73t117 38t119.5 9.5q95 0 196 -26.5t171 -92.5l-162 -184q-62 60 -162 60z" />
    <glyph glyph-name="f_f_j" unicode="ffj" horiz-adv-x="2299" 
d="M690 1503q198 0 324 -119l-162 -184q-62 60 -162 60q-34 0 -63 -7.5t-56.5 -26t-43 -55t-15.5 -88.5v-41h516v41q0 101 29.5 177.5t75.5 121.5t112 73.5t129.5 38t136.5 9.5q91 0 169.5 -22t149 -81t101.5 -151l-289 -80q-16 47 -52 69t-79 22q-34 0 -63 -7.5t-56.5 -26
t-43 -55t-15.5 -88.5v-41h832v-1153q0 -110 -30 -189t-83.5 -121.5t-115 -61.5t-136.5 -19q-89 0 -158.5 27t-110 72t-61 99.5t-20.5 115.5q0 33 12 57h242q-2 -8 -2 -35q0 -40 19.5 -66t60.5 -26t59.5 28.5t18.5 69.5v971h-527v-811h-305v811h-516v-811h-305v811h-148v231
h148v41q0 101 29.5 177.5t75.5 121.5t112 73.5t129.5 38t136.5 9.5z" />
    <glyph glyph-name="f_j" unicode="fj" horiz-adv-x="1478" 
d="M207 811h-148v231h148v41q0 101 29.5 177.5t75.5 121.5t112 73.5t129.5 38t136.5 9.5q91 0 169.5 -22t149 -81t101.5 -151l-289 -80q-16 47 -52 69t-79 22q-34 0 -63 -7.5t-56.5 -26t-43 -55t-15.5 -88.5v-41h831v-1153q0 -110 -30 -189t-83 -121.5t-114.5 -61.5
t-136.5 -19q-89 0 -158.5 27t-110 72t-61 99.5t-20.5 115.5q0 33 12 57h242q-2 -8 -2 -35q0 -40 19.5 -66t60.5 -26t59 28.5t18 69.5v971h-526v-811h-305v811z" />
    <glyph glyph-name=".notdef" horiz-adv-x="1378" 
d="M205 0v1436h969v-1436h-969zM582 526h123q0 40 4 55.5t20 26.5q7 4 30 18.5t39 24.5t41.5 29t43.5 36.5t39 42.5t34 50t22 57t9 66q0 120 -90.5 193t-224.5 73q-78 0 -138.5 -21.5t-94.5 -56t-51 -72.5t-17 -77q0 -53 18 -94h129q-16 36 -16 90q0 52 44 84t118 32
q87 0 135.5 -40.5t48.5 -110.5v-4q0 -68 -41 -115t-137 -106q-63 -36 -75.5 -64t-12.5 -117zM545 295q0 -43 28.5 -71.5t69.5 -28.5q43 0 72.5 28.5t29.5 71.5q0 41 -29.5 70.5t-72.5 29.5q-41 0 -69.5 -29.5t-28.5 -70.5z" />
    <glyph glyph-name=".null" horiz-adv-x="0" 
 />
    <glyph glyph-name="nonmarkingreturn" horiz-adv-x="682" 
 />
    <glyph glyph-name="NULL" horiz-adv-x="0" 
 />
    <glyph glyph-name="NULL" horiz-adv-x="0" 
 />
    <glyph glyph-name="CR" unicode="&#xd;" horiz-adv-x="512" 
 />
    <glyph glyph-name="space" unicode=" " horiz-adv-x="499" 
 />
    <glyph glyph-name="exclam" unicode="!" horiz-adv-x="600" 
d="M485 1374l-73 -895h-224l-73 895v60h370v-60zM106 154q0 78 54.5 129t138.5 51q82 0 138.5 -51.5t56.5 -128.5q0 -75 -56.5 -126t-138.5 -51q-84 0 -138.5 50.5t-54.5 126.5z" />
    <glyph glyph-name="quotedbl" unicode="&#x22;" horiz-adv-x="987" 
d="M410 1456l-66 -588h-182l-66 588h314zM891 1456l-66 -588h-182l-65 588h313z" />
    <glyph glyph-name="numbersign" unicode="#" horiz-adv-x="1570" 
d="M1249 1143h258l-53 -207h-256l-102 -401h260l-53 -209h-254l-84 -326h-230l84 326h-264l-82 -326h-227l80 326h-263l52 209h262l102 401h-264l53 207h262l74 291h227l-73 -291h264l72 291h229zM705 936l-101 -401h264l101 401h-264z" />
    <glyph glyph-name="dollar" unicode="$" horiz-adv-x="1140" 
d="M524 -143v176q-186 18 -311 121t-145 276l270 53q41 -157 186 -178v291l-53 18q-81 28 -143 68t-98 80.5t-58.5 88t-30.5 87.5t-8 82q0 160 108 261.5t283 119.5v170h131v-174q131 -18 227.5 -91t149.5 -202l-250 -121q-53 109 -127 137v-270l52 -16q100 -35 172.5 -85.5
t110 -105.5t54.5 -106t17 -101q0 -91 -33.5 -165t-91.5 -122t-129 -76.5t-152 -37.5v-178h-131zM764 424q0 76 -109 127v-240q50 13 79.5 41.5t29.5 71.5zM428 1016q0 -74 96 -119v229q-96 -24 -96 -110z" />
    <glyph glyph-name="percent" unicode="%" horiz-adv-x="2048" 
d="M504 0l796 1434h216l-795 -1434h-217zM63 1071q0 163 116 274t286 111q171 0 286 -111t115 -274q0 -162 -115 -272.5t-286 -110.5q-170 0 -286 111t-116 272zM297 1071q0 -79 49.5 -128.5t118.5 -49.5q71 0 121.5 49.5t50.5 128.5q0 82 -50 132t-122 50q-69 0 -118.5 -50
t-49.5 -132zM1182 360q0 163 115.5 274t285.5 111q171 0 286.5 -111t115.5 -274q0 -162 -115.5 -272.5t-286.5 -110.5q-170 0 -285.5 110.5t-115.5 272.5zM1415 360q0 -79 49.5 -128.5t118.5 -49.5q71 0 121.5 49.5t50.5 128.5q0 82 -50 132.5t-122 50.5q-69 0 -118.5 -50.5
t-49.5 -132.5z" />
    <glyph glyph-name="ampersand" unicode="&#x26;" horiz-adv-x="1622" 
d="M1016 119l-10 10q-72 -73 -180 -112.5t-236 -39.5q-144 0 -261.5 48.5t-189 144.5t-71.5 223q0 267 333 430q-122 147 -122 295q0 69 28 127.5t72 96.5t100.5 64.5t111.5 38t107 11.5q154 0 265.5 -101.5t111.5 -238.5q0 -105 -71 -198t-187 -158l176 -197l111 156
q7 9 20.5 30.5t20.5 30.5h278v-61l-256 -359l66 -69q59 -53 110 -53q98 0 168 75l105 -202q-134 -134 -291 -134q-167 0 -309 142zM827 342l-254 287q-86 -31 -143 -90t-57 -131q0 -79 65 -130t162 -51q129 0 227 115zM559 1102q0 -66 96 -172q142 87 142 176q0 47 -29.5 83
t-85.5 36q-53 0 -88 -36t-35 -87z" />
    <glyph glyph-name="quotesingle" unicode="'" horiz-adv-x="505" 
d="M410 1456l-66 -588h-182l-66 588h314z" />
    <glyph glyph-name="parenleft" unicode="(" horiz-adv-x="710" 
d="M383 551q0 -146 30 -298.5t77 -275.5t93.5 -214.5t90.5 -153.5l-195 -113q-42 44 -90.5 111.5t-105 172.5t-102 220t-75.5 261.5t-30 289.5q0 144 30.5 291t75.5 262.5t101.5 220.5t105 172t90.5 111l195 -113q-44 -62 -90.5 -153.5t-93.5 -215t-77 -276t-30 -299.5z" />
    <glyph glyph-name="parenright" unicode=")" horiz-adv-x="710" 
d="M328 551q0 147 -30 299.5t-77 276t-93.5 215t-90.5 153.5l194 113q55 -57 117.5 -152.5t130 -232t112 -315.5t44.5 -357q0 -143 -30.5 -289.5t-75.5 -261.5t-102 -220t-105.5 -172.5t-90.5 -111.5l-194 113q44 62 90.5 153.5t93.5 214.5t77 275.5t30 298.5z" />
    <glyph glyph-name="asterisk" unicode="*" horiz-adv-x="937" 
d="M317 721l-155 119l168 207l-258 73l63 191l248 -99l-16 269h204l-18 -267l252 97l59 -191l-256 -69l170 -213l-160 -113l-145 221z" />
    <glyph glyph-name="plus" unicode="+" horiz-adv-x="1150" 
d="M707 141h-261v375h-378v238h378v374h261v-374h376v-238h-376v-375z" />
    <glyph glyph-name="comma" unicode="," horiz-adv-x="538" 
d="M117 -332l-68 113q78 28 140.5 99t62.5 136q-63 -4 -110.5 44.5t-47.5 105.5q-5 70 41 118t133 48q49 0 85 -21t53.5 -54t25.5 -64t8 -60q0 -88 -40 -183.5t-116 -174.5t-167 -107z" />
    <glyph glyph-name="hyphen" unicode="-" horiz-adv-x="976" 
d="M123 520v246h731v-246h-731z" />
    <glyph glyph-name="period" unicode="." horiz-adv-x="569" 
d="M92 154q0 78 54.5 129t138.5 51q82 0 138 -51t56 -129q0 -75 -56 -126t-138 -51q-84 0 -138.5 50.5t-54.5 126.5z" />
    <glyph glyph-name="slash" unicode="/" horiz-adv-x="1134" 
d="M1085 1513l-788 -1587h-248l787 1587h249z" />
    <glyph glyph-name="zero" unicode="0" horiz-adv-x="1449" 
d="M1364 717q0 -153 -45.5 -287.5t-127 -234t-203 -157.5t-265.5 -58q-145 0 -266 58t-201.5 157.5t-125 234t-44.5 287.5q0 154 44.5 288.5t125 234.5t201.5 158t266 58q144 0 265.5 -58t203 -158t127 -235t45.5 -288zM1059 717q0 208 -92.5 349.5t-243.5 141.5
q-101 0 -177.5 -66.5t-115.5 -177.5t-39 -247t39 -246.5t115.5 -177t177.5 -66.5q151 0 243.5 141t92.5 349z" />
    <glyph glyph-name="one" unicode="1" horiz-adv-x="841" 
d="M92 963l-78 239l518 232h175v-1434h-312v1077q-50 -21 -158 -59.5t-145 -54.5z" />
    <glyph glyph-name="two" unicode="2" horiz-adv-x="1259" 
d="M838 489l-293 -249q98 12 223 12h410v-252h-1051l-31 188l545 502q193 172 193 303q0 96 -60.5 149.5t-165.5 53.5q-54 0 -96.5 -14.5t-68 -37t-42 -53t-22.5 -59t-6 -57.5h-299q0 49 12 101t37 107t68.5 103t100.5 86.5t138.5 61t177.5 22.5q237 0 382 -124.5
t145 -336.5q0 -79 -25.5 -154.5t-73 -140t-93 -112.5t-105.5 -99z" />
    <glyph glyph-name="three" unicode="3" horiz-adv-x="1267" 
d="M573 236q125 0 210 75.5t85 171.5q0 103 -75.5 168.5t-178.5 65.5q-95 0 -190 -39l-119 160l410 344h-588v252h1010v-181l-387 -325q113 -11 212 -75t158.5 -162.5t59.5 -205.5q0 -102 -42.5 -194t-119.5 -162t-193.5 -111t-255.5 -41q-337 0 -524 173l152 194
q114 -66 202.5 -87t173.5 -21z" />
    <glyph glyph-name="four" unicode="4" horiz-adv-x="1351" 
d="M385 614h322v369zM707 358h-670v187l770 889h211v-820h285v-256h-285v-358h-311v358z" />
    <glyph glyph-name="five" unicode="5" horiz-adv-x="1265" 
d="M590 236q139 0 219 75t80 183q0 88 -72 154.5t-194 66.5q-79 0 -159 -26.5t-132 -78.5l-207 82l47 742h926v-252h-656l-20 -303h10q100 75 275 75q129 0 242.5 -61.5t182 -168t68.5 -230.5q0 -233 -159 -375t-439 -142q-347 0 -534 173l151 194q187 -108 371 -108z" />
    <glyph glyph-name="six" unicode="6" horiz-adv-x="1333" 
d="M733 1192q-54 0 -108.5 -23.5t-103 -68t-81.5 -120t-39 -169.5h9q52 63 136.5 103t180.5 40q97 0 190.5 -33.5t168.5 -93t121 -153t46 -203.5q0 -215 -157.5 -354.5t-407.5 -139.5q-182 0 -318.5 89.5t-209 249.5t-72.5 368q0 162 40.5 301.5t118 245t199.5 165.5t275 60
q151 0 283 -55t217 -156l-187 -170q-112 117 -301 117zM686 713q-131 0 -198.5 -66.5t-67.5 -161.5q0 -99 70.5 -174t189.5 -75q107 0 185.5 68.5t78.5 168.5q0 108 -69 174t-189 66z" />
    <glyph glyph-name="seven" unicode="7" horiz-adv-x="1150" 
d="M53 1182v252h1075v-189l-651 -1245h-350l635 1182h-709z" />
    <glyph glyph-name="eight" unicode="8" horiz-adv-x="1351" 
d="M674 856h4q108 0 163.5 57t55.5 129q0 69 -60 115.5t-161 46.5t-161 -46.5t-60 -115.5q0 -72 55.5 -129t163.5 -57zM684 643q-139 4 -213 -57t-74 -148t76.5 -143.5t202.5 -56.5t202 56.5t76 143.5q0 85 -69.5 145t-200.5 60zM676 -23q-264 0 -428 124.5t-164 336.5
q0 99 72 196.5t182 133.5q-86 33 -141.5 112.5t-55.5 161.5q0 189 149 301.5t386 112.5t385.5 -112.5t148.5 -301.5q0 -82 -55 -161.5t-141 -112.5q110 -36 182 -133.5t72 -196.5q0 -212 -164 -336.5t-428 -124.5z" />
    <glyph glyph-name="nine" unicode="9" horiz-adv-x="1333" 
d="M600 242q54 0 108.5 23.5t103 68t81.5 120t39 169.5h-8q-42 -62 -130.5 -103t-187.5 -41q-97 0 -190.5 33.5t-168.5 93.5t-121 153.5t-46 203.5q0 215 157.5 354t407.5 139q274 0 437 -195t163 -511q0 -162 -40.5 -301.5t-118 -245t-199.5 -166t-275 -60.5
q-151 0 -282.5 54.5t-216.5 156.5l186 170q112 -116 301 -116zM647 721q131 0 198.5 66t67.5 161q0 99 -70.5 174.5t-189.5 75.5q-107 0 -185.5 -68.5t-78.5 -168.5q0 -108 69 -174t189 -66z" />
    <glyph glyph-name="colon" unicode=":" horiz-adv-x="630" 
d="M123 154q0 78 54 129t138 51q82 0 138.5 -51.5t56.5 -128.5q0 -75 -56.5 -126t-138.5 -51q-84 0 -138 50.5t-54 126.5zM123 893q0 78 54 129t138 51q82 0 138.5 -51.5t56.5 -128.5q0 -75 -56.5 -125.5t-138.5 -50.5q-84 0 -138 50t-54 126z" />
    <glyph glyph-name="semicolon" unicode=";" horiz-adv-x="618" 
d="M158 -319l-68 112q82 31 143.5 95t61.5 132q-68 -4 -118 47t-50 113q-5 74 43.5 125t140.5 51q52 0 90 -22.5t57 -57.5t27.5 -68t8.5 -63q0 -92 -43.5 -188.5t-122 -171.5t-170.5 -104zM115 893q0 78 54 129t138 51q82 0 138.5 -51.5t56.5 -128.5q0 -75 -56.5 -125.5
t-138.5 -50.5q-84 0 -138 50t-54 126z" />
    <glyph glyph-name="less" unicode="&#x3c;" horiz-adv-x="1210" 
d="M66 684l991 426h41v-274l-680 -265l680 -264v-274h-41l-991 426v225z" />
    <glyph glyph-name="equal" unicode="=" horiz-adv-x="1265" 
d="M1141 260h-1016v246h1016v-246zM1141 803h-1016v246h1016v-246z" />
    <glyph glyph-name="greater" unicode="&#x3e;" horiz-adv-x="1210" 
d="M154 1110l991 -426v-225l-991 -426h-41v274l680 264l-680 265v274h41z" />
    <glyph glyph-name="question" unicode="?" horiz-adv-x="1103" 
d="M643 477h-285q0 47 1.5 72t9 58.5t23 56.5t44.5 50t72 54q119 75 170 130.5t51 133.5q0 76 -53.5 120t-132.5 44q-76 0 -129.5 -40t-53.5 -109q0 -38 27 -103h-291q-28 53 -28 133q0 65 29.5 130t85 121.5t149.5 92t211 35.5q217 0 354 -114.5t137 -303.5
q0 -136 -84.5 -243t-275.5 -226q-31 -18 -31 -73v-19zM309 154q0 78 54.5 129t138.5 51q82 0 138 -51t56 -129q0 -75 -56 -126t-138 -51q-84 0 -138.5 50.5t-54.5 126.5z" />
    <glyph glyph-name="at" unicode="@" horiz-adv-x="2070" 
d="M1546 123q115 5 182.5 117.5t67.5 337.5q0 155 -55 288.5t-153.5 228.5t-239.5 149t-308 54q-221 0 -399 -104.5t-277.5 -286.5t-99.5 -405t92.5 -403t262.5 -284t387 -104q238 0 409 82l82 -158q-104 -50 -235 -78t-256 -28q-205 0 -379.5 74t-295 203.5t-188 309
t-67.5 386.5q0 208 73 390t200 311t306 203.5t385 74.5q208 0 384.5 -67t299.5 -185.5t192 -286t69 -364.5q0 -165 -32.5 -287t-92.5 -194.5t-138 -107t-176 -34.5q-138 0 -202.5 58.5t-75.5 166.5q-52 -70 -140 -107.5t-180 -37.5q-127 0 -228 63.5t-155.5 169.5t-54.5 234
t54.5 234t156.5 169.5t233 63.5q190 0 299 -135v114h201v-717q0 -56 25.5 -82t66.5 -26zM711 502q0 -122 74 -204.5t196 -82.5q119 0 194.5 77t75.5 206t-75 209.5t-199 80.5q-125 0 -195.5 -81.5t-70.5 -204.5z" />
    <glyph glyph-name="A" unicode="A" horiz-adv-x="1443" 
d="M340 0h-328l553 1434h309l562 -1434h-332l-103 268v-4h-563v4zM721 1098l-197 -574h387z" />
    <glyph glyph-name="B" unicode="B" horiz-adv-x="1355" 
d="M1212 1042q0 -96 -60 -177.5t-173 -121.5q126 -24 212.5 -125.5t86.5 -214.5q0 -182 -140 -292.5t-368 -110.5h-600v1436l539 -2q221 0 362 -106t141 -286zM653 610h-166v-358h283q81 0 133.5 43.5t52.5 114.5q0 33 -6 59t-25 53.5t-51 45.5t-88.5 30t-132.5 12zM487 831
h131q80 0 136 17t84.5 47t40.5 62t12 71q0 74 -52.5 114t-129.5 40h-222v-351z" />
    <glyph glyph-name="C" unicode="C" horiz-adv-x="1421" 
d="M80 717q0 150 55.5 284t155 235t249 160.5t326.5 59.5q157 0 276 -45t238 -135l-131 -242q-88 68 -177.5 104t-203.5 36q-213 0 -340 -130.5t-127 -326.5t127 -326.5t340 -130.5q114 0 204 36t177 103l131 -241q-120 -90 -238.5 -135.5t-275.5 -45.5q-177 0 -326.5 59.5
t-249 161t-155 235.5t-55.5 284z" />
    <glyph glyph-name="D" unicode="D" horiz-adv-x="1550" 
d="M1149 717q0 197 -121.5 331t-320.5 134h-220v-930h220q199 0 320.5 134t121.5 331zM1468 717q0 -148 -53.5 -278.5t-150.5 -228t-241 -154t-316 -56.5h-537v1434h537q172 0 316 -56.5t241 -154t150.5 -228t53.5 -278.5z" />
    <glyph glyph-name="E" unicode="E" 
d="M1122 0h-952v1434h952v-252h-635v-353h551v-251h-551v-326h635v-252z" />
    <glyph glyph-name="F" unicode="F" horiz-adv-x="1198" 
d="M487 0h-317v1434h952v-252h-635v-353h551v-251h-551v-578z" />
    <glyph glyph-name="G" unicode="G" horiz-adv-x="1503" 
d="M80 717q0 150 54 284t152 235t245 160.5t323 59.5q155 0 276 -46t240 -138l-158 -236q-68 54 -159.5 91.5t-188.5 37.5q-101 0 -182.5 -27.5t-133.5 -72.5t-87 -105t-49.5 -121t-14.5 -126q0 -194 124.5 -319.5t318.5 -125.5q159 0 264 54v204h-363v254h660v-583
q-247 -220 -559 -220q-162 0 -304.5 59t-242 158.5t-157.5 236t-58 286.5z" />
    <glyph glyph-name="H" unicode="H" horiz-adv-x="1519" 
d="M1350 0h-318v559h-545v-559h-317v1434h317v-623h545v623h318v-1434z" />
    <glyph glyph-name="I" unicode="I" horiz-adv-x="657" 
d="M487 1434v-1434h-317v1434h317z" />
    <glyph glyph-name="J" unicode="J" horiz-adv-x="1351" 
d="M1200 1436v-803q0 -327 -153 -491.5t-443 -164.5q-118 0 -214 31t-158 81t-104 117t-59.5 135.5t-17.5 139.5q0 139 72 240h293q-64 -103 -64 -217q0 -48 14 -92.5t42 -83t77.5 -61.5t114.5 -23q154 0 218.5 95t64.5 294v803h317z" />
    <glyph glyph-name="K" unicode="K" horiz-adv-x="1359" 
d="M481 659v-4v-655h-313v1434h313v-658l424 658h326v-41l-447 -662l181 -317q65 -110 100.5 -139t99.5 -29q39 0 101 35l114 -226q-122 -78 -276 -78q-255 0 -404 291z" />
    <glyph glyph-name="L" unicode="L" horiz-adv-x="1177" 
d="M487 252h650v-252h-967v1434h317v-1182z" />
    <glyph glyph-name="M" unicode="M" horiz-adv-x="1921" 
d="M1063 16h-205l-358 856l-76 -872h-318l134 1434h319l402 -965l401 965h319l134 -1434h-318l-76 872z" />
    <glyph glyph-name="N" unicode="N" horiz-adv-x="1529" 
d="M1118 0l-633 872v-870h-317v1432h244l630 -865v865h318v-1434h-242z" />
    <glyph glyph-name="O" unicode="O" horiz-adv-x="1648" 
d="M80 717q0 150 59 287t158.5 236t237.5 157.5t290 58.5q202 0 373 -99t271 -269t100 -371q0 -150 -59 -287t-158.5 -236.5t-237.5 -158t-289 -58.5q-152 0 -290 58.5t-237.5 158t-158.5 236.5t-59 287zM393 717q0 -194 125.5 -321.5t306.5 -127.5t305.5 127.5t124.5 321.5
t-124.5 321t-305.5 127t-306.5 -127t-125.5 -321z" />
    <glyph glyph-name="P" unicode="P" horiz-adv-x="1318" 
d="M487 0h-317v1434h629q143 0 249.5 -65.5t159 -170.5t52.5 -233q0 -198 -123.5 -328.5t-337.5 -130.5h-312v-506zM487 756h271q85 0 133.5 58.5t48.5 152.5q0 98 -48.5 156.5t-133.5 58.5h-271v-426z" />
    <glyph glyph-name="Q" unicode="Q" horiz-adv-x="1652" 
d="M395 717q0 -194 125.5 -321.5t306.5 -127.5t305.5 127.5t124.5 321.5t-124.5 321t-305.5 127t-306.5 -127t-125.5 -321zM1440 -86l98 -223q-168 -113 -360 -113q-205 0 -337.5 119t-140.5 291q-129 25 -243 91.5t-198 161.5t-132.5 219t-48.5 257q0 150 59.5 287t160 236
t239 157.5t290.5 58.5q202 0 374 -99t273 -269.5t101 -370.5q0 -166 -77.5 -317.5t-208 -256t-288.5 -145.5q4 -79 58 -119.5t143 -40.5q49 0 117.5 21t120.5 55z" />
    <glyph glyph-name="R" unicode="R" horiz-adv-x="1443" 
d="M483 764h281q85 0 132.5 54.5t47.5 146.5q0 93 -47.5 147.5t-132.5 54.5h-281v-403zM1262 963q0 -154 -81.5 -270.5t-222.5 -160.5q16 -64 34 -109t45.5 -85t67 -60t91.5 -20q84 0 145 61l113 -219q-79 -63 -148 -93t-171 -30q-97 0 -176.5 41.5t-128.5 101.5
t-84.5 136.5t-50.5 138t-21 115.5h-191v-510h-315v1434h637q143 0 248.5 -65.5t157 -171t51.5 -234.5z" />
    <glyph glyph-name="S" unicode="S" horiz-adv-x="1206" 
d="M57 399l283 56q60 -197 260 -197q94 0 154.5 36.5t60.5 111.5q0 46 -35.5 83t-130.5 70l-155 53q-91 31 -159.5 75t-106.5 87.5t-61.5 94t-30.5 89.5t-7 80q0 191 134.5 304.5t348.5 113.5q167 0 291 -79.5t189 -233.5l-258 -129q-66 162 -222 162q-79 0 -126.5 -33
t-47.5 -101q0 -99 154 -153l151 -53q92 -28 162 -69.5t110.5 -84.5t66 -93.5t34 -92t8.5 -84.5q0 -109 -44.5 -194.5t-118.5 -136.5t-163.5 -77.5t-187.5 -26.5q-138 0 -257.5 49t-201 146.5t-94.5 226.5z" />
    <glyph glyph-name="T" unicode="T" horiz-adv-x="1222" 
d="M49 1434h1125v-267h-408v-1167h-313v1167h-404v267z" />
    <glyph glyph-name="U" unicode="U" horiz-adv-x="1492" 
d="M1022 1434h317v-891q0 -135 -47.5 -243.5t-129 -178.5t-188.5 -107t-229 -37t-228.5 37t-187.5 107t-128 178.5t-47 243.5v891h317v-891q0 -143 78.5 -221t195.5 -78t197 78.5t80 220.5v891z" />
    <glyph glyph-name="V" unicode="V" horiz-adv-x="1384" 
d="M545 0l-506 1434h336l317 -1018l318 1018h336l-508 -1434h-293z" />
    <glyph glyph-name="W" unicode="W" horiz-adv-x="2039" 
d="M1139 1386l262 -831l268 879h324l-451 -1434h-252l-270 868l-270 -868h-252l-451 1434h324l268 -879l264 831h236z" />
    <glyph glyph-name="X" unicode="X" horiz-adv-x="1404" 
d="M702 500l-321 -500h-373v41l514 717l-469 635v41h371l278 -426l279 426h371v-41l-469 -635l514 -717v-41h-373z" />
    <glyph glyph-name="Y" unicode="Y" horiz-adv-x="1492" 
d="M745 874h3l339 560h369v-41l-551 -805v-588h-317v584l-551 809v41h369z" />
    <glyph glyph-name="Z" unicode="Z" horiz-adv-x="1376" 
d="M1313 252v-252h-1254v205l777 977h-717v252h1143v-207l-783 -975h834z" />
    <glyph glyph-name="bracketleft" unicode="[" horiz-adv-x="821" 
d="M135 -479v2015h633v-242h-338v-1532h338v-241h-633z" />
    <glyph glyph-name="backslash" unicode="\" horiz-adv-x="1134" 
d="M838 -74l-789 1587h250l786 -1587h-247z" />
    <glyph glyph-name="bracketright" unicode="]" horiz-adv-x="821" 
d="M686 1536v-2015h-633v241h338v1532h-338v242h633z" />
    <glyph glyph-name="asciicircum" unicode="^" horiz-adv-x="1136" 
d="M1065 670h-277l-219 483q-34 -67 -112.5 -245.5t-108.5 -237.5h-274l383 764h227z" />
    <glyph glyph-name="underscore" unicode="_" horiz-adv-x="1472" 
d="M0 -371v246h1473v-246h-1473z" />
    <glyph glyph-name="grave" unicode="`" horiz-adv-x="1150" 
d="M264 1536h322l202 -354h-221z" />
    <glyph glyph-name="a" unicode="a" horiz-adv-x="1347" 
d="M375 528q0 -131 73 -217t197 -86q118 0 196.5 75.5t78.5 211.5q0 145 -78 229t-205 84q-122 0 -192 -85t-70 -212zM911 1051h306v-1051h-306v154q-61 -87 -139 -132t-190 -45q-155 0 -273 74.5t-178.5 199.5t-60.5 279q0 112 33.5 209.5t95.5 172.5t159 118t217 43
q102 0 191 -45.5t145 -120.5v144z" />
    <glyph glyph-name="b" unicode="b" horiz-adv-x="1347" 
d="M1278 530q0 -154 -60.5 -279t-178.5 -199.5t-273 -74.5q-112 0 -191 45t-139 132v-154h-305v1481h305v-574q56 75 145 120.5t191 45.5q159 0 275.5 -75t173.5 -196.5t57 -271.5zM973 528q0 127 -70 212t-192 85q-127 0 -205 -84t-78 -229q0 -136 78 -211.5t196 -75.5
q124 0 197.5 86t73.5 217z" />
    <glyph glyph-name="c" unicode="c" horiz-adv-x="1130" 
d="M66 526q0 238 161 392.5t426 154.5q220 0 430 -155l-139 -224q-67 60 -142 82.5t-134 22.5q-134 0 -215.5 -75.5t-81.5 -197.5t81.5 -197t215.5 -75q161 0 276 104l139 -223q-210 -155 -430 -155q-176 0 -310.5 71.5t-205.5 195.5t-71 279z" />
    <glyph glyph-name="d" unicode="d" horiz-adv-x="1349" 
d="M375 528q0 -131 73 -217t197 -86q118 0 196.5 75.5t78.5 211.5q0 145 -78 229t-205 84q-122 0 -192 -85t-70 -212zM911 1481h306v-1481h-306v154q-61 -87 -139 -132t-190 -45q-155 0 -273 74.5t-178.5 199.5t-60.5 279q0 112 33.5 209.5t95.5 172.5t159 118t217 43
q102 0 191 -45.5t145 -120.5v574z" />
    <glyph glyph-name="e" unicode="e" horiz-adv-x="1261" 
d="M641 825q-54 0 -104 -16t-97 -60t-65 -110h526q-9 63 -53.5 107t-97.5 61.5t-109 17.5zM981 352l176 -168q-53 -59 -117.5 -101t-130.5 -64t-124.5 -32t-116.5 -10q-142 0 -257.5 42.5t-190 117t-114.5 172.5t-40 211q0 153 73.5 279.5t206.5 200t299 73.5
q88 0 170 -23.5t155 -74t127 -122t85.5 -174t31.5 -224.5h-845q5 -101 91 -164.5t230 -63.5q79 0 156 34.5t135 90.5z" />
    <glyph glyph-name="f" unicode="f" horiz-adv-x="821" 
d="M512 1161v-119h236v-231h-236v-811h-305v811h-148v231h148v70q0 110 30 189t83 121.5t114.5 61.5t136.5 19q89 0 156.5 -26.5t105.5 -72t56 -99.5t18 -115q0 -34 -10 -57h-235q8 8 8 34q0 41 -19.5 67t-60.5 26t-59.5 -29t-18.5 -70z" />
    <glyph glyph-name="g" unicode="g" horiz-adv-x="1349" 
d="M375 528q0 -131 73 -217t197 -86q118 0 196.5 75.5t78.5 211.5q0 145 -78 229t-205 84q-122 0 -192 -85t-70 -212zM1217 1051v-977q0 -121 -31 -219t-83.5 -163.5t-126 -110t-155.5 -64t-174 -19.5q-321 0 -497 146l120 237q48 -43 142 -81t174 -38q325 0 325 277v115
q-61 -87 -139 -132t-190 -45q-155 0 -273 74.5t-178.5 199.5t-60.5 279q0 112 33.5 209.5t95.5 172.5t159 118t217 43q102 0 191 -45.5t145 -120.5v144h306z" />
    <glyph glyph-name="h" unicode="h" horiz-adv-x="1257" 
d="M133 0v1481h305v-574q119 166 326 166q375 0 375 -502v-571h-305v565q0 117 -47.5 186.5t-147.5 69.5q-101 0 -151 -71t-50 -187v-563h-305z" />
    <glyph glyph-name="i" unicode="i" horiz-adv-x="575" 
d="M440 0h-305v1051h305v-1051zM98 1329q0 78 54 126t139 48q83 0 138.5 -48.5t55.5 -125.5q0 -74 -55.5 -122t-138.5 -48q-85 0 -139 47.5t-54 122.5z" />
    <glyph glyph-name="j" unicode="j" horiz-adv-x="655" 
d="M215 -160v1211h305v-1162q0 -110 -30 -189t-83 -121.5t-114.5 -61.5t-136.5 -19q-89 0 -158.5 27t-110.5 72t-61.5 99.5t-20.5 115.5q0 31 13 57h241q-2 -8 -2 -35q0 -40 19.5 -66t60.5 -26t59.5 28.5t18.5 69.5zM176 1329q0 78 54 126t139 48q83 0 138.5 -48.5
t55.5 -125.5q0 -74 -55.5 -122t-138.5 -48q-85 0 -139 47.5t-54 122.5z" />
    <glyph glyph-name="k" unicode="k" horiz-adv-x="1222" 
d="M434 625l299 426h338v-41l-348 -439l137 -219q35 -53 67 -73.5t77 -20.5q59 0 112 37l115 -215q-118 -103 -275 -103q-98 0 -174.5 36.5t-136.5 123.5l-211 340v-477h-305v1481h305v-856z" />
    <glyph glyph-name="l" unicode="l" horiz-adv-x="575" 
d="M440 0h-305v1481h305v-1481z" />
    <glyph glyph-name="m" unicode="m" horiz-adv-x="1863" 
d="M1264 821q-174 0 -174 -258v-563h-304v565q0 256 -176 256q-174 0 -174 -258v-563h-305v1051h305v-144q109 166 281 166q230 0 321 -176q94 176 332 176q375 0 375 -502v-571h-305v565q0 256 -176 256z" />
    <glyph glyph-name="n" unicode="n" horiz-adv-x="1255" 
d="M131 0v1051h305v-144q119 166 326 166q375 0 375 -502v-571h-306v565q0 117 -47 186.5t-147 69.5q-101 0 -151 -71t-50 -187v-563h-305z" />
    <glyph glyph-name="o" unicode="o" horiz-adv-x="1286" 
d="M66 526q0 120 47.5 223.5t126.5 173.5t184 110t219 40t219 -40t184.5 -110.5t127 -174t47.5 -222.5q0 -120 -47.5 -223.5t-127 -174.5t-184.5 -111t-219 -40q-153 0 -284 67.5t-212 194.5t-81 287zM362 526q0 -122 83 -204t198 -82q117 0 199 82t82 204q0 120 -82 202.5
t-199 82.5q-115 0 -198 -82t-83 -203z" />
    <glyph glyph-name="p" unicode="p" horiz-adv-x="1347" 
d="M973 522q0 131 -73.5 217t-197.5 86q-118 0 -196 -75t-78 -211q0 -145 78 -229.5t205 -84.5q122 0 192 85t70 212zM436 -479h-305v1530h305v-154q60 86 139 131t191 45q155 0 273 -74.5t178.5 -199.5t60.5 -279q0 -150 -57 -271.5t-173.5 -196.5t-275.5 -75
q-102 0 -191 45.5t-145 120.5v-622z" />
    <glyph glyph-name="q" unicode="q" horiz-adv-x="1347" 
d="M375 522q0 -127 70 -212t192 -85q127 0 205 84.5t78 229.5q0 135 -78.5 210.5t-196.5 75.5q-124 0 -197 -86t-73 -217zM1217 -479h-306v622q-56 -75 -145 -120.5t-191 -45.5q-120 0 -217 43t-159 118t-95.5 172.5t-33.5 209.5q0 154 60.5 279t178.5 199.5t273 74.5
q112 0 190.5 -44.5t138.5 -131.5v154h306v-1530z" />
    <glyph glyph-name="r" unicode="r" horiz-adv-x="821" 
d="M428 1051v-230q12 67 46 118.5t78 79t86 41t79 13.5q34 0 78 -8v-301q-60 14 -129 14q-94 0 -162 -54.5t-68 -152.5v-571h-305v1051h297z" />
    <glyph glyph-name="s" unicode="s" horiz-adv-x="985" 
d="M49 246l221 125q23 -83 85 -120.5t137 -37.5q56 0 96.5 20.5t40.5 59.5q0 26 -17.5 44.5t-60.5 35.5l-184 78q-71 24 -123 60t-78 69t-41 71t-18 59.5t-3 41.5q0 102 57 176t149 109.5t206 35.5q265 0 379 -221l-236 -109q-35 101 -149 101q-46 0 -81.5 -23.5
t-35.5 -62.5q0 -32 24 -50.5t75 -39.5l157 -62q71 -20 123.5 -52.5t79.5 -64.5t43.5 -70.5t20.5 -64t4 -51.5q0 -154 -124 -240t-307 -86q-65 0 -126 12t-124.5 40t-113.5 83.5t-76 133.5z" />
    <glyph glyph-name="t" unicode="t" horiz-adv-x="937" 
d="M508 1309v-258h291v-240h-291v-492q0 -40 18.5 -66t59.5 -26t60.5 28.5t19.5 70.5q0 50 -15 90h242q25 -54 25 -125q0 -61 -20.5 -115.5t-61.5 -99.5t-110.5 -72t-158.5 -27q-60 0 -109.5 9t-98.5 34.5t-82 66t-53.5 107t-20.5 154.5v463h-158v240h180l47 258h236z" />
    <glyph glyph-name="u" unicode="u" horiz-adv-x="1257" 
d="M1124 1051v-1051h-305v143q-119 -166 -325 -166q-375 0 -375 502v572h305v-566q0 -117 47 -186.5t147 -69.5q101 0 151 71t50 187v564h305z" />
    <glyph glyph-name="v" unicode="v" horiz-adv-x="1226" 
d="M1204 1051l-438 -1051h-303l-440 1051h333l256 -709l258 709h334z" />
    <glyph glyph-name="w" unicode="w" horiz-adv-x="1699" 
d="M553 418l190 604h213l191 -604l182 633h336l-82 -240l-293 -811h-260l-180 596l-180 -596h-260l-293 811l-82 240h336z" />
    <glyph glyph-name="x" unicode="x" horiz-adv-x="1224" 
d="M864 0l-252 330l-252 -330h-348v41l418 502l-379 473v35h357l204 -289l205 289h357v-35l-379 -473l417 -502v-41h-348z" />
    <glyph glyph-name="y" unicode="y" 
d="M616 393l250 658h336l-680 -1530h-307l240 567l-432 963h344z" />
    <glyph glyph-name="z" unicode="z" horiz-adv-x="1198" 
d="M1133 244v-244h-1067v178l589 633h-561v240h1004v-181l-588 -626h623z" />
    <glyph glyph-name="braceleft" unicode="{" horiz-adv-x="780" 
d="M387 539v-33q148 -41 148 -176q0 -60 -30.5 -148t-61.5 -179t-31 -157q0 -143 135 -143q41 0 178 16v-194q-162 -17 -221 -17q-75 0 -140.5 18.5t-118 55t-83.5 98.5t-31 142q0 105 78 348q0 1 11.5 31t17 46t15 44t13.5 49t4 37q0 15 -28 22l-170 39v168l170 39
q28 7 28 23q0 19 -8 50.5t-16 54.5t-21.5 59t-15.5 42q-78 243 -78 349t54 178.5t136 103.5t183 31q69 0 221 -16v-195q-137 16 -178 16q-135 0 -135 -143q0 -53 19 -122t42.5 -124.5t42.5 -122t19 -114.5q0 -135 -148 -176z" />
    <glyph glyph-name="bar" unicode="|" horiz-adv-x="446" 
d="M311 -479h-176v2035h176v-2035z" />
    <glyph glyph-name="braceright" unicode="}" horiz-adv-x="780" 
d="M393 506v33q-147 40 -147 176q0 48 19 114.5t42.5 122t42.5 124.5t19 122q0 143 -136 143q-43 0 -178 -16v195q152 16 221 16q101 0 183 -31t136 -103.5t54 -178.5t-78 -349q-2 -6 -15.5 -42t-21.5 -59t-16 -54.5t-8 -50.5q0 -16 29 -23l170 -39v-168l-170 -39
q-29 -7 -29 -22q0 -16 4 -37t13.5 -49t15 -44t17 -46t11.5 -31q78 -243 78 -348q0 -80 -31 -142t-83.5 -98.5t-118 -55t-140.5 -18.5q-59 0 -221 17v194q135 -16 178 -16q136 0 136 143q0 53 -19 122t-42.5 125t-42.5 122.5t-19 114.5q0 136 147 176z" />
    <glyph glyph-name="asciitilde" unicode="~" horiz-adv-x="1167" 
d="M952 788l117 -163q-35 -87 -112.5 -140t-170.5 -53q-56 0 -112 21t-94.5 45.5t-90 45.5t-100.5 21q-56 0 -103 -28.5t-73 -81.5l-113 170q28 77 104.5 131.5t172.5 54.5q62 0 122.5 -21t100 -46.5t87 -46.5t87.5 -21q111 0 178 112z" />
    <glyph glyph-name="uni00A0" unicode="&#xa0;" horiz-adv-x="499" 
 />
    <glyph glyph-name="exclamdown" unicode="&#xa1;" horiz-adv-x="579" 
d="M475 -324l-74 895h-223l-74 -895v-59h371v59zM96 897q0 76 54.5 126t138.5 50q82 0 138 -50.5t56 -125.5q0 -78 -56 -129t-138 -51q-84 0 -138.5 51t-54.5 129z" />
    <glyph glyph-name="cent" unicode="&#xa2;" horiz-adv-x="1169" 
d="M78 526q0 114 40.5 213.5t113.5 172.5t181.5 116t237.5 45l33 180h158l-37 -196q141 -30 291 -139l-140 -224q-90 78 -198 97l-99 -537h21q161 0 276 104l140 -223q-210 -155 -430 -155q-9 0 -28 1t-28 1l-35 -191h-155l39 217q-179 54 -280 192.5t-101 325.5zM383 526
q0 -156 127 -231l90 496q-100 -23 -158.5 -94.5t-58.5 -170.5z" />
    <glyph glyph-name="sterling" unicode="&#xa3;" horiz-adv-x="1304" 
d="M967 569h-305q27 -85 3.5 -170t-94.5 -147v-16q53 6 153 11t132 5h369v-252h-1151v252q75 6 131 19.5t91 30.5t56 43t29 49.5t7 57t-6 58t-15 59.5h-252v148h192q-82 209 -82 323q0 184 141.5 300t354.5 116q97 0 177 -26.5t133 -69.5t89 -99.5t52 -115t16 -117.5h-287
q0 72 -46 117t-138 45q-89 0 -142 -43.5t-53 -120.5q0 -93 84 -309h361v-148z" />
    <glyph glyph-name="currency" unicode="&#xa4;" horiz-adv-x="1114" 
d="M557 500q67 0 115.5 49.5t48.5 120.5t-48.5 121.5t-115.5 50.5t-115.5 -50.5t-48.5 -121.5t48.5 -120.5t115.5 -49.5zM557 283q-108 0 -188 45l-133 -131l-152 155l129 127q-47 83 -47 193q0 97 45 180l-121 125l156 158l116 -123q80 49 195 49t195 -49l116 123l156 -158
l-121 -125q45 -83 45 -180q0 -110 -47 -193l129 -127l-151 -155l-134 131q-80 -45 -188 -45z" />
    <glyph glyph-name="yen" unicode="&#xa5;" horiz-adv-x="1538" 
d="M1276 252h-348v-252h-318v252h-350v158h350v151h-350v158h258l-459 674v41h369l340 -560h2l340 560h369v-41l-461 -674h258v-158h-348v-151h348v-158z" />
    <glyph glyph-name="brokenbar" unicode="&#xa6;" horiz-adv-x="471" 
d="M324 717h-177v839h177v-839zM324 -479h-177v839h177v-839z" />
    <glyph glyph-name="section" unicode="&#xa7;" horiz-adv-x="1232" 
d="M74 -100l110 211q223 -172 441 -172q105 0 162 36.5t57 85.5q0 76 -172 119l-187 47q-100 27 -173.5 70t-113 93t-57.5 98t-18 96q0 73 39.5 139t113.5 115q-151 99 -151 258q0 107 68.5 190.5t179 126.5t239.5 43q233 0 475 -127l-114 -221q-203 104 -350 104
q-87 0 -143 -29.5t-56 -76.5q0 -74 143 -113l181 -45q191 -49 289 -133.5t98 -220.5q0 -75 -32.5 -149.5t-107.5 -120.5q146 -99 146 -252q0 -161 -140 -270t-380 -109q-175 0 -314.5 57t-232.5 150zM858 555q0 39 -28 77.5t-93 53.5l-219 49q-112 -45 -112 -139
q0 -88 124 -119l228 -55q45 19 72.5 55.5t27.5 77.5z" />
    <glyph glyph-name="dieresis" unicode="&#xa8;" horiz-adv-x="1433" 
d="M285 1360q0 72 50 119t128 47q74 0 126 -47.5t52 -118.5q0 -69 -52 -115.5t-126 -46.5q-77 0 -127.5 46.5t-50.5 115.5zM793 1360q0 72 50.5 119t125.5 47q76 0 128 -47.5t52 -118.5q0 -69 -52.5 -115.5t-127.5 -46.5t-125.5 46.5t-50.5 115.5z" />
    <glyph glyph-name="copyright" unicode="&#xa9;" horiz-adv-x="1609" 
d="M414 717q0 162 112 274.5t295 112.5q85 0 150.5 -25.5t132.5 -77.5l-84 -147q-86 68 -197 68q-96 0 -152.5 -58t-56.5 -147t56.5 -147t152.5 -58q112 0 197 68l84 -148q-67 -51 -132 -76.5t-151 -25.5q-183 0 -295 112.5t-112 274.5zM82 717q0 151 56 287.5t151.5 235.5
t230 157.5t285.5 58.5t285.5 -58.5t230 -157.5t151.5 -235.5t56 -287.5q0 -202 -94.5 -371.5t-261 -269t-367.5 -99.5t-367.5 99.5t-261 269t-94.5 371.5zM229 717q0 -161 76 -297t208.5 -215.5t291.5 -79.5t291.5 79.5t208 215.5t75.5 297t-75.5 297t-208 215.5
t-291.5 79.5t-291.5 -79.5t-208.5 -215.5t-76 -297z" />
    <glyph glyph-name="ordfeminine" unicode="&#xaa;" horiz-adv-x="1026" 
d="M879 737h-236v115q-29 -65 -94 -96t-129 -31q-97 0 -167 49.5t-103 129.5t-33 181t33 181t103 130t167 50q64 0 129 -31t94 -96v115h236v-697zM647 1083q0 71 -41.5 112.5t-105.5 41.5q-60 0 -99 -44t-39 -106q0 -64 39 -108.5t99 -44.5q63 0 103 39t44 110zM156 393v164
h706v-164h-706z" />
    <glyph glyph-name="guillemotleft" unicode="&#xab;" horiz-adv-x="1296" 
d="M637 645l407 469l173 -156l-295 -342l292 -337l-170 -158l-407 467v57zM70 645l407 469l172 -156l-295 -342l293 -337l-170 -158l-407 467v57z" />
    <glyph glyph-name="logicalnot" unicode="&#xac;" horiz-adv-x="1275" 
d="M96 731v246h1047l-2 -596h-250v350h-795z" />
    <glyph glyph-name="uni00AD" unicode="&#xad;" horiz-adv-x="1067" 
d="M123 520v246h821v-246h-821z" />
    <glyph glyph-name="registered" unicode="&#xae;" horiz-adv-x="1609" 
d="M725 741h117q31 0 49 27.5t18 65.5t-18 66t-49 28h-117v-187zM1110 834q0 -79 -37.5 -139.5t-105.5 -86.5l155 -235v-37h-198l-146 252h-53v-252h-199v751h336q117 0 182.5 -72.5t65.5 -180.5zM82 717q0 151 56 287.5t151.5 235.5t230 157.5t285.5 58.5t285.5 -58.5
t230 -157.5t151.5 -235.5t56 -287.5q0 -202 -94.5 -371.5t-261 -269t-367.5 -99.5t-367.5 99.5t-261 269t-94.5 371.5zM229 717q0 -161 76 -297t208.5 -215.5t291.5 -79.5t291.5 79.5t208 215.5t75.5 297t-75.5 297t-208 215.5t-291.5 79.5t-291.5 -79.5t-208.5 -215.5
t-76 -297z" />
    <glyph glyph-name="macron" unicode="&#xaf;" horiz-adv-x="1177" 
d="M266 1448h645v-211h-645v211z" />
    <glyph glyph-name="degree" unicode="&#xb0;" horiz-adv-x="851" 
d="M74 1130q0 148 100.5 249.5t251.5 101.5t251.5 -101.5t100.5 -249.5q0 -146 -100.5 -246t-251.5 -100t-251.5 100t-100.5 246zM258 1130q0 -74 45.5 -121.5t122.5 -47.5t122.5 47.5t45.5 121.5q0 75 -46 125t-122 50t-122 -50t-46 -125z" />
    <glyph glyph-name="plusminus" unicode="&#xb1;" horiz-adv-x="1269" 
d="M770 459h-268v274h-375v230h375v272h268v-272h373v-230h-373v-274zM1143 125h-1016v229h1016v-229z" />
    <glyph glyph-name="twosuperior" unicode="&#xb2;" horiz-adv-x="667" 
d="M444 1219l-100 -95q18 4 78 4h186v-151h-534l-19 108l269 254q84 72 84 134q0 37 -22.5 58t-63.5 21q-49 0 -73 -34t-24 -74l-172 2q0 41 14 83.5t43 83.5t84 67t128 26q124 0 198 -62.5t74 -170.5q0 -131 -150 -254z" />
    <glyph glyph-name="threesuperior" unicode="&#xb3;" horiz-adv-x="673" 
d="M307 1112q49 0 85 34t36 73q0 42 -32 71t-77 29q-36 0 -79 -14l-66 90l174 145h-280v150h524v-105l-176 -160q90 -10 147.5 -68t57.5 -136q0 -107 -86.5 -182.5t-227.5 -75.5q-87 0 -149.5 18t-118.5 68l90 114q35 -24 71 -36t55.5 -13.5t51.5 -1.5z" />
    <glyph glyph-name="acute" unicode="&#xb4;" horiz-adv-x="1150" 
d="M467 1536h321l-303 -354h-221z" />
    <glyph glyph-name="mu" unicode="&#xb5;" horiz-adv-x="1251" 
d="M123 -336v1387h305v-566q0 -117 47.5 -186.5t147.5 -69.5q101 0 150.5 71t49.5 187v564h305v-1051h-305v143q-119 -166 -325 -166q-50 0 -90 9v-322h-285z" />
    <glyph glyph-name="paragraph" unicode="&#xb6;" horiz-adv-x="1374" 
d="M403 1434h334v-39q-36 -28 -55.5 -64.5t-19.5 -101.5v-1520h-181v1041h-78q-141 0 -240.5 99.5t-99.5 240.5q0 144 99.5 244t240.5 100zM969 1198v-1489h-178v1497q0 121 75 185.5t187 64.5q126 0 194 -63t68 -164q0 -23 -2 -33q-3 -31 -19 -72h-172q19 50 19 82
q0 39 -25.5 59.5t-60.5 20.5q-37 0 -61.5 -23t-24.5 -65z" />
    <glyph glyph-name="periodcentered" unicode="&#xb7;" horiz-adv-x="595" 
d="M104 573q0 78 54.5 129.5t138.5 51.5q82 0 138.5 -51.5t56.5 -129.5q0 -75 -56.5 -125.5t-138.5 -50.5q-84 0 -138.5 50t-54.5 126z" />
    <glyph glyph-name="cedilla" unicode="&#xb8;" horiz-adv-x="931" 
d="M387 20v41h158q112 -45 166.5 -126.5t54.5 -157.5q0 -67 -28 -116.5t-72.5 -75.5t-89 -38t-87.5 -12q-115 0 -196.5 63.5t-126.5 165.5l156 72q50 -108 129 -108q98 0 98 100q0 17 -5.5 39t-20.5 52.5t-50 58t-86 42.5z" />
    <glyph glyph-name="onesuperior" unicode="&#xb9;" horiz-adv-x="495" 
d="M61 1423l-49 140l295 127h109v-713h-193v512z" />
    <glyph glyph-name="ordmasculine" unicode="&#xba;" horiz-adv-x="1001" 
d="M150 393v164h706v-164h-706zM113 1083q0 149 116.5 256t270.5 107q100 0 189.5 -48.5t143.5 -133t54 -181.5q0 -150 -116.5 -258t-270.5 -108q-101 0 -190 48t-143 133t-54 185zM358 1083q0 -66 39.5 -108.5t102.5 -42.5q60 0 100.5 42.5t40.5 108.5q0 64 -40 107
t-101 43q-62 0 -102 -43t-40 -107z" />
    <glyph glyph-name="guillemotright" unicode="&#xbb;" horiz-adv-x="1296" 
d="M252 1114l407 -469v-57l-407 -467l-170 158l293 337l-295 342zM819 1114l408 -469v-57l-408 -467l-170 158l293 337l-295 342z" />
    <glyph glyph-name="onequarter" unicode="&#xbc;" horiz-adv-x="1744" 
d="M109 1167l-50 140l295 127h109v-713h-193v512zM1464 1505l-1120 -1585h-172l1118 1585h174zM1194 324h158v188zM1341 178h-344v101l353 434h184v-389h141v-146h-141v-178h-193v178z" />
    <glyph glyph-name="onehalf" unicode="&#xbd;" horiz-adv-x="1744" 
d="M109 1167l-50 140l295 127h109v-713h-193v512zM1464 1505l-1120 -1585h-172l1118 1585h174zM1499 242l-100 -95q23 5 78 5h186v-152h-535l-18 109l268 253q84 72 84 134q0 37 -22.5 58t-63.5 21q-49 0 -72.5 -34t-23.5 -74l-172 2q0 32 8 65.5t27.5 69t49 63t77 45
t106.5 17.5q124 0 198.5 -62.5t74.5 -170.5q0 -131 -150 -254z" />
    <glyph glyph-name="threequarters" unicode="&#xbe;" horiz-adv-x="1869" 
d="M1602 1505l-1121 -1585h-172l1118 1585h175zM340 856q49 0 85 34t36 73q0 42 -32 71t-77 29q-37 0 -80 -14l-65 90l174 145h-281v150h525v-105l-176 -160q90 -10 147 -67.5t57 -136.5q0 -107 -86 -182.5t-227 -75.5q-87 0 -149.5 18t-118.5 68l90 114q35 -24 71 -36
t55.5 -13.5t51.5 -1.5zM1323 324h158v188zM1470 178h-344v101l353 434h184v-389h141v-146h-141v-178h-193v178z" />
    <glyph glyph-name="questiondown" unicode="&#xbf;" horiz-adv-x="1085" 
d="M451 573h284q0 -40 -1 -60.5t-5 -50.5t-13.5 -48.5t-25.5 -42t-42 -44.5t-62 -44q-79 -50 -121.5 -84t-71 -80.5t-28.5 -100.5q0 -76 53.5 -119.5t132.5 -43.5q76 0 129 40t53 109q0 40 -26 102h290q29 -55 29 -133q0 -65 -29.5 -130t-85 -121.5t-149.5 -92t-211 -35.5
q-217 0 -354.5 114.5t-137.5 303.5q0 136 85 243t276 226q31 18 31 74v18zM791 897q0 -78 -54.5 -129t-138.5 -51q-82 0 -138.5 51.5t-56.5 128.5q0 75 56.5 125.5t138.5 50.5q84 0 138.5 -50t54.5 -126z" />
    <glyph glyph-name="Agrave" unicode="&#xc0;" horiz-adv-x="1443" 
d="M12 0h328l98 268v-4h563v4l103 -268h332l-562 1434h-309zM524 524l197 574l190 -574h-387zM377 1851h321l179 -315h-222z" />
    <glyph glyph-name="Aacute" unicode="&#xc1;" horiz-adv-x="1443" 
d="M12 0h328l98 268v-4h563v4l103 -268h332l-562 1434h-309zM524 524l197 574l190 -574h-387zM745 1851h322l-279 -315h-221z" />
    <glyph glyph-name="Acircumflex" unicode="&#xc2;" horiz-adv-x="1443" 
d="M12 0h328l98 268v-4h563v4l103 -268h332l-562 1434h-309zM524 524l197 574l190 -574h-387zM571 1851h301l207 -315h-209l-147 162l-148 -162h-208z" />
    <glyph glyph-name="Atilde" unicode="&#xc3;" horiz-adv-x="1443" 
d="M12 0h328l98 268v-4h563v4l103 -268h332l-562 1434h-309zM524 524l197 574l190 -574h-387zM1114 1810q-35 -125 -88 -187t-147 -62q-65 0 -161 34.5t-124 34.5q-41 0 -64 -20.5t-45 -67.5l-153 45q35 125 88 187.5t147 62.5q65 0 161 -35t124 -35q41 0 64 20.5t45 67.5z
" />
    <glyph glyph-name="Adieresis" unicode="&#xc4;" horiz-adv-x="1443" 
d="M12 0h328l98 268v-4h563v4l103 -268h332l-562 1434h-309zM524 524l197 574l190 -574h-387zM295 1692q0 71 47.5 112t126.5 41q76 0 125 -41.5t49 -111.5q0 -68 -49.5 -109t-124.5 -41q-78 0 -126 40.5t-48 109.5zM803 1692q0 71 48 112t124 41q77 0 126.5 -41.5
t49.5 -111.5q0 -68 -50 -109t-126 -41t-124 41t-48 109z" />
    <glyph glyph-name="Aring" unicode="&#xc5;" horiz-adv-x="1443" 
d="M877 1427l559 -1427h-332l-103 268v-4h-563v4l-98 -268h-328l551 1430q-94 64 -94 178q0 102 72.5 165.5t179.5 63.5q109 0 181.5 -63t72.5 -166q0 -116 -98 -181zM721 1098l-197 -574h387zM610 1608q0 -45 30.5 -67.5t80.5 -22.5t80 22.5t30 67.5q0 46 -30.5 71
t-79.5 25t-80 -25t-31 -71z" />
    <glyph glyph-name="AE" unicode="&#xc6;" horiz-adv-x="1865" 
d="M-14 0l762 1434h1021v-252h-573v-375h490v-252h-490v-303h573v-252h-890v537h-277q-46 -95 -283 -537h-333zM717 786h162v334z" />
    <glyph glyph-name="Ccedilla" unicode="&#xc7;" horiz-adv-x="1421" 
d="M938 -20q48 -46 71 -100t23 -103q0 -67 -28 -116.5t-72 -75.5t-88.5 -38t-87.5 -12q-115 0 -197 63.5t-127 165.5l156 72q50 -108 129 -108q98 0 98 100q0 33 -20 78.5t-72 81.5q-196 29 -343.5 135t-223.5 260t-76 334q0 150 55.5 284t155 235t249 160.5t326.5 59.5
q157 0 276 -45t238 -135l-131 -242q-88 68 -177.5 104t-203.5 36q-213 0 -340 -130.5t-127 -326.5t127 -326.5t340 -130.5q114 0 204 36t177 103l131 -241q-110 -80 -211 -124t-231 -54z" />
    <glyph glyph-name="Egrave" unicode="&#xc8;" 
d="M1122 0h-952v1434h952v-252h-635v-353h551v-251h-551v-326h635v-252zM287 1851h321l178 -315h-221z" />
    <glyph glyph-name="Eacute" unicode="&#xc9;" 
d="M1122 0h-952v1434h952v-252h-635v-353h551v-251h-551v-326h635v-252zM608 1851h322l-279 -315h-221z" />
    <glyph glyph-name="Ecircumflex" unicode="&#xca;" 
d="M1122 0h-952v1434h952v-252h-635v-353h551v-251h-551v-326h635v-252zM489 1851h302l206 -315h-209l-147 162l-147 -162h-209z" />
    <glyph glyph-name="Edieresis" unicode="&#xcb;" 
d="M1122 0h-952v1434h952v-252h-635v-353h551v-251h-551v-326h635v-252zM205 1692q0 71 47.5 112t126.5 41q76 0 125 -41.5t49 -111.5q0 -68 -49.5 -109t-124.5 -41q-78 0 -126 40.5t-48 109.5zM713 1692q0 71 48 112t124 41q77 0 126.5 -41.5t49.5 -111.5q0 -68 -50 -109
t-126 -41t-124 41t-48 109z" />
    <glyph glyph-name="Igrave" unicode="&#xcc;" horiz-adv-x="657" 
d="M487 0v1434h-317v-1434h317zM-2 1851h321l179 -315h-222z" />
    <glyph glyph-name="Iacute" unicode="&#xcd;" horiz-adv-x="657" 
d="M487 0v1434h-317v-1434h317zM340 1851h322l-279 -315h-221z" />
    <glyph glyph-name="Icircumflex" unicode="&#xce;" horiz-adv-x="657" 
d="M487 0v1434h-317v-1434h317zM178 1851h301l207 -315h-209l-147 162l-148 -162h-209z" />
    <glyph glyph-name="Idieresis" unicode="&#xcf;" horiz-adv-x="657" 
d="M487 0v1434h-317v-1434h317zM-98 1692q0 71 47.5 112t126.5 41q76 0 125 -41.5t49 -111.5q0 -68 -49.5 -109t-124.5 -41q-78 0 -126 40.5t-48 109.5zM410 1692q0 71 48 112t124 41q77 0 126.5 -41.5t49.5 -111.5q0 -68 -50 -109t-126 -41t-124 41t-48 109z" />
    <glyph glyph-name="Eth" unicode="&#xd0;" horiz-adv-x="1570" 
d="M23 600v221h167v613h537q172 0 316.5 -56.5t241 -154t150.5 -228t54 -278.5t-54 -278.5t-150.5 -228t-241 -154t-316.5 -56.5h-537v600h-167zM1169 717q0 197 -121.5 331t-320.5 134h-219v-361h305v-221h-305v-348h219q199 0 320.5 134t121.5 331z" />
    <glyph glyph-name="Ntilde" unicode="&#xd1;" horiz-adv-x="1529" 
d="M485 872l633 -872h242v1434h-318v-865l-630 865h-244v-1432h317v870zM1145 1810q-35 -125 -88.5 -187t-147.5 -62q-65 0 -160.5 34.5t-123.5 34.5q-41 0 -64 -20.5t-45 -67.5l-154 45q35 125 88.5 187.5t147.5 62.5q65 0 161 -35t124 -35q41 0 63 20t45 68z" />
    <glyph glyph-name="Ograve" unicode="&#xd2;" horiz-adv-x="1648" 
d="M80 717q0 150 59 287t158.5 236t237.5 157.5t290 58.5q202 0 373 -99t271 -269t100 -371q0 -150 -59 -287t-158.5 -236.5t-237.5 -158t-289 -58.5q-152 0 -290 58.5t-237.5 158t-158.5 236.5t-59 287zM393 717q0 -194 125.5 -321.5t306.5 -127.5t305.5 127.5t124.5 321.5
t-124.5 321t-305.5 127t-306.5 -127t-125.5 -321zM461 1851h321l179 -315h-222z" />
    <glyph glyph-name="Oacute" unicode="&#xd3;" horiz-adv-x="1648" 
d="M80 717q0 150 59 287t158.5 236t237.5 157.5t290 58.5q202 0 373 -99t271 -269t100 -371q0 -150 -59 -287t-158.5 -236.5t-237.5 -158t-289 -58.5q-152 0 -290 58.5t-237.5 158t-158.5 236.5t-59 287zM393 717q0 -194 125.5 -321.5t306.5 -127.5t305.5 127.5t124.5 321.5
t-124.5 321t-305.5 127t-306.5 -127t-125.5 -321zM825 1851h322l-279 -315h-221z" />
    <glyph glyph-name="Ocircumflex" unicode="&#xd4;" horiz-adv-x="1648" 
d="M80 717q0 150 59 287t158.5 236t237.5 157.5t290 58.5q202 0 373 -99t271 -269t100 -371q0 -150 -59 -287t-158.5 -236.5t-237.5 -158t-289 -58.5q-152 0 -290 58.5t-237.5 158t-158.5 236.5t-59 287zM393 717q0 -194 125.5 -321.5t306.5 -127.5t305.5 127.5t124.5 321.5
t-124.5 321t-305.5 127t-306.5 -127t-125.5 -321zM672 1851h301l207 -315h-209l-148 162l-147 -162h-209z" />
    <glyph glyph-name="Otilde" unicode="&#xd5;" horiz-adv-x="1648" 
d="M80 717q0 150 59 287t158.5 236t237.5 157.5t290 58.5q202 0 373 -99t271 -269t100 -371q0 -150 -59 -287t-158.5 -236.5t-237.5 -158t-289 -58.5q-152 0 -290 58.5t-237.5 158t-158.5 236.5t-59 287zM393 717q0 -194 125.5 -321.5t306.5 -127.5t305.5 127.5t124.5 321.5
t-124.5 321t-305.5 127t-306.5 -127t-125.5 -321zM1061 1855l153 -45q-35 -125 -88 -187t-147 -62q-65 0 -161 34.5t-124 34.5q-41 0 -63 -20t-45 -68l-154 45q35 125 88.5 187.5t147.5 62.5q65 0 160.5 -35t123.5 -35q41 0 64 20.5t45 67.5z" />
    <glyph glyph-name="Odieresis" unicode="&#xd6;" horiz-adv-x="1648" 
d="M80 717q0 150 59 287t158.5 236t237.5 157.5t290 58.5q202 0 373 -99t271 -269t100 -371q0 -150 -59 -287t-158.5 -236.5t-237.5 -158t-289 -58.5q-152 0 -290 58.5t-237.5 158t-158.5 236.5t-59 287zM393 717q0 -194 125.5 -321.5t306.5 -127.5t305.5 127.5t124.5 321.5
t-124.5 321t-305.5 127t-306.5 -127t-125.5 -321zM395 1692q0 71 47.5 112t126.5 41q76 0 125 -41.5t49 -111.5q0 -68 -49.5 -109t-124.5 -41q-78 0 -126 40.5t-48 109.5zM903 1692q0 71 48 112t124 41q77 0 126.5 -41.5t49.5 -111.5q0 -68 -50 -109t-126 -41t-124 41
t-48 109z" />
    <glyph glyph-name="multiply" unicode="&#xd7;" horiz-adv-x="1114" 
d="M1028 350l-184 -184l-295 293l-295 -297l-170 170l297 295l-293 295l184 184l293 -295l295 297l170 -170l-297 -295z" />
    <glyph glyph-name="Oslash" unicode="&#xd8;" horiz-adv-x="1648" 
d="M391 -109l-158 109l105 156q-121 107 -189.5 252t-68.5 309q0 150 59 287t158.5 236t237.5 157.5t290 58.5q173 0 336 -80l99 146l157 -109l-98 -145q119 -105 184.5 -246.5t65.5 -304.5q0 -150 -59 -287t-158.5 -236.5t-237.5 -158t-289 -58.5q-171 0 -325 74zM393 717
q0 -181 115 -309l487 722q-81 35 -170 35q-181 0 -306.5 -127t-125.5 -321zM1255 717q0 171 -106 299l-483 -719q82 -29 159 -29q181 0 305.5 127.5t124.5 321.5z" />
    <glyph glyph-name="Ugrave" unicode="&#xd9;" horiz-adv-x="1492" 
d="M1022 1434h317v-891q0 -135 -47.5 -243.5t-129 -178.5t-188.5 -107t-229 -37t-228.5 37t-187.5 107t-128 178.5t-47 243.5v891h317v-891q0 -143 78.5 -221t195.5 -78t197 78.5t80 220.5v891zM446 1851h322l178 -315h-221z" />
    <glyph glyph-name="Uacute" unicode="&#xda;" horiz-adv-x="1492" 
d="M1022 1434h317v-891q0 -135 -47.5 -243.5t-129 -178.5t-188.5 -107t-229 -37t-228.5 37t-187.5 107t-128 178.5t-47 243.5v891h317v-891q0 -143 78.5 -221t195.5 -78t197 78.5t80 220.5v891zM707 1851h321l-278 -315h-222z" />
    <glyph glyph-name="Ucircumflex" unicode="&#xdb;" horiz-adv-x="1492" 
d="M1022 1434h317v-891q0 -135 -47.5 -243.5t-129 -178.5t-188.5 -107t-229 -37t-228.5 37t-187.5 107t-128 178.5t-47 243.5v891h317v-891q0 -143 78.5 -221t195.5 -78t197 78.5t80 220.5v891zM594 1851h301l207 -315h-209l-148 162l-147 -162h-209z" />
    <glyph glyph-name="Udieresis" unicode="&#xdc;" horiz-adv-x="1492" 
d="M1022 1434h317v-891q0 -135 -47.5 -243.5t-129 -178.5t-188.5 -107t-229 -37t-228.5 37t-187.5 107t-128 178.5t-47 243.5v891h317v-891q0 -143 78.5 -221t195.5 -78t197 78.5t80 220.5v891zM317 1692q0 71 48 112t127 41q76 0 125 -41.5t49 -111.5q0 -68 -49.5 -109
t-124.5 -41q-79 0 -127 41t-48 109zM825 1692q0 71 48 112t124 41q77 0 127 -41.5t50 -111.5q0 -68 -50 -109t-127 -41q-76 0 -124 41t-48 109z" />
    <glyph glyph-name="Yacute" unicode="&#xdd;" horiz-adv-x="1492" 
d="M745 874h3l339 560h369v-41l-551 -805v-588h-317v584l-551 809v41h369zM729 1851h322l-279 -315h-221z" />
    <glyph glyph-name="Thorn" unicode="&#xde;" horiz-adv-x="1310" 
d="M487 309v-309h-317v1434h317v-308h392q107 0 195 -57.5t135.5 -151t47.5 -200.5q0 -166 -108 -287t-279 -121h-383zM487 561h304q71 0 108 45.5t37 110.5q0 68 -33.5 112.5t-111.5 44.5h-304v-313z" />
    <glyph glyph-name="germandbls" unicode="&#xdf;" horiz-adv-x="1275" 
d="M580 0l-43 252h165q99 0 151 54.5t52 133.5q0 91 -88.5 164.5t-245.5 73.5l-30 182q121 23 183 80.5t62 138.5q0 71 -48.5 115.5t-121.5 44.5q-77 0 -127.5 -55.5t-50.5 -145.5v-1038h-305v1038q0 223 131 345t352 122q219 0 349.5 -113t130.5 -296q0 -91 -43.5 -167.5
t-132.5 -115.5q130 -36 210 -138.5t80 -240.5q0 -192 -139.5 -313t-368.5 -121h-122z" />
    <glyph glyph-name="agrave" unicode="&#xe0;" horiz-adv-x="1347" 
d="M375 528q0 -131 73 -217t197 -86q118 0 196.5 75.5t78.5 211.5q0 145 -78 229t-205 84q-122 0 -192 -85t-70 -212zM911 1051h306v-1051h-306v154q-61 -87 -139 -132t-190 -45q-155 0 -273 74.5t-178.5 199.5t-60.5 279q0 112 33.5 209.5t95.5 172.5t159 118t217 43
q102 0 191 -45.5t145 -120.5v144zM328 1536h321l203 -354h-221z" />
    <glyph glyph-name="aacute" unicode="&#xe1;" horiz-adv-x="1347" 
d="M375 528q0 -131 73 -217t197 -86q118 0 196.5 75.5t78.5 211.5q0 145 -78 229t-205 84q-122 0 -192 -85t-70 -212zM911 1051h306v-1051h-306v154q-61 -87 -139 -132t-190 -45q-155 0 -273 74.5t-178.5 199.5t-60.5 279q0 112 33.5 209.5t95.5 172.5t159 118t217 43
q102 0 191 -45.5t145 -120.5v144zM705 1536h321l-303 -354h-221z" />
    <glyph glyph-name="acircumflex" unicode="&#xe2;" horiz-adv-x="1347" 
d="M375 528q0 -131 73 -217t197 -86q118 0 196.5 75.5t78.5 211.5q0 145 -78 229t-205 84q-122 0 -192 -85t-70 -212zM911 1051h306v-1051h-306v154q-61 -87 -139 -132t-190 -45q-155 0 -273 74.5t-178.5 199.5t-60.5 279q0 112 33.5 209.5t95.5 172.5t159 118t217 43
q102 0 191 -45.5t145 -120.5v144zM518 1536h301l217 -354h-215l-151 188l-152 -188h-215z" />
    <glyph glyph-name="atilde" unicode="&#xe3;" horiz-adv-x="1347" 
d="M375 528q0 -131 73 -217t197 -86q118 0 196.5 75.5t78.5 211.5q0 145 -78 229t-205 84q-122 0 -192 -85t-70 -212zM911 1051h306v-1051h-306v154q-61 -87 -139 -132t-190 -45q-155 0 -273 74.5t-178.5 199.5t-60.5 279q0 112 33.5 209.5t95.5 172.5t159 118t217 43
q102 0 191 -45.5t145 -120.5v144zM907 1511l154 -45q-35 -125 -88.5 -187t-147.5 -62q-65 0 -160.5 34.5t-123.5 34.5q-41 0 -64 -20.5t-45 -67.5l-153 45q35 125 88 187.5t147 62.5q65 0 161 -35t124 -35q41 0 63 20t45 68z" />
    <glyph glyph-name="adieresis" unicode="&#xe4;" horiz-adv-x="1347" 
d="M375 528q0 -131 73 -217t197 -86q118 0 196.5 75.5t78.5 211.5q0 145 -78 229t-205 84q-122 0 -192 -85t-70 -212zM911 1051h306v-1051h-306v154q-61 -87 -139 -132t-190 -45q-155 0 -273 74.5t-178.5 199.5t-60.5 279q0 112 33.5 209.5t95.5 172.5t159 118t217 43
q102 0 191 -45.5t145 -120.5v144zM240 1360q0 72 50 119t128 47q74 0 126 -47.5t52 -118.5q0 -69 -52 -115.5t-126 -46.5q-77 0 -127.5 46.5t-50.5 115.5zM748 1360q0 72 50.5 119t125.5 47q76 0 128 -47.5t52 -118.5q0 -69 -52.5 -115.5t-127.5 -46.5t-125.5 46.5
t-50.5 115.5z" />
    <glyph glyph-name="aring" unicode="&#xe5;" horiz-adv-x="1347" 
d="M375 528q0 -131 73 -217t197 -86q118 0 196.5 75.5t78.5 211.5q0 145 -78 229t-205 84q-122 0 -192 -85t-70 -212zM911 1051h306v-1051h-306v154q-61 -87 -139 -132t-190 -45q-155 0 -273 74.5t-178.5 199.5t-60.5 279q0 112 33.5 209.5t95.5 172.5t159 118t217 43
q102 0 191 -45.5t145 -120.5v144zM418 1397q0 104 73 170.5t179 66.5q108 0 181 -66.5t73 -170.5q0 -103 -73.5 -169.5t-180.5 -66.5q-106 0 -179 66.5t-73 169.5zM559 1397q0 -47 31.5 -77t79.5 -30t79 30t31 77t-31 75.5t-79 28.5t-79.5 -28.5t-31.5 -75.5z" />
    <glyph glyph-name="ae" unicode="&#xe6;" horiz-adv-x="1910" 
d="M506 657q134 0 278 -43v27q0 44 -21.5 79t-54.5 55.5t-68 31t-65 10.5h-13.5h-20t-25 -1t-31 -2.5t-34 -5t-38.5 -8.5t-40.5 -12.5t-43.5 -17.5t-44 -23.5t-45 -29.5l-113 192q164 164 467 164q248 0 371 -153q124 153 360 153q111 0 206.5 -38t169 -111.5t115.5 -193
t42 -271.5h-789q5 -106 80 -169t231 -63q92 0 147.5 31.5t106.5 93.5l176 -168q-107 -117 -213 -162t-239 -45q-288 0 -457 177q-93 -96 -196 -136.5t-226 -40.5q-84 0 -159 22.5t-133.5 65t-93 110t-34.5 151.5q0 147 125 239t322 92zM1331 827q-85 0 -152.5 -43.5
t-93.5 -140.5h469q-13 96 -74.5 140t-148.5 44zM768 453q-111 30 -203 30q-58 0 -98.5 -13t-60.5 -34.5t-28.5 -43.5t-8.5 -46q0 -54 43 -86.5t118 -32.5q163 0 269 95q-29 80 -31 131z" />
    <glyph glyph-name="ccedilla" unicode="&#xe7;" horiz-adv-x="1124" 
d="M756 -12q57 -48 85.5 -104t28.5 -107q0 -67 -28 -116.5t-72 -75.5t-88.5 -38t-87.5 -12q-115 0 -197 63.5t-127 165.5l156 72q50 -108 129 -108q98 0 98 100q0 50 -36 98.5t-103 65.5q-208 41 -327 185.5t-119 348.5q0 238 161 392.5t426 154.5q220 0 430 -155l-139 -224
q-67 60 -142 82.5t-134 22.5q-134 0 -215.5 -75.5t-81.5 -197.5t81.5 -197t215.5 -75q161 0 276 104l125 -223q-166 -123 -315 -147z" />
    <glyph glyph-name="egrave" unicode="&#xe8;" horiz-adv-x="1261" 
d="M641 825q-54 0 -104 -16t-97 -60t-65 -110h526q-9 63 -53.5 107t-97.5 61.5t-109 17.5zM981 352l176 -168q-53 -59 -117.5 -101t-130.5 -64t-124.5 -32t-116.5 -10q-142 0 -257.5 42.5t-190 117t-114.5 172.5t-40 211q0 153 73.5 279.5t206.5 200t299 73.5
q88 0 170 -23.5t155 -74t127 -122t85.5 -174t31.5 -224.5h-845q5 -101 91 -164.5t230 -63.5q79 0 156 34.5t135 90.5zM242 1536h321l203 -354h-221z" />
    <glyph glyph-name="eacute" unicode="&#xe9;" horiz-adv-x="1261" 
d="M641 825q-54 0 -104 -16t-97 -60t-65 -110h526q-9 63 -53.5 107t-97.5 61.5t-109 17.5zM981 352l176 -168q-53 -59 -117.5 -101t-130.5 -64t-124.5 -32t-116.5 -10q-142 0 -257.5 42.5t-190 117t-114.5 172.5t-40 211q0 153 73.5 279.5t206.5 200t299 73.5
q88 0 170 -23.5t155 -74t127 -122t85.5 -174t31.5 -224.5h-845q5 -101 91 -164.5t230 -63.5q79 0 156 34.5t135 90.5zM686 1536h322l-303 -354h-222z" />
    <glyph glyph-name="ecircumflex" unicode="&#xea;" horiz-adv-x="1261" 
d="M641 825q-54 0 -104 -16t-97 -60t-65 -110h526q-9 63 -53.5 107t-97.5 61.5t-109 17.5zM981 352l176 -168q-53 -59 -117.5 -101t-130.5 -64t-124.5 -32t-116.5 -10q-142 0 -257.5 42.5t-190 117t-114.5 172.5t-40 211q0 153 73.5 279.5t206.5 200t299 73.5
q88 0 170 -23.5t155 -74t127 -122t85.5 -174t31.5 -224.5h-845q5 -101 91 -164.5t230 -63.5q79 0 156 34.5t135 90.5zM483 1536h301l217 -354h-215l-151 188l-152 -188h-215z" />
    <glyph glyph-name="edieresis" unicode="&#xeb;" horiz-adv-x="1261" 
d="M641 825q-54 0 -104 -16t-97 -60t-65 -110h526q-9 63 -53.5 107t-97.5 61.5t-109 17.5zM981 352l176 -168q-53 -59 -117.5 -101t-130.5 -64t-124.5 -32t-116.5 -10q-142 0 -257.5 42.5t-190 117t-114.5 172.5t-40 211q0 153 73.5 279.5t206.5 200t299 73.5
q88 0 170 -23.5t155 -74t127 -122t85.5 -174t31.5 -224.5h-845q5 -101 91 -164.5t230 -63.5q79 0 156 34.5t135 90.5zM203 1360q0 72 50 119t128 47q74 0 126 -47.5t52 -118.5q0 -69 -52 -115.5t-126 -46.5q-77 0 -127.5 46.5t-50.5 115.5zM711 1360q0 72 50.5 119t125.5 47
q76 0 128 -47.5t52 -118.5q0 -69 -52.5 -115.5t-127.5 -46.5t-125.5 46.5t-50.5 115.5z" />
    <glyph glyph-name="igrave" unicode="&#xec;" horiz-adv-x="577" 
d="M442 0h-305v1051h305v-1051zM-92 1536h321l203 -354h-221z" />
    <glyph glyph-name="iacute" unicode="&#xed;" horiz-adv-x="577" 
d="M440 0h-305v1051h305v-1051zM348 1536h322l-303 -354h-222z" />
    <glyph glyph-name="icircumflex" unicode="&#xee;" horiz-adv-x="579" 
d="M442 0h-305v1051h305v-1051zM139 1536h301l217 -354h-215l-151 188l-152 -188h-215z" />
    <glyph glyph-name="idieresis" unicode="&#xef;" horiz-adv-x="579" 
d="M442 0h-305v1051h305v-1051zM-141 1360q0 72 50 119t128 47q74 0 126 -47.5t52 -118.5q0 -69 -52 -115.5t-126 -46.5q-77 0 -127.5 46.5t-50.5 115.5zM367 1360q0 72 50.5 119t125.5 47q76 0 128 -47.5t52 -118.5q0 -69 -52.5 -115.5t-127.5 -46.5t-125.5 46.5
t-50.5 115.5z" />
    <glyph glyph-name="eth" unicode="&#xf0;" horiz-adv-x="1224" 
d="M545 1124l-234 -102l-59 131l178 78l-156 133l230 156q91 -74 194 -172l226 100l67 -131l-184 -80q159 -172 253.5 -360t94.5 -373q0 -122 -45 -223.5t-120 -167t-171.5 -101t-202.5 -35.5q-153 0 -279.5 67t-200 186t-73.5 264q0 109 45 198.5t116.5 143.5t154.5 83
t166 29q36 0 91 -8.5t83 -19.5q-60 96 -174 204zM369 494q0 -114 66 -187.5t175 -73.5q111 0 175.5 71.5t64.5 189.5q0 116 -63.5 179.5t-176.5 63.5q-111 0 -176 -65.5t-65 -177.5z" />
    <glyph glyph-name="ntilde" unicode="&#xf1;" horiz-adv-x="1255" 
d="M131 0v1051h305v-144q119 166 326 166q375 0 375 -502v-571h-306v565q0 117 -47 186.5t-147 69.5q-101 0 -151 -71t-50 -187v-563h-305zM864 1511l154 -45q-35 -125 -88.5 -187t-147.5 -62q-65 0 -160.5 34.5t-123.5 34.5q-41 0 -64 -20.5t-45 -67.5l-153 45
q35 125 88 187.5t147 62.5q65 0 161 -35t124 -35q41 0 63 20t45 68z" />
    <glyph glyph-name="ograve" unicode="&#xf2;" horiz-adv-x="1286" 
d="M66 526q0 120 47.5 223.5t126.5 173.5t184 110t219 40t219 -40t184.5 -110.5t127 -174t47.5 -222.5q0 -120 -47.5 -223.5t-127 -174.5t-184.5 -111t-219 -40q-153 0 -284 67.5t-212 194.5t-81 287zM362 526q0 -122 83 -204t198 -82q117 0 199 82t82 204q0 120 -82 202.5
t-199 82.5q-115 0 -198 -82t-83 -203zM229 1536h322l203 -354h-222z" />
    <glyph glyph-name="oacute" unicode="&#xf3;" horiz-adv-x="1286" 
d="M66 526q0 120 47.5 223.5t126.5 173.5t184 110t219 40t219 -40t184.5 -110.5t127 -174t47.5 -222.5q0 -120 -47.5 -223.5t-127 -174.5t-184.5 -111t-219 -40q-153 0 -284 67.5t-212 194.5t-81 287zM362 526q0 -122 83 -204t198 -82q117 0 199 82t82 204q0 120 -82 202.5
t-199 82.5q-115 0 -198 -82t-83 -203zM709 1536h321l-303 -354h-221z" />
    <glyph glyph-name="ocircumflex" unicode="&#xf4;" horiz-adv-x="1286" 
d="M66 526q0 120 47.5 223.5t126.5 173.5t184 110t219 40t219 -40t184.5 -110.5t127 -174t47.5 -222.5q0 -120 -47.5 -223.5t-127 -174.5t-184.5 -111t-219 -40q-153 0 -284 67.5t-212 194.5t-81 287zM362 526q0 -122 83 -204t198 -82q117 0 199 82t82 204q0 120 -82 202.5
t-199 82.5q-115 0 -198 -82t-83 -203zM492 1536h301l217 -354h-215l-152 188l-151 -188h-216z" />
    <glyph glyph-name="otilde" unicode="&#xf5;" horiz-adv-x="1286" 
d="M66 526q0 120 47.5 223.5t126.5 173.5t184 110t219 40t219 -40t184.5 -110.5t127 -174t47.5 -222.5q0 -120 -47.5 -223.5t-127 -174.5t-184.5 -111t-219 -40q-153 0 -284 67.5t-212 194.5t-81 287zM362 526q0 -122 83 -204t198 -82q117 0 199 82t82 204q0 120 -82 202.5
t-199 82.5q-115 0 -198 -82t-83 -203zM881 1511l153 -45q-35 -125 -88 -187t-147 -62q-65 0 -161 34.5t-124 34.5q-41 0 -63 -20t-45 -68l-154 45q35 125 88 187.5t147 62.5q65 0 161 -35t124 -35q41 0 64 20.5t45 67.5z" />
    <glyph glyph-name="odieresis" unicode="&#xf6;" horiz-adv-x="1286" 
d="M66 526q0 120 47.5 223.5t126.5 173.5t184 110t219 40t219 -40t184.5 -110.5t127 -174t47.5 -222.5q0 -120 -47.5 -223.5t-127 -174.5t-184.5 -111t-219 -40q-153 0 -284 67.5t-212 194.5t-81 287zM362 526q0 -122 83 -204t198 -82q117 0 199 82t82 204q0 120 -82 202.5
t-199 82.5q-115 0 -198 -82t-83 -203zM211 1360q0 72 50 119t128 47q74 0 126 -47.5t52 -118.5q0 -69 -52 -115.5t-126 -46.5q-77 0 -127.5 46.5t-50.5 115.5zM719 1360q0 72 50.5 119t125.5 47q76 0 128 -47.5t52 -118.5q0 -69 -52.5 -115.5t-127.5 -46.5t-125.5 46.5
t-50.5 115.5z" />
    <glyph glyph-name="divide" unicode="&#xf7;" horiz-adv-x="1280" 
d="M84 510v246h1114v-246h-1114zM449 221q0 77 53 121.5t139 44.5q84 0 139.5 -45t55.5 -121q0 -73 -55.5 -117.5t-139.5 -44.5q-86 0 -139 44t-53 118zM449 1044q0 77 53 121.5t139 44.5q84 0 139.5 -45t55.5 -121q0 -73 -55.5 -117t-139.5 -44q-86 0 -139 43.5t-53 117.5z
" />
    <glyph glyph-name="oslash" unicode="&#xf8;" horiz-adv-x="1286" 
d="M66 526q0 120 47.5 223.5t126.5 173.5t184 110t219 40q164 0 305 -80l113 127l125 -116l-105 -117q140 -153 140 -361q0 -120 -47.5 -223.5t-127 -174.5t-184.5 -111t-219 -40q-165 0 -299 76l-115 -129l-125 117l105 117q-143 156 -143 368zM362 526q0 -84 39 -149
l361 405q-63 29 -119 29q-115 0 -198 -82t-83 -203zM924 526q0 81 -37 142l-359 -404q52 -24 115 -24q117 0 199 82t82 204z" />
    <glyph glyph-name="ugrave" unicode="&#xf9;" horiz-adv-x="1257" 
d="M1124 1051v-1051h-305v143q-119 -166 -325 -166q-375 0 -375 502v572h305v-566q0 -117 47 -186.5t147 -69.5q101 0 151 71t50 187v564h305zM295 1536h321l203 -354h-221z" />
    <glyph glyph-name="uacute" unicode="&#xfa;" horiz-adv-x="1257" 
d="M1124 1051v-1051h-305v143q-119 -166 -325 -166q-375 0 -375 502v572h305v-566q0 -117 47 -186.5t147 -69.5q101 0 151 71t50 187v564h305zM676 1536h321l-303 -354h-221z" />
    <glyph glyph-name="ucircumflex" unicode="&#xfb;" horiz-adv-x="1257" 
d="M1124 1051v-1051h-305v143q-119 -166 -325 -166q-375 0 -375 502v572h305v-566q0 -117 47 -186.5t147 -69.5q101 0 151 71t50 187v564h305zM477 1536h301l217 -354h-215l-151 188l-152 -188h-215z" />
    <glyph glyph-name="udieresis" unicode="&#xfc;" horiz-adv-x="1257" 
d="M1124 1051v-1051h-305v143q-119 -166 -325 -166q-375 0 -375 502v572h305v-566q0 -117 47 -186.5t147 -69.5q101 0 151 71t50 187v564h305zM197 1360q0 72 50 119t128 47q74 0 126 -47.5t52 -118.5q0 -69 -52 -115.5t-126 -46.5q-77 0 -127.5 46.5t-50.5 115.5zM705 1360
q0 72 50.5 119t125.5 47q76 0 128 -47.5t52 -118.5q0 -69 -52.5 -115.5t-127.5 -46.5t-125.5 46.5t-50.5 115.5z" />
    <glyph glyph-name="yacute" unicode="&#xfd;" 
d="M616 393l250 658h336l-680 -1530h-307l240 567l-432 963h344zM655 1536h322l-303 -354h-221z" />
    <glyph glyph-name="thorn" unicode="&#xfe;" horiz-adv-x="1349" 
d="M1280 530q0 -154 -60.5 -279t-178.5 -199.5t-273 -74.5q-112 0 -191 45t-139 132v-633h-305v1960h305v-574q56 75 145 120.5t191 45.5q159 0 275.5 -75t173.5 -196.5t57 -271.5zM975 528q0 127 -70 212t-192 85q-127 0 -205 -84t-78 -229q0 -136 78.5 -211.5t196.5 -75.5
q124 0 197 86t73 217z" />
    <glyph glyph-name="ydieresis" unicode="&#xff;" 
d="M616 393l250 658h336l-680 -1530h-307l240 567l-432 963h344zM168 1360q0 72 50 119t128 47q74 0 126 -47.5t52 -118.5q0 -69 -52 -115.5t-126 -46.5q-77 0 -127.5 46.5t-50.5 115.5zM676 1360q0 72 50.5 119t125.5 47q76 0 128 -47.5t52 -118.5q0 -69 -52.5 -115.5
t-127.5 -46.5t-125.5 46.5t-50.5 115.5z" />
    <glyph glyph-name="Amacron" unicode="&#x100;" horiz-adv-x="1443" 
d="M340 0h-328l553 1434h309l562 -1434h-332l-103 268v-4h-563v4zM721 1098l-197 -574h387zM401 1794h646v-211h-646v211z" />
    <glyph glyph-name="amacron" unicode="&#x101;" horiz-adv-x="1347" 
d="M375 528q0 -131 73 -217t197 -86q118 0 196.5 75.5t78.5 211.5q0 145 -78 229t-205 84q-122 0 -192 -85t-70 -212zM911 1051h306v-1051h-306v154q-61 -87 -139 -132t-190 -45q-155 0 -273 74.5t-178.5 199.5t-60.5 279q0 112 33.5 209.5t95.5 172.5t159 118t217 43
q102 0 191 -45.5t145 -120.5v144zM348 1448h645v-211h-645v211z" />
    <glyph glyph-name="Abreve" unicode="&#x102;" horiz-adv-x="1443" 
d="M12 0h328l98 268v-4h563v4l103 -268h332l-562 1434h-309zM524 524l197 574l190 -574h-387zM723 1737q56 0 95.5 33.5t45.5 105.5l187 -21q-9 -73 -37 -129.5t-63 -88t-78.5 -52t-79 -27t-70.5 -6.5t-70.5 6.5t-79 27t-78.5 52t-63 88t-37 129.5l187 21q6 -72 45.5 -105.5
t95.5 -33.5z" />
    <glyph glyph-name="abreve" unicode="&#x103;" horiz-adv-x="1347" 
d="M375 528q0 -131 73 -217t197 -86q118 0 196.5 75.5t78.5 211.5q0 145 -78 229t-205 84q-122 0 -192 -85t-70 -212zM911 1051h306v-1051h-306v154q-61 -87 -139 -132t-190 -45q-155 0 -273 74.5t-178.5 199.5t-60.5 279q0 112 33.5 209.5t95.5 172.5t159 118t217 43
q102 0 191 -45.5t145 -120.5v144zM670 1382q51 0 89.5 35t45.5 119l192 -20q-7 -79 -32 -139.5t-58 -95.5t-76.5 -57t-81.5 -29t-79 -7t-79 7t-82 29t-77 57t-58 95.5t-32 139.5l193 20q7 -84 45.5 -119t89.5 -35z" />
    <glyph glyph-name="Aogonek" unicode="&#x104;" horiz-adv-x="1441" 
d="M1096 16l-97 252v-4h-563v4l-98 -268h-328l553 1434h309l562 -1434h-33q-62 0 -109 -14t-72 -34t-40.5 -45.5t-20 -44t-4.5 -34.5q0 -100 98 -100q79 0 129 108l156 -72q-45 -102 -127 -165.5t-197 -63.5q-43 0 -87.5 12t-88.5 38t-72 75.5t-28 116.5q0 19 3.5 39
t17 56.5t48.5 74.5t89 69zM719 1098l-197 -574h387z" />
    <glyph glyph-name="aogonek" unicode="&#x105;" horiz-adv-x="1347" 
d="M375 528q0 -131 73 -217t197 -86q118 0 196.5 75.5t78.5 211.5q0 145 -78 229t-205 84q-122 0 -192 -85t-70 -212zM1217 1051v-1051q-62 0 -109 -14t-72 -34t-40.5 -45.5t-20 -44t-4.5 -34.5q0 -100 98 -100q79 0 129 108l156 -72q-45 -102 -127 -165.5t-197 -63.5
q-43 0 -87.5 12t-88.5 38t-72 75.5t-28 116.5q0 19 3.5 39t16.5 56.5t48 74.5t89 69v138q-61 -87 -139 -132t-190 -45q-155 0 -273 74.5t-178.5 199.5t-60.5 279q0 112 33.5 209.5t95.5 172.5t159 118t217 43q102 0 191 -45.5t145 -120.5v144h306z" />
    <glyph glyph-name="Cacute" unicode="&#x106;" horiz-adv-x="1421" 
d="M80 717q0 150 55.5 284t155 235t249 160.5t326.5 59.5q157 0 276 -45t238 -135l-131 -242q-88 68 -177.5 104t-203.5 36q-213 0 -340 -130.5t-127 -326.5t127 -326.5t340 -130.5q114 0 204 36t177 103l131 -241q-120 -90 -238.5 -135.5t-275.5 -45.5q-177 0 -326.5 59.5
t-249 161t-155 235.5t-55.5 284zM780 1851h322l-279 -315h-221z" />
    <glyph glyph-name="cacute" unicode="&#x107;" horiz-adv-x="1132" 
d="M68 526q0 238 161 392.5t426 154.5q220 0 430 -155l-139 -224q-67 60 -142 82.5t-134 22.5q-134 0 -215.5 -75.5t-81.5 -197.5t81.5 -197t215.5 -75q161 0 276 104l139 -223q-210 -155 -430 -155q-176 0 -310.5 71.5t-205.5 195.5t-71 279zM666 1536h321l-303 -354h-221z
" />
    <glyph glyph-name="Ccircumflex" unicode="&#x108;" horiz-adv-x="1421" 
d="M80 717q0 150 55.5 284t155 235t249 160.5t326.5 59.5q157 0 276 -45t238 -135l-131 -242q-88 68 -177.5 104t-203.5 36q-213 0 -340 -130.5t-127 -326.5t127 -326.5t340 -130.5q114 0 204 36t177 103l131 -241q-120 -90 -238.5 -135.5t-275.5 -45.5q-177 0 -326.5 59.5
t-249 161t-155 235.5t-55.5 284zM649 1851h301l207 -315h-209l-147 162l-148 -162h-209z" />
    <glyph glyph-name="ccircumflex" unicode="&#x109;" horiz-adv-x="1132" 
d="M68 526q0 238 161 392.5t426 154.5q220 0 430 -155l-139 -224q-67 60 -142 82.5t-134 22.5q-134 0 -215.5 -75.5t-81.5 -197.5t81.5 -197t215.5 -75q161 0 276 104l139 -223q-210 -155 -430 -155q-176 0 -310.5 71.5t-205.5 195.5t-71 279zM461 1536h301l217 -354h-215
l-152 188l-151 -188h-215z" />
    <glyph glyph-name="Cdotaccent" unicode="&#x10a;" horiz-adv-x="1421" 
d="M80 717q0 150 55.5 284t155 235t249 160.5t326.5 59.5q157 0 276 -45t238 -135l-131 -242q-88 68 -177.5 104t-203.5 36q-213 0 -340 -130.5t-127 -326.5t127 -326.5t340 -130.5q114 0 204 36t177 103l131 -241q-120 -90 -238.5 -135.5t-275.5 -45.5q-177 0 -326.5 59.5
t-249 161t-155 235.5t-55.5 284zM635 1698q0 71 49.5 112t128.5 41q76 0 127 -41.5t51 -111.5q0 -67 -51 -108.5t-127 -41.5q-79 0 -128.5 41t-49.5 109z" />
    <glyph glyph-name="cdotaccent" unicode="&#x10b;" horiz-adv-x="1132" 
d="M68 526q0 238 161 392.5t426 154.5q220 0 430 -155l-139 -224q-67 60 -142 82.5t-134 22.5q-134 0 -215.5 -75.5t-81.5 -197.5t81.5 -197t215.5 -75q161 0 276 104l139 -223q-210 -155 -430 -155q-176 0 -310.5 71.5t-205.5 195.5t-71 279zM438 1360q0 72 50 119t128 47
q74 0 126.5 -47.5t52.5 -118.5q0 -68 -52.5 -115t-126.5 -47q-77 0 -127.5 46.5t-50.5 115.5z" />
    <glyph glyph-name="Ccaron" unicode="&#x10c;" horiz-adv-x="1421" 
d="M80 717q0 150 55.5 284t155 235t249 160.5t326.5 59.5q157 0 276 -45t238 -135l-131 -242q-88 68 -177.5 104t-203.5 36q-213 0 -340 -130.5t-127 -326.5t127 -326.5t340 -130.5q114 0 204 36t177 103l131 -241q-120 -90 -238.5 -135.5t-275.5 -45.5q-177 0 -326.5 59.5
t-249 161t-155 235.5t-55.5 284zM965 1536h-301l-205 315h209l147 -161l148 161h208z" />
    <glyph glyph-name="ccaron" unicode="&#x10d;" horiz-adv-x="1132" 
d="M68 526q0 238 161 392.5t426 154.5q220 0 430 -155l-139 -224q-67 60 -142 82.5t-134 22.5q-134 0 -215.5 -75.5t-81.5 -197.5t81.5 -197t215.5 -75q161 0 276 104l139 -223q-210 -155 -430 -155q-176 0 -310.5 71.5t-205.5 195.5t-71 279zM760 1182h-301l-215 354h215
l151 -188l152 188h215z" />
    <glyph glyph-name="Dcaron" unicode="&#x10e;" horiz-adv-x="1550" 
d="M848 1536h-301l-205 315h209l147 -161l148 161h209zM1149 717q0 -197 -121.5 -331t-320.5 -134h-220v930h220q199 0 320.5 -134t121.5 -331zM1468 717q0 148 -53.5 278.5t-150.5 228t-241 154t-316 56.5h-537v-1434h537q172 0 316 56.5t241 154t150.5 228t53.5 278.5z
" />
    <glyph glyph-name="dcaron" unicode="&#x10f;" horiz-adv-x="1497" 
d="M375 528q0 -131 73 -217t197 -86q118 0 196.5 75.5t78.5 211.5q0 145 -78 229t-205 84q-122 0 -192 -85t-70 -212zM911 1481h306v-1481h-306v154q-61 -87 -139 -132t-190 -45q-155 0 -273 74.5t-178.5 199.5t-60.5 279q0 112 33.5 209.5t95.5 172.5t159 118t217 43
q102 0 191 -45.5t145 -120.5v574zM1382 942l-61 105q29 11 49 21.5t44.5 28t38 43t13.5 56.5q-71 -18 -117 21.5t-46 113.5q0 66 43.5 108t115.5 42q58 0 99 -29t57 -65.5t16 -73.5q0 -57 -11.5 -108t-38.5 -102.5t-78.5 -93.5t-123.5 -67z" />
    <glyph glyph-name="Dcroat" unicode="&#x110;" horiz-adv-x="1570" 
d="M23 600v221h167v613h537q172 0 316.5 -56.5t241 -154t150.5 -228t54 -278.5t-54 -278.5t-150.5 -228t-241 -154t-316.5 -56.5h-537v600h-167zM1169 717q0 197 -121.5 331t-320.5 134h-219v-361h305v-221h-305v-348h219q199 0 320.5 134t121.5 331z" />
    <glyph glyph-name="dcroat" unicode="&#x111;" horiz-adv-x="1349" 
d="M573 1169v146h338v166h306v-166h161v-146h-161v-1169h-306v154q-61 -87 -139 -132t-190 -45q-155 0 -273 74.5t-178.5 199.5t-60.5 279q0 112 33.5 209.5t95.5 172.5t159 118t217 43q102 0 191 -45.5t145 -120.5v262h-338zM375 528q0 -131 73 -217t197 -86
q118 0 196.5 75.5t78.5 211.5q0 145 -78 229t-205 84q-122 0 -192 -85t-70 -212z" />
    <glyph glyph-name="Emacron" unicode="&#x112;" 
d="M1122 0h-952v1434h952v-252h-635v-353h551v-251h-551v-326h635v-252zM326 1794h645v-211h-645v211z" />
    <glyph glyph-name="emacron" unicode="&#x113;" horiz-adv-x="1261" 
d="M641 825q-54 0 -104 -16t-97 -60t-65 -110h526q-9 63 -53.5 107t-97.5 61.5t-109 17.5zM981 352l176 -168q-53 -59 -117.5 -101t-130.5 -64t-124.5 -32t-116.5 -10q-142 0 -257.5 42.5t-190 117t-114.5 172.5t-40 211q0 153 73.5 279.5t206.5 200t299 73.5
q88 0 170 -23.5t155 -74t127 -122t85.5 -174t31.5 -224.5h-845q5 -101 91 -164.5t230 -63.5q79 0 156 34.5t135 90.5zM311 1448h645v-211h-645v211z" />
    <glyph glyph-name="Ebreve" unicode="&#x114;" 
d="M1122 0h-952v1434h952v-252h-635v-353h551v-251h-551v-326h635v-252zM647 1737q56 0 95.5 33.5t45.5 105.5l187 -21q-9 -73 -37 -129.5t-63 -88t-78.5 -52t-79 -27t-70.5 -6.5t-70.5 6.5t-79 27t-78.5 52t-63 88t-37 129.5l187 21q6 -72 45.5 -105.5t95.5 -33.5z" />
    <glyph glyph-name="ebreve" unicode="&#x115;" horiz-adv-x="1261" 
d="M641 825q-54 0 -104 -16t-97 -60t-65 -110h526q-9 63 -53.5 107t-97.5 61.5t-109 17.5zM981 352l176 -168q-53 -59 -117.5 -101t-130.5 -64t-124.5 -32t-116.5 -10q-142 0 -257.5 42.5t-190 117t-114.5 172.5t-40 211q0 153 73.5 279.5t206.5 200t299 73.5
q88 0 170 -23.5t155 -74t127 -122t85.5 -174t31.5 -224.5h-845q5 -101 91 -164.5t230 -63.5q79 0 156 34.5t135 90.5zM635 1382q51 0 89.5 35t45.5 119l193 -20q-7 -79 -32 -139.5t-58 -95.5t-77 -57t-82 -29t-79 -7t-79 7t-82 29t-77 57t-58 95.5t-32 139.5l193 20
q7 -84 45.5 -119t89.5 -35z" />
    <glyph glyph-name="Edotaccent" unicode="&#x116;" 
d="M1122 0h-952v1434h952v-252h-635v-353h551v-251h-551v-326h635v-252zM469 1698q0 71 49.5 112t128.5 41q76 0 127 -41.5t51 -111.5q0 -67 -51 -108.5t-127 -41.5q-79 0 -128.5 41t-49.5 109z" />
    <glyph glyph-name="edotaccent" unicode="&#x117;" horiz-adv-x="1261" 
d="M641 825q-54 0 -104 -16t-97 -60t-65 -110h526q-9 63 -53.5 107t-97.5 61.5t-109 17.5zM981 352l176 -168q-53 -59 -117.5 -101t-130.5 -64t-124.5 -32t-116.5 -10q-142 0 -257.5 42.5t-190 117t-114.5 172.5t-40 211q0 153 73.5 279.5t206.5 200t299 73.5
q88 0 170 -23.5t155 -74t127 -122t85.5 -174t31.5 -224.5h-845q5 -101 91 -164.5t230 -63.5q79 0 156 34.5t135 90.5zM457 1360q0 72 50 119t128 47q74 0 126 -47.5t52 -118.5q0 -69 -52 -115.5t-126 -46.5q-77 0 -127.5 46.5t-50.5 115.5z" />
    <glyph glyph-name="Eogonek" unicode="&#x118;" 
d="M719 0h-549v1434h952v-252h-635v-353h551v-251h-551v-326h635v-252h-82q-61 0 -108 -14t-72 -34t-40.5 -45.5t-20 -44t-4.5 -34.5q0 -100 98 -100q79 0 129 108l156 -72q-45 -102 -127 -165.5t-197 -63.5q-43 0 -87.5 12t-88.5 38t-72 75.5t-28 116.5q0 15 5 37.5
t18 55.5t43.5 68.5t74.5 61.5z" />
    <glyph glyph-name="eogonek" unicode="&#x119;" horiz-adv-x="1263" 
d="M864 -35q-51 -61 -51 -143q0 -42 25 -68t71 -26q78 0 131 108l156 -72q-41 -99 -125 -164t-194 -65q-35 0 -71 7t-74.5 24t-68 43t-48.5 68t-19 94q0 116 90 206h-18q-142 0 -257.5 42.5t-190 117t-114.5 172.5t-40 211q0 153 73.5 279.5t206.5 200t299 73.5
q88 0 170 -23.5t155 -74t127 -122t85.5 -174t31.5 -224.5h-845q5 -101 91 -164.5t230 -63.5q79 0 156 34.5t135 90.5l176 -168q-57 -62 -149 -118q-9 -5 -31 -17t-33 -18.5t-27.5 -17.5t-29 -22.5t-23.5 -25.5zM641 825q-54 0 -104 -16t-97 -60t-65 -110h526
q-9 63 -53.5 107t-97.5 61.5t-109 17.5z" />
    <glyph glyph-name="Ecaron" unicode="&#x11a;" 
d="M1122 0h-952v1434h952v-252h-635v-353h551v-251h-551v-326h635v-252zM791 1536h-302l-204 315h209l147 -161l147 161h209z" />
    <glyph glyph-name="ecaron" unicode="&#x11b;" horiz-adv-x="1261" 
d="M641 825q-54 0 -104 -16t-97 -60t-65 -110h526q-9 63 -53.5 107t-97.5 61.5t-109 17.5zM981 352l176 -168q-53 -59 -117.5 -101t-130.5 -64t-124.5 -32t-116.5 -10q-142 0 -257.5 42.5t-190 117t-114.5 172.5t-40 211q0 153 73.5 279.5t206.5 200t299 73.5
q88 0 170 -23.5t155 -74t127 -122t85.5 -174t31.5 -224.5h-845q5 -101 91 -164.5t230 -63.5q79 0 156 34.5t135 90.5zM784 1182h-301l-215 354h215l152 -188l151 188h215z" />
    <glyph glyph-name="Gcircumflex" unicode="&#x11c;" horiz-adv-x="1503" 
d="M668 1851h301l207 -315h-209l-148 162l-147 -162h-209zM80 717q0 -150 58 -286.5t157.5 -236t242 -158.5t304.5 -59q312 0 559 220v583h-660v-254h363v-204q-105 -54 -264 -54q-194 0 -318.5 125.5t-124.5 319.5q0 65 14.5 126t49.5 121t87 105t133.5 72.5t182.5 27.5
q97 0 188.5 -37.5t159.5 -91.5l158 236q-119 92 -240 138t-276 46q-176 0 -323 -59.5t-245 -160.5t-152 -235t-54 -284z" />
    <glyph glyph-name="gcircumflex" unicode="&#x11d;" horiz-adv-x="1349" 
d="M489 1536h302l217 -354h-215l-152 188l-152 -188h-215zM375 528q0 -131 73 -217t197 -86q118 0 196.5 75.5t78.5 211.5q0 145 -78 229t-205 84q-122 0 -192 -85t-70 -212zM1217 1051v-977q0 -121 -31 -219t-83.5 -163.5t-126 -110t-155.5 -64t-174 -19.5q-321 0 -497 146
l120 237q48 -43 142 -81t174 -38q325 0 325 277v115q-61 -87 -139 -132t-190 -45q-155 0 -273 74.5t-178.5 199.5t-60.5 279q0 112 33.5 209.5t95.5 172.5t159 118t217 43q102 0 191 -45.5t145 -120.5v144h306z" />
    <glyph glyph-name="Gbreve" unicode="&#x11e;" horiz-adv-x="1503" 
d="M778 1737q56 0 96 33.5t46 105.5l186 -21q-9 -73 -37 -129.5t-63 -88t-78.5 -52t-79 -27t-70.5 -6.5t-70.5 6.5t-79 27t-78 52t-62.5 88t-37 129.5l186 21q6 -72 45.5 -105.5t95.5 -33.5zM80 717q0 -150 58 -286.5t157.5 -236t242 -158.5t304.5 -59q312 0 559 220v583
h-660v-254h363v-204q-105 -54 -264 -54q-194 0 -318.5 125.5t-124.5 319.5q0 65 14.5 126t49.5 121t87 105t133.5 72.5t182.5 27.5q97 0 188.5 -37.5t159.5 -91.5l158 236q-119 92 -240 138t-276 46q-176 0 -323 -59.5t-245 -160.5t-152 -235t-54 -284z" />
    <glyph glyph-name="gbreve" unicode="&#x11f;" horiz-adv-x="1349" 
d="M643 1382q51 0 89.5 35t45.5 119l193 -20q-7 -79 -32 -139.5t-58 -95.5t-77 -57t-82 -29t-79 -7t-79 7t-82 29t-77 57t-58 95.5t-32 139.5l193 20q7 -84 45.5 -119t89.5 -35zM375 528q0 -131 73 -217t197 -86q118 0 196.5 75.5t78.5 211.5q0 145 -78 229t-205 84
q-122 0 -192 -85t-70 -212zM1217 1051v-977q0 -121 -31 -219t-83.5 -163.5t-126 -110t-155.5 -64t-174 -19.5q-321 0 -497 146l120 237q48 -43 142 -81t174 -38q325 0 325 277v115q-61 -87 -139 -132t-190 -45q-155 0 -273 74.5t-178.5 199.5t-60.5 279q0 112 33.5 209.5
t95.5 172.5t159 118t217 43q102 0 191 -45.5t145 -120.5v144h306z" />
    <glyph glyph-name="Gdotaccent" unicode="&#x120;" horiz-adv-x="1503" 
d="M627 1698q0 71 49.5 112t128.5 41q76 0 127 -41.5t51 -111.5q0 -67 -51 -108.5t-127 -41.5q-79 0 -128.5 41t-49.5 109zM80 717q0 -150 58 -286.5t157.5 -236t242 -158.5t304.5 -59q312 0 559 220v583h-660v-254h363v-204q-105 -54 -264 -54q-194 0 -318.5 125.5
t-124.5 319.5q0 65 14.5 126t49.5 121t87 105t133.5 72.5t182.5 27.5q97 0 188.5 -37.5t159.5 -91.5l158 236q-119 92 -240 138t-276 46q-176 0 -323 -59.5t-245 -160.5t-152 -235t-54 -284z" />
    <glyph glyph-name="gdotaccent" unicode="&#x121;" horiz-adv-x="1349" 
d="M457 1360q0 72 50 119t128 47q74 0 126 -47.5t52 -118.5q0 -69 -52 -115.5t-126 -46.5q-77 0 -127.5 46.5t-50.5 115.5zM375 528q0 -131 73 -217t197 -86q118 0 196.5 75.5t78.5 211.5q0 145 -78 229t-205 84q-122 0 -192 -85t-70 -212zM1217 1051v-977q0 -121 -31 -219
t-83.5 -163.5t-126 -110t-155.5 -64t-174 -19.5q-321 0 -497 146l120 237q48 -43 142 -81t174 -38q325 0 325 277v115q-61 -87 -139 -132t-190 -45q-155 0 -273 74.5t-178.5 199.5t-60.5 279q0 112 33.5 209.5t95.5 172.5t159 118t217 43q102 0 191 -45.5t145 -120.5v144
h306z" />
    <glyph glyph-name="Gcommaaccent" unicode="&#x122;" horiz-adv-x="1503" 
d="M758 -641l-62 104q28 11 48.5 21.5t45.5 28.5t38.5 43.5t13.5 56.5q-71 -18 -117.5 22t-46.5 113q0 66 44 108t116 42q58 0 99 -29t57 -65.5t16 -73.5q0 -283 -252 -371zM80 717q0 150 54 284t152 235t245 160.5t323 59.5q155 0 276 -46t240 -138l-158 -236
q-68 54 -159.5 91.5t-188.5 37.5q-101 0 -182.5 -27.5t-133.5 -72.5t-87 -105t-49.5 -121t-14.5 -126q0 -194 124.5 -319.5t318.5 -125.5q159 0 264 54v204h-363v254h660v-583q-247 -220 -559 -220q-162 0 -304.5 59t-242 158.5t-157.5 236t-58 286.5z" />
    <glyph glyph-name="gcommaaccent" unicode="&#x123;" horiz-adv-x="1349" 
d="M713 1718l61 -104q-28 -11 -48.5 -21.5t-45 -28.5t-38 -43.5t-13.5 -56.5q71 18 117.5 -22t46.5 -113q0 -66 -44 -107.5t-116 -41.5q-58 0 -99 29t-57 65.5t-16 73.5q0 282 252 370zM375 528q0 -131 73 -217t197 -86q118 0 196.5 75.5t78.5 211.5q0 145 -78 229t-205 84
q-122 0 -192 -85t-70 -212zM1217 1051v-977q0 -121 -31 -219t-83.5 -163.5t-126 -110t-155.5 -64t-174 -19.5q-321 0 -497 146l120 237q48 -43 142 -81t174 -38q325 0 325 277v115q-61 -87 -139 -132t-190 -45q-155 0 -273 74.5t-178.5 199.5t-60.5 279q0 112 33.5 209.5
t95.5 172.5t159 118t217 43q102 0 191 -45.5t145 -120.5v144h306z" />
    <glyph glyph-name="Hcircumflex" unicode="&#x124;" horiz-adv-x="1519" 
d="M1350 0h-318v559h-545v-559h-317v1434h317v-623h545v623h318v-1434zM608 1851h301l207 -315h-209l-147 162l-148 -162h-209z" />
    <glyph glyph-name="hcircumflex" unicode="&#x125;" horiz-adv-x="1257" 
d="M133 0v1481h305v-574q119 166 326 166q375 0 375 -502v-571h-305v565q0 117 -47.5 186.5t-147.5 69.5q-101 0 -151 -71t-50 -187v-563h-305zM127 1849h301l234 -301h-201l-182 148l-183 -148h-200z" />
    <glyph glyph-name="Hbar" unicode="&#x126;" horiz-adv-x="1538" 
d="M1040 975h-544v-164h544v164zM178 0v975h-151v168h151v291h318v-291h544v291h318v-291h153v-168h-153v-975h-318v559h-544v-559h-318z" />
    <glyph glyph-name="hbar" unicode="&#x127;" horiz-adv-x="1257" 
d="M-23 1167v146h156v168h305v-168h285v-146h-285v-260q119 166 326 166q375 0 375 -502v-571h-305v565q0 117 -47.5 186.5t-147.5 69.5q-101 0 -151 -71t-50 -187v-563h-305v1167h-156z" />
    <glyph glyph-name="Itilde" unicode="&#x128;" horiz-adv-x="657" 
d="M487 0v1434h-317v-1434h317zM721 1810q-35 -125 -88.5 -187t-147.5 -62q-65 0 -160.5 34.5t-123.5 34.5q-41 0 -64 -20.5t-45 -67.5l-153 45q35 125 88 187.5t147 62.5q65 0 161 -35t124 -35q41 0 63 20t45 68z" />
    <glyph glyph-name="itilde" unicode="&#x129;" horiz-adv-x="579" 
d="M442 0h-305v1051h305v-1051zM528 1511l154 -45q-35 -125 -88.5 -187t-147.5 -62q-65 0 -160.5 34.5t-123.5 34.5q-41 0 -64 -20.5t-45 -67.5l-153 45q35 125 88 187.5t147 62.5q65 0 161 -35t124 -35q41 0 63 20t45 68z" />
    <glyph glyph-name="Imacron" unicode="&#x12a;" horiz-adv-x="657" 
d="M487 1434v-1434h-317v1434h317zM6 1794h645v-211h-645v211z" />
    <glyph glyph-name="imacron" unicode="&#x12b;" horiz-adv-x="579" 
d="M442 0h-305v1051h305v-1051zM-33 1448h645v-211h-645v211z" />
    <glyph glyph-name="Ibreve" unicode="&#x12c;" horiz-adv-x="657" 
d="M487 0v1434h-317v-1434h317zM330 1737q56 0 95.5 33.5t45.5 105.5l186 -21q-9 -73 -37 -129.5t-62.5 -88t-78 -52t-79 -27t-70.5 -6.5t-70.5 6.5t-79 27t-78.5 52t-63 88t-37 129.5l186 21q6 -72 46 -105.5t96 -33.5z" />
    <glyph glyph-name="ibreve" unicode="&#x12d;" horiz-adv-x="579" 
d="M442 0h-305v1051h305v-1051zM291 1382q51 0 89.5 35t45.5 119l192 -20q-7 -79 -32 -139.5t-58 -95.5t-76.5 -57t-81.5 -29t-79 -7t-79 7t-82 29t-77 57t-58 95.5t-32 139.5l193 20q7 -84 45.5 -119t89.5 -35z" />
    <glyph glyph-name="Iogonek" unicode="&#x12e;" horiz-adv-x="657" 
d="M487 0h-12q-62 0 -109 -14t-72 -34t-40.5 -45.5t-20 -44t-4.5 -34.5q0 -100 99 -100q79 0 129 108l155 -72q-45 -102 -126.5 -165.5t-196.5 -63.5q-43 0 -87.5 12t-89 38t-72.5 75.5t-28 116.5q0 19 3.5 39t17 56.5t48.5 74.5t89 69v1418h317v-1434z" />
    <glyph glyph-name="iogonek" unicode="&#x12f;" horiz-adv-x="575" 
d="M440 1051v-1051q-61 0 -108 -14t-72 -34t-40.5 -45.5t-20 -44t-4.5 -34.5q0 -100 98 -100q79 0 129 108l156 -72q-45 -102 -127 -165.5t-197 -63.5q-43 0 -87.5 12t-89 38t-72.5 75.5t-28 116.5q0 19 3.5 39t17 56.5t48.5 74.5t89 69v1035h305zM98 1329q0 78 54 126
t139 48q83 0 138.5 -48.5t55.5 -125.5q0 -74 -55.5 -122t-138.5 -48q-85 0 -139 47.5t-54 122.5z" />
    <glyph glyph-name="Idotaccent" unicode="&#x130;" horiz-adv-x="657" 
d="M487 0v1434h-317v-1434h317zM152 1698q0 71 49.5 112t128.5 41q76 0 127 -41.5t51 -111.5q0 -67 -51 -108.5t-127 -41.5q-79 0 -128.5 41t-49.5 109z" />
    <glyph glyph-name="dotlessi" unicode="&#x131;" horiz-adv-x="575" 
d="M440 0h-305v1051h305v-1051z" />
    <glyph glyph-name="IJ" unicode="&#x132;" horiz-adv-x="2009" 
d="M487 1434v-1434h-317v1434h317zM1858 1436v-803q0 -327 -153 -491.5t-443 -164.5q-118 0 -214 31t-158 81t-104 117t-59.5 135.5t-17.5 139.5q0 140 71 240h293q-63 -101 -63 -217q0 -48 14 -92.5t42 -83t77 -61.5t114 -23q154 0 218.5 95t64.5 294v803h318z" />
    <glyph glyph-name="ij" unicode="&#x133;" horiz-adv-x="1230" 
d="M440 0h-305v1051h305v-1051zM98 1329q0 78 54 126t139 48q83 0 138.5 -48.5t55.5 -125.5q0 -74 -55.5 -122t-138.5 -48q-85 0 -139 47.5t-54 122.5zM791 -160v1211h305v-1162q0 -110 -30 -189t-83.5 -121.5t-115 -61.5t-136.5 -19q-89 0 -158.5 27t-110 72t-61 99.5
t-20.5 115.5q0 33 12 57h242q-2 -8 -2 -35q0 -40 19.5 -66t60.5 -26t59.5 28.5t18.5 69.5zM752 1329q0 78 53.5 126t138.5 48q83 0 139 -48.5t56 -125.5q0 -74 -56 -122t-139 -48q-85 0 -138.5 47.5t-53.5 122.5z" />
    <glyph glyph-name="Jcircumflex" unicode="&#x134;" horiz-adv-x="1351" 
d="M1200 1436v-803q0 -327 -153 -491.5t-443 -164.5q-118 0 -214 31t-158 81t-104 117t-59.5 135.5t-17.5 139.5q0 139 72 240h293q-64 -103 -64 -217q0 -48 14 -92.5t42 -83t77.5 -61.5t114.5 -23q154 0 218.5 95t64.5 294v803h317zM881 1851h301l207 -315h-209l-148 162
l-147 -162h-209z" />
    <glyph glyph-name="jcircumflex" unicode="&#x135;" horiz-adv-x="657" 
d="M215 -160v1211h305v-1162q0 -110 -30 -189t-83 -121.5t-114.5 -61.5t-136.5 -19q-89 0 -158.5 27t-110.5 72t-61.5 99.5t-20.5 115.5q0 31 13 57h241q-2 -8 -2 -35q0 -40 19.5 -66t60.5 -26t59.5 28.5t18.5 69.5zM213 1536h301l217 -354h-215l-151 188l-152 -188h-215z
" />
    <glyph glyph-name="Kcommaaccent" unicode="&#x136;" horiz-adv-x="1359" 
d="M481 659v-4v-655h-313v1434h313v-658l424 658h326v-41l-447 -662l181 -317q65 -110 100.5 -139t99.5 -29q39 0 101 35l114 -226q-122 -78 -276 -78q-255 0 -404 291zM637 -641l-62 104q28 11 48.5 21.5t45.5 28.5t38.5 43.5t13.5 56.5q-71 -18 -117.5 22t-46.5 113
q0 66 44 108t116 42q58 0 99 -29t57 -65.5t16 -73.5q0 -283 -252 -371z" />
    <glyph glyph-name="kcommaaccent" unicode="&#x137;" horiz-adv-x="1222" 
d="M434 625l299 426h338v-41l-348 -439l137 -219q35 -53 67 -73.5t77 -20.5q59 0 112 37l115 -215q-118 -103 -275 -103q-98 0 -174.5 36.5t-136.5 123.5l-211 340v-477h-305v1481h305v-856zM522 -641l-61 104q28 11 48.5 21.5t45 28.5t38 43.5t13.5 56.5q-71 -18 -117.5 22
t-46.5 113q0 66 44 108t116 42q58 0 99 -29t57 -65.5t16 -73.5q0 -283 -252 -371z" />
    <glyph glyph-name="kgreenlandic" unicode="&#x138;" horiz-adv-x="1179" 
d="M436 690l291 361h322v-70l-381 -449l145 -213q30 -38 56.5 -52.5t72.5 -14.5q65 0 133 53l103 -199q-129 -129 -293 -129q-96 0 -160 35t-115 109l-172 244v-365h-307v1051h305v-361z" />
    <glyph glyph-name="Lacute" unicode="&#x139;" horiz-adv-x="1177" 
d="M487 252h650v-252h-967v1434h317v-1182zM358 1851h322l-279 -315h-221z" />
    <glyph glyph-name="lacute" unicode="&#x13a;" horiz-adv-x="575" 
d="M440 0h-305v1481h305v-1481zM324 1851h321l-270 -286h-221z" />
    <glyph glyph-name="Lcommaaccent" unicode="&#x13b;" horiz-adv-x="1177" 
d="M487 252h650v-252h-967v1434h317v-1182zM532 -641l-61 104q28 11 48.5 21.5t45 28.5t38 43.5t13.5 56.5q-71 -18 -117 21.5t-46 113.5q0 66 43.5 108t115.5 42q58 0 99 -29t57 -65.5t16 -73.5q0 -283 -252 -371z" />
    <glyph glyph-name="lcommaaccent" unicode="&#x13c;" horiz-adv-x="575" 
d="M440 0h-305v1481h305v-1481zM203 -641l-62 104q28 11 48.5 21.5t45.5 28.5t38.5 43.5t13.5 56.5q-71 -18 -117.5 22t-46.5 113q0 66 44 108t116 42q58 0 99 -29t57 -65.5t16 -73.5q0 -283 -252 -371z" />
    <glyph glyph-name="Lcaron" unicode="&#x13d;" horiz-adv-x="1179" 
d="M485 252h650v-252h-967v1434h317v-1182zM791 942l-62 105q29 11 49 21.5t44.5 28t38 43t13.5 56.5q-71 -18 -117 21.5t-46 113.5q0 66 43.5 108t115.5 42q58 0 99 -29t57 -65.5t16 -73.5q0 -57 -11.5 -108t-38 -102.5t-78 -93.5t-123.5 -67z" />
    <glyph glyph-name="lcaron" unicode="&#x13e;" horiz-adv-x="724" 
d="M440 0h-305v1481h305v-1481zM606 942l-61 105q29 11 49 21.5t44.5 28t38 43t13.5 56.5q-71 -18 -117.5 22t-46.5 113q0 66 44 108t116 42q58 0 99 -29t57 -65.5t16 -73.5q0 -57 -11.5 -108t-38.5 -102.5t-78.5 -93.5t-123.5 -67z" />
    <glyph glyph-name="Ldot" unicode="&#x13f;" horiz-adv-x="1204" 
d="M487 252h650v-252h-967v1434h317v-1182zM666 662q0 79 58 133.5t144 54.5t145.5 -55t59.5 -133t-59.5 -133.5t-145.5 -55.5t-144 55t-58 134z" />
    <glyph glyph-name="ldot" unicode="&#x140;" horiz-adv-x="880" 
d="M440 0h-305v1481h305v-1481zM522 623q0 78 58.5 133t144.5 55t145.5 -55t59.5 -133t-59.5 -133.5t-145.5 -55.5t-144.5 55t-58.5 134z" />
    <glyph glyph-name="Lslash" unicode="&#x141;" horiz-adv-x="1183" 
d="M494 252h649v-252h-967v516l-143 -63v192l143 66v723h318v-578l329 152v-197l-329 -152v-407z" />
    <glyph glyph-name="lslash" unicode="&#x142;" horiz-adv-x="712" 
d="M477 0h-305v512l-145 -68v193l145 68v776h305v-633l189 90v-197l-189 -88v-653z" />
    <glyph glyph-name="Nacute" unicode="&#x143;" horiz-adv-x="1529" 
d="M485 872l633 -872h242v1434h-318v-865l-630 865h-244v-1432h317v870zM692 1851h322l-279 -315h-221z" />
    <glyph glyph-name="nacute" unicode="&#x144;" horiz-adv-x="1255" 
d="M131 0v1051h305v-144q119 166 326 166q375 0 375 -502v-571h-306v565q0 117 -47 186.5t-147 69.5q-101 0 -151 -71t-50 -187v-563h-305zM631 1536h321l-303 -354h-221z" />
    <glyph glyph-name="Ncommaaccent" unicode="&#x145;" horiz-adv-x="1529" 
d="M1118 0l-633 872v-870h-317v1432h244l630 -865v865h318v-1434h-242zM678 -641l-62 104q28 11 48.5 21.5t45.5 28.5t38.5 43.5t13.5 56.5q-71 -18 -117.5 22t-46.5 113q0 66 44 108t116 42q58 0 99 -29t57 -65.5t16 -73.5q0 -283 -252 -371z" />
    <glyph glyph-name="ncommaaccent" unicode="&#x146;" horiz-adv-x="1255" 
d="M131 0v1051h305v-144q119 166 326 166q375 0 375 -502v-571h-306v565q0 117 -47 186.5t-147 69.5q-101 0 -151 -71t-50 -187v-563h-305zM541 -641l-62 104q28 11 48.5 21.5t45.5 28.5t38.5 43.5t13.5 56.5q-71 -18 -117.5 22t-46.5 113q0 66 44 108t116 42q58 0 99 -29
t57 -65.5t16 -73.5q0 -283 -252 -371z" />
    <glyph glyph-name="Ncaron" unicode="&#x147;" horiz-adv-x="1529" 
d="M485 872l633 -872h242v1434h-318v-865l-630 865h-244v-1432h317v870zM881 1536h-301l-205 315h209l147 -161l148 161h208z" />
    <glyph glyph-name="ncaron" unicode="&#x148;" horiz-adv-x="1255" 
d="M131 0v1051h305v-144q119 166 326 166q375 0 375 -502v-571h-306v565q0 117 -47 186.5t-147 69.5q-101 0 -151 -71t-50 -187v-563h-305zM780 1182h-301l-215 354h215l152 -188l151 188h215z" />
    <glyph glyph-name="napostrophe" unicode="&#x149;" horiz-adv-x="1482" 
d="M379 0v1051h305v-144q119 166 326 166q374 0 374 -502v-571h-305v565q0 117 -47 186.5t-147 69.5q-101 0 -151 -71t-50 -187v-563h-305zM115 1004l-62 104q29 11 49 21t45 28t38.5 43.5t13.5 56.5q-71 -18 -117.5 22t-46.5 114q0 66 44 107.5t116 41.5q58 0 99 -29
t57 -65.5t16 -73.5q0 -56 -11.5 -107.5t-38.5 -102.5t-78.5 -93t-123.5 -67z" />
    <glyph glyph-name="Eng" unicode="&#x14a;" horiz-adv-x="1529" 
d="M1004 156l-519 716v-870h-317v1432h244l630 -865v865h318v-1313q-26 -601 -596 -623v279q118 0 190 70t84 208q6 45 -34 101z" />
    <glyph glyph-name="eng" unicode="&#x14b;" horiz-adv-x="1253" 
d="M1135 571v-479q0 -267 -142.5 -424.5t-427.5 -169.5v266q121 0 192.5 80t71.5 234v487q0 117 -47 186.5t-147 69.5q-101 0 -151 -71t-50 -187v-563h-305v1051h305v-144q119 166 326 166q375 0 375 -502z" />
    <glyph glyph-name="Omacron" unicode="&#x14c;" horiz-adv-x="1648" 
d="M80 717q0 150 59 287t158.5 236t237.5 157.5t290 58.5q202 0 373 -99t271 -269t100 -371q0 -150 -59 -287t-158.5 -236.5t-237.5 -158t-289 -58.5q-152 0 -290 58.5t-237.5 158t-158.5 236.5t-59 287zM393 717q0 -194 125.5 -321.5t306.5 -127.5t305.5 127.5t124.5 321.5
t-124.5 321t-305.5 127t-306.5 -127t-125.5 -321zM502 1794h645v-211h-645v211z" />
    <glyph glyph-name="omacron" unicode="&#x14d;" horiz-adv-x="1286" 
d="M66 526q0 120 47.5 223.5t126.5 173.5t184 110t219 40t219 -40t184.5 -110.5t127 -174t47.5 -222.5q0 -120 -47.5 -223.5t-127 -174.5t-184.5 -111t-219 -40q-153 0 -284 67.5t-212 194.5t-81 287zM362 526q0 -122 83 -204t198 -82q117 0 199 82t82 204q0 120 -82 202.5
t-199 82.5q-115 0 -198 -82t-83 -203zM319 1448h646v-211h-646v211z" />
    <glyph glyph-name="Obreve" unicode="&#x14e;" horiz-adv-x="1648" 
d="M80 717q0 150 59 287t158.5 236t237.5 157.5t290 58.5q202 0 373 -99t271 -269t100 -371q0 -150 -59 -287t-158.5 -236.5t-237.5 -158t-289 -58.5q-152 0 -290 58.5t-237.5 158t-158.5 236.5t-59 287zM393 717q0 -194 125.5 -321.5t306.5 -127.5t305.5 127.5t124.5 321.5
t-124.5 321t-305.5 127t-306.5 -127t-125.5 -321zM823 1737q56 0 96 33.5t46 105.5l186 -21q-9 -73 -37 -129.5t-63 -88t-78.5 -52t-79 -27t-70.5 -6.5t-70.5 6.5t-79 27t-78 52t-62.5 88t-37 129.5l186 21q6 -72 45.5 -105.5t95.5 -33.5z" />
    <glyph glyph-name="obreve" unicode="&#x14f;" horiz-adv-x="1286" 
d="M66 526q0 120 47.5 223.5t126.5 173.5t184 110t219 40t219 -40t184.5 -110.5t127 -174t47.5 -222.5q0 -120 -47.5 -223.5t-127 -174.5t-184.5 -111t-219 -40q-153 0 -284 67.5t-212 194.5t-81 287zM362 526q0 -122 83 -204t198 -82q117 0 199 82t82 204q0 120 -82 202.5
t-199 82.5q-115 0 -198 -82t-83 -203zM643 1382q51 0 89.5 35t45.5 119l193 -20q-7 -79 -32 -139.5t-58 -95.5t-77 -57t-82 -29t-79 -7t-79 7t-82 29t-77 57t-58 95.5t-32 139.5l193 20q7 -84 45.5 -119t89.5 -35z" />
    <glyph glyph-name="Ohungarumlaut" unicode="&#x150;" horiz-adv-x="1648" 
d="M80 717q0 150 59 287t158.5 236t237.5 157.5t290 58.5q202 0 373 -99t271 -269t100 -371q0 -150 -59 -287t-158.5 -236.5t-237.5 -158t-289 -58.5q-152 0 -290 58.5t-237.5 158t-158.5 236.5t-59 287zM393 717q0 -194 125.5 -321.5t306.5 -127.5t305.5 127.5t124.5 321.5
t-124.5 321t-305.5 127t-306.5 -127t-125.5 -321zM692 1872h226l-209 -316h-189zM1044 1872h226l-232 -316h-196z" />
    <glyph glyph-name="ohungarumlaut" unicode="&#x151;" horiz-adv-x="1286" 
d="M66 526q0 120 47.5 223.5t126.5 173.5t184 110t219 40t219 -40t184.5 -110.5t127 -174t47.5 -222.5q0 -120 -47.5 -223.5t-127 -174.5t-184.5 -111t-219 -40q-153 0 -284 67.5t-212 194.5t-81 287zM362 526q0 -122 83 -204t198 -82q117 0 199 82t82 204q0 120 -82 202.5
t-199 82.5q-115 0 -198 -82t-83 -203zM555 1536h225l-231 -354h-189zM907 1536h226l-254 -354h-197z" />
    <glyph glyph-name="OE" unicode="&#x152;" horiz-adv-x="1918" 
d="M813 252h94v930h-94q-181 0 -299.5 -123.5t-118.5 -321.5q0 -132 54.5 -243t150.5 -176.5t213 -65.5zM1823 0h-1010q-154 0 -290.5 58t-233 157t-152 235t-55.5 287q0 202 95 361.5t261.5 247.5t374.5 88h92h918v-252h-600v-353h516v-251h-516v-326h600v-252z" />
    <glyph glyph-name="oe" unicode="&#x153;" horiz-adv-x="1990" 
d="M1710 352l176 -168q-53 -59 -117.5 -101t-130.5 -64t-124.5 -32t-116.5 -10q-241 0 -396 117q-155 -117 -358 -117q-153 0 -284 67.5t-212 194.5t-81 287q0 120 47.5 223.5t126.5 173.5t184 110t219 40q214 0 365 -121q153 121 366 121q88 0 170.5 -23.5t155 -74
t127 -122t86 -174t31.5 -224.5h-838q5 -101 87 -164.5t226 -63.5q79 0 156 34.5t135 90.5zM362 526q0 -122 83 -204t198 -82q114 0 193 82q-33 85 -33 198q0 112 37 205q-77 86 -197 86q-115 0 -198 -82t-83 -203zM1370 825q-86 0 -158.5 -44.5t-99.5 -141.5h518
q-9 63 -53.5 107t-97.5 61.5t-109 17.5z" />
    <glyph glyph-name="Racute" unicode="&#x154;" horiz-adv-x="1443" 
d="M764 764h-281v403h281q85 0 132.5 -54.5t47.5 -147.5q0 -92 -47.5 -146.5t-132.5 -54.5zM1262 963q0 129 -51.5 234.5t-157 171t-248.5 65.5h-637v-1434h315v510h191q6 -54 21 -115.5t50.5 -138t84.5 -136.5t128.5 -101.5t176.5 -41.5q102 0 171 30t148 93l-113 219
q-61 -61 -145 -61q-52 0 -91.5 20t-67 60t-45.5 85t-34 109q141 44 222.5 160.5t81.5 270.5zM670 1851h321l-278 -315h-221z" />
    <glyph glyph-name="racute" unicode="&#x155;" horiz-adv-x="823" 
d="M428 1051v-230q12 67 46 118.5t78 79t86 41t79 13.5q34 0 78 -8v-301q-60 14 -129 14q-94 0 -162 -54.5t-68 -152.5v-571h-305v1051h297zM365 1536h321l-303 -354h-221z" />
    <glyph glyph-name="Rcommaaccent" unicode="&#x156;" horiz-adv-x="1443" 
d="M483 764h281q85 0 132.5 54.5t47.5 146.5q0 93 -47.5 147.5t-132.5 54.5h-281v-403zM1262 963q0 -154 -81.5 -270.5t-222.5 -160.5q16 -64 34 -109t45.5 -85t67 -60t91.5 -20q84 0 145 61l113 -219q-79 -63 -148 -93t-171 -30q-97 0 -176.5 41.5t-128.5 101.5
t-84.5 136.5t-50.5 138t-21 115.5h-191v-510h-315v1434h637q143 0 248.5 -65.5t157 -171t51.5 -234.5zM655 -641l-61 104q28 11 48.5 21.5t45 28.5t38 43.5t13.5 56.5q-71 -18 -117.5 22t-46.5 113q0 66 44 108t116 42q58 0 99 -29t57 -65.5t16 -73.5q0 -283 -252 -371z" />
    <glyph glyph-name="rcommaaccent" unicode="&#x157;" horiz-adv-x="823" 
d="M428 1051v-230q12 67 46 118.5t78 79t86 41t79 13.5q34 0 78 -8v-301q-60 14 -129 14q-94 0 -162 -54.5t-68 -152.5v-571h-305v1051h297zM213 -641l-61 104q28 11 48.5 21.5t45 28.5t38 43.5t13.5 56.5q-71 -18 -117.5 22t-46.5 113q0 66 44 108t116 42q58 0 99 -29
t57 -65.5t16 -73.5q0 -283 -252 -371z" />
    <glyph glyph-name="Rcaron" unicode="&#x158;" horiz-adv-x="1443" 
d="M764 764h-281v403h281q85 0 132.5 -54.5t47.5 -147.5q0 -92 -47.5 -146.5t-132.5 -54.5zM1262 963q0 129 -51.5 234.5t-157 171t-248.5 65.5h-637v-1434h315v510h191q6 -54 21 -115.5t50.5 -138t84.5 -136.5t128.5 -101.5t176.5 -41.5q102 0 171 30t148 93l-113 219
q-61 -61 -145 -61q-52 0 -91.5 20t-67 60t-45.5 85t-34 109q141 44 222.5 160.5t81.5 270.5zM793 1536h-301l-205 315h209l147 -161l148 161h208z" />
    <glyph glyph-name="rcaron" unicode="&#x159;" horiz-adv-x="823" 
d="M428 1051v-230q12 67 46 118.5t78 79t86 41t79 13.5q34 0 78 -8v-301q-60 14 -129 14q-94 0 -162 -54.5t-68 -152.5v-571h-305v1051h297zM588 1182h-301l-215 354h215l151 -188l152 188h215z" />
    <glyph glyph-name="Sacute" unicode="&#x15a;" horiz-adv-x="1206" 
d="M57 399l283 56q60 -197 260 -197q94 0 154.5 36.5t60.5 111.5q0 46 -35.5 83t-130.5 70l-155 53q-91 31 -159.5 75t-106.5 87.5t-61.5 94t-30.5 89.5t-7 80q0 191 134.5 304.5t348.5 113.5q167 0 291 -79.5t189 -233.5l-258 -129q-66 162 -222 162q-79 0 -126.5 -33
t-47.5 -101q0 -99 154 -153l151 -53q92 -28 162 -69.5t110.5 -84.5t66 -93.5t34 -92t8.5 -84.5q0 -109 -44.5 -194.5t-118.5 -136.5t-163.5 -77.5t-187.5 -26.5q-138 0 -257.5 49t-201 146.5t-94.5 226.5zM598 1851h322l-279 -315h-221z" />
    <glyph glyph-name="sacute" unicode="&#x15b;" horiz-adv-x="987" 
d="M561 1536h322l-303 -354h-222zM49 246l221 125q23 -83 85 -120.5t137 -37.5q56 0 96.5 20.5t40.5 59.5q0 26 -17.5 44.5t-60.5 35.5l-184 78q-71 24 -123 60t-78 69t-41 71t-18 59.5t-3 41.5q0 102 57 176t149 109.5t206 35.5q265 0 379 -221l-236 -109q-35 101 -149 101
q-46 0 -81.5 -23.5t-35.5 -62.5q0 -32 24 -50.5t75 -39.5l157 -62q71 -20 123.5 -52.5t79.5 -64.5t43.5 -70.5t20.5 -64t4 -51.5q0 -154 -124 -240t-307 -86q-65 0 -126 12t-124.5 40t-113.5 83.5t-76 133.5z" />
    <glyph glyph-name="Scircumflex" unicode="&#x15c;" horiz-adv-x="1206" 
d="M57 399l283 56q60 -197 260 -197q94 0 154.5 36.5t60.5 111.5q0 46 -35.5 83t-130.5 70l-155 53q-91 31 -159.5 75t-106.5 87.5t-61.5 94t-30.5 89.5t-7 80q0 191 134.5 304.5t348.5 113.5q167 0 291 -79.5t189 -233.5l-258 -129q-66 162 -222 162q-79 0 -126.5 -33
t-47.5 -101q0 -99 154 -153l151 -53q92 -28 162 -69.5t110.5 -84.5t66 -93.5t34 -92t8.5 -84.5q0 -109 -44.5 -194.5t-118.5 -136.5t-163.5 -77.5t-187.5 -26.5q-138 0 -257.5 49t-201 146.5t-94.5 226.5zM436 1851h301l207 -315h-209l-147 162l-148 -162h-209z" />
    <glyph glyph-name="scircumflex" unicode="&#x15d;" horiz-adv-x="985" 
d="M342 1536h301l217 -354h-215l-151 188l-152 -188h-215zM49 246l221 125q23 -83 85 -120.5t137 -37.5q56 0 96.5 20.5t40.5 59.5q0 26 -17.5 44.5t-60.5 35.5l-184 78q-71 24 -123 60t-78 69t-41 71t-18 59.5t-3 41.5q0 102 57 176t149 109.5t206 35.5q265 0 379 -221
l-236 -109q-35 101 -149 101q-46 0 -81.5 -23.5t-35.5 -62.5q0 -32 24 -50.5t75 -39.5l157 -62q71 -20 123.5 -52.5t79.5 -64.5t43.5 -70.5t20.5 -64t4 -51.5q0 -154 -124 -240t-307 -86q-65 0 -126 12t-124.5 40t-113.5 83.5t-76 133.5z" />
    <glyph glyph-name="Scedilla" unicode="&#x15e;" horiz-adv-x="1206" 
d="M727 -12q104 -101 104 -211q0 -67 -28 -116.5t-72 -75.5t-88.5 -38t-87.5 -12q-115 0 -197 63.5t-127 165.5l156 72q50 -108 129 -108q98 0 98 100q0 15 -5.5 36.5t-17.5 48.5t-37.5 48t-59.5 27q-177 30 -297 137.5t-140 273.5l283 56q60 -197 260 -197q94 0 154.5 36.5
t60.5 111.5q0 46 -35.5 83t-130.5 70l-155 53q-91 31 -159.5 75t-106.5 87.5t-61.5 94t-30.5 89.5t-7 80q0 191 134.5 304.5t348.5 113.5q167 0 291 -79.5t189 -233.5l-258 -129q-66 162 -222 162q-79 0 -126.5 -33t-47.5 -101q0 -99 154 -153l151 -53q92 -28 162 -69.5
t110.5 -84.5t66 -93.5t34 -92t8.5 -84.5q0 -91 -32.5 -167t-88.5 -127.5t-126 -84t-150 -45.5z" />
    <glyph glyph-name="scedilla" unicode="&#x15f;" horiz-adv-x="987" 
d="M516 1073q265 0 379 -221l-236 -109q-35 101 -149 101q-46 0 -81.5 -23.5t-35.5 -62.5q0 -32 24 -50.5t75 -39.5l157 -62q71 -20 123.5 -52.5t79.5 -64.5t43.5 -70.5t20.5 -64t4 -51.5q0 -124 -79 -202.5t-210 -106.5q57 -51 84.5 -108.5t27.5 -108.5q0 -67 -28 -116.5
t-72 -75.5t-88.5 -38t-87.5 -12q-115 0 -197 63.5t-127 165.5l156 72q50 -108 129 -108q98 0 98 100q0 21 -8.5 50.5t-36 63t-67.5 40.5q-290 32 -365 264l221 125q23 -83 85 -120.5t137 -37.5q56 0 96.5 20.5t40.5 59.5q0 26 -17.5 44.5t-60.5 35.5l-184 78q-71 24 -123 60
t-78 69t-41 71t-18 59.5t-3 41.5q0 102 57 176t149 109.5t206 35.5z" />
    <glyph glyph-name="Scaron" unicode="&#x160;" horiz-adv-x="1206" 
d="M57 399l283 56q60 -197 260 -197q94 0 154.5 36.5t60.5 111.5q0 46 -35.5 83t-130.5 70l-155 53q-91 31 -159.5 75t-106.5 87.5t-61.5 94t-30.5 89.5t-7 80q0 191 134.5 304.5t348.5 113.5q167 0 291 -79.5t189 -233.5l-258 -129q-66 162 -222 162q-79 0 -126.5 -33
t-47.5 -101q0 -99 154 -153l151 -53q92 -28 162 -69.5t110.5 -84.5t66 -93.5t34 -92t8.5 -84.5q0 -109 -44.5 -194.5t-118.5 -136.5t-163.5 -77.5t-187.5 -26.5q-138 0 -257.5 49t-201 146.5t-94.5 226.5zM729 1536h-301l-205 315h209l148 -161l147 161h209z" />
    <glyph glyph-name="scaron" unicode="&#x161;" horiz-adv-x="985" 
d="M649 1182h-301l-215 354h215l152 -188l151 188h215zM49 246l221 125q23 -83 85 -120.5t137 -37.5q56 0 96.5 20.5t40.5 59.5q0 26 -17.5 44.5t-60.5 35.5l-184 78q-71 24 -123 60t-78 69t-41 71t-18 59.5t-3 41.5q0 102 57 176t149 109.5t206 35.5q265 0 379 -221
l-236 -109q-35 101 -149 101q-46 0 -81.5 -23.5t-35.5 -62.5q0 -32 24 -50.5t75 -39.5l157 -62q71 -20 123.5 -52.5t79.5 -64.5t43.5 -70.5t20.5 -64t4 -51.5q0 -154 -124 -240t-307 -86q-65 0 -126 12t-124.5 40t-113.5 83.5t-76 133.5z" />
    <glyph glyph-name="Tcommaaccent" unicode="&#x162;" horiz-adv-x="1222" 
d="M49 1434h1125v-267h-408v-1167h-313v1167h-404v267zM524 -641l-61 104q28 11 48.5 21.5t45 28.5t38 43.5t13.5 56.5q-71 -18 -117.5 22t-46.5 113q0 66 44 108t116 42q58 0 99 -29t57 -65.5t16 -73.5q0 -283 -252 -371z" />
    <glyph glyph-name="tcommaaccent" unicode="&#x163;" horiz-adv-x="937" 
d="M508 1309v-258h291v-240h-291v-492q0 -40 18.5 -66t59.5 -26t60.5 28.5t19.5 70.5q0 50 -15 90h242q25 -54 25 -125q0 -61 -20.5 -115.5t-61.5 -99.5t-110.5 -72t-158.5 -27q-60 0 -109.5 9t-98.5 34.5t-82 66t-53.5 107t-20.5 154.5v463h-158v240h180l47 258h236z
M420 -641l-62 104q28 11 48.5 21.5t45.5 28.5t38.5 43.5t13.5 56.5q-71 -18 -117.5 22t-46.5 113q0 66 44 108t116 42q58 0 99 -29t57 -65.5t16 -73.5q0 -283 -252 -371z" />
    <glyph glyph-name="Tcaron" unicode="&#x164;" horiz-adv-x="1222" 
d="M49 1434h1125v-267h-408v-1167h-313v1167h-404v267zM764 1536h-301l-205 315h209l147 -161l148 161h209z" />
    <glyph glyph-name="tcaron" unicode="&#x165;" horiz-adv-x="974" 
d="M508 1309v-258h291v-240h-291v-492q0 -40 18.5 -66t59.5 -26t60.5 28.5t19.5 70.5q0 50 -15 90h242q25 -54 25 -125q0 -61 -20.5 -115.5t-61.5 -99.5t-110.5 -72t-158.5 -27q-60 0 -109.5 9t-98.5 34.5t-82 66t-53.5 107t-20.5 154.5v463h-158v240h180l47 258h236z
M928 997l-62 105q56 22 91.5 56t35.5 93q-71 -18 -117.5 22t-46.5 113q0 66 44 108t116 42q58 0 99 -29t57 -65.5t16 -73.5q0 -284 -233 -371z" />
    <glyph glyph-name="Tbar" unicode="&#x166;" horiz-adv-x="1249" 
d="M780 1167v-350h273v-168h-273v-649h-313v649h-272v168h272v350h-404v267h1125v-267h-408z" />
    <glyph glyph-name="tbar" unicode="&#x167;" horiz-adv-x="937" 
d="M82 514v145h121v152h-158v240h180l47 258h236v-258h291v-240h-291v-152h229v-145h-229v-195q0 -40 18.5 -66t59.5 -26t60.5 28.5t19.5 70.5q0 50 -15 90h242q25 -54 25 -125q0 -61 -20.5 -115.5t-61.5 -99.5t-110.5 -72t-158.5 -27q-60 0 -109.5 9t-98.5 34.5t-82 66
t-53.5 107t-20.5 154.5v166h-121z" />
    <glyph glyph-name="Utilde" unicode="&#x168;" horiz-adv-x="1492" 
d="M1022 1434h317v-891q0 -135 -47.5 -243.5t-129 -178.5t-188.5 -107t-229 -37t-228.5 37t-187.5 107t-128 178.5t-47 243.5v891h317v-891q0 -143 78.5 -221t195.5 -78t197 78.5t80 220.5v891zM983 1855l154 -45q-35 -125 -88.5 -187t-147.5 -62q-65 0 -161 34.5t-124 34.5
q-41 0 -63 -20t-45 -68l-154 45q35 125 88.5 187.5t147.5 62.5q65 0 160.5 -35t123.5 -35q41 0 64 20.5t45 67.5z" />
    <glyph glyph-name="utilde" unicode="&#x169;" horiz-adv-x="1257" 
d="M1124 1051v-1051h-305v143q-119 -166 -325 -166q-375 0 -375 502v572h305v-566q0 -117 47 -186.5t147 -69.5q101 0 151 71t50 187v564h305zM793 1202q-44 0 -90.5 17.5t-78.5 39t-65 39t-53 17.5q-49 0 -49 -72q0 -32 4 -41h-170q-12 47 -12 90q0 95 50.5 161.5
t133.5 66.5q39 0 91 -26t101.5 -52.5t81.5 -26.5q56 0 56 68q0 2 -5 37h175q14 -41 14 -99q0 -83 -53 -151t-131 -68z" />
    <glyph glyph-name="Umacron" unicode="&#x16a;" horiz-adv-x="1492" 
d="M1022 1434h317v-891q0 -135 -47.5 -243.5t-129 -178.5t-188.5 -107t-229 -37t-228.5 37t-187.5 107t-128 178.5t-47 243.5v891h317v-891q0 -143 78.5 -221t195.5 -78t197 78.5t80 220.5v891zM424 1794h645v-211h-645v211z" />
    <glyph glyph-name="umacron" unicode="&#x16b;" horiz-adv-x="1257" 
d="M1124 1051v-1051h-305v143q-119 -166 -325 -166q-375 0 -375 502v572h305v-566q0 -117 47 -186.5t147 -69.5q101 0 151 71t50 187v564h305zM305 1448h645v-211h-645v211z" />
    <glyph glyph-name="Ubreve" unicode="&#x16c;" horiz-adv-x="1492" 
d="M1022 1434h317v-891q0 -135 -47.5 -243.5t-129 -178.5t-188.5 -107t-229 -37t-228.5 37t-187.5 107t-128 178.5t-47 243.5v891h317v-891q0 -143 78.5 -221t195.5 -78t197 78.5t80 220.5v891zM745 1737q56 0 96 33.5t46 105.5l186 -21q-9 -73 -37 -129.5t-63 -88
t-78.5 -52t-79 -27t-70.5 -6.5t-70.5 6.5t-79 27t-78 52t-62.5 88t-37 129.5l186 21q6 -72 45.5 -105.5t95.5 -33.5z" />
    <glyph glyph-name="ubreve" unicode="&#x16d;" horiz-adv-x="1257" 
d="M1124 1051v-1051h-305v143q-119 -166 -325 -166q-375 0 -375 502v572h305v-566q0 -117 47 -186.5t147 -69.5q101 0 151 71t50 187v564h305zM627 1382q51 0 89.5 35t45.5 119l192 -20q-7 -79 -32 -139.5t-58 -95.5t-76.5 -57t-81.5 -29t-79 -7t-79 7t-82 29t-77 57
t-58 95.5t-32 139.5l193 20q7 -84 45.5 -119t89.5 -35z" />
    <glyph glyph-name="Uring" unicode="&#x16e;" horiz-adv-x="1492" 
d="M1022 1434h317v-891q0 -135 -47.5 -243.5t-129 -178.5t-188.5 -107t-229 -37t-228.5 37t-187.5 107t-128 178.5t-47 243.5v891h317v-891q0 -143 78.5 -221t195.5 -78t197 78.5t80 220.5v891zM494 1755q0 103 71.5 162t179.5 59q110 0 182 -59t72 -162q0 -101 -72.5 -160
t-181.5 -59q-108 0 -179.5 59t-71.5 160zM635 1755q0 -45 30 -67.5t80 -22.5t80.5 22.5t30.5 67.5t-30.5 66.5t-80.5 21.5t-80 -21.5t-30 -66.5z" />
    <glyph glyph-name="uring" unicode="&#x16f;" horiz-adv-x="1257" 
d="M1124 1051v-1051h-305v143q-119 -166 -325 -166q-375 0 -375 502v572h305v-566q0 -117 47 -186.5t147 -69.5q101 0 151 71t50 187v564h305zM375 1397q0 104 73 170.5t179 66.5q108 0 181 -66.5t73 -170.5q0 -103 -73.5 -169.5t-180.5 -66.5q-106 0 -179 66.5t-73 169.5z
M516 1397q0 -47 31.5 -77t79.5 -30t79 30t31 77t-31 75.5t-79 28.5t-79.5 -28.5t-31.5 -75.5z" />
    <glyph glyph-name="Uhungarumlaut" unicode="&#x170;" horiz-adv-x="1492" 
d="M1022 1434h317v-891q0 -135 -47.5 -243.5t-129 -178.5t-188.5 -107t-229 -37t-228.5 37t-187.5 107t-128 178.5t-47 243.5v891h317v-891q0 -143 78.5 -221t195.5 -78t197 78.5t80 220.5v891zM588 1872h225l-209 -316h-188zM940 1872h225l-231 -316h-197z" />
    <glyph glyph-name="uhungarumlaut" unicode="&#x171;" horiz-adv-x="1257" 
d="M1124 1051v-1051h-305v143q-119 -166 -325 -166q-375 0 -375 502v572h305v-566q0 -117 47 -186.5t147 -69.5q101 0 151 71t50 187v564h305zM500 1536h225l-231 -354h-189zM852 1536h225l-254 -354h-196z" />
    <glyph glyph-name="Uogonek" unicode="&#x172;" horiz-adv-x="1492" 
d="M838 -16q-84 -45 -84 -156q0 -100 98 -100q79 0 129 108l156 -72q-45 -102 -127 -165.5t-197 -63.5q-43 0 -87.5 12t-88.5 38t-72 75.5t-28 116.5q0 120 100 209q-103 15 -190.5 58t-153 111.5t-102.5 168t-37 219.5v891h317v-891q0 -143 78.5 -221t195.5 -78t197 78.5
t80 220.5v891h317v-891q0 -122 -39 -223t-107.5 -170t-158.5 -111t-196 -55z" />
    <glyph glyph-name="uogonek" unicode="&#x173;" horiz-adv-x="1257" 
d="M1124 1051v-1051q-61 0 -108 -14t-72 -34t-40.5 -45.5t-20 -44t-4.5 -34.5q0 -100 98 -100q79 0 129 108l156 -72q-45 -102 -127 -165.5t-197 -63.5q-43 0 -87.5 12t-88.5 38t-72 75.5t-28 116.5q0 19 3.5 39t16.5 56.5t48 74.5t89 69v127q-119 -166 -325 -166
q-375 0 -375 502v572h305v-566q0 -117 47 -186.5t147 -69.5q101 0 151 71t50 187v564h305z" />
    <glyph glyph-name="Wcircumflex" unicode="&#x174;" horiz-adv-x="2039" 
d="M1139 1386l262 -831l268 879h324l-451 -1434h-252l-270 868l-270 -868h-252l-451 1434h324l268 -879l264 831h236zM868 1851h301l207 -315h-209l-147 162l-148 -162h-208z" />
    <glyph glyph-name="wcircumflex" unicode="&#x175;" horiz-adv-x="1699" 
d="M743 1022l-190 -604l-182 633h-336l82 -240l293 -811h260l180 596l180 -596h260l293 811l82 240h-336l-182 -633l-191 604h-213zM698 1536h301l218 -354h-216l-151 188l-152 -188h-215z" />
    <glyph glyph-name="Ycircumflex" unicode="&#x176;" horiz-adv-x="1492" 
d="M745 874h3l339 560h369v-41l-551 -805v-588h-317v584l-551 809v41h369zM594 1851h301l207 -315h-209l-148 162l-147 -162h-209z" />
    <glyph glyph-name="ycircumflex" unicode="&#x177;" 
d="M616 393l250 658h336l-680 -1530h-307l240 567l-432 963h344zM449 1536h301l217 -354h-215l-152 188l-151 -188h-216z" />
    <glyph glyph-name="Ydieresis" unicode="&#x178;" horiz-adv-x="1492" 
d="M745 874h3l339 560h369v-41l-551 -805v-588h-317v584l-551 809v41h369zM317 1692q0 71 48 112t127 41q76 0 125 -41.5t49 -111.5q0 -68 -49.5 -109t-124.5 -41q-79 0 -127 41t-48 109zM825 1692q0 71 48 112t124 41q77 0 127 -41.5t50 -111.5q0 -68 -50 -109t-127 -41
q-76 0 -124 41t-48 109z" />
    <glyph glyph-name="Zacute" unicode="&#x179;" horiz-adv-x="1376" 
d="M1313 0v252h-834l783 975v207h-1143v-252h717l-777 -977v-205h1254zM678 1851h321l-278 -315h-221z" />
    <glyph glyph-name="zacute" unicode="&#x17a;" horiz-adv-x="1198" 
d="M1133 244v-244h-1067v178l589 633h-561v240h1004v-181l-588 -626h623zM627 1536h321l-303 -354h-221z" />
    <glyph glyph-name="Zdotaccent" unicode="&#x17b;" horiz-adv-x="1376" 
d="M1313 0v252h-834l783 975v207h-1143v-252h717l-777 -977v-205h1254zM487 1698q0 71 49.5 112t129.5 41q76 0 127 -41.5t51 -111.5q0 -67 -51 -108.5t-127 -41.5q-79 0 -129 41t-50 109z" />
    <glyph glyph-name="zdotaccent" unicode="&#x17c;" horiz-adv-x="1198" 
d="M1133 244v-244h-1067v178l589 633h-561v240h1004v-181l-588 -626h623zM422 1360q0 72 50 119t128 47q74 0 126 -47.5t52 -118.5q0 -69 -52 -115.5t-126 -46.5q-77 0 -127.5 46.5t-50.5 115.5z" />
    <glyph glyph-name="Zcaron" unicode="&#x17d;" horiz-adv-x="1376" 
d="M1313 0v252h-834l783 975v207h-1143v-252h717l-777 -977v-205h1254zM844 1536h-301l-205 315h209l147 -161l148 161h209z" />
    <glyph glyph-name="zcaron" unicode="&#x17e;" horiz-adv-x="1198" 
d="M1133 244v-244h-1067v178l589 633h-561v240h1004v-181l-588 -626h623zM754 1182h-301l-215 354h215l151 -188l152 188h215z" />
    <glyph glyph-name="longs" unicode="&#x17f;" horiz-adv-x="686" 
d="M512 1161v-1161h-305v811h-148v231h148v70q0 110 30 189t83 121.5t114.5 61.5t136.5 19q89 0 156.5 -26.5t105.5 -72t56 -99.5t18 -115q0 -34 -10 -57h-235q8 8 8 34q0 41 -19.5 67t-60.5 26t-59.5 -29t-18.5 -70z" />
    <glyph glyph-name="florin" unicode="&#x192;" horiz-adv-x="860" 
d="M539 625v-736q0 -110 -30 -189t-83.5 -121.5t-115 -61.5t-136.5 -19q-56 0 -124 13.5t-103 31.5l98 224q17 -10 44.5 -17.5t45.5 -7.5q98 0 98 98v785h-147v231h147v256q0 110 30 189t83.5 121.5t115 61.5t136.5 19q56 0 124 -13.5t103 -31.5l-98 -223q-17 10 -44.5 17.5
t-45.5 7.5q-98 0 -98 -99v-305h235v-231h-235z" />
    <glyph glyph-name="Aringacute" unicode="&#x1fa;" horiz-adv-x="1443" 
d="M877 1427l559 -1427h-332l-103 268v-4h-563v4l-98 -268h-328l549 1423q-96 57 -96 176q0 149 143 199l109 211h270l-168 -209q71 -24 111.5 -75t40.5 -126q0 -114 -94 -172zM721 1098l-197 -574h387zM606 1599q0 -83 111 -83q110 0 110 83q0 82 -110 82q-111 0 -111 -82z
" />
    <glyph glyph-name="aringacute" unicode="&#x1fb;" horiz-adv-x="1347" 
d="M911 1051h306v-1051h-306v154q-61 -87 -139 -132t-190 -45q-155 0 -273 74.5t-178.5 199.5t-60.5 279q0 112 33.5 209.5t95.5 172.5t159 118t217 43q102 0 191 -45.5t145 -120.5v144zM375 528q0 -131 73 -217t197 -86q118 0 196.5 75.5t78.5 211.5q0 145 -78 229t-205 84
q-122 0 -192 -85t-70 -212zM674 1825h270l-172 -228q71 -24 111.5 -74.5t40.5 -125.5q0 -101 -72 -157t-182 -56q-109 0 -180.5 56t-71.5 157q0 148 143 198zM559 1397q0 -84 111 -84q110 0 110 84q0 82 -110 82q-111 0 -111 -82z" />
    <glyph glyph-name="AEacute" unicode="&#x1fc;" horiz-adv-x="1865" 
d="M748 1434l-762 -1434h333q237 442 283 537h277v-537h890v252h-573v303h490v252h-490v375h573v252h-1021zM879 786h-162l162 334v-334zM1124 1851h322l-279 -315h-221z" />
    <glyph glyph-name="aeacute" unicode="&#x1fd;" horiz-adv-x="1908" 
d="M1038 1536h322l-303 -354h-221zM506 657q134 0 278 -43v27q0 44 -21.5 79t-54.5 55.5t-68 31t-65 10.5h-13.5h-20t-25 -1t-31 -2.5t-34 -5t-38.5 -8.5t-40.5 -12.5t-43.5 -17.5t-44 -23.5t-45 -29.5l-113 192q164 164 467 164q248 0 371 -153q124 153 360 153
q111 0 206.5 -38t169 -111.5t115.5 -193t42 -271.5h-789q5 -106 80 -169t231 -63q92 0 147.5 31.5t106.5 93.5l176 -168q-107 -117 -213 -162t-239 -45q-288 0 -457 177q-93 -96 -196 -136.5t-226 -40.5q-84 0 -159 22.5t-133.5 65t-93 110t-34.5 151.5q0 147 125 239
t322 92zM1331 827q-85 0 -152.5 -43.5t-93.5 -140.5h469q-13 96 -74.5 140t-148.5 44zM768 453q-111 30 -203 30q-58 0 -98.5 -13t-60.5 -34.5t-28.5 -43.5t-8.5 -46q0 -54 43 -86.5t118 -32.5q163 0 269 95q-29 80 -31 131z" />
    <glyph glyph-name="Oslashacute" unicode="&#x1fe;" horiz-adv-x="1648" 
d="M864 1851h322l-279 -315h-221zM391 -109l-158 109l105 156q-121 107 -189.5 252t-68.5 309q0 150 59 287t158.5 236t237.5 157.5t290 58.5q173 0 336 -80l99 146l157 -109l-98 -145q119 -105 184.5 -246.5t65.5 -304.5q0 -150 -59 -287t-158.5 -236.5t-237.5 -158
t-289 -58.5q-171 0 -325 74zM393 717q0 -181 115 -309l487 722q-81 35 -170 35q-181 0 -306.5 -127t-125.5 -321zM1255 717q0 171 -106 299l-483 -719q82 -29 159 -29q181 0 305.5 127.5t124.5 321.5z" />
    <glyph glyph-name="oslashacute" unicode="&#x1ff;" horiz-adv-x="1286" 
d="M766 1536h321l-303 -354h-221zM66 526q0 120 47.5 223.5t126.5 173.5t184 110t219 40q164 0 305 -80l113 127l125 -116l-105 -117q140 -153 140 -361q0 -120 -47.5 -223.5t-127 -174.5t-184.5 -111t-219 -40q-165 0 -299 76l-115 -129l-125 117l105 117
q-143 156 -143 368zM362 526q0 -84 39 -149l361 405q-63 29 -119 29q-115 0 -198 -82t-83 -203zM924 526q0 81 -37 142l-359 -404q52 -24 115 -24q117 0 199 82t82 204z" />
    <glyph glyph-name="Scommaaccent" unicode="&#x218;" horiz-adv-x="1206" 
d="M57 399l283 56q60 -197 260 -197q94 0 154.5 36.5t60.5 111.5q0 46 -35.5 83t-130.5 70l-155 53q-91 31 -159.5 75t-106.5 87.5t-61.5 94t-30.5 89.5t-7 80q0 191 134.5 304.5t348.5 113.5q167 0 291 -79.5t189 -233.5l-258 -129q-66 162 -222 162q-79 0 -126.5 -33
t-47.5 -101q0 -99 154 -153l151 -53q92 -28 162 -69.5t110.5 -84.5t66 -93.5t34 -92t8.5 -84.5q0 -109 -44.5 -194.5t-118.5 -136.5t-163.5 -77.5t-187.5 -26.5q-138 0 -257.5 49t-201 146.5t-94.5 226.5zM524 -641l-61 104q28 11 48.5 21.5t45 28.5t38 43.5t13.5 56.5
q-71 -18 -117.5 22t-46.5 113q0 66 44 108t116 42q58 0 99 -29t57 -65.5t16 -73.5q0 -283 -252 -371z" />
    <glyph glyph-name="scommaaccent" unicode="&#x219;" horiz-adv-x="985" 
d="M399 -641l-61 104q28 11 48.5 21.5t45 28.5t38 43.5t13.5 56.5q-71 -18 -117.5 22t-46.5 113q0 66 44 108t116 42q58 0 99 -29t57 -65.5t16 -73.5q0 -283 -252 -371zM49 246l221 125q23 -83 85 -120.5t137 -37.5q56 0 96.5 20.5t40.5 59.5q0 26 -17.5 44.5t-60.5 35.5
l-184 78q-71 24 -123 60t-78 69t-41 71t-18 59.5t-3 41.5q0 102 57 176t149 109.5t206 35.5q265 0 379 -221l-236 -109q-35 101 -149 101q-46 0 -81.5 -23.5t-35.5 -62.5q0 -32 24 -50.5t75 -39.5l157 -62q71 -20 123.5 -52.5t79.5 -64.5t43.5 -70.5t20.5 -64t4 -51.5
q0 -154 -124 -240t-307 -86q-65 0 -126 12t-124.5 40t-113.5 83.5t-76 133.5z" />
    <glyph glyph-name="uni021A" unicode="&#x21a;" horiz-adv-x="1222" 
d="M766 0h-47q59 -51 88 -110t29 -113q0 -67 -28 -116.5t-72.5 -75.5t-89 -38t-87.5 -12q-115 0 -196.5 63.5t-126.5 165.5l155 72q50 -108 129 -108q98 0 98 100q0 15 -4 33t-14 44.5t-34 52t-58 42.5h-55v1167h-404v267h1125v-267h-408v-1167z" />
    <glyph glyph-name="uni021B" unicode="&#x21b;" horiz-adv-x="937" 
d="M657 -14q101 -93 101 -209q0 -67 -28 -116.5t-72.5 -75.5t-89 -38t-87.5 -12q-115 0 -196.5 63.5t-126.5 165.5l155 72q50 -108 129 -108q99 0 99 100q0 13 -4.5 33t-14.5 47.5t-32.5 51t-53.5 32.5q-233 59 -233 356v463h-158v240h180l47 258h236v-258h291v-240h-291
v-492q0 -40 18.5 -66t59.5 -26t60.5 28.5t19.5 70.5q0 50 -15 90h242q25 -54 25 -125q0 -52 -16 -100.5t-47 -90t-82 -72t-116 -42.5z" />
    <glyph glyph-name="circumflex" unicode="&#x2c6;" horiz-adv-x="1327" 
d="M512 1536h301l217 -354h-215l-151 188l-152 -188h-215z" />
    <glyph glyph-name="caron" unicode="&#x2c7;" horiz-adv-x="1327" 
d="M813 1182h-301l-215 354h215l152 -188l151 188h215z" />
    <glyph glyph-name="uni02C9" unicode="&#x2c9;" horiz-adv-x="1054" 
d="M205 1448h645v-211h-645v211z" />
    <glyph glyph-name="breve" unicode="&#x2d8;" horiz-adv-x="970" 
d="M469 1382q51 0 89.5 35t45.5 119l193 -20q-7 -79 -32 -139.5t-58 -95.5t-77 -57t-82 -29t-79 -7t-79 7t-82 29t-77 57t-58 95.5t-32 139.5l193 20q7 -84 45.5 -119t89.5 -35z" />
    <glyph glyph-name="dotaccent" unicode="&#x2d9;" horiz-adv-x="765" 
d="M205 1360q0 72 50 119t128 47q74 0 126 -47.5t52 -118.5q0 -69 -52 -115.5t-126 -46.5q-77 0 -127.5 46.5t-50.5 115.5z" />
    <glyph glyph-name="ring" unicode="&#x2da;" horiz-adv-x="915" 
d="M205 1397q0 104 73 170.5t179 66.5q108 0 181 -66.5t73 -170.5q0 -103 -73.5 -169.5t-180.5 -66.5q-106 0 -179 66.5t-73 169.5zM346 1397q0 -47 31.5 -77t79.5 -30t79 30t31 77t-31 75.5t-79 28.5t-79.5 -28.5t-31.5 -75.5z" />
    <glyph glyph-name="ogonek" unicode="&#x2db;" horiz-adv-x="931" 
d="M532 61v-41q-51 -15 -86 -42.5t-49.5 -58.5t-20 -52.5t-5.5 -38.5q0 -100 98 -100q79 0 129 108l156 -72q-45 -102 -127 -165.5t-197 -63.5q-43 0 -87.5 12t-88.5 38t-72 75.5t-28 116.5q0 76 54.5 157.5t166.5 126.5h157z" />
    <glyph glyph-name="tilde" unicode="&#x2dc;" horiz-adv-x="1015" 
d="M745 1511l154 -45q-35 -125 -88 -187t-147 -62q-65 0 -161 34.5t-124 34.5q-41 0 -64 -20.5t-45 -67.5l-153 45q35 125 88 187.5t147 62.5q65 0 161 -35t124 -35q41 0 63 20t45 68z" />
    <glyph glyph-name="hungarumlaut" unicode="&#x2dd;" horiz-adv-x="1189" 
d="M403 1536h226l-232 -354h-188zM756 1536h225l-254 -354h-197z" />
    <glyph glyph-name="uni0394" unicode="&#x394;" horiz-adv-x="1609" 
d="M82 0l571 1434h324l545 -1434h-1440zM811 1085l-307 -833h602z" />
    <glyph glyph-name="uni03A9" unicode="&#x3a9;" horiz-adv-x="1662" 
d="M831 1196q-182 0 -299.5 -124t-117.5 -324q0 -174 99.5 -309.5t270.5 -192.5v-246h-665v252h268q-115 44 -202 195t-87 305q0 144 53 272.5t147 223.5t232.5 150.5t300.5 55.5t300.5 -55.5t233 -150.5t147.5 -223.5t53 -272.5q0 -154 -87 -305t-202 -195h268v-252h-665
v246q171 57 270.5 192.5t99.5 309.5q0 200 -118 324t-300 124z" />
    <glyph glyph-name="uni03BC" unicode="&#x3bc;" horiz-adv-x="1271" 
d="M133 -336v1387h305v-566q0 -117 47.5 -186.5t147.5 -69.5q101 0 151 71t50 187v564h305v-1051h-305v143q-119 -166 -326 -166q-50 0 -90 9v-322h-285z" />
    <glyph glyph-name="pi" unicode="&#x3c0;" horiz-adv-x="1396" 
d="M649 348v465h-129v-813h-303v813h-160v238h1114v-238h-217v-494q0 -40 18.5 -66t59.5 -26t60.5 28.5t19.5 70.5q0 53 -14 90h241q25 -54 25 -125q0 -61 -20.5 -115.5t-61 -99.5t-110 -72t-158.5 -27q-76 0 -136.5 16t-114.5 55t-84 115t-30 185z" />
    <glyph glyph-name="Wgrave" unicode="&#x1e80;" horiz-adv-x="2039" 
d="M1139 1386l262 -831l268 879h324l-451 -1434h-252l-270 868l-270 -868h-252l-451 1434h324l268 -879l264 831h236zM653 1851h322l178 -315h-221z" />
    <glyph glyph-name="wgrave" unicode="&#x1e81;" horiz-adv-x="1699" 
d="M743 1022l-190 -604l-182 633h-336l82 -240l293 -811h260l180 596l180 -596h260l293 811l82 240h-336l-182 -633l-191 604h-213zM422 1536h321l203 -354h-221z" />
    <glyph glyph-name="Wacute" unicode="&#x1e82;" horiz-adv-x="2039" 
d="M1139 1386l262 -831l268 879h324l-451 -1434h-252l-270 868l-270 -868h-252l-451 1434h324l268 -879l264 831h236zM1059 1851h321l-278 -315h-221z" />
    <glyph glyph-name="wacute" unicode="&#x1e83;" horiz-adv-x="1699" 
d="M743 1022l-190 -604l-182 633h-336l82 -240l293 -811h260l180 596l180 -596h260l293 811l82 240h-336l-182 -633l-191 604h-213zM936 1536h321l-303 -354h-221z" />
    <glyph glyph-name="Wdieresis" unicode="&#x1e84;" horiz-adv-x="2039" 
d="M1139 1386l262 -831l268 879h324l-451 -1434h-252l-270 868l-270 -868h-252l-451 1434h324l268 -879l264 831h236zM592 1692q0 71 47.5 112t126.5 41q76 0 125 -41.5t49 -111.5q0 -68 -49.5 -109t-124.5 -41q-78 0 -126 40.5t-48 109.5zM1100 1692q0 71 48 112t124 41
q77 0 126.5 -41.5t49.5 -111.5q0 -68 -50 -109t-126 -41t-124 41t-48 109z" />
    <glyph glyph-name="wdieresis" unicode="&#x1e85;" horiz-adv-x="1699" 
d="M743 1022l-190 -604l-182 633h-336l82 -240l293 -811h260l180 596l180 -596h260l293 811l82 240h-336l-182 -633l-191 604h-213zM418 1360q0 72 50 119t128 47q74 0 126 -47.5t52 -118.5q0 -69 -52 -115.5t-126 -46.5q-77 0 -127.5 46.5t-50.5 115.5zM926 1360
q0 72 50.5 119t125.5 47q76 0 128 -47.5t52 -118.5q0 -69 -52.5 -115.5t-127.5 -46.5t-125.5 46.5t-50.5 115.5z" />
    <glyph glyph-name="Ygrave" unicode="&#x1ef2;" horiz-adv-x="1492" 
d="M745 874h3l339 560h369v-41l-551 -805v-588h-317v584l-551 809v41h369zM420 1851h321l179 -315h-222z" />
    <glyph glyph-name="ygrave" unicode="&#x1ef3;" 
d="M616 393l250 658h336l-680 -1530h-307l240 567l-432 963h344zM254 1536h321l203 -354h-221z" />
    <glyph glyph-name="thinspace" unicode="&#x2009;" horiz-adv-x="34" 
 />
    <glyph glyph-name="endash" unicode="&#x2013;" horiz-adv-x="1202" 
d="M125 510v246h954v-246h-954z" />
    <glyph glyph-name="emdash" unicode="&#x2014;" horiz-adv-x="1638" 
d="M125 510v246h1391v-246h-1391z" />
    <glyph glyph-name="quoteleft" unicode="&#x2018;" horiz-adv-x="526" 
d="M356 1479l68 -113q-150 -52 -150 -184q63 4 110.5 -44.5t47.5 -105.5q5 -70 -41 -118t-133 -48q-49 0 -85 21t-53.5 54t-25.5 64t-8 60q0 142 68 257t202 157z" />
    <glyph glyph-name="quoteright" unicode="&#x2019;" horiz-adv-x="520" 
d="M174 868l-68 113q150 53 150 184q-63 -4 -110.5 44.5t-47.5 105.5q-5 70 41 118t133 48q49 0 85 -21t53.5 -54t25.5 -64t8 -60q0 -142 -68 -257t-202 -157z" />
    <glyph glyph-name="quotesinglbase" unicode="&#x201a;" horiz-adv-x="538" 
d="M170 -287l-68 113q150 53 150 184q-63 -4 -110.5 44.5t-47.5 105.5q-5 70 41 118t133 48q49 0 85 -21t53.5 -54t25.5 -64t8 -60q0 -142 -68 -257t-202 -157z" />
    <glyph glyph-name="quotedblleft" unicode="&#x201c;" horiz-adv-x="1046" 
d="M877 1479l67 -113q-149 -52 -149 -184q63 4 110 -44.5t47 -105.5q5 -70 -41 -118t-133 -48q-49 0 -85 21t-53.5 54t-25.5 64t-8 60q0 91 27 171.5t90 147.5t154 95zM356 1479l68 -113q-150 -52 -150 -184q63 4 110.5 -44.5t47.5 -105.5q5 -70 -41 -118t-133 -48
q-49 0 -85 21t-53.5 54t-25.5 64t-8 60q0 142 68 257t202 157z" />
    <glyph glyph-name="quotedblright" unicode="&#x201d;" horiz-adv-x="1040" 
d="M174 868l-68 113q150 53 150 184q-63 -4 -110.5 44.5t-47.5 105.5q-5 70 41 118t133 48q49 0 85 -21t53.5 -54t25.5 -64t8 -60q0 -142 -68 -257t-202 -157zM694 868l-67 113q149 52 149 184q-63 -4 -110.5 44.5t-47.5 105.5q-5 70 41.5 118t133.5 48q49 0 85 -21
t53.5 -54t25.5 -64t8 -60q0 -91 -27 -171.5t-90 -147.5t-154 -95z" />
    <glyph glyph-name="quotedblbase" unicode="&#x201e;" horiz-adv-x="1058" 
d="M170 -287l-68 113q150 53 150 184q-63 -4 -110.5 44.5t-47.5 105.5q-5 70 41 118t133 48q49 0 85 -21t53.5 -54t25.5 -64t8 -60q0 -142 -68 -257t-202 -157zM690 -287l-67 113q149 52 149 184q-63 -4 -110.5 44.5t-47.5 105.5q-5 70 41 118t133 48q49 0 85 -21t54 -54
t26 -64t8 -60q0 -91 -27 -171.5t-90 -147.5t-154 -95z" />
    <glyph glyph-name="dagger" unicode="&#x2020;" horiz-adv-x="1138" 
d="M700 850v-1143h-264v1143h-375v231h375v478h264v-478h377v-231h-377z" />
    <glyph glyph-name="daggerdbl" unicode="&#x2021;" horiz-adv-x="1179" 
d="M1098 209h-377v-502h-264v502h-375v231h375v410h-375v231h375v478h264v-478h377v-231h-377v-410h377v-231z" />
    <glyph glyph-name="bullet" unicode="&#x2022;" horiz-adv-x="825" 
d="M137 522q0 117 77.5 197t197.5 80t198 -80t78 -197q0 -118 -78 -198t-198 -80q-121 0 -198 79t-77 199z" />
    <glyph glyph-name="ellipsis" unicode="&#x2026;" horiz-adv-x="1822" 
d="M92 154q0 78 54.5 129t138.5 51q82 0 138 -51t56 -129q0 -75 -56 -126t-138 -51q-84 0 -138.5 50.5t-54.5 126.5zM719 154q0 78 54 129t138 51q82 0 138.5 -51.5t56.5 -128.5q0 -75 -56.5 -126t-138.5 -51q-84 0 -138 50.5t-54 126.5zM1346 154q0 78 54 129t138 51
q82 0 138.5 -51.5t56.5 -128.5q0 -75 -56.5 -126t-138.5 -51q-84 0 -138 50.5t-54 126.5z" />
    <glyph glyph-name="perthousand" unicode="&#x2030;" horiz-adv-x="2983" 
d="M504 0l796 1434h216l-795 -1434h-217zM63 1071q0 163 116 274t286 111q171 0 286 -111t115 -274q0 -162 -115 -272.5t-286 -110.5q-170 0 -286 111t-116 272zM297 1071q0 -79 49.5 -128.5t118.5 -49.5q71 0 121.5 49.5t50.5 128.5q0 82 -50 132t-122 50q-69 0 -118.5 -50
t-49.5 -132zM1182 360q0 163 115.5 274t285.5 111q171 0 286.5 -111t115.5 -274q0 -162 -115.5 -272.5t-286.5 -110.5q-170 0 -285.5 110.5t-115.5 272.5zM1415 360q0 -79 49.5 -128.5t118.5 -49.5q71 0 121.5 49.5t50.5 128.5q0 82 -50 132.5t-122 50.5q-69 0 -118.5 -50.5
t-49.5 -132.5zM2118 360q0 163 115.5 274t285.5 111q171 0 286 -111t115 -274q0 -162 -115 -272.5t-286 -110.5q-170 0 -285.5 110.5t-115.5 272.5zM2351 360q0 -79 49.5 -128.5t118.5 -49.5q71 0 121.5 49.5t50.5 128.5q0 82 -50 132.5t-122 50.5q-69 0 -118.5 -50.5
t-49.5 -132.5z" />
    <glyph glyph-name="guilsinglleft" unicode="&#x2039;" horiz-adv-x="729" 
d="M70 645l407 469l172 -156l-295 -342l293 -337l-170 -158l-407 467v57z" />
    <glyph glyph-name="guilsinglright" unicode="&#x203a;" horiz-adv-x="729" 
d="M252 1114l407 -469v-57l-407 -467l-170 158l293 337l-295 342z" />
    <glyph glyph-name="fraction" unicode="&#x2044;" horiz-adv-x="307" 
d="M799 1505l-1121 -1585h-172l1119 1585h174z" />
    <glyph glyph-name="zerosuperior" unicode="&#x2070;" horiz-adv-x="753" 
d="M702 1331q0 -157 -90 -267t-237 -110t-235.5 110t-88.5 267q0 159 88 267t236 108t237.5 -108t89.5 -267zM514 1331q0 95 -37 155t-102 60q-62 0 -98.5 -60.5t-36.5 -154.5q0 -93 37 -155t98 -62q64 0 101.5 61.5t37.5 155.5z" />
    <glyph glyph-name="foursuperior" unicode="&#x2074;" horiz-adv-x="737" 
d="M221 1298h158v189zM369 1153h-344v100l352 435h184v-390h141v-145h-141v-178h-192v178z" />
    <glyph glyph-name="fivesuperior" unicode="&#x2075;" horiz-adv-x="667" 
d="M295 1100q67 0 99 32t32 78q0 41 -31.5 76t-89.5 35q-72 0 -123 -33l-106 47l18 342h465v-149h-313l-6 -105q46 27 127 27q103 0 176 -71t73 -169q0 -119 -81 -189.5t-226 -70.5q-172 0 -268 86l90 115q76 -51 164 -51z" />
    <glyph glyph-name="sixsuperior" unicode="&#x2076;" horiz-adv-x="706" 
d="M389 1552q-65 0 -107 -42.5t-46 -125.5h6q51 62 151 62q47 0 92 -14t83 -41.5t61.5 -74t23.5 -106.5q0 -106 -84 -179t-207 -73q-145 0 -227 99.5t-82 261.5q0 163 85 272t243 109q74 0 141 -26t109 -77l-105 -98q-53 53 -137 53zM358 1321q-56 0 -84 -31t-28 -76
q0 -44 29 -75t83 -31q51 0 83 28t32 76q0 49 -30.5 79t-84.5 30z" />
    <glyph glyph-name="sevensuperior" unicode="&#x2077;" horiz-adv-x="612" 
d="M41 1538v152h553v-109l-315 -604h-205l299 561h-332z" />
    <glyph glyph-name="eightsuperior" unicode="&#x2078;" horiz-adv-x="716" 
d="M358 1399q45 0 73 24.5t28 55.5q0 37 -29 58.5t-72 21.5t-71.5 -21.5t-28.5 -58.5q0 -31 27.5 -55.5t72.5 -24.5zM358 1288q-58 0 -93.5 -29.5t-35.5 -64.5q0 -37 38 -64.5t91 -27.5t91 27.5t38 64.5q0 35 -35.5 64.5t-93.5 29.5zM358 954q-134 0 -220.5 64.5
t-86.5 177.5q0 45 34.5 92.5t88.5 63.5q-41 18 -65.5 54t-24.5 73q0 98 77 157.5t197 59.5t197.5 -59.5t77.5 -157.5q0 -37 -24.5 -73t-65.5 -54q54 -16 88.5 -63.5t34.5 -92.5q0 -112 -86.5 -177t-221.5 -65z" />
    <glyph glyph-name="ninesuperior" unicode="&#x2079;" horiz-adv-x="704" 
d="M315 1102q65 0 107.5 42.5t46.5 125.5h-6q-51 -62 -152 -62q-47 0 -92 14t-83 41.5t-61.5 74t-23.5 106.5q0 106 84 179t207 73q145 0 227 -99.5t82 -261.5q0 -106 -34.5 -190t-110.5 -137.5t-182 -53.5q-74 0 -141 26t-109 77l104 98q53 -53 137 -53zM346 1333
q56 0 84.5 31t28.5 76q0 44 -29.5 75t-83.5 31q-51 0 -83 -28t-32 -76q0 -49 30.5 -79t84.5 -30z" />
    <glyph glyph-name="parenleftsuperior" unicode="&#x207d;" horiz-adv-x="442" 
d="M240 1335q0 -128 47 -252.5t98 -199.5l-113 -72q-28 28 -61 77t-67.5 117.5t-57.5 156.5t-23 173q0 86 23 174.5t57.5 157t67.5 118t61 77.5l113 -74q-52 -76 -98.5 -199t-46.5 -254z" />
    <glyph glyph-name="parenrightsuperior" unicode="&#x207e;" horiz-adv-x="442" 
d="M203 1335q0 131 -46.5 254t-99.5 199l113 74q28 -28 61 -77.5t67.5 -118t57.5 -157t23 -174.5q0 -85 -23 -173t-57.5 -156.5t-67.5 -117.5t-61 -77l-113 72q51 76 98.5 200t47.5 252z" />
    <glyph glyph-name="zeroinferior" unicode="&#x2080;" horiz-adv-x="753" 
d="M702 63q0 -157 -90 -266.5t-237 -109.5t-235.5 109.5t-88.5 266.5q0 159 88 267t236 108t237.5 -108t89.5 -267zM514 63q0 95 -37.5 155.5t-101.5 60.5q-62 0 -98.5 -61t-36.5 -155q0 -93 37 -155t98 -62q64 0 101.5 61.5t37.5 155.5z" />
    <glyph glyph-name="oneinferior" unicode="&#x2081;" horiz-adv-x="495" 
d="M61 156l-49 139l295 127h109v-713h-193v512z" />
    <glyph glyph-name="twoinferior" unicode="&#x2082;" horiz-adv-x="665" 
d="M442 -49l-100 -94q18 4 78 4h186v-152h-534l-19 109l269 254q84 72 84 133q0 37 -23 58.5t-64 21.5q-49 0 -72.5 -34.5t-23.5 -74.5l-172 2q0 32 8 65.5t27.5 69t49 63t77 45t106.5 17.5q124 0 198.5 -62.5t74.5 -170.5q0 -131 -150 -254z" />
    <glyph glyph-name="threeinferior" unicode="&#x2083;" horiz-adv-x="673" 
d="M307 -156q49 0 85 34t36 73q0 42 -32 71t-77 29q-36 0 -79 -14l-66 90l174 145h-280v150h524v-105l-176 -159q90 -10 147.5 -68t57.5 -137q0 -107 -86.5 -182.5t-227.5 -75.5q-87 0 -149.5 18t-118.5 68l90 115q35 -24 70.5 -36t56 -14t51.5 -2z" />
    <glyph glyph-name="fourinferior" unicode="&#x2084;" horiz-adv-x="737" 
d="M221 33h158v188zM369 -113h-344v101l352 434h184v-389h141v-146h-141v-178h-192v178z" />
    <glyph glyph-name="fiveinferior" unicode="&#x2085;" horiz-adv-x="667" 
d="M297 -158q67 0 99 32.5t32 78.5q0 41 -31.5 75.5t-89.5 34.5q-73 0 -123 -32l-106 47l18 342h465v-150h-313l-6 -104q46 27 127 27q103 0 176 -71t73 -169q0 -119 -81 -189.5t-226 -70.5q-172 0 -268 86l90 115q77 -52 164 -52z" />
    <glyph glyph-name="sixinferior" unicode="&#x2086;" horiz-adv-x="706" 
d="M389 281q-65 0 -107 -42.5t-46 -125.5h6q51 61 151 61q47 0 92 -14t83 -41t61.5 -73.5t23.5 -106.5q0 -106 -84 -179t-207 -73q-145 0 -227 99t-82 261q0 163 85 272t243 109q74 0 141 -25.5t109 -76.5l-105 -99q-54 54 -137 54zM358 49q-56 0 -84 -30.5t-28 -75.5
t29 -76t83 -31q51 0 83 28.5t32 76.5t-30.5 78t-84.5 30z" />
    <glyph glyph-name="seveninferior" unicode="&#x2087;" horiz-adv-x="614" 
d="M41 270v152h553v-109l-315 -604h-205l299 561h-332z" />
    <glyph glyph-name="eightinferior" unicode="&#x2088;" horiz-adv-x="716" 
d="M358 131q45 0 73 24.5t28 55.5q0 37 -29 58.5t-72 21.5t-71.5 -21.5t-28.5 -58.5q0 -31 27.5 -55.5t72.5 -24.5zM358 20q-58 0 -93.5 -29.5t-35.5 -64.5q0 -37 38 -64.5t91 -27.5t91 27.5t38 64.5q0 35 -35.5 64.5t-93.5 29.5zM358 -313q-135 0 -221 64.5t-86 176.5
q0 45 34.5 92.5t88.5 63.5q-41 18 -65.5 54t-24.5 73q0 98 77 157.5t197 59.5t197.5 -59.5t77.5 -157.5q0 -37 -24.5 -73t-65.5 -54q54 -16 88.5 -63.5t34.5 -92.5q0 -112 -86.5 -176.5t-221.5 -64.5z" />
    <glyph glyph-name="nineinferior" unicode="&#x2089;" horiz-adv-x="706" 
d="M317 -166q65 0 107.5 42.5t46.5 125.5h-6q-51 -61 -152 -61q-47 0 -92 14t-83 41t-61.5 73.5t-23.5 106.5q0 106 84 179t207 73q145 0 227 -99t82 -261q0 -106 -34.5 -190t-110.5 -137.5t-182 -53.5q-74 0 -141 25.5t-109 76.5l104 98q53 -53 137 -53zM348 66
q56 0 84.5 30.5t28.5 75.5q0 44 -29.5 75.5t-83.5 31.5q-51 0 -83 -28.5t-32 -76.5t30.5 -78t84.5 -30z" />
    <glyph glyph-name="parenleftinferior" unicode="&#x208d;" horiz-adv-x="442" 
d="M240 72q0 -128 47 -253t98 -200l-113 -72q-28 28 -61 77t-67.5 117t-57.5 156.5t-23 174.5t23 174.5t57.5 157t67.5 117.5t61 77l113 -74q-52 -76 -98.5 -198.5t-46.5 -253.5z" />
    <glyph glyph-name="parenrightinferior" unicode="&#x208e;" horiz-adv-x="442" 
d="M203 72q0 131 -46.5 253t-99.5 199l113 74q28 -28 61 -77t67.5 -117.5t57.5 -157t23 -174.5t-23 -174.5t-57.5 -156.5t-67.5 -117t-61 -77l-113 72q51 75 98.5 200t47.5 253z" />
    <glyph glyph-name="lira" unicode="&#x20a4;" horiz-adv-x="1312" 
d="M977 436h-293q-10 -107 -102 -184v-16q53 6 152.5 11t131.5 5h369v-252h-1151v252q77 0 134.5 11.5t89 29t51 43.5t25 49t5.5 51h-264v148h246l-45 110h-201v148h145q-34 93 -34 198q0 184 141 300t354 116q97 0 177 -26.5t133 -69.5t89 -99.5t52 -115t16 -117.5h-287
q0 72 -46 117t-138 45q-89 0 -142 -43.5t-53 -120.5q0 -89 37 -184h408v-148h-352l41 -110h311v-148z" />
    <glyph glyph-name="rupee" unicode="&#x20a8;" horiz-adv-x="1431" 
d="M799 905h-699v156h686q-43 106 -161 106h-525v267h111h1124v-156h-319q77 -95 98 -217h221v-156h-217q-14 -134 -92.5 -233t-206.5 -140q16 -64 34 -109t45.5 -85t67 -60t91.5 -20q84 0 145 61l113 -219q-78 -63 -148 -93t-172 -30q-97 0 -176.5 41.5t-128 101.5t-84 137
t-50.5 138t-21 115h-435v254h525q68 0 112 37t62 104z" />
    <glyph glyph-name="uni20A9" unicode="&#x20a9;" horiz-adv-x="2168" 
d="M92 887v155h141l-122 392h323l119 -392h303l111 344h235l109 -344h301l121 392h323l-123 -392h144v-155h-193l-86 -271h279v-155h-328l-143 -461h-252l-144 461h-254l-143 -461h-252l-145 461h-324v155h275l-84 271h-191zM600 887l102 -332l105 332h-207zM1360 887
l104 -332l101 332h-205zM1083 868l-79 -252h157z" />
    <glyph glyph-name="afii57636" unicode="&#x20aa;" horiz-adv-x="1648" 
d="M389 836v-836h-266v1102h612q188 0 305 -117.5t117 -292.5v-293h-266v293q0 62 -43 103t-113 41h-346zM1260 266v836h266v-1102h-613q-188 0 -304.5 117.5t-116.5 292.5v292h266v-292q0 -62 42.5 -103t112.5 -41h347z" />
    <glyph glyph-name="Euro" unicode="&#x20ac;" horiz-adv-x="1443" 
d="M76 778v150h225q25 115 81 210.5t141 167t204.5 111t263.5 39.5q202 0 385 -108l-94 -248q-27 16 -53.5 28.5t-47 20.5t-44 14t-37 9t-34 4.5t-27.5 1.5h-23h-17q-280 0 -374 -250h589l-57 -150h-565q-8 -59 2 -125h516l-57 -149h-424q43 -114 140.5 -181t236.5 -67
t292 53v-270q-127 -62 -286 -62q-291 0 -476 145.5t-233 381.5h-227v149h213q-9 70 -2 125h-211z" />
    <glyph glyph-name="uni2113" unicode="&#x2113;" horiz-adv-x="1005" 
d="M936 1098q0 -255 -119.5 -456t-312.5 -280q-5 -60 15 -105.5t71 -45.5q39 0 58 21t18.5 51t-4.5 63h233q12 -28 18 -70q3 -12 0 -18q0 -123 -89.5 -202t-248.5 -79q-52 0 -97.5 8.5t-95 33t-86.5 64t-63.5 107.5t-33.5 158q-74 -13 -140 -2v189q92 -3 138 16v547
q0 96 28.5 169t69 112.5t96 63.5t98 31t86.5 7q32 0 61.5 -3.5t67 -13.5t69 -27t62.5 -46.5t52.5 -68.5t35 -96.5t13.5 -127.5zM696 1116q0 68 -33 99.5t-67 31.5q-39 0 -67.5 -30t-28.5 -101v-502q96 58 146 197.5t50 304.5z" />
    <glyph glyph-name="afii61352" unicode="&#x2116;" horiz-adv-x="2277" 
d="M453 872l632 -872h242v1434h-317v-865l-631 865h-244v-1432h318v870zM1497 1130q0 148 100.5 249.5t251.5 101.5t252 -102t101 -249q0 -146 -101 -246t-252 -100t-251.5 100t-100.5 246zM1681 1130q0 -74 45.5 -121.5t122.5 -47.5t122.5 47.5t45.5 121.5q0 75 -46 125
t-122 50t-122 -50t-46 -125zM1518 528v152h663v-152h-663z" />
    <glyph glyph-name="uni2117" unicode="&#x2117;" horiz-adv-x="1609" 
d="M754 741h116q31 0 49.5 28t18.5 65q0 38 -18.5 66t-49.5 28h-116v-187zM891 580h-137v-244h-199v751h336q117 0 182.5 -72.5t65.5 -180.5t-65.5 -181t-182.5 -73zM82 717q0 151 56 287.5t151.5 235.5t230 157.5t285.5 58.5t285.5 -58.5t230 -157.5t151.5 -235.5
t56 -287.5q0 -202 -94.5 -371.5t-261 -269t-367.5 -99.5t-367.5 99.5t-261 269t-94.5 371.5zM229 717q0 -161 76 -297t208.5 -215.5t291.5 -79.5t291.5 79.5t208 215.5t75.5 297t-75.5 297t-208 215.5t-291.5 79.5t-291.5 -79.5t-208.5 -215.5t-76 -297z" />
    <glyph glyph-name="trademark" unicode="&#x2122;" horiz-adv-x="1855" 
d="M72 1481h714v-181h-258v-585h-198v585h-258v181zM1733 715h-195l-35 377l-160 -351h-143l-160 351l-34 -377h-199l76 766h176l213 -504l209 504h182z" />
    <glyph glyph-name="Omega" unicode="&#x2126;" horiz-adv-x="1662" 
d="M831 1196q-182 0 -299.5 -124t-117.5 -324q0 -174 99.5 -309.5t270.5 -192.5v-246h-665v252h268q-115 44 -202 195t-87 305q0 144 53 272.5t147 223.5t232.5 150.5t300.5 55.5t300.5 -55.5t233 -150.5t147.5 -223.5t53 -272.5q0 -154 -87 -305t-202 -195h268v-252h-665
v246q171 57 270.5 192.5t99.5 309.5q0 200 -118 324t-300 124z" />
    <glyph glyph-name="estimated" unicode="&#x212e;" horiz-adv-x="1271" 
d="M1206 578h-878v-396q138 -129 311 -129q67 0 124 14.5t99 36.5t81.5 58t66.5 70t59 81l64 -39q-57 -90 -118.5 -150t-157.5 -99t-218 -39q-163 0 -291 81.5t-196 216.5t-68 296q0 164 66.5 298t196.5 215t300 81q128 0 234.5 -48t177 -129.5t109 -189.5t38.5 -229z
M961 645v334q-60 55 -144 91t-170 36q-195 0 -319 -127v-334h633z" />
    <glyph glyph-name="arrowleft" unicode="&#x2190;" horiz-adv-x="1376" 
d="M1210 657v-245h-696l182 -211l-170 -158l-407 467v57l407 469l172 -155l-192 -224h704z" />
    <glyph glyph-name="arrowup" unicode="&#x2191;" horiz-adv-x="1189" 
d="M713 0h-246v696l-211 -182l-158 170l467 408h58l469 -408l-156 -172l-223 193v-705z" />
    <glyph glyph-name="arrowright" unicode="&#x2192;" horiz-adv-x="1376" 
d="M166 412v245h704l-192 224l172 155l407 -469v-57l-407 -467l-170 158l182 211h-696z" />
    <glyph glyph-name="arrowdown" unicode="&#x2193;" horiz-adv-x="1189" 
d="M467 1092h246v-705l223 193l156 -172l-469 -408h-58l-467 408l158 170l211 -183v697z" />
    <glyph glyph-name="partialdiff" unicode="&#x2202;" horiz-adv-x="1366" 
d="M551 1145l-107 231q72 37 163.5 58.5t160.5 21.5q121 0 214.5 -30t152 -80t96 -122.5t52.5 -150t15 -168.5q0 -93 -16 -194q-52 -357 -226.5 -545.5t-475.5 -188.5q-105 0 -191.5 24t-145.5 65t-99 97.5t-58 119.5t-18 133q0 46 6 80q27 135 114 237t207.5 153.5
t255.5 51.5q200 0 332 -100q7 16 12 63q17 146 -54 220.5t-198 74.5q-96 -4 -192 -51zM651 684q-99 0 -174 -55.5t-92 -155.5q-17 -113 45 -171t176 -58q127 0 225 95t115 241q-100 104 -295 104z" />
    <glyph glyph-name="Delta" unicode="&#x2206;" horiz-adv-x="1548" 
d="M53 0l572 1434h323l545 -1434h-1440zM782 1085l-307 -833h602z" />
    <glyph glyph-name="product" unicode="&#x220f;" horiz-adv-x="1542" 
d="M1270 1188v-1479h-314v1479h-370v-1479h-314v1479h-202v246h1403v-246h-203z" />
    <glyph glyph-name="summation" unicode="&#x2211;" horiz-adv-x="1228" 
d="M72 -115l463 682l-443 686v181h1010v-252h-627l395 -607l-413 -614h700v-252h-1085v176z" />
    <glyph glyph-name="minus" unicode="&#x2212;" horiz-adv-x="1325" 
d="M125 518v246h1075v-246h-1075z" />
    <glyph glyph-name="uni2219" unicode="&#x2219;" horiz-adv-x="620" 
d="M117 575q0 78 54 129.5t138 51.5q82 0 138.5 -51.5t56.5 -129.5q0 -75 -56.5 -125.5t-138.5 -50.5q-84 0 -138 50t-54 126z" />
    <glyph glyph-name="radical" unicode="&#x221a;" horiz-adv-x="1159" 
d="M389 920l217 -668l305 1307h226l-410 -1762h-256l-266 787l-131 -47l-84 200z" />
    <glyph glyph-name="infinity" unicode="&#x221e;" horiz-adv-x="1732" 
d="M332 616v-4q0 -66 43.5 -100.5t107.5 -34.5q44 0 78 16t84 62l68 61l-68 58q-50 46 -84 62t-78 16q-64 0 -107.5 -35t-43.5 -101zM1645 616v-4q0 -172 -107.5 -270t-273.5 -98q-99 0 -177 37t-159 110l-60 58l-57 -58q-147 -147 -344 -147q-105 0 -190 42.5t-137 128.5
t-52 201q0 171 108.5 270t270.5 99q197 0 344 -147l57 -58l60 58q81 73 159 110t177 37q165 0 273 -98.5t108 -270.5zM1409 612v4q0 64 -46 100t-106 36q-40 0 -75.5 -15t-83.5 -55l-78 -68l78 -67q48 -40 83.5 -55t75.5 -15q60 0 106 35.5t46 99.5z" />
    <glyph glyph-name="integral" unicode="&#x222b;" horiz-adv-x="1110" 
d="M709 1102v-1157q0 -107 -25 -188.5t-64.5 -129.5t-95 -78t-108.5 -40.5t-113 -10.5q-61 0 -154 34t-161 91l71 268q58 -58 116 -84t91 -26q65 0 100 34t35 117v1158q0 107 25 188.5t64.5 129.5t95 77.5t108 40t113.5 10.5t154 -34t161 -91l-71 -268q-58 58 -116 84
t-91 26q-65 0 -100 -34t-35 -117z" />
    <glyph glyph-name="approxequal" unicode="&#x2248;" horiz-adv-x="1327" 
d="M1133 1044l84 -202q-102 -142 -293 -142q-92 0 -263 47.5t-243 47.5q-152 0 -223 -78l-80 215q95 133 286 133q81 0 181.5 -24t189 -48t139.5 -24q144 0 222 75zM1130 502l82 -205q-55 -77 -126 -109t-168 -32q-90 0 -262 48t-242 48q-60 0 -122.5 -19t-101.5 -59
l-79 213q95 133 288 133q80 0 180.5 -23.5t189 -47t138.5 -23.5q142 0 223 76z" />
    <glyph glyph-name="notequal" unicode="&#x2260;" horiz-adv-x="1234" 
d="M1126 260h-614l-133 -248l-150 82l90 166h-208v246h342l159 297h-501v246h634l129 239l148 -80l-86 -159h190v-246h-323l-160 -297h483v-246z" />
    <glyph glyph-name="lessequal" unicode="&#x2264;" horiz-adv-x="1277" 
d="M109 0v229h1036v-229h-1036zM111 696v230l981 368h51v-260l-662 -223l662 -223v-260h-51z" />
    <glyph glyph-name="greaterequal" unicode="&#x2265;" horiz-adv-x="1277" 
d="M1169 229v-229h-1036v229h1036zM1167 926v-230l-981 -368h-51v260l662 223l-662 223v260h51z" />
    <glyph glyph-name="lozenge" unicode="&#x25ca;" horiz-adv-x="1234" 
d="M1171 700l-448 -700h-211l-446 700l444 736h215zM879 700l-263 424l-260 -426l260 -399z" />
    <glyph glyph-name="commaaccent" unicode="&#xf6c3;" horiz-adv-x="659" 
d="M244 -641l-62 104q28 11 48.5 21.5t45.5 28.5t38.5 43.5t13.5 56.5q-71 -18 -117.5 22t-46.5 113q0 66 44 108t116 42q58 0 99 -29t57 -65.5t16 -73.5q0 -283 -252 -371z" />
    <glyph glyph-name="rupiah" unicode="&#xf6dd;" horiz-adv-x="2785" 
d="M461 764h280q85 0 133 54.5t48 146.5q0 93 -48 147.5t-133 54.5h-280v-403zM1239 963q0 -154 -81.5 -270.5t-221.5 -160.5q16 -64 34 -109t45.5 -85t67 -60t91.5 -20q84 0 145 61l113 -219q-78 -63 -148 -93t-172 -30q-97 0 -176.5 41.5t-128.5 101.5t-84.5 136.5
t-50.5 138t-21 115.5h-190v-510h-316v1434h637q143 0 248.5 -65.5t157 -171t51.5 -234.5zM2410 522q0 131 -73 217t-197 86q-118 0 -196 -75t-78 -211q0 -146 78 -230t204 -84q122 0 192 85t70 212zM1874 -479h-305v1530h305v-154q60 86 139 131t191 45q155 0 273 -74.5
t178.5 -199.5t60.5 -279q0 -150 -57 -271.5t-173.5 -196.5t-275.5 -75q-102 0 -191 45.5t-145 120.5v-622z" />
    <glyph glyph-name="centinferior" unicode="&#xf6df;" horiz-adv-x="626" 
d="M387 438h66l-21 -108q76 -25 148 -74l-84 -119q-40 37 -88 49l-46 -245q77 0 134 53l86 -119q-112 -84 -230 -84h-16l-14 -82h-74l16 90q-102 23 -159.5 95.5t-57.5 171.5q0 118 84 196t221 78h17zM231 66q0 -71 64 -109l43 231q-45 -8 -76 -42t-31 -80z" />
    <glyph glyph-name="centsuperior" unicode="&#xf6e0;" horiz-adv-x="626" 
d="M387 1706h66l-21 -109q79 -26 148 -73l-84 -119q-40 37 -88 49l-46 -246q76 0 134 54l86 -119q-112 -84 -230 -84h-16l-14 -82h-74l16 90q-102 23 -159.5 95t-57.5 171q0 118 84 196.5t221 78.5h17zM231 1333q0 -70 64 -108l43 231q-45 -8 -76 -42.5t-31 -80.5z" />
    <glyph glyph-name="commainferior" unicode="&#xf6e1;" horiz-adv-x="385" 
d="M115 -483l-49 67q34 11 67 45t41 60q-34 6 -58 32.5t-24 53.5q-2 40 25 68t78 28q58 0 82 -36t24 -77q0 -69 -53.5 -143t-132.5 -98z" />
    <glyph glyph-name="commasuperior" unicode="&#xf6e2;" horiz-adv-x="385" 
d="M115 784l-49 68q34 11 67 44.5t41 59.5q-34 6 -58 32.5t-24 53.5q-2 40 25 68.5t78 28.5q58 0 82 -36t24 -77q0 -69 -53.5 -143.5t-132.5 -98.5z" />
    <glyph glyph-name="dollarinferior" unicode="&#xf6e3;" horiz-adv-x="634" 
d="M303 -358v65q-103 5 -176.5 61.5t-83.5 151.5l143 31q12 -41 45.5 -71t71.5 -36v148l-43 16q-182 63 -182 209q0 89 62 144t163 61v65h51v-67q150 -16 213 -156l-127 -67q-30 65 -86 86v-142l37 -12q101 -33 147 -94t46 -115q0 -96 -67.5 -151t-162.5 -60v-67h-51z
M246 221q0 -41 57 -63v131q-57 -15 -57 -68zM412 -84q0 32 -58 57v-125q58 15 58 68z" />
    <glyph glyph-name="dollarsuperior" unicode="&#xf6e4;" horiz-adv-x="632" 
d="M301 909v66q-103 5 -176.5 61.5t-83.5 151.5l143 31q12 -41 45.5 -71t71.5 -36v148l-43 16q-182 63 -182 209q0 89 62 144t163 61v65h51v-67q150 -16 213 -156l-127 -68q-30 65 -86 86v-141l37 -12q101 -33 147 -94t46 -115q0 -96 -66.5 -149.5t-163.5 -61.5v-68h-51z
M244 1489q0 -42 57 -64v131q-57 -15 -57 -67zM410 1184q0 32 -58 57v-125q58 15 58 68z" />
    <glyph glyph-name="hypheninferior" unicode="&#xf6e5;" horiz-adv-x="595" 
d="M82 14v150h432v-150h-432z" />
    <glyph glyph-name="hyphensuperior" unicode="&#xf6e6;" horiz-adv-x="595" 
d="M82 1282v150h432v-150h-432z" />
    <glyph glyph-name="periodinferior" unicode="&#xf6e7;" horiz-adv-x="376" 
d="M74 -213q0 44 33 72t81 28t81.5 -28t33.5 -72q0 -42 -33.5 -71t-81.5 -29t-81 29t-33 71z" />
    <glyph glyph-name="periodsuperior" unicode="&#xf6e8;" horiz-adv-x="380" 
d="M76 1055q0 44 33 72t81 28t81.5 -28t33.5 -72q0 -42 -33.5 -71.5t-81.5 -29.5q-47 0 -80.5 29t-33.5 72z" />
    <glyph glyph-name="apple" unicode="&#xf8ff;" horiz-adv-x="1437" 
d="M907 311h154q0 80 -24.5 143.5t-66 104t-90 65t-104.5 33.5q68 180 152 338l30 -399h154l-53 684h-150q-133 -245 -192 -416q-57 166 -193 416h-149l-53 -684h153l31 399q58 -108 151 -333q-59 -6 -111.5 -30t-97 -65t-70.5 -107.5t-26 -148.5h156q0 73 32 124t76 72
t93 21q77 0 137.5 -55t60.5 -162zM205 0v1413h1028v-1413h-1028zM297 168v-80h16v55l19 -55h14l21 57v-57h16v80h-25l-18 -55l-18 55h-25zM428 170q-18 0 -28.5 -12t-10.5 -31q0 -18 10.5 -29.5t28.5 -11.5t29.5 11.5t11.5 29.5q0 19 -11 31t-30 12zM428 100q-20 0 -20 27
q0 29 20 29q23 0 23 -29q0 -27 -23 -27zM485 115h-16q0 -29 35 -29q33 0 33 27q0 15 -23 22q-24 8 -25 12q0 9 13 9q14 0 14 -13h19q0 27 -33 27q-12 0 -21.5 -7t-9.5 -18q0 -19 27 -22q22 -6 22 -12q0 -11 -16 -11q-19 0 -19 15zM559 154v-66h19v66h24v14h-67v-14h24z
M618 168l-30 -80h18l6 18h29l6 -18h19l-29 80h-19zM637 119h-21l11 28zM668 168v-80h18v31h16q15 0 15 -15q0 -14 2 -16h18q-4 12 -4 18q0 17 -12 19v2q14 3 14 18q0 23 -24 23h-43zM686 131v23h19q12 0 12 -11q0 -12 -12 -12h-19zM743 168v-80h35q37 0 37 41q0 39 -37 39
h-35zM762 102v52h12q23 0 23 -27q0 -25 -21 -25h-14zM821 168v-80h62v14h-45v21h39v14h-39v17h43v14h-60zM901 115h-18q0 -29 35 -29q32 0 32 27q0 16 -22 22q-24 8 -25 12q0 9 12 9q14 0 17 -13h16q0 27 -33 27q-11 0 -20.5 -7t-9.5 -18q0 -19 26 -22q23 -7 23 -12
q0 -11 -16 -11q-17 0 -17 15zM956 168v-80h17v80h-17zM1040 96l2 -8h13v43h-35v-12h18q-3 -19 -18 -19q-23 0 -23 27q0 29 23 29q13 0 16 -15h17q-3 29 -33 29q-20 0 -30.5 -12t-10.5 -31q0 -18 10.5 -29.5t30.5 -11.5q10 0 20 10zM1063 168v-80h16v53l33 -53h18v80h-16v-53
l-35 53h-16z" />
    <glyph glyph-name="Euro.dnom" horiz-adv-x="747" 
d="M43 379v82h109q30 112 122.5 190t225.5 78q103 0 207 -61l-56 -138q-62 41 -147 41q-65 0 -109 -34t-51 -76h289l-37 -82h-266q0 -46 2 -60h252l-39 -83h-197q18 -48 62 -74.5t96 -26.5q90 0 162 31v-150q-64 -39 -158 -39q-148 0 -239 70.5t-119 188.5h-109v83h98v60
h-98z" />
    <glyph glyph-name="Euro.numr" horiz-adv-x="747" 
d="M43 1100v82h109q30 112 122.5 190t225.5 78q103 0 207 -61l-56 -138q-62 41 -147 41q-65 0 -109 -34t-51 -76h289l-37 -82h-266q0 -46 2 -60h252l-39 -84h-197q18 -48 62 -74t96 -26q90 0 162 31v-150q-64 -39 -158 -39q-148 0 -239.5 70t-118.5 188h-109v84h98v60h-98z
" />
    <glyph glyph-name="Euroinferior" horiz-adv-x="751" 
d="M45 88v82h109q30 112 122.5 190t225.5 78q103 0 207 -61l-56 -137q-62 41 -147 41q-65 0 -109 -34.5t-51 -76.5h289l-37 -82h-266q0 -45 2 -59h252l-39 -84h-197q18 -48 62 -74.5t96 -26.5q90 0 162 31v-149q-64 -39 -158 -39q-148 0 -239.5 70t-118.5 188h-109v84h98v59
h-98z" />
    <glyph glyph-name="Eurosuperior" horiz-adv-x="749" 
d="M45 1356v82h109q30 112 122.5 190t225.5 78q103 0 207 -61l-56 -138q-62 41 -147 41q-65 0 -109 -34t-51 -76h289l-37 -82h-266q0 -46 2 -60h252l-39 -84h-197q18 -48 62 -74t96 -26q90 0 162 31v-150q-64 -39 -158 -39q-148 0 -239.5 70t-118.5 188h-109v84h98v60h-98z
" />
    <glyph glyph-name="a.alt" horiz-adv-x="1220" 
d="M567 483q-57 0 -98 -14.5t-61 -39t-28.5 -47.5t-8.5 -48q0 -44 38 -80.5t107 -36.5q93 0 158.5 28.5t128.5 84.5v112q-131 41 -236 41zM434 -23q-55 0 -108 14t-101 43t-84.5 69.5t-58 98t-21.5 124.5q0 147 125 239t322 92q135 0 289 -45v29q0 43 -23 78.5t-58 56
t-71 31t-67 10.5h-14h-21t-25.5 -1t-31 -2.5t-34 -5t-38 -8.5t-40.5 -12.5t-43.5 -17.5t-43.5 -23.5t-45 -29.5l-113 192q164 164 467 164q127 0 222 -31t147.5 -77.5t85 -112t42 -122t9.5 -120.5v-610h-305v143q-62 -77 -156 -121.5t-207 -44.5z" />
    <glyph glyph-name="aacute.alt" horiz-adv-x="1220" 
d="M657 1536h322l-303 -354h-221zM567 483q-57 0 -98 -14.5t-61 -39t-28.5 -47.5t-8.5 -48q0 -44 38 -80.5t107 -36.5q93 0 158.5 28.5t128.5 84.5v112q-131 41 -236 41zM434 -23q-55 0 -108 14t-101 43t-84.5 69.5t-58 98t-21.5 124.5q0 147 125 239t322 92q135 0 289 -45
v29q0 43 -23 78.5t-58 56t-71 31t-67 10.5h-14h-21t-25.5 -1t-31 -2.5t-34 -5t-38 -8.5t-40.5 -12.5t-43.5 -17.5t-43.5 -23.5t-45 -29.5l-113 192q164 164 467 164q127 0 222 -31t147.5 -77.5t85 -112t42 -122t9.5 -120.5v-610h-305v143q-62 -77 -156 -121.5t-207 -44.5z
" />
    <glyph glyph-name="abreve.alt" 
d="M602 1382q51 0 89.5 35t45.5 119l193 -20q-7 -79 -32 -139.5t-58 -95.5t-77 -57t-82 -29t-79 -7t-79 7t-82 29t-77 57t-58 95.5t-32 139.5l193 20q7 -84 45.5 -119t89.5 -35zM565 483q-57 0 -98 -14.5t-61 -39t-28.5 -47.5t-8.5 -48q0 -44 38 -80.5t107 -36.5
q93 0 158.5 28.5t128.5 84.5v112q-131 41 -236 41zM432 -23q-55 0 -108 14t-101 43t-84.5 69.5t-58 98t-21.5 124.5q0 147 125 239t322 92q135 0 289 -45v29q0 43 -23.5 78.5t-58.5 56t-71 31t-67 10.5h-14h-21t-25.5 -1t-30.5 -2.5t-34 -5t-38.5 -8.5t-40 -12.5t-43 -17.5
t-43.5 -23.5t-45 -29.5l-113 192q164 164 467 164q127 0 222 -31t147.5 -77.5t85 -112t42 -122t9.5 -120.5v-610h-305v143q-62 -77 -156 -121.5t-207 -44.5z" />
    <glyph glyph-name="acircumflex.alt" 
d="M446 1536h302l217 -354h-215l-152 188l-152 -188h-215zM565 481q-57 0 -98 -14.5t-61 -39t-28.5 -47.5t-8.5 -48q0 -44 38 -80.5t107 -36.5q93 0 158.5 28.5t128.5 84.5v112q-131 41 -236 41zM432 -25q-55 0 -108 14t-101 43t-84.5 69.5t-58 98t-21.5 124.5
q0 147 125 239t322 92q135 0 289 -45v29q0 43 -23.5 78.5t-58.5 56t-71 31t-67 10.5h-14h-21t-25.5 -1t-30.5 -2.5t-34 -5t-38.5 -8.5t-40 -12.5t-43 -17.5t-43.5 -23.5t-45 -29.5l-113 192q164 164 467 164q127 0 222 -31t147.5 -77.5t85 -112t42 -122t9.5 -120.5v-610
h-305v143q-62 -77 -156 -121.5t-207 -44.5z" />
    <glyph glyph-name="acute.case" horiz-adv-x="1126" 
d="M442 1851h322l-279 -315h-221z" />
    <glyph glyph-name="adieresis.alt" 
d="M182 1360q0 72 50 119t128 47q74 0 126.5 -47.5t52.5 -118.5q0 -68 -52.5 -115t-126.5 -47q-77 0 -127.5 46.5t-50.5 115.5zM690 1360q0 72 50.5 119t125.5 47q76 0 128.5 -47.5t52.5 -118.5q0 -69 -53 -115.5t-128 -46.5t-125.5 46.5t-50.5 115.5zM565 483
q-57 0 -98 -14.5t-61 -39t-28.5 -47.5t-8.5 -48q0 -44 38 -80.5t107 -36.5q93 0 158.5 28.5t128.5 84.5v112q-131 41 -236 41zM432 -23q-55 0 -108 14t-101 43t-84.5 69.5t-58 98t-21.5 124.5q0 147 125 239t322 92q135 0 289 -45v29q0 43 -23.5 78.5t-58.5 56t-71 31
t-67 10.5h-14h-21t-25.5 -1t-30.5 -2.5t-34 -5t-38.5 -8.5t-40 -12.5t-43 -17.5t-43.5 -23.5t-45 -29.5l-113 192q164 164 467 164q127 0 222 -31t147.5 -77.5t85 -112t42 -122t9.5 -120.5v-610h-305v143q-62 -77 -156 -121.5t-207 -44.5z" />
    <glyph glyph-name="agrave.alt" 
d="M221 1536h322l202 -354h-221zM565 483q-57 0 -98 -14.5t-61 -39t-28.5 -47.5t-8.5 -48q0 -44 38 -80.5t107 -36.5q93 0 158.5 28.5t128.5 84.5v112q-131 41 -236 41zM432 -23q-55 0 -108 14t-101 43t-84.5 69.5t-58 98t-21.5 124.5q0 147 125 239t322 92q135 0 289 -45
v29q0 43 -23.5 78.5t-58.5 56t-71 31t-67 10.5h-14h-21t-25.5 -1t-30.5 -2.5t-34 -5t-38.5 -8.5t-40 -12.5t-43 -17.5t-43.5 -23.5t-45 -29.5l-113 192q164 164 467 164q127 0 222 -31t147.5 -77.5t85 -112t42 -122t9.5 -120.5v-610h-305v143q-62 -77 -156 -121.5
t-207 -44.5z" />
    <glyph glyph-name="amacron.alt" 
d="M285 1448h645v-211h-645v211zM565 483q-57 0 -98 -14.5t-61 -39t-28.5 -47.5t-8.5 -48q0 -44 38 -80.5t107 -36.5q93 0 158.5 28.5t128.5 84.5v112q-131 41 -236 41zM432 -23q-55 0 -108 14t-101 43t-84.5 69.5t-58 98t-21.5 124.5q0 147 125 239t322 92q135 0 289 -45
v29q0 43 -23.5 78.5t-58.5 56t-71 31t-67 10.5h-14h-21t-25.5 -1t-30.5 -2.5t-34 -5t-38.5 -8.5t-40 -12.5t-43 -17.5t-43.5 -23.5t-45 -29.5l-113 192q164 164 467 164q127 0 222 -31t147.5 -77.5t85 -112t42 -122t9.5 -120.5v-610h-305v143q-62 -77 -156 -121.5
t-207 -44.5z" />
    <glyph glyph-name="aogonek.alt" 
d="M432 -23q-55 0 -108 14t-101 43t-84.5 69.5t-58 98t-21.5 124.5q0 147 125 239t322 92q135 0 289 -45v29q0 43 -23.5 78.5t-58.5 56t-71 31t-67 10.5h-14h-21t-25.5 -1t-30.5 -2.5t-34 -5t-38.5 -8.5t-40 -12.5t-43 -17.5t-43.5 -23.5t-45 -29.5l-113 192
q164 164 467 164q127 0 222 -31t147.5 -77.5t85 -112t42 -122t9.5 -120.5v-610h-17q-58 -2 -101.5 -16.5t-67 -34.5t-38 -45t-18.5 -42.5t-4 -33.5q0 -100 98 -100q79 0 129 108l156 -72q-45 -102 -127 -165.5t-197 -63.5q-43 0 -87.5 12t-88.5 38t-72 75.5t-28 116.5
q0 19 3.5 39t17 56.5t48.5 74.5t89 69v127q-62 -77 -156 -121.5t-207 -44.5zM565 483q-57 0 -98 -14.5t-61 -39t-28.5 -47.5t-8.5 -48q0 -44 38 -80.5t107 -36.5q93 0 158.5 28.5t128.5 84.5v112q-131 41 -236 41z" />
    <glyph glyph-name="aring.alt" 
d="M350 1397q0 104 73 170.5t179 66.5q108 0 181 -66.5t73 -170.5q0 -103 -73.5 -169.5t-180.5 -66.5q-106 0 -179 66.5t-73 169.5zM492 1397q0 -47 31 -77t79 -30t79.5 30t31.5 77t-31.5 75.5t-79.5 28.5t-79 -28.5t-31 -75.5zM565 483q-57 0 -98 -14.5t-61 -39
t-28.5 -47.5t-8.5 -48q0 -44 38 -80.5t107 -36.5q93 0 158.5 28.5t128.5 84.5v112q-131 41 -236 41zM432 -23q-55 0 -108 14t-101 43t-84.5 69.5t-58 98t-21.5 124.5q0 147 125 239t322 92q135 0 289 -45v29q0 43 -23.5 78.5t-58.5 56t-71 31t-67 10.5h-14h-21t-25.5 -1
t-30.5 -2.5t-34 -5t-38.5 -8.5t-40 -12.5t-43 -17.5t-43.5 -23.5t-45 -29.5l-113 192q164 164 467 164q127 0 222 -31t147.5 -77.5t85 -112t42 -122t9.5 -120.5v-610h-305v143q-62 -77 -156 -121.5t-207 -44.5z" />
    <glyph glyph-name="aringacute.alt" horiz-adv-x="1220" 
d="M627 1825h270l-172 -228q71 -24 111.5 -74.5t40.5 -125.5q0 -101 -72 -157t-182 -56q-109 0 -180.5 56t-71.5 157q0 148 143 198zM512 1397q0 -84 111 -84q110 0 110 84q0 82 -110 82q-111 0 -111 -82zM567 483q-57 0 -98 -14.5t-61 -39t-28.5 -47.5t-8.5 -48
q0 -44 38 -80.5t107 -36.5q93 0 158.5 28.5t128.5 84.5v112q-131 41 -236 41zM434 -23q-55 0 -108 14t-101 43t-84.5 69.5t-58 98t-21.5 124.5q0 147 125 239t322 92q135 0 289 -45v29q0 43 -23 78.5t-58 56t-71 31t-67 10.5h-14h-21t-25.5 -1t-31 -2.5t-34 -5t-38 -8.5
t-40.5 -12.5t-43.5 -17.5t-43.5 -23.5t-45 -29.5l-113 192q164 164 467 164q127 0 222 -31t147.5 -77.5t85 -112t42 -122t9.5 -120.5v-610h-305v143q-62 -77 -156 -121.5t-207 -44.5z" />
    <glyph glyph-name="at.case" horiz-adv-x="2074" 
d="M1548 332q115 5 182.5 117t67.5 337q0 207 -94 371t-267 257t-395 93q-221 0 -399 -104.5t-277.5 -286.5t-99.5 -405t92.5 -403t262.5 -284t387 -104q238 0 409 82l82 -158q-104 -50 -235 -78t-256 -28q-205 0 -379.5 74t-295 203.5t-188 309t-67.5 386.5q0 208 73 390
t200 311t306 203.5t385 74.5q208 0 384.5 -67t299.5 -186t192 -286.5t69 -364.5q0 -165 -32.5 -287t-92.5 -194t-138 -106.5t-176 -34.5q-138 0 -202.5 58.5t-75.5 166.5q-52 -70 -140 -107.5t-180 -37.5q-127 0 -228 63.5t-155.5 169.5t-54.5 234t54.5 234t156.5 169.5
t233 63.5q189 0 299 -136v115h201v-717q0 -56 25.5 -82t66.5 -26zM713 711q0 -122 74 -204.5t196 -82.5q119 0 194.5 77t75.5 206t-75 209.5t-199 80.5q-125 0 -195.5 -81.5t-70.5 -204.5z" />
    <glyph glyph-name="atilde.alt" 
d="M838 1511l153 -45q-35 -125 -88 -187t-147 -62q-65 0 -161 34.5t-124 34.5q-41 0 -64 -20.5t-45 -67.5l-153 45q35 125 88 187.5t147 62.5q65 0 161 -35t124 -35q41 0 64 20.5t45 67.5zM565 483q-57 0 -98 -14.5t-61 -39t-28.5 -47.5t-8.5 -48q0 -44 38 -80.5t107 -36.5
q93 0 158.5 28.5t128.5 84.5v112q-131 41 -236 41zM432 -23q-55 0 -108 14t-101 43t-84.5 69.5t-58 98t-21.5 124.5q0 147 125 239t322 92q135 0 289 -45v29q0 43 -23.5 78.5t-58.5 56t-71 31t-67 10.5h-14h-21t-25.5 -1t-30.5 -2.5t-34 -5t-38.5 -8.5t-40 -12.5t-43 -17.5
t-43.5 -23.5t-45 -29.5l-113 192q164 164 467 164q127 0 222 -31t147.5 -77.5t85 -112t42 -122t9.5 -120.5v-610h-305v143q-62 -77 -156 -121.5t-207 -44.5z" />
    <glyph glyph-name="bitcoin" horiz-adv-x="1327" 
d="M731 1571v-172q208 -12 335.5 -111t127.5 -262q0 -91 -59 -169.5t-170 -115.5q124 -24 209.5 -120.5t85.5 -202.5q0 -175 -142 -281t-375 -106h-12v-174h-131v174h-115v-174h-131v174h-219v1370h219v170h131v-170h115v170h131zM625 612h-164v-338h282q81 0 135 41t54 107
q0 31 -6 55.5t-25 51t-51.5 43.5t-90 28.5t-134.5 11.5zM461 827h131q272 0 272 185q0 69 -52.5 107t-129.5 38h-221v-330z" />
    <glyph glyph-name="braceleft.case" horiz-adv-x="798" 
d="M393 731v-33q148 -41 148 -176q0 -48 -19 -114.5t-42.5 -122t-42.5 -124.5t-19 -122q0 -143 135 -143q41 0 178 16v-195q-152 -16 -221 -16q-101 0 -183 31t-136 103.5t-54 178.5q0 105 78 348q0 1 11.5 31t17 46t15 44t13.5 49t4 37t-28 23l-170 39v168l170 39
q28 7 28 22q0 19 -8 51t-16 54.5t-21.5 59.5t-15.5 42q-78 243 -78 348q0 80 31 142t83.5 98.5t118 55t140.5 18.5q60 0 221 -17v-194q-137 16 -178 16q-135 0 -135 -143q0 -66 31 -157t61.5 -179t30.5 -148q0 -135 -148 -176z" />
    <glyph glyph-name="braceright.case" horiz-adv-x="798" 
d="M406 698v33q-148 41 -148 176q0 48 19 114.5t42.5 122.5t42.5 125t19 122q0 143 -135 143q-43 0 -178 -16v194q161 17 221 17q75 0 140.5 -18.5t118 -55t83.5 -98.5t31 -142q0 -105 -78 -348q-2 -7 -15.5 -42t-22 -59t-16.5 -55.5t-8 -50.5q0 -15 29 -22l170 -39v-168
l-170 -39q-29 -7 -29 -23t4.5 -37.5t13 -48t15 -45t17 -45t12.5 -31.5q78 -243 78 -348q0 -106 -54 -178.5t-136 -103.5t-183 -31q-69 0 -221 16v195q135 -16 178 -16q135 0 135 143q0 53 -19 122t-42.5 124.5t-42.5 122t-19 114.5q0 135 148 176z" />
    <glyph glyph-name="bracketleft.case" horiz-adv-x="833" 
d="M137 -293v2015h633v-241h-338v-1532h338v-242h-633z" />
    <glyph glyph-name="bracketright.case" horiz-adv-x="833" 
d="M696 1724v-2015h-633v242h338v1532h-338v241h633z" />
    <glyph glyph-name="breve.case" horiz-adv-x="983" 
d="M492 1737q56 0 95.5 33.5t45.5 105.5l186 -21q-9 -73 -37 -129.5t-62.5 -88t-78 -52t-79 -27t-70.5 -6.5t-70.5 6.5t-79 27t-78.5 52t-63 88t-37 129.5l186 21q6 -72 46 -105.5t96 -33.5z" />
    <glyph glyph-name="bullet.case" horiz-adv-x="819" 
d="M135 717q0 117 77.5 196.5t197.5 79.5t198 -79.5t78 -196.5q0 -118 -78 -198.5t-198 -80.5t-197.5 79.5t-77.5 199.5z" />
    <glyph glyph-name="caron.case" horiz-adv-x="1040" 
d="M670 1536h-301l-205 315h209l147 -161l148 161h209z" />
    <glyph glyph-name="cedilla.case" horiz-adv-x="927" 
d="M385 20v41h158q112 -45 166.5 -126.5t54.5 -157.5q0 -67 -28 -116.5t-72.5 -75.5t-89 -38t-87.5 -12q-115 0 -196.5 63.5t-126.5 165.5l155 72q50 -108 130 -108q98 0 98 100q0 17 -5.5 39t-20.5 52.5t-50 58t-86 42.5z" />
    <glyph glyph-name="cent.case" horiz-adv-x="1171" 
d="M80 719q0 114 40.5 213.5t113.5 172.5t181.5 116t237.5 45l33 168h158l-37 -185q141 -30 291 -139l-140 -223q-89 77 -198 96l-98 -537h20q59 0 134 22.5t142 82.5l140 -223q-211 -156 -430 -156q-9 0 -28 1t-28 1l-34 -174h-156l39 201q-179 54 -280 192.5t-101 325.5z
M385 719q0 -157 127 -232l90 496q-100 -23 -158.5 -94t-58.5 -170z" />
    <glyph glyph-name="cent.dnom" horiz-adv-x="626" 
d="M387 729h66l-21 -108q76 -25 148 -74l-84 -119q-40 37 -88 49l-46 -246q76 0 134 54l86 -119q-112 -84 -230 -84h-16l-14 -82h-74l16 90q-102 23 -159.5 95t-57.5 171q0 118 84 196.5t221 78.5h17zM231 356q0 -70 64 -108l43 231q-45 -8 -76 -42.5t-31 -80.5z" />
    <glyph glyph-name="cent.numr" horiz-adv-x="626" 
d="M387 1450h66l-21 -109q79 -26 148 -73l-84 -119q-40 37 -88 49l-46 -246q76 0 134 54l86 -119q-112 -84 -230 -84h-16l-14 -82h-74l16 90q-102 23 -159.5 95t-57.5 171q0 118 84 196.5t221 78.5h17zM231 1077q0 -70 64 -108l43 231q-45 -8 -76 -42.5t-31 -80.5z" />
    <glyph glyph-name="circumflex.case" horiz-adv-x="1040" 
d="M369 1851h301l207 -315h-209l-148 162l-147 -162h-209z" />
    <glyph glyph-name="comma.dnom" horiz-adv-x="382" 
d="M113 -193l-50 68q34 11 67.5 45t41.5 60q-34 6 -58 32.5t-24 53.5q-2 40 25 68t78 28q58 0 82 -36t24 -77q0 -69 -53.5 -143.5t-132.5 -98.5z" />
    <glyph glyph-name="comma.numr" horiz-adv-x="382" 
d="M113 528l-50 68q34 11 67.5 44.5t41.5 59.5q-34 6 -58 32.5t-24 53.5q-2 40 25 68.5t78 28.5q58 0 82 -36t24 -77q0 -69 -53.5 -143.5t-132.5 -98.5z" />
    <glyph glyph-name="commaaccent.case" horiz-adv-x="659" 
d="M244 -641l-62 104q28 11 48.5 21.5t45.5 28.5t38.5 43.5t13.5 56.5q-71 -18 -117.5 22t-46.5 113q0 66 44 108t116 42q58 0 99 -29t57 -65.5t16 -73.5q0 -283 -252 -371z" />
    <glyph glyph-name="dieresis.case" horiz-adv-x="1062" 
d="M104 1692q0 71 48 112t127 41q76 0 125 -41.5t49 -111.5q0 -68 -49.5 -109t-124.5 -41q-79 0 -127 41t-48 109zM612 1692q0 71 48 112t124 41q77 0 127 -41.5t50 -111.5q0 -68 -50 -109t-127 -41q-76 0 -124 41t-48 109z" />
    <glyph glyph-name="dollar.dnom" horiz-adv-x="634" 
d="M303 -68v66q-103 5 -176.5 61.5t-83.5 151.5l143 31q12 -41 45.5 -71t71.5 -36v148l-43 16q-182 63 -182 209q0 89 62 144t163 61v65h51v-67q150 -16 213 -156l-127 -68q-30 65 -86 86v-141l37 -12q101 -33 147 -94t46 -115q0 -96 -66.5 -149.5t-163.5 -61.5v-68h-51z
M246 512q0 -41 57 -63v131q-57 -15 -57 -68zM412 207q0 32 -58 57v-125q58 15 58 68z" />
    <glyph glyph-name="dollar.numr" horiz-adv-x="634" 
d="M303 653v66q-103 5 -176.5 61.5t-83.5 151.5l143 31q12 -41 45.5 -71t71.5 -36v148l-43 16q-182 63 -182 209q0 89 62 144t163 61v65h51v-67q150 -16 213 -156l-127 -68q-30 65 -86 86v-141l37 -12q101 -33 147 -94t46 -115q0 -96 -66.5 -149.5t-163.5 -61.5v-68h-51z
M246 1233q0 -42 57 -64v131q-57 -15 -57 -67zM412 928q0 32 -58 57v-125q58 15 58 68z" />
    <glyph glyph-name="dotaccent.case" horiz-adv-x="684" 
d="M164 1698q0 71 49.5 112t128.5 41q76 0 127 -41.5t51 -111.5q0 -67 -51 -108.5t-127 -41.5q-79 0 -128.5 41t-49.5 109z" />
    <glyph glyph-name="eight.dnom" horiz-adv-x="716" 
d="M358 422q45 0 73 24.5t28 55.5q0 37 -29 58.5t-72 21.5t-71.5 -21.5t-28.5 -58.5q0 -31 27.5 -55.5t72.5 -24.5zM358 311q-58 0 -93.5 -29.5t-35.5 -64.5q0 -37 38 -64.5t91 -27.5t91 27.5t38 64.5q0 35 -35.5 64.5t-93.5 29.5zM358 -23q-134 0 -220.5 64.5t-86.5 177.5
q0 45 34.5 92.5t88.5 63.5q-41 18 -65.5 54t-24.5 73q0 98 77 157.5t197 59.5t197.5 -59.5t77.5 -157.5q0 -37 -24.5 -73t-65.5 -54q54 -16 88.5 -63.5t34.5 -92.5q0 -112 -86.5 -177t-221.5 -65z" />
    <glyph glyph-name="eight.numr" horiz-adv-x="716" 
d="M358 1151q45 0 73 24.5t28 55.5q0 37 -29 58.5t-72 21.5t-71.5 -21.5t-28.5 -58.5q0 -31 27.5 -55.5t72.5 -24.5zM358 1040q-58 0 -93.5 -29.5t-35.5 -64.5q0 -37 38 -64.5t91 -27.5t91 27.5t38 64.5q0 35 -35.5 64.5t-93.5 29.5zM358 707q-135 0 -221 64.5t-86 176.5
q0 45 34.5 92.5t88.5 63.5q-41 18 -65.5 54t-24.5 73q0 98 77 157.5t197 59.5t197.5 -59.5t77.5 -157.5q0 -37 -24.5 -73t-65.5 -54q54 -16 88.5 -63.5t34.5 -92.5q0 -112 -86.5 -176.5t-221.5 -64.5z" />
    <glyph glyph-name="eight.oldstyle" horiz-adv-x="1347" 
d="M666 758h16q102 0 159.5 50t57.5 110q0 58 -63 101.5t-162 43.5t-162 -43.5t-63 -101.5q0 -60 57.5 -110t159.5 -50zM682 569h-16q-129 0 -201 -50t-72 -122q0 -73 79 -121.5t202 -48.5t201.5 48.5t78.5 121.5q0 72 -71.5 122t-200.5 50zM674 -23q-165 0 -300.5 54.5
t-212.5 149t-77 208.5q0 97 59.5 181.5t178.5 123.5q-62 23 -104 64.5t-58.5 85t-16.5 90.5q0 159 152 268t379 109t378.5 -109t151.5 -268q0 -74 -43.5 -140t-134.5 -100q119 -39 178.5 -123.5t59.5 -181.5q0 -114 -77 -208.5t-212.5 -149t-300.5 -54.5z" />
    <glyph glyph-name="eight.taboldstyle" horiz-adv-x="1392" 
d="M688 758h17q102 0 159.5 50t57.5 110q0 58 -63.5 101.5t-162.5 43.5t-162 -43.5t-63 -101.5q0 -60 57.5 -110t159.5 -50zM705 569h-17q-129 0 -200.5 -50t-71.5 -122q0 -73 78.5 -121.5t201.5 -48.5t202 48.5t79 121.5q0 72 -71.5 122t-200.5 50zM696 -23
q-165 0 -300.5 54.5t-212.5 149t-77 208.5q0 97 59.5 181.5t178.5 123.5q-91 34 -134.5 100t-43.5 140q0 159 151.5 268t378.5 109t379 -109t152 -268q0 -74 -43.5 -140t-134.5 -100q119 -39 178 -123.5t59 -181.5q0 -114 -77 -208.5t-212.5 -149t-300.5 -54.5z" />
    <glyph glyph-name="eight.tnum" horiz-adv-x="1392" 
d="M694 856h4q108 0 164 57t56 129q0 68 -60.5 115t-161.5 47t-161 -46.5t-60 -115.5q0 -72 55.5 -129t163.5 -57zM705 643q-139 4 -213 -57t-74 -148t76 -143.5t202 -56.5t202.5 56.5t76.5 143.5q0 85 -69.5 145t-200.5 60zM696 -23q-264 0 -428 124.5t-164 336.5
q0 99 72 196.5t182 133.5q-86 33 -141 112.5t-55 161.5q0 189 148.5 301.5t385.5 112.5t386 -112.5t149 -301.5q0 -82 -55.5 -161.5t-141.5 -112.5q110 -36 182 -133.5t72 -196.5q0 -212 -164 -336.5t-428 -124.5z" />
    <glyph glyph-name="emdash.case" horiz-adv-x="1640" 
d="M125 594v246h1391v-246h-1391z" />
    <glyph glyph-name="endash.case" horiz-adv-x="1204" 
d="M125 594v246h954v-246h-954z" />
    <glyph glyph-name="exclamdown.case" horiz-adv-x="608" 
d="M489 59l-73 895h-223l-74 -895v-59h370v59zM111 1280q0 76 54 126t138 50q82 0 138.5 -50.5t56.5 -125.5q0 -77 -56.5 -128.5t-138.5 -51.5q-84 0 -138 51t-54 129z" />
    <glyph glyph-name="five.dnom" horiz-adv-x="667" 
d="M295 123q67 0 99 32t32 78q0 41 -31.5 76t-89.5 35q-72 0 -123 -33l-106 47l18 342h465v-149h-313l-6 -105q46 27 127 27q103 0 176 -71t73 -169q0 -119 -81 -189.5t-226 -70.5q-172 0 -268 86l90 115q76 -51 164 -51z" />
    <glyph glyph-name="five.numr" horiz-adv-x="667" 
d="M295 856q67 0 99 32.5t32 78.5q0 41 -31.5 75.5t-89.5 34.5q-72 0 -123 -33l-106 48l18 342h465v-150h-313l-6 -104q44 26 127 26q103 0 176 -70.5t73 -168.5q0 -119 -81 -189.5t-226 -70.5q-172 0 -268 86l90 114q76 -51 164 -51z" />
    <glyph glyph-name="five.oldstyle" horiz-adv-x="1208" 
d="M563 -14q127 0 204 63t77 156q0 80 -58 135t-180 55q-164 0 -284 -100l-203 108l39 648h891v-242h-635l-13 -256h11q57 35 128 52.5t132 17.5q214 0 345.5 -122t131.5 -296q0 -209 -149 -340t-418 -131q-328 0 -521 178l150 190q117 -68 198.5 -92t153.5 -24z" />
    <glyph glyph-name="five.taboldstyle" horiz-adv-x="1392" 
d="M655 -14q127 0 204 63t77 156q0 80 -58 135t-180 55q-164 0 -284 -100l-203 108l39 648h891v-242h-635l-12 -256h10q57 35 128 52.5t132 17.5q214 0 345.5 -122t131.5 -296q0 -209 -149 -340t-418 -131q-327 0 -520 178l149 190q117 -68 198.5 -92t153.5 -24z" />
    <glyph glyph-name="five.tnum" horiz-adv-x="1392" 
d="M653 236q139 0 219 75t80 183q0 88 -72 154.5t-194 66.5q-79 0 -159 -26.5t-132 -78.5l-207 82l48 742h925v-252h-655l-21 -303h11q100 75 274 75q129 0 243 -61.5t182.5 -168t68.5 -230.5q0 -233 -159 -375t-439 -142q-348 0 -535 173l152 194q187 -108 370 -108z" />
    <glyph glyph-name="florin.dnom" horiz-adv-x="546" 
d="M362 313v-340q0 -108 -54 -155t-138 -47q-30 0 -69.5 9.5t-63.5 22.5l53 125q26 -16 49 -16q21 0 32 13t11 26v362h-76v105h76v108q0 109 53.5 156t137.5 47q30 0 69 -9t62 -22l-53 -131q-27 15 -56 15q-33 0 -33 -35v-129h115v-105h-115z" />
    <glyph glyph-name="florin.numr" horiz-adv-x="546" 
d="M362 1034v-340q0 -108 -54 -155t-138 -47q-30 0 -69.5 9.5t-63.5 22.5l53 125q26 -16 49 -16q21 0 32 13t11 26v362h-76v105h76v108q0 109 53.5 156t137.5 47q30 0 69 -9t62 -22l-53 -131q-27 15 -56 15q-33 0 -33 -35v-129h115v-105h-115z" />
    <glyph glyph-name="florininferior" horiz-adv-x="544" 
d="M360 23v-340q0 -108 -54 -155.5t-138 -47.5q-29 0 -68.5 10t-64.5 23l53 125q28 -17 49 -17t32 13t11 26v363h-76v104h76v109q0 109 53.5 155.5t137.5 46.5q31 0 70 -8.5t61 -21.5l-53 -132q-27 15 -56 15q-33 0 -33 -35v-129h115v-104h-115z" />
    <glyph glyph-name="florinsuperior" horiz-adv-x="542" 
d="M360 1290v-340q0 -108 -54 -155t-138 -47q-30 0 -69.5 9.5t-63.5 22.5l53 125q26 -16 49 -16q21 0 32 13t11 26v362h-76v105h76v108q0 109 53.5 156t137.5 47q30 0 69 -9t62 -22l-53 -131q-27 15 -56 15q-33 0 -33 -35v-129h115v-105h-115z" />
    <glyph glyph-name="four.dnom" horiz-adv-x="737" 
d="M221 324h158v188zM369 178h-344v101l352 434h184v-389h141v-146h-141v-178h-192v178z" />
    <glyph glyph-name="four.numr" horiz-adv-x="737" 
d="M221 1044h158v189zM369 899h-344v100l352 435h184v-390h141v-145h-141v-178h-192v178z" />
    <glyph glyph-name="four.oldstyle" horiz-adv-x="1339" 
d="M393 309h322v377zM715 61h-672v187l686 803h289v-742h264v-248h-264v-301h-303v301z" />
    <glyph glyph-name="four.taboldstyle" horiz-adv-x="1392" 
d="M420 309h321v377zM741 61h-671v187l686 803h288v-742h265v-248h-265v-301h-303v301z" />
    <glyph glyph-name="four.tnum" horiz-adv-x="1392" 
d="M406 614h321v369zM727 358h-670v187l770 889h211v-820h285v-256h-285v-358h-311v358z" />
    <glyph glyph-name="g.alt" horiz-adv-x="1286" 
d="M836 659q0 84 -57 135.5t-148 51.5q-93 0 -155 -51.5t-62 -132.5q0 -79 61 -133t158 -54q91 0 147 51t56 133zM612 -291q334 0 334 109q0 31 -33.5 50t-87.5 19h-280q-125 0 -178 39q-74 -36 -74 -98q0 -31 21.5 -54t52.5 -35t77.5 -19t84 -9t83.5 -2zM977 1114h260
q15 -15 22 -40.5t7 -39.5q0 -64 -48 -109.5t-143 -62.5q27 -36 42.5 -96.5t15.5 -110.5q0 -94 -44 -173t-116 -129.5t-163 -78.5t-187 -28q-55 0 -126.5 12t-121.5 29q-11 -7 -20 -25t-9 -31q0 -40 47 -60.5t115 -20.5h362q85 0 153 -20.5t109.5 -52t69.5 -72t38.5 -77
t10.5 -71.5q0 -53 -18.5 -101.5t-65.5 -96.5t-117.5 -83t-183.5 -56.5t-256 -21.5q-76 0 -144 5.5t-138.5 18t-126 36t-100 56.5t-69 82t-24.5 111q0 73 52 141t114 95q-74 55 -74 160q0 104 115 190q-98 91 -98 266q0 90 31.5 162t81.5 118t117.5 77t135.5 44t138 13
q81 0 167 -19t150 -53q43 26 43 82q0 24 -4 31z" />
    <glyph glyph-name="gbreve.alt" horiz-adv-x="1286" 
d="M651 1382q51 0 89.5 35t45.5 119l193 -20q-7 -79 -32 -139.5t-58 -95.5t-77 -57t-82 -29t-79 -7t-79 7t-81.5 29t-76.5 57t-58 95.5t-32 139.5l192 20q7 -84 45.5 -119t89.5 -35zM836 659q0 84 -57 135.5t-148 51.5q-93 0 -155 -51.5t-62 -132.5q0 -79 61 -133t158 -54
q91 0 147 51t56 133zM612 -291q334 0 334 109q0 31 -33.5 50t-87.5 19h-280q-125 0 -178 39q-74 -36 -74 -98q0 -31 21.5 -54t52.5 -35t77.5 -19t84 -9t83.5 -2zM977 1114h260q15 -15 22 -40.5t7 -39.5q0 -64 -48 -109.5t-143 -62.5q27 -36 42.5 -96.5t15.5 -110.5
q0 -94 -44 -173t-116 -129.5t-163 -78.5t-187 -28q-55 0 -126.5 12t-121.5 29q-11 -7 -20 -25t-9 -31q0 -40 47 -60.5t115 -20.5h362q85 0 153 -20.5t109.5 -52t69.5 -72t38.5 -77t10.5 -71.5q0 -53 -18.5 -101.5t-65.5 -96.5t-117.5 -83t-183.5 -56.5t-256 -21.5
q-76 0 -144 5.5t-138.5 18t-126 36t-100 56.5t-69 82t-24.5 111q0 73 52 141t114 95q-74 55 -74 160q0 104 115 190q-98 91 -98 266q0 90 31.5 162t81.5 118t117.5 77t135.5 44t138 13q81 0 167 -19t150 -53q43 26 43 82q0 24 -4 31z" />
    <glyph glyph-name="gcircumflex.alt" horiz-adv-x="1286" 
d="M502 1536h301l217 -354h-215l-152 188l-151 -188h-215zM836 659q0 84 -57 135.5t-148 51.5q-93 0 -155 -51.5t-62 -132.5q0 -79 61 -133t158 -54q91 0 147 51t56 133zM612 -291q334 0 334 109q0 31 -33.5 50t-87.5 19h-280q-125 0 -178 39q-74 -36 -74 -98
q0 -31 21.5 -54t52.5 -35t77.5 -19t84 -9t83.5 -2zM977 1114h260q15 -15 22 -40.5t7 -39.5q0 -64 -48 -109.5t-143 -62.5q27 -36 42.5 -96.5t15.5 -110.5q0 -94 -44 -173t-116 -129.5t-163 -78.5t-187 -28q-55 0 -126.5 12t-121.5 29q-11 -7 -20 -25t-9 -31q0 -40 47 -60.5
t115 -20.5h362q85 0 153 -20.5t109.5 -52t69.5 -72t38.5 -77t10.5 -71.5q0 -53 -18.5 -101.5t-65.5 -96.5t-117.5 -83t-183.5 -56.5t-256 -21.5q-76 0 -144 5.5t-138.5 18t-126 36t-100 56.5t-69 82t-24.5 111q0 73 52 141t114 95q-74 55 -74 160q0 104 115 190
q-98 91 -98 266q0 90 31.5 162t81.5 118t117.5 77t135.5 44t138 13q81 0 167 -19t150 -53q43 26 43 82q0 24 -4 31z" />
    <glyph glyph-name="gcommaaccent.alt" horiz-adv-x="1286" 
d="M731 1718l62 -104q-28 -11 -48.5 -21.5t-45.5 -28.5t-38.5 -43.5t-13.5 -56.5q71 18 117.5 -22t46.5 -113q0 -66 -44 -107.5t-116 -41.5q-58 0 -99 29t-57 65.5t-16 73.5q0 282 252 370zM836 659q0 84 -57 135.5t-148 51.5q-93 0 -155 -51.5t-62 -132.5q0 -79 61 -133
t158 -54q91 0 147 51t56 133zM612 -291q334 0 334 109q0 31 -33.5 50t-87.5 19h-280q-125 0 -178 39q-74 -36 -74 -98q0 -31 21.5 -54t52.5 -35t77.5 -19t84 -9t83.5 -2zM977 1114h260q15 -15 22 -40.5t7 -39.5q0 -64 -48 -109.5t-143 -62.5q27 -36 42.5 -96.5t15.5 -110.5
q0 -94 -44 -173t-116 -129.5t-163 -78.5t-187 -28q-55 0 -126.5 12t-121.5 29q-11 -7 -20 -25t-9 -31q0 -40 47 -60.5t115 -20.5h362q85 0 153 -20.5t109.5 -52t69.5 -72t38.5 -77t10.5 -71.5q0 -53 -18.5 -101.5t-65.5 -96.5t-117.5 -83t-183.5 -56.5t-256 -21.5
q-76 0 -144 5.5t-138.5 18t-126 36t-100 56.5t-69 82t-24.5 111q0 73 52 141t114 95q-74 55 -74 160q0 104 115 190q-98 91 -98 266q0 90 31.5 162t81.5 118t117.5 77t135.5 44t138 13q81 0 167 -19t150 -53q43 26 43 82q0 24 -4 31z" />
    <glyph glyph-name="gdotaccent.alt" horiz-adv-x="1286" 
d="M473 1360q0 72 50 119t128 47q74 0 126 -47.5t52 -118.5q0 -69 -52 -115.5t-126 -46.5q-77 0 -127.5 46.5t-50.5 115.5zM836 659q0 84 -57 135.5t-148 51.5q-93 0 -155 -51.5t-62 -132.5q0 -79 61 -133t158 -54q91 0 147 51t56 133zM612 -291q334 0 334 109
q0 31 -33.5 50t-87.5 19h-280q-125 0 -178 39q-74 -36 -74 -98q0 -31 21.5 -54t52.5 -35t77.5 -19t84 -9t83.5 -2zM977 1114h260q15 -15 22 -40.5t7 -39.5q0 -64 -48 -109.5t-143 -62.5q27 -36 42.5 -96.5t15.5 -110.5q0 -94 -44 -173t-116 -129.5t-163 -78.5t-187 -28
q-55 0 -126.5 12t-121.5 29q-11 -7 -20 -25t-9 -31q0 -40 47 -60.5t115 -20.5h362q85 0 153 -20.5t109.5 -52t69.5 -72t38.5 -77t10.5 -71.5q0 -53 -18.5 -101.5t-65.5 -96.5t-117.5 -83t-183.5 -56.5t-256 -21.5q-76 0 -144 5.5t-138.5 18t-126 36t-100 56.5t-69 82
t-24.5 111q0 73 52 141t114 95q-74 55 -74 160q0 104 115 190q-98 91 -98 266q0 90 31.5 162t81.5 118t117.5 77t135.5 44t138 13q81 0 167 -19t150 -53q43 26 43 82q0 24 -4 31z" />
    <glyph glyph-name="grave.case" horiz-adv-x="1126" 
d="M264 1851h322l178 -315h-221z" />
    <glyph glyph-name="guillemotleft.case" horiz-adv-x="1325" 
d="M647 745l408 469l172 -155l-295 -342l293 -338l-170 -158l-408 467v57zM80 745l407 469l172 -155l-294 -342l292 -338l-170 -158l-407 467v57z" />
    <glyph glyph-name="guillemotright.case" horiz-adv-x="1325" 
d="M270 1214l408 -469v-57l-408 -467l-170 158l293 338l-295 342zM838 1214l407 -469v-57l-407 -467l-170 158l293 338l-295 342z" />
    <glyph glyph-name="guilsinglleft.case" horiz-adv-x="757" 
d="M80 745l407 469l172 -155l-294 -342l292 -338l-170 -158l-407 467v57z" />
    <glyph glyph-name="guilsinglright.case" horiz-adv-x="757" 
d="M270 1214l408 -469v-57l-408 -467l-170 158l293 338l-295 342z" />
    <glyph glyph-name="hungarumlaut.case" horiz-adv-x="1077" 
d="M336 1872h225l-209 -316h-188zM688 1872h225l-231 -316h-197z" />
    <glyph glyph-name="hyphen.case" horiz-adv-x="980" 
d="M125 592v246h731v-246h-731z" />
    <glyph glyph-name="hyphen.dnom" horiz-adv-x="595" 
d="M82 305v150h432v-150h-432z" />
    <glyph glyph-name="hyphen.numr" horiz-adv-x="595" 
d="M82 1026v150h432v-150h-432z" />
    <glyph glyph-name="macron.case" horiz-adv-x="972" 
d="M164 1794h645v-211h-645v211z" />
    <glyph glyph-name="nine.dnom" horiz-adv-x="704" 
d="M315 125q65 0 107.5 42.5t46.5 125.5h-6q-51 -62 -152 -62q-47 0 -92 14t-83 41.5t-61.5 74t-23.5 106.5q0 106 84 179t207 73q145 0 227 -99.5t82 -261.5q0 -106 -34.5 -190t-110.5 -137.5t-182 -53.5q-74 0 -141 26t-109 77l104 98q53 -53 137 -53zM346 356
q56 0 84.5 31t28.5 76q0 44 -29.5 75t-83.5 31q-51 0 -83 -28t-32 -76q0 -49 30.5 -79t84.5 -30z" />
    <glyph glyph-name="nine.numr" horiz-adv-x="704" 
d="M315 854q65 0 107.5 42.5t46.5 125.5h-6q-51 -61 -152 -61q-47 0 -92 14t-83 41t-61.5 73.5t-23.5 106.5q0 106 84 179t207 73q145 0 227 -99.5t82 -261.5q0 -78 -20.5 -146t-60 -120.5t-103 -83t-143.5 -30.5q-74 0 -141 25.5t-109 76.5l104 98q53 -53 137 -53z
M346 1085q56 0 84.5 31t28.5 76q0 44 -29.5 75t-83.5 31q-51 0 -83 -28t-32 -76q0 -49 30.5 -79t84.5 -30z" />
    <glyph glyph-name="nine.oldstyle" horiz-adv-x="1300" 
d="M584 -10q61 0 116 19.5t100.5 58.5t75 105t35.5 151h-8q-49 -56 -133.5 -92.5t-179.5 -36.5q-97 0 -188.5 29t-165.5 82.5t-119 137.5t-45 185q0 193 154.5 318.5t402.5 125.5q272 0 432 -175.5t160 -461.5q0 -146 -40 -271.5t-116 -220.5t-196.5 -149.5t-272.5 -54.5
q-149 0 -277.5 49t-214.5 141l183 166q113 -106 297 -106zM631 414q129 0 195.5 58.5t66.5 143.5q0 83 -74.5 146t-181.5 63q-109 0 -184.5 -54t-75.5 -144q0 -97 68 -155t186 -58z" />
    <glyph glyph-name="nine.taboldstyle" horiz-adv-x="1392" 
d="M629 -10q61 0 116 19.5t100.5 58.5t75 105t35.5 151h-8q-49 -56 -133.5 -92.5t-179.5 -36.5q-97 0 -188.5 29t-165.5 82.5t-119 137.5t-45 185q0 193 154.5 318.5t402.5 125.5q272 0 432 -175.5t160 -461.5q0 -146 -40 -271.5t-116 -220.5t-196.5 -149.5t-272.5 -54.5
q-149 0 -277 49t-214 141l182 166q113 -106 297 -106zM676 414q129 0 195.5 58.5t66.5 143.5q0 83 -74.5 146t-181.5 63q-109 0 -184.5 -54t-75.5 -144q0 -97 68 -155t186 -58z" />
    <glyph glyph-name="nine.tnum" horiz-adv-x="1392" 
d="M631 242q54 0 108.5 23.5t103 68t81.5 120t39 169.5h-9q-42 -62 -130.5 -103t-186.5 -41q-97 0 -190.5 33.5t-168.5 93.5t-121 153.5t-46 203.5q0 215 157.5 354t407.5 139q274 0 437 -195t163 -511q0 -162 -40.5 -301.5t-118 -245t-199.5 -166t-275 -60.5
q-151 0 -283 55t-217 156l187 170q112 -116 301 -116zM678 721q131 0 198.5 66t67.5 161q0 99 -70.5 174.5t-189.5 75.5q-107 0 -185.5 -68.5t-78.5 -168.5q0 -108 69 -174t189 -66z" />
    <glyph glyph-name="ogonek.case" horiz-adv-x="927" 
d="M543 61v-41q-51 -15 -86 -42.5t-50 -58t-20.5 -52.5t-5.5 -39q0 -100 98 -100q79 0 129 108l156 -72q-45 -102 -127 -165.5t-197 -63.5q-43 0 -87.5 12t-88.5 38t-72 75.5t-28 116.5q0 76 54.5 157.5t166.5 126.5h158z" />
    <glyph glyph-name="one.dnom" horiz-adv-x="497" 
d="M63 446l-49 140l295 127h109v-713h-193v512z" />
    <glyph glyph-name="one.numr" horiz-adv-x="493" 
d="M59 1167l-49 140l295 127h109v-713h-193v512z" />
    <glyph glyph-name="one.oldstyle" horiz-adv-x="1165" 
d="M135 600l-74 236l562 215h165v-801h330v-250h-975v250h342v469z" />
    <glyph glyph-name="one.taboldstyle" horiz-adv-x="1392" 
d="M248 600l-74 236l561 215h166v-801h330v-250h-975v250h342v469z" />
    <glyph glyph-name="one.tnum" horiz-adv-x="1392" 
d="M909 252h281v-252h-887v252h295v825q-50 -21 -158 -59.5t-145 -54.5l-78 239l518 232h174v-1182z" />
    <glyph glyph-name="parenleft.case" horiz-adv-x="722" 
d="M387 717q0 -146 30 -298.5t77 -275.5t93.5 -214.5t90.5 -153.5l-195 -113q-42 44 -90.5 111.5t-105 172.5t-102 220t-75.5 261.5t-30 289.5q0 144 30.5 291t75.5 262.5t101.5 220.5t105 172t90.5 111l195 -113q-44 -62 -90.5 -153.5t-93.5 -215t-77 -276t-30 -299.5z" />
    <glyph glyph-name="parenleft.dnom" horiz-adv-x="442" 
d="M240 354q0 -128 47 -252.5t98 -199.5l-113 -72q-28 28 -61 77t-67.5 117.5t-57.5 156.5t-23 173q0 86 23 174.5t57.5 157t67.5 118t61 77.5l113 -74q-52 -76 -98.5 -199t-46.5 -254z" />
    <glyph glyph-name="parenleft.numr" horiz-adv-x="442" 
d="M240 1104q0 -128 47 -253t98 -200l-113 -71q-28 28 -61 77t-67.5 117.5t-57.5 156.5t-23 173q0 86 23 174.5t57.5 157t67.5 117.5t61 77l113 -74q-52 -76 -98.5 -198.5t-46.5 -253.5z" />
    <glyph glyph-name="parenright.case" horiz-adv-x="722" 
d="M336 717q0 147 -30 299.5t-77 276t-93.5 215t-90.5 153.5l195 113q42 -44 90.5 -111t105 -172t101.5 -220.5t75.5 -262.5t30.5 -291q0 -143 -30 -289.5t-75.5 -261.5t-102 -220t-105 -172.5t-90.5 -111.5l-195 113q44 62 90.5 153.5t93.5 214.5t77 275.5t30 298.5z" />
    <glyph glyph-name="parenright.dnom" horiz-adv-x="442" 
d="M203 354q0 131 -46.5 254t-99.5 199l113 74q28 -28 61 -77.5t67.5 -118t57.5 -157t23 -174.5q0 -85 -23 -173t-57.5 -156.5t-67.5 -117.5t-61 -77l-113 72q51 76 98.5 200t47.5 252z" />
    <glyph glyph-name="parenright.numr" horiz-adv-x="442" 
d="M203 1104q0 131 -46.5 253t-99.5 199l113 74q28 -28 61 -77t67.5 -117.5t57.5 -157t23 -174.5q0 -85 -23 -173t-57.5 -156.5t-67.5 -117.5t-61 -77l-113 71q51 75 98.5 200t47.5 253z" />
    <glyph glyph-name="period.dnom" horiz-adv-x="376" 
d="M74 78q0 44 33 72t81 28t81.5 -28t33.5 -72q0 -42 -33.5 -71.5t-81.5 -29.5q-47 0 -80.5 29t-33.5 72z" />
    <glyph glyph-name="period.numr" horiz-adv-x="376" 
d="M74 799q0 44 33 72t81 28t81.5 -28t33.5 -72q0 -42 -33.5 -71.5t-81.5 -29.5q-47 0 -80.5 29t-33.5 72z" />
    <glyph glyph-name="periodcentered.case" horiz-adv-x="610" 
d="M113 717q0 78 54 129t138 51q82 0 138.5 -51.5t56.5 -128.5q0 -75 -56.5 -125.5t-138.5 -50.5q-84 0 -138 50t-54 126z" />
    <glyph glyph-name="questiondown.case" horiz-adv-x="1101" 
d="M459 956h284q0 -40 -1 -60.5t-5 -50.5t-13.5 -48.5t-25.5 -42t-42 -44.5t-62 -44q-79 -50 -121.5 -84t-71 -80.5t-28.5 -100.5q0 -76 53.5 -119.5t132.5 -43.5q76 0 129 40t53 109q0 40 -26 102h291q28 -53 28 -133q0 -65 -29.5 -130t-85 -121.5t-149.5 -92t-211 -35.5
q-217 0 -354 114.5t-137 303.5q0 136 84.5 243t275.5 226q31 18 31 74v18zM799 1280q0 -78 -54.5 -129t-138.5 -51q-82 0 -138 51t-56 129q0 75 56 125.5t138 50.5q84 0 138.5 -50t54.5 -126z" />
    <glyph glyph-name="ring.case" horiz-adv-x="833" 
d="M164 1755q0 102 72 161.5t180 59.5q110 0 182 -59t72 -162q0 -101 -72.5 -160t-181.5 -59q-108 0 -180 59t-72 160zM305 1755q0 -45 30.5 -67.5t80.5 -22.5t80 22.5t30 67.5t-30 66.5t-80 21.5t-80.5 -21.5t-30.5 -66.5z" />
    <glyph glyph-name="seven.dnom" horiz-adv-x="614" 
d="M41 561v152h553v-109l-315 -604h-205l299 561h-332z" />
    <glyph glyph-name="seven.numr" horiz-adv-x="612" 
d="M41 1282v152h553v-109l-315 -604h-205l299 561h-332z" />
    <glyph glyph-name="seven.oldstyle" horiz-adv-x="1124" 
d="M47 805v246h1059v-174l-627 -1117h-334l592 1045h-690z" />
    <glyph glyph-name="seven.taboldstyle" horiz-adv-x="1392" 
d="M180 805v246h1059v-174l-627 -1117h-333l591 1045h-690z" />
    <glyph glyph-name="seven.tnum" horiz-adv-x="1392" 
d="M174 1182v252h1075v-189l-651 -1245h-350l635 1182h-709z" />
    <glyph glyph-name="six.dnom" horiz-adv-x="706" 
d="M389 571q-65 0 -107 -42.5t-46 -125.5h6q51 62 151 62q47 0 92 -14t83 -41.5t61.5 -74t23.5 -106.5q0 -106 -84 -179t-207 -73q-145 0 -227 99.5t-82 261.5q0 163 85 272t243 109q74 0 141 -26t109 -77l-105 -98q-53 53 -137 53zM358 340q-56 0 -84 -31t-28 -76
q0 -44 29 -75t83 -31q51 0 83 28t32 76q0 49 -30.5 79t-84.5 30z" />
    <glyph glyph-name="six.numr" horiz-adv-x="706" 
d="M389 1300q-65 0 -107 -42t-46 -125h6q51 61 151 61q47 0 92 -14t83 -41.5t61.5 -74t23.5 -106.5q0 -106 -84 -178.5t-207 -72.5q-145 0 -227 99t-82 261q0 163 85 272t243 109q74 0 141 -25.5t109 -76.5l-105 -99q-53 53 -137 53zM358 1069q-56 0 -84 -30.5t-28 -75.5
t29 -76t83 -31q51 0 83 28.5t32 76.5t-30.5 78t-84.5 30z" />
    <glyph glyph-name="six.oldstyle" horiz-adv-x="1323" 
d="M727 1061q-61 0 -116 -19.5t-101 -58.5t-75.5 -105t-35.5 -151h9q49 56 133.5 92.5t179.5 36.5q97 0 188.5 -29t165.5 -82.5t119 -137.5t45 -185q0 -193 -154.5 -319t-402.5 -126q-272 0 -432 175.5t-160 461.5q0 146 40 271.5t116.5 221t197 150t271.5 54.5
q149 0 277 -49.5t214 -141.5l-182 -166q-114 107 -297 107zM680 639q-128 0 -195 -60t-67 -145q0 -83 74.5 -146t181.5 -63t183.5 57.5t76.5 141.5q0 98 -68 156.5t-186 58.5z" />
    <glyph glyph-name="six.taboldstyle" horiz-adv-x="1392" 
d="M762 1061q-61 0 -116 -19.5t-101 -58.5t-75.5 -105t-35.5 -151h8q49 56 134 92.5t180 36.5q97 0 188.5 -29t165.5 -82.5t119 -137.5t45 -185q0 -193 -154.5 -319t-402.5 -126q-272 0 -432 175.5t-160 461.5q0 146 40 271.5t116.5 221t197 150t271.5 54.5q149 0 277 -49.5
t214 -141.5l-182 -166q-114 107 -297 107zM715 639q-128 0 -195 -60t-67 -145q0 -83 74.5 -146t181.5 -63t183.5 57.5t76.5 141.5q0 98 -68.5 156.5t-185.5 58.5z" />
    <glyph glyph-name="six.tnum" horiz-adv-x="1392" 
d="M762 1192q-54 0 -108.5 -23.5t-103 -68t-81.5 -120t-39 -169.5h8q52 63 137 103t181 40q97 0 190.5 -33.5t168.5 -93t121 -153t46 -203.5q0 -215 -157.5 -354.5t-407.5 -139.5q-182 0 -318.5 89.5t-209 249.5t-72.5 368q0 162 40.5 301.5t118 245t199.5 165.5t275 60
q151 0 282.5 -54.5t216.5 -156.5l-186 -170q-113 117 -301 117zM715 713q-131 0 -198.5 -66.5t-67.5 -161.5q0 -99 70.5 -174t189.5 -75q107 0 185.5 68.5t78.5 168.5q0 108 -69 174t-189 66z" />
    <glyph glyph-name="sterling.dnom" horiz-adv-x="696" 
d="M522 276h-139q5 -33 -4 -71.5t-31 -63.5q86 4 98 4h197v-145h-590v143q148 10 148 86q0 26 -6 47h-123v86h84q-31 74 -31 154q0 95 73 154t185 59q120 0 182 -71t62 -162h-181q0 33 -19 56t-50 23q-32 0 -50 -18t-18 -49q0 -41 33 -146h180v-86z" />
    <glyph glyph-name="sterling.numr" horiz-adv-x="696" 
d="M522 997h-139q5 -33 -4 -71.5t-31 -63.5q86 4 98 4h197v-145h-590v143q148 10 148 86q0 26 -6 47h-123v86h84q-31 74 -31 154q0 95 73 154t185 59q120 0 182 -71t62 -162h-181q0 33 -19 56t-50 23q-32 0 -50 -18t-18 -49q0 -41 33 -146h180v-86z" />
    <glyph glyph-name="sterlinginferior" horiz-adv-x="694" 
d="M522 -14h-139q5 -33 -4 -72t-31 -64q17 1 40.5 2t38.5 2t19 1h197v-146h-590v144q148 10 148 86q0 26 -6 47h-123v86h84q-31 74 -31 153q0 95 73 154t185 59q120 0 182 -71t62 -162h-181q0 33 -19 56.5t-50 23.5q-32 0 -50 -18.5t-18 -49.5q0 -40 33 -145h180v-86z" />
    <glyph glyph-name="sterlingsuperior" horiz-adv-x="696" 
d="M522 1253h-139q5 -33 -4 -71.5t-31 -63.5q86 4 98 4h197v-145h-590v143q148 10 148 86q0 26 -6 47h-123v86h84q-31 74 -31 154q0 95 73 154t185 59q120 0 182 -71t62 -162h-181q0 33 -19 56t-50 23q-32 0 -50 -18t-18 -49q0 -41 33 -146h180v-86z" />
    <glyph glyph-name="three.dnom" horiz-adv-x="673" 
d="M307 135q49 0 85 34t36 73q0 42 -32 71t-77 29q-36 0 -79 -14l-66 90l174 145h-280v150h524v-105l-176 -159q90 -10 147.5 -68t57.5 -137q0 -107 -86.5 -182.5t-227.5 -75.5q-87 0 -149.5 18t-118.5 68l90 114q35 -24 71 -36t55.5 -13.5t51.5 -1.5z" />
    <glyph glyph-name="three.numr" horiz-adv-x="673" 
d="M307 856q49 0 85 34t36 73q0 42 -32 71t-77 29q-36 0 -79 -14l-66 90l174 145h-280v150h524v-105l-176 -160q90 -10 147.5 -68t57.5 -136q0 -107 -86.5 -182.5t-227.5 -75.5q-87 0 -149.5 18t-118.5 68l90 114q35 -24 71 -36t55.5 -13.5t51.5 -1.5z" />
    <glyph glyph-name="three.oldstyle" horiz-adv-x="1249" 
d="M567 -16q126 0 210.5 63.5t84.5 147.5q0 92 -76.5 157.5t-177.5 65.5q-107 0 -190 -51l-117 161l389 281h-567v242h1005v-162l-385 -293q172 -18 300 -134.5t128 -264.5q0 -92 -42.5 -174.5t-119 -145.5t-192.5 -100t-254 -37q-335 0 -522 156l152 174q59 -31 113.5 -50
t107.5 -26t79.5 -8.5t73.5 -1.5z" />
    <glyph glyph-name="three.taboldstyle" horiz-adv-x="1392" 
d="M639 -16q126 0 210.5 63.5t84.5 147.5q0 92 -76.5 157.5t-177.5 65.5q-108 0 -191 -51l-116 161l389 281h-567v242h1005v-162l-385 -293q172 -18 300 -134.5t128 -264.5q0 -92 -42.5 -174.5t-119 -145.5t-192.5 -100t-254 -37q-335 0 -522 156l151 174q59 -31 114 -50
t107.5 -26t79.5 -8.5t74 -1.5z" />
    <glyph glyph-name="three.tnum" horiz-adv-x="1392" 
d="M635 236q125 0 210 75.5t85 171.5q0 103 -75.5 168.5t-178.5 65.5q-96 0 -191 -39l-118 160l409 344h-588v252h1010v-181l-387 -325q113 -11 212 -75t158.5 -162.5t59.5 -205.5q0 -102 -42.5 -194t-119 -162t-193 -111t-255.5 -41q-338 0 -525 173l152 194
q187 -108 377 -108z" />
    <glyph glyph-name="tilde.case" horiz-adv-x="974" 
d="M725 1855l154 -45q-35 -125 -88.5 -187t-147.5 -62q-65 0 -161 34.5t-124 34.5q-41 0 -63 -20t-45 -68l-154 45q35 125 88.5 187.5t147.5 62.5q65 0 160.5 -35t123.5 -35q41 0 64 20.5t45 67.5z" />
    <glyph glyph-name="two.dnom" horiz-adv-x="667" 
d="M444 242l-100 -95q22 5 78 5h186v-152h-534l-19 109l269 253q84 72 84 134q0 37 -22.5 58t-63.5 21q-49 0 -73 -34t-24 -74l-172 2q0 41 14 83.5t43 83.5t84 67t128 26q124 0 198 -62.5t74 -170.5q0 -131 -150 -254z" />
    <glyph glyph-name="two.numr" horiz-adv-x="667" 
d="M444 963l-100 -95q18 4 78 4h186v-151h-534l-19 108l269 254q84 72 84 134q0 37 -22.5 58t-63.5 21q-49 0 -73 -34t-24 -74l-172 2q0 41 14 83.5t43 83.5t84 67t128 26q124 0 198 -62.5t74 -170.5q0 -131 -150 -254z" />
    <glyph glyph-name="two.oldstyle" horiz-adv-x="1239" 
d="M776 334l-135 -76l-27 -16q18 4 51.5 7t72.5 3.5t71.5 0.5t63.5 -0.5t32 -0.5h244v-252h-1049l-10 186l584 369q80 48 106.5 83.5t26.5 80.5q0 121 -201 121q-96 0 -150.5 -41.5t-54.5 -108.5h-305q0 54 15 105.5t52.5 102.5t94 89t148 62t206.5 24q226 0 364 -91
t138 -253q0 -128 -75.5 -213.5t-262.5 -181.5z" />
    <glyph glyph-name="two.taboldstyle" horiz-adv-x="1392" 
d="M854 334l-135 -76l-27 -16q18 4 51.5 7t72.5 3.5t71.5 0.5t63.5 -0.5t32 -0.5h244v-252h-1049l-10 186l584 369q80 48 106.5 83.5t26.5 80.5q0 121 -201 121q-96 0 -150.5 -41.5t-54.5 -108.5h-305q0 54 15 105.5t52.5 102.5t94 89t148 62t206.5 24q226 0 364 -91
t138 -253q0 -128 -75.5 -213.5t-262.5 -181.5z" />
    <glyph glyph-name="two.tnum" horiz-adv-x="1392" 
d="M905 489l-293 -249q98 12 224 12h409v-252h-1050l-31 188l545 502q192 172 192 303q0 96 -60 149.5t-165 53.5q-67 0 -115.5 -21t-73.5 -56t-36 -70.5t-11 -73.5h-299q0 42 8.5 86t28 91.5t48 91t72.5 82.5t97.5 67.5t125.5 45.5t155 17q237 0 381.5 -124.5t144.5 -336.5
q0 -79 -25.5 -154.5t-73 -140t-93 -112.5t-105.5 -99z" />
    <glyph glyph-name="uni02C9.case" horiz-adv-x="972" 
d="M164 1794h645v-211h-645v211z" />
    <glyph glyph-name="y.alt" 
d="M616 393l250 658h336l-426 -971q-71 -171 -77 -183q-101 -219 -242 -313q-128 -86 -305 -86q-77 0 -164.5 26t-161.5 77l106 239q100 -71 228 -71q45 0 86.5 22.5t66 44.5t57 78t41.5 75.5t37 83.5q5 10 7 15l-432 963h344z" />
    <glyph glyph-name="yacute.alt" 
d="M616 393l250 658h336l-426 -971q-71 -171 -77 -183q-101 -219 -242 -313q-128 -86 -305 -86q-77 0 -164.5 26t-161.5 77l106 239q100 -71 228 -71q45 0 86.5 22.5t66 44.5t57 78t41.5 75.5t37 83.5q5 10 7 15l-432 963h344zM649 1536h322l-303 -354h-222z" />
    <glyph glyph-name="ycircumflex.alt" 
d="M616 393l250 658h336l-426 -971q-71 -171 -77 -183q-101 -219 -242 -313q-128 -86 -305 -86q-77 0 -164.5 26t-161.5 77l106 239q100 -71 228 -71q45 0 86.5 22.5t66 44.5t57 78t41.5 75.5t37 83.5q5 10 7 15l-432 963h344zM459 1536h301l217 -354h-215l-152 188
l-151 -188h-215z" />
    <glyph glyph-name="ydieresis.alt" 
d="M616 393l250 658h336l-426 -971q-71 -171 -77 -183q-101 -219 -242 -313q-128 -86 -305 -86q-77 0 -164.5 26t-161.5 77l106 239q100 -71 228 -71q45 0 86.5 22.5t66 44.5t57 78t41.5 75.5t37 83.5q5 10 7 15l-432 963h344zM168 1360q0 72 50 119t128 47q74 0 126 -47.5
t52 -118.5q0 -69 -52 -115.5t-126 -46.5q-77 0 -127.5 46.5t-50.5 115.5zM676 1360q0 72 50.5 119t125.5 47q76 0 128 -47.5t52 -118.5q0 -69 -52.5 -115.5t-127.5 -46.5t-125.5 46.5t-50.5 115.5z" />
    <glyph glyph-name="yen.dnom" horiz-adv-x="796" 
d="M662 119h-166v-119h-195v119h-166v82h166v92h-166v80h111l-207 309v31h207l153 -258l150 258h209v-33l-207 -307h111v-80h-166v-92h166v-82z" />
    <glyph glyph-name="yen.numr" horiz-adv-x="796" 
d="M662 840h-166v-119h-195v119h-166v82h166v92h-166v80h111l-207 309v31h207l153 -258l150 258h209v-33l-207 -307h111v-80h-166v-92h166v-82z" />
    <glyph glyph-name="yeninferior" horiz-adv-x="796" 
d="M662 -172h-166v-119h-195v119h-166v82h166v92h-166v80h111l-207 309v31h207l153 -258l150 258h209v-33l-207 -307h111v-80h-166v-92h166v-82z" />
    <glyph glyph-name="yensuperior" horiz-adv-x="796" 
d="M662 1096h-166v-119h-195v119h-166v82h166v92h-166v80h111l-207 309v31h207l153 -258l150 258h209v-33l-207 -307h111v-80h-166v-92h166v-82z" />
    <glyph glyph-name="ygrave.alt" 
d="M616 393l250 658h336l-426 -971q-71 -171 -77 -183q-101 -219 -242 -313q-128 -86 -305 -86q-77 0 -164.5 26t-161.5 77l106 239q100 -71 228 -71q45 0 86.5 22.5t66 44.5t57 78t41.5 75.5t37 83.5q5 10 7 15l-432 963h344zM231 1536h322l203 -354h-221z" />
    <glyph glyph-name="zero.dnom" horiz-adv-x="753" 
d="M702 354q0 -157 -90 -267t-237 -110t-235.5 110t-88.5 267q0 159 88 267t236 108t237.5 -108t89.5 -267zM514 354q0 95 -37 155t-102 60q-62 0 -98.5 -60.5t-36.5 -154.5q0 -93 37 -155t98 -62q64 0 101.5 61.5t37.5 155.5z" />
    <glyph glyph-name="zero.numr" horiz-adv-x="757" 
d="M705 1079q0 -157 -90 -264.5t-238 -107.5t-236 107t-88 265t88 264.5t236 106.5t238 -107t90 -264zM516 1079q0 94 -37 152.5t-102 58.5q-62 0 -98.5 -58.5t-36.5 -152.5q0 -93 36.5 -153t98.5 -60q64 0 101.5 60t37.5 153z" />
    <glyph glyph-name="zero.oldstyle" horiz-adv-x="1370" 
d="M1290 526q0 -113 -43 -213.5t-120 -175t-191.5 -117.5t-251.5 -43q-136 0 -250.5 43t-191.5 117.5t-119.5 175t-42.5 213.5t42.5 213t119.5 174t191.5 117t250.5 43q137 0 251.5 -43t191.5 -117t120 -174t43 -213zM985 526q0 124 -82.5 211.5t-218.5 87.5
q-135 0 -217 -87.5t-82 -211.5t82 -212.5t217 -88.5q136 0 218.5 88.5t82.5 212.5z" />
    <glyph glyph-name="zero.taboldstyle" horiz-adv-x="1392" 
d="M1300 526q0 -113 -43 -213.5t-120 -175t-191.5 -117.5t-251.5 -43q-136 0 -250.5 43t-191.5 117.5t-119.5 175t-42.5 213.5t42.5 213t119.5 174t191.5 117t250.5 43q137 0 251.5 -43t191.5 -117t120 -174t43 -213zM995 526q0 124 -82.5 211.5t-218.5 87.5
q-135 0 -217 -87.5t-82 -211.5t82 -212.5t217 -88.5q136 0 218.5 88.5t82.5 212.5z" />
    <glyph glyph-name="zero.tnum" horiz-adv-x="1392" 
d="M1335 717q0 -153 -45.5 -287.5t-127 -234t-203 -157.5t-265.5 -58q-145 0 -266 58t-201.5 157.5t-125 234t-44.5 287.5q0 154 44.5 288.5t125 234.5t201.5 158t266 58q144 0 265.5 -58t203 -158t127 -235t45.5 -288zM1030 717q0 208 -92.5 349.5t-243.5 141.5
q-101 0 -177.5 -66.5t-115.5 -177.5t-39 -247t39 -246.5t115.5 -177t177.5 -66.5q151 0 243.5 141t92.5 349z" />
    </font>
</defs>
</svg>
